M48
; DRILL file {KiCad 5.1.2-f72e74a~84~ubuntu18.04.1} date Fri 21 Jun 2019 19:36:00 AEST
; FORMAT={-:-/ absolute / inch / decimal}
; #@! TF.CreationDate,2019-06-21T19:36:00+10:00
; #@! TF.GenerationSoftware,Kicad,Pcbnew,5.1.2-f72e74a~84~ubuntu18.04.1
; #@! TF.FileFunction,Plated,1,2,PTH
FMAT,2
INCH
T1C0.0157
T2C0.0197
T3C0.0394
T4C0.0433
T5C0.1378
%
G90
G05
T1
X4.95Y-3.425
X4.975Y-4.175
X5.0Y-3.425
X5.05Y-3.425
X5.07Y-3.65
X5.07Y-3.75
X5.07Y-3.85
X5.07Y-3.95
X5.1Y-3.425
X5.15Y-3.425
X5.2Y-3.425
X5.25Y-3.425
X5.3Y-3.425
X5.315Y-4.205
X5.35Y-3.425
X5.375Y-3.945
X5.375Y-4.055
X5.4Y-3.425
X5.405Y-3.7
X5.425Y-4.2
X5.45Y-3.425
X5.475Y-3.515
X5.475Y-3.875
X5.5Y-3.425
X5.545Y-3.7
X5.55Y-3.425
X5.6Y-3.425
X5.65Y-3.425
X5.675Y-3.9
X5.7Y-3.425
X5.725Y-3.73
X5.75Y-3.425
X5.75Y-4.1
X5.8Y-3.425
X5.825Y-3.625
X5.825Y-3.8
X5.825Y-3.975
X5.825Y-4.15
X5.85Y-3.425
X5.9Y-3.425
X5.95Y-3.425
X6.0Y-3.425
X6.005Y-3.625
X6.005Y-3.8
X6.005Y-3.975
X6.005Y-4.15
T2
X6.3967Y-3.85
X6.4269Y-3.7769
X6.4269Y-3.9231
X6.5Y-3.7467
X6.5Y-3.9533
X6.5731Y-3.7769
X6.5731Y-3.9231
X6.6033Y-3.85
T3
X4.875Y-3.6
X4.875Y-3.7
X4.875Y-3.8
X4.875Y-3.9
X4.875Y-4.0
X4.875Y-4.1
T4
X6.175Y-3.9
X6.175Y-4.0
X6.175Y-4.1
X6.175Y-4.2
X6.175Y-3.5
X6.175Y-3.6
X6.175Y-3.7
X6.175Y-3.8
T5
X6.5Y-3.85
T0
M30
