G04 #@! TF.GenerationSoftware,KiCad,Pcbnew,5.1.2-f72e74a~84~ubuntu18.04.1*
G04 #@! TF.CreationDate,2019-06-21T19:35:54+10:00*
G04 #@! TF.ProjectId,axis-encoder,61786973-2d65-46e6-936f-6465722e6b69,21/06/19*
G04 #@! TF.SameCoordinates,Original*
G04 #@! TF.FileFunction,Soldermask,Top*
G04 #@! TF.FilePolarity,Negative*
%FSLAX46Y46*%
G04 Gerber Fmt 4.6, Leading zero omitted, Abs format (unit mm)*
G04 Created by KiCad (PCBNEW 5.1.2-f72e74a~84~ubuntu18.04.1) date 2019-06-21 19:35:54*
%MOMM*%
%LPD*%
G04 APERTURE LIST*
%ADD10C,0.100000*%
G04 APERTURE END LIST*
D10*
G36*
X153035000Y-87630000D02*
G01*
X125095000Y-87630000D01*
X125095000Y-86360000D01*
X153035000Y-86360000D01*
X153035000Y-87630000D01*
G37*
X153035000Y-87630000D02*
X125095000Y-87630000D01*
X125095000Y-86360000D01*
X153035000Y-86360000D01*
X153035000Y-87630000D01*
G36*
X167838657Y-106334924D02*
G01*
X167931689Y-106353429D01*
X168113678Y-106428811D01*
X168277463Y-106538249D01*
X168416751Y-106677537D01*
X168526189Y-106841322D01*
X168600459Y-107020627D01*
X168601571Y-107023312D01*
X168640000Y-107216507D01*
X168640000Y-107413493D01*
X168614381Y-107542290D01*
X168601571Y-107606689D01*
X168526189Y-107788678D01*
X168416751Y-107952463D01*
X168277463Y-108091751D01*
X168113678Y-108201189D01*
X167931689Y-108276571D01*
X167867290Y-108289381D01*
X167738493Y-108315000D01*
X167541507Y-108315000D01*
X167412710Y-108289381D01*
X167348311Y-108276571D01*
X167166322Y-108201189D01*
X167002537Y-108091751D01*
X166863249Y-107952463D01*
X166753811Y-107788678D01*
X166678429Y-107606689D01*
X166665619Y-107542290D01*
X166640000Y-107413493D01*
X166640000Y-107216507D01*
X166678429Y-107023312D01*
X166679541Y-107020627D01*
X166753811Y-106841322D01*
X166863249Y-106677537D01*
X167002537Y-106538249D01*
X167166322Y-106428811D01*
X167348311Y-106353429D01*
X167441343Y-106334924D01*
X167541507Y-106315000D01*
X167738493Y-106315000D01*
X167838657Y-106334924D01*
X167838657Y-106334924D01*
G37*
G36*
X124023657Y-106334924D02*
G01*
X124116689Y-106353429D01*
X124298678Y-106428811D01*
X124462463Y-106538249D01*
X124601751Y-106677537D01*
X124711189Y-106841322D01*
X124785459Y-107020627D01*
X124786571Y-107023312D01*
X124825000Y-107216507D01*
X124825000Y-107413493D01*
X124799381Y-107542290D01*
X124786571Y-107606689D01*
X124711189Y-107788678D01*
X124601751Y-107952463D01*
X124462463Y-108091751D01*
X124298678Y-108201189D01*
X124116689Y-108276571D01*
X124052290Y-108289381D01*
X123923493Y-108315000D01*
X123726507Y-108315000D01*
X123597710Y-108289381D01*
X123533311Y-108276571D01*
X123351322Y-108201189D01*
X123187537Y-108091751D01*
X123048249Y-107952463D01*
X122938811Y-107788678D01*
X122863429Y-107606689D01*
X122850619Y-107542290D01*
X122825000Y-107413493D01*
X122825000Y-107216507D01*
X122863429Y-107023312D01*
X122864541Y-107020627D01*
X122938811Y-106841322D01*
X123048249Y-106677537D01*
X123187537Y-106538249D01*
X123351322Y-106428811D01*
X123533311Y-106353429D01*
X123626343Y-106334924D01*
X123726507Y-106315000D01*
X123923493Y-106315000D01*
X124023657Y-106334924D01*
X124023657Y-106334924D01*
G37*
G36*
X157996000Y-90051000D02*
G01*
X157030993Y-90051000D01*
X157006607Y-90053402D01*
X156983158Y-90060515D01*
X156961547Y-90072066D01*
X156942605Y-90087611D01*
X156927060Y-90106553D01*
X156915509Y-90128164D01*
X156908396Y-90151613D01*
X156905994Y-90175999D01*
X156908396Y-90200385D01*
X156915509Y-90223834D01*
X156927060Y-90245445D01*
X156942605Y-90264387D01*
X156961547Y-90279932D01*
X156983158Y-90291483D01*
X157006608Y-90298596D01*
X157180734Y-90333232D01*
X157390203Y-90419997D01*
X157578720Y-90545960D01*
X157739040Y-90706280D01*
X157865003Y-90894797D01*
X157950784Y-91101890D01*
X157951768Y-91104267D01*
X157990621Y-91299591D01*
X157996000Y-91326636D01*
X157996000Y-91553364D01*
X157951768Y-91775734D01*
X157865003Y-91985203D01*
X157739040Y-92173720D01*
X157578720Y-92334040D01*
X157390203Y-92460003D01*
X157390202Y-92460004D01*
X157390201Y-92460004D01*
X157354789Y-92474672D01*
X157180734Y-92546768D01*
X157053161Y-92572144D01*
X156976448Y-92587403D01*
X156952999Y-92594516D01*
X156931388Y-92606067D01*
X156912446Y-92621612D01*
X156896901Y-92640554D01*
X156885350Y-92662165D01*
X156878237Y-92685614D01*
X156875835Y-92710000D01*
X156878237Y-92734386D01*
X156885350Y-92757835D01*
X156896901Y-92779446D01*
X156912446Y-92798388D01*
X156931388Y-92813933D01*
X156952999Y-92825484D01*
X156976448Y-92832597D01*
X157053161Y-92847856D01*
X157180734Y-92873232D01*
X157390203Y-92959997D01*
X157578720Y-93085960D01*
X157739040Y-93246280D01*
X157865003Y-93434797D01*
X157951768Y-93644266D01*
X157996000Y-93866636D01*
X157996000Y-94093364D01*
X157951768Y-94315734D01*
X157865003Y-94525203D01*
X157739040Y-94713720D01*
X157578720Y-94874040D01*
X157390203Y-95000003D01*
X157180734Y-95086768D01*
X157104710Y-95101890D01*
X156976448Y-95127403D01*
X156952999Y-95134516D01*
X156931388Y-95146067D01*
X156912446Y-95161612D01*
X156896901Y-95180554D01*
X156885350Y-95202165D01*
X156878237Y-95225614D01*
X156875835Y-95250000D01*
X156878237Y-95274386D01*
X156885350Y-95297835D01*
X156896901Y-95319446D01*
X156912446Y-95338388D01*
X156931388Y-95353933D01*
X156952999Y-95365484D01*
X156976448Y-95372597D01*
X157053161Y-95387856D01*
X157180734Y-95413232D01*
X157290206Y-95458577D01*
X157387775Y-95498991D01*
X157390203Y-95499997D01*
X157578720Y-95625960D01*
X157739040Y-95786280D01*
X157815369Y-95900515D01*
X157865004Y-95974799D01*
X157882488Y-96017009D01*
X157951768Y-96184266D01*
X157996000Y-96406636D01*
X157996000Y-96633364D01*
X157951768Y-96855734D01*
X157865003Y-97065203D01*
X157739040Y-97253720D01*
X157578720Y-97414040D01*
X157390203Y-97540003D01*
X157180734Y-97626768D01*
X157064192Y-97649950D01*
X157006607Y-97661404D01*
X156983158Y-97668517D01*
X156961547Y-97680068D01*
X156942605Y-97695613D01*
X156927060Y-97714555D01*
X156915509Y-97736166D01*
X156908396Y-97759615D01*
X156905994Y-97784001D01*
X156908396Y-97808387D01*
X156915509Y-97831836D01*
X156927060Y-97853447D01*
X156942605Y-97872389D01*
X156961547Y-97887934D01*
X156983158Y-97899485D01*
X157006607Y-97906598D01*
X157030993Y-97909000D01*
X157996000Y-97909000D01*
X157996000Y-100211000D01*
X157030993Y-100211000D01*
X157006607Y-100213402D01*
X156983158Y-100220515D01*
X156961547Y-100232066D01*
X156942605Y-100247611D01*
X156927060Y-100266553D01*
X156915509Y-100288164D01*
X156908396Y-100311613D01*
X156905994Y-100335999D01*
X156908396Y-100360385D01*
X156915509Y-100383834D01*
X156927060Y-100405445D01*
X156942605Y-100424387D01*
X156961547Y-100439932D01*
X156983158Y-100451483D01*
X157006607Y-100458596D01*
X157064192Y-100470050D01*
X157180734Y-100493232D01*
X157270574Y-100530445D01*
X157354792Y-100565329D01*
X157390203Y-100579997D01*
X157578720Y-100705960D01*
X157739040Y-100866280D01*
X157840776Y-101018539D01*
X157865004Y-101054799D01*
X157880997Y-101093409D01*
X157951768Y-101264266D01*
X157959246Y-101301860D01*
X157996000Y-101486635D01*
X157996000Y-101713365D01*
X157976557Y-101811110D01*
X157951768Y-101935734D01*
X157865003Y-102145203D01*
X157739040Y-102333720D01*
X157578720Y-102494040D01*
X157390203Y-102620003D01*
X157180734Y-102706768D01*
X157053161Y-102732144D01*
X156976448Y-102747403D01*
X156952999Y-102754516D01*
X156931388Y-102766067D01*
X156912446Y-102781612D01*
X156896901Y-102800554D01*
X156885350Y-102822165D01*
X156878237Y-102845614D01*
X156875835Y-102870000D01*
X156878237Y-102894386D01*
X156885350Y-102917835D01*
X156896901Y-102939446D01*
X156912446Y-102958388D01*
X156931388Y-102973933D01*
X156952999Y-102985484D01*
X156976448Y-102992597D01*
X157053161Y-103007856D01*
X157180734Y-103033232D01*
X157390203Y-103119997D01*
X157578720Y-103245960D01*
X157739040Y-103406280D01*
X157865003Y-103594797D01*
X157951768Y-103804266D01*
X157953028Y-103810599D01*
X157996000Y-104026635D01*
X157996000Y-104253365D01*
X157981122Y-104328160D01*
X157951768Y-104475734D01*
X157906554Y-104584890D01*
X157870774Y-104671272D01*
X157865003Y-104685203D01*
X157739040Y-104873720D01*
X157578720Y-105034040D01*
X157390203Y-105160003D01*
X157180734Y-105246768D01*
X157065482Y-105269693D01*
X156976448Y-105287403D01*
X156952999Y-105294516D01*
X156931388Y-105306067D01*
X156912446Y-105321612D01*
X156896901Y-105340554D01*
X156885350Y-105362165D01*
X156878237Y-105385614D01*
X156875835Y-105410000D01*
X156878237Y-105434386D01*
X156885350Y-105457835D01*
X156896901Y-105479446D01*
X156912446Y-105498388D01*
X156931388Y-105513933D01*
X156952999Y-105525484D01*
X156976448Y-105532597D01*
X157053161Y-105547856D01*
X157180734Y-105573232D01*
X157230872Y-105594000D01*
X157354792Y-105645329D01*
X157390203Y-105659997D01*
X157578720Y-105785960D01*
X157739040Y-105946280D01*
X157865003Y-106134797D01*
X157951768Y-106344266D01*
X157959405Y-106382662D01*
X157990354Y-106538249D01*
X157996000Y-106566636D01*
X157996000Y-106793364D01*
X157951768Y-107015734D01*
X157865003Y-107225203D01*
X157739040Y-107413720D01*
X157578720Y-107574040D01*
X157390203Y-107700003D01*
X157180734Y-107786768D01*
X157069549Y-107808884D01*
X156958365Y-107831000D01*
X156731635Y-107831000D01*
X156620451Y-107808884D01*
X156509266Y-107786768D01*
X156299797Y-107700003D01*
X156111280Y-107574040D01*
X155950960Y-107413720D01*
X155824997Y-107225203D01*
X155738232Y-107015734D01*
X155694000Y-106793364D01*
X155694000Y-106566636D01*
X155699647Y-106538249D01*
X155730595Y-106382662D01*
X155738232Y-106344266D01*
X155824997Y-106134797D01*
X155950960Y-105946280D01*
X156111280Y-105785960D01*
X156299797Y-105659997D01*
X156335209Y-105645329D01*
X156459128Y-105594000D01*
X156509266Y-105573232D01*
X156636839Y-105547856D01*
X156713552Y-105532597D01*
X156737001Y-105525484D01*
X156758612Y-105513933D01*
X156777554Y-105498388D01*
X156793099Y-105479446D01*
X156804650Y-105457835D01*
X156811763Y-105434386D01*
X156814165Y-105410000D01*
X156811763Y-105385614D01*
X156804650Y-105362165D01*
X156793099Y-105340554D01*
X156777554Y-105321612D01*
X156758612Y-105306067D01*
X156737001Y-105294516D01*
X156713552Y-105287403D01*
X156624518Y-105269693D01*
X156509266Y-105246768D01*
X156299797Y-105160003D01*
X156111280Y-105034040D01*
X155950960Y-104873720D01*
X155824997Y-104685203D01*
X155819227Y-104671272D01*
X155783446Y-104584890D01*
X155738232Y-104475734D01*
X155708878Y-104328160D01*
X155694000Y-104253365D01*
X155694000Y-104026635D01*
X155736972Y-103810599D01*
X155738232Y-103804266D01*
X155824997Y-103594797D01*
X155950960Y-103406280D01*
X156111280Y-103245960D01*
X156299797Y-103119997D01*
X156509266Y-103033232D01*
X156636839Y-103007856D01*
X156713552Y-102992597D01*
X156737001Y-102985484D01*
X156758612Y-102973933D01*
X156777554Y-102958388D01*
X156793099Y-102939446D01*
X156804650Y-102917835D01*
X156811763Y-102894386D01*
X156814165Y-102870000D01*
X156811763Y-102845614D01*
X156804650Y-102822165D01*
X156793099Y-102800554D01*
X156777554Y-102781612D01*
X156758612Y-102766067D01*
X156737001Y-102754516D01*
X156713552Y-102747403D01*
X156636839Y-102732144D01*
X156509266Y-102706768D01*
X156299797Y-102620003D01*
X156111280Y-102494040D01*
X155950960Y-102333720D01*
X155824997Y-102145203D01*
X155738232Y-101935734D01*
X155713443Y-101811110D01*
X155694000Y-101713365D01*
X155694000Y-101486635D01*
X155730754Y-101301860D01*
X155738232Y-101264266D01*
X155809003Y-101093409D01*
X155824996Y-101054799D01*
X155849224Y-101018539D01*
X155950960Y-100866280D01*
X156111280Y-100705960D01*
X156299797Y-100579997D01*
X156335209Y-100565329D01*
X156419426Y-100530445D01*
X156509266Y-100493232D01*
X156625808Y-100470050D01*
X156683393Y-100458596D01*
X156706842Y-100451483D01*
X156728453Y-100439932D01*
X156747395Y-100424387D01*
X156762940Y-100405445D01*
X156774491Y-100383834D01*
X156781604Y-100360385D01*
X156784006Y-100335999D01*
X156781604Y-100311613D01*
X156774491Y-100288164D01*
X156762940Y-100266553D01*
X156747395Y-100247611D01*
X156728453Y-100232066D01*
X156706842Y-100220515D01*
X156683393Y-100213402D01*
X156659007Y-100211000D01*
X155694000Y-100211000D01*
X155694000Y-97909000D01*
X156659007Y-97909000D01*
X156683393Y-97906598D01*
X156706842Y-97899485D01*
X156728453Y-97887934D01*
X156747395Y-97872389D01*
X156762940Y-97853447D01*
X156774491Y-97831836D01*
X156781604Y-97808387D01*
X156784006Y-97784001D01*
X156781604Y-97759615D01*
X156774491Y-97736166D01*
X156762940Y-97714555D01*
X156747395Y-97695613D01*
X156728453Y-97680068D01*
X156706842Y-97668517D01*
X156683393Y-97661404D01*
X156625808Y-97649950D01*
X156509266Y-97626768D01*
X156299797Y-97540003D01*
X156111280Y-97414040D01*
X155950960Y-97253720D01*
X155824997Y-97065203D01*
X155738232Y-96855734D01*
X155694000Y-96633364D01*
X155694000Y-96406636D01*
X155738232Y-96184266D01*
X155807512Y-96017009D01*
X155824996Y-95974799D01*
X155874631Y-95900515D01*
X155950960Y-95786280D01*
X156111280Y-95625960D01*
X156299797Y-95499997D01*
X156302226Y-95498991D01*
X156399794Y-95458577D01*
X156509266Y-95413232D01*
X156636839Y-95387856D01*
X156713552Y-95372597D01*
X156737001Y-95365484D01*
X156758612Y-95353933D01*
X156777554Y-95338388D01*
X156793099Y-95319446D01*
X156804650Y-95297835D01*
X156811763Y-95274386D01*
X156814165Y-95250000D01*
X156811763Y-95225614D01*
X156804650Y-95202165D01*
X156793099Y-95180554D01*
X156777554Y-95161612D01*
X156758612Y-95146067D01*
X156737001Y-95134516D01*
X156713552Y-95127403D01*
X156585290Y-95101890D01*
X156509266Y-95086768D01*
X156299797Y-95000003D01*
X156111280Y-94874040D01*
X155950960Y-94713720D01*
X155824997Y-94525203D01*
X155738232Y-94315734D01*
X155694000Y-94093364D01*
X155694000Y-93866636D01*
X155738232Y-93644266D01*
X155824997Y-93434797D01*
X155950960Y-93246280D01*
X156111280Y-93085960D01*
X156299797Y-92959997D01*
X156509266Y-92873232D01*
X156636839Y-92847856D01*
X156713552Y-92832597D01*
X156737001Y-92825484D01*
X156758612Y-92813933D01*
X156777554Y-92798388D01*
X156793099Y-92779446D01*
X156804650Y-92757835D01*
X156811763Y-92734386D01*
X156814165Y-92710000D01*
X156811763Y-92685614D01*
X156804650Y-92662165D01*
X156793099Y-92640554D01*
X156777554Y-92621612D01*
X156758612Y-92606067D01*
X156737001Y-92594516D01*
X156713552Y-92587403D01*
X156636839Y-92572144D01*
X156509266Y-92546768D01*
X156335211Y-92474672D01*
X156299799Y-92460004D01*
X156299798Y-92460004D01*
X156299797Y-92460003D01*
X156111280Y-92334040D01*
X155950960Y-92173720D01*
X155824997Y-91985203D01*
X155738232Y-91775734D01*
X155694000Y-91553364D01*
X155694000Y-91326636D01*
X155699380Y-91299591D01*
X155738232Y-91104267D01*
X155739217Y-91101890D01*
X155824997Y-90894797D01*
X155950960Y-90706280D01*
X156111280Y-90545960D01*
X156299797Y-90419997D01*
X156509266Y-90333232D01*
X156683392Y-90298596D01*
X156706842Y-90291483D01*
X156728453Y-90279932D01*
X156747395Y-90264387D01*
X156762940Y-90245445D01*
X156774491Y-90223834D01*
X156781604Y-90200385D01*
X156784006Y-90175999D01*
X156781604Y-90151613D01*
X156774491Y-90128164D01*
X156762940Y-90106553D01*
X156747395Y-90087611D01*
X156728453Y-90072066D01*
X156706842Y-90060515D01*
X156683393Y-90053402D01*
X156659007Y-90051000D01*
X155694000Y-90051000D01*
X155694000Y-87749000D01*
X157996000Y-87749000D01*
X157996000Y-90051000D01*
X157996000Y-90051000D01*
G37*
G36*
X135290091Y-105269085D02*
G01*
X135324069Y-105279393D01*
X135355390Y-105296134D01*
X135382839Y-105318661D01*
X135405366Y-105346110D01*
X135422107Y-105377431D01*
X135432415Y-105411409D01*
X135436500Y-105452890D01*
X135436500Y-106129110D01*
X135432415Y-106170591D01*
X135422107Y-106204569D01*
X135405366Y-106235890D01*
X135382839Y-106263339D01*
X135355392Y-106285864D01*
X135349119Y-106289217D01*
X135328745Y-106302831D01*
X135311418Y-106320158D01*
X135297804Y-106340532D01*
X135288427Y-106363171D01*
X135283646Y-106387204D01*
X135283646Y-106411708D01*
X135288426Y-106435742D01*
X135297803Y-106458381D01*
X135311417Y-106478755D01*
X135319655Y-106487845D01*
X135351315Y-106519505D01*
X135400672Y-106593373D01*
X135434669Y-106675448D01*
X135452000Y-106762579D01*
X135452000Y-106851421D01*
X135434669Y-106938552D01*
X135402699Y-107015733D01*
X135400671Y-107020629D01*
X135351314Y-107094496D01*
X135288496Y-107157314D01*
X135214629Y-107206671D01*
X135214628Y-107206672D01*
X135214627Y-107206672D01*
X135132552Y-107240669D01*
X135045421Y-107258000D01*
X134956579Y-107258000D01*
X134869448Y-107240669D01*
X134787373Y-107206672D01*
X134787372Y-107206672D01*
X134787371Y-107206671D01*
X134713504Y-107157314D01*
X134650686Y-107094496D01*
X134601329Y-107020629D01*
X134599301Y-107015733D01*
X134567331Y-106938552D01*
X134550000Y-106851421D01*
X134550000Y-106762579D01*
X134567331Y-106675448D01*
X134601328Y-106593373D01*
X134650685Y-106519505D01*
X134651305Y-106518885D01*
X134666850Y-106499943D01*
X134678401Y-106478332D01*
X134685514Y-106454883D01*
X134687916Y-106430497D01*
X134685514Y-106406111D01*
X134678401Y-106382662D01*
X134666850Y-106361051D01*
X134651305Y-106342109D01*
X134632363Y-106326564D01*
X134599205Y-106310881D01*
X134571930Y-106302607D01*
X134540610Y-106285866D01*
X134513161Y-106263339D01*
X134490634Y-106235890D01*
X134473893Y-106204569D01*
X134463585Y-106170591D01*
X134459500Y-106129110D01*
X134459500Y-105452890D01*
X134463585Y-105411409D01*
X134473893Y-105377431D01*
X134490634Y-105346110D01*
X134513161Y-105318661D01*
X134540610Y-105296134D01*
X134571931Y-105279393D01*
X134605909Y-105269085D01*
X134647390Y-105265000D01*
X135248610Y-105265000D01*
X135290091Y-105269085D01*
X135290091Y-105269085D01*
G37*
G36*
X138054928Y-104321764D02*
G01*
X138076009Y-104328160D01*
X138095445Y-104338548D01*
X138112476Y-104352524D01*
X138126452Y-104369555D01*
X138136840Y-104388991D01*
X138143236Y-104410072D01*
X138146000Y-104438140D01*
X138146000Y-106251860D01*
X138143236Y-106279925D01*
X138137559Y-106298639D01*
X138132779Y-106322672D01*
X138132779Y-106347176D01*
X138137559Y-106371209D01*
X138146937Y-106393848D01*
X138153243Y-106404370D01*
X138188200Y-106456686D01*
X138194672Y-106466373D01*
X138228669Y-106548448D01*
X138246000Y-106635579D01*
X138246000Y-106724421D01*
X138228669Y-106811552D01*
X138194672Y-106893627D01*
X138194671Y-106893629D01*
X138145314Y-106967496D01*
X138082496Y-107030314D01*
X138008629Y-107079671D01*
X138008628Y-107079672D01*
X138008627Y-107079672D01*
X137926552Y-107113669D01*
X137839421Y-107131000D01*
X137750579Y-107131000D01*
X137663448Y-107113669D01*
X137581373Y-107079672D01*
X137581372Y-107079672D01*
X137581371Y-107079671D01*
X137507504Y-107030314D01*
X137444686Y-106967496D01*
X137395329Y-106893629D01*
X137395328Y-106893627D01*
X137361331Y-106811552D01*
X137344000Y-106724421D01*
X137344000Y-106635579D01*
X137361331Y-106548448D01*
X137395328Y-106466373D01*
X137401801Y-106456686D01*
X137436757Y-106404370D01*
X137448308Y-106382759D01*
X137455421Y-106359310D01*
X137457823Y-106334924D01*
X137455421Y-106310538D01*
X137452441Y-106298639D01*
X137446764Y-106279925D01*
X137444000Y-106251860D01*
X137444000Y-104438140D01*
X137446764Y-104410072D01*
X137453160Y-104388991D01*
X137463548Y-104369555D01*
X137477524Y-104352524D01*
X137494555Y-104338548D01*
X137513991Y-104328160D01*
X137535072Y-104321764D01*
X137563140Y-104319000D01*
X138026860Y-104319000D01*
X138054928Y-104321764D01*
X138054928Y-104321764D01*
G37*
G36*
X127756000Y-106696000D02*
G01*
X126754000Y-106696000D01*
X126754000Y-106559104D01*
X126751598Y-106534718D01*
X126744485Y-106511269D01*
X126732934Y-106489658D01*
X126717389Y-106470716D01*
X126698447Y-106455171D01*
X126676836Y-106443620D01*
X126653387Y-106436507D01*
X126629001Y-106434105D01*
X126604615Y-106436507D01*
X126581165Y-106443620D01*
X126578631Y-106444670D01*
X126578629Y-106444671D01*
X126496552Y-106478668D01*
X126496551Y-106478668D01*
X126496549Y-106478669D01*
X126409421Y-106496000D01*
X126320579Y-106496000D01*
X126233448Y-106478669D01*
X126151373Y-106444672D01*
X126151372Y-106444672D01*
X126151371Y-106444671D01*
X126095485Y-106407329D01*
X126077505Y-106395315D01*
X126014685Y-106332495D01*
X125985768Y-106289217D01*
X125965329Y-106258629D01*
X125960235Y-106246332D01*
X125931331Y-106176552D01*
X125914000Y-106089421D01*
X125914000Y-106000579D01*
X125931331Y-105913448D01*
X125965328Y-105831373D01*
X126014685Y-105757505D01*
X126077505Y-105694685D01*
X126139153Y-105653493D01*
X126151371Y-105645329D01*
X126151373Y-105645328D01*
X126233448Y-105611331D01*
X126320579Y-105594000D01*
X126409421Y-105594000D01*
X126496549Y-105611331D01*
X126496551Y-105611332D01*
X126496552Y-105611332D01*
X126578629Y-105645329D01*
X126578631Y-105645330D01*
X126581165Y-105646380D01*
X126604614Y-105653493D01*
X126629000Y-105655895D01*
X126653387Y-105653493D01*
X126676836Y-105646380D01*
X126698446Y-105634829D01*
X126717388Y-105619284D01*
X126732934Y-105600342D01*
X126744485Y-105578732D01*
X126751598Y-105555283D01*
X126754000Y-105530896D01*
X126754000Y-105394000D01*
X127756000Y-105394000D01*
X127756000Y-106696000D01*
X127756000Y-106696000D01*
G37*
G36*
X131056000Y-106696000D02*
G01*
X130054000Y-106696000D01*
X130054000Y-105394000D01*
X131056000Y-105394000D01*
X131056000Y-106696000D01*
X131056000Y-106696000D01*
G37*
G36*
X144404928Y-104321764D02*
G01*
X144426009Y-104328160D01*
X144445445Y-104338548D01*
X144462476Y-104352524D01*
X144476452Y-104369555D01*
X144486840Y-104388991D01*
X144493236Y-104410072D01*
X144496000Y-104438140D01*
X144496000Y-106251860D01*
X144493236Y-106279928D01*
X144486840Y-106301009D01*
X144476452Y-106320445D01*
X144462476Y-106337476D01*
X144445445Y-106351452D01*
X144426009Y-106361840D01*
X144404928Y-106368236D01*
X144376860Y-106371000D01*
X143913140Y-106371000D01*
X143885072Y-106368236D01*
X143863991Y-106361840D01*
X143844555Y-106351452D01*
X143827524Y-106337476D01*
X143813548Y-106320445D01*
X143803160Y-106301009D01*
X143796764Y-106279928D01*
X143794000Y-106251860D01*
X143794000Y-104438140D01*
X143796764Y-104410072D01*
X143803160Y-104388991D01*
X143813548Y-104369555D01*
X143827524Y-104352524D01*
X143844555Y-104338548D01*
X143863991Y-104328160D01*
X143885072Y-104321764D01*
X143913140Y-104319000D01*
X144376860Y-104319000D01*
X144404928Y-104321764D01*
X144404928Y-104321764D01*
G37*
G36*
X146181552Y-103706331D02*
G01*
X146263627Y-103740328D01*
X146263629Y-103740329D01*
X146293680Y-103760409D01*
X146337495Y-103789685D01*
X146400315Y-103852505D01*
X146449672Y-103926373D01*
X146483669Y-104008448D01*
X146501000Y-104095579D01*
X146501000Y-104184421D01*
X146483669Y-104271552D01*
X146449672Y-104353627D01*
X146400315Y-104427495D01*
X146337495Y-104490315D01*
X146300813Y-104514825D01*
X146263629Y-104539671D01*
X146263628Y-104539672D01*
X146263627Y-104539672D01*
X146181552Y-104573669D01*
X146094421Y-104591000D01*
X146005578Y-104591000D01*
X145915384Y-104573060D01*
X145890998Y-104570658D01*
X145866612Y-104573060D01*
X145843163Y-104580173D01*
X145821553Y-104591725D01*
X145802611Y-104607270D01*
X145787066Y-104626212D01*
X145775515Y-104647823D01*
X145768402Y-104671272D01*
X145766000Y-104695657D01*
X145766000Y-106251860D01*
X145763236Y-106279928D01*
X145756840Y-106301009D01*
X145746452Y-106320445D01*
X145732476Y-106337476D01*
X145715445Y-106351452D01*
X145696009Y-106361840D01*
X145674928Y-106368236D01*
X145646860Y-106371000D01*
X145183140Y-106371000D01*
X145155072Y-106368236D01*
X145133991Y-106361840D01*
X145114555Y-106351452D01*
X145097524Y-106337476D01*
X145083548Y-106320445D01*
X145073160Y-106301009D01*
X145066764Y-106279928D01*
X145064000Y-106251860D01*
X145064000Y-104438140D01*
X145066764Y-104410072D01*
X145073160Y-104388991D01*
X145083548Y-104369555D01*
X145097524Y-104352524D01*
X145114555Y-104338548D01*
X145133991Y-104328160D01*
X145155072Y-104321764D01*
X145183140Y-104319000D01*
X145474001Y-104319000D01*
X145498387Y-104316598D01*
X145521836Y-104309485D01*
X145543447Y-104297934D01*
X145562389Y-104282389D01*
X145577934Y-104263447D01*
X145589485Y-104241836D01*
X145596598Y-104218387D01*
X145599000Y-104194001D01*
X145599000Y-104095579D01*
X145616331Y-104008448D01*
X145650328Y-103926373D01*
X145699685Y-103852505D01*
X145762505Y-103789685D01*
X145806320Y-103760409D01*
X145836371Y-103740329D01*
X145836373Y-103740328D01*
X145918448Y-103706331D01*
X146005579Y-103689000D01*
X146094421Y-103689000D01*
X146181552Y-103706331D01*
X146181552Y-103706331D01*
G37*
G36*
X143134928Y-104321764D02*
G01*
X143156009Y-104328160D01*
X143175445Y-104338548D01*
X143192476Y-104352524D01*
X143206452Y-104369555D01*
X143216840Y-104388991D01*
X143223236Y-104410072D01*
X143226000Y-104438140D01*
X143226000Y-106251860D01*
X143223236Y-106279928D01*
X143216840Y-106301009D01*
X143206452Y-106320445D01*
X143192476Y-106337476D01*
X143175445Y-106351452D01*
X143156009Y-106361840D01*
X143134928Y-106368236D01*
X143106860Y-106371000D01*
X142643140Y-106371000D01*
X142615072Y-106368236D01*
X142593991Y-106361840D01*
X142574555Y-106351452D01*
X142557524Y-106337476D01*
X142543548Y-106320445D01*
X142533160Y-106301009D01*
X142526764Y-106279928D01*
X142524000Y-106251860D01*
X142524000Y-104438140D01*
X142526764Y-104410072D01*
X142533160Y-104388991D01*
X142543548Y-104369555D01*
X142557524Y-104352524D01*
X142574555Y-104338548D01*
X142593991Y-104328160D01*
X142615072Y-104321764D01*
X142643140Y-104319000D01*
X143106860Y-104319000D01*
X143134928Y-104321764D01*
X143134928Y-104321764D01*
G37*
G36*
X141864928Y-104321764D02*
G01*
X141886009Y-104328160D01*
X141905445Y-104338548D01*
X141922476Y-104352524D01*
X141936452Y-104369555D01*
X141946840Y-104388991D01*
X141953236Y-104410072D01*
X141956000Y-104438140D01*
X141956000Y-106251860D01*
X141953236Y-106279928D01*
X141946840Y-106301009D01*
X141936452Y-106320445D01*
X141922476Y-106337476D01*
X141905445Y-106351452D01*
X141886009Y-106361840D01*
X141864928Y-106368236D01*
X141836860Y-106371000D01*
X141373140Y-106371000D01*
X141345072Y-106368236D01*
X141323991Y-106361840D01*
X141304555Y-106351452D01*
X141287524Y-106337476D01*
X141273548Y-106320445D01*
X141263160Y-106301009D01*
X141256764Y-106279928D01*
X141254000Y-106251860D01*
X141254000Y-104438140D01*
X141256764Y-104410072D01*
X141263160Y-104388991D01*
X141273548Y-104369555D01*
X141287524Y-104352524D01*
X141304555Y-104338548D01*
X141323991Y-104328160D01*
X141345072Y-104321764D01*
X141373140Y-104319000D01*
X141836860Y-104319000D01*
X141864928Y-104321764D01*
X141864928Y-104321764D01*
G37*
G36*
X140594928Y-104321764D02*
G01*
X140616009Y-104328160D01*
X140635445Y-104338548D01*
X140652476Y-104352524D01*
X140666452Y-104369555D01*
X140676840Y-104388991D01*
X140683236Y-104410072D01*
X140686000Y-104438140D01*
X140686000Y-106251860D01*
X140683236Y-106279928D01*
X140676840Y-106301009D01*
X140666452Y-106320445D01*
X140652476Y-106337476D01*
X140635445Y-106351452D01*
X140616009Y-106361840D01*
X140594928Y-106368236D01*
X140566860Y-106371000D01*
X140103140Y-106371000D01*
X140075072Y-106368236D01*
X140053991Y-106361840D01*
X140034555Y-106351452D01*
X140017524Y-106337476D01*
X140003548Y-106320445D01*
X139993160Y-106301009D01*
X139986764Y-106279928D01*
X139984000Y-106251860D01*
X139984000Y-104438140D01*
X139986764Y-104410072D01*
X139993160Y-104388991D01*
X140003548Y-104369555D01*
X140017524Y-104352524D01*
X140034555Y-104338548D01*
X140053991Y-104328160D01*
X140075072Y-104321764D01*
X140103140Y-104319000D01*
X140566860Y-104319000D01*
X140594928Y-104321764D01*
X140594928Y-104321764D01*
G37*
G36*
X139324928Y-104321764D02*
G01*
X139346009Y-104328160D01*
X139365445Y-104338548D01*
X139382476Y-104352524D01*
X139396452Y-104369555D01*
X139406840Y-104388991D01*
X139413236Y-104410072D01*
X139416000Y-104438140D01*
X139416000Y-106251860D01*
X139413236Y-106279928D01*
X139406840Y-106301009D01*
X139396452Y-106320445D01*
X139382476Y-106337476D01*
X139365445Y-106351452D01*
X139346009Y-106361840D01*
X139324928Y-106368236D01*
X139296860Y-106371000D01*
X138833140Y-106371000D01*
X138805072Y-106368236D01*
X138783991Y-106361840D01*
X138764555Y-106351452D01*
X138747524Y-106337476D01*
X138733548Y-106320445D01*
X138723160Y-106301009D01*
X138716764Y-106279928D01*
X138714000Y-106251860D01*
X138714000Y-104438140D01*
X138716764Y-104410072D01*
X138723160Y-104388991D01*
X138733548Y-104369555D01*
X138747524Y-104352524D01*
X138764555Y-104338548D01*
X138783991Y-104328160D01*
X138805072Y-104321764D01*
X138833140Y-104319000D01*
X139296860Y-104319000D01*
X139324928Y-104321764D01*
X139324928Y-104321764D01*
G37*
G36*
X133715091Y-105269085D02*
G01*
X133749069Y-105279393D01*
X133780390Y-105296134D01*
X133807839Y-105318661D01*
X133830366Y-105346110D01*
X133847107Y-105377431D01*
X133857415Y-105411409D01*
X133861500Y-105452890D01*
X133861500Y-106129110D01*
X133857415Y-106170591D01*
X133847107Y-106204569D01*
X133830366Y-106235890D01*
X133807839Y-106263339D01*
X133780390Y-106285866D01*
X133749069Y-106302607D01*
X133715091Y-106312915D01*
X133673610Y-106317000D01*
X133072390Y-106317000D01*
X133030909Y-106312915D01*
X132996931Y-106302607D01*
X132965610Y-106285866D01*
X132938161Y-106263339D01*
X132915634Y-106235890D01*
X132898893Y-106204569D01*
X132888585Y-106170591D01*
X132884500Y-106129110D01*
X132884500Y-105452890D01*
X132888585Y-105411409D01*
X132898893Y-105377431D01*
X132915634Y-105346110D01*
X132938161Y-105318661D01*
X132965610Y-105296134D01*
X132996931Y-105279393D01*
X133030909Y-105269085D01*
X133072390Y-105265000D01*
X133673610Y-105265000D01*
X133715091Y-105269085D01*
X133715091Y-105269085D01*
G37*
G36*
X148334591Y-103808085D02*
G01*
X148368569Y-103818393D01*
X148399890Y-103835134D01*
X148427339Y-103857661D01*
X148449866Y-103885110D01*
X148466607Y-103916431D01*
X148476915Y-103950409D01*
X148481000Y-103991890D01*
X148481000Y-104593110D01*
X148476915Y-104634591D01*
X148466607Y-104668569D01*
X148449866Y-104699890D01*
X148427339Y-104727339D01*
X148399890Y-104749866D01*
X148368569Y-104766607D01*
X148334591Y-104776915D01*
X148293110Y-104781000D01*
X148237481Y-104781000D01*
X148213095Y-104783402D01*
X148189646Y-104790515D01*
X148168035Y-104802066D01*
X148149093Y-104817611D01*
X148133548Y-104836553D01*
X148121997Y-104858164D01*
X148114884Y-104881613D01*
X148112482Y-104905999D01*
X148114884Y-104930385D01*
X148121997Y-104953834D01*
X148133548Y-104975445D01*
X148149093Y-104994387D01*
X148168035Y-105009932D01*
X148242494Y-105059684D01*
X148305315Y-105122505D01*
X148354672Y-105196373D01*
X148388669Y-105278448D01*
X148406000Y-105365579D01*
X148406000Y-105454421D01*
X148388669Y-105541552D01*
X148354672Y-105623627D01*
X148307193Y-105694685D01*
X148305314Y-105697496D01*
X148242496Y-105760314D01*
X148168629Y-105809671D01*
X148168628Y-105809672D01*
X148168627Y-105809672D01*
X148086552Y-105843669D01*
X147999421Y-105861000D01*
X147910579Y-105861000D01*
X147823448Y-105843669D01*
X147741373Y-105809672D01*
X147741372Y-105809672D01*
X147741371Y-105809671D01*
X147667504Y-105760314D01*
X147604686Y-105697496D01*
X147602808Y-105694685D01*
X147555328Y-105623627D01*
X147521331Y-105541552D01*
X147504000Y-105454421D01*
X147504000Y-105365579D01*
X147521331Y-105278448D01*
X147555328Y-105196373D01*
X147604685Y-105122505D01*
X147667506Y-105059684D01*
X147741965Y-105009932D01*
X147760907Y-104994386D01*
X147776452Y-104975444D01*
X147788003Y-104953834D01*
X147795116Y-104930385D01*
X147797518Y-104905999D01*
X147795116Y-104881613D01*
X147788003Y-104858164D01*
X147776452Y-104836553D01*
X147760906Y-104817611D01*
X147741964Y-104802066D01*
X147720354Y-104790515D01*
X147696905Y-104783402D01*
X147672519Y-104781000D01*
X147616890Y-104781000D01*
X147575409Y-104776915D01*
X147541431Y-104766607D01*
X147510110Y-104749866D01*
X147482661Y-104727339D01*
X147460134Y-104699890D01*
X147443393Y-104668569D01*
X147433085Y-104634591D01*
X147429000Y-104593110D01*
X147429000Y-103991890D01*
X147433085Y-103950409D01*
X147443393Y-103916431D01*
X147460134Y-103885110D01*
X147482661Y-103857661D01*
X147510110Y-103835134D01*
X147541431Y-103818393D01*
X147575409Y-103808085D01*
X147616890Y-103804000D01*
X148293110Y-103804000D01*
X148334591Y-103808085D01*
X148334591Y-103808085D01*
G37*
G36*
X152906591Y-103808085D02*
G01*
X152940569Y-103818393D01*
X152971890Y-103835134D01*
X152999339Y-103857661D01*
X153021866Y-103885110D01*
X153038607Y-103916431D01*
X153048915Y-103950409D01*
X153053000Y-103991890D01*
X153053000Y-104593110D01*
X153048915Y-104634591D01*
X153038607Y-104668569D01*
X153021866Y-104699890D01*
X152999339Y-104727339D01*
X152971890Y-104749866D01*
X152940569Y-104766607D01*
X152906591Y-104776915D01*
X152865110Y-104781000D01*
X152809481Y-104781000D01*
X152785095Y-104783402D01*
X152761646Y-104790515D01*
X152740035Y-104802066D01*
X152721093Y-104817611D01*
X152705548Y-104836553D01*
X152693997Y-104858164D01*
X152686884Y-104881613D01*
X152684482Y-104905999D01*
X152686884Y-104930385D01*
X152693997Y-104953834D01*
X152705548Y-104975445D01*
X152721093Y-104994387D01*
X152740035Y-105009932D01*
X152814494Y-105059684D01*
X152877315Y-105122505D01*
X152926672Y-105196373D01*
X152960669Y-105278448D01*
X152978000Y-105365579D01*
X152978000Y-105454421D01*
X152960669Y-105541552D01*
X152926672Y-105623627D01*
X152879193Y-105694685D01*
X152877314Y-105697496D01*
X152814496Y-105760314D01*
X152740629Y-105809671D01*
X152740628Y-105809672D01*
X152740627Y-105809672D01*
X152658552Y-105843669D01*
X152571421Y-105861000D01*
X152482579Y-105861000D01*
X152395448Y-105843669D01*
X152313373Y-105809672D01*
X152313372Y-105809672D01*
X152313371Y-105809671D01*
X152239504Y-105760314D01*
X152176686Y-105697496D01*
X152174808Y-105694685D01*
X152127328Y-105623627D01*
X152093331Y-105541552D01*
X152076000Y-105454421D01*
X152076000Y-105365579D01*
X152093331Y-105278448D01*
X152127328Y-105196373D01*
X152176685Y-105122505D01*
X152239506Y-105059684D01*
X152313965Y-105009932D01*
X152332907Y-104994386D01*
X152348452Y-104975444D01*
X152360003Y-104953834D01*
X152367116Y-104930385D01*
X152369518Y-104905999D01*
X152367116Y-104881613D01*
X152360003Y-104858164D01*
X152348452Y-104836553D01*
X152332906Y-104817611D01*
X152313964Y-104802066D01*
X152292354Y-104790515D01*
X152268905Y-104783402D01*
X152244519Y-104781000D01*
X152188890Y-104781000D01*
X152147409Y-104776915D01*
X152113431Y-104766607D01*
X152082110Y-104749866D01*
X152054661Y-104727339D01*
X152032134Y-104699890D01*
X152015393Y-104668569D01*
X152005085Y-104634591D01*
X152001000Y-104593110D01*
X152001000Y-103991890D01*
X152005085Y-103950409D01*
X152015393Y-103916431D01*
X152032134Y-103885110D01*
X152054661Y-103857661D01*
X152082110Y-103835134D01*
X152113431Y-103818393D01*
X152147409Y-103808085D01*
X152188890Y-103804000D01*
X152865110Y-103804000D01*
X152906591Y-103808085D01*
X152906591Y-103808085D01*
G37*
G36*
X123935443Y-103245519D02*
G01*
X124001627Y-103252037D01*
X124171466Y-103303557D01*
X124327991Y-103387222D01*
X124351213Y-103406280D01*
X124465186Y-103499814D01*
X124543135Y-103594797D01*
X124577778Y-103637009D01*
X124661443Y-103793534D01*
X124712963Y-103963373D01*
X124730359Y-104140000D01*
X124712963Y-104316627D01*
X124661443Y-104486466D01*
X124577778Y-104642991D01*
X124554568Y-104671272D01*
X124465186Y-104780186D01*
X124370168Y-104858164D01*
X124327991Y-104892778D01*
X124171466Y-104976443D01*
X124001627Y-105027963D01*
X123939925Y-105034040D01*
X123869260Y-105041000D01*
X123780740Y-105041000D01*
X123710075Y-105034040D01*
X123648373Y-105027963D01*
X123478534Y-104976443D01*
X123322009Y-104892778D01*
X123279832Y-104858164D01*
X123184814Y-104780186D01*
X123095432Y-104671272D01*
X123072222Y-104642991D01*
X122988557Y-104486466D01*
X122937037Y-104316627D01*
X122919641Y-104140000D01*
X122937037Y-103963373D01*
X122988557Y-103793534D01*
X123072222Y-103637009D01*
X123106865Y-103594797D01*
X123184814Y-103499814D01*
X123298787Y-103406280D01*
X123322009Y-103387222D01*
X123478534Y-103303557D01*
X123648373Y-103252037D01*
X123714558Y-103245518D01*
X123780740Y-103239000D01*
X123869260Y-103239000D01*
X123935443Y-103245519D01*
X123935443Y-103245519D01*
G37*
G36*
X149858591Y-103808085D02*
G01*
X149892569Y-103818393D01*
X149923890Y-103835134D01*
X149951339Y-103857661D01*
X149973866Y-103885110D01*
X149990607Y-103916431D01*
X150000915Y-103950409D01*
X150005000Y-103991890D01*
X150005000Y-104593110D01*
X150000915Y-104634591D01*
X149990607Y-104668569D01*
X149973866Y-104699890D01*
X149951339Y-104727339D01*
X149923890Y-104749866D01*
X149892569Y-104766607D01*
X149858591Y-104776915D01*
X149817110Y-104781000D01*
X149140890Y-104781000D01*
X149099409Y-104776915D01*
X149065431Y-104766607D01*
X149034110Y-104749866D01*
X149006661Y-104727339D01*
X148984134Y-104699890D01*
X148967393Y-104668569D01*
X148957085Y-104634591D01*
X148953000Y-104593110D01*
X148953000Y-103991890D01*
X148957085Y-103950409D01*
X148967393Y-103916431D01*
X148984134Y-103885110D01*
X149006661Y-103857661D01*
X149034110Y-103835134D01*
X149065431Y-103818393D01*
X149099409Y-103808085D01*
X149140890Y-103804000D01*
X149817110Y-103804000D01*
X149858591Y-103808085D01*
X149858591Y-103808085D01*
G37*
G36*
X151382591Y-103808085D02*
G01*
X151416569Y-103818393D01*
X151447890Y-103835134D01*
X151475339Y-103857661D01*
X151497866Y-103885110D01*
X151514607Y-103916431D01*
X151524915Y-103950409D01*
X151529000Y-103991890D01*
X151529000Y-104593110D01*
X151524915Y-104634591D01*
X151514607Y-104668569D01*
X151497866Y-104699890D01*
X151475339Y-104727339D01*
X151447890Y-104749866D01*
X151416569Y-104766607D01*
X151382591Y-104776915D01*
X151341110Y-104781000D01*
X150664890Y-104781000D01*
X150623409Y-104776915D01*
X150589431Y-104766607D01*
X150558110Y-104749866D01*
X150530661Y-104727339D01*
X150508134Y-104699890D01*
X150491393Y-104668569D01*
X150481085Y-104634591D01*
X150477000Y-104593110D01*
X150477000Y-103991890D01*
X150481085Y-103950409D01*
X150491393Y-103916431D01*
X150508134Y-103885110D01*
X150530661Y-103857661D01*
X150558110Y-103835134D01*
X150589431Y-103818393D01*
X150623409Y-103808085D01*
X150664890Y-103804000D01*
X151341110Y-103804000D01*
X151382591Y-103808085D01*
X151382591Y-103808085D01*
G37*
G36*
X133715091Y-103618085D02*
G01*
X133749069Y-103628393D01*
X133780390Y-103645134D01*
X133807839Y-103667661D01*
X133830366Y-103695110D01*
X133847107Y-103726431D01*
X133857415Y-103760409D01*
X133861500Y-103801890D01*
X133861500Y-104478110D01*
X133857415Y-104519591D01*
X133847107Y-104553569D01*
X133830366Y-104584890D01*
X133807839Y-104612339D01*
X133780390Y-104634866D01*
X133749069Y-104651607D01*
X133715091Y-104661915D01*
X133673610Y-104666000D01*
X133072390Y-104666000D01*
X133030909Y-104661915D01*
X132996931Y-104651607D01*
X132965610Y-104634866D01*
X132938161Y-104612339D01*
X132915634Y-104584890D01*
X132898893Y-104553569D01*
X132888585Y-104519591D01*
X132884500Y-104478110D01*
X132884500Y-103801890D01*
X132888585Y-103760409D01*
X132898893Y-103726431D01*
X132915634Y-103695110D01*
X132938161Y-103667661D01*
X132965610Y-103645134D01*
X132996931Y-103628393D01*
X133030909Y-103618085D01*
X133072390Y-103614000D01*
X133673610Y-103614000D01*
X133715091Y-103618085D01*
X133715091Y-103618085D01*
G37*
G36*
X135290091Y-103618085D02*
G01*
X135324069Y-103628393D01*
X135355390Y-103645134D01*
X135382839Y-103667661D01*
X135405366Y-103695110D01*
X135422107Y-103726431D01*
X135432415Y-103760409D01*
X135436500Y-103801890D01*
X135436500Y-104478110D01*
X135432415Y-104519591D01*
X135422107Y-104553569D01*
X135405366Y-104584890D01*
X135382839Y-104612339D01*
X135355390Y-104634866D01*
X135324069Y-104651607D01*
X135290091Y-104661915D01*
X135248610Y-104666000D01*
X134647390Y-104666000D01*
X134605909Y-104661915D01*
X134571931Y-104651607D01*
X134540610Y-104634866D01*
X134513161Y-104612339D01*
X134490634Y-104584890D01*
X134473893Y-104553569D01*
X134463585Y-104519591D01*
X134459500Y-104478110D01*
X134459500Y-103801890D01*
X134463585Y-103760409D01*
X134473893Y-103726431D01*
X134490634Y-103695110D01*
X134513161Y-103667661D01*
X134540610Y-103645134D01*
X134571931Y-103628393D01*
X134605909Y-103618085D01*
X134647390Y-103614000D01*
X135248610Y-103614000D01*
X135290091Y-103618085D01*
X135290091Y-103618085D01*
G37*
G36*
X128023604Y-102583347D02*
G01*
X128060144Y-102594432D01*
X128093821Y-102612433D01*
X128123341Y-102636659D01*
X128147567Y-102666179D01*
X128165568Y-102699856D01*
X128176653Y-102736396D01*
X128181000Y-102780538D01*
X128181000Y-104229462D01*
X128176653Y-104273604D01*
X128165568Y-104310144D01*
X128147567Y-104343821D01*
X128123341Y-104373341D01*
X128093821Y-104397567D01*
X128060144Y-104415568D01*
X128023604Y-104426653D01*
X127979462Y-104431000D01*
X127030538Y-104431000D01*
X126986396Y-104426653D01*
X126949856Y-104415568D01*
X126916179Y-104397567D01*
X126886659Y-104373341D01*
X126862433Y-104343821D01*
X126844432Y-104310144D01*
X126833347Y-104273604D01*
X126829000Y-104229462D01*
X126829000Y-102780538D01*
X126833347Y-102736396D01*
X126844432Y-102699856D01*
X126862433Y-102666179D01*
X126886659Y-102636659D01*
X126916179Y-102612433D01*
X126949856Y-102594432D01*
X126986396Y-102583347D01*
X127030538Y-102579000D01*
X127979462Y-102579000D01*
X128023604Y-102583347D01*
X128023604Y-102583347D01*
G37*
G36*
X130823604Y-102583347D02*
G01*
X130860144Y-102594432D01*
X130893821Y-102612433D01*
X130923341Y-102636659D01*
X130947567Y-102666179D01*
X130965568Y-102699856D01*
X130976653Y-102736396D01*
X130981000Y-102780538D01*
X130981000Y-104229462D01*
X130976653Y-104273604D01*
X130965568Y-104310144D01*
X130947567Y-104343821D01*
X130923341Y-104373341D01*
X130893821Y-104397567D01*
X130860144Y-104415568D01*
X130823604Y-104426653D01*
X130779462Y-104431000D01*
X129830538Y-104431000D01*
X129786396Y-104426653D01*
X129749856Y-104415568D01*
X129716179Y-104397567D01*
X129686659Y-104373341D01*
X129662433Y-104343821D01*
X129644432Y-104310144D01*
X129633347Y-104273604D01*
X129629000Y-104229462D01*
X129629000Y-102780538D01*
X129633347Y-102736396D01*
X129644432Y-102699856D01*
X129662433Y-102666179D01*
X129686659Y-102636659D01*
X129716179Y-102612433D01*
X129749856Y-102594432D01*
X129786396Y-102583347D01*
X129830538Y-102579000D01*
X130779462Y-102579000D01*
X130823604Y-102583347D01*
X130823604Y-102583347D01*
G37*
G36*
X136656552Y-102563331D02*
G01*
X136738627Y-102597328D01*
X136738629Y-102597329D01*
X136812496Y-102646686D01*
X136875314Y-102709504D01*
X136923496Y-102781612D01*
X136924672Y-102783373D01*
X136958669Y-102865448D01*
X136976000Y-102952579D01*
X136976000Y-103041421D01*
X136958669Y-103128552D01*
X136924672Y-103210627D01*
X136924671Y-103210629D01*
X136875314Y-103284496D01*
X136812496Y-103347314D01*
X136738629Y-103396671D01*
X136738628Y-103396672D01*
X136738627Y-103396672D01*
X136656552Y-103430669D01*
X136569421Y-103448000D01*
X136480579Y-103448000D01*
X136393448Y-103430669D01*
X136311373Y-103396672D01*
X136311372Y-103396672D01*
X136311371Y-103396671D01*
X136237504Y-103347314D01*
X136174686Y-103284496D01*
X136125329Y-103210629D01*
X136125328Y-103210627D01*
X136091331Y-103128552D01*
X136074000Y-103041421D01*
X136074000Y-102952579D01*
X136091331Y-102865448D01*
X136125328Y-102783373D01*
X136126505Y-102781612D01*
X136174686Y-102709504D01*
X136237504Y-102646686D01*
X136311371Y-102597329D01*
X136311373Y-102597328D01*
X136393448Y-102563331D01*
X136480579Y-102546000D01*
X136569421Y-102546000D01*
X136656552Y-102563331D01*
X136656552Y-102563331D01*
G37*
G36*
X149858591Y-102233085D02*
G01*
X149892569Y-102243393D01*
X149923890Y-102260134D01*
X149951339Y-102282661D01*
X149973866Y-102310110D01*
X149990607Y-102341431D01*
X150000915Y-102375409D01*
X150005000Y-102416890D01*
X150005000Y-103018110D01*
X150000915Y-103059591D01*
X149990607Y-103093569D01*
X149973866Y-103124890D01*
X149951339Y-103152339D01*
X149923890Y-103174866D01*
X149892569Y-103191607D01*
X149858591Y-103201915D01*
X149817110Y-103206000D01*
X149140890Y-103206000D01*
X149099409Y-103201915D01*
X149065431Y-103191607D01*
X149034110Y-103174866D01*
X149006661Y-103152339D01*
X148984134Y-103124890D01*
X148967393Y-103093569D01*
X148957085Y-103059591D01*
X148953000Y-103018110D01*
X148953000Y-102416890D01*
X148957085Y-102375409D01*
X148967393Y-102341431D01*
X148984134Y-102310110D01*
X149006661Y-102282661D01*
X149034110Y-102260134D01*
X149065431Y-102243393D01*
X149099409Y-102233085D01*
X149140890Y-102229000D01*
X149817110Y-102229000D01*
X149858591Y-102233085D01*
X149858591Y-102233085D01*
G37*
G36*
X148334591Y-102233085D02*
G01*
X148368569Y-102243393D01*
X148399890Y-102260134D01*
X148427339Y-102282661D01*
X148449866Y-102310110D01*
X148466607Y-102341431D01*
X148476915Y-102375409D01*
X148481000Y-102416890D01*
X148481000Y-103018110D01*
X148476915Y-103059591D01*
X148466607Y-103093569D01*
X148449866Y-103124890D01*
X148427339Y-103152339D01*
X148399890Y-103174866D01*
X148368569Y-103191607D01*
X148334591Y-103201915D01*
X148293110Y-103206000D01*
X147616890Y-103206000D01*
X147575409Y-103201915D01*
X147541431Y-103191607D01*
X147510110Y-103174866D01*
X147482661Y-103152339D01*
X147460134Y-103124890D01*
X147443393Y-103093569D01*
X147433085Y-103059591D01*
X147429000Y-103018110D01*
X147429000Y-102416890D01*
X147433085Y-102375409D01*
X147443393Y-102341431D01*
X147460134Y-102310110D01*
X147482661Y-102282661D01*
X147510110Y-102260134D01*
X147541431Y-102243393D01*
X147575409Y-102233085D01*
X147616890Y-102229000D01*
X148293110Y-102229000D01*
X148334591Y-102233085D01*
X148334591Y-102233085D01*
G37*
G36*
X151382591Y-102233085D02*
G01*
X151416569Y-102243393D01*
X151447890Y-102260134D01*
X151475339Y-102282661D01*
X151497866Y-102310110D01*
X151514607Y-102341431D01*
X151524915Y-102375409D01*
X151529000Y-102416890D01*
X151529000Y-103018110D01*
X151524915Y-103059591D01*
X151514607Y-103093569D01*
X151497866Y-103124890D01*
X151475339Y-103152339D01*
X151447890Y-103174866D01*
X151416569Y-103191607D01*
X151382591Y-103201915D01*
X151341110Y-103206000D01*
X150664890Y-103206000D01*
X150623409Y-103201915D01*
X150589431Y-103191607D01*
X150558110Y-103174866D01*
X150530661Y-103152339D01*
X150508134Y-103124890D01*
X150491393Y-103093569D01*
X150481085Y-103059591D01*
X150477000Y-103018110D01*
X150477000Y-102416890D01*
X150481085Y-102375409D01*
X150491393Y-102341431D01*
X150508134Y-102310110D01*
X150530661Y-102282661D01*
X150558110Y-102260134D01*
X150589431Y-102243393D01*
X150623409Y-102233085D01*
X150664890Y-102229000D01*
X151341110Y-102229000D01*
X151382591Y-102233085D01*
X151382591Y-102233085D01*
G37*
G36*
X152906591Y-102233085D02*
G01*
X152940569Y-102243393D01*
X152971890Y-102260134D01*
X152999339Y-102282661D01*
X153021866Y-102310110D01*
X153038607Y-102341431D01*
X153048915Y-102375409D01*
X153053000Y-102416890D01*
X153053000Y-103018110D01*
X153048915Y-103059591D01*
X153038607Y-103093569D01*
X153021866Y-103124890D01*
X152999339Y-103152339D01*
X152971890Y-103174866D01*
X152940569Y-103191607D01*
X152906591Y-103201915D01*
X152865110Y-103206000D01*
X152188890Y-103206000D01*
X152147409Y-103201915D01*
X152113431Y-103191607D01*
X152082110Y-103174866D01*
X152054661Y-103152339D01*
X152032134Y-103124890D01*
X152015393Y-103093569D01*
X152005085Y-103059591D01*
X152001000Y-103018110D01*
X152001000Y-102416890D01*
X152005085Y-102375409D01*
X152015393Y-102341431D01*
X152032134Y-102310110D01*
X152054661Y-102282661D01*
X152082110Y-102260134D01*
X152113431Y-102243393D01*
X152147409Y-102233085D01*
X152188890Y-102229000D01*
X152865110Y-102229000D01*
X152906591Y-102233085D01*
X152906591Y-102233085D01*
G37*
G36*
X123935443Y-100705519D02*
G01*
X124001627Y-100712037D01*
X124171466Y-100763557D01*
X124327991Y-100847222D01*
X124350872Y-100866000D01*
X124465186Y-100959814D01*
X124521234Y-101028110D01*
X124577778Y-101097009D01*
X124661443Y-101253534D01*
X124712963Y-101423373D01*
X124730359Y-101600000D01*
X124712963Y-101776627D01*
X124661443Y-101946466D01*
X124661442Y-101946468D01*
X124641056Y-101984607D01*
X124577778Y-102102991D01*
X124548448Y-102138729D01*
X124465186Y-102240186D01*
X124379982Y-102310110D01*
X124327991Y-102352778D01*
X124171466Y-102436443D01*
X124001627Y-102487963D01*
X123939925Y-102494040D01*
X123869260Y-102501000D01*
X123780740Y-102501000D01*
X123710075Y-102494040D01*
X123648373Y-102487963D01*
X123478534Y-102436443D01*
X123322009Y-102352778D01*
X123270018Y-102310110D01*
X123184814Y-102240186D01*
X123101552Y-102138729D01*
X123072222Y-102102991D01*
X123008944Y-101984607D01*
X122988558Y-101946468D01*
X122988557Y-101946466D01*
X122937037Y-101776627D01*
X122919641Y-101600000D01*
X122937037Y-101423373D01*
X122988557Y-101253534D01*
X123072222Y-101097009D01*
X123128766Y-101028110D01*
X123184814Y-100959814D01*
X123299128Y-100866000D01*
X123322009Y-100847222D01*
X123478534Y-100763557D01*
X123648373Y-100712037D01*
X123714557Y-100705519D01*
X123780740Y-100699000D01*
X123869260Y-100699000D01*
X123935443Y-100705519D01*
X123935443Y-100705519D01*
G37*
G36*
X133209591Y-100951085D02*
G01*
X133243569Y-100961393D01*
X133274890Y-100978134D01*
X133302339Y-101000661D01*
X133324866Y-101028110D01*
X133341607Y-101059431D01*
X133351915Y-101093409D01*
X133356000Y-101134890D01*
X133356000Y-101811110D01*
X133351915Y-101852591D01*
X133341607Y-101886569D01*
X133324866Y-101917890D01*
X133302339Y-101945339D01*
X133274890Y-101967866D01*
X133243569Y-101984607D01*
X133209591Y-101994915D01*
X133168110Y-101999000D01*
X132566890Y-101999000D01*
X132525409Y-101994915D01*
X132491431Y-101984607D01*
X132460110Y-101967866D01*
X132432661Y-101945339D01*
X132410134Y-101917890D01*
X132393393Y-101886569D01*
X132383085Y-101852591D01*
X132379000Y-101811110D01*
X132379000Y-101134890D01*
X132383085Y-101093409D01*
X132393393Y-101059431D01*
X132410134Y-101028110D01*
X132432661Y-101000661D01*
X132460110Y-100978134D01*
X132491431Y-100961393D01*
X132525409Y-100951085D01*
X132566890Y-100947000D01*
X133168110Y-100947000D01*
X133209591Y-100951085D01*
X133209591Y-100951085D01*
G37*
G36*
X131634591Y-100951085D02*
G01*
X131668569Y-100961393D01*
X131699890Y-100978134D01*
X131727339Y-101000661D01*
X131749866Y-101028110D01*
X131766607Y-101059431D01*
X131776915Y-101093409D01*
X131781000Y-101134890D01*
X131781000Y-101811110D01*
X131776915Y-101852591D01*
X131766607Y-101886569D01*
X131749866Y-101917890D01*
X131727339Y-101945339D01*
X131699890Y-101967866D01*
X131668569Y-101984607D01*
X131634591Y-101994915D01*
X131593110Y-101999000D01*
X130991890Y-101999000D01*
X130950409Y-101994915D01*
X130916431Y-101984607D01*
X130885110Y-101967866D01*
X130857661Y-101945339D01*
X130835134Y-101917890D01*
X130818393Y-101886569D01*
X130808085Y-101852591D01*
X130804000Y-101811110D01*
X130804000Y-101134890D01*
X130808085Y-101093409D01*
X130818393Y-101059431D01*
X130835134Y-101028110D01*
X130857661Y-101000661D01*
X130885110Y-100978134D01*
X130916431Y-100961393D01*
X130950409Y-100951085D01*
X130991890Y-100947000D01*
X131593110Y-100947000D01*
X131634591Y-100951085D01*
X131634591Y-100951085D01*
G37*
G36*
X130034591Y-100951085D02*
G01*
X130068569Y-100961393D01*
X130099890Y-100978134D01*
X130127339Y-101000661D01*
X130149866Y-101028110D01*
X130166607Y-101059431D01*
X130176915Y-101093409D01*
X130181000Y-101134890D01*
X130181000Y-101811110D01*
X130176915Y-101852591D01*
X130166607Y-101886569D01*
X130149866Y-101917890D01*
X130127339Y-101945339D01*
X130099890Y-101967866D01*
X130068569Y-101984607D01*
X130034591Y-101994915D01*
X129993110Y-101999000D01*
X129391890Y-101999000D01*
X129350409Y-101994915D01*
X129316431Y-101984607D01*
X129285110Y-101967866D01*
X129257661Y-101945339D01*
X129235134Y-101917890D01*
X129218393Y-101886569D01*
X129208085Y-101852591D01*
X129204000Y-101811110D01*
X129204000Y-101134890D01*
X129208085Y-101093409D01*
X129218393Y-101059431D01*
X129235134Y-101028110D01*
X129257661Y-101000661D01*
X129285110Y-100978134D01*
X129316431Y-100961393D01*
X129350409Y-100951085D01*
X129391890Y-100947000D01*
X129993110Y-100947000D01*
X130034591Y-100951085D01*
X130034591Y-100951085D01*
G37*
G36*
X128467482Y-100951863D02*
G01*
X128476023Y-100953562D01*
X128500527Y-100953564D01*
X128502276Y-100953216D01*
X128524775Y-100978040D01*
X128552339Y-101000661D01*
X128574866Y-101028110D01*
X128591607Y-101059431D01*
X128601915Y-101093409D01*
X128606000Y-101134890D01*
X128606000Y-101811110D01*
X128601915Y-101852591D01*
X128591607Y-101886569D01*
X128574866Y-101917890D01*
X128552339Y-101945339D01*
X128524890Y-101967866D01*
X128493569Y-101984607D01*
X128459591Y-101994915D01*
X128418110Y-101999000D01*
X127816890Y-101999000D01*
X127775409Y-101994915D01*
X127741431Y-101984607D01*
X127710110Y-101967866D01*
X127682661Y-101945339D01*
X127660134Y-101917890D01*
X127643393Y-101886569D01*
X127633085Y-101852591D01*
X127629000Y-101811110D01*
X127629000Y-101134890D01*
X127633085Y-101093409D01*
X127643393Y-101059431D01*
X127660134Y-101028110D01*
X127682661Y-101000661D01*
X127710110Y-100978134D01*
X127741431Y-100961393D01*
X127775409Y-100951085D01*
X127816890Y-100947000D01*
X128418110Y-100947000D01*
X128467482Y-100951863D01*
X128467482Y-100951863D01*
G37*
G36*
X138054928Y-99371764D02*
G01*
X138076009Y-99378160D01*
X138095445Y-99388548D01*
X138112476Y-99402524D01*
X138126452Y-99419555D01*
X138136840Y-99438991D01*
X138143236Y-99460072D01*
X138146000Y-99488140D01*
X138146000Y-101301860D01*
X138143236Y-101329928D01*
X138136840Y-101351009D01*
X138126452Y-101370445D01*
X138112476Y-101387476D01*
X138095445Y-101401452D01*
X138076009Y-101411840D01*
X138054928Y-101418236D01*
X138026860Y-101421000D01*
X137563140Y-101421000D01*
X137535072Y-101418236D01*
X137513991Y-101411840D01*
X137494555Y-101401452D01*
X137477524Y-101387476D01*
X137463548Y-101370445D01*
X137453160Y-101351009D01*
X137446764Y-101329928D01*
X137444000Y-101301860D01*
X137444000Y-99488140D01*
X137446764Y-99460072D01*
X137453160Y-99438991D01*
X137463548Y-99419555D01*
X137477524Y-99402524D01*
X137494555Y-99388548D01*
X137513991Y-99378160D01*
X137535072Y-99371764D01*
X137563140Y-99369000D01*
X138026860Y-99369000D01*
X138054928Y-99371764D01*
X138054928Y-99371764D01*
G37*
G36*
X139324928Y-99371764D02*
G01*
X139346009Y-99378160D01*
X139365445Y-99388548D01*
X139382476Y-99402524D01*
X139396452Y-99419555D01*
X139406840Y-99438991D01*
X139413236Y-99460072D01*
X139416000Y-99488140D01*
X139416000Y-101301860D01*
X139413236Y-101329928D01*
X139406840Y-101351009D01*
X139396452Y-101370445D01*
X139382476Y-101387476D01*
X139365445Y-101401452D01*
X139346009Y-101411840D01*
X139324928Y-101418236D01*
X139296860Y-101421000D01*
X138833140Y-101421000D01*
X138805072Y-101418236D01*
X138783991Y-101411840D01*
X138764555Y-101401452D01*
X138747524Y-101387476D01*
X138733548Y-101370445D01*
X138723160Y-101351009D01*
X138716764Y-101329928D01*
X138714000Y-101301860D01*
X138714000Y-99488140D01*
X138716764Y-99460072D01*
X138723160Y-99438991D01*
X138733548Y-99419555D01*
X138747524Y-99402524D01*
X138764555Y-99388548D01*
X138783991Y-99378160D01*
X138805072Y-99371764D01*
X138833140Y-99369000D01*
X139296860Y-99369000D01*
X139324928Y-99371764D01*
X139324928Y-99371764D01*
G37*
G36*
X140594928Y-99371764D02*
G01*
X140616009Y-99378160D01*
X140635445Y-99388548D01*
X140652476Y-99402524D01*
X140666452Y-99419555D01*
X140676840Y-99438991D01*
X140683236Y-99460072D01*
X140686000Y-99488140D01*
X140686000Y-101301860D01*
X140683236Y-101329928D01*
X140676840Y-101351009D01*
X140666452Y-101370445D01*
X140652476Y-101387476D01*
X140635445Y-101401452D01*
X140616009Y-101411840D01*
X140594928Y-101418236D01*
X140566860Y-101421000D01*
X140103140Y-101421000D01*
X140075072Y-101418236D01*
X140053991Y-101411840D01*
X140034555Y-101401452D01*
X140017524Y-101387476D01*
X140003548Y-101370445D01*
X139993160Y-101351009D01*
X139986764Y-101329928D01*
X139984000Y-101301860D01*
X139984000Y-99488140D01*
X139986764Y-99460072D01*
X139993160Y-99438991D01*
X140003548Y-99419555D01*
X140017524Y-99402524D01*
X140034555Y-99388548D01*
X140053991Y-99378160D01*
X140075072Y-99371764D01*
X140103140Y-99369000D01*
X140566860Y-99369000D01*
X140594928Y-99371764D01*
X140594928Y-99371764D01*
G37*
G36*
X144276552Y-98626331D02*
G01*
X144358627Y-98660328D01*
X144358629Y-98660329D01*
X144387904Y-98679890D01*
X144432495Y-98709685D01*
X144495315Y-98772505D01*
X144513945Y-98800387D01*
X144542050Y-98842448D01*
X144544672Y-98846373D01*
X144578669Y-98928448D01*
X144596000Y-99015579D01*
X144596000Y-99104421D01*
X144578669Y-99191552D01*
X144544672Y-99273627D01*
X144503243Y-99335630D01*
X144491692Y-99357241D01*
X144484579Y-99380690D01*
X144482177Y-99405076D01*
X144484579Y-99429462D01*
X144487559Y-99441361D01*
X144493236Y-99460075D01*
X144496000Y-99488140D01*
X144496000Y-101301860D01*
X144493236Y-101329928D01*
X144486840Y-101351009D01*
X144476452Y-101370445D01*
X144462476Y-101387476D01*
X144445445Y-101401452D01*
X144426009Y-101411840D01*
X144404928Y-101418236D01*
X144376860Y-101421000D01*
X143913140Y-101421000D01*
X143885072Y-101418236D01*
X143863991Y-101411840D01*
X143844555Y-101401452D01*
X143827524Y-101387476D01*
X143813548Y-101370445D01*
X143803160Y-101351009D01*
X143796764Y-101329928D01*
X143794000Y-101301860D01*
X143794000Y-99488140D01*
X143796764Y-99460075D01*
X143802441Y-99441361D01*
X143807221Y-99417328D01*
X143807221Y-99392824D01*
X143802441Y-99368791D01*
X143793063Y-99346152D01*
X143786757Y-99335630D01*
X143745328Y-99273627D01*
X143711331Y-99191552D01*
X143694000Y-99104421D01*
X143694000Y-99015579D01*
X143711331Y-98928448D01*
X143745328Y-98846373D01*
X143747951Y-98842448D01*
X143776055Y-98800387D01*
X143794685Y-98772505D01*
X143857505Y-98709685D01*
X143902096Y-98679890D01*
X143931371Y-98660329D01*
X143931373Y-98660328D01*
X144013448Y-98626331D01*
X144100579Y-98609000D01*
X144189421Y-98609000D01*
X144276552Y-98626331D01*
X144276552Y-98626331D01*
G37*
G36*
X145674928Y-99371764D02*
G01*
X145696009Y-99378160D01*
X145715445Y-99388548D01*
X145732476Y-99402524D01*
X145746452Y-99419555D01*
X145756840Y-99438991D01*
X145763236Y-99460072D01*
X145766000Y-99488140D01*
X145766000Y-101301860D01*
X145763236Y-101329928D01*
X145756840Y-101351009D01*
X145746452Y-101370445D01*
X145732476Y-101387476D01*
X145715445Y-101401452D01*
X145696009Y-101411840D01*
X145674928Y-101418236D01*
X145646860Y-101421000D01*
X145183140Y-101421000D01*
X145155072Y-101418236D01*
X145133991Y-101411840D01*
X145114555Y-101401452D01*
X145097524Y-101387476D01*
X145083548Y-101370445D01*
X145073160Y-101351009D01*
X145066764Y-101329928D01*
X145064000Y-101301860D01*
X145064000Y-99488140D01*
X145066764Y-99460072D01*
X145073160Y-99438991D01*
X145083548Y-99419555D01*
X145097524Y-99402524D01*
X145114555Y-99388548D01*
X145133991Y-99378160D01*
X145155072Y-99371764D01*
X145183140Y-99369000D01*
X145646860Y-99369000D01*
X145674928Y-99371764D01*
X145674928Y-99371764D01*
G37*
G36*
X141864928Y-99371764D02*
G01*
X141886009Y-99378160D01*
X141905445Y-99388548D01*
X141922476Y-99402524D01*
X141936452Y-99419555D01*
X141946840Y-99438991D01*
X141953236Y-99460072D01*
X141956000Y-99488140D01*
X141956000Y-101301860D01*
X141953236Y-101329928D01*
X141946840Y-101351009D01*
X141936452Y-101370445D01*
X141922476Y-101387476D01*
X141905445Y-101401452D01*
X141886009Y-101411840D01*
X141864928Y-101418236D01*
X141836860Y-101421000D01*
X141373140Y-101421000D01*
X141345072Y-101418236D01*
X141323991Y-101411840D01*
X141304555Y-101401452D01*
X141287524Y-101387476D01*
X141273548Y-101370445D01*
X141263160Y-101351009D01*
X141256764Y-101329928D01*
X141254000Y-101301860D01*
X141254000Y-99488140D01*
X141256764Y-99460072D01*
X141263160Y-99438991D01*
X141273548Y-99419555D01*
X141287524Y-99402524D01*
X141304555Y-99388548D01*
X141323991Y-99378160D01*
X141345072Y-99371764D01*
X141373140Y-99369000D01*
X141836860Y-99369000D01*
X141864928Y-99371764D01*
X141864928Y-99371764D01*
G37*
G36*
X143134928Y-99371764D02*
G01*
X143156009Y-99378160D01*
X143175445Y-99388548D01*
X143192476Y-99402524D01*
X143206452Y-99419555D01*
X143216840Y-99438991D01*
X143223236Y-99460072D01*
X143226000Y-99488140D01*
X143226000Y-101301860D01*
X143223236Y-101329928D01*
X143216840Y-101351009D01*
X143206452Y-101370445D01*
X143192476Y-101387476D01*
X143175445Y-101401452D01*
X143156009Y-101411840D01*
X143134928Y-101418236D01*
X143106860Y-101421000D01*
X142643140Y-101421000D01*
X142615072Y-101418236D01*
X142593991Y-101411840D01*
X142574555Y-101401452D01*
X142557524Y-101387476D01*
X142543548Y-101370445D01*
X142533160Y-101351009D01*
X142526764Y-101329928D01*
X142524000Y-101301860D01*
X142524000Y-99488140D01*
X142526764Y-99460072D01*
X142533160Y-99438991D01*
X142543548Y-99419555D01*
X142557524Y-99402524D01*
X142574555Y-99388548D01*
X142593991Y-99378160D01*
X142615072Y-99371764D01*
X142643140Y-99369000D01*
X143106860Y-99369000D01*
X143134928Y-99371764D01*
X143134928Y-99371764D01*
G37*
G36*
X148334591Y-99363085D02*
G01*
X148368569Y-99373393D01*
X148399890Y-99390134D01*
X148427339Y-99412661D01*
X148449866Y-99440110D01*
X148466607Y-99471431D01*
X148476915Y-99505409D01*
X148481000Y-99546890D01*
X148481000Y-100148110D01*
X148476915Y-100189591D01*
X148466607Y-100223569D01*
X148449866Y-100254890D01*
X148427339Y-100282339D01*
X148399890Y-100304866D01*
X148368569Y-100321607D01*
X148334591Y-100331915D01*
X148293110Y-100336000D01*
X148237481Y-100336000D01*
X148213095Y-100338402D01*
X148189646Y-100345515D01*
X148168035Y-100357066D01*
X148149093Y-100372611D01*
X148133548Y-100391553D01*
X148121997Y-100413164D01*
X148114884Y-100436613D01*
X148112482Y-100460999D01*
X148114884Y-100485385D01*
X148121997Y-100508834D01*
X148133548Y-100530445D01*
X148149093Y-100549387D01*
X148168035Y-100564932D01*
X148242494Y-100614684D01*
X148305315Y-100677505D01*
X148354672Y-100751373D01*
X148388669Y-100833448D01*
X148406000Y-100920579D01*
X148406000Y-101009421D01*
X148388669Y-101096552D01*
X148369181Y-101143599D01*
X148354671Y-101178629D01*
X148305314Y-101252496D01*
X148242496Y-101315314D01*
X148168629Y-101364671D01*
X148168628Y-101364672D01*
X148168627Y-101364672D01*
X148086552Y-101398669D01*
X147999421Y-101416000D01*
X147910579Y-101416000D01*
X147823448Y-101398669D01*
X147741373Y-101364672D01*
X147741372Y-101364672D01*
X147741371Y-101364671D01*
X147667504Y-101315314D01*
X147604686Y-101252496D01*
X147555329Y-101178629D01*
X147540819Y-101143599D01*
X147521331Y-101096552D01*
X147504000Y-101009421D01*
X147504000Y-100920579D01*
X147521331Y-100833448D01*
X147555328Y-100751373D01*
X147604685Y-100677505D01*
X147667506Y-100614684D01*
X147741965Y-100564932D01*
X147760907Y-100549386D01*
X147776452Y-100530444D01*
X147788003Y-100508834D01*
X147795116Y-100485385D01*
X147797518Y-100460999D01*
X147795116Y-100436613D01*
X147788003Y-100413164D01*
X147776452Y-100391553D01*
X147760906Y-100372611D01*
X147741964Y-100357066D01*
X147720354Y-100345515D01*
X147696905Y-100338402D01*
X147672519Y-100336000D01*
X147616890Y-100336000D01*
X147575409Y-100331915D01*
X147541431Y-100321607D01*
X147510110Y-100304866D01*
X147482661Y-100282339D01*
X147460134Y-100254890D01*
X147443393Y-100223569D01*
X147433085Y-100189591D01*
X147429000Y-100148110D01*
X147429000Y-99546890D01*
X147433085Y-99505409D01*
X147443393Y-99471431D01*
X147460134Y-99440110D01*
X147482661Y-99412661D01*
X147510110Y-99390134D01*
X147541431Y-99373393D01*
X147575409Y-99363085D01*
X147616890Y-99359000D01*
X148293110Y-99359000D01*
X148334591Y-99363085D01*
X148334591Y-99363085D01*
G37*
G36*
X152906591Y-99363085D02*
G01*
X152940569Y-99373393D01*
X152971890Y-99390134D01*
X152999339Y-99412661D01*
X153021866Y-99440110D01*
X153038607Y-99471431D01*
X153048915Y-99505409D01*
X153053000Y-99546890D01*
X153053000Y-100148110D01*
X153048915Y-100189591D01*
X153038607Y-100223569D01*
X153021866Y-100254890D01*
X152999339Y-100282339D01*
X152971890Y-100304866D01*
X152940569Y-100321607D01*
X152906591Y-100331915D01*
X152865110Y-100336000D01*
X152809481Y-100336000D01*
X152785095Y-100338402D01*
X152761646Y-100345515D01*
X152740035Y-100357066D01*
X152721093Y-100372611D01*
X152705548Y-100391553D01*
X152693997Y-100413164D01*
X152686884Y-100436613D01*
X152684482Y-100460999D01*
X152686884Y-100485385D01*
X152693997Y-100508834D01*
X152705548Y-100530445D01*
X152721093Y-100549387D01*
X152740035Y-100564932D01*
X152814494Y-100614684D01*
X152877315Y-100677505D01*
X152926672Y-100751373D01*
X152960669Y-100833448D01*
X152978000Y-100920579D01*
X152978000Y-101009421D01*
X152960669Y-101096552D01*
X152941181Y-101143599D01*
X152926671Y-101178629D01*
X152877314Y-101252496D01*
X152814496Y-101315314D01*
X152740629Y-101364671D01*
X152740628Y-101364672D01*
X152740627Y-101364672D01*
X152658552Y-101398669D01*
X152571421Y-101416000D01*
X152482579Y-101416000D01*
X152395448Y-101398669D01*
X152313373Y-101364672D01*
X152313372Y-101364672D01*
X152313371Y-101364671D01*
X152239504Y-101315314D01*
X152176686Y-101252496D01*
X152127329Y-101178629D01*
X152112819Y-101143599D01*
X152093331Y-101096552D01*
X152076000Y-101009421D01*
X152076000Y-100920579D01*
X152093331Y-100833448D01*
X152127328Y-100751373D01*
X152176685Y-100677505D01*
X152239506Y-100614684D01*
X152313965Y-100564932D01*
X152332907Y-100549386D01*
X152348452Y-100530444D01*
X152360003Y-100508834D01*
X152367116Y-100485385D01*
X152369518Y-100460999D01*
X152367116Y-100436613D01*
X152360003Y-100413164D01*
X152348452Y-100391553D01*
X152332906Y-100372611D01*
X152313964Y-100357066D01*
X152292354Y-100345515D01*
X152268905Y-100338402D01*
X152244519Y-100336000D01*
X152188890Y-100336000D01*
X152147409Y-100331915D01*
X152113431Y-100321607D01*
X152082110Y-100304866D01*
X152054661Y-100282339D01*
X152032134Y-100254890D01*
X152015393Y-100223569D01*
X152005085Y-100189591D01*
X152001000Y-100148110D01*
X152001000Y-99546890D01*
X152005085Y-99505409D01*
X152015393Y-99471431D01*
X152032134Y-99440110D01*
X152054661Y-99412661D01*
X152082110Y-99390134D01*
X152113431Y-99373393D01*
X152147409Y-99363085D01*
X152188890Y-99359000D01*
X152865110Y-99359000D01*
X152906591Y-99363085D01*
X152906591Y-99363085D01*
G37*
G36*
X166135787Y-94375462D02*
G01*
X166269867Y-94431000D01*
X166782029Y-94643144D01*
X167363631Y-95031758D01*
X167858242Y-95526369D01*
X168246856Y-96107971D01*
X168370567Y-96406636D01*
X168514538Y-96754213D01*
X168651000Y-97440256D01*
X168651000Y-98139744D01*
X168514538Y-98825787D01*
X168507637Y-98842448D01*
X168246856Y-99472029D01*
X167858242Y-100053631D01*
X167363631Y-100548242D01*
X166782029Y-100936856D01*
X166325068Y-101126135D01*
X166135787Y-101204538D01*
X165449744Y-101341000D01*
X164750256Y-101341000D01*
X164064213Y-101204538D01*
X163874932Y-101126135D01*
X163417971Y-100936856D01*
X162836369Y-100548242D01*
X162341758Y-100053631D01*
X161953144Y-99472029D01*
X161692363Y-98842448D01*
X161685462Y-98825787D01*
X161549000Y-98139744D01*
X161549000Y-97440256D01*
X161685462Y-96754213D01*
X161829433Y-96406636D01*
X161953144Y-96107971D01*
X162341758Y-95526369D01*
X162836369Y-95031758D01*
X163417971Y-94643144D01*
X163930133Y-94431000D01*
X164064213Y-94375462D01*
X164750256Y-94239000D01*
X165449744Y-94239000D01*
X166135787Y-94375462D01*
X166135787Y-94375462D01*
G37*
G36*
X128909552Y-99896331D02*
G01*
X128991627Y-99930328D01*
X128991629Y-99930329D01*
X129065496Y-99979686D01*
X129128314Y-100042504D01*
X129161220Y-100091750D01*
X129177672Y-100116373D01*
X129211669Y-100198448D01*
X129229000Y-100285579D01*
X129229000Y-100374421D01*
X129211669Y-100461552D01*
X129183132Y-100530445D01*
X129177671Y-100543629D01*
X129163171Y-100565329D01*
X129128315Y-100617495D01*
X129065495Y-100680315D01*
X129037531Y-100699000D01*
X128991629Y-100729671D01*
X128991628Y-100729672D01*
X128991627Y-100729672D01*
X128909552Y-100763669D01*
X128822421Y-100781000D01*
X128733579Y-100781000D01*
X128640651Y-100762516D01*
X128628456Y-100758817D01*
X128604070Y-100756416D01*
X128590198Y-100757783D01*
X128584913Y-100749873D01*
X128567587Y-100732545D01*
X128557729Y-100725233D01*
X128490506Y-100680316D01*
X128427685Y-100617495D01*
X128392829Y-100565329D01*
X128378329Y-100543629D01*
X128372868Y-100530445D01*
X128344331Y-100461552D01*
X128327000Y-100374421D01*
X128327000Y-100285579D01*
X128344331Y-100198448D01*
X128378328Y-100116373D01*
X128394781Y-100091750D01*
X128427686Y-100042504D01*
X128490504Y-99979686D01*
X128564371Y-99930329D01*
X128564373Y-99930328D01*
X128646448Y-99896331D01*
X128733579Y-99879000D01*
X128822421Y-99879000D01*
X128909552Y-99896331D01*
X128909552Y-99896331D01*
G37*
G36*
X136656552Y-99769331D02*
G01*
X136738627Y-99803328D01*
X136738629Y-99803329D01*
X136812496Y-99852686D01*
X136875314Y-99915504D01*
X136918200Y-99979686D01*
X136924672Y-99989373D01*
X136958669Y-100071448D01*
X136976000Y-100158579D01*
X136976000Y-100247421D01*
X136958669Y-100334552D01*
X136938255Y-100383834D01*
X136924671Y-100416629D01*
X136875314Y-100490496D01*
X136812496Y-100553314D01*
X136738629Y-100602671D01*
X136738628Y-100602672D01*
X136738627Y-100602672D01*
X136656552Y-100636669D01*
X136569421Y-100654000D01*
X136480579Y-100654000D01*
X136393448Y-100636669D01*
X136311373Y-100602672D01*
X136311372Y-100602672D01*
X136311371Y-100602671D01*
X136237504Y-100553314D01*
X136174686Y-100490496D01*
X136125329Y-100416629D01*
X136111745Y-100383834D01*
X136091331Y-100334552D01*
X136074000Y-100247421D01*
X136074000Y-100158579D01*
X136091331Y-100071448D01*
X136125328Y-99989373D01*
X136131801Y-99979686D01*
X136174686Y-99915504D01*
X136237504Y-99852686D01*
X136311371Y-99803329D01*
X136311373Y-99803328D01*
X136393448Y-99769331D01*
X136480579Y-99752000D01*
X136569421Y-99752000D01*
X136656552Y-99769331D01*
X136656552Y-99769331D01*
G37*
G36*
X151382591Y-99363085D02*
G01*
X151416569Y-99373393D01*
X151447890Y-99390134D01*
X151475339Y-99412661D01*
X151497866Y-99440110D01*
X151514607Y-99471431D01*
X151524915Y-99505409D01*
X151529000Y-99546890D01*
X151529000Y-100148110D01*
X151524915Y-100189591D01*
X151514607Y-100223569D01*
X151497866Y-100254890D01*
X151475339Y-100282339D01*
X151447890Y-100304866D01*
X151416569Y-100321607D01*
X151382591Y-100331915D01*
X151341110Y-100336000D01*
X150664890Y-100336000D01*
X150623409Y-100331915D01*
X150589431Y-100321607D01*
X150558110Y-100304866D01*
X150530661Y-100282339D01*
X150508134Y-100254890D01*
X150491393Y-100223569D01*
X150481085Y-100189591D01*
X150477000Y-100148110D01*
X150477000Y-99546890D01*
X150481085Y-99505409D01*
X150491393Y-99471431D01*
X150508134Y-99440110D01*
X150530661Y-99412661D01*
X150558110Y-99390134D01*
X150589431Y-99373393D01*
X150623409Y-99363085D01*
X150664890Y-99359000D01*
X151341110Y-99359000D01*
X151382591Y-99363085D01*
X151382591Y-99363085D01*
G37*
G36*
X149858591Y-99363085D02*
G01*
X149892569Y-99373393D01*
X149923890Y-99390134D01*
X149951339Y-99412661D01*
X149973866Y-99440110D01*
X149990607Y-99471431D01*
X150000915Y-99505409D01*
X150005000Y-99546890D01*
X150005000Y-100148110D01*
X150000915Y-100189591D01*
X149990607Y-100223569D01*
X149973866Y-100254890D01*
X149951339Y-100282339D01*
X149923890Y-100304866D01*
X149892569Y-100321607D01*
X149858591Y-100331915D01*
X149817110Y-100336000D01*
X149140890Y-100336000D01*
X149099409Y-100331915D01*
X149065431Y-100321607D01*
X149034110Y-100304866D01*
X149006661Y-100282339D01*
X148984134Y-100254890D01*
X148967393Y-100223569D01*
X148957085Y-100189591D01*
X148953000Y-100148110D01*
X148953000Y-99546890D01*
X148957085Y-99505409D01*
X148967393Y-99471431D01*
X148984134Y-99440110D01*
X149006661Y-99412661D01*
X149034110Y-99390134D01*
X149065431Y-99373393D01*
X149099409Y-99363085D01*
X149140890Y-99359000D01*
X149817110Y-99359000D01*
X149858591Y-99363085D01*
X149858591Y-99363085D01*
G37*
G36*
X123935443Y-98165519D02*
G01*
X124001627Y-98172037D01*
X124171466Y-98223557D01*
X124327991Y-98307222D01*
X124363729Y-98336552D01*
X124465186Y-98419814D01*
X124544738Y-98516750D01*
X124577778Y-98557009D01*
X124661443Y-98713534D01*
X124712963Y-98883373D01*
X124730359Y-99060000D01*
X124712963Y-99236627D01*
X124661443Y-99406466D01*
X124661442Y-99406468D01*
X124649151Y-99429462D01*
X124577778Y-99562991D01*
X124562746Y-99581307D01*
X124465186Y-99700186D01*
X124380931Y-99769331D01*
X124327991Y-99812778D01*
X124171466Y-99896443D01*
X124001627Y-99947963D01*
X123935443Y-99954481D01*
X123869260Y-99961000D01*
X123780740Y-99961000D01*
X123714557Y-99954481D01*
X123648373Y-99947963D01*
X123478534Y-99896443D01*
X123322009Y-99812778D01*
X123269069Y-99769331D01*
X123184814Y-99700186D01*
X123087254Y-99581307D01*
X123072222Y-99562991D01*
X123000849Y-99429462D01*
X122988558Y-99406468D01*
X122988557Y-99406466D01*
X122937037Y-99236627D01*
X122919641Y-99060000D01*
X122937037Y-98883373D01*
X122988557Y-98713534D01*
X123072222Y-98557009D01*
X123105262Y-98516750D01*
X123184814Y-98419814D01*
X123286271Y-98336552D01*
X123322009Y-98307222D01*
X123478534Y-98223557D01*
X123648373Y-98172037D01*
X123714557Y-98165519D01*
X123780740Y-98159000D01*
X123869260Y-98159000D01*
X123935443Y-98165519D01*
X123935443Y-98165519D01*
G37*
G36*
X135290091Y-98538085D02*
G01*
X135324069Y-98548393D01*
X135355390Y-98565134D01*
X135382839Y-98587661D01*
X135405366Y-98615110D01*
X135422107Y-98646431D01*
X135432415Y-98680409D01*
X135436500Y-98721890D01*
X135436500Y-99398110D01*
X135432415Y-99439591D01*
X135422107Y-99473569D01*
X135405366Y-99504890D01*
X135382839Y-99532339D01*
X135355390Y-99554866D01*
X135324069Y-99571607D01*
X135290091Y-99581915D01*
X135248610Y-99586000D01*
X134647390Y-99586000D01*
X134605909Y-99581915D01*
X134571931Y-99571607D01*
X134540610Y-99554866D01*
X134513161Y-99532339D01*
X134490634Y-99504890D01*
X134473893Y-99473569D01*
X134463585Y-99439591D01*
X134459500Y-99398110D01*
X134459500Y-98721890D01*
X134463585Y-98680409D01*
X134473893Y-98646431D01*
X134490634Y-98615110D01*
X134513161Y-98587661D01*
X134540610Y-98565134D01*
X134571931Y-98548393D01*
X134605909Y-98538085D01*
X134647390Y-98534000D01*
X135248610Y-98534000D01*
X135290091Y-98538085D01*
X135290091Y-98538085D01*
G37*
G36*
X133715091Y-98538085D02*
G01*
X133749069Y-98548393D01*
X133780390Y-98565134D01*
X133807839Y-98587661D01*
X133830366Y-98615110D01*
X133847107Y-98646431D01*
X133857415Y-98680409D01*
X133861500Y-98721890D01*
X133861500Y-99398110D01*
X133857415Y-99439591D01*
X133847107Y-99473569D01*
X133830366Y-99504890D01*
X133807839Y-99532339D01*
X133780390Y-99554866D01*
X133749069Y-99571607D01*
X133715091Y-99581915D01*
X133673610Y-99586000D01*
X133072390Y-99586000D01*
X133030909Y-99581915D01*
X132996931Y-99571607D01*
X132965610Y-99554866D01*
X132938161Y-99532339D01*
X132915634Y-99504890D01*
X132898893Y-99473569D01*
X132888585Y-99439591D01*
X132884500Y-99398110D01*
X132884500Y-98721890D01*
X132888585Y-98680409D01*
X132898893Y-98646431D01*
X132915634Y-98615110D01*
X132938161Y-98587661D01*
X132965610Y-98565134D01*
X132996931Y-98548393D01*
X133030909Y-98538085D01*
X133072390Y-98534000D01*
X133673610Y-98534000D01*
X133715091Y-98538085D01*
X133715091Y-98538085D01*
G37*
G36*
X132193591Y-98538085D02*
G01*
X132227569Y-98548393D01*
X132258890Y-98565134D01*
X132286339Y-98587661D01*
X132308866Y-98615110D01*
X132325607Y-98646431D01*
X132335915Y-98680409D01*
X132340000Y-98721890D01*
X132340000Y-99398110D01*
X132335915Y-99439591D01*
X132325607Y-99473569D01*
X132308866Y-99504890D01*
X132286339Y-99532339D01*
X132258890Y-99554866D01*
X132227569Y-99571607D01*
X132193591Y-99581915D01*
X132152110Y-99586000D01*
X131550890Y-99586000D01*
X131509409Y-99581915D01*
X131475431Y-99571607D01*
X131444110Y-99554866D01*
X131416661Y-99532339D01*
X131394134Y-99504890D01*
X131377393Y-99473569D01*
X131367085Y-99439591D01*
X131363000Y-99398110D01*
X131363000Y-98721890D01*
X131367085Y-98680409D01*
X131377393Y-98646431D01*
X131394134Y-98615110D01*
X131416661Y-98587661D01*
X131444110Y-98565134D01*
X131475431Y-98548393D01*
X131509409Y-98538085D01*
X131550890Y-98534000D01*
X132152110Y-98534000D01*
X132193591Y-98538085D01*
X132193591Y-98538085D01*
G37*
G36*
X127522091Y-98538085D02*
G01*
X127556069Y-98548393D01*
X127587390Y-98565134D01*
X127614839Y-98587661D01*
X127637366Y-98615110D01*
X127654107Y-98646431D01*
X127664415Y-98680409D01*
X127668500Y-98721890D01*
X127668500Y-99398110D01*
X127664415Y-99439591D01*
X127654107Y-99473569D01*
X127637366Y-99504890D01*
X127614839Y-99532339D01*
X127587390Y-99554866D01*
X127556069Y-99571607D01*
X127522091Y-99581915D01*
X127480610Y-99586000D01*
X126879390Y-99586000D01*
X126837909Y-99581915D01*
X126803931Y-99571607D01*
X126772610Y-99554866D01*
X126745161Y-99532339D01*
X126722634Y-99504890D01*
X126705893Y-99473569D01*
X126695585Y-99439591D01*
X126691500Y-99398110D01*
X126691500Y-98721890D01*
X126695585Y-98680409D01*
X126705893Y-98646431D01*
X126722634Y-98615110D01*
X126745161Y-98587661D01*
X126772610Y-98565134D01*
X126803931Y-98548393D01*
X126837909Y-98538085D01*
X126879390Y-98534000D01*
X127480610Y-98534000D01*
X127522091Y-98538085D01*
X127522091Y-98538085D01*
G37*
G36*
X129097091Y-98538085D02*
G01*
X129131069Y-98548393D01*
X129162390Y-98565134D01*
X129189839Y-98587661D01*
X129212366Y-98615110D01*
X129229107Y-98646431D01*
X129239415Y-98680409D01*
X129243500Y-98721890D01*
X129243500Y-99398110D01*
X129239415Y-99439591D01*
X129229107Y-99473569D01*
X129212366Y-99504890D01*
X129189839Y-99532339D01*
X129162390Y-99554866D01*
X129131069Y-99571607D01*
X129097091Y-99581915D01*
X129055610Y-99586000D01*
X128454390Y-99586000D01*
X128412909Y-99581915D01*
X128378931Y-99571607D01*
X128347610Y-99554866D01*
X128320161Y-99532339D01*
X128297634Y-99504890D01*
X128280893Y-99473569D01*
X128270585Y-99439591D01*
X128266500Y-99398110D01*
X128266500Y-98721890D01*
X128270585Y-98680409D01*
X128280893Y-98646431D01*
X128297634Y-98615110D01*
X128320161Y-98587661D01*
X128347610Y-98565134D01*
X128378931Y-98548393D01*
X128412909Y-98538085D01*
X128454390Y-98534000D01*
X129055610Y-98534000D01*
X129097091Y-98538085D01*
X129097091Y-98538085D01*
G37*
G36*
X130618591Y-98538085D02*
G01*
X130652569Y-98548393D01*
X130683890Y-98565134D01*
X130711339Y-98587661D01*
X130733866Y-98615110D01*
X130750607Y-98646431D01*
X130760915Y-98680409D01*
X130765000Y-98721890D01*
X130765000Y-99398110D01*
X130760915Y-99439591D01*
X130750607Y-99473569D01*
X130733866Y-99504890D01*
X130711339Y-99532339D01*
X130683890Y-99554866D01*
X130652569Y-99571607D01*
X130618591Y-99581915D01*
X130577110Y-99586000D01*
X129975890Y-99586000D01*
X129934409Y-99581915D01*
X129900431Y-99571607D01*
X129869110Y-99554866D01*
X129841661Y-99532339D01*
X129819134Y-99504890D01*
X129802393Y-99473569D01*
X129792085Y-99439591D01*
X129788000Y-99398110D01*
X129788000Y-98721890D01*
X129792085Y-98680409D01*
X129802393Y-98646431D01*
X129819134Y-98615110D01*
X129841661Y-98587661D01*
X129869110Y-98565134D01*
X129900431Y-98548393D01*
X129934409Y-98538085D01*
X129975890Y-98534000D01*
X130577110Y-98534000D01*
X130618591Y-98538085D01*
X130618591Y-98538085D01*
G37*
G36*
X136867091Y-97903085D02*
G01*
X136901069Y-97913393D01*
X136932390Y-97930134D01*
X136959839Y-97952661D01*
X136982366Y-97980110D01*
X136999107Y-98011431D01*
X137009415Y-98045409D01*
X137013500Y-98086890D01*
X137013500Y-98763110D01*
X137009415Y-98804591D01*
X136999107Y-98838569D01*
X136982366Y-98869890D01*
X136959839Y-98897339D01*
X136932390Y-98919866D01*
X136901069Y-98936607D01*
X136867091Y-98946915D01*
X136825610Y-98951000D01*
X136224390Y-98951000D01*
X136182909Y-98946915D01*
X136148931Y-98936607D01*
X136117610Y-98919866D01*
X136090161Y-98897339D01*
X136067634Y-98869890D01*
X136050893Y-98838569D01*
X136040585Y-98804591D01*
X136036500Y-98763110D01*
X136036500Y-98086890D01*
X136040585Y-98045409D01*
X136050893Y-98011431D01*
X136067634Y-97980110D01*
X136090161Y-97952661D01*
X136117610Y-97930134D01*
X136148931Y-97913393D01*
X136182909Y-97903085D01*
X136224390Y-97899000D01*
X136825610Y-97899000D01*
X136867091Y-97903085D01*
X136867091Y-97903085D01*
G37*
G36*
X138442091Y-97903085D02*
G01*
X138476069Y-97913393D01*
X138507390Y-97930134D01*
X138534839Y-97952661D01*
X138557366Y-97980110D01*
X138574107Y-98011431D01*
X138575631Y-98016454D01*
X138585009Y-98039093D01*
X138598623Y-98059467D01*
X138615950Y-98076794D01*
X138636324Y-98090407D01*
X138658963Y-98099784D01*
X138682997Y-98104564D01*
X138707501Y-98104564D01*
X138731534Y-98099783D01*
X138754173Y-98090405D01*
X138766896Y-98080969D01*
X138767268Y-98081525D01*
X138830772Y-98039093D01*
X138851371Y-98025329D01*
X138851373Y-98025328D01*
X138933448Y-97991331D01*
X139020579Y-97974000D01*
X139109421Y-97974000D01*
X139196552Y-97991331D01*
X139278627Y-98025328D01*
X139278629Y-98025329D01*
X139299228Y-98039093D01*
X139352495Y-98074685D01*
X139415315Y-98137505D01*
X139464672Y-98211373D01*
X139498669Y-98293448D01*
X139516000Y-98380579D01*
X139516000Y-98469421D01*
X139498669Y-98556552D01*
X139474628Y-98614591D01*
X139464671Y-98638629D01*
X139459458Y-98646431D01*
X139415315Y-98712495D01*
X139352495Y-98775315D01*
X139315813Y-98799825D01*
X139278629Y-98824671D01*
X139278628Y-98824672D01*
X139278627Y-98824672D01*
X139196552Y-98858669D01*
X139109421Y-98876000D01*
X139020579Y-98876000D01*
X138933448Y-98858669D01*
X138851373Y-98824672D01*
X138851372Y-98824672D01*
X138851371Y-98824671D01*
X138834655Y-98813501D01*
X138770296Y-98770499D01*
X138764693Y-98765900D01*
X138743082Y-98754349D01*
X138719633Y-98747236D01*
X138695247Y-98744834D01*
X138670861Y-98747236D01*
X138647412Y-98754349D01*
X138625801Y-98765900D01*
X138606859Y-98781445D01*
X138591314Y-98800387D01*
X138575631Y-98833546D01*
X138574107Y-98838569D01*
X138557366Y-98869890D01*
X138534839Y-98897339D01*
X138507390Y-98919866D01*
X138476069Y-98936607D01*
X138442091Y-98946915D01*
X138400610Y-98951000D01*
X137799390Y-98951000D01*
X137757909Y-98946915D01*
X137723931Y-98936607D01*
X137692610Y-98919866D01*
X137665161Y-98897339D01*
X137642634Y-98869890D01*
X137625893Y-98838569D01*
X137615585Y-98804591D01*
X137611500Y-98763110D01*
X137611500Y-98086890D01*
X137615585Y-98045409D01*
X137625893Y-98011431D01*
X137642634Y-97980110D01*
X137665161Y-97952661D01*
X137692610Y-97930134D01*
X137723931Y-97913393D01*
X137757909Y-97903085D01*
X137799390Y-97899000D01*
X138400610Y-97899000D01*
X138442091Y-97903085D01*
X138442091Y-97903085D01*
G37*
G36*
X149858591Y-97788085D02*
G01*
X149892569Y-97798393D01*
X149923890Y-97815134D01*
X149951339Y-97837661D01*
X149973866Y-97865110D01*
X149990607Y-97896431D01*
X150000915Y-97930409D01*
X150005000Y-97971890D01*
X150005000Y-98573110D01*
X150000915Y-98614591D01*
X149990607Y-98648569D01*
X149973866Y-98679890D01*
X149951339Y-98707339D01*
X149923890Y-98729866D01*
X149892569Y-98746607D01*
X149858591Y-98756915D01*
X149817110Y-98761000D01*
X149140890Y-98761000D01*
X149099409Y-98756915D01*
X149065431Y-98746607D01*
X149034110Y-98729866D01*
X149006661Y-98707339D01*
X148984134Y-98679890D01*
X148967393Y-98648569D01*
X148957085Y-98614591D01*
X148953000Y-98573110D01*
X148953000Y-97971890D01*
X148957085Y-97930409D01*
X148967393Y-97896431D01*
X148984134Y-97865110D01*
X149006661Y-97837661D01*
X149034110Y-97815134D01*
X149065431Y-97798393D01*
X149099409Y-97788085D01*
X149140890Y-97784000D01*
X149817110Y-97784000D01*
X149858591Y-97788085D01*
X149858591Y-97788085D01*
G37*
G36*
X151382591Y-97788085D02*
G01*
X151416569Y-97798393D01*
X151447890Y-97815134D01*
X151475339Y-97837661D01*
X151497866Y-97865110D01*
X151514607Y-97896431D01*
X151524915Y-97930409D01*
X151529000Y-97971890D01*
X151529000Y-98573110D01*
X151524915Y-98614591D01*
X151514607Y-98648569D01*
X151497866Y-98679890D01*
X151475339Y-98707339D01*
X151447890Y-98729866D01*
X151416569Y-98746607D01*
X151382591Y-98756915D01*
X151341110Y-98761000D01*
X150664890Y-98761000D01*
X150623409Y-98756915D01*
X150589431Y-98746607D01*
X150558110Y-98729866D01*
X150530661Y-98707339D01*
X150508134Y-98679890D01*
X150491393Y-98648569D01*
X150481085Y-98614591D01*
X150477000Y-98573110D01*
X150477000Y-97971890D01*
X150481085Y-97930409D01*
X150491393Y-97896431D01*
X150508134Y-97865110D01*
X150530661Y-97837661D01*
X150558110Y-97815134D01*
X150589431Y-97798393D01*
X150623409Y-97788085D01*
X150664890Y-97784000D01*
X151341110Y-97784000D01*
X151382591Y-97788085D01*
X151382591Y-97788085D01*
G37*
G36*
X152906591Y-97788085D02*
G01*
X152940569Y-97798393D01*
X152971890Y-97815134D01*
X152999339Y-97837661D01*
X153021866Y-97865110D01*
X153038607Y-97896431D01*
X153048915Y-97930409D01*
X153053000Y-97971890D01*
X153053000Y-98573110D01*
X153048915Y-98614591D01*
X153038607Y-98648569D01*
X153021866Y-98679890D01*
X152999339Y-98707339D01*
X152971890Y-98729866D01*
X152940569Y-98746607D01*
X152906591Y-98756915D01*
X152865110Y-98761000D01*
X152188890Y-98761000D01*
X152147409Y-98756915D01*
X152113431Y-98746607D01*
X152082110Y-98729866D01*
X152054661Y-98707339D01*
X152032134Y-98679890D01*
X152015393Y-98648569D01*
X152005085Y-98614591D01*
X152001000Y-98573110D01*
X152001000Y-97971890D01*
X152005085Y-97930409D01*
X152015393Y-97896431D01*
X152032134Y-97865110D01*
X152054661Y-97837661D01*
X152082110Y-97815134D01*
X152113431Y-97798393D01*
X152147409Y-97788085D01*
X152188890Y-97784000D01*
X152865110Y-97784000D01*
X152906591Y-97788085D01*
X152906591Y-97788085D01*
G37*
G36*
X148334591Y-97788085D02*
G01*
X148368569Y-97798393D01*
X148399890Y-97815134D01*
X148427339Y-97837661D01*
X148449866Y-97865110D01*
X148466607Y-97896431D01*
X148476915Y-97930409D01*
X148481000Y-97971890D01*
X148481000Y-98573110D01*
X148476915Y-98614591D01*
X148466607Y-98648569D01*
X148449866Y-98679890D01*
X148427339Y-98707339D01*
X148399890Y-98729866D01*
X148368569Y-98746607D01*
X148334591Y-98756915D01*
X148293110Y-98761000D01*
X147616890Y-98761000D01*
X147575409Y-98756915D01*
X147541431Y-98746607D01*
X147510110Y-98729866D01*
X147482661Y-98707339D01*
X147460134Y-98679890D01*
X147443393Y-98648569D01*
X147433085Y-98614591D01*
X147429000Y-98573110D01*
X147429000Y-97971890D01*
X147433085Y-97930409D01*
X147443393Y-97896431D01*
X147460134Y-97865110D01*
X147482661Y-97837661D01*
X147510110Y-97815134D01*
X147541431Y-97798393D01*
X147575409Y-97788085D01*
X147616890Y-97784000D01*
X148293110Y-97784000D01*
X148334591Y-97788085D01*
X148334591Y-97788085D01*
G37*
G36*
X128909552Y-97356331D02*
G01*
X128990661Y-97389928D01*
X128991629Y-97390329D01*
X129018020Y-97407963D01*
X129065495Y-97439685D01*
X129128315Y-97502505D01*
X129177672Y-97576373D01*
X129211669Y-97658448D01*
X129229000Y-97745579D01*
X129229000Y-97834421D01*
X129211669Y-97921552D01*
X129182765Y-97991331D01*
X129177671Y-98003629D01*
X129153974Y-98039093D01*
X129130193Y-98074685D01*
X129128314Y-98077496D01*
X129065496Y-98140314D01*
X128991629Y-98189671D01*
X128991628Y-98189672D01*
X128991627Y-98189672D01*
X128909552Y-98223669D01*
X128822421Y-98241000D01*
X128733579Y-98241000D01*
X128646448Y-98223669D01*
X128564373Y-98189672D01*
X128564372Y-98189672D01*
X128564371Y-98189671D01*
X128490504Y-98140314D01*
X128427686Y-98077496D01*
X128425808Y-98074685D01*
X128402026Y-98039093D01*
X128378329Y-98003629D01*
X128373235Y-97991331D01*
X128344331Y-97921552D01*
X128327000Y-97834421D01*
X128327000Y-97745579D01*
X128344331Y-97658448D01*
X128378328Y-97576373D01*
X128427685Y-97502505D01*
X128490505Y-97439685D01*
X128537980Y-97407963D01*
X128564371Y-97390329D01*
X128565339Y-97389928D01*
X128646448Y-97356331D01*
X128733579Y-97339000D01*
X128822421Y-97339000D01*
X128909552Y-97356331D01*
X128909552Y-97356331D01*
G37*
G36*
X144404928Y-95431764D02*
G01*
X144426009Y-95438160D01*
X144445445Y-95448548D01*
X144462476Y-95462524D01*
X144476452Y-95479555D01*
X144486840Y-95498991D01*
X144493236Y-95520072D01*
X144496000Y-95548140D01*
X144496000Y-97361860D01*
X144493236Y-97389928D01*
X144486840Y-97411009D01*
X144476452Y-97430445D01*
X144462476Y-97447476D01*
X144445445Y-97461452D01*
X144426009Y-97471840D01*
X144404928Y-97478236D01*
X144376860Y-97481000D01*
X143913140Y-97481000D01*
X143885072Y-97478236D01*
X143863991Y-97471840D01*
X143844555Y-97461452D01*
X143827524Y-97447476D01*
X143813548Y-97430445D01*
X143803160Y-97411009D01*
X143796764Y-97389928D01*
X143794000Y-97361860D01*
X143794000Y-95548140D01*
X143796764Y-95520072D01*
X143803160Y-95498991D01*
X143813548Y-95479555D01*
X143827524Y-95462524D01*
X143844555Y-95448548D01*
X143863991Y-95438160D01*
X143885072Y-95431764D01*
X143913140Y-95429000D01*
X144376860Y-95429000D01*
X144404928Y-95431764D01*
X144404928Y-95431764D01*
G37*
G36*
X138054928Y-95431764D02*
G01*
X138076009Y-95438160D01*
X138095445Y-95448548D01*
X138112476Y-95462524D01*
X138126452Y-95479555D01*
X138136840Y-95498991D01*
X138143236Y-95520072D01*
X138146000Y-95548140D01*
X138146000Y-97361860D01*
X138143236Y-97389928D01*
X138136840Y-97411009D01*
X138126452Y-97430445D01*
X138112476Y-97447476D01*
X138095445Y-97461452D01*
X138076009Y-97471840D01*
X138054928Y-97478236D01*
X138026860Y-97481000D01*
X137563140Y-97481000D01*
X137535072Y-97478236D01*
X137513991Y-97471840D01*
X137494555Y-97461452D01*
X137477524Y-97447476D01*
X137463548Y-97430445D01*
X137453160Y-97411009D01*
X137446764Y-97389928D01*
X137444000Y-97361860D01*
X137444000Y-95548140D01*
X137446764Y-95520072D01*
X137453160Y-95498991D01*
X137463548Y-95479555D01*
X137477524Y-95462524D01*
X137494555Y-95448548D01*
X137513991Y-95438160D01*
X137535072Y-95431764D01*
X137563140Y-95429000D01*
X138026860Y-95429000D01*
X138054928Y-95431764D01*
X138054928Y-95431764D01*
G37*
G36*
X139324928Y-95431764D02*
G01*
X139346009Y-95438160D01*
X139365445Y-95448548D01*
X139382476Y-95462524D01*
X139396452Y-95479555D01*
X139406840Y-95498991D01*
X139413236Y-95520072D01*
X139416000Y-95548140D01*
X139416000Y-97361860D01*
X139413236Y-97389928D01*
X139406840Y-97411009D01*
X139396452Y-97430445D01*
X139382476Y-97447476D01*
X139365445Y-97461452D01*
X139346009Y-97471840D01*
X139324928Y-97478236D01*
X139296860Y-97481000D01*
X138833140Y-97481000D01*
X138805072Y-97478236D01*
X138783991Y-97471840D01*
X138764555Y-97461452D01*
X138747524Y-97447476D01*
X138733548Y-97430445D01*
X138723160Y-97411009D01*
X138716764Y-97389928D01*
X138714000Y-97361860D01*
X138714000Y-95548140D01*
X138716764Y-95520072D01*
X138723160Y-95498991D01*
X138733548Y-95479555D01*
X138747524Y-95462524D01*
X138764555Y-95448548D01*
X138783991Y-95438160D01*
X138805072Y-95431764D01*
X138833140Y-95429000D01*
X139296860Y-95429000D01*
X139324928Y-95431764D01*
X139324928Y-95431764D01*
G37*
G36*
X145546552Y-94308331D02*
G01*
X145628627Y-94342328D01*
X145628629Y-94342329D01*
X145647921Y-94355220D01*
X145702495Y-94391685D01*
X145765315Y-94454505D01*
X145814672Y-94528373D01*
X145848669Y-94610448D01*
X145866000Y-94697579D01*
X145866000Y-94786421D01*
X145848669Y-94873552D01*
X145819018Y-94945134D01*
X145814671Y-94955629D01*
X145765314Y-95029496D01*
X145702496Y-95092314D01*
X145628629Y-95141671D01*
X145628628Y-95141672D01*
X145628627Y-95141672D01*
X145546552Y-95175669D01*
X145517719Y-95181404D01*
X145494270Y-95188517D01*
X145472660Y-95200068D01*
X145453718Y-95215613D01*
X145438172Y-95234555D01*
X145426621Y-95256166D01*
X145419508Y-95279615D01*
X145417106Y-95304001D01*
X145419508Y-95328387D01*
X145426621Y-95351836D01*
X145438172Y-95373446D01*
X145453717Y-95392388D01*
X145472659Y-95407934D01*
X145494270Y-95419485D01*
X145517719Y-95426598D01*
X145542105Y-95429000D01*
X145646860Y-95429000D01*
X145674928Y-95431764D01*
X145696009Y-95438160D01*
X145715445Y-95448548D01*
X145732476Y-95462524D01*
X145746452Y-95479555D01*
X145756840Y-95498991D01*
X145763236Y-95520072D01*
X145766000Y-95548140D01*
X145766000Y-97361860D01*
X145763236Y-97389928D01*
X145756840Y-97411009D01*
X145746452Y-97430445D01*
X145732476Y-97447476D01*
X145715445Y-97461452D01*
X145696009Y-97471840D01*
X145674928Y-97478236D01*
X145646860Y-97481000D01*
X145183140Y-97481000D01*
X145155072Y-97478236D01*
X145133991Y-97471840D01*
X145114555Y-97461452D01*
X145097524Y-97447476D01*
X145083548Y-97430445D01*
X145073160Y-97411009D01*
X145066764Y-97389928D01*
X145064000Y-97361860D01*
X145064000Y-95548140D01*
X145066764Y-95520072D01*
X145073160Y-95498991D01*
X145083548Y-95479555D01*
X145097524Y-95462524D01*
X145114555Y-95448548D01*
X145133991Y-95438160D01*
X145155072Y-95431764D01*
X145183140Y-95429000D01*
X145287895Y-95429000D01*
X145312281Y-95426598D01*
X145335730Y-95419485D01*
X145357341Y-95407934D01*
X145376283Y-95392389D01*
X145391828Y-95373447D01*
X145403379Y-95351836D01*
X145410492Y-95328387D01*
X145412894Y-95304001D01*
X145410492Y-95279615D01*
X145403379Y-95256166D01*
X145391828Y-95234555D01*
X145376283Y-95215613D01*
X145357341Y-95200068D01*
X145335730Y-95188517D01*
X145312281Y-95181404D01*
X145283448Y-95175669D01*
X145201373Y-95141672D01*
X145201372Y-95141672D01*
X145201371Y-95141671D01*
X145127504Y-95092314D01*
X145064686Y-95029496D01*
X145015329Y-94955629D01*
X145010982Y-94945134D01*
X144981331Y-94873552D01*
X144964000Y-94786421D01*
X144964000Y-94697579D01*
X144981331Y-94610448D01*
X145015328Y-94528373D01*
X145064685Y-94454505D01*
X145127505Y-94391685D01*
X145182079Y-94355220D01*
X145201371Y-94342329D01*
X145201373Y-94342328D01*
X145283448Y-94308331D01*
X145370579Y-94291000D01*
X145459421Y-94291000D01*
X145546552Y-94308331D01*
X145546552Y-94308331D01*
G37*
G36*
X143134928Y-95431764D02*
G01*
X143156009Y-95438160D01*
X143175445Y-95448548D01*
X143192476Y-95462524D01*
X143206452Y-95479555D01*
X143216840Y-95498991D01*
X143223236Y-95520072D01*
X143226000Y-95548140D01*
X143226000Y-97361860D01*
X143223236Y-97389928D01*
X143216840Y-97411009D01*
X143206452Y-97430445D01*
X143192476Y-97447476D01*
X143175445Y-97461452D01*
X143156009Y-97471840D01*
X143134928Y-97478236D01*
X143106860Y-97481000D01*
X142643140Y-97481000D01*
X142615072Y-97478236D01*
X142593991Y-97471840D01*
X142574555Y-97461452D01*
X142557524Y-97447476D01*
X142543548Y-97430445D01*
X142533160Y-97411009D01*
X142526764Y-97389928D01*
X142524000Y-97361860D01*
X142524000Y-95548140D01*
X142526764Y-95520072D01*
X142533160Y-95498991D01*
X142543548Y-95479555D01*
X142557524Y-95462524D01*
X142574555Y-95448548D01*
X142593991Y-95438160D01*
X142615072Y-95431764D01*
X142643140Y-95429000D01*
X143106860Y-95429000D01*
X143134928Y-95431764D01*
X143134928Y-95431764D01*
G37*
G36*
X141864928Y-95431764D02*
G01*
X141886009Y-95438160D01*
X141905445Y-95448548D01*
X141922476Y-95462524D01*
X141936452Y-95479555D01*
X141946840Y-95498991D01*
X141953236Y-95520072D01*
X141956000Y-95548140D01*
X141956000Y-97361860D01*
X141953236Y-97389928D01*
X141946840Y-97411009D01*
X141936452Y-97430445D01*
X141922476Y-97447476D01*
X141905445Y-97461452D01*
X141886009Y-97471840D01*
X141864928Y-97478236D01*
X141836860Y-97481000D01*
X141373140Y-97481000D01*
X141345072Y-97478236D01*
X141323991Y-97471840D01*
X141304555Y-97461452D01*
X141287524Y-97447476D01*
X141273548Y-97430445D01*
X141263160Y-97411009D01*
X141256764Y-97389928D01*
X141254000Y-97361860D01*
X141254000Y-95548140D01*
X141256764Y-95520072D01*
X141263160Y-95498991D01*
X141273548Y-95479555D01*
X141287524Y-95462524D01*
X141304555Y-95448548D01*
X141323991Y-95438160D01*
X141345072Y-95431764D01*
X141373140Y-95429000D01*
X141836860Y-95429000D01*
X141864928Y-95431764D01*
X141864928Y-95431764D01*
G37*
G36*
X140594928Y-95431764D02*
G01*
X140616009Y-95438160D01*
X140635445Y-95448548D01*
X140652476Y-95462524D01*
X140666452Y-95479555D01*
X140676840Y-95498991D01*
X140683236Y-95520072D01*
X140686000Y-95548140D01*
X140686000Y-97361860D01*
X140683236Y-97389928D01*
X140676840Y-97411009D01*
X140666452Y-97430445D01*
X140652476Y-97447476D01*
X140635445Y-97461452D01*
X140616009Y-97471840D01*
X140594928Y-97478236D01*
X140566860Y-97481000D01*
X140103140Y-97481000D01*
X140075072Y-97478236D01*
X140053991Y-97471840D01*
X140034555Y-97461452D01*
X140017524Y-97447476D01*
X140003548Y-97430445D01*
X139993160Y-97411009D01*
X139986764Y-97389928D01*
X139984000Y-97361860D01*
X139984000Y-95548140D01*
X139986764Y-95520072D01*
X139993160Y-95498991D01*
X140003548Y-95479555D01*
X140017524Y-95462524D01*
X140034555Y-95448548D01*
X140053991Y-95438160D01*
X140075072Y-95431764D01*
X140103140Y-95429000D01*
X140566860Y-95429000D01*
X140594928Y-95431764D01*
X140594928Y-95431764D01*
G37*
G36*
X123935442Y-95625518D02*
G01*
X124001627Y-95632037D01*
X124171466Y-95683557D01*
X124327991Y-95767222D01*
X124351213Y-95786280D01*
X124465186Y-95879814D01*
X124519956Y-95946553D01*
X124577778Y-96017009D01*
X124661443Y-96173534D01*
X124712963Y-96343373D01*
X124730359Y-96520000D01*
X124712963Y-96696627D01*
X124661443Y-96866466D01*
X124577778Y-97022991D01*
X124562746Y-97041307D01*
X124465186Y-97160186D01*
X124363729Y-97243448D01*
X124327991Y-97272778D01*
X124171466Y-97356443D01*
X124001627Y-97407963D01*
X123939925Y-97414040D01*
X123869260Y-97421000D01*
X123780740Y-97421000D01*
X123710075Y-97414040D01*
X123648373Y-97407963D01*
X123478534Y-97356443D01*
X123322009Y-97272778D01*
X123286271Y-97243448D01*
X123184814Y-97160186D01*
X123087254Y-97041307D01*
X123072222Y-97022991D01*
X122988557Y-96866466D01*
X122937037Y-96696627D01*
X122919641Y-96520000D01*
X122937037Y-96343373D01*
X122988557Y-96173534D01*
X123072222Y-96017009D01*
X123130044Y-95946553D01*
X123184814Y-95879814D01*
X123298787Y-95786280D01*
X123322009Y-95767222D01*
X123478534Y-95683557D01*
X123648373Y-95632037D01*
X123714558Y-95625518D01*
X123780740Y-95619000D01*
X123869260Y-95619000D01*
X123935442Y-95625518D01*
X123935442Y-95625518D01*
G37*
G36*
X129097091Y-95998085D02*
G01*
X129131069Y-96008393D01*
X129162390Y-96025134D01*
X129189839Y-96047661D01*
X129212366Y-96075110D01*
X129229107Y-96106431D01*
X129239415Y-96140409D01*
X129243500Y-96181890D01*
X129243500Y-96858110D01*
X129239415Y-96899591D01*
X129229107Y-96933569D01*
X129212366Y-96964890D01*
X129189839Y-96992339D01*
X129162390Y-97014866D01*
X129131069Y-97031607D01*
X129097091Y-97041915D01*
X129055610Y-97046000D01*
X128454390Y-97046000D01*
X128412909Y-97041915D01*
X128378931Y-97031607D01*
X128347610Y-97014866D01*
X128320161Y-96992339D01*
X128297634Y-96964890D01*
X128280893Y-96933569D01*
X128270585Y-96899591D01*
X128266500Y-96858110D01*
X128266500Y-96181890D01*
X128270585Y-96140409D01*
X128280893Y-96106431D01*
X128297634Y-96075110D01*
X128320161Y-96047661D01*
X128347610Y-96025134D01*
X128378931Y-96008393D01*
X128412909Y-95998085D01*
X128454390Y-95994000D01*
X129055610Y-95994000D01*
X129097091Y-95998085D01*
X129097091Y-95998085D01*
G37*
G36*
X135320091Y-95998085D02*
G01*
X135354069Y-96008393D01*
X135385390Y-96025134D01*
X135412839Y-96047661D01*
X135435366Y-96075110D01*
X135452107Y-96106431D01*
X135462415Y-96140409D01*
X135466500Y-96181890D01*
X135466500Y-96858110D01*
X135462415Y-96899591D01*
X135452107Y-96933569D01*
X135435366Y-96964890D01*
X135412839Y-96992339D01*
X135385390Y-97014866D01*
X135354069Y-97031607D01*
X135320091Y-97041915D01*
X135278610Y-97046000D01*
X134677390Y-97046000D01*
X134635909Y-97041915D01*
X134601931Y-97031607D01*
X134570610Y-97014866D01*
X134543161Y-96992339D01*
X134520634Y-96964890D01*
X134503893Y-96933569D01*
X134493585Y-96899591D01*
X134489500Y-96858110D01*
X134489500Y-96181890D01*
X134493585Y-96140409D01*
X134503893Y-96106431D01*
X134520634Y-96075110D01*
X134543161Y-96047661D01*
X134570610Y-96025134D01*
X134601931Y-96008393D01*
X134635909Y-95998085D01*
X134677390Y-95994000D01*
X135278610Y-95994000D01*
X135320091Y-95998085D01*
X135320091Y-95998085D01*
G37*
G36*
X132193591Y-95998085D02*
G01*
X132227569Y-96008393D01*
X132258890Y-96025134D01*
X132286339Y-96047661D01*
X132308866Y-96075110D01*
X132325607Y-96106431D01*
X132335915Y-96140409D01*
X132340000Y-96181890D01*
X132340000Y-96858110D01*
X132335915Y-96899591D01*
X132325607Y-96933569D01*
X132308866Y-96964890D01*
X132286339Y-96992339D01*
X132258890Y-97014866D01*
X132227569Y-97031607D01*
X132193591Y-97041915D01*
X132152110Y-97046000D01*
X131550890Y-97046000D01*
X131509409Y-97041915D01*
X131475431Y-97031607D01*
X131444110Y-97014866D01*
X131416661Y-96992339D01*
X131394134Y-96964890D01*
X131377393Y-96933569D01*
X131367085Y-96899591D01*
X131363000Y-96858110D01*
X131363000Y-96181890D01*
X131367085Y-96140409D01*
X131377393Y-96106431D01*
X131394134Y-96075110D01*
X131416661Y-96047661D01*
X131444110Y-96025134D01*
X131475431Y-96008393D01*
X131509409Y-95998085D01*
X131550890Y-95994000D01*
X132152110Y-95994000D01*
X132193591Y-95998085D01*
X132193591Y-95998085D01*
G37*
G36*
X130618591Y-95998085D02*
G01*
X130652569Y-96008393D01*
X130683890Y-96025134D01*
X130711339Y-96047661D01*
X130733866Y-96075110D01*
X130750607Y-96106431D01*
X130760915Y-96140409D01*
X130765000Y-96181890D01*
X130765000Y-96858110D01*
X130760915Y-96899591D01*
X130750607Y-96933569D01*
X130733866Y-96964890D01*
X130711339Y-96992339D01*
X130683890Y-97014866D01*
X130652569Y-97031607D01*
X130618591Y-97041915D01*
X130577110Y-97046000D01*
X129975890Y-97046000D01*
X129934409Y-97041915D01*
X129900431Y-97031607D01*
X129869110Y-97014866D01*
X129841661Y-96992339D01*
X129819134Y-96964890D01*
X129802393Y-96933569D01*
X129792085Y-96899591D01*
X129788000Y-96858110D01*
X129788000Y-96181890D01*
X129792085Y-96140409D01*
X129802393Y-96106431D01*
X129819134Y-96075110D01*
X129841661Y-96047661D01*
X129869110Y-96025134D01*
X129900431Y-96008393D01*
X129934409Y-95998085D01*
X129975890Y-95994000D01*
X130577110Y-95994000D01*
X130618591Y-95998085D01*
X130618591Y-95998085D01*
G37*
G36*
X127522091Y-95998085D02*
G01*
X127556069Y-96008393D01*
X127587390Y-96025134D01*
X127614839Y-96047661D01*
X127637366Y-96075110D01*
X127654107Y-96106431D01*
X127664415Y-96140409D01*
X127668500Y-96181890D01*
X127668500Y-96858110D01*
X127664415Y-96899591D01*
X127654107Y-96933569D01*
X127637366Y-96964890D01*
X127614839Y-96992339D01*
X127587390Y-97014866D01*
X127556069Y-97031607D01*
X127522091Y-97041915D01*
X127480610Y-97046000D01*
X126879390Y-97046000D01*
X126837909Y-97041915D01*
X126803931Y-97031607D01*
X126772610Y-97014866D01*
X126745161Y-96992339D01*
X126722634Y-96964890D01*
X126705893Y-96933569D01*
X126695585Y-96899591D01*
X126691500Y-96858110D01*
X126691500Y-96181890D01*
X126695585Y-96140409D01*
X126705893Y-96106431D01*
X126722634Y-96075110D01*
X126745161Y-96047661D01*
X126772610Y-96025134D01*
X126803931Y-96008393D01*
X126837909Y-95998085D01*
X126879390Y-95994000D01*
X127480610Y-95994000D01*
X127522091Y-95998085D01*
X127522091Y-95998085D01*
G37*
G36*
X133745091Y-95998085D02*
G01*
X133779069Y-96008393D01*
X133810390Y-96025134D01*
X133837839Y-96047661D01*
X133860366Y-96075110D01*
X133877107Y-96106431D01*
X133887415Y-96140409D01*
X133891500Y-96181890D01*
X133891500Y-96858110D01*
X133887415Y-96899591D01*
X133877107Y-96933569D01*
X133860366Y-96964890D01*
X133837839Y-96992339D01*
X133810390Y-97014866D01*
X133779069Y-97031607D01*
X133745091Y-97041915D01*
X133703610Y-97046000D01*
X133102390Y-97046000D01*
X133060909Y-97041915D01*
X133026931Y-97031607D01*
X132995610Y-97014866D01*
X132968161Y-96992339D01*
X132945634Y-96964890D01*
X132928893Y-96933569D01*
X132918585Y-96899591D01*
X132914500Y-96858110D01*
X132914500Y-96181890D01*
X132918585Y-96140409D01*
X132928893Y-96106431D01*
X132945634Y-96075110D01*
X132968161Y-96047661D01*
X132995610Y-96025134D01*
X133026931Y-96008393D01*
X133060909Y-95998085D01*
X133102390Y-95994000D01*
X133703610Y-95994000D01*
X133745091Y-95998085D01*
X133745091Y-95998085D01*
G37*
G36*
X148334591Y-94918085D02*
G01*
X148368569Y-94928393D01*
X148399890Y-94945134D01*
X148427339Y-94967661D01*
X148449866Y-94995110D01*
X148466607Y-95026431D01*
X148476915Y-95060409D01*
X148481000Y-95101890D01*
X148481000Y-95703110D01*
X148476915Y-95744591D01*
X148466607Y-95778569D01*
X148449866Y-95809890D01*
X148427339Y-95837339D01*
X148399890Y-95859866D01*
X148368569Y-95876607D01*
X148334591Y-95886915D01*
X148293110Y-95891000D01*
X148237481Y-95891000D01*
X148213095Y-95893402D01*
X148189646Y-95900515D01*
X148168035Y-95912066D01*
X148149093Y-95927611D01*
X148133548Y-95946553D01*
X148121997Y-95968164D01*
X148114884Y-95991613D01*
X148112482Y-96015999D01*
X148114884Y-96040385D01*
X148121997Y-96063834D01*
X148133548Y-96085445D01*
X148149093Y-96104387D01*
X148168035Y-96119932D01*
X148242494Y-96169684D01*
X148305315Y-96232505D01*
X148354672Y-96306373D01*
X148388669Y-96388448D01*
X148406000Y-96475579D01*
X148406000Y-96564421D01*
X148388669Y-96651552D01*
X148354672Y-96733627D01*
X148309154Y-96801750D01*
X148305314Y-96807496D01*
X148242496Y-96870314D01*
X148168629Y-96919671D01*
X148168628Y-96919672D01*
X148168627Y-96919672D01*
X148086552Y-96953669D01*
X147999421Y-96971000D01*
X147910579Y-96971000D01*
X147823448Y-96953669D01*
X147741373Y-96919672D01*
X147741372Y-96919672D01*
X147741371Y-96919671D01*
X147667504Y-96870314D01*
X147604686Y-96807496D01*
X147600847Y-96801750D01*
X147555328Y-96733627D01*
X147521331Y-96651552D01*
X147504000Y-96564421D01*
X147504000Y-96475579D01*
X147521331Y-96388448D01*
X147555328Y-96306373D01*
X147604685Y-96232505D01*
X147667506Y-96169684D01*
X147741965Y-96119932D01*
X147760907Y-96104386D01*
X147776452Y-96085444D01*
X147788003Y-96063834D01*
X147795116Y-96040385D01*
X147797518Y-96015999D01*
X147795116Y-95991613D01*
X147788003Y-95968164D01*
X147776452Y-95946553D01*
X147760906Y-95927611D01*
X147741964Y-95912066D01*
X147720354Y-95900515D01*
X147696905Y-95893402D01*
X147672519Y-95891000D01*
X147616890Y-95891000D01*
X147575409Y-95886915D01*
X147541431Y-95876607D01*
X147510110Y-95859866D01*
X147482661Y-95837339D01*
X147460134Y-95809890D01*
X147443393Y-95778569D01*
X147433085Y-95744591D01*
X147429000Y-95703110D01*
X147429000Y-95101890D01*
X147433085Y-95060409D01*
X147443393Y-95026431D01*
X147460134Y-94995110D01*
X147482661Y-94967661D01*
X147510110Y-94945134D01*
X147541431Y-94928393D01*
X147575409Y-94918085D01*
X147616890Y-94914000D01*
X148293110Y-94914000D01*
X148334591Y-94918085D01*
X148334591Y-94918085D01*
G37*
G36*
X152906591Y-94918085D02*
G01*
X152940569Y-94928393D01*
X152971890Y-94945134D01*
X152999339Y-94967661D01*
X153021866Y-94995110D01*
X153038607Y-95026431D01*
X153048915Y-95060409D01*
X153053000Y-95101890D01*
X153053000Y-95703110D01*
X153048915Y-95744591D01*
X153038607Y-95778569D01*
X153021866Y-95809890D01*
X152999339Y-95837339D01*
X152971890Y-95859866D01*
X152940569Y-95876607D01*
X152906591Y-95886915D01*
X152865110Y-95891000D01*
X152809481Y-95891000D01*
X152785095Y-95893402D01*
X152761646Y-95900515D01*
X152740035Y-95912066D01*
X152721093Y-95927611D01*
X152705548Y-95946553D01*
X152693997Y-95968164D01*
X152686884Y-95991613D01*
X152684482Y-96015999D01*
X152686884Y-96040385D01*
X152693997Y-96063834D01*
X152705548Y-96085445D01*
X152721093Y-96104387D01*
X152740035Y-96119932D01*
X152814494Y-96169684D01*
X152877315Y-96232505D01*
X152926672Y-96306373D01*
X152960669Y-96388448D01*
X152978000Y-96475579D01*
X152978000Y-96564421D01*
X152960669Y-96651552D01*
X152926672Y-96733627D01*
X152881154Y-96801750D01*
X152877314Y-96807496D01*
X152814496Y-96870314D01*
X152740629Y-96919671D01*
X152740628Y-96919672D01*
X152740627Y-96919672D01*
X152658552Y-96953669D01*
X152571421Y-96971000D01*
X152482579Y-96971000D01*
X152395448Y-96953669D01*
X152313373Y-96919672D01*
X152313372Y-96919672D01*
X152313371Y-96919671D01*
X152239504Y-96870314D01*
X152176686Y-96807496D01*
X152172847Y-96801750D01*
X152127328Y-96733627D01*
X152093331Y-96651552D01*
X152076000Y-96564421D01*
X152076000Y-96475579D01*
X152093331Y-96388448D01*
X152127328Y-96306373D01*
X152176685Y-96232505D01*
X152239506Y-96169684D01*
X152313965Y-96119932D01*
X152332907Y-96104386D01*
X152348452Y-96085444D01*
X152360003Y-96063834D01*
X152367116Y-96040385D01*
X152369518Y-96015999D01*
X152367116Y-95991613D01*
X152360003Y-95968164D01*
X152348452Y-95946553D01*
X152332906Y-95927611D01*
X152313964Y-95912066D01*
X152292354Y-95900515D01*
X152268905Y-95893402D01*
X152244519Y-95891000D01*
X152188890Y-95891000D01*
X152147409Y-95886915D01*
X152113431Y-95876607D01*
X152082110Y-95859866D01*
X152054661Y-95837339D01*
X152032134Y-95809890D01*
X152015393Y-95778569D01*
X152005085Y-95744591D01*
X152001000Y-95703110D01*
X152001000Y-95101890D01*
X152005085Y-95060409D01*
X152015393Y-95026431D01*
X152032134Y-94995110D01*
X152054661Y-94967661D01*
X152082110Y-94945134D01*
X152113431Y-94928393D01*
X152147409Y-94918085D01*
X152188890Y-94914000D01*
X152865110Y-94914000D01*
X152906591Y-94918085D01*
X152906591Y-94918085D01*
G37*
G36*
X151382591Y-94918085D02*
G01*
X151416569Y-94928393D01*
X151447890Y-94945134D01*
X151475339Y-94967661D01*
X151497866Y-94995110D01*
X151514607Y-95026431D01*
X151524915Y-95060409D01*
X151529000Y-95101890D01*
X151529000Y-95703110D01*
X151524915Y-95744591D01*
X151514607Y-95778569D01*
X151497866Y-95809890D01*
X151475339Y-95837339D01*
X151447890Y-95859866D01*
X151416569Y-95876607D01*
X151382591Y-95886915D01*
X151341110Y-95891000D01*
X150664890Y-95891000D01*
X150623409Y-95886915D01*
X150589431Y-95876607D01*
X150558110Y-95859866D01*
X150530661Y-95837339D01*
X150508134Y-95809890D01*
X150491393Y-95778569D01*
X150481085Y-95744591D01*
X150477000Y-95703110D01*
X150477000Y-95101890D01*
X150481085Y-95060409D01*
X150491393Y-95026431D01*
X150508134Y-94995110D01*
X150530661Y-94967661D01*
X150558110Y-94945134D01*
X150589431Y-94928393D01*
X150623409Y-94918085D01*
X150664890Y-94914000D01*
X151341110Y-94914000D01*
X151382591Y-94918085D01*
X151382591Y-94918085D01*
G37*
G36*
X149858591Y-94918085D02*
G01*
X149892569Y-94928393D01*
X149923890Y-94945134D01*
X149951339Y-94967661D01*
X149973866Y-94995110D01*
X149990607Y-95026431D01*
X150000915Y-95060409D01*
X150005000Y-95101890D01*
X150005000Y-95703110D01*
X150000915Y-95744591D01*
X149990607Y-95778569D01*
X149973866Y-95809890D01*
X149951339Y-95837339D01*
X149923890Y-95859866D01*
X149892569Y-95876607D01*
X149858591Y-95886915D01*
X149817110Y-95891000D01*
X149140890Y-95891000D01*
X149099409Y-95886915D01*
X149065431Y-95876607D01*
X149034110Y-95859866D01*
X149006661Y-95837339D01*
X148984134Y-95809890D01*
X148967393Y-95778569D01*
X148957085Y-95744591D01*
X148953000Y-95703110D01*
X148953000Y-95101890D01*
X148957085Y-95060409D01*
X148967393Y-95026431D01*
X148984134Y-94995110D01*
X149006661Y-94967661D01*
X149034110Y-94945134D01*
X149065431Y-94928393D01*
X149099409Y-94918085D01*
X149140890Y-94914000D01*
X149817110Y-94914000D01*
X149858591Y-94918085D01*
X149858591Y-94918085D01*
G37*
G36*
X128909552Y-94816331D02*
G01*
X128991627Y-94850328D01*
X128991629Y-94850329D01*
X129065496Y-94899686D01*
X129128314Y-94962504D01*
X129174589Y-95031758D01*
X129177672Y-95036373D01*
X129211669Y-95118448D01*
X129229000Y-95205579D01*
X129229000Y-95294421D01*
X129211669Y-95381552D01*
X129177672Y-95463627D01*
X129128315Y-95537495D01*
X129065495Y-95600315D01*
X129042021Y-95616000D01*
X128991629Y-95649671D01*
X128991628Y-95649672D01*
X128991627Y-95649672D01*
X128909552Y-95683669D01*
X128822421Y-95701000D01*
X128733579Y-95701000D01*
X128646448Y-95683669D01*
X128564373Y-95649672D01*
X128564372Y-95649672D01*
X128564371Y-95649671D01*
X128513979Y-95616000D01*
X128490505Y-95600315D01*
X128427685Y-95537495D01*
X128378328Y-95463627D01*
X128344331Y-95381552D01*
X128327000Y-95294421D01*
X128327000Y-95205579D01*
X128344331Y-95118448D01*
X128378328Y-95036373D01*
X128381412Y-95031758D01*
X128427686Y-94962504D01*
X128490504Y-94899686D01*
X128564371Y-94850329D01*
X128564373Y-94850328D01*
X128646448Y-94816331D01*
X128733579Y-94799000D01*
X128822421Y-94799000D01*
X128909552Y-94816331D01*
X128909552Y-94816331D01*
G37*
G36*
X123935443Y-93085519D02*
G01*
X124001627Y-93092037D01*
X124171466Y-93143557D01*
X124327991Y-93227222D01*
X124351213Y-93246280D01*
X124465186Y-93339814D01*
X124531082Y-93420110D01*
X124577778Y-93477009D01*
X124661443Y-93633534D01*
X124712963Y-93803373D01*
X124730359Y-93980000D01*
X124712963Y-94156627D01*
X124661443Y-94326466D01*
X124577778Y-94482991D01*
X124562746Y-94501307D01*
X124465186Y-94620186D01*
X124370881Y-94697579D01*
X124327991Y-94732778D01*
X124171466Y-94816443D01*
X124001627Y-94867963D01*
X123944880Y-94873552D01*
X123869260Y-94881000D01*
X123780740Y-94881000D01*
X123705120Y-94873552D01*
X123648373Y-94867963D01*
X123478534Y-94816443D01*
X123322009Y-94732778D01*
X123279119Y-94697579D01*
X123184814Y-94620186D01*
X123087254Y-94501307D01*
X123072222Y-94482991D01*
X122988557Y-94326466D01*
X122937037Y-94156627D01*
X122919641Y-93980000D01*
X122937037Y-93803373D01*
X122988557Y-93633534D01*
X123072222Y-93477009D01*
X123118918Y-93420110D01*
X123184814Y-93339814D01*
X123298787Y-93246280D01*
X123322009Y-93227222D01*
X123478534Y-93143557D01*
X123648373Y-93092037D01*
X123714557Y-93085519D01*
X123780740Y-93079000D01*
X123869260Y-93079000D01*
X123935443Y-93085519D01*
X123935443Y-93085519D01*
G37*
G36*
X130618591Y-93458085D02*
G01*
X130652569Y-93468393D01*
X130683890Y-93485134D01*
X130711339Y-93507661D01*
X130733866Y-93535110D01*
X130750607Y-93566431D01*
X130760915Y-93600409D01*
X130765000Y-93641890D01*
X130765000Y-94318110D01*
X130760915Y-94359591D01*
X130750607Y-94393569D01*
X130733866Y-94424890D01*
X130711339Y-94452339D01*
X130683890Y-94474866D01*
X130652569Y-94491607D01*
X130618591Y-94501915D01*
X130577110Y-94506000D01*
X129975890Y-94506000D01*
X129934409Y-94501915D01*
X129900431Y-94491607D01*
X129869110Y-94474866D01*
X129841661Y-94452339D01*
X129819134Y-94424890D01*
X129802393Y-94393569D01*
X129792085Y-94359591D01*
X129788000Y-94318110D01*
X129788000Y-93641890D01*
X129792085Y-93600409D01*
X129802393Y-93566431D01*
X129819134Y-93535110D01*
X129841661Y-93507661D01*
X129869110Y-93485134D01*
X129900431Y-93468393D01*
X129934409Y-93458085D01*
X129975890Y-93454000D01*
X130577110Y-93454000D01*
X130618591Y-93458085D01*
X130618591Y-93458085D01*
G37*
G36*
X127492091Y-93458085D02*
G01*
X127526069Y-93468393D01*
X127557390Y-93485134D01*
X127584839Y-93507661D01*
X127607366Y-93535110D01*
X127624107Y-93566431D01*
X127634415Y-93600409D01*
X127638500Y-93641890D01*
X127638500Y-94318110D01*
X127634415Y-94359591D01*
X127624107Y-94393569D01*
X127607366Y-94424890D01*
X127584839Y-94452339D01*
X127557390Y-94474866D01*
X127526069Y-94491607D01*
X127492091Y-94501915D01*
X127450610Y-94506000D01*
X126849390Y-94506000D01*
X126807909Y-94501915D01*
X126773931Y-94491607D01*
X126742610Y-94474866D01*
X126715161Y-94452339D01*
X126692634Y-94424890D01*
X126675893Y-94393569D01*
X126665585Y-94359591D01*
X126661500Y-94318110D01*
X126661500Y-93641890D01*
X126665585Y-93600409D01*
X126675893Y-93566431D01*
X126692634Y-93535110D01*
X126715161Y-93507661D01*
X126742610Y-93485134D01*
X126773931Y-93468393D01*
X126807909Y-93458085D01*
X126849390Y-93454000D01*
X127450610Y-93454000D01*
X127492091Y-93458085D01*
X127492091Y-93458085D01*
G37*
G36*
X129067091Y-93458085D02*
G01*
X129101069Y-93468393D01*
X129132390Y-93485134D01*
X129159839Y-93507661D01*
X129182366Y-93535110D01*
X129199107Y-93566431D01*
X129209415Y-93600409D01*
X129213500Y-93641890D01*
X129213500Y-94318110D01*
X129209415Y-94359591D01*
X129199107Y-94393569D01*
X129182366Y-94424890D01*
X129159839Y-94452339D01*
X129132390Y-94474866D01*
X129101069Y-94491607D01*
X129067091Y-94501915D01*
X129025610Y-94506000D01*
X128424390Y-94506000D01*
X128382909Y-94501915D01*
X128348931Y-94491607D01*
X128317610Y-94474866D01*
X128290161Y-94452339D01*
X128267634Y-94424890D01*
X128250893Y-94393569D01*
X128240585Y-94359591D01*
X128236500Y-94318110D01*
X128236500Y-93641890D01*
X128240585Y-93600409D01*
X128250893Y-93566431D01*
X128267634Y-93535110D01*
X128290161Y-93507661D01*
X128317610Y-93485134D01*
X128348931Y-93468393D01*
X128382909Y-93458085D01*
X128424390Y-93454000D01*
X129025610Y-93454000D01*
X129067091Y-93458085D01*
X129067091Y-93458085D01*
G37*
G36*
X132193591Y-93458085D02*
G01*
X132227569Y-93468393D01*
X132258890Y-93485134D01*
X132286339Y-93507661D01*
X132308866Y-93535110D01*
X132325607Y-93566431D01*
X132335915Y-93600409D01*
X132340000Y-93641890D01*
X132340000Y-94318110D01*
X132335915Y-94359591D01*
X132325607Y-94393569D01*
X132308866Y-94424890D01*
X132286339Y-94452339D01*
X132258890Y-94474866D01*
X132227569Y-94491607D01*
X132193591Y-94501915D01*
X132152110Y-94506000D01*
X131550890Y-94506000D01*
X131509409Y-94501915D01*
X131475431Y-94491607D01*
X131444110Y-94474866D01*
X131416661Y-94452339D01*
X131394134Y-94424890D01*
X131377393Y-94393569D01*
X131367085Y-94359591D01*
X131363000Y-94318110D01*
X131363000Y-93641890D01*
X131367085Y-93600409D01*
X131377393Y-93566431D01*
X131394134Y-93535110D01*
X131416661Y-93507661D01*
X131444110Y-93485134D01*
X131475431Y-93468393D01*
X131509409Y-93458085D01*
X131550890Y-93454000D01*
X132152110Y-93454000D01*
X132193591Y-93458085D01*
X132193591Y-93458085D01*
G37*
G36*
X133715091Y-93458085D02*
G01*
X133749069Y-93468393D01*
X133780390Y-93485134D01*
X133807839Y-93507661D01*
X133830366Y-93535110D01*
X133847107Y-93566431D01*
X133857415Y-93600409D01*
X133861500Y-93641890D01*
X133861500Y-94318110D01*
X133857415Y-94359591D01*
X133847107Y-94393569D01*
X133830366Y-94424890D01*
X133807839Y-94452339D01*
X133780390Y-94474866D01*
X133749069Y-94491607D01*
X133715091Y-94501915D01*
X133673610Y-94506000D01*
X133072390Y-94506000D01*
X133030909Y-94501915D01*
X132996931Y-94491607D01*
X132965610Y-94474866D01*
X132938161Y-94452339D01*
X132915634Y-94424890D01*
X132898893Y-94393569D01*
X132888585Y-94359591D01*
X132884500Y-94318110D01*
X132884500Y-93641890D01*
X132888585Y-93600409D01*
X132898893Y-93566431D01*
X132915634Y-93535110D01*
X132938161Y-93507661D01*
X132965610Y-93485134D01*
X132996931Y-93468393D01*
X133030909Y-93458085D01*
X133072390Y-93454000D01*
X133673610Y-93454000D01*
X133715091Y-93458085D01*
X133715091Y-93458085D01*
G37*
G36*
X135290091Y-93458085D02*
G01*
X135324069Y-93468393D01*
X135355390Y-93485134D01*
X135382839Y-93507661D01*
X135405366Y-93535110D01*
X135422107Y-93566431D01*
X135432415Y-93600409D01*
X135436500Y-93641890D01*
X135436500Y-94318110D01*
X135432415Y-94359591D01*
X135422107Y-94393569D01*
X135405366Y-94424890D01*
X135382839Y-94452339D01*
X135355390Y-94474866D01*
X135324069Y-94491607D01*
X135290091Y-94501915D01*
X135248610Y-94506000D01*
X134647390Y-94506000D01*
X134605909Y-94501915D01*
X134571931Y-94491607D01*
X134540610Y-94474866D01*
X134513161Y-94452339D01*
X134490634Y-94424890D01*
X134473893Y-94393569D01*
X134463585Y-94359591D01*
X134459500Y-94318110D01*
X134459500Y-93641890D01*
X134463585Y-93600409D01*
X134473893Y-93566431D01*
X134490634Y-93535110D01*
X134513161Y-93507661D01*
X134540610Y-93485134D01*
X134571931Y-93468393D01*
X134605909Y-93458085D01*
X134647390Y-93454000D01*
X135248610Y-93454000D01*
X135290091Y-93458085D01*
X135290091Y-93458085D01*
G37*
G36*
X140974552Y-93546331D02*
G01*
X141056627Y-93580328D01*
X141056629Y-93580329D01*
X141086680Y-93600409D01*
X141130495Y-93629685D01*
X141193315Y-93692505D01*
X141242672Y-93766373D01*
X141276669Y-93848448D01*
X141294000Y-93935579D01*
X141294000Y-94024421D01*
X141276669Y-94111552D01*
X141242672Y-94193627D01*
X141197154Y-94261750D01*
X141193314Y-94267496D01*
X141130496Y-94330314D01*
X141056629Y-94379671D01*
X141056628Y-94379672D01*
X141056627Y-94379672D01*
X140974552Y-94413669D01*
X140887421Y-94431000D01*
X140798579Y-94431000D01*
X140711448Y-94413669D01*
X140629373Y-94379672D01*
X140629372Y-94379672D01*
X140629371Y-94379671D01*
X140555504Y-94330314D01*
X140492686Y-94267496D01*
X140488847Y-94261750D01*
X140443328Y-94193627D01*
X140409331Y-94111552D01*
X140392000Y-94024421D01*
X140392000Y-93935579D01*
X140409331Y-93848448D01*
X140443328Y-93766373D01*
X140492685Y-93692505D01*
X140555505Y-93629685D01*
X140599320Y-93600409D01*
X140629371Y-93580329D01*
X140629373Y-93580328D01*
X140711448Y-93546331D01*
X140798579Y-93529000D01*
X140887421Y-93529000D01*
X140974552Y-93546331D01*
X140974552Y-93546331D01*
G37*
G36*
X137418552Y-93546331D02*
G01*
X137500627Y-93580328D01*
X137500629Y-93580329D01*
X137530680Y-93600409D01*
X137574495Y-93629685D01*
X137637315Y-93692505D01*
X137686672Y-93766373D01*
X137720669Y-93848448D01*
X137738000Y-93935579D01*
X137738000Y-94024421D01*
X137720669Y-94111552D01*
X137686672Y-94193627D01*
X137641154Y-94261750D01*
X137637314Y-94267496D01*
X137574496Y-94330314D01*
X137500629Y-94379671D01*
X137500628Y-94379672D01*
X137500627Y-94379672D01*
X137418552Y-94413669D01*
X137331421Y-94431000D01*
X137242579Y-94431000D01*
X137155448Y-94413669D01*
X137073373Y-94379672D01*
X137073372Y-94379672D01*
X137073371Y-94379671D01*
X136999504Y-94330314D01*
X136936686Y-94267496D01*
X136932847Y-94261750D01*
X136887328Y-94193627D01*
X136853331Y-94111552D01*
X136836000Y-94024421D01*
X136836000Y-93935579D01*
X136853331Y-93848448D01*
X136887328Y-93766373D01*
X136936685Y-93692505D01*
X136999505Y-93629685D01*
X137043320Y-93600409D01*
X137073371Y-93580329D01*
X137073373Y-93580328D01*
X137155448Y-93546331D01*
X137242579Y-93529000D01*
X137331421Y-93529000D01*
X137418552Y-93546331D01*
X137418552Y-93546331D01*
G37*
G36*
X148334591Y-93343085D02*
G01*
X148368569Y-93353393D01*
X148399890Y-93370134D01*
X148427339Y-93392661D01*
X148449866Y-93420110D01*
X148466607Y-93451431D01*
X148476915Y-93485409D01*
X148481000Y-93526890D01*
X148481000Y-94128110D01*
X148476915Y-94169591D01*
X148466607Y-94203569D01*
X148449866Y-94234890D01*
X148427339Y-94262339D01*
X148399890Y-94284866D01*
X148368569Y-94301607D01*
X148334591Y-94311915D01*
X148293110Y-94316000D01*
X147616890Y-94316000D01*
X147575409Y-94311915D01*
X147541431Y-94301607D01*
X147510110Y-94284866D01*
X147482661Y-94262339D01*
X147460134Y-94234890D01*
X147443393Y-94203569D01*
X147433085Y-94169591D01*
X147429000Y-94128110D01*
X147429000Y-93526890D01*
X147433085Y-93485409D01*
X147443393Y-93451431D01*
X147460134Y-93420110D01*
X147482661Y-93392661D01*
X147510110Y-93370134D01*
X147541431Y-93353393D01*
X147575409Y-93343085D01*
X147616890Y-93339000D01*
X148293110Y-93339000D01*
X148334591Y-93343085D01*
X148334591Y-93343085D01*
G37*
G36*
X149858591Y-93343085D02*
G01*
X149892569Y-93353393D01*
X149923890Y-93370134D01*
X149951339Y-93392661D01*
X149973866Y-93420110D01*
X149990607Y-93451431D01*
X150000915Y-93485409D01*
X150005000Y-93526890D01*
X150005000Y-94128110D01*
X150000915Y-94169591D01*
X149990607Y-94203569D01*
X149973866Y-94234890D01*
X149951339Y-94262339D01*
X149923890Y-94284866D01*
X149892569Y-94301607D01*
X149858591Y-94311915D01*
X149817110Y-94316000D01*
X149140890Y-94316000D01*
X149099409Y-94311915D01*
X149065431Y-94301607D01*
X149034110Y-94284866D01*
X149006661Y-94262339D01*
X148984134Y-94234890D01*
X148967393Y-94203569D01*
X148957085Y-94169591D01*
X148953000Y-94128110D01*
X148953000Y-93526890D01*
X148957085Y-93485409D01*
X148967393Y-93451431D01*
X148984134Y-93420110D01*
X149006661Y-93392661D01*
X149034110Y-93370134D01*
X149065431Y-93353393D01*
X149099409Y-93343085D01*
X149140890Y-93339000D01*
X149817110Y-93339000D01*
X149858591Y-93343085D01*
X149858591Y-93343085D01*
G37*
G36*
X152906591Y-93343085D02*
G01*
X152940569Y-93353393D01*
X152971890Y-93370134D01*
X152999339Y-93392661D01*
X153021866Y-93420110D01*
X153038607Y-93451431D01*
X153048915Y-93485409D01*
X153053000Y-93526890D01*
X153053000Y-94128110D01*
X153048915Y-94169591D01*
X153038607Y-94203569D01*
X153021866Y-94234890D01*
X152999339Y-94262339D01*
X152971890Y-94284866D01*
X152940569Y-94301607D01*
X152906591Y-94311915D01*
X152865110Y-94316000D01*
X152188890Y-94316000D01*
X152147409Y-94311915D01*
X152113431Y-94301607D01*
X152082110Y-94284866D01*
X152054661Y-94262339D01*
X152032134Y-94234890D01*
X152015393Y-94203569D01*
X152005085Y-94169591D01*
X152001000Y-94128110D01*
X152001000Y-93526890D01*
X152005085Y-93485409D01*
X152015393Y-93451431D01*
X152032134Y-93420110D01*
X152054661Y-93392661D01*
X152082110Y-93370134D01*
X152113431Y-93353393D01*
X152147409Y-93343085D01*
X152188890Y-93339000D01*
X152865110Y-93339000D01*
X152906591Y-93343085D01*
X152906591Y-93343085D01*
G37*
G36*
X151382591Y-93343085D02*
G01*
X151416569Y-93353393D01*
X151447890Y-93370134D01*
X151475339Y-93392661D01*
X151497866Y-93420110D01*
X151514607Y-93451431D01*
X151524915Y-93485409D01*
X151529000Y-93526890D01*
X151529000Y-94128110D01*
X151524915Y-94169591D01*
X151514607Y-94203569D01*
X151497866Y-94234890D01*
X151475339Y-94262339D01*
X151447890Y-94284866D01*
X151416569Y-94301607D01*
X151382591Y-94311915D01*
X151341110Y-94316000D01*
X150664890Y-94316000D01*
X150623409Y-94311915D01*
X150589431Y-94301607D01*
X150558110Y-94284866D01*
X150530661Y-94262339D01*
X150508134Y-94234890D01*
X150491393Y-94203569D01*
X150481085Y-94169591D01*
X150477000Y-94128110D01*
X150477000Y-93526890D01*
X150481085Y-93485409D01*
X150491393Y-93451431D01*
X150508134Y-93420110D01*
X150530661Y-93392661D01*
X150558110Y-93370134D01*
X150589431Y-93353393D01*
X150623409Y-93343085D01*
X150664890Y-93339000D01*
X151341110Y-93339000D01*
X151382591Y-93343085D01*
X151382591Y-93343085D01*
G37*
G36*
X128909552Y-92276331D02*
G01*
X128991627Y-92310328D01*
X128991629Y-92310329D01*
X129027115Y-92334040D01*
X129065495Y-92359685D01*
X129128315Y-92422505D01*
X129177672Y-92496373D01*
X129211669Y-92578448D01*
X129229000Y-92665579D01*
X129229000Y-92754421D01*
X129211669Y-92841552D01*
X129177672Y-92923627D01*
X129177671Y-92923629D01*
X129128314Y-92997496D01*
X129065496Y-93060314D01*
X128991629Y-93109671D01*
X128991628Y-93109672D01*
X128991627Y-93109672D01*
X128909552Y-93143669D01*
X128822421Y-93161000D01*
X128733579Y-93161000D01*
X128646448Y-93143669D01*
X128564373Y-93109672D01*
X128564372Y-93109672D01*
X128564371Y-93109671D01*
X128490504Y-93060314D01*
X128427686Y-92997496D01*
X128378329Y-92923629D01*
X128378328Y-92923627D01*
X128344331Y-92841552D01*
X128327000Y-92754421D01*
X128327000Y-92665579D01*
X128344331Y-92578448D01*
X128378328Y-92496373D01*
X128427685Y-92422505D01*
X128490505Y-92359685D01*
X128528885Y-92334040D01*
X128564371Y-92310329D01*
X128564373Y-92310328D01*
X128646448Y-92276331D01*
X128733579Y-92259000D01*
X128822421Y-92259000D01*
X128909552Y-92276331D01*
X128909552Y-92276331D01*
G37*
G36*
X143134928Y-90481764D02*
G01*
X143156009Y-90488160D01*
X143175445Y-90498548D01*
X143192476Y-90512524D01*
X143206452Y-90529555D01*
X143216840Y-90548991D01*
X143223236Y-90570072D01*
X143226000Y-90598140D01*
X143226000Y-92411860D01*
X143223236Y-92439928D01*
X143216840Y-92461009D01*
X143206452Y-92480445D01*
X143192476Y-92497476D01*
X143175445Y-92511452D01*
X143156009Y-92521840D01*
X143134928Y-92528236D01*
X143106860Y-92531000D01*
X142643140Y-92531000D01*
X142615072Y-92528236D01*
X142593991Y-92521840D01*
X142574555Y-92511452D01*
X142557524Y-92497476D01*
X142543548Y-92480445D01*
X142533160Y-92461009D01*
X142526764Y-92439928D01*
X142524000Y-92411860D01*
X142524000Y-90598140D01*
X142526764Y-90570072D01*
X142533160Y-90548991D01*
X142543548Y-90529555D01*
X142557524Y-90512524D01*
X142574555Y-90498548D01*
X142593991Y-90488160D01*
X142615072Y-90481764D01*
X142643140Y-90479000D01*
X143106860Y-90479000D01*
X143134928Y-90481764D01*
X143134928Y-90481764D01*
G37*
G36*
X144404928Y-90481764D02*
G01*
X144426009Y-90488160D01*
X144445445Y-90498548D01*
X144462476Y-90512524D01*
X144476452Y-90529555D01*
X144486840Y-90548991D01*
X144493236Y-90570072D01*
X144496000Y-90598140D01*
X144496000Y-92411860D01*
X144493236Y-92439928D01*
X144486840Y-92461009D01*
X144476452Y-92480445D01*
X144462476Y-92497476D01*
X144445445Y-92511452D01*
X144426009Y-92521840D01*
X144404928Y-92528236D01*
X144376860Y-92531000D01*
X143913140Y-92531000D01*
X143885072Y-92528236D01*
X143863991Y-92521840D01*
X143844555Y-92511452D01*
X143827524Y-92497476D01*
X143813548Y-92480445D01*
X143803160Y-92461009D01*
X143796764Y-92439928D01*
X143794000Y-92411860D01*
X143794000Y-90598140D01*
X143796764Y-90570072D01*
X143803160Y-90548991D01*
X143813548Y-90529555D01*
X143827524Y-90512524D01*
X143844555Y-90498548D01*
X143863991Y-90488160D01*
X143885072Y-90481764D01*
X143913140Y-90479000D01*
X144376860Y-90479000D01*
X144404928Y-90481764D01*
X144404928Y-90481764D01*
G37*
G36*
X145674928Y-90481764D02*
G01*
X145696009Y-90488160D01*
X145715445Y-90498548D01*
X145732476Y-90512524D01*
X145746452Y-90529555D01*
X145756840Y-90548991D01*
X145763236Y-90570072D01*
X145766000Y-90598140D01*
X145766000Y-92411860D01*
X145763236Y-92439928D01*
X145756840Y-92461009D01*
X145746452Y-92480445D01*
X145732476Y-92497476D01*
X145715445Y-92511452D01*
X145696009Y-92521840D01*
X145674928Y-92528236D01*
X145646860Y-92531000D01*
X145183140Y-92531000D01*
X145155072Y-92528236D01*
X145133991Y-92521840D01*
X145114555Y-92511452D01*
X145097524Y-92497476D01*
X145083548Y-92480445D01*
X145073160Y-92461009D01*
X145066764Y-92439928D01*
X145064000Y-92411860D01*
X145064000Y-90598140D01*
X145066764Y-90570072D01*
X145073160Y-90548991D01*
X145083548Y-90529555D01*
X145097524Y-90512524D01*
X145114555Y-90498548D01*
X145133991Y-90488160D01*
X145155072Y-90481764D01*
X145183140Y-90479000D01*
X145646860Y-90479000D01*
X145674928Y-90481764D01*
X145674928Y-90481764D01*
G37*
G36*
X141864928Y-90481764D02*
G01*
X141886009Y-90488160D01*
X141905445Y-90498548D01*
X141922476Y-90512524D01*
X141936452Y-90529555D01*
X141946840Y-90548991D01*
X141953236Y-90570072D01*
X141956000Y-90598140D01*
X141956000Y-92411860D01*
X141953236Y-92439928D01*
X141946840Y-92461009D01*
X141936452Y-92480445D01*
X141922476Y-92497476D01*
X141905445Y-92511452D01*
X141886009Y-92521840D01*
X141864928Y-92528236D01*
X141836860Y-92531000D01*
X141373140Y-92531000D01*
X141345072Y-92528236D01*
X141323991Y-92521840D01*
X141304555Y-92511452D01*
X141287524Y-92497476D01*
X141273548Y-92480445D01*
X141263160Y-92461009D01*
X141256764Y-92439928D01*
X141254000Y-92411860D01*
X141254000Y-90598140D01*
X141256764Y-90570072D01*
X141263160Y-90548991D01*
X141273548Y-90529555D01*
X141287524Y-90512524D01*
X141304555Y-90498548D01*
X141323991Y-90488160D01*
X141345072Y-90481764D01*
X141373140Y-90479000D01*
X141836860Y-90479000D01*
X141864928Y-90481764D01*
X141864928Y-90481764D01*
G37*
G36*
X140594928Y-90481764D02*
G01*
X140616009Y-90488160D01*
X140635445Y-90498548D01*
X140652476Y-90512524D01*
X140666452Y-90529555D01*
X140676840Y-90548991D01*
X140683236Y-90570072D01*
X140686000Y-90598140D01*
X140686000Y-92411860D01*
X140683236Y-92439928D01*
X140676840Y-92461009D01*
X140666452Y-92480445D01*
X140652476Y-92497476D01*
X140635445Y-92511452D01*
X140616009Y-92521840D01*
X140594928Y-92528236D01*
X140566860Y-92531000D01*
X140103140Y-92531000D01*
X140075072Y-92528236D01*
X140053991Y-92521840D01*
X140034555Y-92511452D01*
X140017524Y-92497476D01*
X140003548Y-92480445D01*
X139993160Y-92461009D01*
X139986764Y-92439928D01*
X139984000Y-92411860D01*
X139984000Y-90598140D01*
X139986764Y-90570072D01*
X139993160Y-90548991D01*
X140003548Y-90529555D01*
X140017524Y-90512524D01*
X140034555Y-90498548D01*
X140053991Y-90488160D01*
X140075072Y-90481764D01*
X140103140Y-90479000D01*
X140566860Y-90479000D01*
X140594928Y-90481764D01*
X140594928Y-90481764D01*
G37*
G36*
X139324928Y-90481764D02*
G01*
X139346009Y-90488160D01*
X139365445Y-90498548D01*
X139382476Y-90512524D01*
X139396452Y-90529555D01*
X139406840Y-90548991D01*
X139413236Y-90570072D01*
X139416000Y-90598140D01*
X139416000Y-92411860D01*
X139413236Y-92439928D01*
X139406840Y-92461009D01*
X139396452Y-92480445D01*
X139382476Y-92497476D01*
X139365445Y-92511452D01*
X139346009Y-92521840D01*
X139324928Y-92528236D01*
X139296860Y-92531000D01*
X138833140Y-92531000D01*
X138805072Y-92528236D01*
X138783991Y-92521840D01*
X138764555Y-92511452D01*
X138747524Y-92497476D01*
X138733548Y-92480445D01*
X138723160Y-92461009D01*
X138716764Y-92439928D01*
X138714000Y-92411860D01*
X138714000Y-90598140D01*
X138716764Y-90570072D01*
X138723160Y-90548991D01*
X138733548Y-90529555D01*
X138747524Y-90512524D01*
X138764555Y-90498548D01*
X138783991Y-90488160D01*
X138805072Y-90481764D01*
X138833140Y-90479000D01*
X139296860Y-90479000D01*
X139324928Y-90481764D01*
X139324928Y-90481764D01*
G37*
G36*
X138054928Y-90481764D02*
G01*
X138076009Y-90488160D01*
X138095445Y-90498548D01*
X138112476Y-90512524D01*
X138126452Y-90529555D01*
X138136840Y-90548991D01*
X138143236Y-90570072D01*
X138146000Y-90598140D01*
X138146000Y-92411860D01*
X138143236Y-92439928D01*
X138136840Y-92461009D01*
X138126452Y-92480445D01*
X138112476Y-92497476D01*
X138095445Y-92511452D01*
X138076009Y-92521840D01*
X138054928Y-92528236D01*
X138026860Y-92531000D01*
X137563140Y-92531000D01*
X137535072Y-92528236D01*
X137513991Y-92521840D01*
X137494555Y-92511452D01*
X137477524Y-92497476D01*
X137463548Y-92480445D01*
X137453160Y-92461009D01*
X137446764Y-92439928D01*
X137444000Y-92411860D01*
X137444000Y-90598140D01*
X137446764Y-90570072D01*
X137453160Y-90548991D01*
X137463548Y-90529555D01*
X137477524Y-90512524D01*
X137494555Y-90498548D01*
X137513991Y-90488160D01*
X137535072Y-90481764D01*
X137563140Y-90479000D01*
X138026860Y-90479000D01*
X138054928Y-90481764D01*
X138054928Y-90481764D01*
G37*
G36*
X152906591Y-90473085D02*
G01*
X152940569Y-90483393D01*
X152971890Y-90500134D01*
X152999339Y-90522661D01*
X153021866Y-90550110D01*
X153038607Y-90581431D01*
X153048915Y-90615409D01*
X153053000Y-90656890D01*
X153053000Y-91258110D01*
X153048915Y-91299591D01*
X153038607Y-91333569D01*
X153021866Y-91364890D01*
X152999339Y-91392339D01*
X152971890Y-91414866D01*
X152940569Y-91431607D01*
X152906591Y-91441915D01*
X152865110Y-91446000D01*
X152809481Y-91446000D01*
X152785095Y-91448402D01*
X152761646Y-91455515D01*
X152740035Y-91467066D01*
X152721093Y-91482611D01*
X152705548Y-91501553D01*
X152693997Y-91523164D01*
X152686884Y-91546613D01*
X152684482Y-91570999D01*
X152686884Y-91595385D01*
X152693997Y-91618834D01*
X152705548Y-91640445D01*
X152721093Y-91659387D01*
X152740035Y-91674932D01*
X152814494Y-91724684D01*
X152877315Y-91787505D01*
X152898754Y-91819591D01*
X152924050Y-91857448D01*
X152926672Y-91861373D01*
X152960669Y-91943448D01*
X152978000Y-92030579D01*
X152978000Y-92119421D01*
X152960669Y-92206552D01*
X152926672Y-92288627D01*
X152879193Y-92359685D01*
X152877314Y-92362496D01*
X152814496Y-92425314D01*
X152740629Y-92474671D01*
X152740628Y-92474672D01*
X152740627Y-92474672D01*
X152658552Y-92508669D01*
X152571421Y-92526000D01*
X152482579Y-92526000D01*
X152395448Y-92508669D01*
X152313373Y-92474672D01*
X152313372Y-92474672D01*
X152313371Y-92474671D01*
X152239504Y-92425314D01*
X152176686Y-92362496D01*
X152174808Y-92359685D01*
X152127328Y-92288627D01*
X152093331Y-92206552D01*
X152076000Y-92119421D01*
X152076000Y-92030579D01*
X152093331Y-91943448D01*
X152127328Y-91861373D01*
X152129951Y-91857448D01*
X152155246Y-91819591D01*
X152176685Y-91787505D01*
X152239506Y-91724684D01*
X152313965Y-91674932D01*
X152332907Y-91659386D01*
X152348452Y-91640444D01*
X152360003Y-91618834D01*
X152367116Y-91595385D01*
X152369518Y-91570999D01*
X152367116Y-91546613D01*
X152360003Y-91523164D01*
X152348452Y-91501553D01*
X152332906Y-91482611D01*
X152313964Y-91467066D01*
X152292354Y-91455515D01*
X152268905Y-91448402D01*
X152244519Y-91446000D01*
X152188890Y-91446000D01*
X152147409Y-91441915D01*
X152113431Y-91431607D01*
X152082110Y-91414866D01*
X152054661Y-91392339D01*
X152032134Y-91364890D01*
X152015393Y-91333569D01*
X152005085Y-91299591D01*
X152001000Y-91258110D01*
X152001000Y-90656890D01*
X152005085Y-90615409D01*
X152015393Y-90581431D01*
X152032134Y-90550110D01*
X152054661Y-90522661D01*
X152082110Y-90500134D01*
X152113431Y-90483393D01*
X152147409Y-90473085D01*
X152188890Y-90469000D01*
X152865110Y-90469000D01*
X152906591Y-90473085D01*
X152906591Y-90473085D01*
G37*
G36*
X148334591Y-90473085D02*
G01*
X148368569Y-90483393D01*
X148399890Y-90500134D01*
X148427339Y-90522661D01*
X148449866Y-90550110D01*
X148466607Y-90581431D01*
X148476915Y-90615409D01*
X148481000Y-90656890D01*
X148481000Y-91258110D01*
X148476915Y-91299591D01*
X148466607Y-91333569D01*
X148449866Y-91364890D01*
X148427339Y-91392339D01*
X148399890Y-91414866D01*
X148368569Y-91431607D01*
X148334591Y-91441915D01*
X148293110Y-91446000D01*
X148237481Y-91446000D01*
X148213095Y-91448402D01*
X148189646Y-91455515D01*
X148168035Y-91467066D01*
X148149093Y-91482611D01*
X148133548Y-91501553D01*
X148121997Y-91523164D01*
X148114884Y-91546613D01*
X148112482Y-91570999D01*
X148114884Y-91595385D01*
X148121997Y-91618834D01*
X148133548Y-91640445D01*
X148149093Y-91659387D01*
X148168035Y-91674932D01*
X148242494Y-91724684D01*
X148305315Y-91787505D01*
X148326754Y-91819591D01*
X148352050Y-91857448D01*
X148354672Y-91861373D01*
X148388669Y-91943448D01*
X148406000Y-92030579D01*
X148406000Y-92119421D01*
X148388669Y-92206552D01*
X148354672Y-92288627D01*
X148307193Y-92359685D01*
X148305314Y-92362496D01*
X148242496Y-92425314D01*
X148168629Y-92474671D01*
X148168628Y-92474672D01*
X148168627Y-92474672D01*
X148086552Y-92508669D01*
X147999421Y-92526000D01*
X147910579Y-92526000D01*
X147823448Y-92508669D01*
X147741373Y-92474672D01*
X147741372Y-92474672D01*
X147741371Y-92474671D01*
X147667504Y-92425314D01*
X147604686Y-92362496D01*
X147602808Y-92359685D01*
X147555328Y-92288627D01*
X147521331Y-92206552D01*
X147504000Y-92119421D01*
X147504000Y-92030579D01*
X147521331Y-91943448D01*
X147555328Y-91861373D01*
X147557951Y-91857448D01*
X147583246Y-91819591D01*
X147604685Y-91787505D01*
X147667506Y-91724684D01*
X147741965Y-91674932D01*
X147760907Y-91659386D01*
X147776452Y-91640444D01*
X147788003Y-91618834D01*
X147795116Y-91595385D01*
X147797518Y-91570999D01*
X147795116Y-91546613D01*
X147788003Y-91523164D01*
X147776452Y-91501553D01*
X147760906Y-91482611D01*
X147741964Y-91467066D01*
X147720354Y-91455515D01*
X147696905Y-91448402D01*
X147672519Y-91446000D01*
X147616890Y-91446000D01*
X147575409Y-91441915D01*
X147541431Y-91431607D01*
X147510110Y-91414866D01*
X147482661Y-91392339D01*
X147460134Y-91364890D01*
X147443393Y-91333569D01*
X147433085Y-91299591D01*
X147429000Y-91258110D01*
X147429000Y-90656890D01*
X147433085Y-90615409D01*
X147443393Y-90581431D01*
X147460134Y-90550110D01*
X147482661Y-90522661D01*
X147510110Y-90500134D01*
X147541431Y-90483393D01*
X147575409Y-90473085D01*
X147616890Y-90469000D01*
X148293110Y-90469000D01*
X148334591Y-90473085D01*
X148334591Y-90473085D01*
G37*
G36*
X124726000Y-92341000D02*
G01*
X122924000Y-92341000D01*
X122924000Y-90539000D01*
X124726000Y-90539000D01*
X124726000Y-92341000D01*
X124726000Y-92341000D01*
G37*
G36*
X129097091Y-90918085D02*
G01*
X129131069Y-90928393D01*
X129162390Y-90945134D01*
X129189839Y-90967661D01*
X129212366Y-90995110D01*
X129229107Y-91026431D01*
X129239415Y-91060409D01*
X129243500Y-91101890D01*
X129243500Y-91778110D01*
X129239415Y-91819591D01*
X129229107Y-91853569D01*
X129212366Y-91884890D01*
X129189839Y-91912339D01*
X129162390Y-91934866D01*
X129131069Y-91951607D01*
X129097091Y-91961915D01*
X129055610Y-91966000D01*
X128454390Y-91966000D01*
X128412909Y-91961915D01*
X128378931Y-91951607D01*
X128347610Y-91934866D01*
X128320161Y-91912339D01*
X128297634Y-91884890D01*
X128280893Y-91853569D01*
X128270585Y-91819591D01*
X128266500Y-91778110D01*
X128266500Y-91101890D01*
X128270585Y-91060409D01*
X128280893Y-91026431D01*
X128297634Y-90995110D01*
X128320161Y-90967661D01*
X128347610Y-90945134D01*
X128378931Y-90928393D01*
X128412909Y-90918085D01*
X128454390Y-90914000D01*
X129055610Y-90914000D01*
X129097091Y-90918085D01*
X129097091Y-90918085D01*
G37*
G36*
X135320091Y-90918085D02*
G01*
X135354069Y-90928393D01*
X135385390Y-90945134D01*
X135412839Y-90967661D01*
X135435366Y-90995110D01*
X135452107Y-91026431D01*
X135462415Y-91060409D01*
X135466500Y-91101890D01*
X135466500Y-91778110D01*
X135462415Y-91819591D01*
X135452107Y-91853569D01*
X135435366Y-91884890D01*
X135412839Y-91912339D01*
X135385390Y-91934866D01*
X135354069Y-91951607D01*
X135320091Y-91961915D01*
X135278610Y-91966000D01*
X134677390Y-91966000D01*
X134635909Y-91961915D01*
X134601931Y-91951607D01*
X134570610Y-91934866D01*
X134543161Y-91912339D01*
X134520634Y-91884890D01*
X134503893Y-91853569D01*
X134493585Y-91819591D01*
X134489500Y-91778110D01*
X134489500Y-91101890D01*
X134493585Y-91060409D01*
X134503893Y-91026431D01*
X134520634Y-90995110D01*
X134543161Y-90967661D01*
X134570610Y-90945134D01*
X134601931Y-90928393D01*
X134635909Y-90918085D01*
X134677390Y-90914000D01*
X135278610Y-90914000D01*
X135320091Y-90918085D01*
X135320091Y-90918085D01*
G37*
G36*
X127522091Y-90918085D02*
G01*
X127556069Y-90928393D01*
X127587390Y-90945134D01*
X127614839Y-90967661D01*
X127637366Y-90995110D01*
X127654107Y-91026431D01*
X127664415Y-91060409D01*
X127668500Y-91101890D01*
X127668500Y-91778110D01*
X127664415Y-91819591D01*
X127654107Y-91853569D01*
X127637366Y-91884890D01*
X127614839Y-91912339D01*
X127587390Y-91934866D01*
X127556069Y-91951607D01*
X127522091Y-91961915D01*
X127480610Y-91966000D01*
X126879390Y-91966000D01*
X126837909Y-91961915D01*
X126803931Y-91951607D01*
X126772610Y-91934866D01*
X126745161Y-91912339D01*
X126722634Y-91884890D01*
X126705893Y-91853569D01*
X126695585Y-91819591D01*
X126691500Y-91778110D01*
X126691500Y-91101890D01*
X126695585Y-91060409D01*
X126705893Y-91026431D01*
X126722634Y-90995110D01*
X126745161Y-90967661D01*
X126772610Y-90945134D01*
X126803931Y-90928393D01*
X126837909Y-90918085D01*
X126879390Y-90914000D01*
X127480610Y-90914000D01*
X127522091Y-90918085D01*
X127522091Y-90918085D01*
G37*
G36*
X130618591Y-90918085D02*
G01*
X130652569Y-90928393D01*
X130683890Y-90945134D01*
X130711339Y-90967661D01*
X130733866Y-90995110D01*
X130750607Y-91026431D01*
X130760915Y-91060409D01*
X130765000Y-91101890D01*
X130765000Y-91778110D01*
X130760915Y-91819591D01*
X130750607Y-91853569D01*
X130733866Y-91884890D01*
X130711339Y-91912339D01*
X130683890Y-91934866D01*
X130652569Y-91951607D01*
X130618591Y-91961915D01*
X130577110Y-91966000D01*
X129975890Y-91966000D01*
X129934409Y-91961915D01*
X129900431Y-91951607D01*
X129869110Y-91934866D01*
X129841661Y-91912339D01*
X129819134Y-91884890D01*
X129802393Y-91853569D01*
X129792085Y-91819591D01*
X129788000Y-91778110D01*
X129788000Y-91101890D01*
X129792085Y-91060409D01*
X129802393Y-91026431D01*
X129819134Y-90995110D01*
X129841661Y-90967661D01*
X129869110Y-90945134D01*
X129900431Y-90928393D01*
X129934409Y-90918085D01*
X129975890Y-90914000D01*
X130577110Y-90914000D01*
X130618591Y-90918085D01*
X130618591Y-90918085D01*
G37*
G36*
X132193591Y-90918085D02*
G01*
X132227569Y-90928393D01*
X132258890Y-90945134D01*
X132286339Y-90967661D01*
X132308866Y-90995110D01*
X132325607Y-91026431D01*
X132335915Y-91060409D01*
X132340000Y-91101890D01*
X132340000Y-91778110D01*
X132335915Y-91819591D01*
X132325607Y-91853569D01*
X132308866Y-91884890D01*
X132286339Y-91912339D01*
X132258890Y-91934866D01*
X132227569Y-91951607D01*
X132193591Y-91961915D01*
X132152110Y-91966000D01*
X131550890Y-91966000D01*
X131509409Y-91961915D01*
X131475431Y-91951607D01*
X131444110Y-91934866D01*
X131416661Y-91912339D01*
X131394134Y-91884890D01*
X131377393Y-91853569D01*
X131367085Y-91819591D01*
X131363000Y-91778110D01*
X131363000Y-91101890D01*
X131367085Y-91060409D01*
X131377393Y-91026431D01*
X131394134Y-90995110D01*
X131416661Y-90967661D01*
X131444110Y-90945134D01*
X131475431Y-90928393D01*
X131509409Y-90918085D01*
X131550890Y-90914000D01*
X132152110Y-90914000D01*
X132193591Y-90918085D01*
X132193591Y-90918085D01*
G37*
G36*
X133745091Y-90918085D02*
G01*
X133779069Y-90928393D01*
X133810390Y-90945134D01*
X133837839Y-90967661D01*
X133860366Y-90995110D01*
X133877107Y-91026431D01*
X133887415Y-91060409D01*
X133891500Y-91101890D01*
X133891500Y-91778110D01*
X133887415Y-91819591D01*
X133877107Y-91853569D01*
X133860366Y-91884890D01*
X133837839Y-91912339D01*
X133810390Y-91934866D01*
X133779069Y-91951607D01*
X133745091Y-91961915D01*
X133703610Y-91966000D01*
X133102390Y-91966000D01*
X133060909Y-91961915D01*
X133026931Y-91951607D01*
X132995610Y-91934866D01*
X132968161Y-91912339D01*
X132945634Y-91884890D01*
X132928893Y-91853569D01*
X132918585Y-91819591D01*
X132914500Y-91778110D01*
X132914500Y-91101890D01*
X132918585Y-91060409D01*
X132928893Y-91026431D01*
X132945634Y-90995110D01*
X132968161Y-90967661D01*
X132995610Y-90945134D01*
X133026931Y-90928393D01*
X133060909Y-90918085D01*
X133102390Y-90914000D01*
X133703610Y-90914000D01*
X133745091Y-90918085D01*
X133745091Y-90918085D01*
G37*
G36*
X149858591Y-90473085D02*
G01*
X149892569Y-90483393D01*
X149923890Y-90500134D01*
X149951339Y-90522661D01*
X149973866Y-90550110D01*
X149990607Y-90581431D01*
X150000915Y-90615409D01*
X150005000Y-90656890D01*
X150005000Y-91258110D01*
X150000915Y-91299591D01*
X149990607Y-91333569D01*
X149973866Y-91364890D01*
X149951339Y-91392339D01*
X149923890Y-91414866D01*
X149892569Y-91431607D01*
X149858591Y-91441915D01*
X149817110Y-91446000D01*
X149140890Y-91446000D01*
X149099409Y-91441915D01*
X149065431Y-91431607D01*
X149034110Y-91414866D01*
X149006661Y-91392339D01*
X148984134Y-91364890D01*
X148967393Y-91333569D01*
X148957085Y-91299591D01*
X148953000Y-91258110D01*
X148953000Y-90656890D01*
X148957085Y-90615409D01*
X148967393Y-90581431D01*
X148984134Y-90550110D01*
X149006661Y-90522661D01*
X149034110Y-90500134D01*
X149065431Y-90483393D01*
X149099409Y-90473085D01*
X149140890Y-90469000D01*
X149817110Y-90469000D01*
X149858591Y-90473085D01*
X149858591Y-90473085D01*
G37*
G36*
X151382591Y-90473085D02*
G01*
X151416569Y-90483393D01*
X151447890Y-90500134D01*
X151475339Y-90522661D01*
X151497866Y-90550110D01*
X151514607Y-90581431D01*
X151524915Y-90615409D01*
X151529000Y-90656890D01*
X151529000Y-91258110D01*
X151524915Y-91299591D01*
X151514607Y-91333569D01*
X151497866Y-91364890D01*
X151475339Y-91392339D01*
X151447890Y-91414866D01*
X151416569Y-91431607D01*
X151382591Y-91441915D01*
X151341110Y-91446000D01*
X150664890Y-91446000D01*
X150623409Y-91441915D01*
X150589431Y-91431607D01*
X150558110Y-91414866D01*
X150530661Y-91392339D01*
X150508134Y-91364890D01*
X150491393Y-91333569D01*
X150481085Y-91299591D01*
X150477000Y-91258110D01*
X150477000Y-90656890D01*
X150481085Y-90615409D01*
X150491393Y-90581431D01*
X150508134Y-90550110D01*
X150530661Y-90522661D01*
X150558110Y-90500134D01*
X150589431Y-90483393D01*
X150623409Y-90473085D01*
X150664890Y-90469000D01*
X151341110Y-90469000D01*
X151382591Y-90473085D01*
X151382591Y-90473085D01*
G37*
G36*
X136867091Y-89013085D02*
G01*
X136901069Y-89023393D01*
X136932390Y-89040134D01*
X136959839Y-89062661D01*
X136982366Y-89090110D01*
X136999107Y-89121431D01*
X137009415Y-89155409D01*
X137013500Y-89196890D01*
X137013500Y-89873110D01*
X137009415Y-89914591D01*
X136999107Y-89948569D01*
X136982366Y-89979890D01*
X136959839Y-90007339D01*
X136932390Y-90029866D01*
X136901069Y-90046607D01*
X136867091Y-90056915D01*
X136825610Y-90061000D01*
X136224390Y-90061000D01*
X136182909Y-90056915D01*
X136148931Y-90046607D01*
X136117610Y-90029866D01*
X136090161Y-90007339D01*
X136067634Y-89979890D01*
X136050893Y-89948569D01*
X136040585Y-89914591D01*
X136036500Y-89873110D01*
X136036500Y-89196890D01*
X136040585Y-89155409D01*
X136050893Y-89121431D01*
X136067634Y-89090110D01*
X136090161Y-89062661D01*
X136117610Y-89040134D01*
X136148931Y-89023393D01*
X136182909Y-89013085D01*
X136224390Y-89009000D01*
X136825610Y-89009000D01*
X136867091Y-89013085D01*
X136867091Y-89013085D01*
G37*
G36*
X139196552Y-88847331D02*
G01*
X139278627Y-88881328D01*
X139278629Y-88881329D01*
X139297592Y-88894000D01*
X139352495Y-88930685D01*
X139415315Y-88993505D01*
X139438091Y-89027592D01*
X139459489Y-89059615D01*
X139464672Y-89067373D01*
X139498669Y-89149448D01*
X139516000Y-89236579D01*
X139516000Y-89325421D01*
X139498669Y-89412552D01*
X139464672Y-89494627D01*
X139415315Y-89568495D01*
X139352495Y-89631315D01*
X139323790Y-89650495D01*
X139278629Y-89680671D01*
X139278628Y-89680672D01*
X139278627Y-89680672D01*
X139196552Y-89714669D01*
X139109421Y-89732000D01*
X139020579Y-89732000D01*
X138933448Y-89714669D01*
X138851373Y-89680672D01*
X138851372Y-89680672D01*
X138851371Y-89680671D01*
X138806210Y-89650495D01*
X138782945Y-89634950D01*
X138761334Y-89623399D01*
X138737885Y-89616286D01*
X138713499Y-89613884D01*
X138689113Y-89616286D01*
X138665664Y-89623399D01*
X138644053Y-89634950D01*
X138625111Y-89650495D01*
X138609566Y-89669437D01*
X138598015Y-89691048D01*
X138590902Y-89714497D01*
X138588500Y-89738883D01*
X138588500Y-89873110D01*
X138584415Y-89914591D01*
X138574107Y-89948569D01*
X138557366Y-89979890D01*
X138534839Y-90007339D01*
X138507390Y-90029866D01*
X138476069Y-90046607D01*
X138442091Y-90056915D01*
X138400610Y-90061000D01*
X137799390Y-90061000D01*
X137757909Y-90056915D01*
X137723931Y-90046607D01*
X137692610Y-90029866D01*
X137665161Y-90007339D01*
X137642634Y-89979890D01*
X137625893Y-89948569D01*
X137615585Y-89914591D01*
X137611500Y-89873110D01*
X137611500Y-89196890D01*
X137615585Y-89155409D01*
X137625893Y-89121431D01*
X137642634Y-89090110D01*
X137665161Y-89062661D01*
X137692610Y-89040134D01*
X137723931Y-89023393D01*
X137757909Y-89013085D01*
X137799390Y-89009000D01*
X138400610Y-89009000D01*
X138442091Y-89013085D01*
X138476069Y-89023393D01*
X138507390Y-89040134D01*
X138514536Y-89045999D01*
X138534910Y-89059613D01*
X138557549Y-89068991D01*
X138581582Y-89073772D01*
X138606086Y-89073772D01*
X138630120Y-89068992D01*
X138652759Y-89059615D01*
X138673133Y-89046002D01*
X138690460Y-89028675D01*
X138697769Y-89018821D01*
X138714684Y-88993506D01*
X138777505Y-88930685D01*
X138832408Y-88894000D01*
X138851371Y-88881329D01*
X138851373Y-88881328D01*
X138933448Y-88847331D01*
X139020579Y-88830000D01*
X139109421Y-88830000D01*
X139196552Y-88847331D01*
X139196552Y-88847331D01*
G37*
G36*
X151382591Y-88898085D02*
G01*
X151416569Y-88908393D01*
X151447890Y-88925134D01*
X151475339Y-88947661D01*
X151497866Y-88975110D01*
X151514607Y-89006431D01*
X151524915Y-89040409D01*
X151529000Y-89081890D01*
X151529000Y-89683110D01*
X151524915Y-89724591D01*
X151514607Y-89758569D01*
X151497866Y-89789890D01*
X151475339Y-89817339D01*
X151447890Y-89839866D01*
X151416569Y-89856607D01*
X151382591Y-89866915D01*
X151341110Y-89871000D01*
X150664890Y-89871000D01*
X150623409Y-89866915D01*
X150589431Y-89856607D01*
X150558110Y-89839866D01*
X150530661Y-89817339D01*
X150508134Y-89789890D01*
X150491393Y-89758569D01*
X150481085Y-89724591D01*
X150477000Y-89683110D01*
X150477000Y-89081890D01*
X150481085Y-89040409D01*
X150491393Y-89006431D01*
X150508134Y-88975110D01*
X150530661Y-88947661D01*
X150558110Y-88925134D01*
X150589431Y-88908393D01*
X150623409Y-88898085D01*
X150664890Y-88894000D01*
X151341110Y-88894000D01*
X151382591Y-88898085D01*
X151382591Y-88898085D01*
G37*
G36*
X149858591Y-88898085D02*
G01*
X149892569Y-88908393D01*
X149923890Y-88925134D01*
X149951339Y-88947661D01*
X149973866Y-88975110D01*
X149990607Y-89006431D01*
X150000915Y-89040409D01*
X150005000Y-89081890D01*
X150005000Y-89683110D01*
X150000915Y-89724591D01*
X149990607Y-89758569D01*
X149973866Y-89789890D01*
X149951339Y-89817339D01*
X149923890Y-89839866D01*
X149892569Y-89856607D01*
X149858591Y-89866915D01*
X149817110Y-89871000D01*
X149140890Y-89871000D01*
X149099409Y-89866915D01*
X149065431Y-89856607D01*
X149034110Y-89839866D01*
X149006661Y-89817339D01*
X148984134Y-89789890D01*
X148967393Y-89758569D01*
X148957085Y-89724591D01*
X148953000Y-89683110D01*
X148953000Y-89081890D01*
X148957085Y-89040409D01*
X148967393Y-89006431D01*
X148984134Y-88975110D01*
X149006661Y-88947661D01*
X149034110Y-88925134D01*
X149065431Y-88908393D01*
X149099409Y-88898085D01*
X149140890Y-88894000D01*
X149817110Y-88894000D01*
X149858591Y-88898085D01*
X149858591Y-88898085D01*
G37*
G36*
X148334591Y-88898085D02*
G01*
X148368569Y-88908393D01*
X148399890Y-88925134D01*
X148427339Y-88947661D01*
X148449866Y-88975110D01*
X148466607Y-89006431D01*
X148476915Y-89040409D01*
X148481000Y-89081890D01*
X148481000Y-89683110D01*
X148476915Y-89724591D01*
X148466607Y-89758569D01*
X148449866Y-89789890D01*
X148427339Y-89817339D01*
X148399890Y-89839866D01*
X148368569Y-89856607D01*
X148334591Y-89866915D01*
X148293110Y-89871000D01*
X147616890Y-89871000D01*
X147575409Y-89866915D01*
X147541431Y-89856607D01*
X147510110Y-89839866D01*
X147482661Y-89817339D01*
X147460134Y-89789890D01*
X147443393Y-89758569D01*
X147433085Y-89724591D01*
X147429000Y-89683110D01*
X147429000Y-89081890D01*
X147433085Y-89040409D01*
X147443393Y-89006431D01*
X147460134Y-88975110D01*
X147482661Y-88947661D01*
X147510110Y-88925134D01*
X147541431Y-88908393D01*
X147575409Y-88898085D01*
X147616890Y-88894000D01*
X148293110Y-88894000D01*
X148334591Y-88898085D01*
X148334591Y-88898085D01*
G37*
G36*
X152906591Y-88898085D02*
G01*
X152940569Y-88908393D01*
X152971890Y-88925134D01*
X152999339Y-88947661D01*
X153021866Y-88975110D01*
X153038607Y-89006431D01*
X153048915Y-89040409D01*
X153053000Y-89081890D01*
X153053000Y-89683110D01*
X153048915Y-89724591D01*
X153038607Y-89758569D01*
X153021866Y-89789890D01*
X152999339Y-89817339D01*
X152971890Y-89839866D01*
X152940569Y-89856607D01*
X152906591Y-89866915D01*
X152865110Y-89871000D01*
X152188890Y-89871000D01*
X152147409Y-89866915D01*
X152113431Y-89856607D01*
X152082110Y-89839866D01*
X152054661Y-89817339D01*
X152032134Y-89789890D01*
X152015393Y-89758569D01*
X152005085Y-89724591D01*
X152001000Y-89683110D01*
X152001000Y-89081890D01*
X152005085Y-89040409D01*
X152015393Y-89006431D01*
X152032134Y-88975110D01*
X152054661Y-88947661D01*
X152082110Y-88925134D01*
X152113431Y-88908393D01*
X152147409Y-88898085D01*
X152188890Y-88894000D01*
X152865110Y-88894000D01*
X152906591Y-88898085D01*
X152906591Y-88898085D01*
G37*
G36*
X167867290Y-87290619D02*
G01*
X167931689Y-87303429D01*
X168113678Y-87378811D01*
X168277463Y-87488249D01*
X168416751Y-87627537D01*
X168526189Y-87791322D01*
X168601571Y-87973311D01*
X168640000Y-88166509D01*
X168640000Y-88363491D01*
X168601571Y-88556689D01*
X168526189Y-88738678D01*
X168416751Y-88902463D01*
X168277463Y-89041751D01*
X168113678Y-89151189D01*
X167931689Y-89226571D01*
X167881375Y-89236579D01*
X167738493Y-89265000D01*
X167541507Y-89265000D01*
X167398625Y-89236579D01*
X167348311Y-89226571D01*
X167166322Y-89151189D01*
X167002537Y-89041751D01*
X166863249Y-88902463D01*
X166753811Y-88738678D01*
X166678429Y-88556689D01*
X166640000Y-88363491D01*
X166640000Y-88166509D01*
X166678429Y-87973311D01*
X166753811Y-87791322D01*
X166863249Y-87627537D01*
X167002537Y-87488249D01*
X167166322Y-87378811D01*
X167348311Y-87303429D01*
X167412710Y-87290619D01*
X167541507Y-87265000D01*
X167738493Y-87265000D01*
X167867290Y-87290619D01*
X167867290Y-87290619D01*
G37*
G36*
X124052290Y-87290619D02*
G01*
X124116689Y-87303429D01*
X124298678Y-87378811D01*
X124462463Y-87488249D01*
X124601751Y-87627537D01*
X124711189Y-87791322D01*
X124786571Y-87973311D01*
X124825000Y-88166509D01*
X124825000Y-88363491D01*
X124786571Y-88556689D01*
X124711189Y-88738678D01*
X124601751Y-88902463D01*
X124462463Y-89041751D01*
X124298678Y-89151189D01*
X124116689Y-89226571D01*
X124066375Y-89236579D01*
X123923493Y-89265000D01*
X123726507Y-89265000D01*
X123583625Y-89236579D01*
X123533311Y-89226571D01*
X123351322Y-89151189D01*
X123187537Y-89041751D01*
X123048249Y-88902463D01*
X122938811Y-88738678D01*
X122863429Y-88556689D01*
X122825000Y-88363491D01*
X122825000Y-88166509D01*
X122863429Y-87973311D01*
X122938811Y-87791322D01*
X123048249Y-87627537D01*
X123187537Y-87488249D01*
X123351322Y-87378811D01*
X123533311Y-87303429D01*
X123597710Y-87290619D01*
X123726507Y-87265000D01*
X123923493Y-87265000D01*
X124052290Y-87290619D01*
X124052290Y-87290619D01*
G37*
G36*
X147451552Y-86561331D02*
G01*
X147533627Y-86595328D01*
X147533629Y-86595329D01*
X147570813Y-86620175D01*
X147607495Y-86644685D01*
X147670315Y-86707505D01*
X147719672Y-86781373D01*
X147753669Y-86863448D01*
X147771000Y-86950579D01*
X147771000Y-87039421D01*
X147753669Y-87126552D01*
X147719672Y-87208627D01*
X147719671Y-87208629D01*
X147670314Y-87282496D01*
X147607496Y-87345314D01*
X147533629Y-87394671D01*
X147533628Y-87394672D01*
X147533627Y-87394672D01*
X147451552Y-87428669D01*
X147364421Y-87446000D01*
X147275579Y-87446000D01*
X147188448Y-87428669D01*
X147106373Y-87394672D01*
X147106372Y-87394672D01*
X147106371Y-87394671D01*
X147032504Y-87345314D01*
X146969686Y-87282496D01*
X146920329Y-87208629D01*
X146920328Y-87208627D01*
X146886331Y-87126552D01*
X146869000Y-87039421D01*
X146869000Y-86950579D01*
X146886331Y-86863448D01*
X146920328Y-86781373D01*
X146969685Y-86707505D01*
X147032505Y-86644685D01*
X147069187Y-86620175D01*
X147106371Y-86595329D01*
X147106373Y-86595328D01*
X147188448Y-86561331D01*
X147275579Y-86544000D01*
X147364421Y-86544000D01*
X147451552Y-86561331D01*
X147451552Y-86561331D01*
G37*
G36*
X148721552Y-86561331D02*
G01*
X148803627Y-86595328D01*
X148803629Y-86595329D01*
X148840813Y-86620175D01*
X148877495Y-86644685D01*
X148940315Y-86707505D01*
X148989672Y-86781373D01*
X149023669Y-86863448D01*
X149041000Y-86950579D01*
X149041000Y-87039421D01*
X149023669Y-87126552D01*
X148989672Y-87208627D01*
X148989671Y-87208629D01*
X148940314Y-87282496D01*
X148877496Y-87345314D01*
X148803629Y-87394671D01*
X148803628Y-87394672D01*
X148803627Y-87394672D01*
X148721552Y-87428669D01*
X148634421Y-87446000D01*
X148545579Y-87446000D01*
X148458448Y-87428669D01*
X148376373Y-87394672D01*
X148376372Y-87394672D01*
X148376371Y-87394671D01*
X148302504Y-87345314D01*
X148239686Y-87282496D01*
X148190329Y-87208629D01*
X148190328Y-87208627D01*
X148156331Y-87126552D01*
X148139000Y-87039421D01*
X148139000Y-86950579D01*
X148156331Y-86863448D01*
X148190328Y-86781373D01*
X148239685Y-86707505D01*
X148302505Y-86644685D01*
X148339187Y-86620175D01*
X148376371Y-86595329D01*
X148376373Y-86595328D01*
X148458448Y-86561331D01*
X148545579Y-86544000D01*
X148634421Y-86544000D01*
X148721552Y-86561331D01*
X148721552Y-86561331D01*
G37*
G36*
X149991552Y-86561331D02*
G01*
X150073627Y-86595328D01*
X150073629Y-86595329D01*
X150110813Y-86620175D01*
X150147495Y-86644685D01*
X150210315Y-86707505D01*
X150259672Y-86781373D01*
X150293669Y-86863448D01*
X150311000Y-86950579D01*
X150311000Y-87039421D01*
X150293669Y-87126552D01*
X150259672Y-87208627D01*
X150259671Y-87208629D01*
X150210314Y-87282496D01*
X150147496Y-87345314D01*
X150073629Y-87394671D01*
X150073628Y-87394672D01*
X150073627Y-87394672D01*
X149991552Y-87428669D01*
X149904421Y-87446000D01*
X149815579Y-87446000D01*
X149728448Y-87428669D01*
X149646373Y-87394672D01*
X149646372Y-87394672D01*
X149646371Y-87394671D01*
X149572504Y-87345314D01*
X149509686Y-87282496D01*
X149460329Y-87208629D01*
X149460328Y-87208627D01*
X149426331Y-87126552D01*
X149409000Y-87039421D01*
X149409000Y-86950579D01*
X149426331Y-86863448D01*
X149460328Y-86781373D01*
X149509685Y-86707505D01*
X149572505Y-86644685D01*
X149609187Y-86620175D01*
X149646371Y-86595329D01*
X149646373Y-86595328D01*
X149728448Y-86561331D01*
X149815579Y-86544000D01*
X149904421Y-86544000D01*
X149991552Y-86561331D01*
X149991552Y-86561331D01*
G37*
G36*
X151261552Y-86561331D02*
G01*
X151343627Y-86595328D01*
X151343629Y-86595329D01*
X151380813Y-86620175D01*
X151417495Y-86644685D01*
X151480315Y-86707505D01*
X151529672Y-86781373D01*
X151563669Y-86863448D01*
X151581000Y-86950579D01*
X151581000Y-87039421D01*
X151563669Y-87126552D01*
X151529672Y-87208627D01*
X151529671Y-87208629D01*
X151480314Y-87282496D01*
X151417496Y-87345314D01*
X151343629Y-87394671D01*
X151343628Y-87394672D01*
X151343627Y-87394672D01*
X151261552Y-87428669D01*
X151174421Y-87446000D01*
X151085579Y-87446000D01*
X150998448Y-87428669D01*
X150916373Y-87394672D01*
X150916372Y-87394672D01*
X150916371Y-87394671D01*
X150842504Y-87345314D01*
X150779686Y-87282496D01*
X150730329Y-87208629D01*
X150730328Y-87208627D01*
X150696331Y-87126552D01*
X150679000Y-87039421D01*
X150679000Y-86950579D01*
X150696331Y-86863448D01*
X150730328Y-86781373D01*
X150779685Y-86707505D01*
X150842505Y-86644685D01*
X150879187Y-86620175D01*
X150916371Y-86595329D01*
X150916373Y-86595328D01*
X150998448Y-86561331D01*
X151085579Y-86544000D01*
X151174421Y-86544000D01*
X151261552Y-86561331D01*
X151261552Y-86561331D01*
G37*
G36*
X152531552Y-86561331D02*
G01*
X152613627Y-86595328D01*
X152613629Y-86595329D01*
X152650813Y-86620175D01*
X152687495Y-86644685D01*
X152750315Y-86707505D01*
X152799672Y-86781373D01*
X152833669Y-86863448D01*
X152851000Y-86950579D01*
X152851000Y-87039421D01*
X152833669Y-87126552D01*
X152799672Y-87208627D01*
X152799671Y-87208629D01*
X152750314Y-87282496D01*
X152687496Y-87345314D01*
X152613629Y-87394671D01*
X152613628Y-87394672D01*
X152613627Y-87394672D01*
X152531552Y-87428669D01*
X152444421Y-87446000D01*
X152355579Y-87446000D01*
X152268448Y-87428669D01*
X152186373Y-87394672D01*
X152186372Y-87394672D01*
X152186371Y-87394671D01*
X152112504Y-87345314D01*
X152049686Y-87282496D01*
X152000329Y-87208629D01*
X152000328Y-87208627D01*
X151966331Y-87126552D01*
X151949000Y-87039421D01*
X151949000Y-86950579D01*
X151966331Y-86863448D01*
X152000328Y-86781373D01*
X152049685Y-86707505D01*
X152112505Y-86644685D01*
X152149187Y-86620175D01*
X152186371Y-86595329D01*
X152186373Y-86595328D01*
X152268448Y-86561331D01*
X152355579Y-86544000D01*
X152444421Y-86544000D01*
X152531552Y-86561331D01*
X152531552Y-86561331D01*
G37*
G36*
X125861552Y-86561331D02*
G01*
X125943627Y-86595328D01*
X125943629Y-86595329D01*
X125980813Y-86620175D01*
X126017495Y-86644685D01*
X126080315Y-86707505D01*
X126129672Y-86781373D01*
X126163669Y-86863448D01*
X126181000Y-86950579D01*
X126181000Y-87039421D01*
X126163669Y-87126552D01*
X126129672Y-87208627D01*
X126129671Y-87208629D01*
X126080314Y-87282496D01*
X126017496Y-87345314D01*
X125943629Y-87394671D01*
X125943628Y-87394672D01*
X125943627Y-87394672D01*
X125861552Y-87428669D01*
X125774421Y-87446000D01*
X125685579Y-87446000D01*
X125598448Y-87428669D01*
X125516373Y-87394672D01*
X125516372Y-87394672D01*
X125516371Y-87394671D01*
X125442504Y-87345314D01*
X125379686Y-87282496D01*
X125330329Y-87208629D01*
X125330328Y-87208627D01*
X125296331Y-87126552D01*
X125279000Y-87039421D01*
X125279000Y-86950579D01*
X125296331Y-86863448D01*
X125330328Y-86781373D01*
X125379685Y-86707505D01*
X125442505Y-86644685D01*
X125479187Y-86620175D01*
X125516371Y-86595329D01*
X125516373Y-86595328D01*
X125598448Y-86561331D01*
X125685579Y-86544000D01*
X125774421Y-86544000D01*
X125861552Y-86561331D01*
X125861552Y-86561331D01*
G37*
G36*
X133481552Y-86561331D02*
G01*
X133563627Y-86595328D01*
X133563629Y-86595329D01*
X133600813Y-86620175D01*
X133637495Y-86644685D01*
X133700315Y-86707505D01*
X133749672Y-86781373D01*
X133783669Y-86863448D01*
X133801000Y-86950579D01*
X133801000Y-87039421D01*
X133783669Y-87126552D01*
X133749672Y-87208627D01*
X133749671Y-87208629D01*
X133700314Y-87282496D01*
X133637496Y-87345314D01*
X133563629Y-87394671D01*
X133563628Y-87394672D01*
X133563627Y-87394672D01*
X133481552Y-87428669D01*
X133394421Y-87446000D01*
X133305579Y-87446000D01*
X133218448Y-87428669D01*
X133136373Y-87394672D01*
X133136372Y-87394672D01*
X133136371Y-87394671D01*
X133062504Y-87345314D01*
X132999686Y-87282496D01*
X132950329Y-87208629D01*
X132950328Y-87208627D01*
X132916331Y-87126552D01*
X132899000Y-87039421D01*
X132899000Y-86950579D01*
X132916331Y-86863448D01*
X132950328Y-86781373D01*
X132999685Y-86707505D01*
X133062505Y-86644685D01*
X133099187Y-86620175D01*
X133136371Y-86595329D01*
X133136373Y-86595328D01*
X133218448Y-86561331D01*
X133305579Y-86544000D01*
X133394421Y-86544000D01*
X133481552Y-86561331D01*
X133481552Y-86561331D01*
G37*
G36*
X134751552Y-86561331D02*
G01*
X134833627Y-86595328D01*
X134833629Y-86595329D01*
X134870813Y-86620175D01*
X134907495Y-86644685D01*
X134970315Y-86707505D01*
X135019672Y-86781373D01*
X135053669Y-86863448D01*
X135071000Y-86950579D01*
X135071000Y-87039421D01*
X135053669Y-87126552D01*
X135019672Y-87208627D01*
X135019671Y-87208629D01*
X134970314Y-87282496D01*
X134907496Y-87345314D01*
X134833629Y-87394671D01*
X134833628Y-87394672D01*
X134833627Y-87394672D01*
X134751552Y-87428669D01*
X134664421Y-87446000D01*
X134575579Y-87446000D01*
X134488448Y-87428669D01*
X134406373Y-87394672D01*
X134406372Y-87394672D01*
X134406371Y-87394671D01*
X134332504Y-87345314D01*
X134269686Y-87282496D01*
X134220329Y-87208629D01*
X134220328Y-87208627D01*
X134186331Y-87126552D01*
X134169000Y-87039421D01*
X134169000Y-86950579D01*
X134186331Y-86863448D01*
X134220328Y-86781373D01*
X134269685Y-86707505D01*
X134332505Y-86644685D01*
X134369187Y-86620175D01*
X134406371Y-86595329D01*
X134406373Y-86595328D01*
X134488448Y-86561331D01*
X134575579Y-86544000D01*
X134664421Y-86544000D01*
X134751552Y-86561331D01*
X134751552Y-86561331D01*
G37*
G36*
X130941552Y-86561331D02*
G01*
X131023627Y-86595328D01*
X131023629Y-86595329D01*
X131060813Y-86620175D01*
X131097495Y-86644685D01*
X131160315Y-86707505D01*
X131209672Y-86781373D01*
X131243669Y-86863448D01*
X131261000Y-86950579D01*
X131261000Y-87039421D01*
X131243669Y-87126552D01*
X131209672Y-87208627D01*
X131209671Y-87208629D01*
X131160314Y-87282496D01*
X131097496Y-87345314D01*
X131023629Y-87394671D01*
X131023628Y-87394672D01*
X131023627Y-87394672D01*
X130941552Y-87428669D01*
X130854421Y-87446000D01*
X130765579Y-87446000D01*
X130678448Y-87428669D01*
X130596373Y-87394672D01*
X130596372Y-87394672D01*
X130596371Y-87394671D01*
X130522504Y-87345314D01*
X130459686Y-87282496D01*
X130410329Y-87208629D01*
X130410328Y-87208627D01*
X130376331Y-87126552D01*
X130359000Y-87039421D01*
X130359000Y-86950579D01*
X130376331Y-86863448D01*
X130410328Y-86781373D01*
X130459685Y-86707505D01*
X130522505Y-86644685D01*
X130559187Y-86620175D01*
X130596371Y-86595329D01*
X130596373Y-86595328D01*
X130678448Y-86561331D01*
X130765579Y-86544000D01*
X130854421Y-86544000D01*
X130941552Y-86561331D01*
X130941552Y-86561331D01*
G37*
G36*
X136021552Y-86561331D02*
G01*
X136103627Y-86595328D01*
X136103629Y-86595329D01*
X136140813Y-86620175D01*
X136177495Y-86644685D01*
X136240315Y-86707505D01*
X136289672Y-86781373D01*
X136323669Y-86863448D01*
X136341000Y-86950579D01*
X136341000Y-87039421D01*
X136323669Y-87126552D01*
X136289672Y-87208627D01*
X136289671Y-87208629D01*
X136240314Y-87282496D01*
X136177496Y-87345314D01*
X136103629Y-87394671D01*
X136103628Y-87394672D01*
X136103627Y-87394672D01*
X136021552Y-87428669D01*
X135934421Y-87446000D01*
X135845579Y-87446000D01*
X135758448Y-87428669D01*
X135676373Y-87394672D01*
X135676372Y-87394672D01*
X135676371Y-87394671D01*
X135602504Y-87345314D01*
X135539686Y-87282496D01*
X135490329Y-87208629D01*
X135490328Y-87208627D01*
X135456331Y-87126552D01*
X135439000Y-87039421D01*
X135439000Y-86950579D01*
X135456331Y-86863448D01*
X135490328Y-86781373D01*
X135539685Y-86707505D01*
X135602505Y-86644685D01*
X135639187Y-86620175D01*
X135676371Y-86595329D01*
X135676373Y-86595328D01*
X135758448Y-86561331D01*
X135845579Y-86544000D01*
X135934421Y-86544000D01*
X136021552Y-86561331D01*
X136021552Y-86561331D01*
G37*
G36*
X137291552Y-86561331D02*
G01*
X137373627Y-86595328D01*
X137373629Y-86595329D01*
X137410813Y-86620175D01*
X137447495Y-86644685D01*
X137510315Y-86707505D01*
X137559672Y-86781373D01*
X137593669Y-86863448D01*
X137611000Y-86950579D01*
X137611000Y-87039421D01*
X137593669Y-87126552D01*
X137559672Y-87208627D01*
X137559671Y-87208629D01*
X137510314Y-87282496D01*
X137447496Y-87345314D01*
X137373629Y-87394671D01*
X137373628Y-87394672D01*
X137373627Y-87394672D01*
X137291552Y-87428669D01*
X137204421Y-87446000D01*
X137115579Y-87446000D01*
X137028448Y-87428669D01*
X136946373Y-87394672D01*
X136946372Y-87394672D01*
X136946371Y-87394671D01*
X136872504Y-87345314D01*
X136809686Y-87282496D01*
X136760329Y-87208629D01*
X136760328Y-87208627D01*
X136726331Y-87126552D01*
X136709000Y-87039421D01*
X136709000Y-86950579D01*
X136726331Y-86863448D01*
X136760328Y-86781373D01*
X136809685Y-86707505D01*
X136872505Y-86644685D01*
X136909187Y-86620175D01*
X136946371Y-86595329D01*
X136946373Y-86595328D01*
X137028448Y-86561331D01*
X137115579Y-86544000D01*
X137204421Y-86544000D01*
X137291552Y-86561331D01*
X137291552Y-86561331D01*
G37*
G36*
X138561552Y-86561331D02*
G01*
X138643627Y-86595328D01*
X138643629Y-86595329D01*
X138680813Y-86620175D01*
X138717495Y-86644685D01*
X138780315Y-86707505D01*
X138829672Y-86781373D01*
X138863669Y-86863448D01*
X138881000Y-86950579D01*
X138881000Y-87039421D01*
X138863669Y-87126552D01*
X138829672Y-87208627D01*
X138829671Y-87208629D01*
X138780314Y-87282496D01*
X138717496Y-87345314D01*
X138643629Y-87394671D01*
X138643628Y-87394672D01*
X138643627Y-87394672D01*
X138561552Y-87428669D01*
X138474421Y-87446000D01*
X138385579Y-87446000D01*
X138298448Y-87428669D01*
X138216373Y-87394672D01*
X138216372Y-87394672D01*
X138216371Y-87394671D01*
X138142504Y-87345314D01*
X138079686Y-87282496D01*
X138030329Y-87208629D01*
X138030328Y-87208627D01*
X137996331Y-87126552D01*
X137979000Y-87039421D01*
X137979000Y-86950579D01*
X137996331Y-86863448D01*
X138030328Y-86781373D01*
X138079685Y-86707505D01*
X138142505Y-86644685D01*
X138179187Y-86620175D01*
X138216371Y-86595329D01*
X138216373Y-86595328D01*
X138298448Y-86561331D01*
X138385579Y-86544000D01*
X138474421Y-86544000D01*
X138561552Y-86561331D01*
X138561552Y-86561331D01*
G37*
G36*
X139831552Y-86561331D02*
G01*
X139913627Y-86595328D01*
X139913629Y-86595329D01*
X139950813Y-86620175D01*
X139987495Y-86644685D01*
X140050315Y-86707505D01*
X140099672Y-86781373D01*
X140133669Y-86863448D01*
X140151000Y-86950579D01*
X140151000Y-87039421D01*
X140133669Y-87126552D01*
X140099672Y-87208627D01*
X140099671Y-87208629D01*
X140050314Y-87282496D01*
X139987496Y-87345314D01*
X139913629Y-87394671D01*
X139913628Y-87394672D01*
X139913627Y-87394672D01*
X139831552Y-87428669D01*
X139744421Y-87446000D01*
X139655579Y-87446000D01*
X139568448Y-87428669D01*
X139486373Y-87394672D01*
X139486372Y-87394672D01*
X139486371Y-87394671D01*
X139412504Y-87345314D01*
X139349686Y-87282496D01*
X139300329Y-87208629D01*
X139300328Y-87208627D01*
X139266331Y-87126552D01*
X139249000Y-87039421D01*
X139249000Y-86950579D01*
X139266331Y-86863448D01*
X139300328Y-86781373D01*
X139349685Y-86707505D01*
X139412505Y-86644685D01*
X139449187Y-86620175D01*
X139486371Y-86595329D01*
X139486373Y-86595328D01*
X139568448Y-86561331D01*
X139655579Y-86544000D01*
X139744421Y-86544000D01*
X139831552Y-86561331D01*
X139831552Y-86561331D01*
G37*
G36*
X141101552Y-86561331D02*
G01*
X141183627Y-86595328D01*
X141183629Y-86595329D01*
X141220813Y-86620175D01*
X141257495Y-86644685D01*
X141320315Y-86707505D01*
X141369672Y-86781373D01*
X141403669Y-86863448D01*
X141421000Y-86950579D01*
X141421000Y-87039421D01*
X141403669Y-87126552D01*
X141369672Y-87208627D01*
X141369671Y-87208629D01*
X141320314Y-87282496D01*
X141257496Y-87345314D01*
X141183629Y-87394671D01*
X141183628Y-87394672D01*
X141183627Y-87394672D01*
X141101552Y-87428669D01*
X141014421Y-87446000D01*
X140925579Y-87446000D01*
X140838448Y-87428669D01*
X140756373Y-87394672D01*
X140756372Y-87394672D01*
X140756371Y-87394671D01*
X140682504Y-87345314D01*
X140619686Y-87282496D01*
X140570329Y-87208629D01*
X140570328Y-87208627D01*
X140536331Y-87126552D01*
X140519000Y-87039421D01*
X140519000Y-86950579D01*
X140536331Y-86863448D01*
X140570328Y-86781373D01*
X140619685Y-86707505D01*
X140682505Y-86644685D01*
X140719187Y-86620175D01*
X140756371Y-86595329D01*
X140756373Y-86595328D01*
X140838448Y-86561331D01*
X140925579Y-86544000D01*
X141014421Y-86544000D01*
X141101552Y-86561331D01*
X141101552Y-86561331D01*
G37*
G36*
X129671552Y-86561331D02*
G01*
X129753627Y-86595328D01*
X129753629Y-86595329D01*
X129790813Y-86620175D01*
X129827495Y-86644685D01*
X129890315Y-86707505D01*
X129939672Y-86781373D01*
X129973669Y-86863448D01*
X129991000Y-86950579D01*
X129991000Y-87039421D01*
X129973669Y-87126552D01*
X129939672Y-87208627D01*
X129939671Y-87208629D01*
X129890314Y-87282496D01*
X129827496Y-87345314D01*
X129753629Y-87394671D01*
X129753628Y-87394672D01*
X129753627Y-87394672D01*
X129671552Y-87428669D01*
X129584421Y-87446000D01*
X129495579Y-87446000D01*
X129408448Y-87428669D01*
X129326373Y-87394672D01*
X129326372Y-87394672D01*
X129326371Y-87394671D01*
X129252504Y-87345314D01*
X129189686Y-87282496D01*
X129140329Y-87208629D01*
X129140328Y-87208627D01*
X129106331Y-87126552D01*
X129089000Y-87039421D01*
X129089000Y-86950579D01*
X129106331Y-86863448D01*
X129140328Y-86781373D01*
X129189685Y-86707505D01*
X129252505Y-86644685D01*
X129289187Y-86620175D01*
X129326371Y-86595329D01*
X129326373Y-86595328D01*
X129408448Y-86561331D01*
X129495579Y-86544000D01*
X129584421Y-86544000D01*
X129671552Y-86561331D01*
X129671552Y-86561331D01*
G37*
G36*
X128401552Y-86561331D02*
G01*
X128483627Y-86595328D01*
X128483629Y-86595329D01*
X128520813Y-86620175D01*
X128557495Y-86644685D01*
X128620315Y-86707505D01*
X128669672Y-86781373D01*
X128703669Y-86863448D01*
X128721000Y-86950579D01*
X128721000Y-87039421D01*
X128703669Y-87126552D01*
X128669672Y-87208627D01*
X128669671Y-87208629D01*
X128620314Y-87282496D01*
X128557496Y-87345314D01*
X128483629Y-87394671D01*
X128483628Y-87394672D01*
X128483627Y-87394672D01*
X128401552Y-87428669D01*
X128314421Y-87446000D01*
X128225579Y-87446000D01*
X128138448Y-87428669D01*
X128056373Y-87394672D01*
X128056372Y-87394672D01*
X128056371Y-87394671D01*
X127982504Y-87345314D01*
X127919686Y-87282496D01*
X127870329Y-87208629D01*
X127870328Y-87208627D01*
X127836331Y-87126552D01*
X127819000Y-87039421D01*
X127819000Y-86950579D01*
X127836331Y-86863448D01*
X127870328Y-86781373D01*
X127919685Y-86707505D01*
X127982505Y-86644685D01*
X128019187Y-86620175D01*
X128056371Y-86595329D01*
X128056373Y-86595328D01*
X128138448Y-86561331D01*
X128225579Y-86544000D01*
X128314421Y-86544000D01*
X128401552Y-86561331D01*
X128401552Y-86561331D01*
G37*
G36*
X142371552Y-86561331D02*
G01*
X142453627Y-86595328D01*
X142453629Y-86595329D01*
X142490813Y-86620175D01*
X142527495Y-86644685D01*
X142590315Y-86707505D01*
X142639672Y-86781373D01*
X142673669Y-86863448D01*
X142691000Y-86950579D01*
X142691000Y-87039421D01*
X142673669Y-87126552D01*
X142639672Y-87208627D01*
X142639671Y-87208629D01*
X142590314Y-87282496D01*
X142527496Y-87345314D01*
X142453629Y-87394671D01*
X142453628Y-87394672D01*
X142453627Y-87394672D01*
X142371552Y-87428669D01*
X142284421Y-87446000D01*
X142195579Y-87446000D01*
X142108448Y-87428669D01*
X142026373Y-87394672D01*
X142026372Y-87394672D01*
X142026371Y-87394671D01*
X141952504Y-87345314D01*
X141889686Y-87282496D01*
X141840329Y-87208629D01*
X141840328Y-87208627D01*
X141806331Y-87126552D01*
X141789000Y-87039421D01*
X141789000Y-86950579D01*
X141806331Y-86863448D01*
X141840328Y-86781373D01*
X141889685Y-86707505D01*
X141952505Y-86644685D01*
X141989187Y-86620175D01*
X142026371Y-86595329D01*
X142026373Y-86595328D01*
X142108448Y-86561331D01*
X142195579Y-86544000D01*
X142284421Y-86544000D01*
X142371552Y-86561331D01*
X142371552Y-86561331D01*
G37*
G36*
X143641552Y-86561331D02*
G01*
X143723627Y-86595328D01*
X143723629Y-86595329D01*
X143760813Y-86620175D01*
X143797495Y-86644685D01*
X143860315Y-86707505D01*
X143909672Y-86781373D01*
X143943669Y-86863448D01*
X143961000Y-86950579D01*
X143961000Y-87039421D01*
X143943669Y-87126552D01*
X143909672Y-87208627D01*
X143909671Y-87208629D01*
X143860314Y-87282496D01*
X143797496Y-87345314D01*
X143723629Y-87394671D01*
X143723628Y-87394672D01*
X143723627Y-87394672D01*
X143641552Y-87428669D01*
X143554421Y-87446000D01*
X143465579Y-87446000D01*
X143378448Y-87428669D01*
X143296373Y-87394672D01*
X143296372Y-87394672D01*
X143296371Y-87394671D01*
X143222504Y-87345314D01*
X143159686Y-87282496D01*
X143110329Y-87208629D01*
X143110328Y-87208627D01*
X143076331Y-87126552D01*
X143059000Y-87039421D01*
X143059000Y-86950579D01*
X143076331Y-86863448D01*
X143110328Y-86781373D01*
X143159685Y-86707505D01*
X143222505Y-86644685D01*
X143259187Y-86620175D01*
X143296371Y-86595329D01*
X143296373Y-86595328D01*
X143378448Y-86561331D01*
X143465579Y-86544000D01*
X143554421Y-86544000D01*
X143641552Y-86561331D01*
X143641552Y-86561331D01*
G37*
G36*
X144911552Y-86561331D02*
G01*
X144993627Y-86595328D01*
X144993629Y-86595329D01*
X145030813Y-86620175D01*
X145067495Y-86644685D01*
X145130315Y-86707505D01*
X145179672Y-86781373D01*
X145213669Y-86863448D01*
X145231000Y-86950579D01*
X145231000Y-87039421D01*
X145213669Y-87126552D01*
X145179672Y-87208627D01*
X145179671Y-87208629D01*
X145130314Y-87282496D01*
X145067496Y-87345314D01*
X144993629Y-87394671D01*
X144993628Y-87394672D01*
X144993627Y-87394672D01*
X144911552Y-87428669D01*
X144824421Y-87446000D01*
X144735579Y-87446000D01*
X144648448Y-87428669D01*
X144566373Y-87394672D01*
X144566372Y-87394672D01*
X144566371Y-87394671D01*
X144492504Y-87345314D01*
X144429686Y-87282496D01*
X144380329Y-87208629D01*
X144380328Y-87208627D01*
X144346331Y-87126552D01*
X144329000Y-87039421D01*
X144329000Y-86950579D01*
X144346331Y-86863448D01*
X144380328Y-86781373D01*
X144429685Y-86707505D01*
X144492505Y-86644685D01*
X144529187Y-86620175D01*
X144566371Y-86595329D01*
X144566373Y-86595328D01*
X144648448Y-86561331D01*
X144735579Y-86544000D01*
X144824421Y-86544000D01*
X144911552Y-86561331D01*
X144911552Y-86561331D01*
G37*
G36*
X146181552Y-86561331D02*
G01*
X146263627Y-86595328D01*
X146263629Y-86595329D01*
X146300813Y-86620175D01*
X146337495Y-86644685D01*
X146400315Y-86707505D01*
X146449672Y-86781373D01*
X146483669Y-86863448D01*
X146501000Y-86950579D01*
X146501000Y-87039421D01*
X146483669Y-87126552D01*
X146449672Y-87208627D01*
X146449671Y-87208629D01*
X146400314Y-87282496D01*
X146337496Y-87345314D01*
X146263629Y-87394671D01*
X146263628Y-87394672D01*
X146263627Y-87394672D01*
X146181552Y-87428669D01*
X146094421Y-87446000D01*
X146005579Y-87446000D01*
X145918448Y-87428669D01*
X145836373Y-87394672D01*
X145836372Y-87394672D01*
X145836371Y-87394671D01*
X145762504Y-87345314D01*
X145699686Y-87282496D01*
X145650329Y-87208629D01*
X145650328Y-87208627D01*
X145616331Y-87126552D01*
X145599000Y-87039421D01*
X145599000Y-86950579D01*
X145616331Y-86863448D01*
X145650328Y-86781373D01*
X145699685Y-86707505D01*
X145762505Y-86644685D01*
X145799187Y-86620175D01*
X145836371Y-86595329D01*
X145836373Y-86595328D01*
X145918448Y-86561331D01*
X146005579Y-86544000D01*
X146094421Y-86544000D01*
X146181552Y-86561331D01*
X146181552Y-86561331D01*
G37*
G36*
X127131552Y-86561331D02*
G01*
X127213627Y-86595328D01*
X127213629Y-86595329D01*
X127250813Y-86620175D01*
X127287495Y-86644685D01*
X127350315Y-86707505D01*
X127399672Y-86781373D01*
X127433669Y-86863448D01*
X127451000Y-86950579D01*
X127451000Y-87039421D01*
X127433669Y-87126552D01*
X127399672Y-87208627D01*
X127399671Y-87208629D01*
X127350314Y-87282496D01*
X127287496Y-87345314D01*
X127213629Y-87394671D01*
X127213628Y-87394672D01*
X127213627Y-87394672D01*
X127131552Y-87428669D01*
X127044421Y-87446000D01*
X126955579Y-87446000D01*
X126868448Y-87428669D01*
X126786373Y-87394672D01*
X126786372Y-87394672D01*
X126786371Y-87394671D01*
X126712504Y-87345314D01*
X126649686Y-87282496D01*
X126600329Y-87208629D01*
X126600328Y-87208627D01*
X126566331Y-87126552D01*
X126549000Y-87039421D01*
X126549000Y-86950579D01*
X126566331Y-86863448D01*
X126600328Y-86781373D01*
X126649685Y-86707505D01*
X126712505Y-86644685D01*
X126749187Y-86620175D01*
X126786371Y-86595329D01*
X126786373Y-86595328D01*
X126868448Y-86561331D01*
X126955579Y-86544000D01*
X127044421Y-86544000D01*
X127131552Y-86561331D01*
X127131552Y-86561331D01*
G37*
G36*
X132211552Y-86561331D02*
G01*
X132293627Y-86595328D01*
X132293629Y-86595329D01*
X132330813Y-86620175D01*
X132367495Y-86644685D01*
X132430315Y-86707505D01*
X132479672Y-86781373D01*
X132513669Y-86863448D01*
X132531000Y-86950579D01*
X132531000Y-87039421D01*
X132513669Y-87126552D01*
X132479672Y-87208627D01*
X132479671Y-87208629D01*
X132430314Y-87282496D01*
X132367496Y-87345314D01*
X132293629Y-87394671D01*
X132293628Y-87394672D01*
X132293627Y-87394672D01*
X132211552Y-87428669D01*
X132124421Y-87446000D01*
X132035579Y-87446000D01*
X131948448Y-87428669D01*
X131866373Y-87394672D01*
X131866372Y-87394672D01*
X131866371Y-87394671D01*
X131792504Y-87345314D01*
X131729686Y-87282496D01*
X131680329Y-87208629D01*
X131680328Y-87208627D01*
X131646331Y-87126552D01*
X131629000Y-87039421D01*
X131629000Y-86950579D01*
X131646331Y-86863448D01*
X131680328Y-86781373D01*
X131729685Y-86707505D01*
X131792505Y-86644685D01*
X131829187Y-86620175D01*
X131866371Y-86595329D01*
X131866373Y-86595328D01*
X131948448Y-86561331D01*
X132035579Y-86544000D01*
X132124421Y-86544000D01*
X132211552Y-86561331D01*
X132211552Y-86561331D01*
G37*
M02*
