G04 #@! TF.GenerationSoftware,KiCad,Pcbnew,5.1.2-f72e74a~84~ubuntu18.04.1*
G04 #@! TF.CreationDate,2019-06-21T19:35:54+10:00*
G04 #@! TF.ProjectId,axis-encoder,61786973-2d65-46e6-936f-6465722e6b69,21/06/19*
G04 #@! TF.SameCoordinates,Original*
G04 #@! TF.FileFunction,Legend,Bot*
G04 #@! TF.FilePolarity,Positive*
%FSLAX46Y46*%
G04 Gerber Fmt 4.6, Leading zero omitted, Abs format (unit mm)*
G04 Created by KiCad (PCBNEW 5.1.2-f72e74a~84~ubuntu18.04.1) date 2019-06-21 19:35:54*
%MOMM*%
%LPD*%
G04 APERTURE LIST*
%ADD10C,0.100000*%
%ADD11C,7.102000*%
%ADD12C,0.902000*%
%ADD13R,1.802000X1.802000*%
%ADD14O,1.802000X1.802000*%
%ADD15R,2.302000X2.302000*%
%ADD16C,2.302000*%
G04 APERTURE END LIST*
%LPC*%
D10*
G36*
X153035000Y-87884000D02*
G01*
X125095000Y-87884000D01*
X125095000Y-86360000D01*
X153035000Y-86360000D01*
X153035000Y-87884000D01*
G37*
X153035000Y-87884000D02*
X125095000Y-87884000D01*
X125095000Y-86360000D01*
X153035000Y-86360000D01*
X153035000Y-87884000D01*
D11*
X165100000Y-97790000D03*
D12*
X167725000Y-97790000D03*
X166956155Y-99646155D03*
X165100000Y-100415000D03*
X163243845Y-99646155D03*
X162475000Y-97790000D03*
X163243845Y-95933845D03*
X165100000Y-95165000D03*
X166956155Y-95933845D03*
D13*
X123825000Y-91440000D03*
D14*
X123825000Y-93980000D03*
X123825000Y-96520000D03*
X123825000Y-99060000D03*
X123825000Y-101600000D03*
X123825000Y-104140000D03*
D15*
X156845000Y-88900000D03*
D16*
X156845000Y-91440000D03*
X156845000Y-93980000D03*
X156845000Y-96520000D03*
X156845000Y-106680000D03*
X156845000Y-104140000D03*
X156845000Y-101600000D03*
D15*
X156845000Y-99060000D03*
D12*
X133350000Y-86995000D03*
X134620000Y-86995000D03*
X135890000Y-86995000D03*
X137160000Y-86995000D03*
X138430000Y-86995000D03*
X139700000Y-86995000D03*
X140970000Y-86995000D03*
X142240000Y-86995000D03*
X143510000Y-86995000D03*
X144780000Y-86995000D03*
X146050000Y-86995000D03*
X147320000Y-86995000D03*
X148590000Y-86995000D03*
X149860000Y-86995000D03*
X151130000Y-86995000D03*
X152400000Y-86995000D03*
X125730000Y-86995000D03*
X128270000Y-86995000D03*
X129540000Y-86995000D03*
X130810000Y-86995000D03*
X132080000Y-86995000D03*
X147955000Y-105410000D03*
X147955000Y-100965000D03*
X147955000Y-96520000D03*
X147955000Y-92075000D03*
X139065000Y-98425000D03*
X145415000Y-94742000D03*
X146050000Y-104140000D03*
X128778000Y-92710000D03*
X128778000Y-95250000D03*
X128778000Y-97790000D03*
X128778000Y-100330000D03*
X137795000Y-106680000D03*
X144145000Y-99060000D03*
X127000000Y-86995000D03*
X126365000Y-106045000D03*
X135001000Y-106807000D03*
X139065000Y-89281000D03*
X140843000Y-93980000D03*
X137287000Y-93980000D03*
X136525000Y-100203000D03*
X136525000Y-102997000D03*
X152527000Y-100965000D03*
X152527000Y-105410000D03*
X152527000Y-92075000D03*
X152527000Y-96520000D03*
M02*
