G04 #@! TF.GenerationSoftware,KiCad,Pcbnew,5.1.2-f72e74a~84~ubuntu18.04.1*
G04 #@! TF.CreationDate,2019-06-21T19:35:54+10:00*
G04 #@! TF.ProjectId,axis-encoder,61786973-2d65-46e6-936f-6465722e6b69,21/06/19*
G04 #@! TF.SameCoordinates,Original*
G04 #@! TF.FileFunction,Soldermask,Bot*
G04 #@! TF.FilePolarity,Negative*
%FSLAX46Y46*%
G04 Gerber Fmt 4.6, Leading zero omitted, Abs format (unit mm)*
G04 Created by KiCad (PCBNEW 5.1.2-f72e74a~84~ubuntu18.04.1) date 2019-06-21 19:35:54*
%MOMM*%
%LPD*%
G04 APERTURE LIST*
%ADD10C,0.100000*%
G04 APERTURE END LIST*
D10*
G36*
X153035000Y-87884000D02*
G01*
X125095000Y-87884000D01*
X125095000Y-86360000D01*
X153035000Y-86360000D01*
X153035000Y-87884000D01*
G37*
X153035000Y-87884000D02*
X125095000Y-87884000D01*
X125095000Y-86360000D01*
X153035000Y-86360000D01*
X153035000Y-87884000D01*
G36*
X157996000Y-90051000D02*
G01*
X157030993Y-90051000D01*
X157006607Y-90053402D01*
X156983158Y-90060515D01*
X156961547Y-90072066D01*
X156942605Y-90087611D01*
X156927060Y-90106553D01*
X156915509Y-90128164D01*
X156908396Y-90151613D01*
X156905994Y-90175999D01*
X156908396Y-90200385D01*
X156915509Y-90223834D01*
X156927060Y-90245445D01*
X156942605Y-90264387D01*
X156961547Y-90279932D01*
X156983158Y-90291483D01*
X157006608Y-90298596D01*
X157180734Y-90333232D01*
X157390203Y-90419997D01*
X157578720Y-90545960D01*
X157739040Y-90706280D01*
X157865003Y-90894797D01*
X157951768Y-91104266D01*
X157996000Y-91326636D01*
X157996000Y-91553364D01*
X157951768Y-91775734D01*
X157865003Y-91985203D01*
X157739040Y-92173720D01*
X157578720Y-92334040D01*
X157390203Y-92460003D01*
X157390202Y-92460004D01*
X157390201Y-92460004D01*
X157354789Y-92474672D01*
X157180734Y-92546768D01*
X157053161Y-92572144D01*
X156976448Y-92587403D01*
X156952999Y-92594516D01*
X156931388Y-92606067D01*
X156912446Y-92621612D01*
X156896901Y-92640554D01*
X156885350Y-92662165D01*
X156878237Y-92685614D01*
X156875835Y-92710000D01*
X156878237Y-92734386D01*
X156885350Y-92757835D01*
X156896901Y-92779446D01*
X156912446Y-92798388D01*
X156931388Y-92813933D01*
X156952999Y-92825484D01*
X156976448Y-92832597D01*
X157053161Y-92847856D01*
X157180734Y-92873232D01*
X157390203Y-92959997D01*
X157578720Y-93085960D01*
X157739040Y-93246280D01*
X157865003Y-93434797D01*
X157951768Y-93644266D01*
X157996000Y-93866636D01*
X157996000Y-94093364D01*
X157951768Y-94315734D01*
X157865003Y-94525203D01*
X157739040Y-94713720D01*
X157578720Y-94874040D01*
X157390203Y-95000003D01*
X157180734Y-95086768D01*
X157053161Y-95112144D01*
X156976448Y-95127403D01*
X156952999Y-95134516D01*
X156931388Y-95146067D01*
X156912446Y-95161612D01*
X156896901Y-95180554D01*
X156885350Y-95202165D01*
X156878237Y-95225614D01*
X156875835Y-95250000D01*
X156878237Y-95274386D01*
X156885350Y-95297835D01*
X156896901Y-95319446D01*
X156912446Y-95338388D01*
X156931388Y-95353933D01*
X156952999Y-95365484D01*
X156976448Y-95372597D01*
X157053161Y-95387856D01*
X157180734Y-95413232D01*
X157302398Y-95463627D01*
X157348795Y-95482845D01*
X157390203Y-95499997D01*
X157578720Y-95625960D01*
X157739040Y-95786280D01*
X157801537Y-95879814D01*
X157865004Y-95974799D01*
X157882488Y-96017009D01*
X157951768Y-96184266D01*
X157996000Y-96406636D01*
X157996000Y-96633364D01*
X157951768Y-96855734D01*
X157865003Y-97065203D01*
X157739040Y-97253720D01*
X157578720Y-97414040D01*
X157390203Y-97540003D01*
X157180734Y-97626768D01*
X157064192Y-97649950D01*
X157006607Y-97661404D01*
X156983158Y-97668517D01*
X156961547Y-97680068D01*
X156942605Y-97695613D01*
X156927060Y-97714555D01*
X156915509Y-97736166D01*
X156908396Y-97759615D01*
X156905994Y-97784001D01*
X156908396Y-97808387D01*
X156915509Y-97831836D01*
X156927060Y-97853447D01*
X156942605Y-97872389D01*
X156961547Y-97887934D01*
X156983158Y-97899485D01*
X157006607Y-97906598D01*
X157030993Y-97909000D01*
X157996000Y-97909000D01*
X157996000Y-100211000D01*
X157030993Y-100211000D01*
X157006607Y-100213402D01*
X156983158Y-100220515D01*
X156961547Y-100232066D01*
X156942605Y-100247611D01*
X156927060Y-100266553D01*
X156915509Y-100288164D01*
X156908396Y-100311613D01*
X156905994Y-100335999D01*
X156908396Y-100360385D01*
X156915509Y-100383834D01*
X156927060Y-100405445D01*
X156942605Y-100424387D01*
X156961547Y-100439932D01*
X156983158Y-100451483D01*
X157006607Y-100458596D01*
X157064192Y-100470050D01*
X157180734Y-100493232D01*
X157230872Y-100514000D01*
X157354792Y-100565329D01*
X157390203Y-100579997D01*
X157578720Y-100705960D01*
X157739040Y-100866280D01*
X157865003Y-101054797D01*
X157951768Y-101264266D01*
X157996000Y-101486636D01*
X157996000Y-101713364D01*
X157951768Y-101935734D01*
X157865003Y-102145203D01*
X157739040Y-102333720D01*
X157578720Y-102494040D01*
X157390203Y-102620003D01*
X157180734Y-102706768D01*
X157053161Y-102732144D01*
X156976448Y-102747403D01*
X156952999Y-102754516D01*
X156931388Y-102766067D01*
X156912446Y-102781612D01*
X156896901Y-102800554D01*
X156885350Y-102822165D01*
X156878237Y-102845614D01*
X156875835Y-102870000D01*
X156878237Y-102894386D01*
X156885350Y-102917835D01*
X156896901Y-102939446D01*
X156912446Y-102958388D01*
X156931388Y-102973933D01*
X156952999Y-102985484D01*
X156976448Y-102992597D01*
X157053161Y-103007856D01*
X157180734Y-103033232D01*
X157390203Y-103119997D01*
X157578720Y-103245960D01*
X157739040Y-103406280D01*
X157865003Y-103594797D01*
X157951768Y-103804266D01*
X157996000Y-104026636D01*
X157996000Y-104253364D01*
X157951768Y-104475734D01*
X157865003Y-104685203D01*
X157739040Y-104873720D01*
X157578720Y-105034040D01*
X157390203Y-105160003D01*
X157180734Y-105246768D01*
X157053161Y-105272144D01*
X156976448Y-105287403D01*
X156952999Y-105294516D01*
X156931388Y-105306067D01*
X156912446Y-105321612D01*
X156896901Y-105340554D01*
X156885350Y-105362165D01*
X156878237Y-105385614D01*
X156875835Y-105410000D01*
X156878237Y-105434386D01*
X156885350Y-105457835D01*
X156896901Y-105479446D01*
X156912446Y-105498388D01*
X156931388Y-105513933D01*
X156952999Y-105525484D01*
X156976448Y-105532597D01*
X157053161Y-105547856D01*
X157180734Y-105573232D01*
X157230872Y-105594000D01*
X157354792Y-105645329D01*
X157390203Y-105659997D01*
X157578720Y-105785960D01*
X157739040Y-105946280D01*
X157865003Y-106134797D01*
X157951768Y-106344266D01*
X157996000Y-106566636D01*
X157996000Y-106793364D01*
X157951768Y-107015734D01*
X157865003Y-107225203D01*
X157739040Y-107413720D01*
X157578720Y-107574040D01*
X157390203Y-107700003D01*
X157180734Y-107786768D01*
X157069549Y-107808884D01*
X156958365Y-107831000D01*
X156731635Y-107831000D01*
X156620451Y-107808884D01*
X156509266Y-107786768D01*
X156299797Y-107700003D01*
X156111280Y-107574040D01*
X155950960Y-107413720D01*
X155824997Y-107225203D01*
X155738232Y-107015734D01*
X155694000Y-106793364D01*
X155694000Y-106566636D01*
X155738232Y-106344266D01*
X155824997Y-106134797D01*
X155950960Y-105946280D01*
X156111280Y-105785960D01*
X156299797Y-105659997D01*
X156335209Y-105645329D01*
X156459128Y-105594000D01*
X156509266Y-105573232D01*
X156636839Y-105547856D01*
X156713552Y-105532597D01*
X156737001Y-105525484D01*
X156758612Y-105513933D01*
X156777554Y-105498388D01*
X156793099Y-105479446D01*
X156804650Y-105457835D01*
X156811763Y-105434386D01*
X156814165Y-105410000D01*
X156811763Y-105385614D01*
X156804650Y-105362165D01*
X156793099Y-105340554D01*
X156777554Y-105321612D01*
X156758612Y-105306067D01*
X156737001Y-105294516D01*
X156713552Y-105287403D01*
X156636839Y-105272144D01*
X156509266Y-105246768D01*
X156299797Y-105160003D01*
X156111280Y-105034040D01*
X155950960Y-104873720D01*
X155824997Y-104685203D01*
X155738232Y-104475734D01*
X155694000Y-104253364D01*
X155694000Y-104026636D01*
X155738232Y-103804266D01*
X155824997Y-103594797D01*
X155950960Y-103406280D01*
X156111280Y-103245960D01*
X156299797Y-103119997D01*
X156509266Y-103033232D01*
X156636839Y-103007856D01*
X156713552Y-102992597D01*
X156737001Y-102985484D01*
X156758612Y-102973933D01*
X156777554Y-102958388D01*
X156793099Y-102939446D01*
X156804650Y-102917835D01*
X156811763Y-102894386D01*
X156814165Y-102870000D01*
X156811763Y-102845614D01*
X156804650Y-102822165D01*
X156793099Y-102800554D01*
X156777554Y-102781612D01*
X156758612Y-102766067D01*
X156737001Y-102754516D01*
X156713552Y-102747403D01*
X156636839Y-102732144D01*
X156509266Y-102706768D01*
X156299797Y-102620003D01*
X156111280Y-102494040D01*
X155950960Y-102333720D01*
X155824997Y-102145203D01*
X155738232Y-101935734D01*
X155694000Y-101713364D01*
X155694000Y-101486636D01*
X155738232Y-101264266D01*
X155824997Y-101054797D01*
X155950960Y-100866280D01*
X156111280Y-100705960D01*
X156299797Y-100579997D01*
X156335209Y-100565329D01*
X156459128Y-100514000D01*
X156509266Y-100493232D01*
X156625808Y-100470050D01*
X156683393Y-100458596D01*
X156706842Y-100451483D01*
X156728453Y-100439932D01*
X156747395Y-100424387D01*
X156762940Y-100405445D01*
X156774491Y-100383834D01*
X156781604Y-100360385D01*
X156784006Y-100335999D01*
X156781604Y-100311613D01*
X156774491Y-100288164D01*
X156762940Y-100266553D01*
X156747395Y-100247611D01*
X156728453Y-100232066D01*
X156706842Y-100220515D01*
X156683393Y-100213402D01*
X156659007Y-100211000D01*
X155694000Y-100211000D01*
X155694000Y-97909000D01*
X156659007Y-97909000D01*
X156683393Y-97906598D01*
X156706842Y-97899485D01*
X156728453Y-97887934D01*
X156747395Y-97872389D01*
X156762940Y-97853447D01*
X156774491Y-97831836D01*
X156781604Y-97808387D01*
X156784006Y-97784001D01*
X156781604Y-97759615D01*
X156774491Y-97736166D01*
X156762940Y-97714555D01*
X156747395Y-97695613D01*
X156728453Y-97680068D01*
X156706842Y-97668517D01*
X156683393Y-97661404D01*
X156625808Y-97649950D01*
X156509266Y-97626768D01*
X156299797Y-97540003D01*
X156111280Y-97414040D01*
X155950960Y-97253720D01*
X155824997Y-97065203D01*
X155738232Y-96855734D01*
X155694000Y-96633364D01*
X155694000Y-96406636D01*
X155738232Y-96184266D01*
X155807512Y-96017009D01*
X155824996Y-95974799D01*
X155888463Y-95879814D01*
X155950960Y-95786280D01*
X156111280Y-95625960D01*
X156299797Y-95499997D01*
X156341206Y-95482845D01*
X156387602Y-95463627D01*
X156509266Y-95413232D01*
X156636839Y-95387856D01*
X156713552Y-95372597D01*
X156737001Y-95365484D01*
X156758612Y-95353933D01*
X156777554Y-95338388D01*
X156793099Y-95319446D01*
X156804650Y-95297835D01*
X156811763Y-95274386D01*
X156814165Y-95250000D01*
X156811763Y-95225614D01*
X156804650Y-95202165D01*
X156793099Y-95180554D01*
X156777554Y-95161612D01*
X156758612Y-95146067D01*
X156737001Y-95134516D01*
X156713552Y-95127403D01*
X156636839Y-95112144D01*
X156509266Y-95086768D01*
X156299797Y-95000003D01*
X156111280Y-94874040D01*
X155950960Y-94713720D01*
X155824997Y-94525203D01*
X155738232Y-94315734D01*
X155694000Y-94093364D01*
X155694000Y-93866636D01*
X155738232Y-93644266D01*
X155824997Y-93434797D01*
X155950960Y-93246280D01*
X156111280Y-93085960D01*
X156299797Y-92959997D01*
X156509266Y-92873232D01*
X156636839Y-92847856D01*
X156713552Y-92832597D01*
X156737001Y-92825484D01*
X156758612Y-92813933D01*
X156777554Y-92798388D01*
X156793099Y-92779446D01*
X156804650Y-92757835D01*
X156811763Y-92734386D01*
X156814165Y-92710000D01*
X156811763Y-92685614D01*
X156804650Y-92662165D01*
X156793099Y-92640554D01*
X156777554Y-92621612D01*
X156758612Y-92606067D01*
X156737001Y-92594516D01*
X156713552Y-92587403D01*
X156636839Y-92572144D01*
X156509266Y-92546768D01*
X156335211Y-92474672D01*
X156299799Y-92460004D01*
X156299798Y-92460004D01*
X156299797Y-92460003D01*
X156111280Y-92334040D01*
X155950960Y-92173720D01*
X155824997Y-91985203D01*
X155738232Y-91775734D01*
X155694000Y-91553364D01*
X155694000Y-91326636D01*
X155738232Y-91104266D01*
X155824997Y-90894797D01*
X155950960Y-90706280D01*
X156111280Y-90545960D01*
X156299797Y-90419997D01*
X156509266Y-90333232D01*
X156683392Y-90298596D01*
X156706842Y-90291483D01*
X156728453Y-90279932D01*
X156747395Y-90264387D01*
X156762940Y-90245445D01*
X156774491Y-90223834D01*
X156781604Y-90200385D01*
X156784006Y-90175999D01*
X156781604Y-90151613D01*
X156774491Y-90128164D01*
X156762940Y-90106553D01*
X156747395Y-90087611D01*
X156728453Y-90072066D01*
X156706842Y-90060515D01*
X156683393Y-90053402D01*
X156659007Y-90051000D01*
X155694000Y-90051000D01*
X155694000Y-87749000D01*
X157996000Y-87749000D01*
X157996000Y-90051000D01*
X157996000Y-90051000D01*
G37*
G36*
X135132552Y-106373331D02*
G01*
X135214627Y-106407328D01*
X135214629Y-106407329D01*
X135251813Y-106432175D01*
X135288495Y-106456685D01*
X135351315Y-106519505D01*
X135400672Y-106593373D01*
X135434669Y-106675448D01*
X135452000Y-106762579D01*
X135452000Y-106851421D01*
X135434669Y-106938552D01*
X135402699Y-107015733D01*
X135400671Y-107020629D01*
X135351314Y-107094496D01*
X135288496Y-107157314D01*
X135214629Y-107206671D01*
X135214628Y-107206672D01*
X135214627Y-107206672D01*
X135132552Y-107240669D01*
X135045421Y-107258000D01*
X134956579Y-107258000D01*
X134869448Y-107240669D01*
X134787373Y-107206672D01*
X134787372Y-107206672D01*
X134787371Y-107206671D01*
X134713504Y-107157314D01*
X134650686Y-107094496D01*
X134601329Y-107020629D01*
X134599301Y-107015733D01*
X134567331Y-106938552D01*
X134550000Y-106851421D01*
X134550000Y-106762579D01*
X134567331Y-106675448D01*
X134601328Y-106593373D01*
X134650685Y-106519505D01*
X134713505Y-106456685D01*
X134750187Y-106432175D01*
X134787371Y-106407329D01*
X134787373Y-106407328D01*
X134869448Y-106373331D01*
X134956579Y-106356000D01*
X135045421Y-106356000D01*
X135132552Y-106373331D01*
X135132552Y-106373331D01*
G37*
G36*
X137926552Y-106246331D02*
G01*
X138008627Y-106280328D01*
X138008629Y-106280329D01*
X138045813Y-106305175D01*
X138082495Y-106329685D01*
X138145315Y-106392505D01*
X138155219Y-106407328D01*
X138188200Y-106456686D01*
X138194672Y-106466373D01*
X138228669Y-106548448D01*
X138246000Y-106635579D01*
X138246000Y-106724421D01*
X138228669Y-106811552D01*
X138194672Y-106893627D01*
X138194671Y-106893629D01*
X138145314Y-106967496D01*
X138082496Y-107030314D01*
X138008629Y-107079671D01*
X138008628Y-107079672D01*
X138008627Y-107079672D01*
X137926552Y-107113669D01*
X137839421Y-107131000D01*
X137750579Y-107131000D01*
X137663448Y-107113669D01*
X137581373Y-107079672D01*
X137581372Y-107079672D01*
X137581371Y-107079671D01*
X137507504Y-107030314D01*
X137444686Y-106967496D01*
X137395329Y-106893629D01*
X137395328Y-106893627D01*
X137361331Y-106811552D01*
X137344000Y-106724421D01*
X137344000Y-106635579D01*
X137361331Y-106548448D01*
X137395328Y-106466373D01*
X137401801Y-106456686D01*
X137434781Y-106407328D01*
X137444685Y-106392505D01*
X137507505Y-106329685D01*
X137544187Y-106305175D01*
X137581371Y-106280329D01*
X137581373Y-106280328D01*
X137663448Y-106246331D01*
X137750579Y-106229000D01*
X137839421Y-106229000D01*
X137926552Y-106246331D01*
X137926552Y-106246331D01*
G37*
G36*
X126496552Y-105611331D02*
G01*
X126578627Y-105645328D01*
X126578629Y-105645329D01*
X126600579Y-105659996D01*
X126652495Y-105694685D01*
X126715315Y-105757505D01*
X126764672Y-105831373D01*
X126798669Y-105913448D01*
X126816000Y-106000579D01*
X126816000Y-106089421D01*
X126798669Y-106176552D01*
X126764672Y-106258627D01*
X126717193Y-106329685D01*
X126715314Y-106332496D01*
X126652496Y-106395314D01*
X126578629Y-106444671D01*
X126578628Y-106444672D01*
X126578627Y-106444672D01*
X126496552Y-106478669D01*
X126409421Y-106496000D01*
X126320579Y-106496000D01*
X126233448Y-106478669D01*
X126151373Y-106444672D01*
X126151372Y-106444672D01*
X126151371Y-106444671D01*
X126077504Y-106395314D01*
X126014686Y-106332496D01*
X126012808Y-106329685D01*
X125965328Y-106258627D01*
X125931331Y-106176552D01*
X125914000Y-106089421D01*
X125914000Y-106000579D01*
X125931331Y-105913448D01*
X125965328Y-105831373D01*
X126014685Y-105757505D01*
X126077505Y-105694685D01*
X126129421Y-105659996D01*
X126151371Y-105645329D01*
X126151373Y-105645328D01*
X126233448Y-105611331D01*
X126320579Y-105594000D01*
X126409421Y-105594000D01*
X126496552Y-105611331D01*
X126496552Y-105611331D01*
G37*
G36*
X148086552Y-104976331D02*
G01*
X148168627Y-105010328D01*
X148168629Y-105010329D01*
X148195020Y-105027963D01*
X148242495Y-105059685D01*
X148305315Y-105122505D01*
X148354672Y-105196373D01*
X148388669Y-105278448D01*
X148406000Y-105365579D01*
X148406000Y-105454421D01*
X148388669Y-105541552D01*
X148354672Y-105623627D01*
X148307193Y-105694685D01*
X148305314Y-105697496D01*
X148242496Y-105760314D01*
X148168629Y-105809671D01*
X148168628Y-105809672D01*
X148168627Y-105809672D01*
X148086552Y-105843669D01*
X147999421Y-105861000D01*
X147910579Y-105861000D01*
X147823448Y-105843669D01*
X147741373Y-105809672D01*
X147741372Y-105809672D01*
X147741371Y-105809671D01*
X147667504Y-105760314D01*
X147604686Y-105697496D01*
X147602808Y-105694685D01*
X147555328Y-105623627D01*
X147521331Y-105541552D01*
X147504000Y-105454421D01*
X147504000Y-105365579D01*
X147521331Y-105278448D01*
X147555328Y-105196373D01*
X147604685Y-105122505D01*
X147667505Y-105059685D01*
X147714980Y-105027963D01*
X147741371Y-105010329D01*
X147741373Y-105010328D01*
X147823448Y-104976331D01*
X147910579Y-104959000D01*
X147999421Y-104959000D01*
X148086552Y-104976331D01*
X148086552Y-104976331D01*
G37*
G36*
X152658552Y-104976331D02*
G01*
X152740627Y-105010328D01*
X152740629Y-105010329D01*
X152767020Y-105027963D01*
X152814495Y-105059685D01*
X152877315Y-105122505D01*
X152926672Y-105196373D01*
X152960669Y-105278448D01*
X152978000Y-105365579D01*
X152978000Y-105454421D01*
X152960669Y-105541552D01*
X152926672Y-105623627D01*
X152879193Y-105694685D01*
X152877314Y-105697496D01*
X152814496Y-105760314D01*
X152740629Y-105809671D01*
X152740628Y-105809672D01*
X152740627Y-105809672D01*
X152658552Y-105843669D01*
X152571421Y-105861000D01*
X152482579Y-105861000D01*
X152395448Y-105843669D01*
X152313373Y-105809672D01*
X152313372Y-105809672D01*
X152313371Y-105809671D01*
X152239504Y-105760314D01*
X152176686Y-105697496D01*
X152174808Y-105694685D01*
X152127328Y-105623627D01*
X152093331Y-105541552D01*
X152076000Y-105454421D01*
X152076000Y-105365579D01*
X152093331Y-105278448D01*
X152127328Y-105196373D01*
X152176685Y-105122505D01*
X152239505Y-105059685D01*
X152286980Y-105027963D01*
X152313371Y-105010329D01*
X152313373Y-105010328D01*
X152395448Y-104976331D01*
X152482579Y-104959000D01*
X152571421Y-104959000D01*
X152658552Y-104976331D01*
X152658552Y-104976331D01*
G37*
G36*
X123935443Y-103245519D02*
G01*
X124001627Y-103252037D01*
X124171466Y-103303557D01*
X124327991Y-103387222D01*
X124351213Y-103406280D01*
X124465186Y-103499814D01*
X124543135Y-103594797D01*
X124577778Y-103637009D01*
X124661443Y-103793534D01*
X124712963Y-103963373D01*
X124730359Y-104140000D01*
X124712963Y-104316627D01*
X124661443Y-104486466D01*
X124577778Y-104642991D01*
X124548448Y-104678729D01*
X124465186Y-104780186D01*
X124363729Y-104863448D01*
X124327991Y-104892778D01*
X124171466Y-104976443D01*
X124001627Y-105027963D01*
X123939925Y-105034040D01*
X123869260Y-105041000D01*
X123780740Y-105041000D01*
X123710075Y-105034040D01*
X123648373Y-105027963D01*
X123478534Y-104976443D01*
X123322009Y-104892778D01*
X123286271Y-104863448D01*
X123184814Y-104780186D01*
X123101552Y-104678729D01*
X123072222Y-104642991D01*
X122988557Y-104486466D01*
X122937037Y-104316627D01*
X122919641Y-104140000D01*
X122937037Y-103963373D01*
X122988557Y-103793534D01*
X123072222Y-103637009D01*
X123106865Y-103594797D01*
X123184814Y-103499814D01*
X123298787Y-103406280D01*
X123322009Y-103387222D01*
X123478534Y-103303557D01*
X123648373Y-103252037D01*
X123714558Y-103245518D01*
X123780740Y-103239000D01*
X123869260Y-103239000D01*
X123935443Y-103245519D01*
X123935443Y-103245519D01*
G37*
G36*
X146181552Y-103706331D02*
G01*
X146263627Y-103740328D01*
X146263629Y-103740329D01*
X146300813Y-103765175D01*
X146337495Y-103789685D01*
X146400315Y-103852505D01*
X146449672Y-103926373D01*
X146483669Y-104008448D01*
X146501000Y-104095579D01*
X146501000Y-104184421D01*
X146483669Y-104271552D01*
X146464998Y-104316627D01*
X146449671Y-104353629D01*
X146400314Y-104427496D01*
X146337496Y-104490314D01*
X146263629Y-104539671D01*
X146263628Y-104539672D01*
X146263627Y-104539672D01*
X146181552Y-104573669D01*
X146094421Y-104591000D01*
X146005579Y-104591000D01*
X145918448Y-104573669D01*
X145836373Y-104539672D01*
X145836372Y-104539672D01*
X145836371Y-104539671D01*
X145762504Y-104490314D01*
X145699686Y-104427496D01*
X145650329Y-104353629D01*
X145635002Y-104316627D01*
X145616331Y-104271552D01*
X145599000Y-104184421D01*
X145599000Y-104095579D01*
X145616331Y-104008448D01*
X145650328Y-103926373D01*
X145699685Y-103852505D01*
X145762505Y-103789685D01*
X145799187Y-103765175D01*
X145836371Y-103740329D01*
X145836373Y-103740328D01*
X145918448Y-103706331D01*
X146005579Y-103689000D01*
X146094421Y-103689000D01*
X146181552Y-103706331D01*
X146181552Y-103706331D01*
G37*
G36*
X136656552Y-102563331D02*
G01*
X136738627Y-102597328D01*
X136738629Y-102597329D01*
X136812496Y-102646686D01*
X136875314Y-102709504D01*
X136923496Y-102781612D01*
X136924672Y-102783373D01*
X136958669Y-102865448D01*
X136976000Y-102952579D01*
X136976000Y-103041421D01*
X136958669Y-103128552D01*
X136924672Y-103210627D01*
X136924671Y-103210629D01*
X136875314Y-103284496D01*
X136812496Y-103347314D01*
X136738629Y-103396671D01*
X136738628Y-103396672D01*
X136738627Y-103396672D01*
X136656552Y-103430669D01*
X136569421Y-103448000D01*
X136480579Y-103448000D01*
X136393448Y-103430669D01*
X136311373Y-103396672D01*
X136311372Y-103396672D01*
X136311371Y-103396671D01*
X136237504Y-103347314D01*
X136174686Y-103284496D01*
X136125329Y-103210629D01*
X136125328Y-103210627D01*
X136091331Y-103128552D01*
X136074000Y-103041421D01*
X136074000Y-102952579D01*
X136091331Y-102865448D01*
X136125328Y-102783373D01*
X136126505Y-102781612D01*
X136174686Y-102709504D01*
X136237504Y-102646686D01*
X136311371Y-102597329D01*
X136311373Y-102597328D01*
X136393448Y-102563331D01*
X136480579Y-102546000D01*
X136569421Y-102546000D01*
X136656552Y-102563331D01*
X136656552Y-102563331D01*
G37*
G36*
X123935443Y-100705519D02*
G01*
X124001627Y-100712037D01*
X124171466Y-100763557D01*
X124327991Y-100847222D01*
X124350872Y-100866000D01*
X124465186Y-100959814D01*
X124543135Y-101054797D01*
X124577778Y-101097009D01*
X124661443Y-101253534D01*
X124712963Y-101423373D01*
X124730359Y-101600000D01*
X124712963Y-101776627D01*
X124661443Y-101946466D01*
X124577778Y-102102991D01*
X124548448Y-102138729D01*
X124465186Y-102240186D01*
X124363729Y-102323448D01*
X124327991Y-102352778D01*
X124171466Y-102436443D01*
X124001627Y-102487963D01*
X123939925Y-102494040D01*
X123869260Y-102501000D01*
X123780740Y-102501000D01*
X123710075Y-102494040D01*
X123648373Y-102487963D01*
X123478534Y-102436443D01*
X123322009Y-102352778D01*
X123286271Y-102323448D01*
X123184814Y-102240186D01*
X123101552Y-102138729D01*
X123072222Y-102102991D01*
X122988557Y-101946466D01*
X122937037Y-101776627D01*
X122919641Y-101600000D01*
X122937037Y-101423373D01*
X122988557Y-101253534D01*
X123072222Y-101097009D01*
X123106865Y-101054797D01*
X123184814Y-100959814D01*
X123299128Y-100866000D01*
X123322009Y-100847222D01*
X123478534Y-100763557D01*
X123648373Y-100712037D01*
X123714557Y-100705519D01*
X123780740Y-100699000D01*
X123869260Y-100699000D01*
X123935443Y-100705519D01*
X123935443Y-100705519D01*
G37*
G36*
X148086552Y-100531331D02*
G01*
X148168627Y-100565328D01*
X148168629Y-100565329D01*
X148190579Y-100579996D01*
X148242495Y-100614685D01*
X148305315Y-100677505D01*
X148354672Y-100751373D01*
X148388669Y-100833448D01*
X148406000Y-100920579D01*
X148406000Y-101009421D01*
X148388669Y-101096552D01*
X148354672Y-101178627D01*
X148354671Y-101178629D01*
X148305314Y-101252496D01*
X148242496Y-101315314D01*
X148168629Y-101364671D01*
X148168628Y-101364672D01*
X148168627Y-101364672D01*
X148086552Y-101398669D01*
X147999421Y-101416000D01*
X147910579Y-101416000D01*
X147823448Y-101398669D01*
X147741373Y-101364672D01*
X147741372Y-101364672D01*
X147741371Y-101364671D01*
X147667504Y-101315314D01*
X147604686Y-101252496D01*
X147555329Y-101178629D01*
X147555328Y-101178627D01*
X147521331Y-101096552D01*
X147504000Y-101009421D01*
X147504000Y-100920579D01*
X147521331Y-100833448D01*
X147555328Y-100751373D01*
X147604685Y-100677505D01*
X147667505Y-100614685D01*
X147719421Y-100579996D01*
X147741371Y-100565329D01*
X147741373Y-100565328D01*
X147823448Y-100531331D01*
X147910579Y-100514000D01*
X147999421Y-100514000D01*
X148086552Y-100531331D01*
X148086552Y-100531331D01*
G37*
G36*
X152658552Y-100531331D02*
G01*
X152740627Y-100565328D01*
X152740629Y-100565329D01*
X152762579Y-100579996D01*
X152814495Y-100614685D01*
X152877315Y-100677505D01*
X152926672Y-100751373D01*
X152960669Y-100833448D01*
X152978000Y-100920579D01*
X152978000Y-101009421D01*
X152960669Y-101096552D01*
X152926672Y-101178627D01*
X152926671Y-101178629D01*
X152877314Y-101252496D01*
X152814496Y-101315314D01*
X152740629Y-101364671D01*
X152740628Y-101364672D01*
X152740627Y-101364672D01*
X152658552Y-101398669D01*
X152571421Y-101416000D01*
X152482579Y-101416000D01*
X152395448Y-101398669D01*
X152313373Y-101364672D01*
X152313372Y-101364672D01*
X152313371Y-101364671D01*
X152239504Y-101315314D01*
X152176686Y-101252496D01*
X152127329Y-101178629D01*
X152127328Y-101178627D01*
X152093331Y-101096552D01*
X152076000Y-101009421D01*
X152076000Y-100920579D01*
X152093331Y-100833448D01*
X152127328Y-100751373D01*
X152176685Y-100677505D01*
X152239505Y-100614685D01*
X152291421Y-100579996D01*
X152313371Y-100565329D01*
X152313373Y-100565328D01*
X152395448Y-100531331D01*
X152482579Y-100514000D01*
X152571421Y-100514000D01*
X152658552Y-100531331D01*
X152658552Y-100531331D01*
G37*
G36*
X166135787Y-94375462D02*
G01*
X166174955Y-94391686D01*
X166782029Y-94643144D01*
X167363631Y-95031758D01*
X167858242Y-95526369D01*
X168246856Y-96107971D01*
X168370567Y-96406636D01*
X168514538Y-96754213D01*
X168651000Y-97440256D01*
X168651000Y-98139744D01*
X168514538Y-98825787D01*
X168514537Y-98825789D01*
X168246856Y-99472029D01*
X167858242Y-100053631D01*
X167363631Y-100548242D01*
X166782029Y-100936856D01*
X166497289Y-101054799D01*
X166135787Y-101204538D01*
X165449744Y-101341000D01*
X164750256Y-101341000D01*
X164064213Y-101204538D01*
X163702711Y-101054799D01*
X163417971Y-100936856D01*
X162836369Y-100548242D01*
X162341758Y-100053631D01*
X161953144Y-99472029D01*
X161685463Y-98825789D01*
X161685462Y-98825787D01*
X161549000Y-98139744D01*
X161549000Y-97440256D01*
X161685462Y-96754213D01*
X161829433Y-96406636D01*
X161953144Y-96107971D01*
X162341758Y-95526369D01*
X162836369Y-95031758D01*
X163417971Y-94643144D01*
X164025045Y-94391686D01*
X164064213Y-94375462D01*
X164750256Y-94239000D01*
X165449744Y-94239000D01*
X166135787Y-94375462D01*
X166135787Y-94375462D01*
G37*
G36*
X128909552Y-99896331D02*
G01*
X128991627Y-99930328D01*
X128991629Y-99930329D01*
X129018020Y-99947963D01*
X129065495Y-99979685D01*
X129128315Y-100042505D01*
X129177672Y-100116373D01*
X129211669Y-100198448D01*
X129229000Y-100285579D01*
X129229000Y-100374421D01*
X129211669Y-100461552D01*
X129189944Y-100514000D01*
X129177671Y-100543629D01*
X129171199Y-100553315D01*
X129130193Y-100614685D01*
X129128314Y-100617496D01*
X129065496Y-100680314D01*
X128991629Y-100729671D01*
X128991628Y-100729672D01*
X128991627Y-100729672D01*
X128909552Y-100763669D01*
X128822421Y-100781000D01*
X128733579Y-100781000D01*
X128646448Y-100763669D01*
X128564373Y-100729672D01*
X128564372Y-100729672D01*
X128564371Y-100729671D01*
X128490504Y-100680314D01*
X128427686Y-100617496D01*
X128425808Y-100614685D01*
X128384801Y-100553315D01*
X128378329Y-100543629D01*
X128366056Y-100514000D01*
X128344331Y-100461552D01*
X128327000Y-100374421D01*
X128327000Y-100285579D01*
X128344331Y-100198448D01*
X128378328Y-100116373D01*
X128427685Y-100042505D01*
X128490505Y-99979685D01*
X128537980Y-99947963D01*
X128564371Y-99930329D01*
X128564373Y-99930328D01*
X128646448Y-99896331D01*
X128733579Y-99879000D01*
X128822421Y-99879000D01*
X128909552Y-99896331D01*
X128909552Y-99896331D01*
G37*
G36*
X136656552Y-99769331D02*
G01*
X136738627Y-99803328D01*
X136738629Y-99803329D01*
X136812496Y-99852686D01*
X136875314Y-99915504D01*
X136918200Y-99979686D01*
X136924672Y-99989373D01*
X136958669Y-100071448D01*
X136976000Y-100158579D01*
X136976000Y-100247421D01*
X136958669Y-100334552D01*
X136938255Y-100383834D01*
X136924671Y-100416629D01*
X136875314Y-100490496D01*
X136812496Y-100553314D01*
X136738629Y-100602671D01*
X136738628Y-100602672D01*
X136738627Y-100602672D01*
X136656552Y-100636669D01*
X136569421Y-100654000D01*
X136480579Y-100654000D01*
X136393448Y-100636669D01*
X136311373Y-100602672D01*
X136311372Y-100602672D01*
X136311371Y-100602671D01*
X136237504Y-100553314D01*
X136174686Y-100490496D01*
X136125329Y-100416629D01*
X136111745Y-100383834D01*
X136091331Y-100334552D01*
X136074000Y-100247421D01*
X136074000Y-100158579D01*
X136091331Y-100071448D01*
X136125328Y-99989373D01*
X136131801Y-99979686D01*
X136174686Y-99915504D01*
X136237504Y-99852686D01*
X136311371Y-99803329D01*
X136311373Y-99803328D01*
X136393448Y-99769331D01*
X136480579Y-99752000D01*
X136569421Y-99752000D01*
X136656552Y-99769331D01*
X136656552Y-99769331D01*
G37*
G36*
X123935443Y-98165519D02*
G01*
X124001627Y-98172037D01*
X124171466Y-98223557D01*
X124327991Y-98307222D01*
X124363729Y-98336552D01*
X124465186Y-98419814D01*
X124548448Y-98521271D01*
X124577778Y-98557009D01*
X124661443Y-98713534D01*
X124712963Y-98883373D01*
X124730359Y-99060000D01*
X124712963Y-99236627D01*
X124661443Y-99406466D01*
X124577778Y-99562991D01*
X124548448Y-99598729D01*
X124465186Y-99700186D01*
X124380931Y-99769331D01*
X124327991Y-99812778D01*
X124171466Y-99896443D01*
X124001627Y-99947963D01*
X123935443Y-99954481D01*
X123869260Y-99961000D01*
X123780740Y-99961000D01*
X123714557Y-99954481D01*
X123648373Y-99947963D01*
X123478534Y-99896443D01*
X123322009Y-99812778D01*
X123269069Y-99769331D01*
X123184814Y-99700186D01*
X123101552Y-99598729D01*
X123072222Y-99562991D01*
X122988557Y-99406466D01*
X122937037Y-99236627D01*
X122919641Y-99060000D01*
X122937037Y-98883373D01*
X122988557Y-98713534D01*
X123072222Y-98557009D01*
X123101552Y-98521271D01*
X123184814Y-98419814D01*
X123286271Y-98336552D01*
X123322009Y-98307222D01*
X123478534Y-98223557D01*
X123648373Y-98172037D01*
X123714557Y-98165519D01*
X123780740Y-98159000D01*
X123869260Y-98159000D01*
X123935443Y-98165519D01*
X123935443Y-98165519D01*
G37*
G36*
X144276552Y-98626331D02*
G01*
X144358627Y-98660328D01*
X144358629Y-98660329D01*
X144395813Y-98685175D01*
X144432495Y-98709685D01*
X144495315Y-98772505D01*
X144544672Y-98846373D01*
X144578669Y-98928448D01*
X144596000Y-99015579D01*
X144596000Y-99104421D01*
X144578669Y-99191552D01*
X144559998Y-99236627D01*
X144544671Y-99273629D01*
X144495314Y-99347496D01*
X144432496Y-99410314D01*
X144358629Y-99459671D01*
X144358628Y-99459672D01*
X144358627Y-99459672D01*
X144276552Y-99493669D01*
X144189421Y-99511000D01*
X144100579Y-99511000D01*
X144013448Y-99493669D01*
X143931373Y-99459672D01*
X143931372Y-99459672D01*
X143931371Y-99459671D01*
X143857504Y-99410314D01*
X143794686Y-99347496D01*
X143745329Y-99273629D01*
X143730002Y-99236627D01*
X143711331Y-99191552D01*
X143694000Y-99104421D01*
X143694000Y-99015579D01*
X143711331Y-98928448D01*
X143745328Y-98846373D01*
X143794685Y-98772505D01*
X143857505Y-98709685D01*
X143894187Y-98685175D01*
X143931371Y-98660329D01*
X143931373Y-98660328D01*
X144013448Y-98626331D01*
X144100579Y-98609000D01*
X144189421Y-98609000D01*
X144276552Y-98626331D01*
X144276552Y-98626331D01*
G37*
G36*
X139196552Y-97991331D02*
G01*
X139278627Y-98025328D01*
X139278629Y-98025329D01*
X139315813Y-98050175D01*
X139352495Y-98074685D01*
X139415315Y-98137505D01*
X139464672Y-98211373D01*
X139498669Y-98293448D01*
X139516000Y-98380579D01*
X139516000Y-98469421D01*
X139498669Y-98556552D01*
X139464672Y-98638627D01*
X139417193Y-98709685D01*
X139415314Y-98712496D01*
X139352496Y-98775314D01*
X139278629Y-98824671D01*
X139278628Y-98824672D01*
X139278627Y-98824672D01*
X139196552Y-98858669D01*
X139109421Y-98876000D01*
X139020579Y-98876000D01*
X138933448Y-98858669D01*
X138851373Y-98824672D01*
X138851372Y-98824672D01*
X138851371Y-98824671D01*
X138777504Y-98775314D01*
X138714686Y-98712496D01*
X138712808Y-98709685D01*
X138665328Y-98638627D01*
X138631331Y-98556552D01*
X138614000Y-98469421D01*
X138614000Y-98380579D01*
X138631331Y-98293448D01*
X138665328Y-98211373D01*
X138714685Y-98137505D01*
X138777505Y-98074685D01*
X138814187Y-98050175D01*
X138851371Y-98025329D01*
X138851373Y-98025328D01*
X138933448Y-97991331D01*
X139020579Y-97974000D01*
X139109421Y-97974000D01*
X139196552Y-97991331D01*
X139196552Y-97991331D01*
G37*
G36*
X128909552Y-97356331D02*
G01*
X128991627Y-97390328D01*
X128991629Y-97390329D01*
X129018020Y-97407963D01*
X129065495Y-97439685D01*
X129128315Y-97502505D01*
X129177672Y-97576373D01*
X129211669Y-97658448D01*
X129229000Y-97745579D01*
X129229000Y-97834421D01*
X129211669Y-97921552D01*
X129177672Y-98003627D01*
X129130193Y-98074685D01*
X129128314Y-98077496D01*
X129065496Y-98140314D01*
X128991629Y-98189671D01*
X128991628Y-98189672D01*
X128991627Y-98189672D01*
X128909552Y-98223669D01*
X128822421Y-98241000D01*
X128733579Y-98241000D01*
X128646448Y-98223669D01*
X128564373Y-98189672D01*
X128564372Y-98189672D01*
X128564371Y-98189671D01*
X128490504Y-98140314D01*
X128427686Y-98077496D01*
X128425808Y-98074685D01*
X128378328Y-98003627D01*
X128344331Y-97921552D01*
X128327000Y-97834421D01*
X128327000Y-97745579D01*
X128344331Y-97658448D01*
X128378328Y-97576373D01*
X128427685Y-97502505D01*
X128490505Y-97439685D01*
X128537980Y-97407963D01*
X128564371Y-97390329D01*
X128564373Y-97390328D01*
X128646448Y-97356331D01*
X128733579Y-97339000D01*
X128822421Y-97339000D01*
X128909552Y-97356331D01*
X128909552Y-97356331D01*
G37*
G36*
X123935442Y-95625518D02*
G01*
X124001627Y-95632037D01*
X124171466Y-95683557D01*
X124327991Y-95767222D01*
X124351213Y-95786280D01*
X124465186Y-95879814D01*
X124543135Y-95974797D01*
X124577778Y-96017009D01*
X124661443Y-96173534D01*
X124712963Y-96343373D01*
X124730359Y-96520000D01*
X124712963Y-96696627D01*
X124661443Y-96866466D01*
X124577778Y-97022991D01*
X124548448Y-97058729D01*
X124465186Y-97160186D01*
X124363729Y-97243448D01*
X124327991Y-97272778D01*
X124171466Y-97356443D01*
X124001627Y-97407963D01*
X123939925Y-97414040D01*
X123869260Y-97421000D01*
X123780740Y-97421000D01*
X123710075Y-97414040D01*
X123648373Y-97407963D01*
X123478534Y-97356443D01*
X123322009Y-97272778D01*
X123286271Y-97243448D01*
X123184814Y-97160186D01*
X123101552Y-97058729D01*
X123072222Y-97022991D01*
X122988557Y-96866466D01*
X122937037Y-96696627D01*
X122919641Y-96520000D01*
X122937037Y-96343373D01*
X122988557Y-96173534D01*
X123072222Y-96017009D01*
X123106865Y-95974797D01*
X123184814Y-95879814D01*
X123298787Y-95786280D01*
X123322009Y-95767222D01*
X123478534Y-95683557D01*
X123648373Y-95632037D01*
X123714558Y-95625518D01*
X123780740Y-95619000D01*
X123869260Y-95619000D01*
X123935442Y-95625518D01*
X123935442Y-95625518D01*
G37*
G36*
X152658552Y-96086331D02*
G01*
X152740627Y-96120328D01*
X152740629Y-96120329D01*
X152777813Y-96145175D01*
X152814495Y-96169685D01*
X152877315Y-96232505D01*
X152926672Y-96306373D01*
X152960669Y-96388448D01*
X152978000Y-96475579D01*
X152978000Y-96564421D01*
X152960669Y-96651552D01*
X152941998Y-96696627D01*
X152926671Y-96733629D01*
X152877314Y-96807496D01*
X152814496Y-96870314D01*
X152740629Y-96919671D01*
X152740628Y-96919672D01*
X152740627Y-96919672D01*
X152658552Y-96953669D01*
X152571421Y-96971000D01*
X152482579Y-96971000D01*
X152395448Y-96953669D01*
X152313373Y-96919672D01*
X152313372Y-96919672D01*
X152313371Y-96919671D01*
X152239504Y-96870314D01*
X152176686Y-96807496D01*
X152127329Y-96733629D01*
X152112002Y-96696627D01*
X152093331Y-96651552D01*
X152076000Y-96564421D01*
X152076000Y-96475579D01*
X152093331Y-96388448D01*
X152127328Y-96306373D01*
X152176685Y-96232505D01*
X152239505Y-96169685D01*
X152276187Y-96145175D01*
X152313371Y-96120329D01*
X152313373Y-96120328D01*
X152395448Y-96086331D01*
X152482579Y-96069000D01*
X152571421Y-96069000D01*
X152658552Y-96086331D01*
X152658552Y-96086331D01*
G37*
G36*
X148086552Y-96086331D02*
G01*
X148168627Y-96120328D01*
X148168629Y-96120329D01*
X148205813Y-96145175D01*
X148242495Y-96169685D01*
X148305315Y-96232505D01*
X148354672Y-96306373D01*
X148388669Y-96388448D01*
X148406000Y-96475579D01*
X148406000Y-96564421D01*
X148388669Y-96651552D01*
X148369998Y-96696627D01*
X148354671Y-96733629D01*
X148305314Y-96807496D01*
X148242496Y-96870314D01*
X148168629Y-96919671D01*
X148168628Y-96919672D01*
X148168627Y-96919672D01*
X148086552Y-96953669D01*
X147999421Y-96971000D01*
X147910579Y-96971000D01*
X147823448Y-96953669D01*
X147741373Y-96919672D01*
X147741372Y-96919672D01*
X147741371Y-96919671D01*
X147667504Y-96870314D01*
X147604686Y-96807496D01*
X147555329Y-96733629D01*
X147540002Y-96696627D01*
X147521331Y-96651552D01*
X147504000Y-96564421D01*
X147504000Y-96475579D01*
X147521331Y-96388448D01*
X147555328Y-96306373D01*
X147604685Y-96232505D01*
X147667505Y-96169685D01*
X147704187Y-96145175D01*
X147741371Y-96120329D01*
X147741373Y-96120328D01*
X147823448Y-96086331D01*
X147910579Y-96069000D01*
X147999421Y-96069000D01*
X148086552Y-96086331D01*
X148086552Y-96086331D01*
G37*
G36*
X128909552Y-94816331D02*
G01*
X128991627Y-94850328D01*
X128991629Y-94850329D01*
X129065496Y-94899686D01*
X129128314Y-94962504D01*
X129174589Y-95031758D01*
X129177672Y-95036373D01*
X129211669Y-95118448D01*
X129229000Y-95205579D01*
X129229000Y-95294421D01*
X129211669Y-95381552D01*
X129177672Y-95463627D01*
X129177671Y-95463629D01*
X129128314Y-95537496D01*
X129065496Y-95600314D01*
X128991629Y-95649671D01*
X128991628Y-95649672D01*
X128991627Y-95649672D01*
X128909552Y-95683669D01*
X128822421Y-95701000D01*
X128733579Y-95701000D01*
X128646448Y-95683669D01*
X128564373Y-95649672D01*
X128564372Y-95649672D01*
X128564371Y-95649671D01*
X128490504Y-95600314D01*
X128427686Y-95537496D01*
X128378329Y-95463629D01*
X128378328Y-95463627D01*
X128344331Y-95381552D01*
X128327000Y-95294421D01*
X128327000Y-95205579D01*
X128344331Y-95118448D01*
X128378328Y-95036373D01*
X128381412Y-95031758D01*
X128427686Y-94962504D01*
X128490504Y-94899686D01*
X128564371Y-94850329D01*
X128564373Y-94850328D01*
X128646448Y-94816331D01*
X128733579Y-94799000D01*
X128822421Y-94799000D01*
X128909552Y-94816331D01*
X128909552Y-94816331D01*
G37*
G36*
X145546552Y-94308331D02*
G01*
X145628627Y-94342328D01*
X145628629Y-94342329D01*
X145665813Y-94367175D01*
X145702495Y-94391685D01*
X145765315Y-94454505D01*
X145814672Y-94528373D01*
X145848669Y-94610448D01*
X145866000Y-94697579D01*
X145866000Y-94786421D01*
X145848669Y-94873552D01*
X145816435Y-94951371D01*
X145814671Y-94955629D01*
X145765314Y-95029496D01*
X145702496Y-95092314D01*
X145628629Y-95141671D01*
X145628628Y-95141672D01*
X145628627Y-95141672D01*
X145546552Y-95175669D01*
X145459421Y-95193000D01*
X145370579Y-95193000D01*
X145283448Y-95175669D01*
X145201373Y-95141672D01*
X145201372Y-95141672D01*
X145201371Y-95141671D01*
X145127504Y-95092314D01*
X145064686Y-95029496D01*
X145015329Y-94955629D01*
X145013565Y-94951371D01*
X144981331Y-94873552D01*
X144964000Y-94786421D01*
X144964000Y-94697579D01*
X144981331Y-94610448D01*
X145015328Y-94528373D01*
X145064685Y-94454505D01*
X145127505Y-94391685D01*
X145164187Y-94367175D01*
X145201371Y-94342329D01*
X145201373Y-94342328D01*
X145283448Y-94308331D01*
X145370579Y-94291000D01*
X145459421Y-94291000D01*
X145546552Y-94308331D01*
X145546552Y-94308331D01*
G37*
G36*
X123935443Y-93085519D02*
G01*
X124001627Y-93092037D01*
X124171466Y-93143557D01*
X124327991Y-93227222D01*
X124351213Y-93246280D01*
X124465186Y-93339814D01*
X124543135Y-93434797D01*
X124577778Y-93477009D01*
X124661443Y-93633534D01*
X124712963Y-93803373D01*
X124730359Y-93980000D01*
X124712963Y-94156627D01*
X124661443Y-94326466D01*
X124577778Y-94482991D01*
X124548448Y-94518729D01*
X124465186Y-94620186D01*
X124370881Y-94697579D01*
X124327991Y-94732778D01*
X124171466Y-94816443D01*
X124001627Y-94867963D01*
X123944880Y-94873552D01*
X123869260Y-94881000D01*
X123780740Y-94881000D01*
X123705120Y-94873552D01*
X123648373Y-94867963D01*
X123478534Y-94816443D01*
X123322009Y-94732778D01*
X123279119Y-94697579D01*
X123184814Y-94620186D01*
X123101552Y-94518729D01*
X123072222Y-94482991D01*
X122988557Y-94326466D01*
X122937037Y-94156627D01*
X122919641Y-93980000D01*
X122937037Y-93803373D01*
X122988557Y-93633534D01*
X123072222Y-93477009D01*
X123106865Y-93434797D01*
X123184814Y-93339814D01*
X123298787Y-93246280D01*
X123322009Y-93227222D01*
X123478534Y-93143557D01*
X123648373Y-93092037D01*
X123714557Y-93085519D01*
X123780740Y-93079000D01*
X123869260Y-93079000D01*
X123935443Y-93085519D01*
X123935443Y-93085519D01*
G37*
G36*
X137418552Y-93546331D02*
G01*
X137500627Y-93580328D01*
X137500629Y-93580329D01*
X137537813Y-93605175D01*
X137574495Y-93629685D01*
X137637315Y-93692505D01*
X137686672Y-93766373D01*
X137720669Y-93848448D01*
X137738000Y-93935579D01*
X137738000Y-94024421D01*
X137720669Y-94111552D01*
X137701998Y-94156627D01*
X137686671Y-94193629D01*
X137637314Y-94267496D01*
X137574496Y-94330314D01*
X137500629Y-94379671D01*
X137500628Y-94379672D01*
X137500627Y-94379672D01*
X137418552Y-94413669D01*
X137331421Y-94431000D01*
X137242579Y-94431000D01*
X137155448Y-94413669D01*
X137073373Y-94379672D01*
X137073372Y-94379672D01*
X137073371Y-94379671D01*
X136999504Y-94330314D01*
X136936686Y-94267496D01*
X136887329Y-94193629D01*
X136872002Y-94156627D01*
X136853331Y-94111552D01*
X136836000Y-94024421D01*
X136836000Y-93935579D01*
X136853331Y-93848448D01*
X136887328Y-93766373D01*
X136936685Y-93692505D01*
X136999505Y-93629685D01*
X137036187Y-93605175D01*
X137073371Y-93580329D01*
X137073373Y-93580328D01*
X137155448Y-93546331D01*
X137242579Y-93529000D01*
X137331421Y-93529000D01*
X137418552Y-93546331D01*
X137418552Y-93546331D01*
G37*
G36*
X140974552Y-93546331D02*
G01*
X141056627Y-93580328D01*
X141056629Y-93580329D01*
X141093813Y-93605175D01*
X141130495Y-93629685D01*
X141193315Y-93692505D01*
X141242672Y-93766373D01*
X141276669Y-93848448D01*
X141294000Y-93935579D01*
X141294000Y-94024421D01*
X141276669Y-94111552D01*
X141257998Y-94156627D01*
X141242671Y-94193629D01*
X141193314Y-94267496D01*
X141130496Y-94330314D01*
X141056629Y-94379671D01*
X141056628Y-94379672D01*
X141056627Y-94379672D01*
X140974552Y-94413669D01*
X140887421Y-94431000D01*
X140798579Y-94431000D01*
X140711448Y-94413669D01*
X140629373Y-94379672D01*
X140629372Y-94379672D01*
X140629371Y-94379671D01*
X140555504Y-94330314D01*
X140492686Y-94267496D01*
X140443329Y-94193629D01*
X140428002Y-94156627D01*
X140409331Y-94111552D01*
X140392000Y-94024421D01*
X140392000Y-93935579D01*
X140409331Y-93848448D01*
X140443328Y-93766373D01*
X140492685Y-93692505D01*
X140555505Y-93629685D01*
X140592187Y-93605175D01*
X140629371Y-93580329D01*
X140629373Y-93580328D01*
X140711448Y-93546331D01*
X140798579Y-93529000D01*
X140887421Y-93529000D01*
X140974552Y-93546331D01*
X140974552Y-93546331D01*
G37*
G36*
X128909552Y-92276331D02*
G01*
X128991627Y-92310328D01*
X128991629Y-92310329D01*
X129027115Y-92334040D01*
X129065495Y-92359685D01*
X129128315Y-92422505D01*
X129177672Y-92496373D01*
X129211669Y-92578448D01*
X129229000Y-92665579D01*
X129229000Y-92754421D01*
X129211669Y-92841552D01*
X129177672Y-92923627D01*
X129177671Y-92923629D01*
X129128314Y-92997496D01*
X129065496Y-93060314D01*
X128991629Y-93109671D01*
X128991628Y-93109672D01*
X128991627Y-93109672D01*
X128909552Y-93143669D01*
X128822421Y-93161000D01*
X128733579Y-93161000D01*
X128646448Y-93143669D01*
X128564373Y-93109672D01*
X128564372Y-93109672D01*
X128564371Y-93109671D01*
X128490504Y-93060314D01*
X128427686Y-92997496D01*
X128378329Y-92923629D01*
X128378328Y-92923627D01*
X128344331Y-92841552D01*
X128327000Y-92754421D01*
X128327000Y-92665579D01*
X128344331Y-92578448D01*
X128378328Y-92496373D01*
X128427685Y-92422505D01*
X128490505Y-92359685D01*
X128528885Y-92334040D01*
X128564371Y-92310329D01*
X128564373Y-92310328D01*
X128646448Y-92276331D01*
X128733579Y-92259000D01*
X128822421Y-92259000D01*
X128909552Y-92276331D01*
X128909552Y-92276331D01*
G37*
G36*
X152658552Y-91641331D02*
G01*
X152740627Y-91675328D01*
X152740629Y-91675329D01*
X152777813Y-91700175D01*
X152814495Y-91724685D01*
X152877315Y-91787505D01*
X152926672Y-91861373D01*
X152960669Y-91943448D01*
X152978000Y-92030579D01*
X152978000Y-92119421D01*
X152960669Y-92206552D01*
X152926672Y-92288627D01*
X152879193Y-92359685D01*
X152877314Y-92362496D01*
X152814496Y-92425314D01*
X152740629Y-92474671D01*
X152740628Y-92474672D01*
X152740627Y-92474672D01*
X152658552Y-92508669D01*
X152571421Y-92526000D01*
X152482579Y-92526000D01*
X152395448Y-92508669D01*
X152313373Y-92474672D01*
X152313372Y-92474672D01*
X152313371Y-92474671D01*
X152239504Y-92425314D01*
X152176686Y-92362496D01*
X152174808Y-92359685D01*
X152127328Y-92288627D01*
X152093331Y-92206552D01*
X152076000Y-92119421D01*
X152076000Y-92030579D01*
X152093331Y-91943448D01*
X152127328Y-91861373D01*
X152176685Y-91787505D01*
X152239505Y-91724685D01*
X152276187Y-91700175D01*
X152313371Y-91675329D01*
X152313373Y-91675328D01*
X152395448Y-91641331D01*
X152482579Y-91624000D01*
X152571421Y-91624000D01*
X152658552Y-91641331D01*
X152658552Y-91641331D01*
G37*
G36*
X148086552Y-91641331D02*
G01*
X148168627Y-91675328D01*
X148168629Y-91675329D01*
X148205813Y-91700175D01*
X148242495Y-91724685D01*
X148305315Y-91787505D01*
X148354672Y-91861373D01*
X148388669Y-91943448D01*
X148406000Y-92030579D01*
X148406000Y-92119421D01*
X148388669Y-92206552D01*
X148354672Y-92288627D01*
X148307193Y-92359685D01*
X148305314Y-92362496D01*
X148242496Y-92425314D01*
X148168629Y-92474671D01*
X148168628Y-92474672D01*
X148168627Y-92474672D01*
X148086552Y-92508669D01*
X147999421Y-92526000D01*
X147910579Y-92526000D01*
X147823448Y-92508669D01*
X147741373Y-92474672D01*
X147741372Y-92474672D01*
X147741371Y-92474671D01*
X147667504Y-92425314D01*
X147604686Y-92362496D01*
X147602808Y-92359685D01*
X147555328Y-92288627D01*
X147521331Y-92206552D01*
X147504000Y-92119421D01*
X147504000Y-92030579D01*
X147521331Y-91943448D01*
X147555328Y-91861373D01*
X147604685Y-91787505D01*
X147667505Y-91724685D01*
X147704187Y-91700175D01*
X147741371Y-91675329D01*
X147741373Y-91675328D01*
X147823448Y-91641331D01*
X147910579Y-91624000D01*
X147999421Y-91624000D01*
X148086552Y-91641331D01*
X148086552Y-91641331D01*
G37*
G36*
X124726000Y-92341000D02*
G01*
X122924000Y-92341000D01*
X122924000Y-90539000D01*
X124726000Y-90539000D01*
X124726000Y-92341000D01*
X124726000Y-92341000D01*
G37*
G36*
X139196552Y-88847331D02*
G01*
X139278627Y-88881328D01*
X139278629Y-88881329D01*
X139315813Y-88906175D01*
X139352495Y-88930685D01*
X139415315Y-88993505D01*
X139464672Y-89067373D01*
X139498669Y-89149448D01*
X139516000Y-89236579D01*
X139516000Y-89325421D01*
X139498669Y-89412552D01*
X139464672Y-89494627D01*
X139464671Y-89494629D01*
X139415314Y-89568496D01*
X139352496Y-89631314D01*
X139278629Y-89680671D01*
X139278628Y-89680672D01*
X139278627Y-89680672D01*
X139196552Y-89714669D01*
X139109421Y-89732000D01*
X139020579Y-89732000D01*
X138933448Y-89714669D01*
X138851373Y-89680672D01*
X138851372Y-89680672D01*
X138851371Y-89680671D01*
X138777504Y-89631314D01*
X138714686Y-89568496D01*
X138665329Y-89494629D01*
X138665328Y-89494627D01*
X138631331Y-89412552D01*
X138614000Y-89325421D01*
X138614000Y-89236579D01*
X138631331Y-89149448D01*
X138665328Y-89067373D01*
X138714685Y-88993505D01*
X138777505Y-88930685D01*
X138814187Y-88906175D01*
X138851371Y-88881329D01*
X138851373Y-88881328D01*
X138933448Y-88847331D01*
X139020579Y-88830000D01*
X139109421Y-88830000D01*
X139196552Y-88847331D01*
X139196552Y-88847331D01*
G37*
G36*
X147451552Y-86561331D02*
G01*
X147533627Y-86595328D01*
X147533629Y-86595329D01*
X147570813Y-86620175D01*
X147607495Y-86644685D01*
X147670315Y-86707505D01*
X147719672Y-86781373D01*
X147753669Y-86863448D01*
X147771000Y-86950579D01*
X147771000Y-87039421D01*
X147753669Y-87126552D01*
X147719672Y-87208627D01*
X147719671Y-87208629D01*
X147670314Y-87282496D01*
X147607496Y-87345314D01*
X147533629Y-87394671D01*
X147533628Y-87394672D01*
X147533627Y-87394672D01*
X147451552Y-87428669D01*
X147364421Y-87446000D01*
X147275579Y-87446000D01*
X147188448Y-87428669D01*
X147106373Y-87394672D01*
X147106372Y-87394672D01*
X147106371Y-87394671D01*
X147032504Y-87345314D01*
X146969686Y-87282496D01*
X146920329Y-87208629D01*
X146920328Y-87208627D01*
X146886331Y-87126552D01*
X146869000Y-87039421D01*
X146869000Y-86950579D01*
X146886331Y-86863448D01*
X146920328Y-86781373D01*
X146969685Y-86707505D01*
X147032505Y-86644685D01*
X147069187Y-86620175D01*
X147106371Y-86595329D01*
X147106373Y-86595328D01*
X147188448Y-86561331D01*
X147275579Y-86544000D01*
X147364421Y-86544000D01*
X147451552Y-86561331D01*
X147451552Y-86561331D01*
G37*
G36*
X144911552Y-86561331D02*
G01*
X144993627Y-86595328D01*
X144993629Y-86595329D01*
X145030813Y-86620175D01*
X145067495Y-86644685D01*
X145130315Y-86707505D01*
X145179672Y-86781373D01*
X145213669Y-86863448D01*
X145231000Y-86950579D01*
X145231000Y-87039421D01*
X145213669Y-87126552D01*
X145179672Y-87208627D01*
X145179671Y-87208629D01*
X145130314Y-87282496D01*
X145067496Y-87345314D01*
X144993629Y-87394671D01*
X144993628Y-87394672D01*
X144993627Y-87394672D01*
X144911552Y-87428669D01*
X144824421Y-87446000D01*
X144735579Y-87446000D01*
X144648448Y-87428669D01*
X144566373Y-87394672D01*
X144566372Y-87394672D01*
X144566371Y-87394671D01*
X144492504Y-87345314D01*
X144429686Y-87282496D01*
X144380329Y-87208629D01*
X144380328Y-87208627D01*
X144346331Y-87126552D01*
X144329000Y-87039421D01*
X144329000Y-86950579D01*
X144346331Y-86863448D01*
X144380328Y-86781373D01*
X144429685Y-86707505D01*
X144492505Y-86644685D01*
X144529187Y-86620175D01*
X144566371Y-86595329D01*
X144566373Y-86595328D01*
X144648448Y-86561331D01*
X144735579Y-86544000D01*
X144824421Y-86544000D01*
X144911552Y-86561331D01*
X144911552Y-86561331D01*
G37*
G36*
X143641552Y-86561331D02*
G01*
X143723627Y-86595328D01*
X143723629Y-86595329D01*
X143760813Y-86620175D01*
X143797495Y-86644685D01*
X143860315Y-86707505D01*
X143909672Y-86781373D01*
X143943669Y-86863448D01*
X143961000Y-86950579D01*
X143961000Y-87039421D01*
X143943669Y-87126552D01*
X143909672Y-87208627D01*
X143909671Y-87208629D01*
X143860314Y-87282496D01*
X143797496Y-87345314D01*
X143723629Y-87394671D01*
X143723628Y-87394672D01*
X143723627Y-87394672D01*
X143641552Y-87428669D01*
X143554421Y-87446000D01*
X143465579Y-87446000D01*
X143378448Y-87428669D01*
X143296373Y-87394672D01*
X143296372Y-87394672D01*
X143296371Y-87394671D01*
X143222504Y-87345314D01*
X143159686Y-87282496D01*
X143110329Y-87208629D01*
X143110328Y-87208627D01*
X143076331Y-87126552D01*
X143059000Y-87039421D01*
X143059000Y-86950579D01*
X143076331Y-86863448D01*
X143110328Y-86781373D01*
X143159685Y-86707505D01*
X143222505Y-86644685D01*
X143259187Y-86620175D01*
X143296371Y-86595329D01*
X143296373Y-86595328D01*
X143378448Y-86561331D01*
X143465579Y-86544000D01*
X143554421Y-86544000D01*
X143641552Y-86561331D01*
X143641552Y-86561331D01*
G37*
G36*
X142371552Y-86561331D02*
G01*
X142453627Y-86595328D01*
X142453629Y-86595329D01*
X142490813Y-86620175D01*
X142527495Y-86644685D01*
X142590315Y-86707505D01*
X142639672Y-86781373D01*
X142673669Y-86863448D01*
X142691000Y-86950579D01*
X142691000Y-87039421D01*
X142673669Y-87126552D01*
X142639672Y-87208627D01*
X142639671Y-87208629D01*
X142590314Y-87282496D01*
X142527496Y-87345314D01*
X142453629Y-87394671D01*
X142453628Y-87394672D01*
X142453627Y-87394672D01*
X142371552Y-87428669D01*
X142284421Y-87446000D01*
X142195579Y-87446000D01*
X142108448Y-87428669D01*
X142026373Y-87394672D01*
X142026372Y-87394672D01*
X142026371Y-87394671D01*
X141952504Y-87345314D01*
X141889686Y-87282496D01*
X141840329Y-87208629D01*
X141840328Y-87208627D01*
X141806331Y-87126552D01*
X141789000Y-87039421D01*
X141789000Y-86950579D01*
X141806331Y-86863448D01*
X141840328Y-86781373D01*
X141889685Y-86707505D01*
X141952505Y-86644685D01*
X141989187Y-86620175D01*
X142026371Y-86595329D01*
X142026373Y-86595328D01*
X142108448Y-86561331D01*
X142195579Y-86544000D01*
X142284421Y-86544000D01*
X142371552Y-86561331D01*
X142371552Y-86561331D01*
G37*
G36*
X141101552Y-86561331D02*
G01*
X141183627Y-86595328D01*
X141183629Y-86595329D01*
X141220813Y-86620175D01*
X141257495Y-86644685D01*
X141320315Y-86707505D01*
X141369672Y-86781373D01*
X141403669Y-86863448D01*
X141421000Y-86950579D01*
X141421000Y-87039421D01*
X141403669Y-87126552D01*
X141369672Y-87208627D01*
X141369671Y-87208629D01*
X141320314Y-87282496D01*
X141257496Y-87345314D01*
X141183629Y-87394671D01*
X141183628Y-87394672D01*
X141183627Y-87394672D01*
X141101552Y-87428669D01*
X141014421Y-87446000D01*
X140925579Y-87446000D01*
X140838448Y-87428669D01*
X140756373Y-87394672D01*
X140756372Y-87394672D01*
X140756371Y-87394671D01*
X140682504Y-87345314D01*
X140619686Y-87282496D01*
X140570329Y-87208629D01*
X140570328Y-87208627D01*
X140536331Y-87126552D01*
X140519000Y-87039421D01*
X140519000Y-86950579D01*
X140536331Y-86863448D01*
X140570328Y-86781373D01*
X140619685Y-86707505D01*
X140682505Y-86644685D01*
X140719187Y-86620175D01*
X140756371Y-86595329D01*
X140756373Y-86595328D01*
X140838448Y-86561331D01*
X140925579Y-86544000D01*
X141014421Y-86544000D01*
X141101552Y-86561331D01*
X141101552Y-86561331D01*
G37*
G36*
X139831552Y-86561331D02*
G01*
X139913627Y-86595328D01*
X139913629Y-86595329D01*
X139950813Y-86620175D01*
X139987495Y-86644685D01*
X140050315Y-86707505D01*
X140099672Y-86781373D01*
X140133669Y-86863448D01*
X140151000Y-86950579D01*
X140151000Y-87039421D01*
X140133669Y-87126552D01*
X140099672Y-87208627D01*
X140099671Y-87208629D01*
X140050314Y-87282496D01*
X139987496Y-87345314D01*
X139913629Y-87394671D01*
X139913628Y-87394672D01*
X139913627Y-87394672D01*
X139831552Y-87428669D01*
X139744421Y-87446000D01*
X139655579Y-87446000D01*
X139568448Y-87428669D01*
X139486373Y-87394672D01*
X139486372Y-87394672D01*
X139486371Y-87394671D01*
X139412504Y-87345314D01*
X139349686Y-87282496D01*
X139300329Y-87208629D01*
X139300328Y-87208627D01*
X139266331Y-87126552D01*
X139249000Y-87039421D01*
X139249000Y-86950579D01*
X139266331Y-86863448D01*
X139300328Y-86781373D01*
X139349685Y-86707505D01*
X139412505Y-86644685D01*
X139449187Y-86620175D01*
X139486371Y-86595329D01*
X139486373Y-86595328D01*
X139568448Y-86561331D01*
X139655579Y-86544000D01*
X139744421Y-86544000D01*
X139831552Y-86561331D01*
X139831552Y-86561331D01*
G37*
G36*
X138561552Y-86561331D02*
G01*
X138643627Y-86595328D01*
X138643629Y-86595329D01*
X138680813Y-86620175D01*
X138717495Y-86644685D01*
X138780315Y-86707505D01*
X138829672Y-86781373D01*
X138863669Y-86863448D01*
X138881000Y-86950579D01*
X138881000Y-87039421D01*
X138863669Y-87126552D01*
X138829672Y-87208627D01*
X138829671Y-87208629D01*
X138780314Y-87282496D01*
X138717496Y-87345314D01*
X138643629Y-87394671D01*
X138643628Y-87394672D01*
X138643627Y-87394672D01*
X138561552Y-87428669D01*
X138474421Y-87446000D01*
X138385579Y-87446000D01*
X138298448Y-87428669D01*
X138216373Y-87394672D01*
X138216372Y-87394672D01*
X138216371Y-87394671D01*
X138142504Y-87345314D01*
X138079686Y-87282496D01*
X138030329Y-87208629D01*
X138030328Y-87208627D01*
X137996331Y-87126552D01*
X137979000Y-87039421D01*
X137979000Y-86950579D01*
X137996331Y-86863448D01*
X138030328Y-86781373D01*
X138079685Y-86707505D01*
X138142505Y-86644685D01*
X138179187Y-86620175D01*
X138216371Y-86595329D01*
X138216373Y-86595328D01*
X138298448Y-86561331D01*
X138385579Y-86544000D01*
X138474421Y-86544000D01*
X138561552Y-86561331D01*
X138561552Y-86561331D01*
G37*
G36*
X137291552Y-86561331D02*
G01*
X137373627Y-86595328D01*
X137373629Y-86595329D01*
X137410813Y-86620175D01*
X137447495Y-86644685D01*
X137510315Y-86707505D01*
X137559672Y-86781373D01*
X137593669Y-86863448D01*
X137611000Y-86950579D01*
X137611000Y-87039421D01*
X137593669Y-87126552D01*
X137559672Y-87208627D01*
X137559671Y-87208629D01*
X137510314Y-87282496D01*
X137447496Y-87345314D01*
X137373629Y-87394671D01*
X137373628Y-87394672D01*
X137373627Y-87394672D01*
X137291552Y-87428669D01*
X137204421Y-87446000D01*
X137115579Y-87446000D01*
X137028448Y-87428669D01*
X136946373Y-87394672D01*
X136946372Y-87394672D01*
X136946371Y-87394671D01*
X136872504Y-87345314D01*
X136809686Y-87282496D01*
X136760329Y-87208629D01*
X136760328Y-87208627D01*
X136726331Y-87126552D01*
X136709000Y-87039421D01*
X136709000Y-86950579D01*
X136726331Y-86863448D01*
X136760328Y-86781373D01*
X136809685Y-86707505D01*
X136872505Y-86644685D01*
X136909187Y-86620175D01*
X136946371Y-86595329D01*
X136946373Y-86595328D01*
X137028448Y-86561331D01*
X137115579Y-86544000D01*
X137204421Y-86544000D01*
X137291552Y-86561331D01*
X137291552Y-86561331D01*
G37*
G36*
X136021552Y-86561331D02*
G01*
X136103627Y-86595328D01*
X136103629Y-86595329D01*
X136140813Y-86620175D01*
X136177495Y-86644685D01*
X136240315Y-86707505D01*
X136289672Y-86781373D01*
X136323669Y-86863448D01*
X136341000Y-86950579D01*
X136341000Y-87039421D01*
X136323669Y-87126552D01*
X136289672Y-87208627D01*
X136289671Y-87208629D01*
X136240314Y-87282496D01*
X136177496Y-87345314D01*
X136103629Y-87394671D01*
X136103628Y-87394672D01*
X136103627Y-87394672D01*
X136021552Y-87428669D01*
X135934421Y-87446000D01*
X135845579Y-87446000D01*
X135758448Y-87428669D01*
X135676373Y-87394672D01*
X135676372Y-87394672D01*
X135676371Y-87394671D01*
X135602504Y-87345314D01*
X135539686Y-87282496D01*
X135490329Y-87208629D01*
X135490328Y-87208627D01*
X135456331Y-87126552D01*
X135439000Y-87039421D01*
X135439000Y-86950579D01*
X135456331Y-86863448D01*
X135490328Y-86781373D01*
X135539685Y-86707505D01*
X135602505Y-86644685D01*
X135639187Y-86620175D01*
X135676371Y-86595329D01*
X135676373Y-86595328D01*
X135758448Y-86561331D01*
X135845579Y-86544000D01*
X135934421Y-86544000D01*
X136021552Y-86561331D01*
X136021552Y-86561331D01*
G37*
G36*
X134751552Y-86561331D02*
G01*
X134833627Y-86595328D01*
X134833629Y-86595329D01*
X134870813Y-86620175D01*
X134907495Y-86644685D01*
X134970315Y-86707505D01*
X135019672Y-86781373D01*
X135053669Y-86863448D01*
X135071000Y-86950579D01*
X135071000Y-87039421D01*
X135053669Y-87126552D01*
X135019672Y-87208627D01*
X135019671Y-87208629D01*
X134970314Y-87282496D01*
X134907496Y-87345314D01*
X134833629Y-87394671D01*
X134833628Y-87394672D01*
X134833627Y-87394672D01*
X134751552Y-87428669D01*
X134664421Y-87446000D01*
X134575579Y-87446000D01*
X134488448Y-87428669D01*
X134406373Y-87394672D01*
X134406372Y-87394672D01*
X134406371Y-87394671D01*
X134332504Y-87345314D01*
X134269686Y-87282496D01*
X134220329Y-87208629D01*
X134220328Y-87208627D01*
X134186331Y-87126552D01*
X134169000Y-87039421D01*
X134169000Y-86950579D01*
X134186331Y-86863448D01*
X134220328Y-86781373D01*
X134269685Y-86707505D01*
X134332505Y-86644685D01*
X134369187Y-86620175D01*
X134406371Y-86595329D01*
X134406373Y-86595328D01*
X134488448Y-86561331D01*
X134575579Y-86544000D01*
X134664421Y-86544000D01*
X134751552Y-86561331D01*
X134751552Y-86561331D01*
G37*
G36*
X133481552Y-86561331D02*
G01*
X133563627Y-86595328D01*
X133563629Y-86595329D01*
X133600813Y-86620175D01*
X133637495Y-86644685D01*
X133700315Y-86707505D01*
X133749672Y-86781373D01*
X133783669Y-86863448D01*
X133801000Y-86950579D01*
X133801000Y-87039421D01*
X133783669Y-87126552D01*
X133749672Y-87208627D01*
X133749671Y-87208629D01*
X133700314Y-87282496D01*
X133637496Y-87345314D01*
X133563629Y-87394671D01*
X133563628Y-87394672D01*
X133563627Y-87394672D01*
X133481552Y-87428669D01*
X133394421Y-87446000D01*
X133305579Y-87446000D01*
X133218448Y-87428669D01*
X133136373Y-87394672D01*
X133136372Y-87394672D01*
X133136371Y-87394671D01*
X133062504Y-87345314D01*
X132999686Y-87282496D01*
X132950329Y-87208629D01*
X132950328Y-87208627D01*
X132916331Y-87126552D01*
X132899000Y-87039421D01*
X132899000Y-86950579D01*
X132916331Y-86863448D01*
X132950328Y-86781373D01*
X132999685Y-86707505D01*
X133062505Y-86644685D01*
X133099187Y-86620175D01*
X133136371Y-86595329D01*
X133136373Y-86595328D01*
X133218448Y-86561331D01*
X133305579Y-86544000D01*
X133394421Y-86544000D01*
X133481552Y-86561331D01*
X133481552Y-86561331D01*
G37*
G36*
X125861552Y-86561331D02*
G01*
X125943627Y-86595328D01*
X125943629Y-86595329D01*
X125980813Y-86620175D01*
X126017495Y-86644685D01*
X126080315Y-86707505D01*
X126129672Y-86781373D01*
X126163669Y-86863448D01*
X126181000Y-86950579D01*
X126181000Y-87039421D01*
X126163669Y-87126552D01*
X126129672Y-87208627D01*
X126129671Y-87208629D01*
X126080314Y-87282496D01*
X126017496Y-87345314D01*
X125943629Y-87394671D01*
X125943628Y-87394672D01*
X125943627Y-87394672D01*
X125861552Y-87428669D01*
X125774421Y-87446000D01*
X125685579Y-87446000D01*
X125598448Y-87428669D01*
X125516373Y-87394672D01*
X125516372Y-87394672D01*
X125516371Y-87394671D01*
X125442504Y-87345314D01*
X125379686Y-87282496D01*
X125330329Y-87208629D01*
X125330328Y-87208627D01*
X125296331Y-87126552D01*
X125279000Y-87039421D01*
X125279000Y-86950579D01*
X125296331Y-86863448D01*
X125330328Y-86781373D01*
X125379685Y-86707505D01*
X125442505Y-86644685D01*
X125479187Y-86620175D01*
X125516371Y-86595329D01*
X125516373Y-86595328D01*
X125598448Y-86561331D01*
X125685579Y-86544000D01*
X125774421Y-86544000D01*
X125861552Y-86561331D01*
X125861552Y-86561331D01*
G37*
G36*
X128401552Y-86561331D02*
G01*
X128483627Y-86595328D01*
X128483629Y-86595329D01*
X128520813Y-86620175D01*
X128557495Y-86644685D01*
X128620315Y-86707505D01*
X128669672Y-86781373D01*
X128703669Y-86863448D01*
X128721000Y-86950579D01*
X128721000Y-87039421D01*
X128703669Y-87126552D01*
X128669672Y-87208627D01*
X128669671Y-87208629D01*
X128620314Y-87282496D01*
X128557496Y-87345314D01*
X128483629Y-87394671D01*
X128483628Y-87394672D01*
X128483627Y-87394672D01*
X128401552Y-87428669D01*
X128314421Y-87446000D01*
X128225579Y-87446000D01*
X128138448Y-87428669D01*
X128056373Y-87394672D01*
X128056372Y-87394672D01*
X128056371Y-87394671D01*
X127982504Y-87345314D01*
X127919686Y-87282496D01*
X127870329Y-87208629D01*
X127870328Y-87208627D01*
X127836331Y-87126552D01*
X127819000Y-87039421D01*
X127819000Y-86950579D01*
X127836331Y-86863448D01*
X127870328Y-86781373D01*
X127919685Y-86707505D01*
X127982505Y-86644685D01*
X128019187Y-86620175D01*
X128056371Y-86595329D01*
X128056373Y-86595328D01*
X128138448Y-86561331D01*
X128225579Y-86544000D01*
X128314421Y-86544000D01*
X128401552Y-86561331D01*
X128401552Y-86561331D01*
G37*
G36*
X129671552Y-86561331D02*
G01*
X129753627Y-86595328D01*
X129753629Y-86595329D01*
X129790813Y-86620175D01*
X129827495Y-86644685D01*
X129890315Y-86707505D01*
X129939672Y-86781373D01*
X129973669Y-86863448D01*
X129991000Y-86950579D01*
X129991000Y-87039421D01*
X129973669Y-87126552D01*
X129939672Y-87208627D01*
X129939671Y-87208629D01*
X129890314Y-87282496D01*
X129827496Y-87345314D01*
X129753629Y-87394671D01*
X129753628Y-87394672D01*
X129753627Y-87394672D01*
X129671552Y-87428669D01*
X129584421Y-87446000D01*
X129495579Y-87446000D01*
X129408448Y-87428669D01*
X129326373Y-87394672D01*
X129326372Y-87394672D01*
X129326371Y-87394671D01*
X129252504Y-87345314D01*
X129189686Y-87282496D01*
X129140329Y-87208629D01*
X129140328Y-87208627D01*
X129106331Y-87126552D01*
X129089000Y-87039421D01*
X129089000Y-86950579D01*
X129106331Y-86863448D01*
X129140328Y-86781373D01*
X129189685Y-86707505D01*
X129252505Y-86644685D01*
X129289187Y-86620175D01*
X129326371Y-86595329D01*
X129326373Y-86595328D01*
X129408448Y-86561331D01*
X129495579Y-86544000D01*
X129584421Y-86544000D01*
X129671552Y-86561331D01*
X129671552Y-86561331D01*
G37*
G36*
X130941552Y-86561331D02*
G01*
X131023627Y-86595328D01*
X131023629Y-86595329D01*
X131060813Y-86620175D01*
X131097495Y-86644685D01*
X131160315Y-86707505D01*
X131209672Y-86781373D01*
X131243669Y-86863448D01*
X131261000Y-86950579D01*
X131261000Y-87039421D01*
X131243669Y-87126552D01*
X131209672Y-87208627D01*
X131209671Y-87208629D01*
X131160314Y-87282496D01*
X131097496Y-87345314D01*
X131023629Y-87394671D01*
X131023628Y-87394672D01*
X131023627Y-87394672D01*
X130941552Y-87428669D01*
X130854421Y-87446000D01*
X130765579Y-87446000D01*
X130678448Y-87428669D01*
X130596373Y-87394672D01*
X130596372Y-87394672D01*
X130596371Y-87394671D01*
X130522504Y-87345314D01*
X130459686Y-87282496D01*
X130410329Y-87208629D01*
X130410328Y-87208627D01*
X130376331Y-87126552D01*
X130359000Y-87039421D01*
X130359000Y-86950579D01*
X130376331Y-86863448D01*
X130410328Y-86781373D01*
X130459685Y-86707505D01*
X130522505Y-86644685D01*
X130559187Y-86620175D01*
X130596371Y-86595329D01*
X130596373Y-86595328D01*
X130678448Y-86561331D01*
X130765579Y-86544000D01*
X130854421Y-86544000D01*
X130941552Y-86561331D01*
X130941552Y-86561331D01*
G37*
G36*
X132211552Y-86561331D02*
G01*
X132293627Y-86595328D01*
X132293629Y-86595329D01*
X132330813Y-86620175D01*
X132367495Y-86644685D01*
X132430315Y-86707505D01*
X132479672Y-86781373D01*
X132513669Y-86863448D01*
X132531000Y-86950579D01*
X132531000Y-87039421D01*
X132513669Y-87126552D01*
X132479672Y-87208627D01*
X132479671Y-87208629D01*
X132430314Y-87282496D01*
X132367496Y-87345314D01*
X132293629Y-87394671D01*
X132293628Y-87394672D01*
X132293627Y-87394672D01*
X132211552Y-87428669D01*
X132124421Y-87446000D01*
X132035579Y-87446000D01*
X131948448Y-87428669D01*
X131866373Y-87394672D01*
X131866372Y-87394672D01*
X131866371Y-87394671D01*
X131792504Y-87345314D01*
X131729686Y-87282496D01*
X131680329Y-87208629D01*
X131680328Y-87208627D01*
X131646331Y-87126552D01*
X131629000Y-87039421D01*
X131629000Y-86950579D01*
X131646331Y-86863448D01*
X131680328Y-86781373D01*
X131729685Y-86707505D01*
X131792505Y-86644685D01*
X131829187Y-86620175D01*
X131866371Y-86595329D01*
X131866373Y-86595328D01*
X131948448Y-86561331D01*
X132035579Y-86544000D01*
X132124421Y-86544000D01*
X132211552Y-86561331D01*
X132211552Y-86561331D01*
G37*
G36*
X148721552Y-86561331D02*
G01*
X148803627Y-86595328D01*
X148803629Y-86595329D01*
X148840813Y-86620175D01*
X148877495Y-86644685D01*
X148940315Y-86707505D01*
X148989672Y-86781373D01*
X149023669Y-86863448D01*
X149041000Y-86950579D01*
X149041000Y-87039421D01*
X149023669Y-87126552D01*
X148989672Y-87208627D01*
X148989671Y-87208629D01*
X148940314Y-87282496D01*
X148877496Y-87345314D01*
X148803629Y-87394671D01*
X148803628Y-87394672D01*
X148803627Y-87394672D01*
X148721552Y-87428669D01*
X148634421Y-87446000D01*
X148545579Y-87446000D01*
X148458448Y-87428669D01*
X148376373Y-87394672D01*
X148376372Y-87394672D01*
X148376371Y-87394671D01*
X148302504Y-87345314D01*
X148239686Y-87282496D01*
X148190329Y-87208629D01*
X148190328Y-87208627D01*
X148156331Y-87126552D01*
X148139000Y-87039421D01*
X148139000Y-86950579D01*
X148156331Y-86863448D01*
X148190328Y-86781373D01*
X148239685Y-86707505D01*
X148302505Y-86644685D01*
X148339187Y-86620175D01*
X148376371Y-86595329D01*
X148376373Y-86595328D01*
X148458448Y-86561331D01*
X148545579Y-86544000D01*
X148634421Y-86544000D01*
X148721552Y-86561331D01*
X148721552Y-86561331D01*
G37*
G36*
X149991552Y-86561331D02*
G01*
X150073627Y-86595328D01*
X150073629Y-86595329D01*
X150110813Y-86620175D01*
X150147495Y-86644685D01*
X150210315Y-86707505D01*
X150259672Y-86781373D01*
X150293669Y-86863448D01*
X150311000Y-86950579D01*
X150311000Y-87039421D01*
X150293669Y-87126552D01*
X150259672Y-87208627D01*
X150259671Y-87208629D01*
X150210314Y-87282496D01*
X150147496Y-87345314D01*
X150073629Y-87394671D01*
X150073628Y-87394672D01*
X150073627Y-87394672D01*
X149991552Y-87428669D01*
X149904421Y-87446000D01*
X149815579Y-87446000D01*
X149728448Y-87428669D01*
X149646373Y-87394672D01*
X149646372Y-87394672D01*
X149646371Y-87394671D01*
X149572504Y-87345314D01*
X149509686Y-87282496D01*
X149460329Y-87208629D01*
X149460328Y-87208627D01*
X149426331Y-87126552D01*
X149409000Y-87039421D01*
X149409000Y-86950579D01*
X149426331Y-86863448D01*
X149460328Y-86781373D01*
X149509685Y-86707505D01*
X149572505Y-86644685D01*
X149609187Y-86620175D01*
X149646371Y-86595329D01*
X149646373Y-86595328D01*
X149728448Y-86561331D01*
X149815579Y-86544000D01*
X149904421Y-86544000D01*
X149991552Y-86561331D01*
X149991552Y-86561331D01*
G37*
G36*
X151261552Y-86561331D02*
G01*
X151343627Y-86595328D01*
X151343629Y-86595329D01*
X151380813Y-86620175D01*
X151417495Y-86644685D01*
X151480315Y-86707505D01*
X151529672Y-86781373D01*
X151563669Y-86863448D01*
X151581000Y-86950579D01*
X151581000Y-87039421D01*
X151563669Y-87126552D01*
X151529672Y-87208627D01*
X151529671Y-87208629D01*
X151480314Y-87282496D01*
X151417496Y-87345314D01*
X151343629Y-87394671D01*
X151343628Y-87394672D01*
X151343627Y-87394672D01*
X151261552Y-87428669D01*
X151174421Y-87446000D01*
X151085579Y-87446000D01*
X150998448Y-87428669D01*
X150916373Y-87394672D01*
X150916372Y-87394672D01*
X150916371Y-87394671D01*
X150842504Y-87345314D01*
X150779686Y-87282496D01*
X150730329Y-87208629D01*
X150730328Y-87208627D01*
X150696331Y-87126552D01*
X150679000Y-87039421D01*
X150679000Y-86950579D01*
X150696331Y-86863448D01*
X150730328Y-86781373D01*
X150779685Y-86707505D01*
X150842505Y-86644685D01*
X150879187Y-86620175D01*
X150916371Y-86595329D01*
X150916373Y-86595328D01*
X150998448Y-86561331D01*
X151085579Y-86544000D01*
X151174421Y-86544000D01*
X151261552Y-86561331D01*
X151261552Y-86561331D01*
G37*
G36*
X127131552Y-86561331D02*
G01*
X127213627Y-86595328D01*
X127213629Y-86595329D01*
X127250813Y-86620175D01*
X127287495Y-86644685D01*
X127350315Y-86707505D01*
X127399672Y-86781373D01*
X127433669Y-86863448D01*
X127451000Y-86950579D01*
X127451000Y-87039421D01*
X127433669Y-87126552D01*
X127399672Y-87208627D01*
X127399671Y-87208629D01*
X127350314Y-87282496D01*
X127287496Y-87345314D01*
X127213629Y-87394671D01*
X127213628Y-87394672D01*
X127213627Y-87394672D01*
X127131552Y-87428669D01*
X127044421Y-87446000D01*
X126955579Y-87446000D01*
X126868448Y-87428669D01*
X126786373Y-87394672D01*
X126786372Y-87394672D01*
X126786371Y-87394671D01*
X126712504Y-87345314D01*
X126649686Y-87282496D01*
X126600329Y-87208629D01*
X126600328Y-87208627D01*
X126566331Y-87126552D01*
X126549000Y-87039421D01*
X126549000Y-86950579D01*
X126566331Y-86863448D01*
X126600328Y-86781373D01*
X126649685Y-86707505D01*
X126712505Y-86644685D01*
X126749187Y-86620175D01*
X126786371Y-86595329D01*
X126786373Y-86595328D01*
X126868448Y-86561331D01*
X126955579Y-86544000D01*
X127044421Y-86544000D01*
X127131552Y-86561331D01*
X127131552Y-86561331D01*
G37*
G36*
X152531552Y-86561331D02*
G01*
X152613627Y-86595328D01*
X152613629Y-86595329D01*
X152650813Y-86620175D01*
X152687495Y-86644685D01*
X152750315Y-86707505D01*
X152799672Y-86781373D01*
X152833669Y-86863448D01*
X152851000Y-86950579D01*
X152851000Y-87039421D01*
X152833669Y-87126552D01*
X152799672Y-87208627D01*
X152799671Y-87208629D01*
X152750314Y-87282496D01*
X152687496Y-87345314D01*
X152613629Y-87394671D01*
X152613628Y-87394672D01*
X152613627Y-87394672D01*
X152531552Y-87428669D01*
X152444421Y-87446000D01*
X152355579Y-87446000D01*
X152268448Y-87428669D01*
X152186373Y-87394672D01*
X152186372Y-87394672D01*
X152186371Y-87394671D01*
X152112504Y-87345314D01*
X152049686Y-87282496D01*
X152000329Y-87208629D01*
X152000328Y-87208627D01*
X151966331Y-87126552D01*
X151949000Y-87039421D01*
X151949000Y-86950579D01*
X151966331Y-86863448D01*
X152000328Y-86781373D01*
X152049685Y-86707505D01*
X152112505Y-86644685D01*
X152149187Y-86620175D01*
X152186371Y-86595329D01*
X152186373Y-86595328D01*
X152268448Y-86561331D01*
X152355579Y-86544000D01*
X152444421Y-86544000D01*
X152531552Y-86561331D01*
X152531552Y-86561331D01*
G37*
G36*
X146181552Y-86561331D02*
G01*
X146263627Y-86595328D01*
X146263629Y-86595329D01*
X146300813Y-86620175D01*
X146337495Y-86644685D01*
X146400315Y-86707505D01*
X146449672Y-86781373D01*
X146483669Y-86863448D01*
X146501000Y-86950579D01*
X146501000Y-87039421D01*
X146483669Y-87126552D01*
X146449672Y-87208627D01*
X146449671Y-87208629D01*
X146400314Y-87282496D01*
X146337496Y-87345314D01*
X146263629Y-87394671D01*
X146263628Y-87394672D01*
X146263627Y-87394672D01*
X146181552Y-87428669D01*
X146094421Y-87446000D01*
X146005579Y-87446000D01*
X145918448Y-87428669D01*
X145836373Y-87394672D01*
X145836372Y-87394672D01*
X145836371Y-87394671D01*
X145762504Y-87345314D01*
X145699686Y-87282496D01*
X145650329Y-87208629D01*
X145650328Y-87208627D01*
X145616331Y-87126552D01*
X145599000Y-87039421D01*
X145599000Y-86950579D01*
X145616331Y-86863448D01*
X145650328Y-86781373D01*
X145699685Y-86707505D01*
X145762505Y-86644685D01*
X145799187Y-86620175D01*
X145836371Y-86595329D01*
X145836373Y-86595328D01*
X145918448Y-86561331D01*
X146005579Y-86544000D01*
X146094421Y-86544000D01*
X146181552Y-86561331D01*
X146181552Y-86561331D01*
G37*
M02*
