G04 #@! TF.GenerationSoftware,KiCad,Pcbnew,5.1.2-f72e74a~84~ubuntu18.04.1*
G04 #@! TF.CreationDate,2019-06-21T19:35:54+10:00*
G04 #@! TF.ProjectId,axis-encoder,61786973-2d65-46e6-936f-6465722e6b69,21/06/19*
G04 #@! TF.SameCoordinates,Original*
G04 #@! TF.FileFunction,Copper,L1,Top*
G04 #@! TF.FilePolarity,Positive*
%FSLAX46Y46*%
G04 Gerber Fmt 4.6, Leading zero omitted, Abs format (unit mm)*
G04 Created by KiCad (PCBNEW 5.1.2-f72e74a~84~ubuntu18.04.1) date 2019-06-21 19:35:54*
%MOMM*%
%LPD*%
G04 APERTURE LIST*
%ADD10C,0.100000*%
%ADD11C,0.600000*%
%ADD12R,0.900000X1.200000*%
%ADD13C,1.250000*%
%ADD14C,1.000000*%
%ADD15C,7.000000*%
%ADD16C,0.800000*%
%ADD17R,1.700000X1.700000*%
%ADD18O,1.700000X1.700000*%
%ADD19R,2.200000X2.200000*%
%ADD20C,2.200000*%
%ADD21C,0.875000*%
%ADD22C,0.250000*%
%ADD23C,0.500000*%
%ADD24C,0.254000*%
G04 APERTURE END LIST*
D10*
G36*
X137959703Y-104370722D02*
G01*
X137974264Y-104372882D01*
X137988543Y-104376459D01*
X138002403Y-104381418D01*
X138015710Y-104387712D01*
X138028336Y-104395280D01*
X138040159Y-104404048D01*
X138051066Y-104413934D01*
X138060952Y-104424841D01*
X138069720Y-104436664D01*
X138077288Y-104449290D01*
X138083582Y-104462597D01*
X138088541Y-104476457D01*
X138092118Y-104490736D01*
X138094278Y-104505297D01*
X138095000Y-104520000D01*
X138095000Y-106170000D01*
X138094278Y-106184703D01*
X138092118Y-106199264D01*
X138088541Y-106213543D01*
X138083582Y-106227403D01*
X138077288Y-106240710D01*
X138069720Y-106253336D01*
X138060952Y-106265159D01*
X138051066Y-106276066D01*
X138040159Y-106285952D01*
X138028336Y-106294720D01*
X138015710Y-106302288D01*
X138002403Y-106308582D01*
X137988543Y-106313541D01*
X137974264Y-106317118D01*
X137959703Y-106319278D01*
X137945000Y-106320000D01*
X137645000Y-106320000D01*
X137630297Y-106319278D01*
X137615736Y-106317118D01*
X137601457Y-106313541D01*
X137587597Y-106308582D01*
X137574290Y-106302288D01*
X137561664Y-106294720D01*
X137549841Y-106285952D01*
X137538934Y-106276066D01*
X137529048Y-106265159D01*
X137520280Y-106253336D01*
X137512712Y-106240710D01*
X137506418Y-106227403D01*
X137501459Y-106213543D01*
X137497882Y-106199264D01*
X137495722Y-106184703D01*
X137495000Y-106170000D01*
X137495000Y-104520000D01*
X137495722Y-104505297D01*
X137497882Y-104490736D01*
X137501459Y-104476457D01*
X137506418Y-104462597D01*
X137512712Y-104449290D01*
X137520280Y-104436664D01*
X137529048Y-104424841D01*
X137538934Y-104413934D01*
X137549841Y-104404048D01*
X137561664Y-104395280D01*
X137574290Y-104387712D01*
X137587597Y-104381418D01*
X137601457Y-104376459D01*
X137615736Y-104372882D01*
X137630297Y-104370722D01*
X137645000Y-104370000D01*
X137945000Y-104370000D01*
X137959703Y-104370722D01*
X137959703Y-104370722D01*
G37*
D11*
X137795000Y-105345000D03*
D10*
G36*
X139229703Y-104370722D02*
G01*
X139244264Y-104372882D01*
X139258543Y-104376459D01*
X139272403Y-104381418D01*
X139285710Y-104387712D01*
X139298336Y-104395280D01*
X139310159Y-104404048D01*
X139321066Y-104413934D01*
X139330952Y-104424841D01*
X139339720Y-104436664D01*
X139347288Y-104449290D01*
X139353582Y-104462597D01*
X139358541Y-104476457D01*
X139362118Y-104490736D01*
X139364278Y-104505297D01*
X139365000Y-104520000D01*
X139365000Y-106170000D01*
X139364278Y-106184703D01*
X139362118Y-106199264D01*
X139358541Y-106213543D01*
X139353582Y-106227403D01*
X139347288Y-106240710D01*
X139339720Y-106253336D01*
X139330952Y-106265159D01*
X139321066Y-106276066D01*
X139310159Y-106285952D01*
X139298336Y-106294720D01*
X139285710Y-106302288D01*
X139272403Y-106308582D01*
X139258543Y-106313541D01*
X139244264Y-106317118D01*
X139229703Y-106319278D01*
X139215000Y-106320000D01*
X138915000Y-106320000D01*
X138900297Y-106319278D01*
X138885736Y-106317118D01*
X138871457Y-106313541D01*
X138857597Y-106308582D01*
X138844290Y-106302288D01*
X138831664Y-106294720D01*
X138819841Y-106285952D01*
X138808934Y-106276066D01*
X138799048Y-106265159D01*
X138790280Y-106253336D01*
X138782712Y-106240710D01*
X138776418Y-106227403D01*
X138771459Y-106213543D01*
X138767882Y-106199264D01*
X138765722Y-106184703D01*
X138765000Y-106170000D01*
X138765000Y-104520000D01*
X138765722Y-104505297D01*
X138767882Y-104490736D01*
X138771459Y-104476457D01*
X138776418Y-104462597D01*
X138782712Y-104449290D01*
X138790280Y-104436664D01*
X138799048Y-104424841D01*
X138808934Y-104413934D01*
X138819841Y-104404048D01*
X138831664Y-104395280D01*
X138844290Y-104387712D01*
X138857597Y-104381418D01*
X138871457Y-104376459D01*
X138885736Y-104372882D01*
X138900297Y-104370722D01*
X138915000Y-104370000D01*
X139215000Y-104370000D01*
X139229703Y-104370722D01*
X139229703Y-104370722D01*
G37*
D11*
X139065000Y-105345000D03*
D10*
G36*
X140499703Y-104370722D02*
G01*
X140514264Y-104372882D01*
X140528543Y-104376459D01*
X140542403Y-104381418D01*
X140555710Y-104387712D01*
X140568336Y-104395280D01*
X140580159Y-104404048D01*
X140591066Y-104413934D01*
X140600952Y-104424841D01*
X140609720Y-104436664D01*
X140617288Y-104449290D01*
X140623582Y-104462597D01*
X140628541Y-104476457D01*
X140632118Y-104490736D01*
X140634278Y-104505297D01*
X140635000Y-104520000D01*
X140635000Y-106170000D01*
X140634278Y-106184703D01*
X140632118Y-106199264D01*
X140628541Y-106213543D01*
X140623582Y-106227403D01*
X140617288Y-106240710D01*
X140609720Y-106253336D01*
X140600952Y-106265159D01*
X140591066Y-106276066D01*
X140580159Y-106285952D01*
X140568336Y-106294720D01*
X140555710Y-106302288D01*
X140542403Y-106308582D01*
X140528543Y-106313541D01*
X140514264Y-106317118D01*
X140499703Y-106319278D01*
X140485000Y-106320000D01*
X140185000Y-106320000D01*
X140170297Y-106319278D01*
X140155736Y-106317118D01*
X140141457Y-106313541D01*
X140127597Y-106308582D01*
X140114290Y-106302288D01*
X140101664Y-106294720D01*
X140089841Y-106285952D01*
X140078934Y-106276066D01*
X140069048Y-106265159D01*
X140060280Y-106253336D01*
X140052712Y-106240710D01*
X140046418Y-106227403D01*
X140041459Y-106213543D01*
X140037882Y-106199264D01*
X140035722Y-106184703D01*
X140035000Y-106170000D01*
X140035000Y-104520000D01*
X140035722Y-104505297D01*
X140037882Y-104490736D01*
X140041459Y-104476457D01*
X140046418Y-104462597D01*
X140052712Y-104449290D01*
X140060280Y-104436664D01*
X140069048Y-104424841D01*
X140078934Y-104413934D01*
X140089841Y-104404048D01*
X140101664Y-104395280D01*
X140114290Y-104387712D01*
X140127597Y-104381418D01*
X140141457Y-104376459D01*
X140155736Y-104372882D01*
X140170297Y-104370722D01*
X140185000Y-104370000D01*
X140485000Y-104370000D01*
X140499703Y-104370722D01*
X140499703Y-104370722D01*
G37*
D11*
X140335000Y-105345000D03*
D10*
G36*
X141769703Y-104370722D02*
G01*
X141784264Y-104372882D01*
X141798543Y-104376459D01*
X141812403Y-104381418D01*
X141825710Y-104387712D01*
X141838336Y-104395280D01*
X141850159Y-104404048D01*
X141861066Y-104413934D01*
X141870952Y-104424841D01*
X141879720Y-104436664D01*
X141887288Y-104449290D01*
X141893582Y-104462597D01*
X141898541Y-104476457D01*
X141902118Y-104490736D01*
X141904278Y-104505297D01*
X141905000Y-104520000D01*
X141905000Y-106170000D01*
X141904278Y-106184703D01*
X141902118Y-106199264D01*
X141898541Y-106213543D01*
X141893582Y-106227403D01*
X141887288Y-106240710D01*
X141879720Y-106253336D01*
X141870952Y-106265159D01*
X141861066Y-106276066D01*
X141850159Y-106285952D01*
X141838336Y-106294720D01*
X141825710Y-106302288D01*
X141812403Y-106308582D01*
X141798543Y-106313541D01*
X141784264Y-106317118D01*
X141769703Y-106319278D01*
X141755000Y-106320000D01*
X141455000Y-106320000D01*
X141440297Y-106319278D01*
X141425736Y-106317118D01*
X141411457Y-106313541D01*
X141397597Y-106308582D01*
X141384290Y-106302288D01*
X141371664Y-106294720D01*
X141359841Y-106285952D01*
X141348934Y-106276066D01*
X141339048Y-106265159D01*
X141330280Y-106253336D01*
X141322712Y-106240710D01*
X141316418Y-106227403D01*
X141311459Y-106213543D01*
X141307882Y-106199264D01*
X141305722Y-106184703D01*
X141305000Y-106170000D01*
X141305000Y-104520000D01*
X141305722Y-104505297D01*
X141307882Y-104490736D01*
X141311459Y-104476457D01*
X141316418Y-104462597D01*
X141322712Y-104449290D01*
X141330280Y-104436664D01*
X141339048Y-104424841D01*
X141348934Y-104413934D01*
X141359841Y-104404048D01*
X141371664Y-104395280D01*
X141384290Y-104387712D01*
X141397597Y-104381418D01*
X141411457Y-104376459D01*
X141425736Y-104372882D01*
X141440297Y-104370722D01*
X141455000Y-104370000D01*
X141755000Y-104370000D01*
X141769703Y-104370722D01*
X141769703Y-104370722D01*
G37*
D11*
X141605000Y-105345000D03*
D10*
G36*
X143039703Y-104370722D02*
G01*
X143054264Y-104372882D01*
X143068543Y-104376459D01*
X143082403Y-104381418D01*
X143095710Y-104387712D01*
X143108336Y-104395280D01*
X143120159Y-104404048D01*
X143131066Y-104413934D01*
X143140952Y-104424841D01*
X143149720Y-104436664D01*
X143157288Y-104449290D01*
X143163582Y-104462597D01*
X143168541Y-104476457D01*
X143172118Y-104490736D01*
X143174278Y-104505297D01*
X143175000Y-104520000D01*
X143175000Y-106170000D01*
X143174278Y-106184703D01*
X143172118Y-106199264D01*
X143168541Y-106213543D01*
X143163582Y-106227403D01*
X143157288Y-106240710D01*
X143149720Y-106253336D01*
X143140952Y-106265159D01*
X143131066Y-106276066D01*
X143120159Y-106285952D01*
X143108336Y-106294720D01*
X143095710Y-106302288D01*
X143082403Y-106308582D01*
X143068543Y-106313541D01*
X143054264Y-106317118D01*
X143039703Y-106319278D01*
X143025000Y-106320000D01*
X142725000Y-106320000D01*
X142710297Y-106319278D01*
X142695736Y-106317118D01*
X142681457Y-106313541D01*
X142667597Y-106308582D01*
X142654290Y-106302288D01*
X142641664Y-106294720D01*
X142629841Y-106285952D01*
X142618934Y-106276066D01*
X142609048Y-106265159D01*
X142600280Y-106253336D01*
X142592712Y-106240710D01*
X142586418Y-106227403D01*
X142581459Y-106213543D01*
X142577882Y-106199264D01*
X142575722Y-106184703D01*
X142575000Y-106170000D01*
X142575000Y-104520000D01*
X142575722Y-104505297D01*
X142577882Y-104490736D01*
X142581459Y-104476457D01*
X142586418Y-104462597D01*
X142592712Y-104449290D01*
X142600280Y-104436664D01*
X142609048Y-104424841D01*
X142618934Y-104413934D01*
X142629841Y-104404048D01*
X142641664Y-104395280D01*
X142654290Y-104387712D01*
X142667597Y-104381418D01*
X142681457Y-104376459D01*
X142695736Y-104372882D01*
X142710297Y-104370722D01*
X142725000Y-104370000D01*
X143025000Y-104370000D01*
X143039703Y-104370722D01*
X143039703Y-104370722D01*
G37*
D11*
X142875000Y-105345000D03*
D10*
G36*
X144309703Y-104370722D02*
G01*
X144324264Y-104372882D01*
X144338543Y-104376459D01*
X144352403Y-104381418D01*
X144365710Y-104387712D01*
X144378336Y-104395280D01*
X144390159Y-104404048D01*
X144401066Y-104413934D01*
X144410952Y-104424841D01*
X144419720Y-104436664D01*
X144427288Y-104449290D01*
X144433582Y-104462597D01*
X144438541Y-104476457D01*
X144442118Y-104490736D01*
X144444278Y-104505297D01*
X144445000Y-104520000D01*
X144445000Y-106170000D01*
X144444278Y-106184703D01*
X144442118Y-106199264D01*
X144438541Y-106213543D01*
X144433582Y-106227403D01*
X144427288Y-106240710D01*
X144419720Y-106253336D01*
X144410952Y-106265159D01*
X144401066Y-106276066D01*
X144390159Y-106285952D01*
X144378336Y-106294720D01*
X144365710Y-106302288D01*
X144352403Y-106308582D01*
X144338543Y-106313541D01*
X144324264Y-106317118D01*
X144309703Y-106319278D01*
X144295000Y-106320000D01*
X143995000Y-106320000D01*
X143980297Y-106319278D01*
X143965736Y-106317118D01*
X143951457Y-106313541D01*
X143937597Y-106308582D01*
X143924290Y-106302288D01*
X143911664Y-106294720D01*
X143899841Y-106285952D01*
X143888934Y-106276066D01*
X143879048Y-106265159D01*
X143870280Y-106253336D01*
X143862712Y-106240710D01*
X143856418Y-106227403D01*
X143851459Y-106213543D01*
X143847882Y-106199264D01*
X143845722Y-106184703D01*
X143845000Y-106170000D01*
X143845000Y-104520000D01*
X143845722Y-104505297D01*
X143847882Y-104490736D01*
X143851459Y-104476457D01*
X143856418Y-104462597D01*
X143862712Y-104449290D01*
X143870280Y-104436664D01*
X143879048Y-104424841D01*
X143888934Y-104413934D01*
X143899841Y-104404048D01*
X143911664Y-104395280D01*
X143924290Y-104387712D01*
X143937597Y-104381418D01*
X143951457Y-104376459D01*
X143965736Y-104372882D01*
X143980297Y-104370722D01*
X143995000Y-104370000D01*
X144295000Y-104370000D01*
X144309703Y-104370722D01*
X144309703Y-104370722D01*
G37*
D11*
X144145000Y-105345000D03*
D10*
G36*
X145579703Y-104370722D02*
G01*
X145594264Y-104372882D01*
X145608543Y-104376459D01*
X145622403Y-104381418D01*
X145635710Y-104387712D01*
X145648336Y-104395280D01*
X145660159Y-104404048D01*
X145671066Y-104413934D01*
X145680952Y-104424841D01*
X145689720Y-104436664D01*
X145697288Y-104449290D01*
X145703582Y-104462597D01*
X145708541Y-104476457D01*
X145712118Y-104490736D01*
X145714278Y-104505297D01*
X145715000Y-104520000D01*
X145715000Y-106170000D01*
X145714278Y-106184703D01*
X145712118Y-106199264D01*
X145708541Y-106213543D01*
X145703582Y-106227403D01*
X145697288Y-106240710D01*
X145689720Y-106253336D01*
X145680952Y-106265159D01*
X145671066Y-106276066D01*
X145660159Y-106285952D01*
X145648336Y-106294720D01*
X145635710Y-106302288D01*
X145622403Y-106308582D01*
X145608543Y-106313541D01*
X145594264Y-106317118D01*
X145579703Y-106319278D01*
X145565000Y-106320000D01*
X145265000Y-106320000D01*
X145250297Y-106319278D01*
X145235736Y-106317118D01*
X145221457Y-106313541D01*
X145207597Y-106308582D01*
X145194290Y-106302288D01*
X145181664Y-106294720D01*
X145169841Y-106285952D01*
X145158934Y-106276066D01*
X145149048Y-106265159D01*
X145140280Y-106253336D01*
X145132712Y-106240710D01*
X145126418Y-106227403D01*
X145121459Y-106213543D01*
X145117882Y-106199264D01*
X145115722Y-106184703D01*
X145115000Y-106170000D01*
X145115000Y-104520000D01*
X145115722Y-104505297D01*
X145117882Y-104490736D01*
X145121459Y-104476457D01*
X145126418Y-104462597D01*
X145132712Y-104449290D01*
X145140280Y-104436664D01*
X145149048Y-104424841D01*
X145158934Y-104413934D01*
X145169841Y-104404048D01*
X145181664Y-104395280D01*
X145194290Y-104387712D01*
X145207597Y-104381418D01*
X145221457Y-104376459D01*
X145235736Y-104372882D01*
X145250297Y-104370722D01*
X145265000Y-104370000D01*
X145565000Y-104370000D01*
X145579703Y-104370722D01*
X145579703Y-104370722D01*
G37*
D11*
X145415000Y-105345000D03*
D10*
G36*
X145579703Y-99420722D02*
G01*
X145594264Y-99422882D01*
X145608543Y-99426459D01*
X145622403Y-99431418D01*
X145635710Y-99437712D01*
X145648336Y-99445280D01*
X145660159Y-99454048D01*
X145671066Y-99463934D01*
X145680952Y-99474841D01*
X145689720Y-99486664D01*
X145697288Y-99499290D01*
X145703582Y-99512597D01*
X145708541Y-99526457D01*
X145712118Y-99540736D01*
X145714278Y-99555297D01*
X145715000Y-99570000D01*
X145715000Y-101220000D01*
X145714278Y-101234703D01*
X145712118Y-101249264D01*
X145708541Y-101263543D01*
X145703582Y-101277403D01*
X145697288Y-101290710D01*
X145689720Y-101303336D01*
X145680952Y-101315159D01*
X145671066Y-101326066D01*
X145660159Y-101335952D01*
X145648336Y-101344720D01*
X145635710Y-101352288D01*
X145622403Y-101358582D01*
X145608543Y-101363541D01*
X145594264Y-101367118D01*
X145579703Y-101369278D01*
X145565000Y-101370000D01*
X145265000Y-101370000D01*
X145250297Y-101369278D01*
X145235736Y-101367118D01*
X145221457Y-101363541D01*
X145207597Y-101358582D01*
X145194290Y-101352288D01*
X145181664Y-101344720D01*
X145169841Y-101335952D01*
X145158934Y-101326066D01*
X145149048Y-101315159D01*
X145140280Y-101303336D01*
X145132712Y-101290710D01*
X145126418Y-101277403D01*
X145121459Y-101263543D01*
X145117882Y-101249264D01*
X145115722Y-101234703D01*
X145115000Y-101220000D01*
X145115000Y-99570000D01*
X145115722Y-99555297D01*
X145117882Y-99540736D01*
X145121459Y-99526457D01*
X145126418Y-99512597D01*
X145132712Y-99499290D01*
X145140280Y-99486664D01*
X145149048Y-99474841D01*
X145158934Y-99463934D01*
X145169841Y-99454048D01*
X145181664Y-99445280D01*
X145194290Y-99437712D01*
X145207597Y-99431418D01*
X145221457Y-99426459D01*
X145235736Y-99422882D01*
X145250297Y-99420722D01*
X145265000Y-99420000D01*
X145565000Y-99420000D01*
X145579703Y-99420722D01*
X145579703Y-99420722D01*
G37*
D11*
X145415000Y-100395000D03*
D10*
G36*
X144309703Y-99420722D02*
G01*
X144324264Y-99422882D01*
X144338543Y-99426459D01*
X144352403Y-99431418D01*
X144365710Y-99437712D01*
X144378336Y-99445280D01*
X144390159Y-99454048D01*
X144401066Y-99463934D01*
X144410952Y-99474841D01*
X144419720Y-99486664D01*
X144427288Y-99499290D01*
X144433582Y-99512597D01*
X144438541Y-99526457D01*
X144442118Y-99540736D01*
X144444278Y-99555297D01*
X144445000Y-99570000D01*
X144445000Y-101220000D01*
X144444278Y-101234703D01*
X144442118Y-101249264D01*
X144438541Y-101263543D01*
X144433582Y-101277403D01*
X144427288Y-101290710D01*
X144419720Y-101303336D01*
X144410952Y-101315159D01*
X144401066Y-101326066D01*
X144390159Y-101335952D01*
X144378336Y-101344720D01*
X144365710Y-101352288D01*
X144352403Y-101358582D01*
X144338543Y-101363541D01*
X144324264Y-101367118D01*
X144309703Y-101369278D01*
X144295000Y-101370000D01*
X143995000Y-101370000D01*
X143980297Y-101369278D01*
X143965736Y-101367118D01*
X143951457Y-101363541D01*
X143937597Y-101358582D01*
X143924290Y-101352288D01*
X143911664Y-101344720D01*
X143899841Y-101335952D01*
X143888934Y-101326066D01*
X143879048Y-101315159D01*
X143870280Y-101303336D01*
X143862712Y-101290710D01*
X143856418Y-101277403D01*
X143851459Y-101263543D01*
X143847882Y-101249264D01*
X143845722Y-101234703D01*
X143845000Y-101220000D01*
X143845000Y-99570000D01*
X143845722Y-99555297D01*
X143847882Y-99540736D01*
X143851459Y-99526457D01*
X143856418Y-99512597D01*
X143862712Y-99499290D01*
X143870280Y-99486664D01*
X143879048Y-99474841D01*
X143888934Y-99463934D01*
X143899841Y-99454048D01*
X143911664Y-99445280D01*
X143924290Y-99437712D01*
X143937597Y-99431418D01*
X143951457Y-99426459D01*
X143965736Y-99422882D01*
X143980297Y-99420722D01*
X143995000Y-99420000D01*
X144295000Y-99420000D01*
X144309703Y-99420722D01*
X144309703Y-99420722D01*
G37*
D11*
X144145000Y-100395000D03*
D10*
G36*
X143039703Y-99420722D02*
G01*
X143054264Y-99422882D01*
X143068543Y-99426459D01*
X143082403Y-99431418D01*
X143095710Y-99437712D01*
X143108336Y-99445280D01*
X143120159Y-99454048D01*
X143131066Y-99463934D01*
X143140952Y-99474841D01*
X143149720Y-99486664D01*
X143157288Y-99499290D01*
X143163582Y-99512597D01*
X143168541Y-99526457D01*
X143172118Y-99540736D01*
X143174278Y-99555297D01*
X143175000Y-99570000D01*
X143175000Y-101220000D01*
X143174278Y-101234703D01*
X143172118Y-101249264D01*
X143168541Y-101263543D01*
X143163582Y-101277403D01*
X143157288Y-101290710D01*
X143149720Y-101303336D01*
X143140952Y-101315159D01*
X143131066Y-101326066D01*
X143120159Y-101335952D01*
X143108336Y-101344720D01*
X143095710Y-101352288D01*
X143082403Y-101358582D01*
X143068543Y-101363541D01*
X143054264Y-101367118D01*
X143039703Y-101369278D01*
X143025000Y-101370000D01*
X142725000Y-101370000D01*
X142710297Y-101369278D01*
X142695736Y-101367118D01*
X142681457Y-101363541D01*
X142667597Y-101358582D01*
X142654290Y-101352288D01*
X142641664Y-101344720D01*
X142629841Y-101335952D01*
X142618934Y-101326066D01*
X142609048Y-101315159D01*
X142600280Y-101303336D01*
X142592712Y-101290710D01*
X142586418Y-101277403D01*
X142581459Y-101263543D01*
X142577882Y-101249264D01*
X142575722Y-101234703D01*
X142575000Y-101220000D01*
X142575000Y-99570000D01*
X142575722Y-99555297D01*
X142577882Y-99540736D01*
X142581459Y-99526457D01*
X142586418Y-99512597D01*
X142592712Y-99499290D01*
X142600280Y-99486664D01*
X142609048Y-99474841D01*
X142618934Y-99463934D01*
X142629841Y-99454048D01*
X142641664Y-99445280D01*
X142654290Y-99437712D01*
X142667597Y-99431418D01*
X142681457Y-99426459D01*
X142695736Y-99422882D01*
X142710297Y-99420722D01*
X142725000Y-99420000D01*
X143025000Y-99420000D01*
X143039703Y-99420722D01*
X143039703Y-99420722D01*
G37*
D11*
X142875000Y-100395000D03*
D10*
G36*
X141769703Y-99420722D02*
G01*
X141784264Y-99422882D01*
X141798543Y-99426459D01*
X141812403Y-99431418D01*
X141825710Y-99437712D01*
X141838336Y-99445280D01*
X141850159Y-99454048D01*
X141861066Y-99463934D01*
X141870952Y-99474841D01*
X141879720Y-99486664D01*
X141887288Y-99499290D01*
X141893582Y-99512597D01*
X141898541Y-99526457D01*
X141902118Y-99540736D01*
X141904278Y-99555297D01*
X141905000Y-99570000D01*
X141905000Y-101220000D01*
X141904278Y-101234703D01*
X141902118Y-101249264D01*
X141898541Y-101263543D01*
X141893582Y-101277403D01*
X141887288Y-101290710D01*
X141879720Y-101303336D01*
X141870952Y-101315159D01*
X141861066Y-101326066D01*
X141850159Y-101335952D01*
X141838336Y-101344720D01*
X141825710Y-101352288D01*
X141812403Y-101358582D01*
X141798543Y-101363541D01*
X141784264Y-101367118D01*
X141769703Y-101369278D01*
X141755000Y-101370000D01*
X141455000Y-101370000D01*
X141440297Y-101369278D01*
X141425736Y-101367118D01*
X141411457Y-101363541D01*
X141397597Y-101358582D01*
X141384290Y-101352288D01*
X141371664Y-101344720D01*
X141359841Y-101335952D01*
X141348934Y-101326066D01*
X141339048Y-101315159D01*
X141330280Y-101303336D01*
X141322712Y-101290710D01*
X141316418Y-101277403D01*
X141311459Y-101263543D01*
X141307882Y-101249264D01*
X141305722Y-101234703D01*
X141305000Y-101220000D01*
X141305000Y-99570000D01*
X141305722Y-99555297D01*
X141307882Y-99540736D01*
X141311459Y-99526457D01*
X141316418Y-99512597D01*
X141322712Y-99499290D01*
X141330280Y-99486664D01*
X141339048Y-99474841D01*
X141348934Y-99463934D01*
X141359841Y-99454048D01*
X141371664Y-99445280D01*
X141384290Y-99437712D01*
X141397597Y-99431418D01*
X141411457Y-99426459D01*
X141425736Y-99422882D01*
X141440297Y-99420722D01*
X141455000Y-99420000D01*
X141755000Y-99420000D01*
X141769703Y-99420722D01*
X141769703Y-99420722D01*
G37*
D11*
X141605000Y-100395000D03*
D10*
G36*
X140499703Y-99420722D02*
G01*
X140514264Y-99422882D01*
X140528543Y-99426459D01*
X140542403Y-99431418D01*
X140555710Y-99437712D01*
X140568336Y-99445280D01*
X140580159Y-99454048D01*
X140591066Y-99463934D01*
X140600952Y-99474841D01*
X140609720Y-99486664D01*
X140617288Y-99499290D01*
X140623582Y-99512597D01*
X140628541Y-99526457D01*
X140632118Y-99540736D01*
X140634278Y-99555297D01*
X140635000Y-99570000D01*
X140635000Y-101220000D01*
X140634278Y-101234703D01*
X140632118Y-101249264D01*
X140628541Y-101263543D01*
X140623582Y-101277403D01*
X140617288Y-101290710D01*
X140609720Y-101303336D01*
X140600952Y-101315159D01*
X140591066Y-101326066D01*
X140580159Y-101335952D01*
X140568336Y-101344720D01*
X140555710Y-101352288D01*
X140542403Y-101358582D01*
X140528543Y-101363541D01*
X140514264Y-101367118D01*
X140499703Y-101369278D01*
X140485000Y-101370000D01*
X140185000Y-101370000D01*
X140170297Y-101369278D01*
X140155736Y-101367118D01*
X140141457Y-101363541D01*
X140127597Y-101358582D01*
X140114290Y-101352288D01*
X140101664Y-101344720D01*
X140089841Y-101335952D01*
X140078934Y-101326066D01*
X140069048Y-101315159D01*
X140060280Y-101303336D01*
X140052712Y-101290710D01*
X140046418Y-101277403D01*
X140041459Y-101263543D01*
X140037882Y-101249264D01*
X140035722Y-101234703D01*
X140035000Y-101220000D01*
X140035000Y-99570000D01*
X140035722Y-99555297D01*
X140037882Y-99540736D01*
X140041459Y-99526457D01*
X140046418Y-99512597D01*
X140052712Y-99499290D01*
X140060280Y-99486664D01*
X140069048Y-99474841D01*
X140078934Y-99463934D01*
X140089841Y-99454048D01*
X140101664Y-99445280D01*
X140114290Y-99437712D01*
X140127597Y-99431418D01*
X140141457Y-99426459D01*
X140155736Y-99422882D01*
X140170297Y-99420722D01*
X140185000Y-99420000D01*
X140485000Y-99420000D01*
X140499703Y-99420722D01*
X140499703Y-99420722D01*
G37*
D11*
X140335000Y-100395000D03*
D10*
G36*
X139229703Y-99420722D02*
G01*
X139244264Y-99422882D01*
X139258543Y-99426459D01*
X139272403Y-99431418D01*
X139285710Y-99437712D01*
X139298336Y-99445280D01*
X139310159Y-99454048D01*
X139321066Y-99463934D01*
X139330952Y-99474841D01*
X139339720Y-99486664D01*
X139347288Y-99499290D01*
X139353582Y-99512597D01*
X139358541Y-99526457D01*
X139362118Y-99540736D01*
X139364278Y-99555297D01*
X139365000Y-99570000D01*
X139365000Y-101220000D01*
X139364278Y-101234703D01*
X139362118Y-101249264D01*
X139358541Y-101263543D01*
X139353582Y-101277403D01*
X139347288Y-101290710D01*
X139339720Y-101303336D01*
X139330952Y-101315159D01*
X139321066Y-101326066D01*
X139310159Y-101335952D01*
X139298336Y-101344720D01*
X139285710Y-101352288D01*
X139272403Y-101358582D01*
X139258543Y-101363541D01*
X139244264Y-101367118D01*
X139229703Y-101369278D01*
X139215000Y-101370000D01*
X138915000Y-101370000D01*
X138900297Y-101369278D01*
X138885736Y-101367118D01*
X138871457Y-101363541D01*
X138857597Y-101358582D01*
X138844290Y-101352288D01*
X138831664Y-101344720D01*
X138819841Y-101335952D01*
X138808934Y-101326066D01*
X138799048Y-101315159D01*
X138790280Y-101303336D01*
X138782712Y-101290710D01*
X138776418Y-101277403D01*
X138771459Y-101263543D01*
X138767882Y-101249264D01*
X138765722Y-101234703D01*
X138765000Y-101220000D01*
X138765000Y-99570000D01*
X138765722Y-99555297D01*
X138767882Y-99540736D01*
X138771459Y-99526457D01*
X138776418Y-99512597D01*
X138782712Y-99499290D01*
X138790280Y-99486664D01*
X138799048Y-99474841D01*
X138808934Y-99463934D01*
X138819841Y-99454048D01*
X138831664Y-99445280D01*
X138844290Y-99437712D01*
X138857597Y-99431418D01*
X138871457Y-99426459D01*
X138885736Y-99422882D01*
X138900297Y-99420722D01*
X138915000Y-99420000D01*
X139215000Y-99420000D01*
X139229703Y-99420722D01*
X139229703Y-99420722D01*
G37*
D11*
X139065000Y-100395000D03*
D10*
G36*
X137959703Y-99420722D02*
G01*
X137974264Y-99422882D01*
X137988543Y-99426459D01*
X138002403Y-99431418D01*
X138015710Y-99437712D01*
X138028336Y-99445280D01*
X138040159Y-99454048D01*
X138051066Y-99463934D01*
X138060952Y-99474841D01*
X138069720Y-99486664D01*
X138077288Y-99499290D01*
X138083582Y-99512597D01*
X138088541Y-99526457D01*
X138092118Y-99540736D01*
X138094278Y-99555297D01*
X138095000Y-99570000D01*
X138095000Y-101220000D01*
X138094278Y-101234703D01*
X138092118Y-101249264D01*
X138088541Y-101263543D01*
X138083582Y-101277403D01*
X138077288Y-101290710D01*
X138069720Y-101303336D01*
X138060952Y-101315159D01*
X138051066Y-101326066D01*
X138040159Y-101335952D01*
X138028336Y-101344720D01*
X138015710Y-101352288D01*
X138002403Y-101358582D01*
X137988543Y-101363541D01*
X137974264Y-101367118D01*
X137959703Y-101369278D01*
X137945000Y-101370000D01*
X137645000Y-101370000D01*
X137630297Y-101369278D01*
X137615736Y-101367118D01*
X137601457Y-101363541D01*
X137587597Y-101358582D01*
X137574290Y-101352288D01*
X137561664Y-101344720D01*
X137549841Y-101335952D01*
X137538934Y-101326066D01*
X137529048Y-101315159D01*
X137520280Y-101303336D01*
X137512712Y-101290710D01*
X137506418Y-101277403D01*
X137501459Y-101263543D01*
X137497882Y-101249264D01*
X137495722Y-101234703D01*
X137495000Y-101220000D01*
X137495000Y-99570000D01*
X137495722Y-99555297D01*
X137497882Y-99540736D01*
X137501459Y-99526457D01*
X137506418Y-99512597D01*
X137512712Y-99499290D01*
X137520280Y-99486664D01*
X137529048Y-99474841D01*
X137538934Y-99463934D01*
X137549841Y-99454048D01*
X137561664Y-99445280D01*
X137574290Y-99437712D01*
X137587597Y-99431418D01*
X137601457Y-99426459D01*
X137615736Y-99422882D01*
X137630297Y-99420722D01*
X137645000Y-99420000D01*
X137945000Y-99420000D01*
X137959703Y-99420722D01*
X137959703Y-99420722D01*
G37*
D11*
X137795000Y-100395000D03*
D12*
X127255000Y-106045000D03*
X130555000Y-106045000D03*
D10*
G36*
X130704504Y-102631204D02*
G01*
X130728773Y-102634804D01*
X130752571Y-102640765D01*
X130775671Y-102649030D01*
X130797849Y-102659520D01*
X130818893Y-102672133D01*
X130838598Y-102686747D01*
X130856777Y-102703223D01*
X130873253Y-102721402D01*
X130887867Y-102741107D01*
X130900480Y-102762151D01*
X130910970Y-102784329D01*
X130919235Y-102807429D01*
X130925196Y-102831227D01*
X130928796Y-102855496D01*
X130930000Y-102880000D01*
X130930000Y-104130000D01*
X130928796Y-104154504D01*
X130925196Y-104178773D01*
X130919235Y-104202571D01*
X130910970Y-104225671D01*
X130900480Y-104247849D01*
X130887867Y-104268893D01*
X130873253Y-104288598D01*
X130856777Y-104306777D01*
X130838598Y-104323253D01*
X130818893Y-104337867D01*
X130797849Y-104350480D01*
X130775671Y-104360970D01*
X130752571Y-104369235D01*
X130728773Y-104375196D01*
X130704504Y-104378796D01*
X130680000Y-104380000D01*
X129930000Y-104380000D01*
X129905496Y-104378796D01*
X129881227Y-104375196D01*
X129857429Y-104369235D01*
X129834329Y-104360970D01*
X129812151Y-104350480D01*
X129791107Y-104337867D01*
X129771402Y-104323253D01*
X129753223Y-104306777D01*
X129736747Y-104288598D01*
X129722133Y-104268893D01*
X129709520Y-104247849D01*
X129699030Y-104225671D01*
X129690765Y-104202571D01*
X129684804Y-104178773D01*
X129681204Y-104154504D01*
X129680000Y-104130000D01*
X129680000Y-102880000D01*
X129681204Y-102855496D01*
X129684804Y-102831227D01*
X129690765Y-102807429D01*
X129699030Y-102784329D01*
X129709520Y-102762151D01*
X129722133Y-102741107D01*
X129736747Y-102721402D01*
X129753223Y-102703223D01*
X129771402Y-102686747D01*
X129791107Y-102672133D01*
X129812151Y-102659520D01*
X129834329Y-102649030D01*
X129857429Y-102640765D01*
X129881227Y-102634804D01*
X129905496Y-102631204D01*
X129930000Y-102630000D01*
X130680000Y-102630000D01*
X130704504Y-102631204D01*
X130704504Y-102631204D01*
G37*
D13*
X130305000Y-103505000D03*
D10*
G36*
X127904504Y-102631204D02*
G01*
X127928773Y-102634804D01*
X127952571Y-102640765D01*
X127975671Y-102649030D01*
X127997849Y-102659520D01*
X128018893Y-102672133D01*
X128038598Y-102686747D01*
X128056777Y-102703223D01*
X128073253Y-102721402D01*
X128087867Y-102741107D01*
X128100480Y-102762151D01*
X128110970Y-102784329D01*
X128119235Y-102807429D01*
X128125196Y-102831227D01*
X128128796Y-102855496D01*
X128130000Y-102880000D01*
X128130000Y-104130000D01*
X128128796Y-104154504D01*
X128125196Y-104178773D01*
X128119235Y-104202571D01*
X128110970Y-104225671D01*
X128100480Y-104247849D01*
X128087867Y-104268893D01*
X128073253Y-104288598D01*
X128056777Y-104306777D01*
X128038598Y-104323253D01*
X128018893Y-104337867D01*
X127997849Y-104350480D01*
X127975671Y-104360970D01*
X127952571Y-104369235D01*
X127928773Y-104375196D01*
X127904504Y-104378796D01*
X127880000Y-104380000D01*
X127130000Y-104380000D01*
X127105496Y-104378796D01*
X127081227Y-104375196D01*
X127057429Y-104369235D01*
X127034329Y-104360970D01*
X127012151Y-104350480D01*
X126991107Y-104337867D01*
X126971402Y-104323253D01*
X126953223Y-104306777D01*
X126936747Y-104288598D01*
X126922133Y-104268893D01*
X126909520Y-104247849D01*
X126899030Y-104225671D01*
X126890765Y-104202571D01*
X126884804Y-104178773D01*
X126881204Y-104154504D01*
X126880000Y-104130000D01*
X126880000Y-102880000D01*
X126881204Y-102855496D01*
X126884804Y-102831227D01*
X126890765Y-102807429D01*
X126899030Y-102784329D01*
X126909520Y-102762151D01*
X126922133Y-102741107D01*
X126936747Y-102721402D01*
X126953223Y-102703223D01*
X126971402Y-102686747D01*
X126991107Y-102672133D01*
X127012151Y-102659520D01*
X127034329Y-102649030D01*
X127057429Y-102640765D01*
X127081227Y-102634804D01*
X127105496Y-102631204D01*
X127130000Y-102630000D01*
X127880000Y-102630000D01*
X127904504Y-102631204D01*
X127904504Y-102631204D01*
G37*
D13*
X127505000Y-103505000D03*
D14*
X123825000Y-88265000D03*
X167640000Y-88265000D03*
X123825000Y-107315000D03*
X167640000Y-107315000D03*
D15*
X165100000Y-97790000D03*
D16*
X167725000Y-97790000D03*
X166956155Y-99646155D03*
X165100000Y-100415000D03*
X163243845Y-99646155D03*
X162475000Y-97790000D03*
X163243845Y-95933845D03*
X165100000Y-95165000D03*
X166956155Y-95933845D03*
D17*
X123825000Y-91440000D03*
D18*
X123825000Y-93980000D03*
X123825000Y-96520000D03*
X123825000Y-99060000D03*
X123825000Y-101600000D03*
X123825000Y-104140000D03*
D19*
X156845000Y-88900000D03*
D20*
X156845000Y-91440000D03*
X156845000Y-93980000D03*
X156845000Y-96520000D03*
X156845000Y-106680000D03*
X156845000Y-104140000D03*
X156845000Y-101600000D03*
D19*
X156845000Y-99060000D03*
D10*
G36*
X137959703Y-90530722D02*
G01*
X137974264Y-90532882D01*
X137988543Y-90536459D01*
X138002403Y-90541418D01*
X138015710Y-90547712D01*
X138028336Y-90555280D01*
X138040159Y-90564048D01*
X138051066Y-90573934D01*
X138060952Y-90584841D01*
X138069720Y-90596664D01*
X138077288Y-90609290D01*
X138083582Y-90622597D01*
X138088541Y-90636457D01*
X138092118Y-90650736D01*
X138094278Y-90665297D01*
X138095000Y-90680000D01*
X138095000Y-92330000D01*
X138094278Y-92344703D01*
X138092118Y-92359264D01*
X138088541Y-92373543D01*
X138083582Y-92387403D01*
X138077288Y-92400710D01*
X138069720Y-92413336D01*
X138060952Y-92425159D01*
X138051066Y-92436066D01*
X138040159Y-92445952D01*
X138028336Y-92454720D01*
X138015710Y-92462288D01*
X138002403Y-92468582D01*
X137988543Y-92473541D01*
X137974264Y-92477118D01*
X137959703Y-92479278D01*
X137945000Y-92480000D01*
X137645000Y-92480000D01*
X137630297Y-92479278D01*
X137615736Y-92477118D01*
X137601457Y-92473541D01*
X137587597Y-92468582D01*
X137574290Y-92462288D01*
X137561664Y-92454720D01*
X137549841Y-92445952D01*
X137538934Y-92436066D01*
X137529048Y-92425159D01*
X137520280Y-92413336D01*
X137512712Y-92400710D01*
X137506418Y-92387403D01*
X137501459Y-92373543D01*
X137497882Y-92359264D01*
X137495722Y-92344703D01*
X137495000Y-92330000D01*
X137495000Y-90680000D01*
X137495722Y-90665297D01*
X137497882Y-90650736D01*
X137501459Y-90636457D01*
X137506418Y-90622597D01*
X137512712Y-90609290D01*
X137520280Y-90596664D01*
X137529048Y-90584841D01*
X137538934Y-90573934D01*
X137549841Y-90564048D01*
X137561664Y-90555280D01*
X137574290Y-90547712D01*
X137587597Y-90541418D01*
X137601457Y-90536459D01*
X137615736Y-90532882D01*
X137630297Y-90530722D01*
X137645000Y-90530000D01*
X137945000Y-90530000D01*
X137959703Y-90530722D01*
X137959703Y-90530722D01*
G37*
D11*
X137795000Y-91505000D03*
D10*
G36*
X139229703Y-90530722D02*
G01*
X139244264Y-90532882D01*
X139258543Y-90536459D01*
X139272403Y-90541418D01*
X139285710Y-90547712D01*
X139298336Y-90555280D01*
X139310159Y-90564048D01*
X139321066Y-90573934D01*
X139330952Y-90584841D01*
X139339720Y-90596664D01*
X139347288Y-90609290D01*
X139353582Y-90622597D01*
X139358541Y-90636457D01*
X139362118Y-90650736D01*
X139364278Y-90665297D01*
X139365000Y-90680000D01*
X139365000Y-92330000D01*
X139364278Y-92344703D01*
X139362118Y-92359264D01*
X139358541Y-92373543D01*
X139353582Y-92387403D01*
X139347288Y-92400710D01*
X139339720Y-92413336D01*
X139330952Y-92425159D01*
X139321066Y-92436066D01*
X139310159Y-92445952D01*
X139298336Y-92454720D01*
X139285710Y-92462288D01*
X139272403Y-92468582D01*
X139258543Y-92473541D01*
X139244264Y-92477118D01*
X139229703Y-92479278D01*
X139215000Y-92480000D01*
X138915000Y-92480000D01*
X138900297Y-92479278D01*
X138885736Y-92477118D01*
X138871457Y-92473541D01*
X138857597Y-92468582D01*
X138844290Y-92462288D01*
X138831664Y-92454720D01*
X138819841Y-92445952D01*
X138808934Y-92436066D01*
X138799048Y-92425159D01*
X138790280Y-92413336D01*
X138782712Y-92400710D01*
X138776418Y-92387403D01*
X138771459Y-92373543D01*
X138767882Y-92359264D01*
X138765722Y-92344703D01*
X138765000Y-92330000D01*
X138765000Y-90680000D01*
X138765722Y-90665297D01*
X138767882Y-90650736D01*
X138771459Y-90636457D01*
X138776418Y-90622597D01*
X138782712Y-90609290D01*
X138790280Y-90596664D01*
X138799048Y-90584841D01*
X138808934Y-90573934D01*
X138819841Y-90564048D01*
X138831664Y-90555280D01*
X138844290Y-90547712D01*
X138857597Y-90541418D01*
X138871457Y-90536459D01*
X138885736Y-90532882D01*
X138900297Y-90530722D01*
X138915000Y-90530000D01*
X139215000Y-90530000D01*
X139229703Y-90530722D01*
X139229703Y-90530722D01*
G37*
D11*
X139065000Y-91505000D03*
D10*
G36*
X140499703Y-90530722D02*
G01*
X140514264Y-90532882D01*
X140528543Y-90536459D01*
X140542403Y-90541418D01*
X140555710Y-90547712D01*
X140568336Y-90555280D01*
X140580159Y-90564048D01*
X140591066Y-90573934D01*
X140600952Y-90584841D01*
X140609720Y-90596664D01*
X140617288Y-90609290D01*
X140623582Y-90622597D01*
X140628541Y-90636457D01*
X140632118Y-90650736D01*
X140634278Y-90665297D01*
X140635000Y-90680000D01*
X140635000Y-92330000D01*
X140634278Y-92344703D01*
X140632118Y-92359264D01*
X140628541Y-92373543D01*
X140623582Y-92387403D01*
X140617288Y-92400710D01*
X140609720Y-92413336D01*
X140600952Y-92425159D01*
X140591066Y-92436066D01*
X140580159Y-92445952D01*
X140568336Y-92454720D01*
X140555710Y-92462288D01*
X140542403Y-92468582D01*
X140528543Y-92473541D01*
X140514264Y-92477118D01*
X140499703Y-92479278D01*
X140485000Y-92480000D01*
X140185000Y-92480000D01*
X140170297Y-92479278D01*
X140155736Y-92477118D01*
X140141457Y-92473541D01*
X140127597Y-92468582D01*
X140114290Y-92462288D01*
X140101664Y-92454720D01*
X140089841Y-92445952D01*
X140078934Y-92436066D01*
X140069048Y-92425159D01*
X140060280Y-92413336D01*
X140052712Y-92400710D01*
X140046418Y-92387403D01*
X140041459Y-92373543D01*
X140037882Y-92359264D01*
X140035722Y-92344703D01*
X140035000Y-92330000D01*
X140035000Y-90680000D01*
X140035722Y-90665297D01*
X140037882Y-90650736D01*
X140041459Y-90636457D01*
X140046418Y-90622597D01*
X140052712Y-90609290D01*
X140060280Y-90596664D01*
X140069048Y-90584841D01*
X140078934Y-90573934D01*
X140089841Y-90564048D01*
X140101664Y-90555280D01*
X140114290Y-90547712D01*
X140127597Y-90541418D01*
X140141457Y-90536459D01*
X140155736Y-90532882D01*
X140170297Y-90530722D01*
X140185000Y-90530000D01*
X140485000Y-90530000D01*
X140499703Y-90530722D01*
X140499703Y-90530722D01*
G37*
D11*
X140335000Y-91505000D03*
D10*
G36*
X141769703Y-90530722D02*
G01*
X141784264Y-90532882D01*
X141798543Y-90536459D01*
X141812403Y-90541418D01*
X141825710Y-90547712D01*
X141838336Y-90555280D01*
X141850159Y-90564048D01*
X141861066Y-90573934D01*
X141870952Y-90584841D01*
X141879720Y-90596664D01*
X141887288Y-90609290D01*
X141893582Y-90622597D01*
X141898541Y-90636457D01*
X141902118Y-90650736D01*
X141904278Y-90665297D01*
X141905000Y-90680000D01*
X141905000Y-92330000D01*
X141904278Y-92344703D01*
X141902118Y-92359264D01*
X141898541Y-92373543D01*
X141893582Y-92387403D01*
X141887288Y-92400710D01*
X141879720Y-92413336D01*
X141870952Y-92425159D01*
X141861066Y-92436066D01*
X141850159Y-92445952D01*
X141838336Y-92454720D01*
X141825710Y-92462288D01*
X141812403Y-92468582D01*
X141798543Y-92473541D01*
X141784264Y-92477118D01*
X141769703Y-92479278D01*
X141755000Y-92480000D01*
X141455000Y-92480000D01*
X141440297Y-92479278D01*
X141425736Y-92477118D01*
X141411457Y-92473541D01*
X141397597Y-92468582D01*
X141384290Y-92462288D01*
X141371664Y-92454720D01*
X141359841Y-92445952D01*
X141348934Y-92436066D01*
X141339048Y-92425159D01*
X141330280Y-92413336D01*
X141322712Y-92400710D01*
X141316418Y-92387403D01*
X141311459Y-92373543D01*
X141307882Y-92359264D01*
X141305722Y-92344703D01*
X141305000Y-92330000D01*
X141305000Y-90680000D01*
X141305722Y-90665297D01*
X141307882Y-90650736D01*
X141311459Y-90636457D01*
X141316418Y-90622597D01*
X141322712Y-90609290D01*
X141330280Y-90596664D01*
X141339048Y-90584841D01*
X141348934Y-90573934D01*
X141359841Y-90564048D01*
X141371664Y-90555280D01*
X141384290Y-90547712D01*
X141397597Y-90541418D01*
X141411457Y-90536459D01*
X141425736Y-90532882D01*
X141440297Y-90530722D01*
X141455000Y-90530000D01*
X141755000Y-90530000D01*
X141769703Y-90530722D01*
X141769703Y-90530722D01*
G37*
D11*
X141605000Y-91505000D03*
D10*
G36*
X143039703Y-90530722D02*
G01*
X143054264Y-90532882D01*
X143068543Y-90536459D01*
X143082403Y-90541418D01*
X143095710Y-90547712D01*
X143108336Y-90555280D01*
X143120159Y-90564048D01*
X143131066Y-90573934D01*
X143140952Y-90584841D01*
X143149720Y-90596664D01*
X143157288Y-90609290D01*
X143163582Y-90622597D01*
X143168541Y-90636457D01*
X143172118Y-90650736D01*
X143174278Y-90665297D01*
X143175000Y-90680000D01*
X143175000Y-92330000D01*
X143174278Y-92344703D01*
X143172118Y-92359264D01*
X143168541Y-92373543D01*
X143163582Y-92387403D01*
X143157288Y-92400710D01*
X143149720Y-92413336D01*
X143140952Y-92425159D01*
X143131066Y-92436066D01*
X143120159Y-92445952D01*
X143108336Y-92454720D01*
X143095710Y-92462288D01*
X143082403Y-92468582D01*
X143068543Y-92473541D01*
X143054264Y-92477118D01*
X143039703Y-92479278D01*
X143025000Y-92480000D01*
X142725000Y-92480000D01*
X142710297Y-92479278D01*
X142695736Y-92477118D01*
X142681457Y-92473541D01*
X142667597Y-92468582D01*
X142654290Y-92462288D01*
X142641664Y-92454720D01*
X142629841Y-92445952D01*
X142618934Y-92436066D01*
X142609048Y-92425159D01*
X142600280Y-92413336D01*
X142592712Y-92400710D01*
X142586418Y-92387403D01*
X142581459Y-92373543D01*
X142577882Y-92359264D01*
X142575722Y-92344703D01*
X142575000Y-92330000D01*
X142575000Y-90680000D01*
X142575722Y-90665297D01*
X142577882Y-90650736D01*
X142581459Y-90636457D01*
X142586418Y-90622597D01*
X142592712Y-90609290D01*
X142600280Y-90596664D01*
X142609048Y-90584841D01*
X142618934Y-90573934D01*
X142629841Y-90564048D01*
X142641664Y-90555280D01*
X142654290Y-90547712D01*
X142667597Y-90541418D01*
X142681457Y-90536459D01*
X142695736Y-90532882D01*
X142710297Y-90530722D01*
X142725000Y-90530000D01*
X143025000Y-90530000D01*
X143039703Y-90530722D01*
X143039703Y-90530722D01*
G37*
D11*
X142875000Y-91505000D03*
D10*
G36*
X144309703Y-90530722D02*
G01*
X144324264Y-90532882D01*
X144338543Y-90536459D01*
X144352403Y-90541418D01*
X144365710Y-90547712D01*
X144378336Y-90555280D01*
X144390159Y-90564048D01*
X144401066Y-90573934D01*
X144410952Y-90584841D01*
X144419720Y-90596664D01*
X144427288Y-90609290D01*
X144433582Y-90622597D01*
X144438541Y-90636457D01*
X144442118Y-90650736D01*
X144444278Y-90665297D01*
X144445000Y-90680000D01*
X144445000Y-92330000D01*
X144444278Y-92344703D01*
X144442118Y-92359264D01*
X144438541Y-92373543D01*
X144433582Y-92387403D01*
X144427288Y-92400710D01*
X144419720Y-92413336D01*
X144410952Y-92425159D01*
X144401066Y-92436066D01*
X144390159Y-92445952D01*
X144378336Y-92454720D01*
X144365710Y-92462288D01*
X144352403Y-92468582D01*
X144338543Y-92473541D01*
X144324264Y-92477118D01*
X144309703Y-92479278D01*
X144295000Y-92480000D01*
X143995000Y-92480000D01*
X143980297Y-92479278D01*
X143965736Y-92477118D01*
X143951457Y-92473541D01*
X143937597Y-92468582D01*
X143924290Y-92462288D01*
X143911664Y-92454720D01*
X143899841Y-92445952D01*
X143888934Y-92436066D01*
X143879048Y-92425159D01*
X143870280Y-92413336D01*
X143862712Y-92400710D01*
X143856418Y-92387403D01*
X143851459Y-92373543D01*
X143847882Y-92359264D01*
X143845722Y-92344703D01*
X143845000Y-92330000D01*
X143845000Y-90680000D01*
X143845722Y-90665297D01*
X143847882Y-90650736D01*
X143851459Y-90636457D01*
X143856418Y-90622597D01*
X143862712Y-90609290D01*
X143870280Y-90596664D01*
X143879048Y-90584841D01*
X143888934Y-90573934D01*
X143899841Y-90564048D01*
X143911664Y-90555280D01*
X143924290Y-90547712D01*
X143937597Y-90541418D01*
X143951457Y-90536459D01*
X143965736Y-90532882D01*
X143980297Y-90530722D01*
X143995000Y-90530000D01*
X144295000Y-90530000D01*
X144309703Y-90530722D01*
X144309703Y-90530722D01*
G37*
D11*
X144145000Y-91505000D03*
D10*
G36*
X145579703Y-90530722D02*
G01*
X145594264Y-90532882D01*
X145608543Y-90536459D01*
X145622403Y-90541418D01*
X145635710Y-90547712D01*
X145648336Y-90555280D01*
X145660159Y-90564048D01*
X145671066Y-90573934D01*
X145680952Y-90584841D01*
X145689720Y-90596664D01*
X145697288Y-90609290D01*
X145703582Y-90622597D01*
X145708541Y-90636457D01*
X145712118Y-90650736D01*
X145714278Y-90665297D01*
X145715000Y-90680000D01*
X145715000Y-92330000D01*
X145714278Y-92344703D01*
X145712118Y-92359264D01*
X145708541Y-92373543D01*
X145703582Y-92387403D01*
X145697288Y-92400710D01*
X145689720Y-92413336D01*
X145680952Y-92425159D01*
X145671066Y-92436066D01*
X145660159Y-92445952D01*
X145648336Y-92454720D01*
X145635710Y-92462288D01*
X145622403Y-92468582D01*
X145608543Y-92473541D01*
X145594264Y-92477118D01*
X145579703Y-92479278D01*
X145565000Y-92480000D01*
X145265000Y-92480000D01*
X145250297Y-92479278D01*
X145235736Y-92477118D01*
X145221457Y-92473541D01*
X145207597Y-92468582D01*
X145194290Y-92462288D01*
X145181664Y-92454720D01*
X145169841Y-92445952D01*
X145158934Y-92436066D01*
X145149048Y-92425159D01*
X145140280Y-92413336D01*
X145132712Y-92400710D01*
X145126418Y-92387403D01*
X145121459Y-92373543D01*
X145117882Y-92359264D01*
X145115722Y-92344703D01*
X145115000Y-92330000D01*
X145115000Y-90680000D01*
X145115722Y-90665297D01*
X145117882Y-90650736D01*
X145121459Y-90636457D01*
X145126418Y-90622597D01*
X145132712Y-90609290D01*
X145140280Y-90596664D01*
X145149048Y-90584841D01*
X145158934Y-90573934D01*
X145169841Y-90564048D01*
X145181664Y-90555280D01*
X145194290Y-90547712D01*
X145207597Y-90541418D01*
X145221457Y-90536459D01*
X145235736Y-90532882D01*
X145250297Y-90530722D01*
X145265000Y-90530000D01*
X145565000Y-90530000D01*
X145579703Y-90530722D01*
X145579703Y-90530722D01*
G37*
D11*
X145415000Y-91505000D03*
D10*
G36*
X145579703Y-95480722D02*
G01*
X145594264Y-95482882D01*
X145608543Y-95486459D01*
X145622403Y-95491418D01*
X145635710Y-95497712D01*
X145648336Y-95505280D01*
X145660159Y-95514048D01*
X145671066Y-95523934D01*
X145680952Y-95534841D01*
X145689720Y-95546664D01*
X145697288Y-95559290D01*
X145703582Y-95572597D01*
X145708541Y-95586457D01*
X145712118Y-95600736D01*
X145714278Y-95615297D01*
X145715000Y-95630000D01*
X145715000Y-97280000D01*
X145714278Y-97294703D01*
X145712118Y-97309264D01*
X145708541Y-97323543D01*
X145703582Y-97337403D01*
X145697288Y-97350710D01*
X145689720Y-97363336D01*
X145680952Y-97375159D01*
X145671066Y-97386066D01*
X145660159Y-97395952D01*
X145648336Y-97404720D01*
X145635710Y-97412288D01*
X145622403Y-97418582D01*
X145608543Y-97423541D01*
X145594264Y-97427118D01*
X145579703Y-97429278D01*
X145565000Y-97430000D01*
X145265000Y-97430000D01*
X145250297Y-97429278D01*
X145235736Y-97427118D01*
X145221457Y-97423541D01*
X145207597Y-97418582D01*
X145194290Y-97412288D01*
X145181664Y-97404720D01*
X145169841Y-97395952D01*
X145158934Y-97386066D01*
X145149048Y-97375159D01*
X145140280Y-97363336D01*
X145132712Y-97350710D01*
X145126418Y-97337403D01*
X145121459Y-97323543D01*
X145117882Y-97309264D01*
X145115722Y-97294703D01*
X145115000Y-97280000D01*
X145115000Y-95630000D01*
X145115722Y-95615297D01*
X145117882Y-95600736D01*
X145121459Y-95586457D01*
X145126418Y-95572597D01*
X145132712Y-95559290D01*
X145140280Y-95546664D01*
X145149048Y-95534841D01*
X145158934Y-95523934D01*
X145169841Y-95514048D01*
X145181664Y-95505280D01*
X145194290Y-95497712D01*
X145207597Y-95491418D01*
X145221457Y-95486459D01*
X145235736Y-95482882D01*
X145250297Y-95480722D01*
X145265000Y-95480000D01*
X145565000Y-95480000D01*
X145579703Y-95480722D01*
X145579703Y-95480722D01*
G37*
D11*
X145415000Y-96455000D03*
D10*
G36*
X144309703Y-95480722D02*
G01*
X144324264Y-95482882D01*
X144338543Y-95486459D01*
X144352403Y-95491418D01*
X144365710Y-95497712D01*
X144378336Y-95505280D01*
X144390159Y-95514048D01*
X144401066Y-95523934D01*
X144410952Y-95534841D01*
X144419720Y-95546664D01*
X144427288Y-95559290D01*
X144433582Y-95572597D01*
X144438541Y-95586457D01*
X144442118Y-95600736D01*
X144444278Y-95615297D01*
X144445000Y-95630000D01*
X144445000Y-97280000D01*
X144444278Y-97294703D01*
X144442118Y-97309264D01*
X144438541Y-97323543D01*
X144433582Y-97337403D01*
X144427288Y-97350710D01*
X144419720Y-97363336D01*
X144410952Y-97375159D01*
X144401066Y-97386066D01*
X144390159Y-97395952D01*
X144378336Y-97404720D01*
X144365710Y-97412288D01*
X144352403Y-97418582D01*
X144338543Y-97423541D01*
X144324264Y-97427118D01*
X144309703Y-97429278D01*
X144295000Y-97430000D01*
X143995000Y-97430000D01*
X143980297Y-97429278D01*
X143965736Y-97427118D01*
X143951457Y-97423541D01*
X143937597Y-97418582D01*
X143924290Y-97412288D01*
X143911664Y-97404720D01*
X143899841Y-97395952D01*
X143888934Y-97386066D01*
X143879048Y-97375159D01*
X143870280Y-97363336D01*
X143862712Y-97350710D01*
X143856418Y-97337403D01*
X143851459Y-97323543D01*
X143847882Y-97309264D01*
X143845722Y-97294703D01*
X143845000Y-97280000D01*
X143845000Y-95630000D01*
X143845722Y-95615297D01*
X143847882Y-95600736D01*
X143851459Y-95586457D01*
X143856418Y-95572597D01*
X143862712Y-95559290D01*
X143870280Y-95546664D01*
X143879048Y-95534841D01*
X143888934Y-95523934D01*
X143899841Y-95514048D01*
X143911664Y-95505280D01*
X143924290Y-95497712D01*
X143937597Y-95491418D01*
X143951457Y-95486459D01*
X143965736Y-95482882D01*
X143980297Y-95480722D01*
X143995000Y-95480000D01*
X144295000Y-95480000D01*
X144309703Y-95480722D01*
X144309703Y-95480722D01*
G37*
D11*
X144145000Y-96455000D03*
D10*
G36*
X143039703Y-95480722D02*
G01*
X143054264Y-95482882D01*
X143068543Y-95486459D01*
X143082403Y-95491418D01*
X143095710Y-95497712D01*
X143108336Y-95505280D01*
X143120159Y-95514048D01*
X143131066Y-95523934D01*
X143140952Y-95534841D01*
X143149720Y-95546664D01*
X143157288Y-95559290D01*
X143163582Y-95572597D01*
X143168541Y-95586457D01*
X143172118Y-95600736D01*
X143174278Y-95615297D01*
X143175000Y-95630000D01*
X143175000Y-97280000D01*
X143174278Y-97294703D01*
X143172118Y-97309264D01*
X143168541Y-97323543D01*
X143163582Y-97337403D01*
X143157288Y-97350710D01*
X143149720Y-97363336D01*
X143140952Y-97375159D01*
X143131066Y-97386066D01*
X143120159Y-97395952D01*
X143108336Y-97404720D01*
X143095710Y-97412288D01*
X143082403Y-97418582D01*
X143068543Y-97423541D01*
X143054264Y-97427118D01*
X143039703Y-97429278D01*
X143025000Y-97430000D01*
X142725000Y-97430000D01*
X142710297Y-97429278D01*
X142695736Y-97427118D01*
X142681457Y-97423541D01*
X142667597Y-97418582D01*
X142654290Y-97412288D01*
X142641664Y-97404720D01*
X142629841Y-97395952D01*
X142618934Y-97386066D01*
X142609048Y-97375159D01*
X142600280Y-97363336D01*
X142592712Y-97350710D01*
X142586418Y-97337403D01*
X142581459Y-97323543D01*
X142577882Y-97309264D01*
X142575722Y-97294703D01*
X142575000Y-97280000D01*
X142575000Y-95630000D01*
X142575722Y-95615297D01*
X142577882Y-95600736D01*
X142581459Y-95586457D01*
X142586418Y-95572597D01*
X142592712Y-95559290D01*
X142600280Y-95546664D01*
X142609048Y-95534841D01*
X142618934Y-95523934D01*
X142629841Y-95514048D01*
X142641664Y-95505280D01*
X142654290Y-95497712D01*
X142667597Y-95491418D01*
X142681457Y-95486459D01*
X142695736Y-95482882D01*
X142710297Y-95480722D01*
X142725000Y-95480000D01*
X143025000Y-95480000D01*
X143039703Y-95480722D01*
X143039703Y-95480722D01*
G37*
D11*
X142875000Y-96455000D03*
D10*
G36*
X141769703Y-95480722D02*
G01*
X141784264Y-95482882D01*
X141798543Y-95486459D01*
X141812403Y-95491418D01*
X141825710Y-95497712D01*
X141838336Y-95505280D01*
X141850159Y-95514048D01*
X141861066Y-95523934D01*
X141870952Y-95534841D01*
X141879720Y-95546664D01*
X141887288Y-95559290D01*
X141893582Y-95572597D01*
X141898541Y-95586457D01*
X141902118Y-95600736D01*
X141904278Y-95615297D01*
X141905000Y-95630000D01*
X141905000Y-97280000D01*
X141904278Y-97294703D01*
X141902118Y-97309264D01*
X141898541Y-97323543D01*
X141893582Y-97337403D01*
X141887288Y-97350710D01*
X141879720Y-97363336D01*
X141870952Y-97375159D01*
X141861066Y-97386066D01*
X141850159Y-97395952D01*
X141838336Y-97404720D01*
X141825710Y-97412288D01*
X141812403Y-97418582D01*
X141798543Y-97423541D01*
X141784264Y-97427118D01*
X141769703Y-97429278D01*
X141755000Y-97430000D01*
X141455000Y-97430000D01*
X141440297Y-97429278D01*
X141425736Y-97427118D01*
X141411457Y-97423541D01*
X141397597Y-97418582D01*
X141384290Y-97412288D01*
X141371664Y-97404720D01*
X141359841Y-97395952D01*
X141348934Y-97386066D01*
X141339048Y-97375159D01*
X141330280Y-97363336D01*
X141322712Y-97350710D01*
X141316418Y-97337403D01*
X141311459Y-97323543D01*
X141307882Y-97309264D01*
X141305722Y-97294703D01*
X141305000Y-97280000D01*
X141305000Y-95630000D01*
X141305722Y-95615297D01*
X141307882Y-95600736D01*
X141311459Y-95586457D01*
X141316418Y-95572597D01*
X141322712Y-95559290D01*
X141330280Y-95546664D01*
X141339048Y-95534841D01*
X141348934Y-95523934D01*
X141359841Y-95514048D01*
X141371664Y-95505280D01*
X141384290Y-95497712D01*
X141397597Y-95491418D01*
X141411457Y-95486459D01*
X141425736Y-95482882D01*
X141440297Y-95480722D01*
X141455000Y-95480000D01*
X141755000Y-95480000D01*
X141769703Y-95480722D01*
X141769703Y-95480722D01*
G37*
D11*
X141605000Y-96455000D03*
D10*
G36*
X140499703Y-95480722D02*
G01*
X140514264Y-95482882D01*
X140528543Y-95486459D01*
X140542403Y-95491418D01*
X140555710Y-95497712D01*
X140568336Y-95505280D01*
X140580159Y-95514048D01*
X140591066Y-95523934D01*
X140600952Y-95534841D01*
X140609720Y-95546664D01*
X140617288Y-95559290D01*
X140623582Y-95572597D01*
X140628541Y-95586457D01*
X140632118Y-95600736D01*
X140634278Y-95615297D01*
X140635000Y-95630000D01*
X140635000Y-97280000D01*
X140634278Y-97294703D01*
X140632118Y-97309264D01*
X140628541Y-97323543D01*
X140623582Y-97337403D01*
X140617288Y-97350710D01*
X140609720Y-97363336D01*
X140600952Y-97375159D01*
X140591066Y-97386066D01*
X140580159Y-97395952D01*
X140568336Y-97404720D01*
X140555710Y-97412288D01*
X140542403Y-97418582D01*
X140528543Y-97423541D01*
X140514264Y-97427118D01*
X140499703Y-97429278D01*
X140485000Y-97430000D01*
X140185000Y-97430000D01*
X140170297Y-97429278D01*
X140155736Y-97427118D01*
X140141457Y-97423541D01*
X140127597Y-97418582D01*
X140114290Y-97412288D01*
X140101664Y-97404720D01*
X140089841Y-97395952D01*
X140078934Y-97386066D01*
X140069048Y-97375159D01*
X140060280Y-97363336D01*
X140052712Y-97350710D01*
X140046418Y-97337403D01*
X140041459Y-97323543D01*
X140037882Y-97309264D01*
X140035722Y-97294703D01*
X140035000Y-97280000D01*
X140035000Y-95630000D01*
X140035722Y-95615297D01*
X140037882Y-95600736D01*
X140041459Y-95586457D01*
X140046418Y-95572597D01*
X140052712Y-95559290D01*
X140060280Y-95546664D01*
X140069048Y-95534841D01*
X140078934Y-95523934D01*
X140089841Y-95514048D01*
X140101664Y-95505280D01*
X140114290Y-95497712D01*
X140127597Y-95491418D01*
X140141457Y-95486459D01*
X140155736Y-95482882D01*
X140170297Y-95480722D01*
X140185000Y-95480000D01*
X140485000Y-95480000D01*
X140499703Y-95480722D01*
X140499703Y-95480722D01*
G37*
D11*
X140335000Y-96455000D03*
D10*
G36*
X139229703Y-95480722D02*
G01*
X139244264Y-95482882D01*
X139258543Y-95486459D01*
X139272403Y-95491418D01*
X139285710Y-95497712D01*
X139298336Y-95505280D01*
X139310159Y-95514048D01*
X139321066Y-95523934D01*
X139330952Y-95534841D01*
X139339720Y-95546664D01*
X139347288Y-95559290D01*
X139353582Y-95572597D01*
X139358541Y-95586457D01*
X139362118Y-95600736D01*
X139364278Y-95615297D01*
X139365000Y-95630000D01*
X139365000Y-97280000D01*
X139364278Y-97294703D01*
X139362118Y-97309264D01*
X139358541Y-97323543D01*
X139353582Y-97337403D01*
X139347288Y-97350710D01*
X139339720Y-97363336D01*
X139330952Y-97375159D01*
X139321066Y-97386066D01*
X139310159Y-97395952D01*
X139298336Y-97404720D01*
X139285710Y-97412288D01*
X139272403Y-97418582D01*
X139258543Y-97423541D01*
X139244264Y-97427118D01*
X139229703Y-97429278D01*
X139215000Y-97430000D01*
X138915000Y-97430000D01*
X138900297Y-97429278D01*
X138885736Y-97427118D01*
X138871457Y-97423541D01*
X138857597Y-97418582D01*
X138844290Y-97412288D01*
X138831664Y-97404720D01*
X138819841Y-97395952D01*
X138808934Y-97386066D01*
X138799048Y-97375159D01*
X138790280Y-97363336D01*
X138782712Y-97350710D01*
X138776418Y-97337403D01*
X138771459Y-97323543D01*
X138767882Y-97309264D01*
X138765722Y-97294703D01*
X138765000Y-97280000D01*
X138765000Y-95630000D01*
X138765722Y-95615297D01*
X138767882Y-95600736D01*
X138771459Y-95586457D01*
X138776418Y-95572597D01*
X138782712Y-95559290D01*
X138790280Y-95546664D01*
X138799048Y-95534841D01*
X138808934Y-95523934D01*
X138819841Y-95514048D01*
X138831664Y-95505280D01*
X138844290Y-95497712D01*
X138857597Y-95491418D01*
X138871457Y-95486459D01*
X138885736Y-95482882D01*
X138900297Y-95480722D01*
X138915000Y-95480000D01*
X139215000Y-95480000D01*
X139229703Y-95480722D01*
X139229703Y-95480722D01*
G37*
D11*
X139065000Y-96455000D03*
D10*
G36*
X137959703Y-95480722D02*
G01*
X137974264Y-95482882D01*
X137988543Y-95486459D01*
X138002403Y-95491418D01*
X138015710Y-95497712D01*
X138028336Y-95505280D01*
X138040159Y-95514048D01*
X138051066Y-95523934D01*
X138060952Y-95534841D01*
X138069720Y-95546664D01*
X138077288Y-95559290D01*
X138083582Y-95572597D01*
X138088541Y-95586457D01*
X138092118Y-95600736D01*
X138094278Y-95615297D01*
X138095000Y-95630000D01*
X138095000Y-97280000D01*
X138094278Y-97294703D01*
X138092118Y-97309264D01*
X138088541Y-97323543D01*
X138083582Y-97337403D01*
X138077288Y-97350710D01*
X138069720Y-97363336D01*
X138060952Y-97375159D01*
X138051066Y-97386066D01*
X138040159Y-97395952D01*
X138028336Y-97404720D01*
X138015710Y-97412288D01*
X138002403Y-97418582D01*
X137988543Y-97423541D01*
X137974264Y-97427118D01*
X137959703Y-97429278D01*
X137945000Y-97430000D01*
X137645000Y-97430000D01*
X137630297Y-97429278D01*
X137615736Y-97427118D01*
X137601457Y-97423541D01*
X137587597Y-97418582D01*
X137574290Y-97412288D01*
X137561664Y-97404720D01*
X137549841Y-97395952D01*
X137538934Y-97386066D01*
X137529048Y-97375159D01*
X137520280Y-97363336D01*
X137512712Y-97350710D01*
X137506418Y-97337403D01*
X137501459Y-97323543D01*
X137497882Y-97309264D01*
X137495722Y-97294703D01*
X137495000Y-97280000D01*
X137495000Y-95630000D01*
X137495722Y-95615297D01*
X137497882Y-95600736D01*
X137501459Y-95586457D01*
X137506418Y-95572597D01*
X137512712Y-95559290D01*
X137520280Y-95546664D01*
X137529048Y-95534841D01*
X137538934Y-95523934D01*
X137549841Y-95514048D01*
X137561664Y-95505280D01*
X137574290Y-95497712D01*
X137587597Y-95491418D01*
X137601457Y-95486459D01*
X137615736Y-95482882D01*
X137630297Y-95480722D01*
X137645000Y-95480000D01*
X137945000Y-95480000D01*
X137959703Y-95480722D01*
X137959703Y-95480722D01*
G37*
D11*
X137795000Y-96455000D03*
D10*
G36*
X138340191Y-89061053D02*
G01*
X138361426Y-89064203D01*
X138382250Y-89069419D01*
X138402462Y-89076651D01*
X138421868Y-89085830D01*
X138440281Y-89096866D01*
X138457524Y-89109654D01*
X138473430Y-89124070D01*
X138487846Y-89139976D01*
X138500634Y-89157219D01*
X138511670Y-89175632D01*
X138520849Y-89195038D01*
X138528081Y-89215250D01*
X138533297Y-89236074D01*
X138536447Y-89257309D01*
X138537500Y-89278750D01*
X138537500Y-89791250D01*
X138536447Y-89812691D01*
X138533297Y-89833926D01*
X138528081Y-89854750D01*
X138520849Y-89874962D01*
X138511670Y-89894368D01*
X138500634Y-89912781D01*
X138487846Y-89930024D01*
X138473430Y-89945930D01*
X138457524Y-89960346D01*
X138440281Y-89973134D01*
X138421868Y-89984170D01*
X138402462Y-89993349D01*
X138382250Y-90000581D01*
X138361426Y-90005797D01*
X138340191Y-90008947D01*
X138318750Y-90010000D01*
X137881250Y-90010000D01*
X137859809Y-90008947D01*
X137838574Y-90005797D01*
X137817750Y-90000581D01*
X137797538Y-89993349D01*
X137778132Y-89984170D01*
X137759719Y-89973134D01*
X137742476Y-89960346D01*
X137726570Y-89945930D01*
X137712154Y-89930024D01*
X137699366Y-89912781D01*
X137688330Y-89894368D01*
X137679151Y-89874962D01*
X137671919Y-89854750D01*
X137666703Y-89833926D01*
X137663553Y-89812691D01*
X137662500Y-89791250D01*
X137662500Y-89278750D01*
X137663553Y-89257309D01*
X137666703Y-89236074D01*
X137671919Y-89215250D01*
X137679151Y-89195038D01*
X137688330Y-89175632D01*
X137699366Y-89157219D01*
X137712154Y-89139976D01*
X137726570Y-89124070D01*
X137742476Y-89109654D01*
X137759719Y-89096866D01*
X137778132Y-89085830D01*
X137797538Y-89076651D01*
X137817750Y-89069419D01*
X137838574Y-89064203D01*
X137859809Y-89061053D01*
X137881250Y-89060000D01*
X138318750Y-89060000D01*
X138340191Y-89061053D01*
X138340191Y-89061053D01*
G37*
D21*
X138100000Y-89535000D03*
D10*
G36*
X136765191Y-89061053D02*
G01*
X136786426Y-89064203D01*
X136807250Y-89069419D01*
X136827462Y-89076651D01*
X136846868Y-89085830D01*
X136865281Y-89096866D01*
X136882524Y-89109654D01*
X136898430Y-89124070D01*
X136912846Y-89139976D01*
X136925634Y-89157219D01*
X136936670Y-89175632D01*
X136945849Y-89195038D01*
X136953081Y-89215250D01*
X136958297Y-89236074D01*
X136961447Y-89257309D01*
X136962500Y-89278750D01*
X136962500Y-89791250D01*
X136961447Y-89812691D01*
X136958297Y-89833926D01*
X136953081Y-89854750D01*
X136945849Y-89874962D01*
X136936670Y-89894368D01*
X136925634Y-89912781D01*
X136912846Y-89930024D01*
X136898430Y-89945930D01*
X136882524Y-89960346D01*
X136865281Y-89973134D01*
X136846868Y-89984170D01*
X136827462Y-89993349D01*
X136807250Y-90000581D01*
X136786426Y-90005797D01*
X136765191Y-90008947D01*
X136743750Y-90010000D01*
X136306250Y-90010000D01*
X136284809Y-90008947D01*
X136263574Y-90005797D01*
X136242750Y-90000581D01*
X136222538Y-89993349D01*
X136203132Y-89984170D01*
X136184719Y-89973134D01*
X136167476Y-89960346D01*
X136151570Y-89945930D01*
X136137154Y-89930024D01*
X136124366Y-89912781D01*
X136113330Y-89894368D01*
X136104151Y-89874962D01*
X136096919Y-89854750D01*
X136091703Y-89833926D01*
X136088553Y-89812691D01*
X136087500Y-89791250D01*
X136087500Y-89278750D01*
X136088553Y-89257309D01*
X136091703Y-89236074D01*
X136096919Y-89215250D01*
X136104151Y-89195038D01*
X136113330Y-89175632D01*
X136124366Y-89157219D01*
X136137154Y-89139976D01*
X136151570Y-89124070D01*
X136167476Y-89109654D01*
X136184719Y-89096866D01*
X136203132Y-89085830D01*
X136222538Y-89076651D01*
X136242750Y-89069419D01*
X136263574Y-89064203D01*
X136284809Y-89061053D01*
X136306250Y-89060000D01*
X136743750Y-89060000D01*
X136765191Y-89061053D01*
X136765191Y-89061053D01*
G37*
D21*
X136525000Y-89535000D03*
D10*
G36*
X136765191Y-97951053D02*
G01*
X136786426Y-97954203D01*
X136807250Y-97959419D01*
X136827462Y-97966651D01*
X136846868Y-97975830D01*
X136865281Y-97986866D01*
X136882524Y-97999654D01*
X136898430Y-98014070D01*
X136912846Y-98029976D01*
X136925634Y-98047219D01*
X136936670Y-98065632D01*
X136945849Y-98085038D01*
X136953081Y-98105250D01*
X136958297Y-98126074D01*
X136961447Y-98147309D01*
X136962500Y-98168750D01*
X136962500Y-98681250D01*
X136961447Y-98702691D01*
X136958297Y-98723926D01*
X136953081Y-98744750D01*
X136945849Y-98764962D01*
X136936670Y-98784368D01*
X136925634Y-98802781D01*
X136912846Y-98820024D01*
X136898430Y-98835930D01*
X136882524Y-98850346D01*
X136865281Y-98863134D01*
X136846868Y-98874170D01*
X136827462Y-98883349D01*
X136807250Y-98890581D01*
X136786426Y-98895797D01*
X136765191Y-98898947D01*
X136743750Y-98900000D01*
X136306250Y-98900000D01*
X136284809Y-98898947D01*
X136263574Y-98895797D01*
X136242750Y-98890581D01*
X136222538Y-98883349D01*
X136203132Y-98874170D01*
X136184719Y-98863134D01*
X136167476Y-98850346D01*
X136151570Y-98835930D01*
X136137154Y-98820024D01*
X136124366Y-98802781D01*
X136113330Y-98784368D01*
X136104151Y-98764962D01*
X136096919Y-98744750D01*
X136091703Y-98723926D01*
X136088553Y-98702691D01*
X136087500Y-98681250D01*
X136087500Y-98168750D01*
X136088553Y-98147309D01*
X136091703Y-98126074D01*
X136096919Y-98105250D01*
X136104151Y-98085038D01*
X136113330Y-98065632D01*
X136124366Y-98047219D01*
X136137154Y-98029976D01*
X136151570Y-98014070D01*
X136167476Y-97999654D01*
X136184719Y-97986866D01*
X136203132Y-97975830D01*
X136222538Y-97966651D01*
X136242750Y-97959419D01*
X136263574Y-97954203D01*
X136284809Y-97951053D01*
X136306250Y-97950000D01*
X136743750Y-97950000D01*
X136765191Y-97951053D01*
X136765191Y-97951053D01*
G37*
D21*
X136525000Y-98425000D03*
D10*
G36*
X138340191Y-97951053D02*
G01*
X138361426Y-97954203D01*
X138382250Y-97959419D01*
X138402462Y-97966651D01*
X138421868Y-97975830D01*
X138440281Y-97986866D01*
X138457524Y-97999654D01*
X138473430Y-98014070D01*
X138487846Y-98029976D01*
X138500634Y-98047219D01*
X138511670Y-98065632D01*
X138520849Y-98085038D01*
X138528081Y-98105250D01*
X138533297Y-98126074D01*
X138536447Y-98147309D01*
X138537500Y-98168750D01*
X138537500Y-98681250D01*
X138536447Y-98702691D01*
X138533297Y-98723926D01*
X138528081Y-98744750D01*
X138520849Y-98764962D01*
X138511670Y-98784368D01*
X138500634Y-98802781D01*
X138487846Y-98820024D01*
X138473430Y-98835930D01*
X138457524Y-98850346D01*
X138440281Y-98863134D01*
X138421868Y-98874170D01*
X138402462Y-98883349D01*
X138382250Y-98890581D01*
X138361426Y-98895797D01*
X138340191Y-98898947D01*
X138318750Y-98900000D01*
X137881250Y-98900000D01*
X137859809Y-98898947D01*
X137838574Y-98895797D01*
X137817750Y-98890581D01*
X137797538Y-98883349D01*
X137778132Y-98874170D01*
X137759719Y-98863134D01*
X137742476Y-98850346D01*
X137726570Y-98835930D01*
X137712154Y-98820024D01*
X137699366Y-98802781D01*
X137688330Y-98784368D01*
X137679151Y-98764962D01*
X137671919Y-98744750D01*
X137666703Y-98723926D01*
X137663553Y-98702691D01*
X137662500Y-98681250D01*
X137662500Y-98168750D01*
X137663553Y-98147309D01*
X137666703Y-98126074D01*
X137671919Y-98105250D01*
X137679151Y-98085038D01*
X137688330Y-98065632D01*
X137699366Y-98047219D01*
X137712154Y-98029976D01*
X137726570Y-98014070D01*
X137742476Y-97999654D01*
X137759719Y-97986866D01*
X137778132Y-97975830D01*
X137797538Y-97966651D01*
X137817750Y-97959419D01*
X137838574Y-97954203D01*
X137859809Y-97951053D01*
X137881250Y-97950000D01*
X138318750Y-97950000D01*
X138340191Y-97951053D01*
X138340191Y-97951053D01*
G37*
D21*
X138100000Y-98425000D03*
D10*
G36*
X133613191Y-105317053D02*
G01*
X133634426Y-105320203D01*
X133655250Y-105325419D01*
X133675462Y-105332651D01*
X133694868Y-105341830D01*
X133713281Y-105352866D01*
X133730524Y-105365654D01*
X133746430Y-105380070D01*
X133760846Y-105395976D01*
X133773634Y-105413219D01*
X133784670Y-105431632D01*
X133793849Y-105451038D01*
X133801081Y-105471250D01*
X133806297Y-105492074D01*
X133809447Y-105513309D01*
X133810500Y-105534750D01*
X133810500Y-106047250D01*
X133809447Y-106068691D01*
X133806297Y-106089926D01*
X133801081Y-106110750D01*
X133793849Y-106130962D01*
X133784670Y-106150368D01*
X133773634Y-106168781D01*
X133760846Y-106186024D01*
X133746430Y-106201930D01*
X133730524Y-106216346D01*
X133713281Y-106229134D01*
X133694868Y-106240170D01*
X133675462Y-106249349D01*
X133655250Y-106256581D01*
X133634426Y-106261797D01*
X133613191Y-106264947D01*
X133591750Y-106266000D01*
X133154250Y-106266000D01*
X133132809Y-106264947D01*
X133111574Y-106261797D01*
X133090750Y-106256581D01*
X133070538Y-106249349D01*
X133051132Y-106240170D01*
X133032719Y-106229134D01*
X133015476Y-106216346D01*
X132999570Y-106201930D01*
X132985154Y-106186024D01*
X132972366Y-106168781D01*
X132961330Y-106150368D01*
X132952151Y-106130962D01*
X132944919Y-106110750D01*
X132939703Y-106089926D01*
X132936553Y-106068691D01*
X132935500Y-106047250D01*
X132935500Y-105534750D01*
X132936553Y-105513309D01*
X132939703Y-105492074D01*
X132944919Y-105471250D01*
X132952151Y-105451038D01*
X132961330Y-105431632D01*
X132972366Y-105413219D01*
X132985154Y-105395976D01*
X132999570Y-105380070D01*
X133015476Y-105365654D01*
X133032719Y-105352866D01*
X133051132Y-105341830D01*
X133070538Y-105332651D01*
X133090750Y-105325419D01*
X133111574Y-105320203D01*
X133132809Y-105317053D01*
X133154250Y-105316000D01*
X133591750Y-105316000D01*
X133613191Y-105317053D01*
X133613191Y-105317053D01*
G37*
D21*
X133373000Y-105791000D03*
D10*
G36*
X135188191Y-105317053D02*
G01*
X135209426Y-105320203D01*
X135230250Y-105325419D01*
X135250462Y-105332651D01*
X135269868Y-105341830D01*
X135288281Y-105352866D01*
X135305524Y-105365654D01*
X135321430Y-105380070D01*
X135335846Y-105395976D01*
X135348634Y-105413219D01*
X135359670Y-105431632D01*
X135368849Y-105451038D01*
X135376081Y-105471250D01*
X135381297Y-105492074D01*
X135384447Y-105513309D01*
X135385500Y-105534750D01*
X135385500Y-106047250D01*
X135384447Y-106068691D01*
X135381297Y-106089926D01*
X135376081Y-106110750D01*
X135368849Y-106130962D01*
X135359670Y-106150368D01*
X135348634Y-106168781D01*
X135335846Y-106186024D01*
X135321430Y-106201930D01*
X135305524Y-106216346D01*
X135288281Y-106229134D01*
X135269868Y-106240170D01*
X135250462Y-106249349D01*
X135230250Y-106256581D01*
X135209426Y-106261797D01*
X135188191Y-106264947D01*
X135166750Y-106266000D01*
X134729250Y-106266000D01*
X134707809Y-106264947D01*
X134686574Y-106261797D01*
X134665750Y-106256581D01*
X134645538Y-106249349D01*
X134626132Y-106240170D01*
X134607719Y-106229134D01*
X134590476Y-106216346D01*
X134574570Y-106201930D01*
X134560154Y-106186024D01*
X134547366Y-106168781D01*
X134536330Y-106150368D01*
X134527151Y-106130962D01*
X134519919Y-106110750D01*
X134514703Y-106089926D01*
X134511553Y-106068691D01*
X134510500Y-106047250D01*
X134510500Y-105534750D01*
X134511553Y-105513309D01*
X134514703Y-105492074D01*
X134519919Y-105471250D01*
X134527151Y-105451038D01*
X134536330Y-105431632D01*
X134547366Y-105413219D01*
X134560154Y-105395976D01*
X134574570Y-105380070D01*
X134590476Y-105365654D01*
X134607719Y-105352866D01*
X134626132Y-105341830D01*
X134645538Y-105332651D01*
X134665750Y-105325419D01*
X134686574Y-105320203D01*
X134707809Y-105317053D01*
X134729250Y-105316000D01*
X135166750Y-105316000D01*
X135188191Y-105317053D01*
X135188191Y-105317053D01*
G37*
D21*
X134948000Y-105791000D03*
D10*
G36*
X148232691Y-88946053D02*
G01*
X148253926Y-88949203D01*
X148274750Y-88954419D01*
X148294962Y-88961651D01*
X148314368Y-88970830D01*
X148332781Y-88981866D01*
X148350024Y-88994654D01*
X148365930Y-89009070D01*
X148380346Y-89024976D01*
X148393134Y-89042219D01*
X148404170Y-89060632D01*
X148413349Y-89080038D01*
X148420581Y-89100250D01*
X148425797Y-89121074D01*
X148428947Y-89142309D01*
X148430000Y-89163750D01*
X148430000Y-89601250D01*
X148428947Y-89622691D01*
X148425797Y-89643926D01*
X148420581Y-89664750D01*
X148413349Y-89684962D01*
X148404170Y-89704368D01*
X148393134Y-89722781D01*
X148380346Y-89740024D01*
X148365930Y-89755930D01*
X148350024Y-89770346D01*
X148332781Y-89783134D01*
X148314368Y-89794170D01*
X148294962Y-89803349D01*
X148274750Y-89810581D01*
X148253926Y-89815797D01*
X148232691Y-89818947D01*
X148211250Y-89820000D01*
X147698750Y-89820000D01*
X147677309Y-89818947D01*
X147656074Y-89815797D01*
X147635250Y-89810581D01*
X147615038Y-89803349D01*
X147595632Y-89794170D01*
X147577219Y-89783134D01*
X147559976Y-89770346D01*
X147544070Y-89755930D01*
X147529654Y-89740024D01*
X147516866Y-89722781D01*
X147505830Y-89704368D01*
X147496651Y-89684962D01*
X147489419Y-89664750D01*
X147484203Y-89643926D01*
X147481053Y-89622691D01*
X147480000Y-89601250D01*
X147480000Y-89163750D01*
X147481053Y-89142309D01*
X147484203Y-89121074D01*
X147489419Y-89100250D01*
X147496651Y-89080038D01*
X147505830Y-89060632D01*
X147516866Y-89042219D01*
X147529654Y-89024976D01*
X147544070Y-89009070D01*
X147559976Y-88994654D01*
X147577219Y-88981866D01*
X147595632Y-88970830D01*
X147615038Y-88961651D01*
X147635250Y-88954419D01*
X147656074Y-88949203D01*
X147677309Y-88946053D01*
X147698750Y-88945000D01*
X148211250Y-88945000D01*
X148232691Y-88946053D01*
X148232691Y-88946053D01*
G37*
D21*
X147955000Y-89382500D03*
D10*
G36*
X148232691Y-90521053D02*
G01*
X148253926Y-90524203D01*
X148274750Y-90529419D01*
X148294962Y-90536651D01*
X148314368Y-90545830D01*
X148332781Y-90556866D01*
X148350024Y-90569654D01*
X148365930Y-90584070D01*
X148380346Y-90599976D01*
X148393134Y-90617219D01*
X148404170Y-90635632D01*
X148413349Y-90655038D01*
X148420581Y-90675250D01*
X148425797Y-90696074D01*
X148428947Y-90717309D01*
X148430000Y-90738750D01*
X148430000Y-91176250D01*
X148428947Y-91197691D01*
X148425797Y-91218926D01*
X148420581Y-91239750D01*
X148413349Y-91259962D01*
X148404170Y-91279368D01*
X148393134Y-91297781D01*
X148380346Y-91315024D01*
X148365930Y-91330930D01*
X148350024Y-91345346D01*
X148332781Y-91358134D01*
X148314368Y-91369170D01*
X148294962Y-91378349D01*
X148274750Y-91385581D01*
X148253926Y-91390797D01*
X148232691Y-91393947D01*
X148211250Y-91395000D01*
X147698750Y-91395000D01*
X147677309Y-91393947D01*
X147656074Y-91390797D01*
X147635250Y-91385581D01*
X147615038Y-91378349D01*
X147595632Y-91369170D01*
X147577219Y-91358134D01*
X147559976Y-91345346D01*
X147544070Y-91330930D01*
X147529654Y-91315024D01*
X147516866Y-91297781D01*
X147505830Y-91279368D01*
X147496651Y-91259962D01*
X147489419Y-91239750D01*
X147484203Y-91218926D01*
X147481053Y-91197691D01*
X147480000Y-91176250D01*
X147480000Y-90738750D01*
X147481053Y-90717309D01*
X147484203Y-90696074D01*
X147489419Y-90675250D01*
X147496651Y-90655038D01*
X147505830Y-90635632D01*
X147516866Y-90617219D01*
X147529654Y-90599976D01*
X147544070Y-90584070D01*
X147559976Y-90569654D01*
X147577219Y-90556866D01*
X147595632Y-90545830D01*
X147615038Y-90536651D01*
X147635250Y-90529419D01*
X147656074Y-90524203D01*
X147677309Y-90521053D01*
X147698750Y-90520000D01*
X148211250Y-90520000D01*
X148232691Y-90521053D01*
X148232691Y-90521053D01*
G37*
D21*
X147955000Y-90957500D03*
D10*
G36*
X149756691Y-90521053D02*
G01*
X149777926Y-90524203D01*
X149798750Y-90529419D01*
X149818962Y-90536651D01*
X149838368Y-90545830D01*
X149856781Y-90556866D01*
X149874024Y-90569654D01*
X149889930Y-90584070D01*
X149904346Y-90599976D01*
X149917134Y-90617219D01*
X149928170Y-90635632D01*
X149937349Y-90655038D01*
X149944581Y-90675250D01*
X149949797Y-90696074D01*
X149952947Y-90717309D01*
X149954000Y-90738750D01*
X149954000Y-91176250D01*
X149952947Y-91197691D01*
X149949797Y-91218926D01*
X149944581Y-91239750D01*
X149937349Y-91259962D01*
X149928170Y-91279368D01*
X149917134Y-91297781D01*
X149904346Y-91315024D01*
X149889930Y-91330930D01*
X149874024Y-91345346D01*
X149856781Y-91358134D01*
X149838368Y-91369170D01*
X149818962Y-91378349D01*
X149798750Y-91385581D01*
X149777926Y-91390797D01*
X149756691Y-91393947D01*
X149735250Y-91395000D01*
X149222750Y-91395000D01*
X149201309Y-91393947D01*
X149180074Y-91390797D01*
X149159250Y-91385581D01*
X149139038Y-91378349D01*
X149119632Y-91369170D01*
X149101219Y-91358134D01*
X149083976Y-91345346D01*
X149068070Y-91330930D01*
X149053654Y-91315024D01*
X149040866Y-91297781D01*
X149029830Y-91279368D01*
X149020651Y-91259962D01*
X149013419Y-91239750D01*
X149008203Y-91218926D01*
X149005053Y-91197691D01*
X149004000Y-91176250D01*
X149004000Y-90738750D01*
X149005053Y-90717309D01*
X149008203Y-90696074D01*
X149013419Y-90675250D01*
X149020651Y-90655038D01*
X149029830Y-90635632D01*
X149040866Y-90617219D01*
X149053654Y-90599976D01*
X149068070Y-90584070D01*
X149083976Y-90569654D01*
X149101219Y-90556866D01*
X149119632Y-90545830D01*
X149139038Y-90536651D01*
X149159250Y-90529419D01*
X149180074Y-90524203D01*
X149201309Y-90521053D01*
X149222750Y-90520000D01*
X149735250Y-90520000D01*
X149756691Y-90521053D01*
X149756691Y-90521053D01*
G37*
D21*
X149479000Y-90957500D03*
D10*
G36*
X149756691Y-88946053D02*
G01*
X149777926Y-88949203D01*
X149798750Y-88954419D01*
X149818962Y-88961651D01*
X149838368Y-88970830D01*
X149856781Y-88981866D01*
X149874024Y-88994654D01*
X149889930Y-89009070D01*
X149904346Y-89024976D01*
X149917134Y-89042219D01*
X149928170Y-89060632D01*
X149937349Y-89080038D01*
X149944581Y-89100250D01*
X149949797Y-89121074D01*
X149952947Y-89142309D01*
X149954000Y-89163750D01*
X149954000Y-89601250D01*
X149952947Y-89622691D01*
X149949797Y-89643926D01*
X149944581Y-89664750D01*
X149937349Y-89684962D01*
X149928170Y-89704368D01*
X149917134Y-89722781D01*
X149904346Y-89740024D01*
X149889930Y-89755930D01*
X149874024Y-89770346D01*
X149856781Y-89783134D01*
X149838368Y-89794170D01*
X149818962Y-89803349D01*
X149798750Y-89810581D01*
X149777926Y-89815797D01*
X149756691Y-89818947D01*
X149735250Y-89820000D01*
X149222750Y-89820000D01*
X149201309Y-89818947D01*
X149180074Y-89815797D01*
X149159250Y-89810581D01*
X149139038Y-89803349D01*
X149119632Y-89794170D01*
X149101219Y-89783134D01*
X149083976Y-89770346D01*
X149068070Y-89755930D01*
X149053654Y-89740024D01*
X149040866Y-89722781D01*
X149029830Y-89704368D01*
X149020651Y-89684962D01*
X149013419Y-89664750D01*
X149008203Y-89643926D01*
X149005053Y-89622691D01*
X149004000Y-89601250D01*
X149004000Y-89163750D01*
X149005053Y-89142309D01*
X149008203Y-89121074D01*
X149013419Y-89100250D01*
X149020651Y-89080038D01*
X149029830Y-89060632D01*
X149040866Y-89042219D01*
X149053654Y-89024976D01*
X149068070Y-89009070D01*
X149083976Y-88994654D01*
X149101219Y-88981866D01*
X149119632Y-88970830D01*
X149139038Y-88961651D01*
X149159250Y-88954419D01*
X149180074Y-88949203D01*
X149201309Y-88946053D01*
X149222750Y-88945000D01*
X149735250Y-88945000D01*
X149756691Y-88946053D01*
X149756691Y-88946053D01*
G37*
D21*
X149479000Y-89382500D03*
D10*
G36*
X148232691Y-93391053D02*
G01*
X148253926Y-93394203D01*
X148274750Y-93399419D01*
X148294962Y-93406651D01*
X148314368Y-93415830D01*
X148332781Y-93426866D01*
X148350024Y-93439654D01*
X148365930Y-93454070D01*
X148380346Y-93469976D01*
X148393134Y-93487219D01*
X148404170Y-93505632D01*
X148413349Y-93525038D01*
X148420581Y-93545250D01*
X148425797Y-93566074D01*
X148428947Y-93587309D01*
X148430000Y-93608750D01*
X148430000Y-94046250D01*
X148428947Y-94067691D01*
X148425797Y-94088926D01*
X148420581Y-94109750D01*
X148413349Y-94129962D01*
X148404170Y-94149368D01*
X148393134Y-94167781D01*
X148380346Y-94185024D01*
X148365930Y-94200930D01*
X148350024Y-94215346D01*
X148332781Y-94228134D01*
X148314368Y-94239170D01*
X148294962Y-94248349D01*
X148274750Y-94255581D01*
X148253926Y-94260797D01*
X148232691Y-94263947D01*
X148211250Y-94265000D01*
X147698750Y-94265000D01*
X147677309Y-94263947D01*
X147656074Y-94260797D01*
X147635250Y-94255581D01*
X147615038Y-94248349D01*
X147595632Y-94239170D01*
X147577219Y-94228134D01*
X147559976Y-94215346D01*
X147544070Y-94200930D01*
X147529654Y-94185024D01*
X147516866Y-94167781D01*
X147505830Y-94149368D01*
X147496651Y-94129962D01*
X147489419Y-94109750D01*
X147484203Y-94088926D01*
X147481053Y-94067691D01*
X147480000Y-94046250D01*
X147480000Y-93608750D01*
X147481053Y-93587309D01*
X147484203Y-93566074D01*
X147489419Y-93545250D01*
X147496651Y-93525038D01*
X147505830Y-93505632D01*
X147516866Y-93487219D01*
X147529654Y-93469976D01*
X147544070Y-93454070D01*
X147559976Y-93439654D01*
X147577219Y-93426866D01*
X147595632Y-93415830D01*
X147615038Y-93406651D01*
X147635250Y-93399419D01*
X147656074Y-93394203D01*
X147677309Y-93391053D01*
X147698750Y-93390000D01*
X148211250Y-93390000D01*
X148232691Y-93391053D01*
X148232691Y-93391053D01*
G37*
D21*
X147955000Y-93827500D03*
D10*
G36*
X148232691Y-94966053D02*
G01*
X148253926Y-94969203D01*
X148274750Y-94974419D01*
X148294962Y-94981651D01*
X148314368Y-94990830D01*
X148332781Y-95001866D01*
X148350024Y-95014654D01*
X148365930Y-95029070D01*
X148380346Y-95044976D01*
X148393134Y-95062219D01*
X148404170Y-95080632D01*
X148413349Y-95100038D01*
X148420581Y-95120250D01*
X148425797Y-95141074D01*
X148428947Y-95162309D01*
X148430000Y-95183750D01*
X148430000Y-95621250D01*
X148428947Y-95642691D01*
X148425797Y-95663926D01*
X148420581Y-95684750D01*
X148413349Y-95704962D01*
X148404170Y-95724368D01*
X148393134Y-95742781D01*
X148380346Y-95760024D01*
X148365930Y-95775930D01*
X148350024Y-95790346D01*
X148332781Y-95803134D01*
X148314368Y-95814170D01*
X148294962Y-95823349D01*
X148274750Y-95830581D01*
X148253926Y-95835797D01*
X148232691Y-95838947D01*
X148211250Y-95840000D01*
X147698750Y-95840000D01*
X147677309Y-95838947D01*
X147656074Y-95835797D01*
X147635250Y-95830581D01*
X147615038Y-95823349D01*
X147595632Y-95814170D01*
X147577219Y-95803134D01*
X147559976Y-95790346D01*
X147544070Y-95775930D01*
X147529654Y-95760024D01*
X147516866Y-95742781D01*
X147505830Y-95724368D01*
X147496651Y-95704962D01*
X147489419Y-95684750D01*
X147484203Y-95663926D01*
X147481053Y-95642691D01*
X147480000Y-95621250D01*
X147480000Y-95183750D01*
X147481053Y-95162309D01*
X147484203Y-95141074D01*
X147489419Y-95120250D01*
X147496651Y-95100038D01*
X147505830Y-95080632D01*
X147516866Y-95062219D01*
X147529654Y-95044976D01*
X147544070Y-95029070D01*
X147559976Y-95014654D01*
X147577219Y-95001866D01*
X147595632Y-94990830D01*
X147615038Y-94981651D01*
X147635250Y-94974419D01*
X147656074Y-94969203D01*
X147677309Y-94966053D01*
X147698750Y-94965000D01*
X148211250Y-94965000D01*
X148232691Y-94966053D01*
X148232691Y-94966053D01*
G37*
D21*
X147955000Y-95402500D03*
D10*
G36*
X149756691Y-93391053D02*
G01*
X149777926Y-93394203D01*
X149798750Y-93399419D01*
X149818962Y-93406651D01*
X149838368Y-93415830D01*
X149856781Y-93426866D01*
X149874024Y-93439654D01*
X149889930Y-93454070D01*
X149904346Y-93469976D01*
X149917134Y-93487219D01*
X149928170Y-93505632D01*
X149937349Y-93525038D01*
X149944581Y-93545250D01*
X149949797Y-93566074D01*
X149952947Y-93587309D01*
X149954000Y-93608750D01*
X149954000Y-94046250D01*
X149952947Y-94067691D01*
X149949797Y-94088926D01*
X149944581Y-94109750D01*
X149937349Y-94129962D01*
X149928170Y-94149368D01*
X149917134Y-94167781D01*
X149904346Y-94185024D01*
X149889930Y-94200930D01*
X149874024Y-94215346D01*
X149856781Y-94228134D01*
X149838368Y-94239170D01*
X149818962Y-94248349D01*
X149798750Y-94255581D01*
X149777926Y-94260797D01*
X149756691Y-94263947D01*
X149735250Y-94265000D01*
X149222750Y-94265000D01*
X149201309Y-94263947D01*
X149180074Y-94260797D01*
X149159250Y-94255581D01*
X149139038Y-94248349D01*
X149119632Y-94239170D01*
X149101219Y-94228134D01*
X149083976Y-94215346D01*
X149068070Y-94200930D01*
X149053654Y-94185024D01*
X149040866Y-94167781D01*
X149029830Y-94149368D01*
X149020651Y-94129962D01*
X149013419Y-94109750D01*
X149008203Y-94088926D01*
X149005053Y-94067691D01*
X149004000Y-94046250D01*
X149004000Y-93608750D01*
X149005053Y-93587309D01*
X149008203Y-93566074D01*
X149013419Y-93545250D01*
X149020651Y-93525038D01*
X149029830Y-93505632D01*
X149040866Y-93487219D01*
X149053654Y-93469976D01*
X149068070Y-93454070D01*
X149083976Y-93439654D01*
X149101219Y-93426866D01*
X149119632Y-93415830D01*
X149139038Y-93406651D01*
X149159250Y-93399419D01*
X149180074Y-93394203D01*
X149201309Y-93391053D01*
X149222750Y-93390000D01*
X149735250Y-93390000D01*
X149756691Y-93391053D01*
X149756691Y-93391053D01*
G37*
D21*
X149479000Y-93827500D03*
D10*
G36*
X149756691Y-94966053D02*
G01*
X149777926Y-94969203D01*
X149798750Y-94974419D01*
X149818962Y-94981651D01*
X149838368Y-94990830D01*
X149856781Y-95001866D01*
X149874024Y-95014654D01*
X149889930Y-95029070D01*
X149904346Y-95044976D01*
X149917134Y-95062219D01*
X149928170Y-95080632D01*
X149937349Y-95100038D01*
X149944581Y-95120250D01*
X149949797Y-95141074D01*
X149952947Y-95162309D01*
X149954000Y-95183750D01*
X149954000Y-95621250D01*
X149952947Y-95642691D01*
X149949797Y-95663926D01*
X149944581Y-95684750D01*
X149937349Y-95704962D01*
X149928170Y-95724368D01*
X149917134Y-95742781D01*
X149904346Y-95760024D01*
X149889930Y-95775930D01*
X149874024Y-95790346D01*
X149856781Y-95803134D01*
X149838368Y-95814170D01*
X149818962Y-95823349D01*
X149798750Y-95830581D01*
X149777926Y-95835797D01*
X149756691Y-95838947D01*
X149735250Y-95840000D01*
X149222750Y-95840000D01*
X149201309Y-95838947D01*
X149180074Y-95835797D01*
X149159250Y-95830581D01*
X149139038Y-95823349D01*
X149119632Y-95814170D01*
X149101219Y-95803134D01*
X149083976Y-95790346D01*
X149068070Y-95775930D01*
X149053654Y-95760024D01*
X149040866Y-95742781D01*
X149029830Y-95724368D01*
X149020651Y-95704962D01*
X149013419Y-95684750D01*
X149008203Y-95663926D01*
X149005053Y-95642691D01*
X149004000Y-95621250D01*
X149004000Y-95183750D01*
X149005053Y-95162309D01*
X149008203Y-95141074D01*
X149013419Y-95120250D01*
X149020651Y-95100038D01*
X149029830Y-95080632D01*
X149040866Y-95062219D01*
X149053654Y-95044976D01*
X149068070Y-95029070D01*
X149083976Y-95014654D01*
X149101219Y-95001866D01*
X149119632Y-94990830D01*
X149139038Y-94981651D01*
X149159250Y-94974419D01*
X149180074Y-94969203D01*
X149201309Y-94966053D01*
X149222750Y-94965000D01*
X149735250Y-94965000D01*
X149756691Y-94966053D01*
X149756691Y-94966053D01*
G37*
D21*
X149479000Y-95402500D03*
D10*
G36*
X148232691Y-99411053D02*
G01*
X148253926Y-99414203D01*
X148274750Y-99419419D01*
X148294962Y-99426651D01*
X148314368Y-99435830D01*
X148332781Y-99446866D01*
X148350024Y-99459654D01*
X148365930Y-99474070D01*
X148380346Y-99489976D01*
X148393134Y-99507219D01*
X148404170Y-99525632D01*
X148413349Y-99545038D01*
X148420581Y-99565250D01*
X148425797Y-99586074D01*
X148428947Y-99607309D01*
X148430000Y-99628750D01*
X148430000Y-100066250D01*
X148428947Y-100087691D01*
X148425797Y-100108926D01*
X148420581Y-100129750D01*
X148413349Y-100149962D01*
X148404170Y-100169368D01*
X148393134Y-100187781D01*
X148380346Y-100205024D01*
X148365930Y-100220930D01*
X148350024Y-100235346D01*
X148332781Y-100248134D01*
X148314368Y-100259170D01*
X148294962Y-100268349D01*
X148274750Y-100275581D01*
X148253926Y-100280797D01*
X148232691Y-100283947D01*
X148211250Y-100285000D01*
X147698750Y-100285000D01*
X147677309Y-100283947D01*
X147656074Y-100280797D01*
X147635250Y-100275581D01*
X147615038Y-100268349D01*
X147595632Y-100259170D01*
X147577219Y-100248134D01*
X147559976Y-100235346D01*
X147544070Y-100220930D01*
X147529654Y-100205024D01*
X147516866Y-100187781D01*
X147505830Y-100169368D01*
X147496651Y-100149962D01*
X147489419Y-100129750D01*
X147484203Y-100108926D01*
X147481053Y-100087691D01*
X147480000Y-100066250D01*
X147480000Y-99628750D01*
X147481053Y-99607309D01*
X147484203Y-99586074D01*
X147489419Y-99565250D01*
X147496651Y-99545038D01*
X147505830Y-99525632D01*
X147516866Y-99507219D01*
X147529654Y-99489976D01*
X147544070Y-99474070D01*
X147559976Y-99459654D01*
X147577219Y-99446866D01*
X147595632Y-99435830D01*
X147615038Y-99426651D01*
X147635250Y-99419419D01*
X147656074Y-99414203D01*
X147677309Y-99411053D01*
X147698750Y-99410000D01*
X148211250Y-99410000D01*
X148232691Y-99411053D01*
X148232691Y-99411053D01*
G37*
D21*
X147955000Y-99847500D03*
D10*
G36*
X148232691Y-97836053D02*
G01*
X148253926Y-97839203D01*
X148274750Y-97844419D01*
X148294962Y-97851651D01*
X148314368Y-97860830D01*
X148332781Y-97871866D01*
X148350024Y-97884654D01*
X148365930Y-97899070D01*
X148380346Y-97914976D01*
X148393134Y-97932219D01*
X148404170Y-97950632D01*
X148413349Y-97970038D01*
X148420581Y-97990250D01*
X148425797Y-98011074D01*
X148428947Y-98032309D01*
X148430000Y-98053750D01*
X148430000Y-98491250D01*
X148428947Y-98512691D01*
X148425797Y-98533926D01*
X148420581Y-98554750D01*
X148413349Y-98574962D01*
X148404170Y-98594368D01*
X148393134Y-98612781D01*
X148380346Y-98630024D01*
X148365930Y-98645930D01*
X148350024Y-98660346D01*
X148332781Y-98673134D01*
X148314368Y-98684170D01*
X148294962Y-98693349D01*
X148274750Y-98700581D01*
X148253926Y-98705797D01*
X148232691Y-98708947D01*
X148211250Y-98710000D01*
X147698750Y-98710000D01*
X147677309Y-98708947D01*
X147656074Y-98705797D01*
X147635250Y-98700581D01*
X147615038Y-98693349D01*
X147595632Y-98684170D01*
X147577219Y-98673134D01*
X147559976Y-98660346D01*
X147544070Y-98645930D01*
X147529654Y-98630024D01*
X147516866Y-98612781D01*
X147505830Y-98594368D01*
X147496651Y-98574962D01*
X147489419Y-98554750D01*
X147484203Y-98533926D01*
X147481053Y-98512691D01*
X147480000Y-98491250D01*
X147480000Y-98053750D01*
X147481053Y-98032309D01*
X147484203Y-98011074D01*
X147489419Y-97990250D01*
X147496651Y-97970038D01*
X147505830Y-97950632D01*
X147516866Y-97932219D01*
X147529654Y-97914976D01*
X147544070Y-97899070D01*
X147559976Y-97884654D01*
X147577219Y-97871866D01*
X147595632Y-97860830D01*
X147615038Y-97851651D01*
X147635250Y-97844419D01*
X147656074Y-97839203D01*
X147677309Y-97836053D01*
X147698750Y-97835000D01*
X148211250Y-97835000D01*
X148232691Y-97836053D01*
X148232691Y-97836053D01*
G37*
D21*
X147955000Y-98272500D03*
D10*
G36*
X149756691Y-99411053D02*
G01*
X149777926Y-99414203D01*
X149798750Y-99419419D01*
X149818962Y-99426651D01*
X149838368Y-99435830D01*
X149856781Y-99446866D01*
X149874024Y-99459654D01*
X149889930Y-99474070D01*
X149904346Y-99489976D01*
X149917134Y-99507219D01*
X149928170Y-99525632D01*
X149937349Y-99545038D01*
X149944581Y-99565250D01*
X149949797Y-99586074D01*
X149952947Y-99607309D01*
X149954000Y-99628750D01*
X149954000Y-100066250D01*
X149952947Y-100087691D01*
X149949797Y-100108926D01*
X149944581Y-100129750D01*
X149937349Y-100149962D01*
X149928170Y-100169368D01*
X149917134Y-100187781D01*
X149904346Y-100205024D01*
X149889930Y-100220930D01*
X149874024Y-100235346D01*
X149856781Y-100248134D01*
X149838368Y-100259170D01*
X149818962Y-100268349D01*
X149798750Y-100275581D01*
X149777926Y-100280797D01*
X149756691Y-100283947D01*
X149735250Y-100285000D01*
X149222750Y-100285000D01*
X149201309Y-100283947D01*
X149180074Y-100280797D01*
X149159250Y-100275581D01*
X149139038Y-100268349D01*
X149119632Y-100259170D01*
X149101219Y-100248134D01*
X149083976Y-100235346D01*
X149068070Y-100220930D01*
X149053654Y-100205024D01*
X149040866Y-100187781D01*
X149029830Y-100169368D01*
X149020651Y-100149962D01*
X149013419Y-100129750D01*
X149008203Y-100108926D01*
X149005053Y-100087691D01*
X149004000Y-100066250D01*
X149004000Y-99628750D01*
X149005053Y-99607309D01*
X149008203Y-99586074D01*
X149013419Y-99565250D01*
X149020651Y-99545038D01*
X149029830Y-99525632D01*
X149040866Y-99507219D01*
X149053654Y-99489976D01*
X149068070Y-99474070D01*
X149083976Y-99459654D01*
X149101219Y-99446866D01*
X149119632Y-99435830D01*
X149139038Y-99426651D01*
X149159250Y-99419419D01*
X149180074Y-99414203D01*
X149201309Y-99411053D01*
X149222750Y-99410000D01*
X149735250Y-99410000D01*
X149756691Y-99411053D01*
X149756691Y-99411053D01*
G37*
D21*
X149479000Y-99847500D03*
D10*
G36*
X149756691Y-97836053D02*
G01*
X149777926Y-97839203D01*
X149798750Y-97844419D01*
X149818962Y-97851651D01*
X149838368Y-97860830D01*
X149856781Y-97871866D01*
X149874024Y-97884654D01*
X149889930Y-97899070D01*
X149904346Y-97914976D01*
X149917134Y-97932219D01*
X149928170Y-97950632D01*
X149937349Y-97970038D01*
X149944581Y-97990250D01*
X149949797Y-98011074D01*
X149952947Y-98032309D01*
X149954000Y-98053750D01*
X149954000Y-98491250D01*
X149952947Y-98512691D01*
X149949797Y-98533926D01*
X149944581Y-98554750D01*
X149937349Y-98574962D01*
X149928170Y-98594368D01*
X149917134Y-98612781D01*
X149904346Y-98630024D01*
X149889930Y-98645930D01*
X149874024Y-98660346D01*
X149856781Y-98673134D01*
X149838368Y-98684170D01*
X149818962Y-98693349D01*
X149798750Y-98700581D01*
X149777926Y-98705797D01*
X149756691Y-98708947D01*
X149735250Y-98710000D01*
X149222750Y-98710000D01*
X149201309Y-98708947D01*
X149180074Y-98705797D01*
X149159250Y-98700581D01*
X149139038Y-98693349D01*
X149119632Y-98684170D01*
X149101219Y-98673134D01*
X149083976Y-98660346D01*
X149068070Y-98645930D01*
X149053654Y-98630024D01*
X149040866Y-98612781D01*
X149029830Y-98594368D01*
X149020651Y-98574962D01*
X149013419Y-98554750D01*
X149008203Y-98533926D01*
X149005053Y-98512691D01*
X149004000Y-98491250D01*
X149004000Y-98053750D01*
X149005053Y-98032309D01*
X149008203Y-98011074D01*
X149013419Y-97990250D01*
X149020651Y-97970038D01*
X149029830Y-97950632D01*
X149040866Y-97932219D01*
X149053654Y-97914976D01*
X149068070Y-97899070D01*
X149083976Y-97884654D01*
X149101219Y-97871866D01*
X149119632Y-97860830D01*
X149139038Y-97851651D01*
X149159250Y-97844419D01*
X149180074Y-97839203D01*
X149201309Y-97836053D01*
X149222750Y-97835000D01*
X149735250Y-97835000D01*
X149756691Y-97836053D01*
X149756691Y-97836053D01*
G37*
D21*
X149479000Y-98272500D03*
D10*
G36*
X148232691Y-102281053D02*
G01*
X148253926Y-102284203D01*
X148274750Y-102289419D01*
X148294962Y-102296651D01*
X148314368Y-102305830D01*
X148332781Y-102316866D01*
X148350024Y-102329654D01*
X148365930Y-102344070D01*
X148380346Y-102359976D01*
X148393134Y-102377219D01*
X148404170Y-102395632D01*
X148413349Y-102415038D01*
X148420581Y-102435250D01*
X148425797Y-102456074D01*
X148428947Y-102477309D01*
X148430000Y-102498750D01*
X148430000Y-102936250D01*
X148428947Y-102957691D01*
X148425797Y-102978926D01*
X148420581Y-102999750D01*
X148413349Y-103019962D01*
X148404170Y-103039368D01*
X148393134Y-103057781D01*
X148380346Y-103075024D01*
X148365930Y-103090930D01*
X148350024Y-103105346D01*
X148332781Y-103118134D01*
X148314368Y-103129170D01*
X148294962Y-103138349D01*
X148274750Y-103145581D01*
X148253926Y-103150797D01*
X148232691Y-103153947D01*
X148211250Y-103155000D01*
X147698750Y-103155000D01*
X147677309Y-103153947D01*
X147656074Y-103150797D01*
X147635250Y-103145581D01*
X147615038Y-103138349D01*
X147595632Y-103129170D01*
X147577219Y-103118134D01*
X147559976Y-103105346D01*
X147544070Y-103090930D01*
X147529654Y-103075024D01*
X147516866Y-103057781D01*
X147505830Y-103039368D01*
X147496651Y-103019962D01*
X147489419Y-102999750D01*
X147484203Y-102978926D01*
X147481053Y-102957691D01*
X147480000Y-102936250D01*
X147480000Y-102498750D01*
X147481053Y-102477309D01*
X147484203Y-102456074D01*
X147489419Y-102435250D01*
X147496651Y-102415038D01*
X147505830Y-102395632D01*
X147516866Y-102377219D01*
X147529654Y-102359976D01*
X147544070Y-102344070D01*
X147559976Y-102329654D01*
X147577219Y-102316866D01*
X147595632Y-102305830D01*
X147615038Y-102296651D01*
X147635250Y-102289419D01*
X147656074Y-102284203D01*
X147677309Y-102281053D01*
X147698750Y-102280000D01*
X148211250Y-102280000D01*
X148232691Y-102281053D01*
X148232691Y-102281053D01*
G37*
D21*
X147955000Y-102717500D03*
D10*
G36*
X148232691Y-103856053D02*
G01*
X148253926Y-103859203D01*
X148274750Y-103864419D01*
X148294962Y-103871651D01*
X148314368Y-103880830D01*
X148332781Y-103891866D01*
X148350024Y-103904654D01*
X148365930Y-103919070D01*
X148380346Y-103934976D01*
X148393134Y-103952219D01*
X148404170Y-103970632D01*
X148413349Y-103990038D01*
X148420581Y-104010250D01*
X148425797Y-104031074D01*
X148428947Y-104052309D01*
X148430000Y-104073750D01*
X148430000Y-104511250D01*
X148428947Y-104532691D01*
X148425797Y-104553926D01*
X148420581Y-104574750D01*
X148413349Y-104594962D01*
X148404170Y-104614368D01*
X148393134Y-104632781D01*
X148380346Y-104650024D01*
X148365930Y-104665930D01*
X148350024Y-104680346D01*
X148332781Y-104693134D01*
X148314368Y-104704170D01*
X148294962Y-104713349D01*
X148274750Y-104720581D01*
X148253926Y-104725797D01*
X148232691Y-104728947D01*
X148211250Y-104730000D01*
X147698750Y-104730000D01*
X147677309Y-104728947D01*
X147656074Y-104725797D01*
X147635250Y-104720581D01*
X147615038Y-104713349D01*
X147595632Y-104704170D01*
X147577219Y-104693134D01*
X147559976Y-104680346D01*
X147544070Y-104665930D01*
X147529654Y-104650024D01*
X147516866Y-104632781D01*
X147505830Y-104614368D01*
X147496651Y-104594962D01*
X147489419Y-104574750D01*
X147484203Y-104553926D01*
X147481053Y-104532691D01*
X147480000Y-104511250D01*
X147480000Y-104073750D01*
X147481053Y-104052309D01*
X147484203Y-104031074D01*
X147489419Y-104010250D01*
X147496651Y-103990038D01*
X147505830Y-103970632D01*
X147516866Y-103952219D01*
X147529654Y-103934976D01*
X147544070Y-103919070D01*
X147559976Y-103904654D01*
X147577219Y-103891866D01*
X147595632Y-103880830D01*
X147615038Y-103871651D01*
X147635250Y-103864419D01*
X147656074Y-103859203D01*
X147677309Y-103856053D01*
X147698750Y-103855000D01*
X148211250Y-103855000D01*
X148232691Y-103856053D01*
X148232691Y-103856053D01*
G37*
D21*
X147955000Y-104292500D03*
D10*
G36*
X149756691Y-103856053D02*
G01*
X149777926Y-103859203D01*
X149798750Y-103864419D01*
X149818962Y-103871651D01*
X149838368Y-103880830D01*
X149856781Y-103891866D01*
X149874024Y-103904654D01*
X149889930Y-103919070D01*
X149904346Y-103934976D01*
X149917134Y-103952219D01*
X149928170Y-103970632D01*
X149937349Y-103990038D01*
X149944581Y-104010250D01*
X149949797Y-104031074D01*
X149952947Y-104052309D01*
X149954000Y-104073750D01*
X149954000Y-104511250D01*
X149952947Y-104532691D01*
X149949797Y-104553926D01*
X149944581Y-104574750D01*
X149937349Y-104594962D01*
X149928170Y-104614368D01*
X149917134Y-104632781D01*
X149904346Y-104650024D01*
X149889930Y-104665930D01*
X149874024Y-104680346D01*
X149856781Y-104693134D01*
X149838368Y-104704170D01*
X149818962Y-104713349D01*
X149798750Y-104720581D01*
X149777926Y-104725797D01*
X149756691Y-104728947D01*
X149735250Y-104730000D01*
X149222750Y-104730000D01*
X149201309Y-104728947D01*
X149180074Y-104725797D01*
X149159250Y-104720581D01*
X149139038Y-104713349D01*
X149119632Y-104704170D01*
X149101219Y-104693134D01*
X149083976Y-104680346D01*
X149068070Y-104665930D01*
X149053654Y-104650024D01*
X149040866Y-104632781D01*
X149029830Y-104614368D01*
X149020651Y-104594962D01*
X149013419Y-104574750D01*
X149008203Y-104553926D01*
X149005053Y-104532691D01*
X149004000Y-104511250D01*
X149004000Y-104073750D01*
X149005053Y-104052309D01*
X149008203Y-104031074D01*
X149013419Y-104010250D01*
X149020651Y-103990038D01*
X149029830Y-103970632D01*
X149040866Y-103952219D01*
X149053654Y-103934976D01*
X149068070Y-103919070D01*
X149083976Y-103904654D01*
X149101219Y-103891866D01*
X149119632Y-103880830D01*
X149139038Y-103871651D01*
X149159250Y-103864419D01*
X149180074Y-103859203D01*
X149201309Y-103856053D01*
X149222750Y-103855000D01*
X149735250Y-103855000D01*
X149756691Y-103856053D01*
X149756691Y-103856053D01*
G37*
D21*
X149479000Y-104292500D03*
D10*
G36*
X149756691Y-102281053D02*
G01*
X149777926Y-102284203D01*
X149798750Y-102289419D01*
X149818962Y-102296651D01*
X149838368Y-102305830D01*
X149856781Y-102316866D01*
X149874024Y-102329654D01*
X149889930Y-102344070D01*
X149904346Y-102359976D01*
X149917134Y-102377219D01*
X149928170Y-102395632D01*
X149937349Y-102415038D01*
X149944581Y-102435250D01*
X149949797Y-102456074D01*
X149952947Y-102477309D01*
X149954000Y-102498750D01*
X149954000Y-102936250D01*
X149952947Y-102957691D01*
X149949797Y-102978926D01*
X149944581Y-102999750D01*
X149937349Y-103019962D01*
X149928170Y-103039368D01*
X149917134Y-103057781D01*
X149904346Y-103075024D01*
X149889930Y-103090930D01*
X149874024Y-103105346D01*
X149856781Y-103118134D01*
X149838368Y-103129170D01*
X149818962Y-103138349D01*
X149798750Y-103145581D01*
X149777926Y-103150797D01*
X149756691Y-103153947D01*
X149735250Y-103155000D01*
X149222750Y-103155000D01*
X149201309Y-103153947D01*
X149180074Y-103150797D01*
X149159250Y-103145581D01*
X149139038Y-103138349D01*
X149119632Y-103129170D01*
X149101219Y-103118134D01*
X149083976Y-103105346D01*
X149068070Y-103090930D01*
X149053654Y-103075024D01*
X149040866Y-103057781D01*
X149029830Y-103039368D01*
X149020651Y-103019962D01*
X149013419Y-102999750D01*
X149008203Y-102978926D01*
X149005053Y-102957691D01*
X149004000Y-102936250D01*
X149004000Y-102498750D01*
X149005053Y-102477309D01*
X149008203Y-102456074D01*
X149013419Y-102435250D01*
X149020651Y-102415038D01*
X149029830Y-102395632D01*
X149040866Y-102377219D01*
X149053654Y-102359976D01*
X149068070Y-102344070D01*
X149083976Y-102329654D01*
X149101219Y-102316866D01*
X149119632Y-102305830D01*
X149139038Y-102296651D01*
X149159250Y-102289419D01*
X149180074Y-102284203D01*
X149201309Y-102281053D01*
X149222750Y-102280000D01*
X149735250Y-102280000D01*
X149756691Y-102281053D01*
X149756691Y-102281053D01*
G37*
D21*
X149479000Y-102717500D03*
D10*
G36*
X128357691Y-100999053D02*
G01*
X128378926Y-101002203D01*
X128399750Y-101007419D01*
X128419962Y-101014651D01*
X128439368Y-101023830D01*
X128457781Y-101034866D01*
X128475024Y-101047654D01*
X128490930Y-101062070D01*
X128505346Y-101077976D01*
X128518134Y-101095219D01*
X128529170Y-101113632D01*
X128538349Y-101133038D01*
X128545581Y-101153250D01*
X128550797Y-101174074D01*
X128553947Y-101195309D01*
X128555000Y-101216750D01*
X128555000Y-101729250D01*
X128553947Y-101750691D01*
X128550797Y-101771926D01*
X128545581Y-101792750D01*
X128538349Y-101812962D01*
X128529170Y-101832368D01*
X128518134Y-101850781D01*
X128505346Y-101868024D01*
X128490930Y-101883930D01*
X128475024Y-101898346D01*
X128457781Y-101911134D01*
X128439368Y-101922170D01*
X128419962Y-101931349D01*
X128399750Y-101938581D01*
X128378926Y-101943797D01*
X128357691Y-101946947D01*
X128336250Y-101948000D01*
X127898750Y-101948000D01*
X127877309Y-101946947D01*
X127856074Y-101943797D01*
X127835250Y-101938581D01*
X127815038Y-101931349D01*
X127795632Y-101922170D01*
X127777219Y-101911134D01*
X127759976Y-101898346D01*
X127744070Y-101883930D01*
X127729654Y-101868024D01*
X127716866Y-101850781D01*
X127705830Y-101832368D01*
X127696651Y-101812962D01*
X127689419Y-101792750D01*
X127684203Y-101771926D01*
X127681053Y-101750691D01*
X127680000Y-101729250D01*
X127680000Y-101216750D01*
X127681053Y-101195309D01*
X127684203Y-101174074D01*
X127689419Y-101153250D01*
X127696651Y-101133038D01*
X127705830Y-101113632D01*
X127716866Y-101095219D01*
X127729654Y-101077976D01*
X127744070Y-101062070D01*
X127759976Y-101047654D01*
X127777219Y-101034866D01*
X127795632Y-101023830D01*
X127815038Y-101014651D01*
X127835250Y-101007419D01*
X127856074Y-101002203D01*
X127877309Y-100999053D01*
X127898750Y-100998000D01*
X128336250Y-100998000D01*
X128357691Y-100999053D01*
X128357691Y-100999053D01*
G37*
D21*
X128117500Y-101473000D03*
D10*
G36*
X129932691Y-100999053D02*
G01*
X129953926Y-101002203D01*
X129974750Y-101007419D01*
X129994962Y-101014651D01*
X130014368Y-101023830D01*
X130032781Y-101034866D01*
X130050024Y-101047654D01*
X130065930Y-101062070D01*
X130080346Y-101077976D01*
X130093134Y-101095219D01*
X130104170Y-101113632D01*
X130113349Y-101133038D01*
X130120581Y-101153250D01*
X130125797Y-101174074D01*
X130128947Y-101195309D01*
X130130000Y-101216750D01*
X130130000Y-101729250D01*
X130128947Y-101750691D01*
X130125797Y-101771926D01*
X130120581Y-101792750D01*
X130113349Y-101812962D01*
X130104170Y-101832368D01*
X130093134Y-101850781D01*
X130080346Y-101868024D01*
X130065930Y-101883930D01*
X130050024Y-101898346D01*
X130032781Y-101911134D01*
X130014368Y-101922170D01*
X129994962Y-101931349D01*
X129974750Y-101938581D01*
X129953926Y-101943797D01*
X129932691Y-101946947D01*
X129911250Y-101948000D01*
X129473750Y-101948000D01*
X129452309Y-101946947D01*
X129431074Y-101943797D01*
X129410250Y-101938581D01*
X129390038Y-101931349D01*
X129370632Y-101922170D01*
X129352219Y-101911134D01*
X129334976Y-101898346D01*
X129319070Y-101883930D01*
X129304654Y-101868024D01*
X129291866Y-101850781D01*
X129280830Y-101832368D01*
X129271651Y-101812962D01*
X129264419Y-101792750D01*
X129259203Y-101771926D01*
X129256053Y-101750691D01*
X129255000Y-101729250D01*
X129255000Y-101216750D01*
X129256053Y-101195309D01*
X129259203Y-101174074D01*
X129264419Y-101153250D01*
X129271651Y-101133038D01*
X129280830Y-101113632D01*
X129291866Y-101095219D01*
X129304654Y-101077976D01*
X129319070Y-101062070D01*
X129334976Y-101047654D01*
X129352219Y-101034866D01*
X129370632Y-101023830D01*
X129390038Y-101014651D01*
X129410250Y-101007419D01*
X129431074Y-101002203D01*
X129452309Y-100999053D01*
X129473750Y-100998000D01*
X129911250Y-100998000D01*
X129932691Y-100999053D01*
X129932691Y-100999053D01*
G37*
D21*
X129692500Y-101473000D03*
D10*
G36*
X132091691Y-90966053D02*
G01*
X132112926Y-90969203D01*
X132133750Y-90974419D01*
X132153962Y-90981651D01*
X132173368Y-90990830D01*
X132191781Y-91001866D01*
X132209024Y-91014654D01*
X132224930Y-91029070D01*
X132239346Y-91044976D01*
X132252134Y-91062219D01*
X132263170Y-91080632D01*
X132272349Y-91100038D01*
X132279581Y-91120250D01*
X132284797Y-91141074D01*
X132287947Y-91162309D01*
X132289000Y-91183750D01*
X132289000Y-91696250D01*
X132287947Y-91717691D01*
X132284797Y-91738926D01*
X132279581Y-91759750D01*
X132272349Y-91779962D01*
X132263170Y-91799368D01*
X132252134Y-91817781D01*
X132239346Y-91835024D01*
X132224930Y-91850930D01*
X132209024Y-91865346D01*
X132191781Y-91878134D01*
X132173368Y-91889170D01*
X132153962Y-91898349D01*
X132133750Y-91905581D01*
X132112926Y-91910797D01*
X132091691Y-91913947D01*
X132070250Y-91915000D01*
X131632750Y-91915000D01*
X131611309Y-91913947D01*
X131590074Y-91910797D01*
X131569250Y-91905581D01*
X131549038Y-91898349D01*
X131529632Y-91889170D01*
X131511219Y-91878134D01*
X131493976Y-91865346D01*
X131478070Y-91850930D01*
X131463654Y-91835024D01*
X131450866Y-91817781D01*
X131439830Y-91799368D01*
X131430651Y-91779962D01*
X131423419Y-91759750D01*
X131418203Y-91738926D01*
X131415053Y-91717691D01*
X131414000Y-91696250D01*
X131414000Y-91183750D01*
X131415053Y-91162309D01*
X131418203Y-91141074D01*
X131423419Y-91120250D01*
X131430651Y-91100038D01*
X131439830Y-91080632D01*
X131450866Y-91062219D01*
X131463654Y-91044976D01*
X131478070Y-91029070D01*
X131493976Y-91014654D01*
X131511219Y-91001866D01*
X131529632Y-90990830D01*
X131549038Y-90981651D01*
X131569250Y-90974419D01*
X131590074Y-90969203D01*
X131611309Y-90966053D01*
X131632750Y-90965000D01*
X132070250Y-90965000D01*
X132091691Y-90966053D01*
X132091691Y-90966053D01*
G37*
D21*
X131851500Y-91440000D03*
D10*
G36*
X130516691Y-90966053D02*
G01*
X130537926Y-90969203D01*
X130558750Y-90974419D01*
X130578962Y-90981651D01*
X130598368Y-90990830D01*
X130616781Y-91001866D01*
X130634024Y-91014654D01*
X130649930Y-91029070D01*
X130664346Y-91044976D01*
X130677134Y-91062219D01*
X130688170Y-91080632D01*
X130697349Y-91100038D01*
X130704581Y-91120250D01*
X130709797Y-91141074D01*
X130712947Y-91162309D01*
X130714000Y-91183750D01*
X130714000Y-91696250D01*
X130712947Y-91717691D01*
X130709797Y-91738926D01*
X130704581Y-91759750D01*
X130697349Y-91779962D01*
X130688170Y-91799368D01*
X130677134Y-91817781D01*
X130664346Y-91835024D01*
X130649930Y-91850930D01*
X130634024Y-91865346D01*
X130616781Y-91878134D01*
X130598368Y-91889170D01*
X130578962Y-91898349D01*
X130558750Y-91905581D01*
X130537926Y-91910797D01*
X130516691Y-91913947D01*
X130495250Y-91915000D01*
X130057750Y-91915000D01*
X130036309Y-91913947D01*
X130015074Y-91910797D01*
X129994250Y-91905581D01*
X129974038Y-91898349D01*
X129954632Y-91889170D01*
X129936219Y-91878134D01*
X129918976Y-91865346D01*
X129903070Y-91850930D01*
X129888654Y-91835024D01*
X129875866Y-91817781D01*
X129864830Y-91799368D01*
X129855651Y-91779962D01*
X129848419Y-91759750D01*
X129843203Y-91738926D01*
X129840053Y-91717691D01*
X129839000Y-91696250D01*
X129839000Y-91183750D01*
X129840053Y-91162309D01*
X129843203Y-91141074D01*
X129848419Y-91120250D01*
X129855651Y-91100038D01*
X129864830Y-91080632D01*
X129875866Y-91062219D01*
X129888654Y-91044976D01*
X129903070Y-91029070D01*
X129918976Y-91014654D01*
X129936219Y-91001866D01*
X129954632Y-90990830D01*
X129974038Y-90981651D01*
X129994250Y-90974419D01*
X130015074Y-90969203D01*
X130036309Y-90966053D01*
X130057750Y-90965000D01*
X130495250Y-90965000D01*
X130516691Y-90966053D01*
X130516691Y-90966053D01*
G37*
D21*
X130276500Y-91440000D03*
D10*
G36*
X130516691Y-93506053D02*
G01*
X130537926Y-93509203D01*
X130558750Y-93514419D01*
X130578962Y-93521651D01*
X130598368Y-93530830D01*
X130616781Y-93541866D01*
X130634024Y-93554654D01*
X130649930Y-93569070D01*
X130664346Y-93584976D01*
X130677134Y-93602219D01*
X130688170Y-93620632D01*
X130697349Y-93640038D01*
X130704581Y-93660250D01*
X130709797Y-93681074D01*
X130712947Y-93702309D01*
X130714000Y-93723750D01*
X130714000Y-94236250D01*
X130712947Y-94257691D01*
X130709797Y-94278926D01*
X130704581Y-94299750D01*
X130697349Y-94319962D01*
X130688170Y-94339368D01*
X130677134Y-94357781D01*
X130664346Y-94375024D01*
X130649930Y-94390930D01*
X130634024Y-94405346D01*
X130616781Y-94418134D01*
X130598368Y-94429170D01*
X130578962Y-94438349D01*
X130558750Y-94445581D01*
X130537926Y-94450797D01*
X130516691Y-94453947D01*
X130495250Y-94455000D01*
X130057750Y-94455000D01*
X130036309Y-94453947D01*
X130015074Y-94450797D01*
X129994250Y-94445581D01*
X129974038Y-94438349D01*
X129954632Y-94429170D01*
X129936219Y-94418134D01*
X129918976Y-94405346D01*
X129903070Y-94390930D01*
X129888654Y-94375024D01*
X129875866Y-94357781D01*
X129864830Y-94339368D01*
X129855651Y-94319962D01*
X129848419Y-94299750D01*
X129843203Y-94278926D01*
X129840053Y-94257691D01*
X129839000Y-94236250D01*
X129839000Y-93723750D01*
X129840053Y-93702309D01*
X129843203Y-93681074D01*
X129848419Y-93660250D01*
X129855651Y-93640038D01*
X129864830Y-93620632D01*
X129875866Y-93602219D01*
X129888654Y-93584976D01*
X129903070Y-93569070D01*
X129918976Y-93554654D01*
X129936219Y-93541866D01*
X129954632Y-93530830D01*
X129974038Y-93521651D01*
X129994250Y-93514419D01*
X130015074Y-93509203D01*
X130036309Y-93506053D01*
X130057750Y-93505000D01*
X130495250Y-93505000D01*
X130516691Y-93506053D01*
X130516691Y-93506053D01*
G37*
D21*
X130276500Y-93980000D03*
D10*
G36*
X132091691Y-93506053D02*
G01*
X132112926Y-93509203D01*
X132133750Y-93514419D01*
X132153962Y-93521651D01*
X132173368Y-93530830D01*
X132191781Y-93541866D01*
X132209024Y-93554654D01*
X132224930Y-93569070D01*
X132239346Y-93584976D01*
X132252134Y-93602219D01*
X132263170Y-93620632D01*
X132272349Y-93640038D01*
X132279581Y-93660250D01*
X132284797Y-93681074D01*
X132287947Y-93702309D01*
X132289000Y-93723750D01*
X132289000Y-94236250D01*
X132287947Y-94257691D01*
X132284797Y-94278926D01*
X132279581Y-94299750D01*
X132272349Y-94319962D01*
X132263170Y-94339368D01*
X132252134Y-94357781D01*
X132239346Y-94375024D01*
X132224930Y-94390930D01*
X132209024Y-94405346D01*
X132191781Y-94418134D01*
X132173368Y-94429170D01*
X132153962Y-94438349D01*
X132133750Y-94445581D01*
X132112926Y-94450797D01*
X132091691Y-94453947D01*
X132070250Y-94455000D01*
X131632750Y-94455000D01*
X131611309Y-94453947D01*
X131590074Y-94450797D01*
X131569250Y-94445581D01*
X131549038Y-94438349D01*
X131529632Y-94429170D01*
X131511219Y-94418134D01*
X131493976Y-94405346D01*
X131478070Y-94390930D01*
X131463654Y-94375024D01*
X131450866Y-94357781D01*
X131439830Y-94339368D01*
X131430651Y-94319962D01*
X131423419Y-94299750D01*
X131418203Y-94278926D01*
X131415053Y-94257691D01*
X131414000Y-94236250D01*
X131414000Y-93723750D01*
X131415053Y-93702309D01*
X131418203Y-93681074D01*
X131423419Y-93660250D01*
X131430651Y-93640038D01*
X131439830Y-93620632D01*
X131450866Y-93602219D01*
X131463654Y-93584976D01*
X131478070Y-93569070D01*
X131493976Y-93554654D01*
X131511219Y-93541866D01*
X131529632Y-93530830D01*
X131549038Y-93521651D01*
X131569250Y-93514419D01*
X131590074Y-93509203D01*
X131611309Y-93506053D01*
X131632750Y-93505000D01*
X132070250Y-93505000D01*
X132091691Y-93506053D01*
X132091691Y-93506053D01*
G37*
D21*
X131851500Y-93980000D03*
D10*
G36*
X132091691Y-96046053D02*
G01*
X132112926Y-96049203D01*
X132133750Y-96054419D01*
X132153962Y-96061651D01*
X132173368Y-96070830D01*
X132191781Y-96081866D01*
X132209024Y-96094654D01*
X132224930Y-96109070D01*
X132239346Y-96124976D01*
X132252134Y-96142219D01*
X132263170Y-96160632D01*
X132272349Y-96180038D01*
X132279581Y-96200250D01*
X132284797Y-96221074D01*
X132287947Y-96242309D01*
X132289000Y-96263750D01*
X132289000Y-96776250D01*
X132287947Y-96797691D01*
X132284797Y-96818926D01*
X132279581Y-96839750D01*
X132272349Y-96859962D01*
X132263170Y-96879368D01*
X132252134Y-96897781D01*
X132239346Y-96915024D01*
X132224930Y-96930930D01*
X132209024Y-96945346D01*
X132191781Y-96958134D01*
X132173368Y-96969170D01*
X132153962Y-96978349D01*
X132133750Y-96985581D01*
X132112926Y-96990797D01*
X132091691Y-96993947D01*
X132070250Y-96995000D01*
X131632750Y-96995000D01*
X131611309Y-96993947D01*
X131590074Y-96990797D01*
X131569250Y-96985581D01*
X131549038Y-96978349D01*
X131529632Y-96969170D01*
X131511219Y-96958134D01*
X131493976Y-96945346D01*
X131478070Y-96930930D01*
X131463654Y-96915024D01*
X131450866Y-96897781D01*
X131439830Y-96879368D01*
X131430651Y-96859962D01*
X131423419Y-96839750D01*
X131418203Y-96818926D01*
X131415053Y-96797691D01*
X131414000Y-96776250D01*
X131414000Y-96263750D01*
X131415053Y-96242309D01*
X131418203Y-96221074D01*
X131423419Y-96200250D01*
X131430651Y-96180038D01*
X131439830Y-96160632D01*
X131450866Y-96142219D01*
X131463654Y-96124976D01*
X131478070Y-96109070D01*
X131493976Y-96094654D01*
X131511219Y-96081866D01*
X131529632Y-96070830D01*
X131549038Y-96061651D01*
X131569250Y-96054419D01*
X131590074Y-96049203D01*
X131611309Y-96046053D01*
X131632750Y-96045000D01*
X132070250Y-96045000D01*
X132091691Y-96046053D01*
X132091691Y-96046053D01*
G37*
D21*
X131851500Y-96520000D03*
D10*
G36*
X130516691Y-96046053D02*
G01*
X130537926Y-96049203D01*
X130558750Y-96054419D01*
X130578962Y-96061651D01*
X130598368Y-96070830D01*
X130616781Y-96081866D01*
X130634024Y-96094654D01*
X130649930Y-96109070D01*
X130664346Y-96124976D01*
X130677134Y-96142219D01*
X130688170Y-96160632D01*
X130697349Y-96180038D01*
X130704581Y-96200250D01*
X130709797Y-96221074D01*
X130712947Y-96242309D01*
X130714000Y-96263750D01*
X130714000Y-96776250D01*
X130712947Y-96797691D01*
X130709797Y-96818926D01*
X130704581Y-96839750D01*
X130697349Y-96859962D01*
X130688170Y-96879368D01*
X130677134Y-96897781D01*
X130664346Y-96915024D01*
X130649930Y-96930930D01*
X130634024Y-96945346D01*
X130616781Y-96958134D01*
X130598368Y-96969170D01*
X130578962Y-96978349D01*
X130558750Y-96985581D01*
X130537926Y-96990797D01*
X130516691Y-96993947D01*
X130495250Y-96995000D01*
X130057750Y-96995000D01*
X130036309Y-96993947D01*
X130015074Y-96990797D01*
X129994250Y-96985581D01*
X129974038Y-96978349D01*
X129954632Y-96969170D01*
X129936219Y-96958134D01*
X129918976Y-96945346D01*
X129903070Y-96930930D01*
X129888654Y-96915024D01*
X129875866Y-96897781D01*
X129864830Y-96879368D01*
X129855651Y-96859962D01*
X129848419Y-96839750D01*
X129843203Y-96818926D01*
X129840053Y-96797691D01*
X129839000Y-96776250D01*
X129839000Y-96263750D01*
X129840053Y-96242309D01*
X129843203Y-96221074D01*
X129848419Y-96200250D01*
X129855651Y-96180038D01*
X129864830Y-96160632D01*
X129875866Y-96142219D01*
X129888654Y-96124976D01*
X129903070Y-96109070D01*
X129918976Y-96094654D01*
X129936219Y-96081866D01*
X129954632Y-96070830D01*
X129974038Y-96061651D01*
X129994250Y-96054419D01*
X130015074Y-96049203D01*
X130036309Y-96046053D01*
X130057750Y-96045000D01*
X130495250Y-96045000D01*
X130516691Y-96046053D01*
X130516691Y-96046053D01*
G37*
D21*
X130276500Y-96520000D03*
D10*
G36*
X132091691Y-98586053D02*
G01*
X132112926Y-98589203D01*
X132133750Y-98594419D01*
X132153962Y-98601651D01*
X132173368Y-98610830D01*
X132191781Y-98621866D01*
X132209024Y-98634654D01*
X132224930Y-98649070D01*
X132239346Y-98664976D01*
X132252134Y-98682219D01*
X132263170Y-98700632D01*
X132272349Y-98720038D01*
X132279581Y-98740250D01*
X132284797Y-98761074D01*
X132287947Y-98782309D01*
X132289000Y-98803750D01*
X132289000Y-99316250D01*
X132287947Y-99337691D01*
X132284797Y-99358926D01*
X132279581Y-99379750D01*
X132272349Y-99399962D01*
X132263170Y-99419368D01*
X132252134Y-99437781D01*
X132239346Y-99455024D01*
X132224930Y-99470930D01*
X132209024Y-99485346D01*
X132191781Y-99498134D01*
X132173368Y-99509170D01*
X132153962Y-99518349D01*
X132133750Y-99525581D01*
X132112926Y-99530797D01*
X132091691Y-99533947D01*
X132070250Y-99535000D01*
X131632750Y-99535000D01*
X131611309Y-99533947D01*
X131590074Y-99530797D01*
X131569250Y-99525581D01*
X131549038Y-99518349D01*
X131529632Y-99509170D01*
X131511219Y-99498134D01*
X131493976Y-99485346D01*
X131478070Y-99470930D01*
X131463654Y-99455024D01*
X131450866Y-99437781D01*
X131439830Y-99419368D01*
X131430651Y-99399962D01*
X131423419Y-99379750D01*
X131418203Y-99358926D01*
X131415053Y-99337691D01*
X131414000Y-99316250D01*
X131414000Y-98803750D01*
X131415053Y-98782309D01*
X131418203Y-98761074D01*
X131423419Y-98740250D01*
X131430651Y-98720038D01*
X131439830Y-98700632D01*
X131450866Y-98682219D01*
X131463654Y-98664976D01*
X131478070Y-98649070D01*
X131493976Y-98634654D01*
X131511219Y-98621866D01*
X131529632Y-98610830D01*
X131549038Y-98601651D01*
X131569250Y-98594419D01*
X131590074Y-98589203D01*
X131611309Y-98586053D01*
X131632750Y-98585000D01*
X132070250Y-98585000D01*
X132091691Y-98586053D01*
X132091691Y-98586053D01*
G37*
D21*
X131851500Y-99060000D03*
D10*
G36*
X130516691Y-98586053D02*
G01*
X130537926Y-98589203D01*
X130558750Y-98594419D01*
X130578962Y-98601651D01*
X130598368Y-98610830D01*
X130616781Y-98621866D01*
X130634024Y-98634654D01*
X130649930Y-98649070D01*
X130664346Y-98664976D01*
X130677134Y-98682219D01*
X130688170Y-98700632D01*
X130697349Y-98720038D01*
X130704581Y-98740250D01*
X130709797Y-98761074D01*
X130712947Y-98782309D01*
X130714000Y-98803750D01*
X130714000Y-99316250D01*
X130712947Y-99337691D01*
X130709797Y-99358926D01*
X130704581Y-99379750D01*
X130697349Y-99399962D01*
X130688170Y-99419368D01*
X130677134Y-99437781D01*
X130664346Y-99455024D01*
X130649930Y-99470930D01*
X130634024Y-99485346D01*
X130616781Y-99498134D01*
X130598368Y-99509170D01*
X130578962Y-99518349D01*
X130558750Y-99525581D01*
X130537926Y-99530797D01*
X130516691Y-99533947D01*
X130495250Y-99535000D01*
X130057750Y-99535000D01*
X130036309Y-99533947D01*
X130015074Y-99530797D01*
X129994250Y-99525581D01*
X129974038Y-99518349D01*
X129954632Y-99509170D01*
X129936219Y-99498134D01*
X129918976Y-99485346D01*
X129903070Y-99470930D01*
X129888654Y-99455024D01*
X129875866Y-99437781D01*
X129864830Y-99419368D01*
X129855651Y-99399962D01*
X129848419Y-99379750D01*
X129843203Y-99358926D01*
X129840053Y-99337691D01*
X129839000Y-99316250D01*
X129839000Y-98803750D01*
X129840053Y-98782309D01*
X129843203Y-98761074D01*
X129848419Y-98740250D01*
X129855651Y-98720038D01*
X129864830Y-98700632D01*
X129875866Y-98682219D01*
X129888654Y-98664976D01*
X129903070Y-98649070D01*
X129918976Y-98634654D01*
X129936219Y-98621866D01*
X129954632Y-98610830D01*
X129974038Y-98601651D01*
X129994250Y-98594419D01*
X130015074Y-98589203D01*
X130036309Y-98586053D01*
X130057750Y-98585000D01*
X130495250Y-98585000D01*
X130516691Y-98586053D01*
X130516691Y-98586053D01*
G37*
D21*
X130276500Y-99060000D03*
D10*
G36*
X135188191Y-103666053D02*
G01*
X135209426Y-103669203D01*
X135230250Y-103674419D01*
X135250462Y-103681651D01*
X135269868Y-103690830D01*
X135288281Y-103701866D01*
X135305524Y-103714654D01*
X135321430Y-103729070D01*
X135335846Y-103744976D01*
X135348634Y-103762219D01*
X135359670Y-103780632D01*
X135368849Y-103800038D01*
X135376081Y-103820250D01*
X135381297Y-103841074D01*
X135384447Y-103862309D01*
X135385500Y-103883750D01*
X135385500Y-104396250D01*
X135384447Y-104417691D01*
X135381297Y-104438926D01*
X135376081Y-104459750D01*
X135368849Y-104479962D01*
X135359670Y-104499368D01*
X135348634Y-104517781D01*
X135335846Y-104535024D01*
X135321430Y-104550930D01*
X135305524Y-104565346D01*
X135288281Y-104578134D01*
X135269868Y-104589170D01*
X135250462Y-104598349D01*
X135230250Y-104605581D01*
X135209426Y-104610797D01*
X135188191Y-104613947D01*
X135166750Y-104615000D01*
X134729250Y-104615000D01*
X134707809Y-104613947D01*
X134686574Y-104610797D01*
X134665750Y-104605581D01*
X134645538Y-104598349D01*
X134626132Y-104589170D01*
X134607719Y-104578134D01*
X134590476Y-104565346D01*
X134574570Y-104550930D01*
X134560154Y-104535024D01*
X134547366Y-104517781D01*
X134536330Y-104499368D01*
X134527151Y-104479962D01*
X134519919Y-104459750D01*
X134514703Y-104438926D01*
X134511553Y-104417691D01*
X134510500Y-104396250D01*
X134510500Y-103883750D01*
X134511553Y-103862309D01*
X134514703Y-103841074D01*
X134519919Y-103820250D01*
X134527151Y-103800038D01*
X134536330Y-103780632D01*
X134547366Y-103762219D01*
X134560154Y-103744976D01*
X134574570Y-103729070D01*
X134590476Y-103714654D01*
X134607719Y-103701866D01*
X134626132Y-103690830D01*
X134645538Y-103681651D01*
X134665750Y-103674419D01*
X134686574Y-103669203D01*
X134707809Y-103666053D01*
X134729250Y-103665000D01*
X135166750Y-103665000D01*
X135188191Y-103666053D01*
X135188191Y-103666053D01*
G37*
D21*
X134948000Y-104140000D03*
D10*
G36*
X133613191Y-103666053D02*
G01*
X133634426Y-103669203D01*
X133655250Y-103674419D01*
X133675462Y-103681651D01*
X133694868Y-103690830D01*
X133713281Y-103701866D01*
X133730524Y-103714654D01*
X133746430Y-103729070D01*
X133760846Y-103744976D01*
X133773634Y-103762219D01*
X133784670Y-103780632D01*
X133793849Y-103800038D01*
X133801081Y-103820250D01*
X133806297Y-103841074D01*
X133809447Y-103862309D01*
X133810500Y-103883750D01*
X133810500Y-104396250D01*
X133809447Y-104417691D01*
X133806297Y-104438926D01*
X133801081Y-104459750D01*
X133793849Y-104479962D01*
X133784670Y-104499368D01*
X133773634Y-104517781D01*
X133760846Y-104535024D01*
X133746430Y-104550930D01*
X133730524Y-104565346D01*
X133713281Y-104578134D01*
X133694868Y-104589170D01*
X133675462Y-104598349D01*
X133655250Y-104605581D01*
X133634426Y-104610797D01*
X133613191Y-104613947D01*
X133591750Y-104615000D01*
X133154250Y-104615000D01*
X133132809Y-104613947D01*
X133111574Y-104610797D01*
X133090750Y-104605581D01*
X133070538Y-104598349D01*
X133051132Y-104589170D01*
X133032719Y-104578134D01*
X133015476Y-104565346D01*
X132999570Y-104550930D01*
X132985154Y-104535024D01*
X132972366Y-104517781D01*
X132961330Y-104499368D01*
X132952151Y-104479962D01*
X132944919Y-104459750D01*
X132939703Y-104438926D01*
X132936553Y-104417691D01*
X132935500Y-104396250D01*
X132935500Y-103883750D01*
X132936553Y-103862309D01*
X132939703Y-103841074D01*
X132944919Y-103820250D01*
X132952151Y-103800038D01*
X132961330Y-103780632D01*
X132972366Y-103762219D01*
X132985154Y-103744976D01*
X132999570Y-103729070D01*
X133015476Y-103714654D01*
X133032719Y-103701866D01*
X133051132Y-103690830D01*
X133070538Y-103681651D01*
X133090750Y-103674419D01*
X133111574Y-103669203D01*
X133132809Y-103666053D01*
X133154250Y-103665000D01*
X133591750Y-103665000D01*
X133613191Y-103666053D01*
X133613191Y-103666053D01*
G37*
D21*
X133373000Y-104140000D03*
D10*
G36*
X131532691Y-100999053D02*
G01*
X131553926Y-101002203D01*
X131574750Y-101007419D01*
X131594962Y-101014651D01*
X131614368Y-101023830D01*
X131632781Y-101034866D01*
X131650024Y-101047654D01*
X131665930Y-101062070D01*
X131680346Y-101077976D01*
X131693134Y-101095219D01*
X131704170Y-101113632D01*
X131713349Y-101133038D01*
X131720581Y-101153250D01*
X131725797Y-101174074D01*
X131728947Y-101195309D01*
X131730000Y-101216750D01*
X131730000Y-101729250D01*
X131728947Y-101750691D01*
X131725797Y-101771926D01*
X131720581Y-101792750D01*
X131713349Y-101812962D01*
X131704170Y-101832368D01*
X131693134Y-101850781D01*
X131680346Y-101868024D01*
X131665930Y-101883930D01*
X131650024Y-101898346D01*
X131632781Y-101911134D01*
X131614368Y-101922170D01*
X131594962Y-101931349D01*
X131574750Y-101938581D01*
X131553926Y-101943797D01*
X131532691Y-101946947D01*
X131511250Y-101948000D01*
X131073750Y-101948000D01*
X131052309Y-101946947D01*
X131031074Y-101943797D01*
X131010250Y-101938581D01*
X130990038Y-101931349D01*
X130970632Y-101922170D01*
X130952219Y-101911134D01*
X130934976Y-101898346D01*
X130919070Y-101883930D01*
X130904654Y-101868024D01*
X130891866Y-101850781D01*
X130880830Y-101832368D01*
X130871651Y-101812962D01*
X130864419Y-101792750D01*
X130859203Y-101771926D01*
X130856053Y-101750691D01*
X130855000Y-101729250D01*
X130855000Y-101216750D01*
X130856053Y-101195309D01*
X130859203Y-101174074D01*
X130864419Y-101153250D01*
X130871651Y-101133038D01*
X130880830Y-101113632D01*
X130891866Y-101095219D01*
X130904654Y-101077976D01*
X130919070Y-101062070D01*
X130934976Y-101047654D01*
X130952219Y-101034866D01*
X130970632Y-101023830D01*
X130990038Y-101014651D01*
X131010250Y-101007419D01*
X131031074Y-101002203D01*
X131052309Y-100999053D01*
X131073750Y-100998000D01*
X131511250Y-100998000D01*
X131532691Y-100999053D01*
X131532691Y-100999053D01*
G37*
D21*
X131292500Y-101473000D03*
D10*
G36*
X133107691Y-100999053D02*
G01*
X133128926Y-101002203D01*
X133149750Y-101007419D01*
X133169962Y-101014651D01*
X133189368Y-101023830D01*
X133207781Y-101034866D01*
X133225024Y-101047654D01*
X133240930Y-101062070D01*
X133255346Y-101077976D01*
X133268134Y-101095219D01*
X133279170Y-101113632D01*
X133288349Y-101133038D01*
X133295581Y-101153250D01*
X133300797Y-101174074D01*
X133303947Y-101195309D01*
X133305000Y-101216750D01*
X133305000Y-101729250D01*
X133303947Y-101750691D01*
X133300797Y-101771926D01*
X133295581Y-101792750D01*
X133288349Y-101812962D01*
X133279170Y-101832368D01*
X133268134Y-101850781D01*
X133255346Y-101868024D01*
X133240930Y-101883930D01*
X133225024Y-101898346D01*
X133207781Y-101911134D01*
X133189368Y-101922170D01*
X133169962Y-101931349D01*
X133149750Y-101938581D01*
X133128926Y-101943797D01*
X133107691Y-101946947D01*
X133086250Y-101948000D01*
X132648750Y-101948000D01*
X132627309Y-101946947D01*
X132606074Y-101943797D01*
X132585250Y-101938581D01*
X132565038Y-101931349D01*
X132545632Y-101922170D01*
X132527219Y-101911134D01*
X132509976Y-101898346D01*
X132494070Y-101883930D01*
X132479654Y-101868024D01*
X132466866Y-101850781D01*
X132455830Y-101832368D01*
X132446651Y-101812962D01*
X132439419Y-101792750D01*
X132434203Y-101771926D01*
X132431053Y-101750691D01*
X132430000Y-101729250D01*
X132430000Y-101216750D01*
X132431053Y-101195309D01*
X132434203Y-101174074D01*
X132439419Y-101153250D01*
X132446651Y-101133038D01*
X132455830Y-101113632D01*
X132466866Y-101095219D01*
X132479654Y-101077976D01*
X132494070Y-101062070D01*
X132509976Y-101047654D01*
X132527219Y-101034866D01*
X132545632Y-101023830D01*
X132565038Y-101014651D01*
X132585250Y-101007419D01*
X132606074Y-101002203D01*
X132627309Y-100999053D01*
X132648750Y-100998000D01*
X133086250Y-100998000D01*
X133107691Y-100999053D01*
X133107691Y-100999053D01*
G37*
D21*
X132867500Y-101473000D03*
D10*
G36*
X133643191Y-90966053D02*
G01*
X133664426Y-90969203D01*
X133685250Y-90974419D01*
X133705462Y-90981651D01*
X133724868Y-90990830D01*
X133743281Y-91001866D01*
X133760524Y-91014654D01*
X133776430Y-91029070D01*
X133790846Y-91044976D01*
X133803634Y-91062219D01*
X133814670Y-91080632D01*
X133823849Y-91100038D01*
X133831081Y-91120250D01*
X133836297Y-91141074D01*
X133839447Y-91162309D01*
X133840500Y-91183750D01*
X133840500Y-91696250D01*
X133839447Y-91717691D01*
X133836297Y-91738926D01*
X133831081Y-91759750D01*
X133823849Y-91779962D01*
X133814670Y-91799368D01*
X133803634Y-91817781D01*
X133790846Y-91835024D01*
X133776430Y-91850930D01*
X133760524Y-91865346D01*
X133743281Y-91878134D01*
X133724868Y-91889170D01*
X133705462Y-91898349D01*
X133685250Y-91905581D01*
X133664426Y-91910797D01*
X133643191Y-91913947D01*
X133621750Y-91915000D01*
X133184250Y-91915000D01*
X133162809Y-91913947D01*
X133141574Y-91910797D01*
X133120750Y-91905581D01*
X133100538Y-91898349D01*
X133081132Y-91889170D01*
X133062719Y-91878134D01*
X133045476Y-91865346D01*
X133029570Y-91850930D01*
X133015154Y-91835024D01*
X133002366Y-91817781D01*
X132991330Y-91799368D01*
X132982151Y-91779962D01*
X132974919Y-91759750D01*
X132969703Y-91738926D01*
X132966553Y-91717691D01*
X132965500Y-91696250D01*
X132965500Y-91183750D01*
X132966553Y-91162309D01*
X132969703Y-91141074D01*
X132974919Y-91120250D01*
X132982151Y-91100038D01*
X132991330Y-91080632D01*
X133002366Y-91062219D01*
X133015154Y-91044976D01*
X133029570Y-91029070D01*
X133045476Y-91014654D01*
X133062719Y-91001866D01*
X133081132Y-90990830D01*
X133100538Y-90981651D01*
X133120750Y-90974419D01*
X133141574Y-90969203D01*
X133162809Y-90966053D01*
X133184250Y-90965000D01*
X133621750Y-90965000D01*
X133643191Y-90966053D01*
X133643191Y-90966053D01*
G37*
D21*
X133403000Y-91440000D03*
D10*
G36*
X135218191Y-90966053D02*
G01*
X135239426Y-90969203D01*
X135260250Y-90974419D01*
X135280462Y-90981651D01*
X135299868Y-90990830D01*
X135318281Y-91001866D01*
X135335524Y-91014654D01*
X135351430Y-91029070D01*
X135365846Y-91044976D01*
X135378634Y-91062219D01*
X135389670Y-91080632D01*
X135398849Y-91100038D01*
X135406081Y-91120250D01*
X135411297Y-91141074D01*
X135414447Y-91162309D01*
X135415500Y-91183750D01*
X135415500Y-91696250D01*
X135414447Y-91717691D01*
X135411297Y-91738926D01*
X135406081Y-91759750D01*
X135398849Y-91779962D01*
X135389670Y-91799368D01*
X135378634Y-91817781D01*
X135365846Y-91835024D01*
X135351430Y-91850930D01*
X135335524Y-91865346D01*
X135318281Y-91878134D01*
X135299868Y-91889170D01*
X135280462Y-91898349D01*
X135260250Y-91905581D01*
X135239426Y-91910797D01*
X135218191Y-91913947D01*
X135196750Y-91915000D01*
X134759250Y-91915000D01*
X134737809Y-91913947D01*
X134716574Y-91910797D01*
X134695750Y-91905581D01*
X134675538Y-91898349D01*
X134656132Y-91889170D01*
X134637719Y-91878134D01*
X134620476Y-91865346D01*
X134604570Y-91850930D01*
X134590154Y-91835024D01*
X134577366Y-91817781D01*
X134566330Y-91799368D01*
X134557151Y-91779962D01*
X134549919Y-91759750D01*
X134544703Y-91738926D01*
X134541553Y-91717691D01*
X134540500Y-91696250D01*
X134540500Y-91183750D01*
X134541553Y-91162309D01*
X134544703Y-91141074D01*
X134549919Y-91120250D01*
X134557151Y-91100038D01*
X134566330Y-91080632D01*
X134577366Y-91062219D01*
X134590154Y-91044976D01*
X134604570Y-91029070D01*
X134620476Y-91014654D01*
X134637719Y-91001866D01*
X134656132Y-90990830D01*
X134675538Y-90981651D01*
X134695750Y-90974419D01*
X134716574Y-90969203D01*
X134737809Y-90966053D01*
X134759250Y-90965000D01*
X135196750Y-90965000D01*
X135218191Y-90966053D01*
X135218191Y-90966053D01*
G37*
D21*
X134978000Y-91440000D03*
D10*
G36*
X127420191Y-90966053D02*
G01*
X127441426Y-90969203D01*
X127462250Y-90974419D01*
X127482462Y-90981651D01*
X127501868Y-90990830D01*
X127520281Y-91001866D01*
X127537524Y-91014654D01*
X127553430Y-91029070D01*
X127567846Y-91044976D01*
X127580634Y-91062219D01*
X127591670Y-91080632D01*
X127600849Y-91100038D01*
X127608081Y-91120250D01*
X127613297Y-91141074D01*
X127616447Y-91162309D01*
X127617500Y-91183750D01*
X127617500Y-91696250D01*
X127616447Y-91717691D01*
X127613297Y-91738926D01*
X127608081Y-91759750D01*
X127600849Y-91779962D01*
X127591670Y-91799368D01*
X127580634Y-91817781D01*
X127567846Y-91835024D01*
X127553430Y-91850930D01*
X127537524Y-91865346D01*
X127520281Y-91878134D01*
X127501868Y-91889170D01*
X127482462Y-91898349D01*
X127462250Y-91905581D01*
X127441426Y-91910797D01*
X127420191Y-91913947D01*
X127398750Y-91915000D01*
X126961250Y-91915000D01*
X126939809Y-91913947D01*
X126918574Y-91910797D01*
X126897750Y-91905581D01*
X126877538Y-91898349D01*
X126858132Y-91889170D01*
X126839719Y-91878134D01*
X126822476Y-91865346D01*
X126806570Y-91850930D01*
X126792154Y-91835024D01*
X126779366Y-91817781D01*
X126768330Y-91799368D01*
X126759151Y-91779962D01*
X126751919Y-91759750D01*
X126746703Y-91738926D01*
X126743553Y-91717691D01*
X126742500Y-91696250D01*
X126742500Y-91183750D01*
X126743553Y-91162309D01*
X126746703Y-91141074D01*
X126751919Y-91120250D01*
X126759151Y-91100038D01*
X126768330Y-91080632D01*
X126779366Y-91062219D01*
X126792154Y-91044976D01*
X126806570Y-91029070D01*
X126822476Y-91014654D01*
X126839719Y-91001866D01*
X126858132Y-90990830D01*
X126877538Y-90981651D01*
X126897750Y-90974419D01*
X126918574Y-90969203D01*
X126939809Y-90966053D01*
X126961250Y-90965000D01*
X127398750Y-90965000D01*
X127420191Y-90966053D01*
X127420191Y-90966053D01*
G37*
D21*
X127180000Y-91440000D03*
D10*
G36*
X128995191Y-90966053D02*
G01*
X129016426Y-90969203D01*
X129037250Y-90974419D01*
X129057462Y-90981651D01*
X129076868Y-90990830D01*
X129095281Y-91001866D01*
X129112524Y-91014654D01*
X129128430Y-91029070D01*
X129142846Y-91044976D01*
X129155634Y-91062219D01*
X129166670Y-91080632D01*
X129175849Y-91100038D01*
X129183081Y-91120250D01*
X129188297Y-91141074D01*
X129191447Y-91162309D01*
X129192500Y-91183750D01*
X129192500Y-91696250D01*
X129191447Y-91717691D01*
X129188297Y-91738926D01*
X129183081Y-91759750D01*
X129175849Y-91779962D01*
X129166670Y-91799368D01*
X129155634Y-91817781D01*
X129142846Y-91835024D01*
X129128430Y-91850930D01*
X129112524Y-91865346D01*
X129095281Y-91878134D01*
X129076868Y-91889170D01*
X129057462Y-91898349D01*
X129037250Y-91905581D01*
X129016426Y-91910797D01*
X128995191Y-91913947D01*
X128973750Y-91915000D01*
X128536250Y-91915000D01*
X128514809Y-91913947D01*
X128493574Y-91910797D01*
X128472750Y-91905581D01*
X128452538Y-91898349D01*
X128433132Y-91889170D01*
X128414719Y-91878134D01*
X128397476Y-91865346D01*
X128381570Y-91850930D01*
X128367154Y-91835024D01*
X128354366Y-91817781D01*
X128343330Y-91799368D01*
X128334151Y-91779962D01*
X128326919Y-91759750D01*
X128321703Y-91738926D01*
X128318553Y-91717691D01*
X128317500Y-91696250D01*
X128317500Y-91183750D01*
X128318553Y-91162309D01*
X128321703Y-91141074D01*
X128326919Y-91120250D01*
X128334151Y-91100038D01*
X128343330Y-91080632D01*
X128354366Y-91062219D01*
X128367154Y-91044976D01*
X128381570Y-91029070D01*
X128397476Y-91014654D01*
X128414719Y-91001866D01*
X128433132Y-90990830D01*
X128452538Y-90981651D01*
X128472750Y-90974419D01*
X128493574Y-90969203D01*
X128514809Y-90966053D01*
X128536250Y-90965000D01*
X128973750Y-90965000D01*
X128995191Y-90966053D01*
X128995191Y-90966053D01*
G37*
D21*
X128755000Y-91440000D03*
D10*
G36*
X151280691Y-88946053D02*
G01*
X151301926Y-88949203D01*
X151322750Y-88954419D01*
X151342962Y-88961651D01*
X151362368Y-88970830D01*
X151380781Y-88981866D01*
X151398024Y-88994654D01*
X151413930Y-89009070D01*
X151428346Y-89024976D01*
X151441134Y-89042219D01*
X151452170Y-89060632D01*
X151461349Y-89080038D01*
X151468581Y-89100250D01*
X151473797Y-89121074D01*
X151476947Y-89142309D01*
X151478000Y-89163750D01*
X151478000Y-89601250D01*
X151476947Y-89622691D01*
X151473797Y-89643926D01*
X151468581Y-89664750D01*
X151461349Y-89684962D01*
X151452170Y-89704368D01*
X151441134Y-89722781D01*
X151428346Y-89740024D01*
X151413930Y-89755930D01*
X151398024Y-89770346D01*
X151380781Y-89783134D01*
X151362368Y-89794170D01*
X151342962Y-89803349D01*
X151322750Y-89810581D01*
X151301926Y-89815797D01*
X151280691Y-89818947D01*
X151259250Y-89820000D01*
X150746750Y-89820000D01*
X150725309Y-89818947D01*
X150704074Y-89815797D01*
X150683250Y-89810581D01*
X150663038Y-89803349D01*
X150643632Y-89794170D01*
X150625219Y-89783134D01*
X150607976Y-89770346D01*
X150592070Y-89755930D01*
X150577654Y-89740024D01*
X150564866Y-89722781D01*
X150553830Y-89704368D01*
X150544651Y-89684962D01*
X150537419Y-89664750D01*
X150532203Y-89643926D01*
X150529053Y-89622691D01*
X150528000Y-89601250D01*
X150528000Y-89163750D01*
X150529053Y-89142309D01*
X150532203Y-89121074D01*
X150537419Y-89100250D01*
X150544651Y-89080038D01*
X150553830Y-89060632D01*
X150564866Y-89042219D01*
X150577654Y-89024976D01*
X150592070Y-89009070D01*
X150607976Y-88994654D01*
X150625219Y-88981866D01*
X150643632Y-88970830D01*
X150663038Y-88961651D01*
X150683250Y-88954419D01*
X150704074Y-88949203D01*
X150725309Y-88946053D01*
X150746750Y-88945000D01*
X151259250Y-88945000D01*
X151280691Y-88946053D01*
X151280691Y-88946053D01*
G37*
D21*
X151003000Y-89382500D03*
D10*
G36*
X151280691Y-90521053D02*
G01*
X151301926Y-90524203D01*
X151322750Y-90529419D01*
X151342962Y-90536651D01*
X151362368Y-90545830D01*
X151380781Y-90556866D01*
X151398024Y-90569654D01*
X151413930Y-90584070D01*
X151428346Y-90599976D01*
X151441134Y-90617219D01*
X151452170Y-90635632D01*
X151461349Y-90655038D01*
X151468581Y-90675250D01*
X151473797Y-90696074D01*
X151476947Y-90717309D01*
X151478000Y-90738750D01*
X151478000Y-91176250D01*
X151476947Y-91197691D01*
X151473797Y-91218926D01*
X151468581Y-91239750D01*
X151461349Y-91259962D01*
X151452170Y-91279368D01*
X151441134Y-91297781D01*
X151428346Y-91315024D01*
X151413930Y-91330930D01*
X151398024Y-91345346D01*
X151380781Y-91358134D01*
X151362368Y-91369170D01*
X151342962Y-91378349D01*
X151322750Y-91385581D01*
X151301926Y-91390797D01*
X151280691Y-91393947D01*
X151259250Y-91395000D01*
X150746750Y-91395000D01*
X150725309Y-91393947D01*
X150704074Y-91390797D01*
X150683250Y-91385581D01*
X150663038Y-91378349D01*
X150643632Y-91369170D01*
X150625219Y-91358134D01*
X150607976Y-91345346D01*
X150592070Y-91330930D01*
X150577654Y-91315024D01*
X150564866Y-91297781D01*
X150553830Y-91279368D01*
X150544651Y-91259962D01*
X150537419Y-91239750D01*
X150532203Y-91218926D01*
X150529053Y-91197691D01*
X150528000Y-91176250D01*
X150528000Y-90738750D01*
X150529053Y-90717309D01*
X150532203Y-90696074D01*
X150537419Y-90675250D01*
X150544651Y-90655038D01*
X150553830Y-90635632D01*
X150564866Y-90617219D01*
X150577654Y-90599976D01*
X150592070Y-90584070D01*
X150607976Y-90569654D01*
X150625219Y-90556866D01*
X150643632Y-90545830D01*
X150663038Y-90536651D01*
X150683250Y-90529419D01*
X150704074Y-90524203D01*
X150725309Y-90521053D01*
X150746750Y-90520000D01*
X151259250Y-90520000D01*
X151280691Y-90521053D01*
X151280691Y-90521053D01*
G37*
D21*
X151003000Y-90957500D03*
D10*
G36*
X152804691Y-88946053D02*
G01*
X152825926Y-88949203D01*
X152846750Y-88954419D01*
X152866962Y-88961651D01*
X152886368Y-88970830D01*
X152904781Y-88981866D01*
X152922024Y-88994654D01*
X152937930Y-89009070D01*
X152952346Y-89024976D01*
X152965134Y-89042219D01*
X152976170Y-89060632D01*
X152985349Y-89080038D01*
X152992581Y-89100250D01*
X152997797Y-89121074D01*
X153000947Y-89142309D01*
X153002000Y-89163750D01*
X153002000Y-89601250D01*
X153000947Y-89622691D01*
X152997797Y-89643926D01*
X152992581Y-89664750D01*
X152985349Y-89684962D01*
X152976170Y-89704368D01*
X152965134Y-89722781D01*
X152952346Y-89740024D01*
X152937930Y-89755930D01*
X152922024Y-89770346D01*
X152904781Y-89783134D01*
X152886368Y-89794170D01*
X152866962Y-89803349D01*
X152846750Y-89810581D01*
X152825926Y-89815797D01*
X152804691Y-89818947D01*
X152783250Y-89820000D01*
X152270750Y-89820000D01*
X152249309Y-89818947D01*
X152228074Y-89815797D01*
X152207250Y-89810581D01*
X152187038Y-89803349D01*
X152167632Y-89794170D01*
X152149219Y-89783134D01*
X152131976Y-89770346D01*
X152116070Y-89755930D01*
X152101654Y-89740024D01*
X152088866Y-89722781D01*
X152077830Y-89704368D01*
X152068651Y-89684962D01*
X152061419Y-89664750D01*
X152056203Y-89643926D01*
X152053053Y-89622691D01*
X152052000Y-89601250D01*
X152052000Y-89163750D01*
X152053053Y-89142309D01*
X152056203Y-89121074D01*
X152061419Y-89100250D01*
X152068651Y-89080038D01*
X152077830Y-89060632D01*
X152088866Y-89042219D01*
X152101654Y-89024976D01*
X152116070Y-89009070D01*
X152131976Y-88994654D01*
X152149219Y-88981866D01*
X152167632Y-88970830D01*
X152187038Y-88961651D01*
X152207250Y-88954419D01*
X152228074Y-88949203D01*
X152249309Y-88946053D01*
X152270750Y-88945000D01*
X152783250Y-88945000D01*
X152804691Y-88946053D01*
X152804691Y-88946053D01*
G37*
D21*
X152527000Y-89382500D03*
D10*
G36*
X152804691Y-90521053D02*
G01*
X152825926Y-90524203D01*
X152846750Y-90529419D01*
X152866962Y-90536651D01*
X152886368Y-90545830D01*
X152904781Y-90556866D01*
X152922024Y-90569654D01*
X152937930Y-90584070D01*
X152952346Y-90599976D01*
X152965134Y-90617219D01*
X152976170Y-90635632D01*
X152985349Y-90655038D01*
X152992581Y-90675250D01*
X152997797Y-90696074D01*
X153000947Y-90717309D01*
X153002000Y-90738750D01*
X153002000Y-91176250D01*
X153000947Y-91197691D01*
X152997797Y-91218926D01*
X152992581Y-91239750D01*
X152985349Y-91259962D01*
X152976170Y-91279368D01*
X152965134Y-91297781D01*
X152952346Y-91315024D01*
X152937930Y-91330930D01*
X152922024Y-91345346D01*
X152904781Y-91358134D01*
X152886368Y-91369170D01*
X152866962Y-91378349D01*
X152846750Y-91385581D01*
X152825926Y-91390797D01*
X152804691Y-91393947D01*
X152783250Y-91395000D01*
X152270750Y-91395000D01*
X152249309Y-91393947D01*
X152228074Y-91390797D01*
X152207250Y-91385581D01*
X152187038Y-91378349D01*
X152167632Y-91369170D01*
X152149219Y-91358134D01*
X152131976Y-91345346D01*
X152116070Y-91330930D01*
X152101654Y-91315024D01*
X152088866Y-91297781D01*
X152077830Y-91279368D01*
X152068651Y-91259962D01*
X152061419Y-91239750D01*
X152056203Y-91218926D01*
X152053053Y-91197691D01*
X152052000Y-91176250D01*
X152052000Y-90738750D01*
X152053053Y-90717309D01*
X152056203Y-90696074D01*
X152061419Y-90675250D01*
X152068651Y-90655038D01*
X152077830Y-90635632D01*
X152088866Y-90617219D01*
X152101654Y-90599976D01*
X152116070Y-90584070D01*
X152131976Y-90569654D01*
X152149219Y-90556866D01*
X152167632Y-90545830D01*
X152187038Y-90536651D01*
X152207250Y-90529419D01*
X152228074Y-90524203D01*
X152249309Y-90521053D01*
X152270750Y-90520000D01*
X152783250Y-90520000D01*
X152804691Y-90521053D01*
X152804691Y-90521053D01*
G37*
D21*
X152527000Y-90957500D03*
D10*
G36*
X133613191Y-93506053D02*
G01*
X133634426Y-93509203D01*
X133655250Y-93514419D01*
X133675462Y-93521651D01*
X133694868Y-93530830D01*
X133713281Y-93541866D01*
X133730524Y-93554654D01*
X133746430Y-93569070D01*
X133760846Y-93584976D01*
X133773634Y-93602219D01*
X133784670Y-93620632D01*
X133793849Y-93640038D01*
X133801081Y-93660250D01*
X133806297Y-93681074D01*
X133809447Y-93702309D01*
X133810500Y-93723750D01*
X133810500Y-94236250D01*
X133809447Y-94257691D01*
X133806297Y-94278926D01*
X133801081Y-94299750D01*
X133793849Y-94319962D01*
X133784670Y-94339368D01*
X133773634Y-94357781D01*
X133760846Y-94375024D01*
X133746430Y-94390930D01*
X133730524Y-94405346D01*
X133713281Y-94418134D01*
X133694868Y-94429170D01*
X133675462Y-94438349D01*
X133655250Y-94445581D01*
X133634426Y-94450797D01*
X133613191Y-94453947D01*
X133591750Y-94455000D01*
X133154250Y-94455000D01*
X133132809Y-94453947D01*
X133111574Y-94450797D01*
X133090750Y-94445581D01*
X133070538Y-94438349D01*
X133051132Y-94429170D01*
X133032719Y-94418134D01*
X133015476Y-94405346D01*
X132999570Y-94390930D01*
X132985154Y-94375024D01*
X132972366Y-94357781D01*
X132961330Y-94339368D01*
X132952151Y-94319962D01*
X132944919Y-94299750D01*
X132939703Y-94278926D01*
X132936553Y-94257691D01*
X132935500Y-94236250D01*
X132935500Y-93723750D01*
X132936553Y-93702309D01*
X132939703Y-93681074D01*
X132944919Y-93660250D01*
X132952151Y-93640038D01*
X132961330Y-93620632D01*
X132972366Y-93602219D01*
X132985154Y-93584976D01*
X132999570Y-93569070D01*
X133015476Y-93554654D01*
X133032719Y-93541866D01*
X133051132Y-93530830D01*
X133070538Y-93521651D01*
X133090750Y-93514419D01*
X133111574Y-93509203D01*
X133132809Y-93506053D01*
X133154250Y-93505000D01*
X133591750Y-93505000D01*
X133613191Y-93506053D01*
X133613191Y-93506053D01*
G37*
D21*
X133373000Y-93980000D03*
D10*
G36*
X135188191Y-93506053D02*
G01*
X135209426Y-93509203D01*
X135230250Y-93514419D01*
X135250462Y-93521651D01*
X135269868Y-93530830D01*
X135288281Y-93541866D01*
X135305524Y-93554654D01*
X135321430Y-93569070D01*
X135335846Y-93584976D01*
X135348634Y-93602219D01*
X135359670Y-93620632D01*
X135368849Y-93640038D01*
X135376081Y-93660250D01*
X135381297Y-93681074D01*
X135384447Y-93702309D01*
X135385500Y-93723750D01*
X135385500Y-94236250D01*
X135384447Y-94257691D01*
X135381297Y-94278926D01*
X135376081Y-94299750D01*
X135368849Y-94319962D01*
X135359670Y-94339368D01*
X135348634Y-94357781D01*
X135335846Y-94375024D01*
X135321430Y-94390930D01*
X135305524Y-94405346D01*
X135288281Y-94418134D01*
X135269868Y-94429170D01*
X135250462Y-94438349D01*
X135230250Y-94445581D01*
X135209426Y-94450797D01*
X135188191Y-94453947D01*
X135166750Y-94455000D01*
X134729250Y-94455000D01*
X134707809Y-94453947D01*
X134686574Y-94450797D01*
X134665750Y-94445581D01*
X134645538Y-94438349D01*
X134626132Y-94429170D01*
X134607719Y-94418134D01*
X134590476Y-94405346D01*
X134574570Y-94390930D01*
X134560154Y-94375024D01*
X134547366Y-94357781D01*
X134536330Y-94339368D01*
X134527151Y-94319962D01*
X134519919Y-94299750D01*
X134514703Y-94278926D01*
X134511553Y-94257691D01*
X134510500Y-94236250D01*
X134510500Y-93723750D01*
X134511553Y-93702309D01*
X134514703Y-93681074D01*
X134519919Y-93660250D01*
X134527151Y-93640038D01*
X134536330Y-93620632D01*
X134547366Y-93602219D01*
X134560154Y-93584976D01*
X134574570Y-93569070D01*
X134590476Y-93554654D01*
X134607719Y-93541866D01*
X134626132Y-93530830D01*
X134645538Y-93521651D01*
X134665750Y-93514419D01*
X134686574Y-93509203D01*
X134707809Y-93506053D01*
X134729250Y-93505000D01*
X135166750Y-93505000D01*
X135188191Y-93506053D01*
X135188191Y-93506053D01*
G37*
D21*
X134948000Y-93980000D03*
D10*
G36*
X127390191Y-93506053D02*
G01*
X127411426Y-93509203D01*
X127432250Y-93514419D01*
X127452462Y-93521651D01*
X127471868Y-93530830D01*
X127490281Y-93541866D01*
X127507524Y-93554654D01*
X127523430Y-93569070D01*
X127537846Y-93584976D01*
X127550634Y-93602219D01*
X127561670Y-93620632D01*
X127570849Y-93640038D01*
X127578081Y-93660250D01*
X127583297Y-93681074D01*
X127586447Y-93702309D01*
X127587500Y-93723750D01*
X127587500Y-94236250D01*
X127586447Y-94257691D01*
X127583297Y-94278926D01*
X127578081Y-94299750D01*
X127570849Y-94319962D01*
X127561670Y-94339368D01*
X127550634Y-94357781D01*
X127537846Y-94375024D01*
X127523430Y-94390930D01*
X127507524Y-94405346D01*
X127490281Y-94418134D01*
X127471868Y-94429170D01*
X127452462Y-94438349D01*
X127432250Y-94445581D01*
X127411426Y-94450797D01*
X127390191Y-94453947D01*
X127368750Y-94455000D01*
X126931250Y-94455000D01*
X126909809Y-94453947D01*
X126888574Y-94450797D01*
X126867750Y-94445581D01*
X126847538Y-94438349D01*
X126828132Y-94429170D01*
X126809719Y-94418134D01*
X126792476Y-94405346D01*
X126776570Y-94390930D01*
X126762154Y-94375024D01*
X126749366Y-94357781D01*
X126738330Y-94339368D01*
X126729151Y-94319962D01*
X126721919Y-94299750D01*
X126716703Y-94278926D01*
X126713553Y-94257691D01*
X126712500Y-94236250D01*
X126712500Y-93723750D01*
X126713553Y-93702309D01*
X126716703Y-93681074D01*
X126721919Y-93660250D01*
X126729151Y-93640038D01*
X126738330Y-93620632D01*
X126749366Y-93602219D01*
X126762154Y-93584976D01*
X126776570Y-93569070D01*
X126792476Y-93554654D01*
X126809719Y-93541866D01*
X126828132Y-93530830D01*
X126847538Y-93521651D01*
X126867750Y-93514419D01*
X126888574Y-93509203D01*
X126909809Y-93506053D01*
X126931250Y-93505000D01*
X127368750Y-93505000D01*
X127390191Y-93506053D01*
X127390191Y-93506053D01*
G37*
D21*
X127150000Y-93980000D03*
D10*
G36*
X128965191Y-93506053D02*
G01*
X128986426Y-93509203D01*
X129007250Y-93514419D01*
X129027462Y-93521651D01*
X129046868Y-93530830D01*
X129065281Y-93541866D01*
X129082524Y-93554654D01*
X129098430Y-93569070D01*
X129112846Y-93584976D01*
X129125634Y-93602219D01*
X129136670Y-93620632D01*
X129145849Y-93640038D01*
X129153081Y-93660250D01*
X129158297Y-93681074D01*
X129161447Y-93702309D01*
X129162500Y-93723750D01*
X129162500Y-94236250D01*
X129161447Y-94257691D01*
X129158297Y-94278926D01*
X129153081Y-94299750D01*
X129145849Y-94319962D01*
X129136670Y-94339368D01*
X129125634Y-94357781D01*
X129112846Y-94375024D01*
X129098430Y-94390930D01*
X129082524Y-94405346D01*
X129065281Y-94418134D01*
X129046868Y-94429170D01*
X129027462Y-94438349D01*
X129007250Y-94445581D01*
X128986426Y-94450797D01*
X128965191Y-94453947D01*
X128943750Y-94455000D01*
X128506250Y-94455000D01*
X128484809Y-94453947D01*
X128463574Y-94450797D01*
X128442750Y-94445581D01*
X128422538Y-94438349D01*
X128403132Y-94429170D01*
X128384719Y-94418134D01*
X128367476Y-94405346D01*
X128351570Y-94390930D01*
X128337154Y-94375024D01*
X128324366Y-94357781D01*
X128313330Y-94339368D01*
X128304151Y-94319962D01*
X128296919Y-94299750D01*
X128291703Y-94278926D01*
X128288553Y-94257691D01*
X128287500Y-94236250D01*
X128287500Y-93723750D01*
X128288553Y-93702309D01*
X128291703Y-93681074D01*
X128296919Y-93660250D01*
X128304151Y-93640038D01*
X128313330Y-93620632D01*
X128324366Y-93602219D01*
X128337154Y-93584976D01*
X128351570Y-93569070D01*
X128367476Y-93554654D01*
X128384719Y-93541866D01*
X128403132Y-93530830D01*
X128422538Y-93521651D01*
X128442750Y-93514419D01*
X128463574Y-93509203D01*
X128484809Y-93506053D01*
X128506250Y-93505000D01*
X128943750Y-93505000D01*
X128965191Y-93506053D01*
X128965191Y-93506053D01*
G37*
D21*
X128725000Y-93980000D03*
D10*
G36*
X151280691Y-93391053D02*
G01*
X151301926Y-93394203D01*
X151322750Y-93399419D01*
X151342962Y-93406651D01*
X151362368Y-93415830D01*
X151380781Y-93426866D01*
X151398024Y-93439654D01*
X151413930Y-93454070D01*
X151428346Y-93469976D01*
X151441134Y-93487219D01*
X151452170Y-93505632D01*
X151461349Y-93525038D01*
X151468581Y-93545250D01*
X151473797Y-93566074D01*
X151476947Y-93587309D01*
X151478000Y-93608750D01*
X151478000Y-94046250D01*
X151476947Y-94067691D01*
X151473797Y-94088926D01*
X151468581Y-94109750D01*
X151461349Y-94129962D01*
X151452170Y-94149368D01*
X151441134Y-94167781D01*
X151428346Y-94185024D01*
X151413930Y-94200930D01*
X151398024Y-94215346D01*
X151380781Y-94228134D01*
X151362368Y-94239170D01*
X151342962Y-94248349D01*
X151322750Y-94255581D01*
X151301926Y-94260797D01*
X151280691Y-94263947D01*
X151259250Y-94265000D01*
X150746750Y-94265000D01*
X150725309Y-94263947D01*
X150704074Y-94260797D01*
X150683250Y-94255581D01*
X150663038Y-94248349D01*
X150643632Y-94239170D01*
X150625219Y-94228134D01*
X150607976Y-94215346D01*
X150592070Y-94200930D01*
X150577654Y-94185024D01*
X150564866Y-94167781D01*
X150553830Y-94149368D01*
X150544651Y-94129962D01*
X150537419Y-94109750D01*
X150532203Y-94088926D01*
X150529053Y-94067691D01*
X150528000Y-94046250D01*
X150528000Y-93608750D01*
X150529053Y-93587309D01*
X150532203Y-93566074D01*
X150537419Y-93545250D01*
X150544651Y-93525038D01*
X150553830Y-93505632D01*
X150564866Y-93487219D01*
X150577654Y-93469976D01*
X150592070Y-93454070D01*
X150607976Y-93439654D01*
X150625219Y-93426866D01*
X150643632Y-93415830D01*
X150663038Y-93406651D01*
X150683250Y-93399419D01*
X150704074Y-93394203D01*
X150725309Y-93391053D01*
X150746750Y-93390000D01*
X151259250Y-93390000D01*
X151280691Y-93391053D01*
X151280691Y-93391053D01*
G37*
D21*
X151003000Y-93827500D03*
D10*
G36*
X151280691Y-94966053D02*
G01*
X151301926Y-94969203D01*
X151322750Y-94974419D01*
X151342962Y-94981651D01*
X151362368Y-94990830D01*
X151380781Y-95001866D01*
X151398024Y-95014654D01*
X151413930Y-95029070D01*
X151428346Y-95044976D01*
X151441134Y-95062219D01*
X151452170Y-95080632D01*
X151461349Y-95100038D01*
X151468581Y-95120250D01*
X151473797Y-95141074D01*
X151476947Y-95162309D01*
X151478000Y-95183750D01*
X151478000Y-95621250D01*
X151476947Y-95642691D01*
X151473797Y-95663926D01*
X151468581Y-95684750D01*
X151461349Y-95704962D01*
X151452170Y-95724368D01*
X151441134Y-95742781D01*
X151428346Y-95760024D01*
X151413930Y-95775930D01*
X151398024Y-95790346D01*
X151380781Y-95803134D01*
X151362368Y-95814170D01*
X151342962Y-95823349D01*
X151322750Y-95830581D01*
X151301926Y-95835797D01*
X151280691Y-95838947D01*
X151259250Y-95840000D01*
X150746750Y-95840000D01*
X150725309Y-95838947D01*
X150704074Y-95835797D01*
X150683250Y-95830581D01*
X150663038Y-95823349D01*
X150643632Y-95814170D01*
X150625219Y-95803134D01*
X150607976Y-95790346D01*
X150592070Y-95775930D01*
X150577654Y-95760024D01*
X150564866Y-95742781D01*
X150553830Y-95724368D01*
X150544651Y-95704962D01*
X150537419Y-95684750D01*
X150532203Y-95663926D01*
X150529053Y-95642691D01*
X150528000Y-95621250D01*
X150528000Y-95183750D01*
X150529053Y-95162309D01*
X150532203Y-95141074D01*
X150537419Y-95120250D01*
X150544651Y-95100038D01*
X150553830Y-95080632D01*
X150564866Y-95062219D01*
X150577654Y-95044976D01*
X150592070Y-95029070D01*
X150607976Y-95014654D01*
X150625219Y-95001866D01*
X150643632Y-94990830D01*
X150663038Y-94981651D01*
X150683250Y-94974419D01*
X150704074Y-94969203D01*
X150725309Y-94966053D01*
X150746750Y-94965000D01*
X151259250Y-94965000D01*
X151280691Y-94966053D01*
X151280691Y-94966053D01*
G37*
D21*
X151003000Y-95402500D03*
D10*
G36*
X152804691Y-94966053D02*
G01*
X152825926Y-94969203D01*
X152846750Y-94974419D01*
X152866962Y-94981651D01*
X152886368Y-94990830D01*
X152904781Y-95001866D01*
X152922024Y-95014654D01*
X152937930Y-95029070D01*
X152952346Y-95044976D01*
X152965134Y-95062219D01*
X152976170Y-95080632D01*
X152985349Y-95100038D01*
X152992581Y-95120250D01*
X152997797Y-95141074D01*
X153000947Y-95162309D01*
X153002000Y-95183750D01*
X153002000Y-95621250D01*
X153000947Y-95642691D01*
X152997797Y-95663926D01*
X152992581Y-95684750D01*
X152985349Y-95704962D01*
X152976170Y-95724368D01*
X152965134Y-95742781D01*
X152952346Y-95760024D01*
X152937930Y-95775930D01*
X152922024Y-95790346D01*
X152904781Y-95803134D01*
X152886368Y-95814170D01*
X152866962Y-95823349D01*
X152846750Y-95830581D01*
X152825926Y-95835797D01*
X152804691Y-95838947D01*
X152783250Y-95840000D01*
X152270750Y-95840000D01*
X152249309Y-95838947D01*
X152228074Y-95835797D01*
X152207250Y-95830581D01*
X152187038Y-95823349D01*
X152167632Y-95814170D01*
X152149219Y-95803134D01*
X152131976Y-95790346D01*
X152116070Y-95775930D01*
X152101654Y-95760024D01*
X152088866Y-95742781D01*
X152077830Y-95724368D01*
X152068651Y-95704962D01*
X152061419Y-95684750D01*
X152056203Y-95663926D01*
X152053053Y-95642691D01*
X152052000Y-95621250D01*
X152052000Y-95183750D01*
X152053053Y-95162309D01*
X152056203Y-95141074D01*
X152061419Y-95120250D01*
X152068651Y-95100038D01*
X152077830Y-95080632D01*
X152088866Y-95062219D01*
X152101654Y-95044976D01*
X152116070Y-95029070D01*
X152131976Y-95014654D01*
X152149219Y-95001866D01*
X152167632Y-94990830D01*
X152187038Y-94981651D01*
X152207250Y-94974419D01*
X152228074Y-94969203D01*
X152249309Y-94966053D01*
X152270750Y-94965000D01*
X152783250Y-94965000D01*
X152804691Y-94966053D01*
X152804691Y-94966053D01*
G37*
D21*
X152527000Y-95402500D03*
D10*
G36*
X152804691Y-93391053D02*
G01*
X152825926Y-93394203D01*
X152846750Y-93399419D01*
X152866962Y-93406651D01*
X152886368Y-93415830D01*
X152904781Y-93426866D01*
X152922024Y-93439654D01*
X152937930Y-93454070D01*
X152952346Y-93469976D01*
X152965134Y-93487219D01*
X152976170Y-93505632D01*
X152985349Y-93525038D01*
X152992581Y-93545250D01*
X152997797Y-93566074D01*
X153000947Y-93587309D01*
X153002000Y-93608750D01*
X153002000Y-94046250D01*
X153000947Y-94067691D01*
X152997797Y-94088926D01*
X152992581Y-94109750D01*
X152985349Y-94129962D01*
X152976170Y-94149368D01*
X152965134Y-94167781D01*
X152952346Y-94185024D01*
X152937930Y-94200930D01*
X152922024Y-94215346D01*
X152904781Y-94228134D01*
X152886368Y-94239170D01*
X152866962Y-94248349D01*
X152846750Y-94255581D01*
X152825926Y-94260797D01*
X152804691Y-94263947D01*
X152783250Y-94265000D01*
X152270750Y-94265000D01*
X152249309Y-94263947D01*
X152228074Y-94260797D01*
X152207250Y-94255581D01*
X152187038Y-94248349D01*
X152167632Y-94239170D01*
X152149219Y-94228134D01*
X152131976Y-94215346D01*
X152116070Y-94200930D01*
X152101654Y-94185024D01*
X152088866Y-94167781D01*
X152077830Y-94149368D01*
X152068651Y-94129962D01*
X152061419Y-94109750D01*
X152056203Y-94088926D01*
X152053053Y-94067691D01*
X152052000Y-94046250D01*
X152052000Y-93608750D01*
X152053053Y-93587309D01*
X152056203Y-93566074D01*
X152061419Y-93545250D01*
X152068651Y-93525038D01*
X152077830Y-93505632D01*
X152088866Y-93487219D01*
X152101654Y-93469976D01*
X152116070Y-93454070D01*
X152131976Y-93439654D01*
X152149219Y-93426866D01*
X152167632Y-93415830D01*
X152187038Y-93406651D01*
X152207250Y-93399419D01*
X152228074Y-93394203D01*
X152249309Y-93391053D01*
X152270750Y-93390000D01*
X152783250Y-93390000D01*
X152804691Y-93391053D01*
X152804691Y-93391053D01*
G37*
D21*
X152527000Y-93827500D03*
D10*
G36*
X133643191Y-96046053D02*
G01*
X133664426Y-96049203D01*
X133685250Y-96054419D01*
X133705462Y-96061651D01*
X133724868Y-96070830D01*
X133743281Y-96081866D01*
X133760524Y-96094654D01*
X133776430Y-96109070D01*
X133790846Y-96124976D01*
X133803634Y-96142219D01*
X133814670Y-96160632D01*
X133823849Y-96180038D01*
X133831081Y-96200250D01*
X133836297Y-96221074D01*
X133839447Y-96242309D01*
X133840500Y-96263750D01*
X133840500Y-96776250D01*
X133839447Y-96797691D01*
X133836297Y-96818926D01*
X133831081Y-96839750D01*
X133823849Y-96859962D01*
X133814670Y-96879368D01*
X133803634Y-96897781D01*
X133790846Y-96915024D01*
X133776430Y-96930930D01*
X133760524Y-96945346D01*
X133743281Y-96958134D01*
X133724868Y-96969170D01*
X133705462Y-96978349D01*
X133685250Y-96985581D01*
X133664426Y-96990797D01*
X133643191Y-96993947D01*
X133621750Y-96995000D01*
X133184250Y-96995000D01*
X133162809Y-96993947D01*
X133141574Y-96990797D01*
X133120750Y-96985581D01*
X133100538Y-96978349D01*
X133081132Y-96969170D01*
X133062719Y-96958134D01*
X133045476Y-96945346D01*
X133029570Y-96930930D01*
X133015154Y-96915024D01*
X133002366Y-96897781D01*
X132991330Y-96879368D01*
X132982151Y-96859962D01*
X132974919Y-96839750D01*
X132969703Y-96818926D01*
X132966553Y-96797691D01*
X132965500Y-96776250D01*
X132965500Y-96263750D01*
X132966553Y-96242309D01*
X132969703Y-96221074D01*
X132974919Y-96200250D01*
X132982151Y-96180038D01*
X132991330Y-96160632D01*
X133002366Y-96142219D01*
X133015154Y-96124976D01*
X133029570Y-96109070D01*
X133045476Y-96094654D01*
X133062719Y-96081866D01*
X133081132Y-96070830D01*
X133100538Y-96061651D01*
X133120750Y-96054419D01*
X133141574Y-96049203D01*
X133162809Y-96046053D01*
X133184250Y-96045000D01*
X133621750Y-96045000D01*
X133643191Y-96046053D01*
X133643191Y-96046053D01*
G37*
D21*
X133403000Y-96520000D03*
D10*
G36*
X135218191Y-96046053D02*
G01*
X135239426Y-96049203D01*
X135260250Y-96054419D01*
X135280462Y-96061651D01*
X135299868Y-96070830D01*
X135318281Y-96081866D01*
X135335524Y-96094654D01*
X135351430Y-96109070D01*
X135365846Y-96124976D01*
X135378634Y-96142219D01*
X135389670Y-96160632D01*
X135398849Y-96180038D01*
X135406081Y-96200250D01*
X135411297Y-96221074D01*
X135414447Y-96242309D01*
X135415500Y-96263750D01*
X135415500Y-96776250D01*
X135414447Y-96797691D01*
X135411297Y-96818926D01*
X135406081Y-96839750D01*
X135398849Y-96859962D01*
X135389670Y-96879368D01*
X135378634Y-96897781D01*
X135365846Y-96915024D01*
X135351430Y-96930930D01*
X135335524Y-96945346D01*
X135318281Y-96958134D01*
X135299868Y-96969170D01*
X135280462Y-96978349D01*
X135260250Y-96985581D01*
X135239426Y-96990797D01*
X135218191Y-96993947D01*
X135196750Y-96995000D01*
X134759250Y-96995000D01*
X134737809Y-96993947D01*
X134716574Y-96990797D01*
X134695750Y-96985581D01*
X134675538Y-96978349D01*
X134656132Y-96969170D01*
X134637719Y-96958134D01*
X134620476Y-96945346D01*
X134604570Y-96930930D01*
X134590154Y-96915024D01*
X134577366Y-96897781D01*
X134566330Y-96879368D01*
X134557151Y-96859962D01*
X134549919Y-96839750D01*
X134544703Y-96818926D01*
X134541553Y-96797691D01*
X134540500Y-96776250D01*
X134540500Y-96263750D01*
X134541553Y-96242309D01*
X134544703Y-96221074D01*
X134549919Y-96200250D01*
X134557151Y-96180038D01*
X134566330Y-96160632D01*
X134577366Y-96142219D01*
X134590154Y-96124976D01*
X134604570Y-96109070D01*
X134620476Y-96094654D01*
X134637719Y-96081866D01*
X134656132Y-96070830D01*
X134675538Y-96061651D01*
X134695750Y-96054419D01*
X134716574Y-96049203D01*
X134737809Y-96046053D01*
X134759250Y-96045000D01*
X135196750Y-96045000D01*
X135218191Y-96046053D01*
X135218191Y-96046053D01*
G37*
D21*
X134978000Y-96520000D03*
D10*
G36*
X127420191Y-96046053D02*
G01*
X127441426Y-96049203D01*
X127462250Y-96054419D01*
X127482462Y-96061651D01*
X127501868Y-96070830D01*
X127520281Y-96081866D01*
X127537524Y-96094654D01*
X127553430Y-96109070D01*
X127567846Y-96124976D01*
X127580634Y-96142219D01*
X127591670Y-96160632D01*
X127600849Y-96180038D01*
X127608081Y-96200250D01*
X127613297Y-96221074D01*
X127616447Y-96242309D01*
X127617500Y-96263750D01*
X127617500Y-96776250D01*
X127616447Y-96797691D01*
X127613297Y-96818926D01*
X127608081Y-96839750D01*
X127600849Y-96859962D01*
X127591670Y-96879368D01*
X127580634Y-96897781D01*
X127567846Y-96915024D01*
X127553430Y-96930930D01*
X127537524Y-96945346D01*
X127520281Y-96958134D01*
X127501868Y-96969170D01*
X127482462Y-96978349D01*
X127462250Y-96985581D01*
X127441426Y-96990797D01*
X127420191Y-96993947D01*
X127398750Y-96995000D01*
X126961250Y-96995000D01*
X126939809Y-96993947D01*
X126918574Y-96990797D01*
X126897750Y-96985581D01*
X126877538Y-96978349D01*
X126858132Y-96969170D01*
X126839719Y-96958134D01*
X126822476Y-96945346D01*
X126806570Y-96930930D01*
X126792154Y-96915024D01*
X126779366Y-96897781D01*
X126768330Y-96879368D01*
X126759151Y-96859962D01*
X126751919Y-96839750D01*
X126746703Y-96818926D01*
X126743553Y-96797691D01*
X126742500Y-96776250D01*
X126742500Y-96263750D01*
X126743553Y-96242309D01*
X126746703Y-96221074D01*
X126751919Y-96200250D01*
X126759151Y-96180038D01*
X126768330Y-96160632D01*
X126779366Y-96142219D01*
X126792154Y-96124976D01*
X126806570Y-96109070D01*
X126822476Y-96094654D01*
X126839719Y-96081866D01*
X126858132Y-96070830D01*
X126877538Y-96061651D01*
X126897750Y-96054419D01*
X126918574Y-96049203D01*
X126939809Y-96046053D01*
X126961250Y-96045000D01*
X127398750Y-96045000D01*
X127420191Y-96046053D01*
X127420191Y-96046053D01*
G37*
D21*
X127180000Y-96520000D03*
D10*
G36*
X128995191Y-96046053D02*
G01*
X129016426Y-96049203D01*
X129037250Y-96054419D01*
X129057462Y-96061651D01*
X129076868Y-96070830D01*
X129095281Y-96081866D01*
X129112524Y-96094654D01*
X129128430Y-96109070D01*
X129142846Y-96124976D01*
X129155634Y-96142219D01*
X129166670Y-96160632D01*
X129175849Y-96180038D01*
X129183081Y-96200250D01*
X129188297Y-96221074D01*
X129191447Y-96242309D01*
X129192500Y-96263750D01*
X129192500Y-96776250D01*
X129191447Y-96797691D01*
X129188297Y-96818926D01*
X129183081Y-96839750D01*
X129175849Y-96859962D01*
X129166670Y-96879368D01*
X129155634Y-96897781D01*
X129142846Y-96915024D01*
X129128430Y-96930930D01*
X129112524Y-96945346D01*
X129095281Y-96958134D01*
X129076868Y-96969170D01*
X129057462Y-96978349D01*
X129037250Y-96985581D01*
X129016426Y-96990797D01*
X128995191Y-96993947D01*
X128973750Y-96995000D01*
X128536250Y-96995000D01*
X128514809Y-96993947D01*
X128493574Y-96990797D01*
X128472750Y-96985581D01*
X128452538Y-96978349D01*
X128433132Y-96969170D01*
X128414719Y-96958134D01*
X128397476Y-96945346D01*
X128381570Y-96930930D01*
X128367154Y-96915024D01*
X128354366Y-96897781D01*
X128343330Y-96879368D01*
X128334151Y-96859962D01*
X128326919Y-96839750D01*
X128321703Y-96818926D01*
X128318553Y-96797691D01*
X128317500Y-96776250D01*
X128317500Y-96263750D01*
X128318553Y-96242309D01*
X128321703Y-96221074D01*
X128326919Y-96200250D01*
X128334151Y-96180038D01*
X128343330Y-96160632D01*
X128354366Y-96142219D01*
X128367154Y-96124976D01*
X128381570Y-96109070D01*
X128397476Y-96094654D01*
X128414719Y-96081866D01*
X128433132Y-96070830D01*
X128452538Y-96061651D01*
X128472750Y-96054419D01*
X128493574Y-96049203D01*
X128514809Y-96046053D01*
X128536250Y-96045000D01*
X128973750Y-96045000D01*
X128995191Y-96046053D01*
X128995191Y-96046053D01*
G37*
D21*
X128755000Y-96520000D03*
D10*
G36*
X151280691Y-99411053D02*
G01*
X151301926Y-99414203D01*
X151322750Y-99419419D01*
X151342962Y-99426651D01*
X151362368Y-99435830D01*
X151380781Y-99446866D01*
X151398024Y-99459654D01*
X151413930Y-99474070D01*
X151428346Y-99489976D01*
X151441134Y-99507219D01*
X151452170Y-99525632D01*
X151461349Y-99545038D01*
X151468581Y-99565250D01*
X151473797Y-99586074D01*
X151476947Y-99607309D01*
X151478000Y-99628750D01*
X151478000Y-100066250D01*
X151476947Y-100087691D01*
X151473797Y-100108926D01*
X151468581Y-100129750D01*
X151461349Y-100149962D01*
X151452170Y-100169368D01*
X151441134Y-100187781D01*
X151428346Y-100205024D01*
X151413930Y-100220930D01*
X151398024Y-100235346D01*
X151380781Y-100248134D01*
X151362368Y-100259170D01*
X151342962Y-100268349D01*
X151322750Y-100275581D01*
X151301926Y-100280797D01*
X151280691Y-100283947D01*
X151259250Y-100285000D01*
X150746750Y-100285000D01*
X150725309Y-100283947D01*
X150704074Y-100280797D01*
X150683250Y-100275581D01*
X150663038Y-100268349D01*
X150643632Y-100259170D01*
X150625219Y-100248134D01*
X150607976Y-100235346D01*
X150592070Y-100220930D01*
X150577654Y-100205024D01*
X150564866Y-100187781D01*
X150553830Y-100169368D01*
X150544651Y-100149962D01*
X150537419Y-100129750D01*
X150532203Y-100108926D01*
X150529053Y-100087691D01*
X150528000Y-100066250D01*
X150528000Y-99628750D01*
X150529053Y-99607309D01*
X150532203Y-99586074D01*
X150537419Y-99565250D01*
X150544651Y-99545038D01*
X150553830Y-99525632D01*
X150564866Y-99507219D01*
X150577654Y-99489976D01*
X150592070Y-99474070D01*
X150607976Y-99459654D01*
X150625219Y-99446866D01*
X150643632Y-99435830D01*
X150663038Y-99426651D01*
X150683250Y-99419419D01*
X150704074Y-99414203D01*
X150725309Y-99411053D01*
X150746750Y-99410000D01*
X151259250Y-99410000D01*
X151280691Y-99411053D01*
X151280691Y-99411053D01*
G37*
D21*
X151003000Y-99847500D03*
D10*
G36*
X151280691Y-97836053D02*
G01*
X151301926Y-97839203D01*
X151322750Y-97844419D01*
X151342962Y-97851651D01*
X151362368Y-97860830D01*
X151380781Y-97871866D01*
X151398024Y-97884654D01*
X151413930Y-97899070D01*
X151428346Y-97914976D01*
X151441134Y-97932219D01*
X151452170Y-97950632D01*
X151461349Y-97970038D01*
X151468581Y-97990250D01*
X151473797Y-98011074D01*
X151476947Y-98032309D01*
X151478000Y-98053750D01*
X151478000Y-98491250D01*
X151476947Y-98512691D01*
X151473797Y-98533926D01*
X151468581Y-98554750D01*
X151461349Y-98574962D01*
X151452170Y-98594368D01*
X151441134Y-98612781D01*
X151428346Y-98630024D01*
X151413930Y-98645930D01*
X151398024Y-98660346D01*
X151380781Y-98673134D01*
X151362368Y-98684170D01*
X151342962Y-98693349D01*
X151322750Y-98700581D01*
X151301926Y-98705797D01*
X151280691Y-98708947D01*
X151259250Y-98710000D01*
X150746750Y-98710000D01*
X150725309Y-98708947D01*
X150704074Y-98705797D01*
X150683250Y-98700581D01*
X150663038Y-98693349D01*
X150643632Y-98684170D01*
X150625219Y-98673134D01*
X150607976Y-98660346D01*
X150592070Y-98645930D01*
X150577654Y-98630024D01*
X150564866Y-98612781D01*
X150553830Y-98594368D01*
X150544651Y-98574962D01*
X150537419Y-98554750D01*
X150532203Y-98533926D01*
X150529053Y-98512691D01*
X150528000Y-98491250D01*
X150528000Y-98053750D01*
X150529053Y-98032309D01*
X150532203Y-98011074D01*
X150537419Y-97990250D01*
X150544651Y-97970038D01*
X150553830Y-97950632D01*
X150564866Y-97932219D01*
X150577654Y-97914976D01*
X150592070Y-97899070D01*
X150607976Y-97884654D01*
X150625219Y-97871866D01*
X150643632Y-97860830D01*
X150663038Y-97851651D01*
X150683250Y-97844419D01*
X150704074Y-97839203D01*
X150725309Y-97836053D01*
X150746750Y-97835000D01*
X151259250Y-97835000D01*
X151280691Y-97836053D01*
X151280691Y-97836053D01*
G37*
D21*
X151003000Y-98272500D03*
D10*
G36*
X152804691Y-97836053D02*
G01*
X152825926Y-97839203D01*
X152846750Y-97844419D01*
X152866962Y-97851651D01*
X152886368Y-97860830D01*
X152904781Y-97871866D01*
X152922024Y-97884654D01*
X152937930Y-97899070D01*
X152952346Y-97914976D01*
X152965134Y-97932219D01*
X152976170Y-97950632D01*
X152985349Y-97970038D01*
X152992581Y-97990250D01*
X152997797Y-98011074D01*
X153000947Y-98032309D01*
X153002000Y-98053750D01*
X153002000Y-98491250D01*
X153000947Y-98512691D01*
X152997797Y-98533926D01*
X152992581Y-98554750D01*
X152985349Y-98574962D01*
X152976170Y-98594368D01*
X152965134Y-98612781D01*
X152952346Y-98630024D01*
X152937930Y-98645930D01*
X152922024Y-98660346D01*
X152904781Y-98673134D01*
X152886368Y-98684170D01*
X152866962Y-98693349D01*
X152846750Y-98700581D01*
X152825926Y-98705797D01*
X152804691Y-98708947D01*
X152783250Y-98710000D01*
X152270750Y-98710000D01*
X152249309Y-98708947D01*
X152228074Y-98705797D01*
X152207250Y-98700581D01*
X152187038Y-98693349D01*
X152167632Y-98684170D01*
X152149219Y-98673134D01*
X152131976Y-98660346D01*
X152116070Y-98645930D01*
X152101654Y-98630024D01*
X152088866Y-98612781D01*
X152077830Y-98594368D01*
X152068651Y-98574962D01*
X152061419Y-98554750D01*
X152056203Y-98533926D01*
X152053053Y-98512691D01*
X152052000Y-98491250D01*
X152052000Y-98053750D01*
X152053053Y-98032309D01*
X152056203Y-98011074D01*
X152061419Y-97990250D01*
X152068651Y-97970038D01*
X152077830Y-97950632D01*
X152088866Y-97932219D01*
X152101654Y-97914976D01*
X152116070Y-97899070D01*
X152131976Y-97884654D01*
X152149219Y-97871866D01*
X152167632Y-97860830D01*
X152187038Y-97851651D01*
X152207250Y-97844419D01*
X152228074Y-97839203D01*
X152249309Y-97836053D01*
X152270750Y-97835000D01*
X152783250Y-97835000D01*
X152804691Y-97836053D01*
X152804691Y-97836053D01*
G37*
D21*
X152527000Y-98272500D03*
D10*
G36*
X152804691Y-99411053D02*
G01*
X152825926Y-99414203D01*
X152846750Y-99419419D01*
X152866962Y-99426651D01*
X152886368Y-99435830D01*
X152904781Y-99446866D01*
X152922024Y-99459654D01*
X152937930Y-99474070D01*
X152952346Y-99489976D01*
X152965134Y-99507219D01*
X152976170Y-99525632D01*
X152985349Y-99545038D01*
X152992581Y-99565250D01*
X152997797Y-99586074D01*
X153000947Y-99607309D01*
X153002000Y-99628750D01*
X153002000Y-100066250D01*
X153000947Y-100087691D01*
X152997797Y-100108926D01*
X152992581Y-100129750D01*
X152985349Y-100149962D01*
X152976170Y-100169368D01*
X152965134Y-100187781D01*
X152952346Y-100205024D01*
X152937930Y-100220930D01*
X152922024Y-100235346D01*
X152904781Y-100248134D01*
X152886368Y-100259170D01*
X152866962Y-100268349D01*
X152846750Y-100275581D01*
X152825926Y-100280797D01*
X152804691Y-100283947D01*
X152783250Y-100285000D01*
X152270750Y-100285000D01*
X152249309Y-100283947D01*
X152228074Y-100280797D01*
X152207250Y-100275581D01*
X152187038Y-100268349D01*
X152167632Y-100259170D01*
X152149219Y-100248134D01*
X152131976Y-100235346D01*
X152116070Y-100220930D01*
X152101654Y-100205024D01*
X152088866Y-100187781D01*
X152077830Y-100169368D01*
X152068651Y-100149962D01*
X152061419Y-100129750D01*
X152056203Y-100108926D01*
X152053053Y-100087691D01*
X152052000Y-100066250D01*
X152052000Y-99628750D01*
X152053053Y-99607309D01*
X152056203Y-99586074D01*
X152061419Y-99565250D01*
X152068651Y-99545038D01*
X152077830Y-99525632D01*
X152088866Y-99507219D01*
X152101654Y-99489976D01*
X152116070Y-99474070D01*
X152131976Y-99459654D01*
X152149219Y-99446866D01*
X152167632Y-99435830D01*
X152187038Y-99426651D01*
X152207250Y-99419419D01*
X152228074Y-99414203D01*
X152249309Y-99411053D01*
X152270750Y-99410000D01*
X152783250Y-99410000D01*
X152804691Y-99411053D01*
X152804691Y-99411053D01*
G37*
D21*
X152527000Y-99847500D03*
D10*
G36*
X133613191Y-98586053D02*
G01*
X133634426Y-98589203D01*
X133655250Y-98594419D01*
X133675462Y-98601651D01*
X133694868Y-98610830D01*
X133713281Y-98621866D01*
X133730524Y-98634654D01*
X133746430Y-98649070D01*
X133760846Y-98664976D01*
X133773634Y-98682219D01*
X133784670Y-98700632D01*
X133793849Y-98720038D01*
X133801081Y-98740250D01*
X133806297Y-98761074D01*
X133809447Y-98782309D01*
X133810500Y-98803750D01*
X133810500Y-99316250D01*
X133809447Y-99337691D01*
X133806297Y-99358926D01*
X133801081Y-99379750D01*
X133793849Y-99399962D01*
X133784670Y-99419368D01*
X133773634Y-99437781D01*
X133760846Y-99455024D01*
X133746430Y-99470930D01*
X133730524Y-99485346D01*
X133713281Y-99498134D01*
X133694868Y-99509170D01*
X133675462Y-99518349D01*
X133655250Y-99525581D01*
X133634426Y-99530797D01*
X133613191Y-99533947D01*
X133591750Y-99535000D01*
X133154250Y-99535000D01*
X133132809Y-99533947D01*
X133111574Y-99530797D01*
X133090750Y-99525581D01*
X133070538Y-99518349D01*
X133051132Y-99509170D01*
X133032719Y-99498134D01*
X133015476Y-99485346D01*
X132999570Y-99470930D01*
X132985154Y-99455024D01*
X132972366Y-99437781D01*
X132961330Y-99419368D01*
X132952151Y-99399962D01*
X132944919Y-99379750D01*
X132939703Y-99358926D01*
X132936553Y-99337691D01*
X132935500Y-99316250D01*
X132935500Y-98803750D01*
X132936553Y-98782309D01*
X132939703Y-98761074D01*
X132944919Y-98740250D01*
X132952151Y-98720038D01*
X132961330Y-98700632D01*
X132972366Y-98682219D01*
X132985154Y-98664976D01*
X132999570Y-98649070D01*
X133015476Y-98634654D01*
X133032719Y-98621866D01*
X133051132Y-98610830D01*
X133070538Y-98601651D01*
X133090750Y-98594419D01*
X133111574Y-98589203D01*
X133132809Y-98586053D01*
X133154250Y-98585000D01*
X133591750Y-98585000D01*
X133613191Y-98586053D01*
X133613191Y-98586053D01*
G37*
D21*
X133373000Y-99060000D03*
D10*
G36*
X135188191Y-98586053D02*
G01*
X135209426Y-98589203D01*
X135230250Y-98594419D01*
X135250462Y-98601651D01*
X135269868Y-98610830D01*
X135288281Y-98621866D01*
X135305524Y-98634654D01*
X135321430Y-98649070D01*
X135335846Y-98664976D01*
X135348634Y-98682219D01*
X135359670Y-98700632D01*
X135368849Y-98720038D01*
X135376081Y-98740250D01*
X135381297Y-98761074D01*
X135384447Y-98782309D01*
X135385500Y-98803750D01*
X135385500Y-99316250D01*
X135384447Y-99337691D01*
X135381297Y-99358926D01*
X135376081Y-99379750D01*
X135368849Y-99399962D01*
X135359670Y-99419368D01*
X135348634Y-99437781D01*
X135335846Y-99455024D01*
X135321430Y-99470930D01*
X135305524Y-99485346D01*
X135288281Y-99498134D01*
X135269868Y-99509170D01*
X135250462Y-99518349D01*
X135230250Y-99525581D01*
X135209426Y-99530797D01*
X135188191Y-99533947D01*
X135166750Y-99535000D01*
X134729250Y-99535000D01*
X134707809Y-99533947D01*
X134686574Y-99530797D01*
X134665750Y-99525581D01*
X134645538Y-99518349D01*
X134626132Y-99509170D01*
X134607719Y-99498134D01*
X134590476Y-99485346D01*
X134574570Y-99470930D01*
X134560154Y-99455024D01*
X134547366Y-99437781D01*
X134536330Y-99419368D01*
X134527151Y-99399962D01*
X134519919Y-99379750D01*
X134514703Y-99358926D01*
X134511553Y-99337691D01*
X134510500Y-99316250D01*
X134510500Y-98803750D01*
X134511553Y-98782309D01*
X134514703Y-98761074D01*
X134519919Y-98740250D01*
X134527151Y-98720038D01*
X134536330Y-98700632D01*
X134547366Y-98682219D01*
X134560154Y-98664976D01*
X134574570Y-98649070D01*
X134590476Y-98634654D01*
X134607719Y-98621866D01*
X134626132Y-98610830D01*
X134645538Y-98601651D01*
X134665750Y-98594419D01*
X134686574Y-98589203D01*
X134707809Y-98586053D01*
X134729250Y-98585000D01*
X135166750Y-98585000D01*
X135188191Y-98586053D01*
X135188191Y-98586053D01*
G37*
D21*
X134948000Y-99060000D03*
D10*
G36*
X127420191Y-98586053D02*
G01*
X127441426Y-98589203D01*
X127462250Y-98594419D01*
X127482462Y-98601651D01*
X127501868Y-98610830D01*
X127520281Y-98621866D01*
X127537524Y-98634654D01*
X127553430Y-98649070D01*
X127567846Y-98664976D01*
X127580634Y-98682219D01*
X127591670Y-98700632D01*
X127600849Y-98720038D01*
X127608081Y-98740250D01*
X127613297Y-98761074D01*
X127616447Y-98782309D01*
X127617500Y-98803750D01*
X127617500Y-99316250D01*
X127616447Y-99337691D01*
X127613297Y-99358926D01*
X127608081Y-99379750D01*
X127600849Y-99399962D01*
X127591670Y-99419368D01*
X127580634Y-99437781D01*
X127567846Y-99455024D01*
X127553430Y-99470930D01*
X127537524Y-99485346D01*
X127520281Y-99498134D01*
X127501868Y-99509170D01*
X127482462Y-99518349D01*
X127462250Y-99525581D01*
X127441426Y-99530797D01*
X127420191Y-99533947D01*
X127398750Y-99535000D01*
X126961250Y-99535000D01*
X126939809Y-99533947D01*
X126918574Y-99530797D01*
X126897750Y-99525581D01*
X126877538Y-99518349D01*
X126858132Y-99509170D01*
X126839719Y-99498134D01*
X126822476Y-99485346D01*
X126806570Y-99470930D01*
X126792154Y-99455024D01*
X126779366Y-99437781D01*
X126768330Y-99419368D01*
X126759151Y-99399962D01*
X126751919Y-99379750D01*
X126746703Y-99358926D01*
X126743553Y-99337691D01*
X126742500Y-99316250D01*
X126742500Y-98803750D01*
X126743553Y-98782309D01*
X126746703Y-98761074D01*
X126751919Y-98740250D01*
X126759151Y-98720038D01*
X126768330Y-98700632D01*
X126779366Y-98682219D01*
X126792154Y-98664976D01*
X126806570Y-98649070D01*
X126822476Y-98634654D01*
X126839719Y-98621866D01*
X126858132Y-98610830D01*
X126877538Y-98601651D01*
X126897750Y-98594419D01*
X126918574Y-98589203D01*
X126939809Y-98586053D01*
X126961250Y-98585000D01*
X127398750Y-98585000D01*
X127420191Y-98586053D01*
X127420191Y-98586053D01*
G37*
D21*
X127180000Y-99060000D03*
D10*
G36*
X128995191Y-98586053D02*
G01*
X129016426Y-98589203D01*
X129037250Y-98594419D01*
X129057462Y-98601651D01*
X129076868Y-98610830D01*
X129095281Y-98621866D01*
X129112524Y-98634654D01*
X129128430Y-98649070D01*
X129142846Y-98664976D01*
X129155634Y-98682219D01*
X129166670Y-98700632D01*
X129175849Y-98720038D01*
X129183081Y-98740250D01*
X129188297Y-98761074D01*
X129191447Y-98782309D01*
X129192500Y-98803750D01*
X129192500Y-99316250D01*
X129191447Y-99337691D01*
X129188297Y-99358926D01*
X129183081Y-99379750D01*
X129175849Y-99399962D01*
X129166670Y-99419368D01*
X129155634Y-99437781D01*
X129142846Y-99455024D01*
X129128430Y-99470930D01*
X129112524Y-99485346D01*
X129095281Y-99498134D01*
X129076868Y-99509170D01*
X129057462Y-99518349D01*
X129037250Y-99525581D01*
X129016426Y-99530797D01*
X128995191Y-99533947D01*
X128973750Y-99535000D01*
X128536250Y-99535000D01*
X128514809Y-99533947D01*
X128493574Y-99530797D01*
X128472750Y-99525581D01*
X128452538Y-99518349D01*
X128433132Y-99509170D01*
X128414719Y-99498134D01*
X128397476Y-99485346D01*
X128381570Y-99470930D01*
X128367154Y-99455024D01*
X128354366Y-99437781D01*
X128343330Y-99419368D01*
X128334151Y-99399962D01*
X128326919Y-99379750D01*
X128321703Y-99358926D01*
X128318553Y-99337691D01*
X128317500Y-99316250D01*
X128317500Y-98803750D01*
X128318553Y-98782309D01*
X128321703Y-98761074D01*
X128326919Y-98740250D01*
X128334151Y-98720038D01*
X128343330Y-98700632D01*
X128354366Y-98682219D01*
X128367154Y-98664976D01*
X128381570Y-98649070D01*
X128397476Y-98634654D01*
X128414719Y-98621866D01*
X128433132Y-98610830D01*
X128452538Y-98601651D01*
X128472750Y-98594419D01*
X128493574Y-98589203D01*
X128514809Y-98586053D01*
X128536250Y-98585000D01*
X128973750Y-98585000D01*
X128995191Y-98586053D01*
X128995191Y-98586053D01*
G37*
D21*
X128755000Y-99060000D03*
D10*
G36*
X151280691Y-103856053D02*
G01*
X151301926Y-103859203D01*
X151322750Y-103864419D01*
X151342962Y-103871651D01*
X151362368Y-103880830D01*
X151380781Y-103891866D01*
X151398024Y-103904654D01*
X151413930Y-103919070D01*
X151428346Y-103934976D01*
X151441134Y-103952219D01*
X151452170Y-103970632D01*
X151461349Y-103990038D01*
X151468581Y-104010250D01*
X151473797Y-104031074D01*
X151476947Y-104052309D01*
X151478000Y-104073750D01*
X151478000Y-104511250D01*
X151476947Y-104532691D01*
X151473797Y-104553926D01*
X151468581Y-104574750D01*
X151461349Y-104594962D01*
X151452170Y-104614368D01*
X151441134Y-104632781D01*
X151428346Y-104650024D01*
X151413930Y-104665930D01*
X151398024Y-104680346D01*
X151380781Y-104693134D01*
X151362368Y-104704170D01*
X151342962Y-104713349D01*
X151322750Y-104720581D01*
X151301926Y-104725797D01*
X151280691Y-104728947D01*
X151259250Y-104730000D01*
X150746750Y-104730000D01*
X150725309Y-104728947D01*
X150704074Y-104725797D01*
X150683250Y-104720581D01*
X150663038Y-104713349D01*
X150643632Y-104704170D01*
X150625219Y-104693134D01*
X150607976Y-104680346D01*
X150592070Y-104665930D01*
X150577654Y-104650024D01*
X150564866Y-104632781D01*
X150553830Y-104614368D01*
X150544651Y-104594962D01*
X150537419Y-104574750D01*
X150532203Y-104553926D01*
X150529053Y-104532691D01*
X150528000Y-104511250D01*
X150528000Y-104073750D01*
X150529053Y-104052309D01*
X150532203Y-104031074D01*
X150537419Y-104010250D01*
X150544651Y-103990038D01*
X150553830Y-103970632D01*
X150564866Y-103952219D01*
X150577654Y-103934976D01*
X150592070Y-103919070D01*
X150607976Y-103904654D01*
X150625219Y-103891866D01*
X150643632Y-103880830D01*
X150663038Y-103871651D01*
X150683250Y-103864419D01*
X150704074Y-103859203D01*
X150725309Y-103856053D01*
X150746750Y-103855000D01*
X151259250Y-103855000D01*
X151280691Y-103856053D01*
X151280691Y-103856053D01*
G37*
D21*
X151003000Y-104292500D03*
D10*
G36*
X151280691Y-102281053D02*
G01*
X151301926Y-102284203D01*
X151322750Y-102289419D01*
X151342962Y-102296651D01*
X151362368Y-102305830D01*
X151380781Y-102316866D01*
X151398024Y-102329654D01*
X151413930Y-102344070D01*
X151428346Y-102359976D01*
X151441134Y-102377219D01*
X151452170Y-102395632D01*
X151461349Y-102415038D01*
X151468581Y-102435250D01*
X151473797Y-102456074D01*
X151476947Y-102477309D01*
X151478000Y-102498750D01*
X151478000Y-102936250D01*
X151476947Y-102957691D01*
X151473797Y-102978926D01*
X151468581Y-102999750D01*
X151461349Y-103019962D01*
X151452170Y-103039368D01*
X151441134Y-103057781D01*
X151428346Y-103075024D01*
X151413930Y-103090930D01*
X151398024Y-103105346D01*
X151380781Y-103118134D01*
X151362368Y-103129170D01*
X151342962Y-103138349D01*
X151322750Y-103145581D01*
X151301926Y-103150797D01*
X151280691Y-103153947D01*
X151259250Y-103155000D01*
X150746750Y-103155000D01*
X150725309Y-103153947D01*
X150704074Y-103150797D01*
X150683250Y-103145581D01*
X150663038Y-103138349D01*
X150643632Y-103129170D01*
X150625219Y-103118134D01*
X150607976Y-103105346D01*
X150592070Y-103090930D01*
X150577654Y-103075024D01*
X150564866Y-103057781D01*
X150553830Y-103039368D01*
X150544651Y-103019962D01*
X150537419Y-102999750D01*
X150532203Y-102978926D01*
X150529053Y-102957691D01*
X150528000Y-102936250D01*
X150528000Y-102498750D01*
X150529053Y-102477309D01*
X150532203Y-102456074D01*
X150537419Y-102435250D01*
X150544651Y-102415038D01*
X150553830Y-102395632D01*
X150564866Y-102377219D01*
X150577654Y-102359976D01*
X150592070Y-102344070D01*
X150607976Y-102329654D01*
X150625219Y-102316866D01*
X150643632Y-102305830D01*
X150663038Y-102296651D01*
X150683250Y-102289419D01*
X150704074Y-102284203D01*
X150725309Y-102281053D01*
X150746750Y-102280000D01*
X151259250Y-102280000D01*
X151280691Y-102281053D01*
X151280691Y-102281053D01*
G37*
D21*
X151003000Y-102717500D03*
D10*
G36*
X152804691Y-102281053D02*
G01*
X152825926Y-102284203D01*
X152846750Y-102289419D01*
X152866962Y-102296651D01*
X152886368Y-102305830D01*
X152904781Y-102316866D01*
X152922024Y-102329654D01*
X152937930Y-102344070D01*
X152952346Y-102359976D01*
X152965134Y-102377219D01*
X152976170Y-102395632D01*
X152985349Y-102415038D01*
X152992581Y-102435250D01*
X152997797Y-102456074D01*
X153000947Y-102477309D01*
X153002000Y-102498750D01*
X153002000Y-102936250D01*
X153000947Y-102957691D01*
X152997797Y-102978926D01*
X152992581Y-102999750D01*
X152985349Y-103019962D01*
X152976170Y-103039368D01*
X152965134Y-103057781D01*
X152952346Y-103075024D01*
X152937930Y-103090930D01*
X152922024Y-103105346D01*
X152904781Y-103118134D01*
X152886368Y-103129170D01*
X152866962Y-103138349D01*
X152846750Y-103145581D01*
X152825926Y-103150797D01*
X152804691Y-103153947D01*
X152783250Y-103155000D01*
X152270750Y-103155000D01*
X152249309Y-103153947D01*
X152228074Y-103150797D01*
X152207250Y-103145581D01*
X152187038Y-103138349D01*
X152167632Y-103129170D01*
X152149219Y-103118134D01*
X152131976Y-103105346D01*
X152116070Y-103090930D01*
X152101654Y-103075024D01*
X152088866Y-103057781D01*
X152077830Y-103039368D01*
X152068651Y-103019962D01*
X152061419Y-102999750D01*
X152056203Y-102978926D01*
X152053053Y-102957691D01*
X152052000Y-102936250D01*
X152052000Y-102498750D01*
X152053053Y-102477309D01*
X152056203Y-102456074D01*
X152061419Y-102435250D01*
X152068651Y-102415038D01*
X152077830Y-102395632D01*
X152088866Y-102377219D01*
X152101654Y-102359976D01*
X152116070Y-102344070D01*
X152131976Y-102329654D01*
X152149219Y-102316866D01*
X152167632Y-102305830D01*
X152187038Y-102296651D01*
X152207250Y-102289419D01*
X152228074Y-102284203D01*
X152249309Y-102281053D01*
X152270750Y-102280000D01*
X152783250Y-102280000D01*
X152804691Y-102281053D01*
X152804691Y-102281053D01*
G37*
D21*
X152527000Y-102717500D03*
D10*
G36*
X152804691Y-103856053D02*
G01*
X152825926Y-103859203D01*
X152846750Y-103864419D01*
X152866962Y-103871651D01*
X152886368Y-103880830D01*
X152904781Y-103891866D01*
X152922024Y-103904654D01*
X152937930Y-103919070D01*
X152952346Y-103934976D01*
X152965134Y-103952219D01*
X152976170Y-103970632D01*
X152985349Y-103990038D01*
X152992581Y-104010250D01*
X152997797Y-104031074D01*
X153000947Y-104052309D01*
X153002000Y-104073750D01*
X153002000Y-104511250D01*
X153000947Y-104532691D01*
X152997797Y-104553926D01*
X152992581Y-104574750D01*
X152985349Y-104594962D01*
X152976170Y-104614368D01*
X152965134Y-104632781D01*
X152952346Y-104650024D01*
X152937930Y-104665930D01*
X152922024Y-104680346D01*
X152904781Y-104693134D01*
X152886368Y-104704170D01*
X152866962Y-104713349D01*
X152846750Y-104720581D01*
X152825926Y-104725797D01*
X152804691Y-104728947D01*
X152783250Y-104730000D01*
X152270750Y-104730000D01*
X152249309Y-104728947D01*
X152228074Y-104725797D01*
X152207250Y-104720581D01*
X152187038Y-104713349D01*
X152167632Y-104704170D01*
X152149219Y-104693134D01*
X152131976Y-104680346D01*
X152116070Y-104665930D01*
X152101654Y-104650024D01*
X152088866Y-104632781D01*
X152077830Y-104614368D01*
X152068651Y-104594962D01*
X152061419Y-104574750D01*
X152056203Y-104553926D01*
X152053053Y-104532691D01*
X152052000Y-104511250D01*
X152052000Y-104073750D01*
X152053053Y-104052309D01*
X152056203Y-104031074D01*
X152061419Y-104010250D01*
X152068651Y-103990038D01*
X152077830Y-103970632D01*
X152088866Y-103952219D01*
X152101654Y-103934976D01*
X152116070Y-103919070D01*
X152131976Y-103904654D01*
X152149219Y-103891866D01*
X152167632Y-103880830D01*
X152187038Y-103871651D01*
X152207250Y-103864419D01*
X152228074Y-103859203D01*
X152249309Y-103856053D01*
X152270750Y-103855000D01*
X152783250Y-103855000D01*
X152804691Y-103856053D01*
X152804691Y-103856053D01*
G37*
D21*
X152527000Y-104292500D03*
D16*
X133350000Y-86995000D03*
X134620000Y-86995000D03*
X135890000Y-86995000D03*
X137160000Y-86995000D03*
X138430000Y-86995000D03*
X139700000Y-86995000D03*
X140970000Y-86995000D03*
X142240000Y-86995000D03*
X143510000Y-86995000D03*
X144780000Y-86995000D03*
X146050000Y-86995000D03*
X147320000Y-86995000D03*
X148590000Y-86995000D03*
X149860000Y-86995000D03*
X151130000Y-86995000D03*
X152400000Y-86995000D03*
X125730000Y-86995000D03*
X128270000Y-86995000D03*
X129540000Y-86995000D03*
X130810000Y-86995000D03*
X132080000Y-86995000D03*
X147955000Y-105410000D03*
X147955000Y-100965000D03*
X147955000Y-96520000D03*
X147955000Y-92075000D03*
X139065000Y-98425000D03*
X145415000Y-94742000D03*
X146050000Y-104140000D03*
X128778000Y-92710000D03*
X128778000Y-95250000D03*
X128778000Y-97790000D03*
X128778000Y-100330000D03*
X137795000Y-106680000D03*
X144145000Y-99060000D03*
X127000000Y-86995000D03*
X126365000Y-106045000D03*
X135001000Y-106807000D03*
X139065000Y-89281000D03*
X140843000Y-93980000D03*
X137287000Y-93980000D03*
X136525000Y-100203000D03*
X136525000Y-102997000D03*
X152527000Y-100965000D03*
X152527000Y-105410000D03*
X152527000Y-92075000D03*
X152527000Y-96520000D03*
D22*
X149860000Y-104292500D02*
X147955000Y-104292500D01*
X149860000Y-99847500D02*
X147955000Y-99847500D01*
X149860000Y-95402500D02*
X147955000Y-95402500D01*
X149860000Y-90957500D02*
X147955000Y-90957500D01*
X147955000Y-104292500D02*
X147955000Y-105410000D01*
X147955000Y-99847500D02*
X147955000Y-100965000D01*
X147955000Y-95402500D02*
X147955000Y-96520000D01*
X147955000Y-90957500D02*
X147955000Y-92075000D01*
X138100000Y-98425000D02*
X139065000Y-98425000D01*
X130276500Y-91440000D02*
X130276500Y-91592500D01*
X130276500Y-93980000D02*
X130276500Y-94132500D01*
X130276500Y-96520000D02*
X130276500Y-96672500D01*
X130276500Y-99060000D02*
X130276500Y-99212500D01*
X129006500Y-92710000D02*
X130276500Y-91440000D01*
X128778000Y-92710000D02*
X129006500Y-92710000D01*
X129006500Y-95250000D02*
X130276500Y-93980000D01*
X128778000Y-95250000D02*
X129006500Y-95250000D01*
X129006500Y-97790000D02*
X130276500Y-96520000D01*
X128778000Y-97790000D02*
X129006500Y-97790000D01*
X129006500Y-100330000D02*
X130276500Y-99060000D01*
X128778000Y-100330000D02*
X129006500Y-100330000D01*
X145415000Y-96455000D02*
X145415000Y-94742000D01*
X144145000Y-100395000D02*
X144145000Y-99060000D01*
X137795000Y-106680000D02*
X137795000Y-105345000D01*
X145415000Y-104775000D02*
X146050000Y-104140000D01*
X145415000Y-105345000D02*
X145415000Y-104775000D01*
D23*
X127255000Y-106045000D02*
X126365000Y-106045000D01*
D22*
X127990500Y-101473000D02*
X127990500Y-101117500D01*
X128117500Y-100990500D02*
X128778000Y-100330000D01*
X128117500Y-101473000D02*
X128117500Y-100990500D01*
D23*
X134948000Y-105791000D02*
X134948000Y-106754000D01*
X134948000Y-106754000D02*
X135001000Y-106807000D01*
D22*
X138354000Y-89281000D02*
X138100000Y-89535000D01*
X139065000Y-89281000D02*
X138354000Y-89281000D01*
D23*
X124460000Y-103505000D02*
X123825000Y-104140000D01*
X127505000Y-103505000D02*
X124460000Y-103505000D01*
D22*
X137795000Y-99695000D02*
X136525000Y-98425000D01*
X137795000Y-100395000D02*
X137795000Y-99695000D01*
X137795000Y-90805000D02*
X136525000Y-89535000D01*
X137795000Y-91505000D02*
X137795000Y-90805000D01*
D23*
X136525000Y-93980000D02*
X136525000Y-89535000D01*
X136525000Y-98425000D02*
X136525000Y-93980000D01*
D22*
X136525000Y-93980000D02*
X137287000Y-93980000D01*
X140843000Y-93980000D02*
X141732000Y-93091000D01*
X141732000Y-93091000D02*
X142621000Y-93091000D01*
X142875000Y-92837000D02*
X142875000Y-91505000D01*
X142621000Y-93091000D02*
X142875000Y-92837000D01*
X141605000Y-94742000D02*
X141605000Y-96455000D01*
X140843000Y-93980000D02*
X141605000Y-94742000D01*
D23*
X135890000Y-104140000D02*
X134948000Y-104140000D01*
X136525000Y-104140000D02*
X135890000Y-104140000D01*
X136525000Y-100203000D02*
X136525000Y-98425000D01*
X136525000Y-104140000D02*
X136525000Y-102997000D01*
X154305000Y-88900000D02*
X156845000Y-88900000D01*
X151830010Y-107884990D02*
X154305000Y-105410000D01*
X137741988Y-107884990D02*
X151830010Y-107884990D01*
X136525000Y-104140000D02*
X136525000Y-106668002D01*
X136525000Y-106668002D02*
X137741988Y-107884990D01*
X152527000Y-89382500D02*
X154152500Y-89382500D01*
X154152500Y-89382500D02*
X154305000Y-89535000D01*
X154305000Y-89535000D02*
X154305000Y-88900000D01*
X152527000Y-93827500D02*
X154152500Y-93827500D01*
X154152500Y-93827500D02*
X154305000Y-93980000D01*
X154305000Y-93980000D02*
X154305000Y-89535000D01*
X154152500Y-98272500D02*
X154305000Y-98425000D01*
X152527000Y-98272500D02*
X154152500Y-98272500D01*
X154305000Y-98425000D02*
X154305000Y-93980000D01*
X156845000Y-99060000D02*
X154305000Y-99060000D01*
X154305000Y-99060000D02*
X154305000Y-98425000D01*
X152527000Y-102717500D02*
X154152500Y-102717500D01*
X154305000Y-105410000D02*
X154305000Y-102870000D01*
X154152500Y-102717500D02*
X154305000Y-102870000D01*
X154305000Y-102870000D02*
X154305000Y-99060000D01*
D22*
X134948000Y-103553500D02*
X132867500Y-101473000D01*
X134948000Y-104140000D02*
X134948000Y-103553500D01*
X147955000Y-89382500D02*
X149860000Y-89382500D01*
X149479000Y-89382500D02*
X151384000Y-89382500D01*
X147493388Y-89844112D02*
X147955000Y-89382500D01*
X147154990Y-90182510D02*
X147493388Y-89844112D01*
X147066000Y-90271500D02*
X147066000Y-94080090D01*
X147955000Y-89382500D02*
X147066000Y-90271500D01*
X147066000Y-94080090D02*
X146607340Y-94538750D01*
X141605000Y-101470000D02*
X141605000Y-100395000D01*
X146607340Y-94538750D02*
X146607340Y-98347340D01*
X141989000Y-101854000D02*
X141605000Y-101470000D01*
X145793181Y-101853999D02*
X141989000Y-101854000D01*
X146607340Y-98347340D02*
X146254970Y-98699710D01*
X146254970Y-101392210D02*
X145793181Y-101853999D01*
X146254970Y-98699710D02*
X146254970Y-101392210D01*
X151384000Y-93827500D02*
X149479000Y-93827500D01*
X149860000Y-93827500D02*
X147955000Y-93827500D01*
X139065000Y-101470000D02*
X139065000Y-100395000D01*
X139322000Y-101727000D02*
X139065000Y-101470000D01*
X141802599Y-102304009D02*
X141225590Y-101727000D01*
X141225590Y-101727000D02*
X139322000Y-101727000D01*
X147066000Y-94716500D02*
X147066000Y-98525090D01*
X147066000Y-98525090D02*
X146704980Y-98886110D01*
X147955000Y-93827500D02*
X147066000Y-94716500D01*
X146704980Y-98886110D02*
X146704980Y-101578610D01*
X146704980Y-101578610D02*
X145979581Y-102304009D01*
X141802599Y-102304009D02*
X145979581Y-102304009D01*
X151384000Y-98272500D02*
X149479000Y-98272500D01*
X149860000Y-98272500D02*
X147955000Y-98272500D01*
X143262000Y-106807000D02*
X142875000Y-106420000D01*
X144526000Y-106807000D02*
X143262000Y-106807000D01*
X142875000Y-106420000D02*
X142875000Y-105345000D01*
X147955000Y-98272500D02*
X147154990Y-99072510D01*
X147154990Y-101765010D02*
X144770010Y-104149990D01*
X144770010Y-104149990D02*
X144770010Y-106562990D01*
X147154990Y-99072510D02*
X147154990Y-101765010D01*
X144770010Y-106562990D02*
X144526000Y-106807000D01*
X151384000Y-102717500D02*
X149479000Y-102717500D01*
X149860000Y-102717500D02*
X147955000Y-102717500D01*
X147380000Y-102717500D02*
X147955000Y-102717500D01*
X140335000Y-105345000D02*
X140335000Y-106420000D01*
X141172009Y-107257009D02*
X145726991Y-107257009D01*
X140335000Y-106420000D02*
X141172009Y-107257009D01*
X145726991Y-107257009D02*
X147154990Y-105829010D01*
X147154990Y-102942510D02*
X147380000Y-102717500D01*
X147154990Y-105829010D02*
X147154990Y-102942510D01*
X129692500Y-101473000D02*
X131292500Y-101473000D01*
X131851500Y-91440000D02*
X133403000Y-91440000D01*
X131851500Y-93980000D02*
X133373000Y-93980000D01*
X131851500Y-96520000D02*
X133403000Y-96520000D01*
X131851500Y-99060000D02*
X133373000Y-99060000D01*
X152908000Y-99847500D02*
X151003000Y-99847500D01*
X152527000Y-99847500D02*
X152527000Y-100965000D01*
X152908000Y-104292500D02*
X151003000Y-104292500D01*
X152527000Y-104292500D02*
X152527000Y-105410000D01*
X152908000Y-90957500D02*
X151003000Y-90957500D01*
X152527000Y-90957500D02*
X152527000Y-92075000D01*
X152908000Y-95402500D02*
X151003000Y-95402500D01*
X152527000Y-95402500D02*
X152527000Y-96520000D01*
X129555010Y-90639990D02*
X134177990Y-90639990D01*
X134516388Y-90978388D02*
X134978000Y-91440000D01*
X134177990Y-90639990D02*
X134516388Y-90978388D01*
X128755000Y-91440000D02*
X129555010Y-90639990D01*
X134978000Y-88923000D02*
X134978000Y-91440000D01*
X135763000Y-88011000D02*
X134978000Y-88797100D01*
X142875000Y-94595020D02*
X144770010Y-92700010D01*
X142875000Y-96455000D02*
X142875000Y-94595020D01*
X144770010Y-92700010D02*
X144770010Y-90418600D01*
X134978000Y-88797100D02*
X134978000Y-88923000D01*
X144770010Y-90418600D02*
X142367000Y-88011000D01*
X142367000Y-88011000D02*
X135763000Y-88011000D01*
X134147990Y-93179990D02*
X134486388Y-93518388D01*
X129525010Y-93179990D02*
X134147990Y-93179990D01*
X134486388Y-93518388D02*
X134948000Y-93980000D01*
X128725000Y-93980000D02*
X129525010Y-93179990D01*
X144145000Y-90430000D02*
X144145000Y-91505000D01*
X142113000Y-88519000D02*
X144145000Y-90430000D01*
X134948000Y-93405000D02*
X135740510Y-92612490D01*
X135740510Y-90401510D02*
X135509000Y-90170000D01*
X136017000Y-88519000D02*
X142113000Y-88519000D01*
X135509000Y-89027000D02*
X136017000Y-88519000D01*
X135740510Y-92612490D02*
X135740510Y-90401510D01*
X134948000Y-93980000D02*
X134948000Y-93405000D01*
X135509000Y-90170000D02*
X135509000Y-89027000D01*
X134516388Y-96058388D02*
X134978000Y-96520000D01*
X134177990Y-95719990D02*
X134516388Y-96058388D01*
X129555010Y-95719990D02*
X134177990Y-95719990D01*
X128755000Y-96520000D02*
X129555010Y-95719990D01*
X134978000Y-96520000D02*
X135762490Y-97304490D01*
X135762490Y-97304490D02*
X135762490Y-100508080D01*
X144145000Y-104270000D02*
X144145000Y-105345000D01*
X138817400Y-103562990D02*
X143437990Y-103562990D01*
X135762490Y-100508080D02*
X138817400Y-103562990D01*
X143437990Y-103562990D02*
X144145000Y-104270000D01*
X141605000Y-105345000D02*
X141605000Y-106045000D01*
X134486388Y-98598388D02*
X134948000Y-99060000D01*
X134147990Y-98259990D02*
X134486388Y-98598388D01*
X129555010Y-98259990D02*
X134147990Y-98259990D01*
X128755000Y-99060000D02*
X129555010Y-98259990D01*
X141605000Y-105345000D02*
X141605000Y-104968232D01*
X141605000Y-104140000D02*
X141605000Y-105345000D01*
X141478000Y-104013000D02*
X141605000Y-104140000D01*
X134948000Y-99060000D02*
X134948000Y-100330000D01*
X138631000Y-104013000D02*
X141478000Y-104013000D01*
X134948000Y-100330000D02*
X138631000Y-104013000D01*
X142875000Y-100395000D02*
X142875000Y-99320000D01*
X139065000Y-91505000D02*
X139065000Y-92710000D01*
X139065000Y-92710000D02*
X139700000Y-93345000D01*
X139700000Y-93345000D02*
X140335000Y-92710000D01*
X140335000Y-92710000D02*
X140335000Y-91505000D01*
X139700000Y-93345000D02*
X139700000Y-94615000D01*
X139700000Y-94615000D02*
X140335000Y-95250000D01*
X140335000Y-95250000D02*
X140335000Y-96455000D01*
X140335000Y-97530000D02*
X140849000Y-98044000D01*
X140335000Y-96455000D02*
X140335000Y-97530000D01*
X141599000Y-98044000D02*
X142875000Y-99320000D01*
X140849000Y-98044000D02*
X141599000Y-98044000D01*
X140335000Y-100395000D02*
X140335000Y-98425000D01*
X140335000Y-98425000D02*
X139065000Y-97155000D01*
X141605000Y-90430000D02*
X141605000Y-91505000D01*
X138718242Y-90204990D02*
X141379990Y-90204990D01*
X138439990Y-90483242D02*
X138718242Y-90204990D01*
X141379990Y-90204990D02*
X141605000Y-90430000D01*
X138439990Y-90483242D02*
X138439990Y-94605010D01*
X137795000Y-95250000D02*
X137795000Y-96455000D01*
X138439990Y-94605010D02*
X137795000Y-95250000D01*
X138439990Y-94605010D02*
X138439990Y-94624990D01*
X139065000Y-95250000D02*
X139065000Y-96455000D01*
X138439990Y-94624990D02*
X139065000Y-95250000D01*
X127180000Y-91440000D02*
X124460000Y-91440000D01*
X127150000Y-93980000D02*
X124460000Y-93980000D01*
X127180000Y-96520000D02*
X124460000Y-96520000D01*
X127180000Y-99060000D02*
X124460000Y-99060000D01*
X130276500Y-103226500D02*
X130810000Y-103760000D01*
D23*
X130555000Y-103755000D02*
X130305000Y-103505000D01*
X130555000Y-106045000D02*
X130555000Y-103755000D01*
X130940000Y-104140000D02*
X130305000Y-103505000D01*
X133373000Y-104140000D02*
X130940000Y-104140000D01*
X133373000Y-105791000D02*
X133373000Y-104140000D01*
D24*
G36*
X152908000Y-87503000D02*
G01*
X125222000Y-87503000D01*
X125222000Y-86537000D01*
X152908000Y-86537000D01*
X152908000Y-87503000D01*
X152908000Y-87503000D01*
G37*
X152908000Y-87503000D02*
X125222000Y-87503000D01*
X125222000Y-86537000D01*
X152908000Y-86537000D01*
X152908000Y-87503000D01*
M02*
