G04 #@! TF.GenerationSoftware,KiCad,Pcbnew,5.1.4-e60b266~84~ubuntu18.04.1*
G04 #@! TF.CreationDate,2019-09-09T22:27:04+10:00*
G04 #@! TF.ProjectId,comparator,636f6d70-6172-4617-946f-722e6b696361,21/06/19*
G04 #@! TF.SameCoordinates,Original*
G04 #@! TF.FileFunction,Soldermask,Top*
G04 #@! TF.FilePolarity,Negative*
%FSLAX46Y46*%
G04 Gerber Fmt 4.6, Leading zero omitted, Abs format (unit mm)*
G04 Created by KiCad (PCBNEW 5.1.4-e60b266~84~ubuntu18.04.1) date 2019-09-09 22:27:04*
%MOMM*%
%LPD*%
G04 APERTURE LIST*
%ADD10C,0.100000*%
G04 APERTURE END LIST*
D10*
G36*
X153035000Y-87630000D02*
G01*
X125095000Y-87630000D01*
X125095000Y-86360000D01*
X153035000Y-86360000D01*
X153035000Y-87630000D01*
G37*
X153035000Y-87630000D02*
X125095000Y-87630000D01*
X125095000Y-86360000D01*
X153035000Y-86360000D01*
X153035000Y-87630000D01*
G36*
X172312290Y-106975619D02*
G01*
X172376689Y-106988429D01*
X172558678Y-107063811D01*
X172722463Y-107173249D01*
X172861751Y-107312537D01*
X172971189Y-107476322D01*
X173046571Y-107658311D01*
X173085000Y-107851509D01*
X173085000Y-108048491D01*
X173046571Y-108241689D01*
X172971189Y-108423678D01*
X172861751Y-108587463D01*
X172722463Y-108726751D01*
X172558678Y-108836189D01*
X172376689Y-108911571D01*
X172312290Y-108924381D01*
X172183493Y-108950000D01*
X171986507Y-108950000D01*
X171857710Y-108924381D01*
X171793311Y-108911571D01*
X171611322Y-108836189D01*
X171447537Y-108726751D01*
X171308249Y-108587463D01*
X171198811Y-108423678D01*
X171123429Y-108241689D01*
X171085000Y-108048491D01*
X171085000Y-107851509D01*
X171123429Y-107658311D01*
X171198811Y-107476322D01*
X171308249Y-107312537D01*
X171447537Y-107173249D01*
X171611322Y-107063811D01*
X171793311Y-106988429D01*
X171857710Y-106975619D01*
X171986507Y-106950000D01*
X172183493Y-106950000D01*
X172312290Y-106975619D01*
X172312290Y-106975619D01*
G37*
G36*
X124052290Y-106340619D02*
G01*
X124116689Y-106353429D01*
X124298678Y-106428811D01*
X124462463Y-106538249D01*
X124601751Y-106677537D01*
X124711189Y-106841322D01*
X124786571Y-107023311D01*
X124825000Y-107216509D01*
X124825000Y-107413491D01*
X124786571Y-107606689D01*
X124711189Y-107788678D01*
X124601751Y-107952463D01*
X124462463Y-108091751D01*
X124298678Y-108201189D01*
X124116689Y-108276571D01*
X124052290Y-108289381D01*
X123923493Y-108315000D01*
X123726507Y-108315000D01*
X123597710Y-108289381D01*
X123533311Y-108276571D01*
X123351322Y-108201189D01*
X123187537Y-108091751D01*
X123048249Y-107952463D01*
X122938811Y-107788678D01*
X122863429Y-107606689D01*
X122825000Y-107413491D01*
X122825000Y-107216509D01*
X122863429Y-107023311D01*
X122938811Y-106841322D01*
X123048249Y-106677537D01*
X123187537Y-106538249D01*
X123351322Y-106428811D01*
X123533311Y-106353429D01*
X123597710Y-106340619D01*
X123726507Y-106315000D01*
X123923493Y-106315000D01*
X124052290Y-106340619D01*
X124052290Y-106340619D01*
G37*
G36*
X159117591Y-105904085D02*
G01*
X159151569Y-105914393D01*
X159182890Y-105931134D01*
X159210339Y-105953661D01*
X159232866Y-105981110D01*
X159249607Y-106012431D01*
X159259915Y-106046409D01*
X159264000Y-106087890D01*
X159264000Y-106764110D01*
X159259915Y-106805591D01*
X159249607Y-106839569D01*
X159232866Y-106870890D01*
X159210339Y-106898339D01*
X159182890Y-106920866D01*
X159151569Y-106937607D01*
X159117591Y-106947915D01*
X159076110Y-106952000D01*
X158474890Y-106952000D01*
X158433409Y-106947915D01*
X158399431Y-106937607D01*
X158368110Y-106920866D01*
X158340661Y-106898339D01*
X158318134Y-106870890D01*
X158301393Y-106839569D01*
X158291085Y-106805591D01*
X158287000Y-106764110D01*
X158287000Y-106087890D01*
X158291085Y-106046409D01*
X158301393Y-106012431D01*
X158318134Y-105981110D01*
X158340661Y-105953661D01*
X158368110Y-105931134D01*
X158399431Y-105914393D01*
X158433409Y-105904085D01*
X158474890Y-105900000D01*
X159076110Y-105900000D01*
X159117591Y-105904085D01*
X159117591Y-105904085D01*
G37*
G36*
X157542591Y-105904085D02*
G01*
X157576569Y-105914393D01*
X157607890Y-105931134D01*
X157635339Y-105953661D01*
X157657866Y-105981110D01*
X157674607Y-106012431D01*
X157684915Y-106046409D01*
X157689000Y-106087890D01*
X157689000Y-106764110D01*
X157684915Y-106805591D01*
X157674607Y-106839569D01*
X157657866Y-106870890D01*
X157635339Y-106898339D01*
X157607890Y-106920866D01*
X157576569Y-106937607D01*
X157542591Y-106947915D01*
X157501110Y-106952000D01*
X156899890Y-106952000D01*
X156858409Y-106947915D01*
X156824431Y-106937607D01*
X156793110Y-106920866D01*
X156765661Y-106898339D01*
X156743134Y-106870890D01*
X156726393Y-106839569D01*
X156716085Y-106805591D01*
X156712000Y-106764110D01*
X156712000Y-106087890D01*
X156716085Y-106046409D01*
X156726393Y-106012431D01*
X156743134Y-105981110D01*
X156765661Y-105953661D01*
X156793110Y-105931134D01*
X156824431Y-105914393D01*
X156858409Y-105904085D01*
X156899890Y-105900000D01*
X157501110Y-105900000D01*
X157542591Y-105904085D01*
X157542591Y-105904085D01*
G37*
G36*
X155706000Y-106784000D02*
G01*
X154804000Y-106784000D01*
X154804000Y-105782000D01*
X155706000Y-105782000D01*
X155706000Y-106784000D01*
X155706000Y-106784000D01*
G37*
G36*
X153806000Y-106784000D02*
G01*
X152904000Y-106784000D01*
X152904000Y-105782000D01*
X153806000Y-105782000D01*
X153806000Y-106784000D01*
X153806000Y-106784000D01*
G37*
G36*
X131056000Y-106696000D02*
G01*
X130054000Y-106696000D01*
X130054000Y-105394000D01*
X131056000Y-105394000D01*
X131056000Y-106696000D01*
X131056000Y-106696000D01*
G37*
G36*
X127756000Y-106696000D02*
G01*
X126754000Y-106696000D01*
X126754000Y-105394000D01*
X127756000Y-105394000D01*
X127756000Y-106696000D01*
X127756000Y-106696000D01*
G37*
G36*
X134047591Y-105523085D02*
G01*
X134081569Y-105533393D01*
X134112890Y-105550134D01*
X134140339Y-105572661D01*
X134162866Y-105600110D01*
X134179607Y-105631431D01*
X134189915Y-105665409D01*
X134194000Y-105706890D01*
X134194000Y-106383110D01*
X134189915Y-106424591D01*
X134179607Y-106458569D01*
X134162866Y-106489890D01*
X134140339Y-106517339D01*
X134112890Y-106539866D01*
X134081569Y-106556607D01*
X134047591Y-106566915D01*
X134006110Y-106571000D01*
X133404890Y-106571000D01*
X133363409Y-106566915D01*
X133329431Y-106556607D01*
X133298110Y-106539866D01*
X133270661Y-106517339D01*
X133248134Y-106489890D01*
X133231393Y-106458569D01*
X133221085Y-106424591D01*
X133217000Y-106383110D01*
X133217000Y-105706890D01*
X133221085Y-105665409D01*
X133231393Y-105631431D01*
X133248134Y-105600110D01*
X133270661Y-105572661D01*
X133298110Y-105550134D01*
X133329431Y-105533393D01*
X133363409Y-105523085D01*
X133404890Y-105519000D01*
X134006110Y-105519000D01*
X134047591Y-105523085D01*
X134047591Y-105523085D01*
G37*
G36*
X135622591Y-105523085D02*
G01*
X135656569Y-105533393D01*
X135687890Y-105550134D01*
X135715339Y-105572661D01*
X135737866Y-105600110D01*
X135754607Y-105631431D01*
X135764915Y-105665409D01*
X135769000Y-105706890D01*
X135769000Y-106383110D01*
X135764915Y-106424591D01*
X135754607Y-106458569D01*
X135737866Y-106489890D01*
X135715339Y-106517339D01*
X135687890Y-106539866D01*
X135656569Y-106556607D01*
X135622591Y-106566915D01*
X135581110Y-106571000D01*
X134979890Y-106571000D01*
X134938409Y-106566915D01*
X134904431Y-106556607D01*
X134873110Y-106539866D01*
X134845661Y-106517339D01*
X134823134Y-106489890D01*
X134806393Y-106458569D01*
X134796085Y-106424591D01*
X134792000Y-106383110D01*
X134792000Y-105706890D01*
X134796085Y-105665409D01*
X134806393Y-105631431D01*
X134823134Y-105600110D01*
X134845661Y-105572661D01*
X134873110Y-105550134D01*
X134904431Y-105533393D01*
X134938409Y-105523085D01*
X134979890Y-105519000D01*
X135581110Y-105519000D01*
X135622591Y-105523085D01*
X135622591Y-105523085D01*
G37*
G36*
X150620591Y-105586085D02*
G01*
X150654569Y-105596393D01*
X150685890Y-105613134D01*
X150713339Y-105635661D01*
X150735866Y-105663110D01*
X150752607Y-105694431D01*
X150762915Y-105728409D01*
X150767000Y-105769890D01*
X150767000Y-106371110D01*
X150762915Y-106412591D01*
X150752607Y-106446569D01*
X150735866Y-106477890D01*
X150713339Y-106505339D01*
X150685890Y-106527866D01*
X150654569Y-106544607D01*
X150620591Y-106554915D01*
X150579110Y-106559000D01*
X149902890Y-106559000D01*
X149861409Y-106554915D01*
X149827431Y-106544607D01*
X149796110Y-106527866D01*
X149768661Y-106505339D01*
X149746134Y-106477890D01*
X149729393Y-106446569D01*
X149719085Y-106412591D01*
X149715000Y-106371110D01*
X149715000Y-105769890D01*
X149719085Y-105728409D01*
X149729393Y-105694431D01*
X149746134Y-105663110D01*
X149768661Y-105635661D01*
X149796110Y-105613134D01*
X149827431Y-105596393D01*
X149861409Y-105586085D01*
X149902890Y-105582000D01*
X150579110Y-105582000D01*
X150620591Y-105586085D01*
X150620591Y-105586085D01*
G37*
G36*
X177792000Y-106421000D02*
G01*
X173490000Y-106421000D01*
X173490000Y-104969000D01*
X177792000Y-104969000D01*
X177792000Y-106421000D01*
X177792000Y-106421000D01*
G37*
G36*
X166480443Y-104515519D02*
G01*
X166546627Y-104522037D01*
X166716466Y-104573557D01*
X166872991Y-104657222D01*
X166908729Y-104686552D01*
X167010186Y-104769814D01*
X167073620Y-104847110D01*
X167122778Y-104907009D01*
X167159891Y-104976442D01*
X167198979Y-105049569D01*
X167206443Y-105063534D01*
X167257963Y-105233373D01*
X167275359Y-105410000D01*
X167257963Y-105586627D01*
X167206443Y-105756466D01*
X167122778Y-105912991D01*
X167107888Y-105931134D01*
X167010186Y-106050186D01*
X166908729Y-106133448D01*
X166872991Y-106162778D01*
X166716466Y-106246443D01*
X166546627Y-106297963D01*
X166480442Y-106304482D01*
X166414260Y-106311000D01*
X166325740Y-106311000D01*
X166259558Y-106304482D01*
X166193373Y-106297963D01*
X166023534Y-106246443D01*
X165867009Y-106162778D01*
X165831271Y-106133448D01*
X165729814Y-106050186D01*
X165632112Y-105931134D01*
X165617222Y-105912991D01*
X165533557Y-105756466D01*
X165482037Y-105586627D01*
X165464641Y-105410000D01*
X165482037Y-105233373D01*
X165533557Y-105063534D01*
X165541022Y-105049569D01*
X165580109Y-104976442D01*
X165617222Y-104907009D01*
X165666380Y-104847110D01*
X165729814Y-104769814D01*
X165831271Y-104686552D01*
X165867009Y-104657222D01*
X166023534Y-104573557D01*
X166193373Y-104522037D01*
X166259557Y-104515519D01*
X166325740Y-104509000D01*
X166414260Y-104509000D01*
X166480443Y-104515519D01*
X166480443Y-104515519D01*
G37*
G36*
X169811000Y-106311000D02*
G01*
X168009000Y-106311000D01*
X168009000Y-104509000D01*
X169811000Y-104509000D01*
X169811000Y-106311000D01*
X169811000Y-106311000D01*
G37*
G36*
X162572000Y-106311000D02*
G01*
X160770000Y-106311000D01*
X160770000Y-104509000D01*
X162572000Y-104509000D01*
X162572000Y-106311000D01*
X162572000Y-106311000D01*
G37*
G36*
X144258591Y-104888085D02*
G01*
X144292569Y-104898393D01*
X144323890Y-104915134D01*
X144351339Y-104937661D01*
X144373866Y-104965110D01*
X144390607Y-104996431D01*
X144400915Y-105030409D01*
X144405000Y-105071890D01*
X144405000Y-105748110D01*
X144400915Y-105789591D01*
X144390607Y-105823569D01*
X144373866Y-105854890D01*
X144351339Y-105882339D01*
X144323890Y-105904866D01*
X144292569Y-105921607D01*
X144258591Y-105931915D01*
X144217110Y-105936000D01*
X143615890Y-105936000D01*
X143574409Y-105931915D01*
X143540431Y-105921607D01*
X143509110Y-105904866D01*
X143481661Y-105882339D01*
X143459134Y-105854890D01*
X143442393Y-105823569D01*
X143432085Y-105789591D01*
X143428000Y-105748110D01*
X143428000Y-105071890D01*
X143432085Y-105030409D01*
X143442393Y-104996431D01*
X143459134Y-104965110D01*
X143481661Y-104937661D01*
X143509110Y-104915134D01*
X143540431Y-104898393D01*
X143574409Y-104888085D01*
X143615890Y-104884000D01*
X144217110Y-104884000D01*
X144258591Y-104888085D01*
X144258591Y-104888085D01*
G37*
G36*
X142683591Y-104888085D02*
G01*
X142717569Y-104898393D01*
X142748890Y-104915134D01*
X142776339Y-104937661D01*
X142798866Y-104965110D01*
X142815607Y-104996431D01*
X142825915Y-105030409D01*
X142830000Y-105071890D01*
X142830000Y-105748110D01*
X142825915Y-105789591D01*
X142815607Y-105823569D01*
X142798866Y-105854890D01*
X142776339Y-105882339D01*
X142748890Y-105904866D01*
X142717569Y-105921607D01*
X142683591Y-105931915D01*
X142642110Y-105936000D01*
X142040890Y-105936000D01*
X141999409Y-105931915D01*
X141965431Y-105921607D01*
X141934110Y-105904866D01*
X141906661Y-105882339D01*
X141884134Y-105854890D01*
X141867393Y-105823569D01*
X141857085Y-105789591D01*
X141853000Y-105748110D01*
X141853000Y-105071890D01*
X141857085Y-105030409D01*
X141867393Y-104996431D01*
X141884134Y-104965110D01*
X141906661Y-104937661D01*
X141934110Y-104915134D01*
X141965431Y-104898393D01*
X141999409Y-104888085D01*
X142040890Y-104884000D01*
X142642110Y-104884000D01*
X142683591Y-104888085D01*
X142683591Y-104888085D01*
G37*
G36*
X159117591Y-104126085D02*
G01*
X159151569Y-104136393D01*
X159182890Y-104153134D01*
X159210339Y-104175661D01*
X159232866Y-104203110D01*
X159249607Y-104234431D01*
X159259915Y-104268409D01*
X159264000Y-104309890D01*
X159264000Y-104986110D01*
X159259915Y-105027591D01*
X159249607Y-105061569D01*
X159232866Y-105092890D01*
X159210339Y-105120339D01*
X159182890Y-105142866D01*
X159151569Y-105159607D01*
X159117591Y-105169915D01*
X159076110Y-105174000D01*
X158474890Y-105174000D01*
X158433409Y-105169915D01*
X158399431Y-105159607D01*
X158368110Y-105142866D01*
X158340661Y-105120339D01*
X158318134Y-105092890D01*
X158301393Y-105061569D01*
X158291085Y-105027591D01*
X158287000Y-104986110D01*
X158287000Y-104309890D01*
X158291085Y-104268409D01*
X158301393Y-104234431D01*
X158318134Y-104203110D01*
X158340661Y-104175661D01*
X158368110Y-104153134D01*
X158399431Y-104136393D01*
X158433409Y-104126085D01*
X158474890Y-104122000D01*
X159076110Y-104122000D01*
X159117591Y-104126085D01*
X159117591Y-104126085D01*
G37*
G36*
X157542591Y-104126085D02*
G01*
X157576569Y-104136393D01*
X157607890Y-104153134D01*
X157635339Y-104175661D01*
X157657866Y-104203110D01*
X157674607Y-104234431D01*
X157684915Y-104268409D01*
X157689000Y-104309890D01*
X157689000Y-104986110D01*
X157684915Y-105027591D01*
X157674607Y-105061569D01*
X157657866Y-105092890D01*
X157635339Y-105120339D01*
X157607890Y-105142866D01*
X157576569Y-105159607D01*
X157542591Y-105169915D01*
X157501110Y-105174000D01*
X156899890Y-105174000D01*
X156858409Y-105169915D01*
X156824431Y-105159607D01*
X156793110Y-105142866D01*
X156765661Y-105120339D01*
X156743134Y-105092890D01*
X156726393Y-105061569D01*
X156716085Y-105027591D01*
X156712000Y-104986110D01*
X156712000Y-104309890D01*
X156716085Y-104268409D01*
X156726393Y-104234431D01*
X156743134Y-104203110D01*
X156765661Y-104175661D01*
X156793110Y-104153134D01*
X156824431Y-104136393D01*
X156858409Y-104126085D01*
X156899890Y-104122000D01*
X157501110Y-104122000D01*
X157542591Y-104126085D01*
X157542591Y-104126085D01*
G37*
G36*
X145794591Y-104189085D02*
G01*
X145828569Y-104199393D01*
X145859890Y-104216134D01*
X145887339Y-104238661D01*
X145909866Y-104266110D01*
X145926607Y-104297431D01*
X145936915Y-104331409D01*
X145941000Y-104372890D01*
X145941000Y-104974110D01*
X145936915Y-105015591D01*
X145926607Y-105049569D01*
X145909866Y-105080890D01*
X145887339Y-105108339D01*
X145859890Y-105130866D01*
X145828569Y-105147607D01*
X145794591Y-105157915D01*
X145753110Y-105162000D01*
X145076890Y-105162000D01*
X145035409Y-105157915D01*
X145001431Y-105147607D01*
X144970110Y-105130866D01*
X144942661Y-105108339D01*
X144920134Y-105080890D01*
X144903393Y-105049569D01*
X144893085Y-105015591D01*
X144889000Y-104974110D01*
X144889000Y-104372890D01*
X144893085Y-104331409D01*
X144903393Y-104297431D01*
X144920134Y-104266110D01*
X144942661Y-104238661D01*
X144970110Y-104216134D01*
X145001431Y-104199393D01*
X145035409Y-104189085D01*
X145076890Y-104185000D01*
X145753110Y-104185000D01*
X145794591Y-104189085D01*
X145794591Y-104189085D01*
G37*
G36*
X147318591Y-104189085D02*
G01*
X147352569Y-104199393D01*
X147383890Y-104216134D01*
X147411339Y-104238661D01*
X147433866Y-104266110D01*
X147450607Y-104297431D01*
X147460915Y-104331409D01*
X147465000Y-104372890D01*
X147465000Y-104974110D01*
X147460915Y-105015591D01*
X147450607Y-105049569D01*
X147433866Y-105080890D01*
X147411339Y-105108339D01*
X147383890Y-105130866D01*
X147352569Y-105147607D01*
X147318591Y-105157915D01*
X147277110Y-105162000D01*
X146600890Y-105162000D01*
X146559409Y-105157915D01*
X146525431Y-105147607D01*
X146494110Y-105130866D01*
X146466661Y-105108339D01*
X146444134Y-105080890D01*
X146427393Y-105049569D01*
X146417085Y-105015591D01*
X146413000Y-104974110D01*
X146413000Y-104372890D01*
X146417085Y-104331409D01*
X146427393Y-104297431D01*
X146444134Y-104266110D01*
X146466661Y-104238661D01*
X146494110Y-104216134D01*
X146525431Y-104199393D01*
X146559409Y-104189085D01*
X146600890Y-104185000D01*
X147277110Y-104185000D01*
X147318591Y-104189085D01*
X147318591Y-104189085D01*
G37*
G36*
X148969591Y-104189085D02*
G01*
X149003569Y-104199393D01*
X149034890Y-104216134D01*
X149062339Y-104238661D01*
X149084866Y-104266110D01*
X149101607Y-104297431D01*
X149111915Y-104331409D01*
X149116000Y-104372890D01*
X149116000Y-104974110D01*
X149111915Y-105015591D01*
X149101607Y-105049569D01*
X149084866Y-105080890D01*
X149062339Y-105108339D01*
X149034890Y-105130866D01*
X149003569Y-105147607D01*
X148969591Y-105157915D01*
X148928110Y-105162000D01*
X148251890Y-105162000D01*
X148210409Y-105157915D01*
X148176431Y-105147607D01*
X148145110Y-105130866D01*
X148117661Y-105108339D01*
X148095134Y-105080890D01*
X148078393Y-105049569D01*
X148068085Y-105015591D01*
X148064000Y-104974110D01*
X148064000Y-104372890D01*
X148068085Y-104331409D01*
X148078393Y-104297431D01*
X148095134Y-104266110D01*
X148117661Y-104238661D01*
X148145110Y-104216134D01*
X148176431Y-104199393D01*
X148210409Y-104189085D01*
X148251890Y-104185000D01*
X148928110Y-104185000D01*
X148969591Y-104189085D01*
X148969591Y-104189085D01*
G37*
G36*
X123932412Y-103245220D02*
G01*
X124001627Y-103252037D01*
X124171466Y-103303557D01*
X124327991Y-103387222D01*
X124351285Y-103406339D01*
X124465186Y-103499814D01*
X124548448Y-103601271D01*
X124577778Y-103637009D01*
X124661443Y-103793534D01*
X124712963Y-103963373D01*
X124730359Y-104140000D01*
X124712963Y-104316627D01*
X124661443Y-104486466D01*
X124577778Y-104642991D01*
X124548448Y-104678729D01*
X124465186Y-104780186D01*
X124363729Y-104863448D01*
X124327991Y-104892778D01*
X124264999Y-104926448D01*
X124195754Y-104963461D01*
X124171466Y-104976443D01*
X124001627Y-105027963D01*
X123935442Y-105034482D01*
X123869260Y-105041000D01*
X123780740Y-105041000D01*
X123714557Y-105034481D01*
X123648373Y-105027963D01*
X123478534Y-104976443D01*
X123454247Y-104963461D01*
X123385001Y-104926448D01*
X123322009Y-104892778D01*
X123286271Y-104863448D01*
X123184814Y-104780186D01*
X123101552Y-104678729D01*
X123072222Y-104642991D01*
X122988557Y-104486466D01*
X122937037Y-104316627D01*
X122919641Y-104140000D01*
X122937037Y-103963373D01*
X122988557Y-103793534D01*
X123072222Y-103637009D01*
X123101552Y-103601271D01*
X123184814Y-103499814D01*
X123298715Y-103406339D01*
X123322009Y-103387222D01*
X123478534Y-103303557D01*
X123648373Y-103252037D01*
X123717588Y-103245220D01*
X123780740Y-103239000D01*
X123869260Y-103239000D01*
X123932412Y-103245220D01*
X123932412Y-103245220D01*
G37*
G36*
X134110591Y-104062085D02*
G01*
X134144569Y-104072393D01*
X134175890Y-104089134D01*
X134203339Y-104111661D01*
X134225866Y-104139110D01*
X134242607Y-104170431D01*
X134252915Y-104204409D01*
X134257000Y-104245890D01*
X134257000Y-104847110D01*
X134252915Y-104888591D01*
X134242607Y-104922569D01*
X134225866Y-104953890D01*
X134203339Y-104981339D01*
X134175890Y-105003866D01*
X134144569Y-105020607D01*
X134110591Y-105030915D01*
X134069110Y-105035000D01*
X133392890Y-105035000D01*
X133351409Y-105030915D01*
X133317431Y-105020607D01*
X133286110Y-105003866D01*
X133258661Y-104981339D01*
X133236134Y-104953890D01*
X133219393Y-104922569D01*
X133209085Y-104888591D01*
X133205000Y-104847110D01*
X133205000Y-104245890D01*
X133209085Y-104204409D01*
X133219393Y-104170431D01*
X133236134Y-104139110D01*
X133258661Y-104111661D01*
X133286110Y-104089134D01*
X133317431Y-104072393D01*
X133351409Y-104062085D01*
X133392890Y-104058000D01*
X134069110Y-104058000D01*
X134110591Y-104062085D01*
X134110591Y-104062085D01*
G37*
G36*
X140460591Y-104062085D02*
G01*
X140494569Y-104072393D01*
X140525890Y-104089134D01*
X140553339Y-104111661D01*
X140575866Y-104139110D01*
X140592607Y-104170431D01*
X140602915Y-104204409D01*
X140607000Y-104245890D01*
X140607000Y-104847110D01*
X140602915Y-104888591D01*
X140592607Y-104922569D01*
X140575866Y-104953890D01*
X140553339Y-104981339D01*
X140525890Y-105003866D01*
X140494569Y-105020607D01*
X140460591Y-105030915D01*
X140419110Y-105035000D01*
X139742890Y-105035000D01*
X139701409Y-105030915D01*
X139667431Y-105020607D01*
X139636110Y-105003866D01*
X139608661Y-104981339D01*
X139586134Y-104953890D01*
X139569393Y-104922569D01*
X139559085Y-104888591D01*
X139555000Y-104847110D01*
X139555000Y-104245890D01*
X139559085Y-104204409D01*
X139569393Y-104170431D01*
X139586134Y-104139110D01*
X139608661Y-104111661D01*
X139636110Y-104089134D01*
X139667431Y-104072393D01*
X139701409Y-104062085D01*
X139742890Y-104058000D01*
X140419110Y-104058000D01*
X140460591Y-104062085D01*
X140460591Y-104062085D01*
G37*
G36*
X138809591Y-104062085D02*
G01*
X138843569Y-104072393D01*
X138874890Y-104089134D01*
X138902339Y-104111661D01*
X138924866Y-104139110D01*
X138941607Y-104170431D01*
X138951915Y-104204409D01*
X138956000Y-104245890D01*
X138956000Y-104847110D01*
X138951915Y-104888591D01*
X138941607Y-104922569D01*
X138924866Y-104953890D01*
X138902339Y-104981339D01*
X138874890Y-105003866D01*
X138843569Y-105020607D01*
X138809591Y-105030915D01*
X138768110Y-105035000D01*
X138091890Y-105035000D01*
X138050409Y-105030915D01*
X138016431Y-105020607D01*
X137985110Y-105003866D01*
X137957661Y-104981339D01*
X137935134Y-104953890D01*
X137918393Y-104922569D01*
X137908085Y-104888591D01*
X137904000Y-104847110D01*
X137904000Y-104245890D01*
X137908085Y-104204409D01*
X137918393Y-104170431D01*
X137935134Y-104139110D01*
X137957661Y-104111661D01*
X137985110Y-104089134D01*
X138016431Y-104072393D01*
X138050409Y-104062085D01*
X138091890Y-104058000D01*
X138768110Y-104058000D01*
X138809591Y-104062085D01*
X138809591Y-104062085D01*
G37*
G36*
X150620591Y-104011085D02*
G01*
X150654569Y-104021393D01*
X150685890Y-104038134D01*
X150713339Y-104060661D01*
X150735866Y-104088110D01*
X150752607Y-104119431D01*
X150762915Y-104153409D01*
X150767000Y-104194890D01*
X150767000Y-104796110D01*
X150762915Y-104837591D01*
X150752607Y-104871569D01*
X150735866Y-104902890D01*
X150713339Y-104930339D01*
X150685890Y-104952866D01*
X150654569Y-104969607D01*
X150620591Y-104979915D01*
X150579110Y-104984000D01*
X149902890Y-104984000D01*
X149861409Y-104979915D01*
X149827431Y-104969607D01*
X149796110Y-104952866D01*
X149768661Y-104930339D01*
X149746134Y-104902890D01*
X149729393Y-104871569D01*
X149719085Y-104837591D01*
X149715000Y-104796110D01*
X149715000Y-104194890D01*
X149719085Y-104153409D01*
X149729393Y-104119431D01*
X149746134Y-104088110D01*
X149768661Y-104060661D01*
X149796110Y-104038134D01*
X149827431Y-104021393D01*
X149861409Y-104011085D01*
X149902890Y-104007000D01*
X150579110Y-104007000D01*
X150620591Y-104011085D01*
X150620591Y-104011085D01*
G37*
G36*
X154756000Y-104784000D02*
G01*
X153854000Y-104784000D01*
X153854000Y-103782000D01*
X154756000Y-103782000D01*
X154756000Y-104784000D01*
X154756000Y-104784000D01*
G37*
G36*
X128023604Y-102583347D02*
G01*
X128060144Y-102594432D01*
X128093821Y-102612433D01*
X128123341Y-102636659D01*
X128147567Y-102666179D01*
X128165568Y-102699856D01*
X128176653Y-102736396D01*
X128181000Y-102780538D01*
X128181000Y-104229462D01*
X128176653Y-104273604D01*
X128165568Y-104310144D01*
X128147567Y-104343821D01*
X128123341Y-104373341D01*
X128093821Y-104397567D01*
X128060144Y-104415568D01*
X128023604Y-104426653D01*
X127979462Y-104431000D01*
X127030538Y-104431000D01*
X126986396Y-104426653D01*
X126949856Y-104415568D01*
X126916179Y-104397567D01*
X126886659Y-104373341D01*
X126862433Y-104343821D01*
X126844432Y-104310144D01*
X126833347Y-104273604D01*
X126829000Y-104229462D01*
X126829000Y-102780538D01*
X126833347Y-102736396D01*
X126844432Y-102699856D01*
X126862433Y-102666179D01*
X126886659Y-102636659D01*
X126916179Y-102612433D01*
X126949856Y-102594432D01*
X126986396Y-102583347D01*
X127030538Y-102579000D01*
X127979462Y-102579000D01*
X128023604Y-102583347D01*
X128023604Y-102583347D01*
G37*
G36*
X130823604Y-102583347D02*
G01*
X130860144Y-102594432D01*
X130893821Y-102612433D01*
X130923341Y-102636659D01*
X130947567Y-102666179D01*
X130965568Y-102699856D01*
X130976653Y-102736396D01*
X130981000Y-102780538D01*
X130981000Y-104229462D01*
X130976653Y-104273604D01*
X130965568Y-104310144D01*
X130947567Y-104343821D01*
X130923341Y-104373341D01*
X130893821Y-104397567D01*
X130860144Y-104415568D01*
X130823604Y-104426653D01*
X130779462Y-104431000D01*
X129830538Y-104431000D01*
X129786396Y-104426653D01*
X129749856Y-104415568D01*
X129716179Y-104397567D01*
X129686659Y-104373341D01*
X129662433Y-104343821D01*
X129644432Y-104310144D01*
X129633347Y-104273604D01*
X129629000Y-104229462D01*
X129629000Y-102780538D01*
X129633347Y-102736396D01*
X129644432Y-102699856D01*
X129662433Y-102666179D01*
X129686659Y-102636659D01*
X129716179Y-102612433D01*
X129749856Y-102594432D01*
X129786396Y-102583347D01*
X129830538Y-102579000D01*
X130779462Y-102579000D01*
X130823604Y-102583347D01*
X130823604Y-102583347D01*
G37*
G36*
X144074000Y-104297000D02*
G01*
X141422000Y-104297000D01*
X141422000Y-103135000D01*
X144074000Y-103135000D01*
X144074000Y-104297000D01*
X144074000Y-104297000D01*
G37*
G36*
X161781442Y-101975518D02*
G01*
X161847627Y-101982037D01*
X162017466Y-102033557D01*
X162173991Y-102117222D01*
X162209729Y-102146552D01*
X162311186Y-102229814D01*
X162394448Y-102331271D01*
X162423778Y-102367009D01*
X162507443Y-102523534D01*
X162558963Y-102693373D01*
X162576359Y-102870000D01*
X162558963Y-103046627D01*
X162507443Y-103216466D01*
X162423778Y-103372991D01*
X162399603Y-103402448D01*
X162311186Y-103510186D01*
X162223305Y-103582307D01*
X162173991Y-103622778D01*
X162017466Y-103706443D01*
X161847627Y-103757963D01*
X161781443Y-103764481D01*
X161715260Y-103771000D01*
X161626740Y-103771000D01*
X161560557Y-103764481D01*
X161494373Y-103757963D01*
X161324534Y-103706443D01*
X161168009Y-103622778D01*
X161118695Y-103582307D01*
X161030814Y-103510186D01*
X160942397Y-103402448D01*
X160918222Y-103372991D01*
X160834557Y-103216466D01*
X160783037Y-103046627D01*
X160765641Y-102870000D01*
X160783037Y-102693373D01*
X160834557Y-102523534D01*
X160918222Y-102367009D01*
X160947552Y-102331271D01*
X161030814Y-102229814D01*
X161132271Y-102146552D01*
X161168009Y-102117222D01*
X161324534Y-102033557D01*
X161494373Y-101982037D01*
X161560558Y-101975518D01*
X161626740Y-101969000D01*
X161715260Y-101969000D01*
X161781442Y-101975518D01*
X161781442Y-101975518D01*
G37*
G36*
X147318591Y-102614085D02*
G01*
X147352569Y-102624393D01*
X147383890Y-102641134D01*
X147411339Y-102663661D01*
X147433866Y-102691110D01*
X147450607Y-102722431D01*
X147460915Y-102756409D01*
X147465000Y-102797890D01*
X147465000Y-103399110D01*
X147460915Y-103440591D01*
X147450607Y-103474569D01*
X147433866Y-103505890D01*
X147411339Y-103533339D01*
X147383890Y-103555866D01*
X147352569Y-103572607D01*
X147318591Y-103582915D01*
X147277110Y-103587000D01*
X146600890Y-103587000D01*
X146559409Y-103582915D01*
X146525431Y-103572607D01*
X146494110Y-103555866D01*
X146466661Y-103533339D01*
X146444134Y-103505890D01*
X146427393Y-103474569D01*
X146417085Y-103440591D01*
X146413000Y-103399110D01*
X146413000Y-102797890D01*
X146417085Y-102756409D01*
X146427393Y-102722431D01*
X146444134Y-102691110D01*
X146466661Y-102663661D01*
X146494110Y-102641134D01*
X146525431Y-102624393D01*
X146559409Y-102614085D01*
X146600890Y-102610000D01*
X147277110Y-102610000D01*
X147318591Y-102614085D01*
X147318591Y-102614085D01*
G37*
G36*
X145794591Y-102614085D02*
G01*
X145828569Y-102624393D01*
X145859890Y-102641134D01*
X145887339Y-102663661D01*
X145909866Y-102691110D01*
X145926607Y-102722431D01*
X145936915Y-102756409D01*
X145941000Y-102797890D01*
X145941000Y-103399110D01*
X145936915Y-103440591D01*
X145926607Y-103474569D01*
X145909866Y-103505890D01*
X145887339Y-103533339D01*
X145859890Y-103555866D01*
X145828569Y-103572607D01*
X145794591Y-103582915D01*
X145753110Y-103587000D01*
X145076890Y-103587000D01*
X145035409Y-103582915D01*
X145001431Y-103572607D01*
X144970110Y-103555866D01*
X144942661Y-103533339D01*
X144920134Y-103505890D01*
X144903393Y-103474569D01*
X144893085Y-103440591D01*
X144889000Y-103399110D01*
X144889000Y-102797890D01*
X144893085Y-102756409D01*
X144903393Y-102722431D01*
X144920134Y-102691110D01*
X144942661Y-102663661D01*
X144970110Y-102641134D01*
X145001431Y-102624393D01*
X145035409Y-102614085D01*
X145076890Y-102610000D01*
X145753110Y-102610000D01*
X145794591Y-102614085D01*
X145794591Y-102614085D01*
G37*
G36*
X148969591Y-102614085D02*
G01*
X149003569Y-102624393D01*
X149034890Y-102641134D01*
X149062339Y-102663661D01*
X149084866Y-102691110D01*
X149101607Y-102722431D01*
X149111915Y-102756409D01*
X149116000Y-102797890D01*
X149116000Y-103399110D01*
X149111915Y-103440591D01*
X149101607Y-103474569D01*
X149084866Y-103505890D01*
X149062339Y-103533339D01*
X149034890Y-103555866D01*
X149003569Y-103572607D01*
X148969591Y-103582915D01*
X148928110Y-103587000D01*
X148251890Y-103587000D01*
X148210409Y-103582915D01*
X148176431Y-103572607D01*
X148145110Y-103555866D01*
X148117661Y-103533339D01*
X148095134Y-103505890D01*
X148078393Y-103474569D01*
X148068085Y-103440591D01*
X148064000Y-103399110D01*
X148064000Y-102797890D01*
X148068085Y-102756409D01*
X148078393Y-102722431D01*
X148095134Y-102691110D01*
X148117661Y-102663661D01*
X148145110Y-102641134D01*
X148176431Y-102624393D01*
X148210409Y-102614085D01*
X148251890Y-102610000D01*
X148928110Y-102610000D01*
X148969591Y-102614085D01*
X148969591Y-102614085D01*
G37*
G36*
X177692000Y-103556000D02*
G01*
X173990000Y-103556000D01*
X173990000Y-102184000D01*
X177692000Y-102184000D01*
X177692000Y-103556000D01*
X177692000Y-103556000D01*
G37*
G36*
X150620591Y-102538085D02*
G01*
X150654569Y-102548393D01*
X150685890Y-102565134D01*
X150713339Y-102587661D01*
X150735866Y-102615110D01*
X150752607Y-102646431D01*
X150762915Y-102680409D01*
X150767000Y-102721890D01*
X150767000Y-103323110D01*
X150762915Y-103364591D01*
X150752607Y-103398569D01*
X150735866Y-103429890D01*
X150713339Y-103457339D01*
X150685890Y-103479866D01*
X150654569Y-103496607D01*
X150620591Y-103506915D01*
X150579110Y-103511000D01*
X149902890Y-103511000D01*
X149861409Y-103506915D01*
X149827431Y-103496607D01*
X149796110Y-103479866D01*
X149768661Y-103457339D01*
X149746134Y-103429890D01*
X149729393Y-103398569D01*
X149719085Y-103364591D01*
X149715000Y-103323110D01*
X149715000Y-102721890D01*
X149719085Y-102680409D01*
X149729393Y-102646431D01*
X149746134Y-102615110D01*
X149768661Y-102587661D01*
X149796110Y-102565134D01*
X149827431Y-102548393D01*
X149861409Y-102538085D01*
X149902890Y-102534000D01*
X150579110Y-102534000D01*
X150620591Y-102538085D01*
X150620591Y-102538085D01*
G37*
G36*
X138809591Y-102487085D02*
G01*
X138843569Y-102497393D01*
X138874890Y-102514134D01*
X138902339Y-102536661D01*
X138924866Y-102564110D01*
X138941607Y-102595431D01*
X138951915Y-102629409D01*
X138956000Y-102670890D01*
X138956000Y-103272110D01*
X138951915Y-103313591D01*
X138941607Y-103347569D01*
X138924866Y-103378890D01*
X138902339Y-103406339D01*
X138874890Y-103428866D01*
X138843569Y-103445607D01*
X138809591Y-103455915D01*
X138768110Y-103460000D01*
X138091890Y-103460000D01*
X138050409Y-103455915D01*
X138016431Y-103445607D01*
X137985110Y-103428866D01*
X137957661Y-103406339D01*
X137935134Y-103378890D01*
X137918393Y-103347569D01*
X137908085Y-103313591D01*
X137904000Y-103272110D01*
X137904000Y-102670890D01*
X137908085Y-102629409D01*
X137918393Y-102595431D01*
X137935134Y-102564110D01*
X137957661Y-102536661D01*
X137985110Y-102514134D01*
X138016431Y-102497393D01*
X138050409Y-102487085D01*
X138091890Y-102483000D01*
X138768110Y-102483000D01*
X138809591Y-102487085D01*
X138809591Y-102487085D01*
G37*
G36*
X140460591Y-102487085D02*
G01*
X140494569Y-102497393D01*
X140525890Y-102514134D01*
X140553339Y-102536661D01*
X140575866Y-102564110D01*
X140592607Y-102595431D01*
X140602915Y-102629409D01*
X140607000Y-102670890D01*
X140607000Y-103272110D01*
X140602915Y-103313591D01*
X140592607Y-103347569D01*
X140575866Y-103378890D01*
X140553339Y-103406339D01*
X140525890Y-103428866D01*
X140494569Y-103445607D01*
X140460591Y-103455915D01*
X140419110Y-103460000D01*
X139742890Y-103460000D01*
X139701409Y-103455915D01*
X139667431Y-103445607D01*
X139636110Y-103428866D01*
X139608661Y-103406339D01*
X139586134Y-103378890D01*
X139569393Y-103347569D01*
X139559085Y-103313591D01*
X139555000Y-103272110D01*
X139555000Y-102670890D01*
X139559085Y-102629409D01*
X139569393Y-102595431D01*
X139586134Y-102564110D01*
X139608661Y-102536661D01*
X139636110Y-102514134D01*
X139667431Y-102497393D01*
X139701409Y-102487085D01*
X139742890Y-102483000D01*
X140419110Y-102483000D01*
X140460591Y-102487085D01*
X140460591Y-102487085D01*
G37*
G36*
X134110591Y-102487085D02*
G01*
X134144569Y-102497393D01*
X134175890Y-102514134D01*
X134203339Y-102536661D01*
X134225866Y-102564110D01*
X134242607Y-102595431D01*
X134252915Y-102629409D01*
X134257000Y-102670890D01*
X134257000Y-103272110D01*
X134252915Y-103313591D01*
X134242607Y-103347569D01*
X134225866Y-103378890D01*
X134203339Y-103406339D01*
X134175890Y-103428866D01*
X134144569Y-103445607D01*
X134110591Y-103455915D01*
X134069110Y-103460000D01*
X133392890Y-103460000D01*
X133351409Y-103455915D01*
X133317431Y-103445607D01*
X133286110Y-103428866D01*
X133258661Y-103406339D01*
X133236134Y-103378890D01*
X133219393Y-103347569D01*
X133209085Y-103313591D01*
X133205000Y-103272110D01*
X133205000Y-102670890D01*
X133209085Y-102629409D01*
X133219393Y-102595431D01*
X133236134Y-102564110D01*
X133258661Y-102536661D01*
X133286110Y-102514134D01*
X133317431Y-102497393D01*
X133351409Y-102487085D01*
X133392890Y-102483000D01*
X134069110Y-102483000D01*
X134110591Y-102487085D01*
X134110591Y-102487085D01*
G37*
G36*
X157542591Y-102348085D02*
G01*
X157576569Y-102358393D01*
X157607890Y-102375134D01*
X157635339Y-102397661D01*
X157657866Y-102425110D01*
X157674607Y-102456431D01*
X157684915Y-102490409D01*
X157689000Y-102531890D01*
X157689000Y-103208110D01*
X157684915Y-103249591D01*
X157674607Y-103283569D01*
X157657866Y-103314890D01*
X157635339Y-103342339D01*
X157607890Y-103364866D01*
X157576569Y-103381607D01*
X157542591Y-103391915D01*
X157501110Y-103396000D01*
X156899890Y-103396000D01*
X156858409Y-103391915D01*
X156824431Y-103381607D01*
X156793110Y-103364866D01*
X156765661Y-103342339D01*
X156743134Y-103314890D01*
X156726393Y-103283569D01*
X156716085Y-103249591D01*
X156712000Y-103208110D01*
X156712000Y-102531890D01*
X156716085Y-102490409D01*
X156726393Y-102456431D01*
X156743134Y-102425110D01*
X156765661Y-102397661D01*
X156793110Y-102375134D01*
X156824431Y-102358393D01*
X156858409Y-102348085D01*
X156899890Y-102344000D01*
X157501110Y-102344000D01*
X157542591Y-102348085D01*
X157542591Y-102348085D01*
G37*
G36*
X168769591Y-102348085D02*
G01*
X168803569Y-102358393D01*
X168834890Y-102375134D01*
X168862339Y-102397661D01*
X168884866Y-102425110D01*
X168901607Y-102456431D01*
X168911915Y-102490409D01*
X168916000Y-102531890D01*
X168916000Y-103208110D01*
X168911915Y-103249591D01*
X168901607Y-103283569D01*
X168884866Y-103314890D01*
X168862339Y-103342339D01*
X168834890Y-103364866D01*
X168803569Y-103381607D01*
X168769591Y-103391915D01*
X168728110Y-103396000D01*
X168126890Y-103396000D01*
X168085409Y-103391915D01*
X168051431Y-103381607D01*
X168020110Y-103364866D01*
X167992661Y-103342339D01*
X167970134Y-103314890D01*
X167953393Y-103283569D01*
X167943085Y-103249591D01*
X167939000Y-103208110D01*
X167939000Y-102531890D01*
X167943085Y-102490409D01*
X167953393Y-102456431D01*
X167970134Y-102425110D01*
X167992661Y-102397661D01*
X168020110Y-102375134D01*
X168051431Y-102358393D01*
X168085409Y-102348085D01*
X168126890Y-102344000D01*
X168728110Y-102344000D01*
X168769591Y-102348085D01*
X168769591Y-102348085D01*
G37*
G36*
X167194591Y-102348085D02*
G01*
X167228569Y-102358393D01*
X167259890Y-102375134D01*
X167287339Y-102397661D01*
X167309866Y-102425110D01*
X167326607Y-102456431D01*
X167336915Y-102490409D01*
X167341000Y-102531890D01*
X167341000Y-103208110D01*
X167336915Y-103249591D01*
X167326607Y-103283569D01*
X167309866Y-103314890D01*
X167287339Y-103342339D01*
X167259890Y-103364866D01*
X167228569Y-103381607D01*
X167194591Y-103391915D01*
X167153110Y-103396000D01*
X166551890Y-103396000D01*
X166510409Y-103391915D01*
X166476431Y-103381607D01*
X166445110Y-103364866D01*
X166417661Y-103342339D01*
X166395134Y-103314890D01*
X166378393Y-103283569D01*
X166368085Y-103249591D01*
X166364000Y-103208110D01*
X166364000Y-102531890D01*
X166368085Y-102490409D01*
X166378393Y-102456431D01*
X166395134Y-102425110D01*
X166417661Y-102397661D01*
X166445110Y-102375134D01*
X166476431Y-102358393D01*
X166510409Y-102348085D01*
X166551890Y-102344000D01*
X167153110Y-102344000D01*
X167194591Y-102348085D01*
X167194591Y-102348085D01*
G37*
G36*
X159117591Y-102348085D02*
G01*
X159151569Y-102358393D01*
X159182890Y-102375134D01*
X159210339Y-102397661D01*
X159232866Y-102425110D01*
X159249607Y-102456431D01*
X159259915Y-102490409D01*
X159264000Y-102531890D01*
X159264000Y-103208110D01*
X159259915Y-103249591D01*
X159249607Y-103283569D01*
X159232866Y-103314890D01*
X159210339Y-103342339D01*
X159182890Y-103364866D01*
X159151569Y-103381607D01*
X159117591Y-103391915D01*
X159076110Y-103396000D01*
X158474890Y-103396000D01*
X158433409Y-103391915D01*
X158399431Y-103381607D01*
X158368110Y-103364866D01*
X158340661Y-103342339D01*
X158318134Y-103314890D01*
X158301393Y-103283569D01*
X158291085Y-103249591D01*
X158287000Y-103208110D01*
X158287000Y-102531890D01*
X158291085Y-102490409D01*
X158301393Y-102456431D01*
X158318134Y-102425110D01*
X158340661Y-102397661D01*
X158368110Y-102375134D01*
X158399431Y-102358393D01*
X158433409Y-102348085D01*
X158474890Y-102344000D01*
X159076110Y-102344000D01*
X159117591Y-102348085D01*
X159117591Y-102348085D01*
G37*
G36*
X123935443Y-100705519D02*
G01*
X124001627Y-100712037D01*
X124171466Y-100763557D01*
X124327991Y-100847222D01*
X124350567Y-100865750D01*
X124465186Y-100959814D01*
X124529729Y-101038461D01*
X124577778Y-101097009D01*
X124661443Y-101253534D01*
X124712963Y-101423373D01*
X124730359Y-101600000D01*
X124712963Y-101776627D01*
X124661443Y-101946466D01*
X124661442Y-101946468D01*
X124642430Y-101982037D01*
X124577778Y-102102991D01*
X124548448Y-102138729D01*
X124465186Y-102240186D01*
X124363729Y-102323448D01*
X124327991Y-102352778D01*
X124171466Y-102436443D01*
X124001627Y-102487963D01*
X123935442Y-102494482D01*
X123869260Y-102501000D01*
X123780740Y-102501000D01*
X123714558Y-102494482D01*
X123648373Y-102487963D01*
X123478534Y-102436443D01*
X123322009Y-102352778D01*
X123286271Y-102323448D01*
X123184814Y-102240186D01*
X123101552Y-102138729D01*
X123072222Y-102102991D01*
X123007570Y-101982037D01*
X122988558Y-101946468D01*
X122988557Y-101946466D01*
X122937037Y-101776627D01*
X122919641Y-101600000D01*
X122937037Y-101423373D01*
X122988557Y-101253534D01*
X123072222Y-101097009D01*
X123120271Y-101038461D01*
X123184814Y-100959814D01*
X123299433Y-100865750D01*
X123322009Y-100847222D01*
X123478534Y-100763557D01*
X123648373Y-100712037D01*
X123714557Y-100705519D01*
X123780740Y-100699000D01*
X123869260Y-100699000D01*
X123935443Y-100705519D01*
X123935443Y-100705519D01*
G37*
G36*
X144074000Y-102097000D02*
G01*
X141422000Y-102097000D01*
X141422000Y-100935000D01*
X144074000Y-100935000D01*
X144074000Y-102097000D01*
X144074000Y-102097000D01*
G37*
G36*
X127697591Y-100951085D02*
G01*
X127731569Y-100961393D01*
X127762890Y-100978134D01*
X127790339Y-101000661D01*
X127812866Y-101028110D01*
X127829607Y-101059431D01*
X127839915Y-101093409D01*
X127844000Y-101134890D01*
X127844000Y-101811110D01*
X127839915Y-101852591D01*
X127829607Y-101886569D01*
X127812866Y-101917890D01*
X127790339Y-101945339D01*
X127762890Y-101967866D01*
X127731569Y-101984607D01*
X127697591Y-101994915D01*
X127656110Y-101999000D01*
X127054890Y-101999000D01*
X127013409Y-101994915D01*
X126979431Y-101984607D01*
X126948110Y-101967866D01*
X126920661Y-101945339D01*
X126898134Y-101917890D01*
X126881393Y-101886569D01*
X126871085Y-101852591D01*
X126867000Y-101811110D01*
X126867000Y-101134890D01*
X126871085Y-101093409D01*
X126881393Y-101059431D01*
X126898134Y-101028110D01*
X126920661Y-101000661D01*
X126948110Y-100978134D01*
X126979431Y-100961393D01*
X127013409Y-100951085D01*
X127054890Y-100947000D01*
X127656110Y-100947000D01*
X127697591Y-100951085D01*
X127697591Y-100951085D01*
G37*
G36*
X130872591Y-100951085D02*
G01*
X130906569Y-100961393D01*
X130937890Y-100978134D01*
X130965339Y-101000661D01*
X130987866Y-101028110D01*
X131004607Y-101059431D01*
X131014915Y-101093409D01*
X131019000Y-101134890D01*
X131019000Y-101811110D01*
X131014915Y-101852591D01*
X131004607Y-101886569D01*
X130987866Y-101917890D01*
X130965339Y-101945339D01*
X130937890Y-101967866D01*
X130906569Y-101984607D01*
X130872591Y-101994915D01*
X130831110Y-101999000D01*
X130229890Y-101999000D01*
X130188409Y-101994915D01*
X130154431Y-101984607D01*
X130123110Y-101967866D01*
X130095661Y-101945339D01*
X130073134Y-101917890D01*
X130056393Y-101886569D01*
X130046085Y-101852591D01*
X130042000Y-101811110D01*
X130042000Y-101134890D01*
X130046085Y-101093409D01*
X130056393Y-101059431D01*
X130073134Y-101028110D01*
X130095661Y-101000661D01*
X130123110Y-100978134D01*
X130154431Y-100961393D01*
X130188409Y-100951085D01*
X130229890Y-100947000D01*
X130831110Y-100947000D01*
X130872591Y-100951085D01*
X130872591Y-100951085D01*
G37*
G36*
X129272591Y-100951085D02*
G01*
X129306569Y-100961393D01*
X129337890Y-100978134D01*
X129365339Y-101000661D01*
X129387866Y-101028110D01*
X129404607Y-101059431D01*
X129414915Y-101093409D01*
X129419000Y-101134890D01*
X129419000Y-101811110D01*
X129414915Y-101852591D01*
X129404607Y-101886569D01*
X129387866Y-101917890D01*
X129365339Y-101945339D01*
X129337890Y-101967866D01*
X129306569Y-101984607D01*
X129272591Y-101994915D01*
X129231110Y-101999000D01*
X128629890Y-101999000D01*
X128588409Y-101994915D01*
X128554431Y-101984607D01*
X128523110Y-101967866D01*
X128495661Y-101945339D01*
X128473134Y-101917890D01*
X128456393Y-101886569D01*
X128446085Y-101852591D01*
X128442000Y-101811110D01*
X128442000Y-101134890D01*
X128446085Y-101093409D01*
X128456393Y-101059431D01*
X128473134Y-101028110D01*
X128495661Y-101000661D01*
X128523110Y-100978134D01*
X128554431Y-100961393D01*
X128588409Y-100951085D01*
X128629890Y-100947000D01*
X129231110Y-100947000D01*
X129272591Y-100951085D01*
X129272591Y-100951085D01*
G37*
G36*
X134047591Y-100951085D02*
G01*
X134081569Y-100961393D01*
X134112890Y-100978134D01*
X134140339Y-101000661D01*
X134162866Y-101028110D01*
X134179607Y-101059431D01*
X134189915Y-101093409D01*
X134194000Y-101134890D01*
X134194000Y-101811110D01*
X134189915Y-101852591D01*
X134179607Y-101886569D01*
X134162866Y-101917890D01*
X134140339Y-101945339D01*
X134112890Y-101967866D01*
X134081569Y-101984607D01*
X134047591Y-101994915D01*
X134006110Y-101999000D01*
X133404890Y-101999000D01*
X133363409Y-101994915D01*
X133329431Y-101984607D01*
X133298110Y-101967866D01*
X133270661Y-101945339D01*
X133248134Y-101917890D01*
X133231393Y-101886569D01*
X133221085Y-101852591D01*
X133217000Y-101811110D01*
X133217000Y-101134890D01*
X133221085Y-101093409D01*
X133231393Y-101059431D01*
X133248134Y-101028110D01*
X133270661Y-101000661D01*
X133298110Y-100978134D01*
X133329431Y-100961393D01*
X133363409Y-100951085D01*
X133404890Y-100947000D01*
X134006110Y-100947000D01*
X134047591Y-100951085D01*
X134047591Y-100951085D01*
G37*
G36*
X132447591Y-100951085D02*
G01*
X132481569Y-100961393D01*
X132512890Y-100978134D01*
X132540339Y-101000661D01*
X132562866Y-101028110D01*
X132579607Y-101059431D01*
X132589915Y-101093409D01*
X132594000Y-101134890D01*
X132594000Y-101811110D01*
X132589915Y-101852591D01*
X132579607Y-101886569D01*
X132562866Y-101917890D01*
X132540339Y-101945339D01*
X132512890Y-101967866D01*
X132481569Y-101984607D01*
X132447591Y-101994915D01*
X132406110Y-101999000D01*
X131804890Y-101999000D01*
X131763409Y-101994915D01*
X131729431Y-101984607D01*
X131698110Y-101967866D01*
X131670661Y-101945339D01*
X131648134Y-101917890D01*
X131631393Y-101886569D01*
X131621085Y-101852591D01*
X131617000Y-101811110D01*
X131617000Y-101134890D01*
X131621085Y-101093409D01*
X131631393Y-101059431D01*
X131648134Y-101028110D01*
X131670661Y-101000661D01*
X131698110Y-100978134D01*
X131729431Y-100961393D01*
X131763409Y-100951085D01*
X131804890Y-100947000D01*
X132406110Y-100947000D01*
X132447591Y-100951085D01*
X132447591Y-100951085D01*
G37*
G36*
X135622591Y-100951085D02*
G01*
X135656569Y-100961393D01*
X135687890Y-100978134D01*
X135715339Y-101000661D01*
X135737866Y-101028110D01*
X135754607Y-101059431D01*
X135764915Y-101093409D01*
X135769000Y-101134890D01*
X135769000Y-101811110D01*
X135764915Y-101852591D01*
X135754607Y-101886569D01*
X135737866Y-101917890D01*
X135715339Y-101945339D01*
X135687890Y-101967866D01*
X135656569Y-101984607D01*
X135622591Y-101994915D01*
X135581110Y-101999000D01*
X134979890Y-101999000D01*
X134938409Y-101994915D01*
X134904431Y-101984607D01*
X134873110Y-101967866D01*
X134845661Y-101945339D01*
X134823134Y-101917890D01*
X134806393Y-101886569D01*
X134796085Y-101852591D01*
X134792000Y-101811110D01*
X134792000Y-101134890D01*
X134796085Y-101093409D01*
X134806393Y-101059431D01*
X134823134Y-101028110D01*
X134845661Y-101000661D01*
X134873110Y-100978134D01*
X134904431Y-100961393D01*
X134938409Y-100951085D01*
X134979890Y-100947000D01*
X135581110Y-100947000D01*
X135622591Y-100951085D01*
X135622591Y-100951085D01*
G37*
G36*
X137222591Y-100951085D02*
G01*
X137256569Y-100961393D01*
X137287890Y-100978134D01*
X137315339Y-101000661D01*
X137337866Y-101028110D01*
X137354607Y-101059431D01*
X137364915Y-101093409D01*
X137369000Y-101134890D01*
X137369000Y-101811110D01*
X137364915Y-101852591D01*
X137354607Y-101886569D01*
X137337866Y-101917890D01*
X137315339Y-101945339D01*
X137287890Y-101967866D01*
X137256569Y-101984607D01*
X137222591Y-101994915D01*
X137181110Y-101999000D01*
X136579890Y-101999000D01*
X136538409Y-101994915D01*
X136504431Y-101984607D01*
X136473110Y-101967866D01*
X136445661Y-101945339D01*
X136423134Y-101917890D01*
X136406393Y-101886569D01*
X136396085Y-101852591D01*
X136392000Y-101811110D01*
X136392000Y-101134890D01*
X136396085Y-101093409D01*
X136406393Y-101059431D01*
X136423134Y-101028110D01*
X136445661Y-101000661D01*
X136473110Y-100978134D01*
X136504431Y-100961393D01*
X136538409Y-100951085D01*
X136579890Y-100947000D01*
X137181110Y-100947000D01*
X137222591Y-100951085D01*
X137222591Y-100951085D01*
G37*
G36*
X138797591Y-100951085D02*
G01*
X138831569Y-100961393D01*
X138862890Y-100978134D01*
X138890339Y-101000661D01*
X138912866Y-101028110D01*
X138929607Y-101059431D01*
X138939915Y-101093409D01*
X138944000Y-101134890D01*
X138944000Y-101811110D01*
X138939915Y-101852591D01*
X138929607Y-101886569D01*
X138912866Y-101917890D01*
X138890339Y-101945339D01*
X138862890Y-101967866D01*
X138831569Y-101984607D01*
X138797591Y-101994915D01*
X138756110Y-101999000D01*
X138154890Y-101999000D01*
X138113409Y-101994915D01*
X138079431Y-101984607D01*
X138048110Y-101967866D01*
X138020661Y-101945339D01*
X137998134Y-101917890D01*
X137981393Y-101886569D01*
X137971085Y-101852591D01*
X137967000Y-101811110D01*
X137967000Y-101134890D01*
X137971085Y-101093409D01*
X137981393Y-101059431D01*
X137998134Y-101028110D01*
X138020661Y-101000661D01*
X138048110Y-100978134D01*
X138079431Y-100961393D01*
X138113409Y-100951085D01*
X138154890Y-100947000D01*
X138756110Y-100947000D01*
X138797591Y-100951085D01*
X138797591Y-100951085D01*
G37*
G36*
X147382591Y-100951085D02*
G01*
X147416569Y-100961393D01*
X147447890Y-100978134D01*
X147475339Y-101000661D01*
X147497866Y-101028110D01*
X147514607Y-101059431D01*
X147524915Y-101093409D01*
X147529000Y-101134890D01*
X147529000Y-101811110D01*
X147524915Y-101852591D01*
X147514607Y-101886569D01*
X147497866Y-101917890D01*
X147475339Y-101945339D01*
X147447890Y-101967866D01*
X147416569Y-101984607D01*
X147382591Y-101994915D01*
X147341110Y-101999000D01*
X146739890Y-101999000D01*
X146698409Y-101994915D01*
X146664431Y-101984607D01*
X146633110Y-101967866D01*
X146605661Y-101945339D01*
X146583134Y-101917890D01*
X146566393Y-101886569D01*
X146556085Y-101852591D01*
X146552000Y-101811110D01*
X146552000Y-101134890D01*
X146556085Y-101093409D01*
X146566393Y-101059431D01*
X146583134Y-101028110D01*
X146605661Y-101000661D01*
X146633110Y-100978134D01*
X146664431Y-100961393D01*
X146698409Y-100951085D01*
X146739890Y-100947000D01*
X147341110Y-100947000D01*
X147382591Y-100951085D01*
X147382591Y-100951085D01*
G37*
G36*
X148957591Y-100951085D02*
G01*
X148991569Y-100961393D01*
X149022890Y-100978134D01*
X149050339Y-101000661D01*
X149072866Y-101028110D01*
X149089607Y-101059431D01*
X149099915Y-101093409D01*
X149104000Y-101134890D01*
X149104000Y-101811110D01*
X149099915Y-101852591D01*
X149089607Y-101886569D01*
X149072866Y-101917890D01*
X149050339Y-101945339D01*
X149022890Y-101967866D01*
X148991569Y-101984607D01*
X148957591Y-101994915D01*
X148916110Y-101999000D01*
X148314890Y-101999000D01*
X148273409Y-101994915D01*
X148239431Y-101984607D01*
X148208110Y-101967866D01*
X148180661Y-101945339D01*
X148158134Y-101917890D01*
X148141393Y-101886569D01*
X148131085Y-101852591D01*
X148127000Y-101811110D01*
X148127000Y-101134890D01*
X148131085Y-101093409D01*
X148141393Y-101059431D01*
X148158134Y-101028110D01*
X148180661Y-101000661D01*
X148208110Y-100978134D01*
X148239431Y-100961393D01*
X148273409Y-100951085D01*
X148314890Y-100947000D01*
X148916110Y-100947000D01*
X148957591Y-100951085D01*
X148957591Y-100951085D01*
G37*
G36*
X150620591Y-100963085D02*
G01*
X150654569Y-100973393D01*
X150685890Y-100990134D01*
X150713339Y-101012661D01*
X150735866Y-101040110D01*
X150752607Y-101071431D01*
X150762915Y-101105409D01*
X150767000Y-101146890D01*
X150767000Y-101748110D01*
X150762915Y-101789591D01*
X150752607Y-101823569D01*
X150735866Y-101854890D01*
X150713339Y-101882339D01*
X150685890Y-101904866D01*
X150654569Y-101921607D01*
X150620591Y-101931915D01*
X150579110Y-101936000D01*
X149902890Y-101936000D01*
X149861409Y-101931915D01*
X149827431Y-101921607D01*
X149796110Y-101904866D01*
X149768661Y-101882339D01*
X149746134Y-101854890D01*
X149729393Y-101823569D01*
X149719085Y-101789591D01*
X149715000Y-101748110D01*
X149715000Y-101146890D01*
X149719085Y-101105409D01*
X149729393Y-101071431D01*
X149746134Y-101040110D01*
X149768661Y-101012661D01*
X149796110Y-100990134D01*
X149827431Y-100973393D01*
X149861409Y-100963085D01*
X149902890Y-100959000D01*
X150579110Y-100959000D01*
X150620591Y-100963085D01*
X150620591Y-100963085D01*
G37*
G36*
X169945787Y-94375462D02*
G01*
X170088223Y-94434461D01*
X170592029Y-94643144D01*
X171173631Y-95031758D01*
X171668242Y-95526369D01*
X172056856Y-96107971D01*
X172193558Y-96438000D01*
X172324538Y-96754213D01*
X172461000Y-97440256D01*
X172461000Y-98139744D01*
X172324538Y-98825787D01*
X172324537Y-98825789D01*
X172056856Y-99472029D01*
X171668242Y-100053631D01*
X171173631Y-100548242D01*
X170592029Y-100936856D01*
X170185352Y-101105307D01*
X169945787Y-101204538D01*
X169259744Y-101341000D01*
X168560256Y-101341000D01*
X167874213Y-101204538D01*
X167634648Y-101105307D01*
X167227971Y-100936856D01*
X166646369Y-100548242D01*
X166151758Y-100053631D01*
X165763144Y-99472029D01*
X165495463Y-98825789D01*
X165495462Y-98825787D01*
X165359000Y-98139744D01*
X165359000Y-97440256D01*
X165495462Y-96754213D01*
X165626442Y-96438000D01*
X165763144Y-96107971D01*
X166151758Y-95526369D01*
X166646369Y-95031758D01*
X167227971Y-94643144D01*
X167731777Y-94434461D01*
X167874213Y-94375462D01*
X168560256Y-94239000D01*
X169259744Y-94239000D01*
X169945787Y-94375462D01*
X169945787Y-94375462D01*
G37*
G36*
X161781443Y-99435519D02*
G01*
X161847627Y-99442037D01*
X162017466Y-99493557D01*
X162173991Y-99577222D01*
X162203860Y-99601735D01*
X162311186Y-99689814D01*
X162383317Y-99777707D01*
X162423778Y-99827009D01*
X162507443Y-99983534D01*
X162558963Y-100153373D01*
X162576359Y-100330000D01*
X162558963Y-100506627D01*
X162507443Y-100676466D01*
X162423778Y-100832991D01*
X162410912Y-100848668D01*
X162311186Y-100970186D01*
X162227991Y-101038461D01*
X162173991Y-101082778D01*
X162017466Y-101166443D01*
X161847627Y-101217963D01*
X161781443Y-101224481D01*
X161715260Y-101231000D01*
X161626740Y-101231000D01*
X161560558Y-101224482D01*
X161494373Y-101217963D01*
X161324534Y-101166443D01*
X161168009Y-101082778D01*
X161114009Y-101038461D01*
X161030814Y-100970186D01*
X160931088Y-100848668D01*
X160918222Y-100832991D01*
X160834557Y-100676466D01*
X160783037Y-100506627D01*
X160765641Y-100330000D01*
X160783037Y-100153373D01*
X160834557Y-99983534D01*
X160918222Y-99827009D01*
X160958683Y-99777707D01*
X161030814Y-99689814D01*
X161138140Y-99601735D01*
X161168009Y-99577222D01*
X161324534Y-99493557D01*
X161494373Y-99442037D01*
X161560558Y-99435518D01*
X161626740Y-99429000D01*
X161715260Y-99429000D01*
X161781443Y-99435519D01*
X161781443Y-99435519D01*
G37*
G36*
X155942591Y-100062085D02*
G01*
X155976569Y-100072393D01*
X156007890Y-100089134D01*
X156035339Y-100111661D01*
X156057866Y-100139110D01*
X156074607Y-100170431D01*
X156084915Y-100204409D01*
X156089000Y-100245890D01*
X156089000Y-100922110D01*
X156084915Y-100963591D01*
X156074607Y-100997569D01*
X156057866Y-101028890D01*
X156035339Y-101056339D01*
X156007890Y-101078866D01*
X155976569Y-101095607D01*
X155942591Y-101105915D01*
X155901110Y-101110000D01*
X155299890Y-101110000D01*
X155258409Y-101105915D01*
X155224431Y-101095607D01*
X155193110Y-101078866D01*
X155165661Y-101056339D01*
X155143134Y-101028890D01*
X155126393Y-100997569D01*
X155116085Y-100963591D01*
X155112000Y-100922110D01*
X155112000Y-100245890D01*
X155116085Y-100204409D01*
X155126393Y-100170431D01*
X155143134Y-100139110D01*
X155165661Y-100111661D01*
X155193110Y-100089134D01*
X155224431Y-100072393D01*
X155258409Y-100062085D01*
X155299890Y-100058000D01*
X155901110Y-100058000D01*
X155942591Y-100062085D01*
X155942591Y-100062085D01*
G37*
G36*
X154367591Y-100062085D02*
G01*
X154401569Y-100072393D01*
X154432890Y-100089134D01*
X154460339Y-100111661D01*
X154482866Y-100139110D01*
X154499607Y-100170431D01*
X154509915Y-100204409D01*
X154514000Y-100245890D01*
X154514000Y-100922110D01*
X154509915Y-100963591D01*
X154499607Y-100997569D01*
X154482866Y-101028890D01*
X154460339Y-101056339D01*
X154432890Y-101078866D01*
X154401569Y-101095607D01*
X154367591Y-101105915D01*
X154326110Y-101110000D01*
X153724890Y-101110000D01*
X153683409Y-101105915D01*
X153649431Y-101095607D01*
X153618110Y-101078866D01*
X153590661Y-101056339D01*
X153568134Y-101028890D01*
X153551393Y-100997569D01*
X153541085Y-100963591D01*
X153537000Y-100922110D01*
X153537000Y-100245890D01*
X153541085Y-100204409D01*
X153551393Y-100170431D01*
X153568134Y-100139110D01*
X153590661Y-100111661D01*
X153618110Y-100089134D01*
X153649431Y-100072393D01*
X153683409Y-100062085D01*
X153724890Y-100058000D01*
X154326110Y-100058000D01*
X154367591Y-100062085D01*
X154367591Y-100062085D01*
G37*
G36*
X177792000Y-100771000D02*
G01*
X173490000Y-100771000D01*
X173490000Y-99319000D01*
X177792000Y-99319000D01*
X177792000Y-100771000D01*
X177792000Y-100771000D01*
G37*
G36*
X158113591Y-99744085D02*
G01*
X158147569Y-99754393D01*
X158178890Y-99771134D01*
X158206339Y-99793661D01*
X158228866Y-99821110D01*
X158245607Y-99852431D01*
X158255915Y-99886409D01*
X158260000Y-99927890D01*
X158260000Y-100529110D01*
X158255915Y-100570591D01*
X158245607Y-100604569D01*
X158228866Y-100635890D01*
X158206339Y-100663339D01*
X158178890Y-100685866D01*
X158147569Y-100702607D01*
X158113591Y-100712915D01*
X158072110Y-100717000D01*
X157395890Y-100717000D01*
X157354409Y-100712915D01*
X157320431Y-100702607D01*
X157289110Y-100685866D01*
X157261661Y-100663339D01*
X157239134Y-100635890D01*
X157222393Y-100604569D01*
X157212085Y-100570591D01*
X157208000Y-100529110D01*
X157208000Y-99927890D01*
X157212085Y-99886409D01*
X157222393Y-99852431D01*
X157239134Y-99821110D01*
X157261661Y-99793661D01*
X157289110Y-99771134D01*
X157320431Y-99754393D01*
X157354409Y-99744085D01*
X157395890Y-99740000D01*
X158072110Y-99740000D01*
X158113591Y-99744085D01*
X158113591Y-99744085D01*
G37*
G36*
X123930178Y-98165000D02*
G01*
X124001627Y-98172037D01*
X124171466Y-98223557D01*
X124171468Y-98223558D01*
X124204099Y-98241000D01*
X124327991Y-98307222D01*
X124363729Y-98336552D01*
X124465186Y-98419814D01*
X124548448Y-98521271D01*
X124577778Y-98557009D01*
X124661443Y-98713534D01*
X124712963Y-98883373D01*
X124730359Y-99060000D01*
X124712963Y-99236627D01*
X124661443Y-99406466D01*
X124577778Y-99562991D01*
X124548448Y-99598729D01*
X124465186Y-99700186D01*
X124363729Y-99783448D01*
X124327991Y-99812778D01*
X124171466Y-99896443D01*
X124001627Y-99947963D01*
X123935443Y-99954481D01*
X123869260Y-99961000D01*
X123780740Y-99961000D01*
X123714557Y-99954481D01*
X123648373Y-99947963D01*
X123478534Y-99896443D01*
X123322009Y-99812778D01*
X123286271Y-99783448D01*
X123184814Y-99700186D01*
X123101552Y-99598729D01*
X123072222Y-99562991D01*
X122988557Y-99406466D01*
X122937037Y-99236627D01*
X122919641Y-99060000D01*
X122937037Y-98883373D01*
X122988557Y-98713534D01*
X123072222Y-98557009D01*
X123101552Y-98521271D01*
X123184814Y-98419814D01*
X123286271Y-98336552D01*
X123322009Y-98307222D01*
X123445901Y-98241000D01*
X123478532Y-98223558D01*
X123478534Y-98223557D01*
X123648373Y-98172037D01*
X123719822Y-98165000D01*
X123780740Y-98159000D01*
X123869260Y-98159000D01*
X123930178Y-98165000D01*
X123930178Y-98165000D01*
G37*
G36*
X158113591Y-98169085D02*
G01*
X158147569Y-98179393D01*
X158178890Y-98196134D01*
X158206339Y-98218661D01*
X158228866Y-98246110D01*
X158245607Y-98277431D01*
X158255915Y-98311409D01*
X158260000Y-98352890D01*
X158260000Y-98954110D01*
X158255915Y-98995591D01*
X158245607Y-99029569D01*
X158228866Y-99060890D01*
X158206339Y-99088339D01*
X158178890Y-99110866D01*
X158147569Y-99127607D01*
X158113591Y-99137915D01*
X158072110Y-99142000D01*
X157395890Y-99142000D01*
X157354409Y-99137915D01*
X157320431Y-99127607D01*
X157289110Y-99110866D01*
X157261661Y-99088339D01*
X157239134Y-99060890D01*
X157222393Y-99029569D01*
X157212085Y-98995591D01*
X157208000Y-98954110D01*
X157208000Y-98352890D01*
X157212085Y-98311409D01*
X157222393Y-98277431D01*
X157239134Y-98246110D01*
X157261661Y-98218661D01*
X157289110Y-98196134D01*
X157320431Y-98179393D01*
X157354409Y-98169085D01*
X157395890Y-98165000D01*
X158072110Y-98165000D01*
X158113591Y-98169085D01*
X158113591Y-98169085D01*
G37*
G36*
X156392000Y-99041000D02*
G01*
X154840000Y-99041000D01*
X154840000Y-96539000D01*
X156392000Y-96539000D01*
X156392000Y-99041000D01*
X156392000Y-99041000D01*
G37*
G36*
X151992000Y-99041000D02*
G01*
X150440000Y-99041000D01*
X150440000Y-96539000D01*
X151992000Y-96539000D01*
X151992000Y-99041000D01*
X151992000Y-99041000D01*
G37*
G36*
X163054591Y-97268085D02*
G01*
X163088569Y-97278393D01*
X163119890Y-97295134D01*
X163147339Y-97317661D01*
X163169866Y-97345110D01*
X163186607Y-97376431D01*
X163196915Y-97410409D01*
X163201000Y-97451890D01*
X163201000Y-98128110D01*
X163196915Y-98169591D01*
X163186607Y-98203569D01*
X163169866Y-98234890D01*
X163147339Y-98262339D01*
X163119890Y-98284866D01*
X163088569Y-98301607D01*
X163054591Y-98311915D01*
X163013110Y-98316000D01*
X162411890Y-98316000D01*
X162370409Y-98311915D01*
X162336431Y-98301607D01*
X162305110Y-98284866D01*
X162277661Y-98262339D01*
X162255134Y-98234890D01*
X162238393Y-98203569D01*
X162228085Y-98169591D01*
X162224000Y-98128110D01*
X162224000Y-97451890D01*
X162228085Y-97410409D01*
X162238393Y-97376431D01*
X162255134Y-97345110D01*
X162277661Y-97317661D01*
X162305110Y-97295134D01*
X162336431Y-97278393D01*
X162370409Y-97268085D01*
X162411890Y-97264000D01*
X163013110Y-97264000D01*
X163054591Y-97268085D01*
X163054591Y-97268085D01*
G37*
G36*
X161479591Y-97268085D02*
G01*
X161513569Y-97278393D01*
X161544890Y-97295134D01*
X161572339Y-97317661D01*
X161594866Y-97345110D01*
X161611607Y-97376431D01*
X161621915Y-97410409D01*
X161626000Y-97451890D01*
X161626000Y-98128110D01*
X161621915Y-98169591D01*
X161611607Y-98203569D01*
X161594866Y-98234890D01*
X161572339Y-98262339D01*
X161544890Y-98284866D01*
X161513569Y-98301607D01*
X161479591Y-98311915D01*
X161438110Y-98316000D01*
X160836890Y-98316000D01*
X160795409Y-98311915D01*
X160761431Y-98301607D01*
X160730110Y-98284866D01*
X160702661Y-98262339D01*
X160680134Y-98234890D01*
X160663393Y-98203569D01*
X160653085Y-98169591D01*
X160649000Y-98128110D01*
X160649000Y-97451890D01*
X160653085Y-97410409D01*
X160663393Y-97376431D01*
X160680134Y-97345110D01*
X160702661Y-97317661D01*
X160730110Y-97295134D01*
X160761431Y-97278393D01*
X160795409Y-97268085D01*
X160836890Y-97264000D01*
X161438110Y-97264000D01*
X161479591Y-97268085D01*
X161479591Y-97268085D01*
G37*
G36*
X123935442Y-95625518D02*
G01*
X124001627Y-95632037D01*
X124171466Y-95683557D01*
X124327991Y-95767222D01*
X124351285Y-95786339D01*
X124465186Y-95879814D01*
X124545981Y-95978265D01*
X124577778Y-96017009D01*
X124661443Y-96173534D01*
X124712963Y-96343373D01*
X124730359Y-96520000D01*
X124712963Y-96696627D01*
X124661443Y-96866466D01*
X124577778Y-97022991D01*
X124548448Y-97058729D01*
X124465186Y-97160186D01*
X124363729Y-97243448D01*
X124327991Y-97272778D01*
X124264999Y-97306448D01*
X124195754Y-97343461D01*
X124171466Y-97356443D01*
X124001627Y-97407963D01*
X123935442Y-97414482D01*
X123869260Y-97421000D01*
X123780740Y-97421000D01*
X123714558Y-97414482D01*
X123648373Y-97407963D01*
X123478534Y-97356443D01*
X123454247Y-97343461D01*
X123385001Y-97306448D01*
X123322009Y-97272778D01*
X123286271Y-97243448D01*
X123184814Y-97160186D01*
X123101552Y-97058729D01*
X123072222Y-97022991D01*
X122988557Y-96866466D01*
X122937037Y-96696627D01*
X122919641Y-96520000D01*
X122937037Y-96343373D01*
X122988557Y-96173534D01*
X123072222Y-96017009D01*
X123104019Y-95978265D01*
X123184814Y-95879814D01*
X123298715Y-95786339D01*
X123322009Y-95767222D01*
X123478534Y-95683557D01*
X123648373Y-95632037D01*
X123714558Y-95625518D01*
X123780740Y-95619000D01*
X123869260Y-95619000D01*
X123935442Y-95625518D01*
X123935442Y-95625518D01*
G37*
G36*
X158113591Y-96442085D02*
G01*
X158147569Y-96452393D01*
X158178890Y-96469134D01*
X158206339Y-96491661D01*
X158228866Y-96519110D01*
X158245607Y-96550431D01*
X158255915Y-96584409D01*
X158260000Y-96625890D01*
X158260000Y-97227110D01*
X158255915Y-97268591D01*
X158245607Y-97302569D01*
X158228866Y-97333890D01*
X158206339Y-97361339D01*
X158178890Y-97383866D01*
X158147569Y-97400607D01*
X158113591Y-97410915D01*
X158072110Y-97415000D01*
X157395890Y-97415000D01*
X157354409Y-97410915D01*
X157320431Y-97400607D01*
X157289110Y-97383866D01*
X157261661Y-97361339D01*
X157239134Y-97333890D01*
X157222393Y-97302569D01*
X157212085Y-97268591D01*
X157208000Y-97227110D01*
X157208000Y-96625890D01*
X157212085Y-96584409D01*
X157222393Y-96550431D01*
X157239134Y-96519110D01*
X157261661Y-96491661D01*
X157289110Y-96469134D01*
X157320431Y-96452393D01*
X157354409Y-96442085D01*
X157395890Y-96438000D01*
X158072110Y-96438000D01*
X158113591Y-96442085D01*
X158113591Y-96442085D01*
G37*
G36*
X145526556Y-94867085D02*
G01*
X145639893Y-94889629D01*
X145780206Y-94947748D01*
X145906484Y-95032125D01*
X146013875Y-95139516D01*
X146098252Y-95265794D01*
X146156371Y-95406107D01*
X146173762Y-95493539D01*
X146186000Y-95555062D01*
X146186000Y-95706938D01*
X146176840Y-95752989D01*
X146156371Y-95855893D01*
X146098252Y-95996206D01*
X146013875Y-96122484D01*
X145906484Y-96229875D01*
X145780206Y-96314252D01*
X145639893Y-96372371D01*
X145540589Y-96392124D01*
X145490938Y-96402000D01*
X145339062Y-96402000D01*
X145289411Y-96392124D01*
X145190107Y-96372371D01*
X145049794Y-96314252D01*
X144923516Y-96229875D01*
X144816125Y-96122484D01*
X144731748Y-95996206D01*
X144673629Y-95855893D01*
X144653160Y-95752989D01*
X144644000Y-95706938D01*
X144644000Y-95555062D01*
X144656238Y-95493539D01*
X144673629Y-95406107D01*
X144731748Y-95265794D01*
X144816125Y-95139516D01*
X144923516Y-95032125D01*
X145049794Y-94947748D01*
X145190107Y-94889629D01*
X145303444Y-94867085D01*
X145339062Y-94860000D01*
X145490938Y-94860000D01*
X145526556Y-94867085D01*
X145526556Y-94867085D01*
G37*
G36*
X138809591Y-95426085D02*
G01*
X138843569Y-95436393D01*
X138874890Y-95453134D01*
X138902339Y-95475661D01*
X138924866Y-95503110D01*
X138941607Y-95534431D01*
X138951915Y-95568409D01*
X138956000Y-95609890D01*
X138956000Y-96211110D01*
X138951915Y-96252591D01*
X138941607Y-96286569D01*
X138924866Y-96317890D01*
X138902339Y-96345339D01*
X138874890Y-96367866D01*
X138843569Y-96384607D01*
X138809591Y-96394915D01*
X138768110Y-96399000D01*
X138091890Y-96399000D01*
X138050409Y-96394915D01*
X138016431Y-96384607D01*
X137985110Y-96367866D01*
X137957661Y-96345339D01*
X137935134Y-96317890D01*
X137918393Y-96286569D01*
X137908085Y-96252591D01*
X137904000Y-96211110D01*
X137904000Y-95609890D01*
X137908085Y-95568409D01*
X137918393Y-95534431D01*
X137935134Y-95503110D01*
X137957661Y-95475661D01*
X137985110Y-95453134D01*
X138016431Y-95436393D01*
X138050409Y-95426085D01*
X138091890Y-95422000D01*
X138768110Y-95422000D01*
X138809591Y-95426085D01*
X138809591Y-95426085D01*
G37*
G36*
X140598000Y-96397000D02*
G01*
X139596000Y-96397000D01*
X139596000Y-95495000D01*
X140598000Y-95495000D01*
X140598000Y-96397000D01*
X140598000Y-96397000D01*
G37*
G36*
X177792000Y-96261000D02*
G01*
X173490000Y-96261000D01*
X173490000Y-94809000D01*
X177792000Y-94809000D01*
X177792000Y-96261000D01*
X177792000Y-96261000D01*
G37*
G36*
X161778412Y-94355220D02*
G01*
X161847627Y-94362037D01*
X162017466Y-94413557D01*
X162173991Y-94497222D01*
X162190979Y-94511164D01*
X162311186Y-94609814D01*
X162363221Y-94673220D01*
X162423778Y-94747009D01*
X162507443Y-94903534D01*
X162558963Y-95073373D01*
X162576359Y-95250000D01*
X162558963Y-95426627D01*
X162507443Y-95596466D01*
X162423778Y-95752991D01*
X162411082Y-95768461D01*
X162311186Y-95890186D01*
X162209729Y-95973448D01*
X162173991Y-96002778D01*
X162017466Y-96086443D01*
X161847627Y-96137963D01*
X161781443Y-96144481D01*
X161715260Y-96151000D01*
X161626740Y-96151000D01*
X161560558Y-96144482D01*
X161494373Y-96137963D01*
X161324534Y-96086443D01*
X161168009Y-96002778D01*
X161132271Y-95973448D01*
X161030814Y-95890186D01*
X160930918Y-95768461D01*
X160918222Y-95752991D01*
X160834557Y-95596466D01*
X160783037Y-95426627D01*
X160765641Y-95250000D01*
X160783037Y-95073373D01*
X160834557Y-94903534D01*
X160918222Y-94747009D01*
X160978779Y-94673220D01*
X161030814Y-94609814D01*
X161151021Y-94511164D01*
X161168009Y-94497222D01*
X161324534Y-94413557D01*
X161494373Y-94362037D01*
X161563588Y-94355220D01*
X161626740Y-94349000D01*
X161715260Y-94349000D01*
X161778412Y-94355220D01*
X161778412Y-94355220D01*
G37*
G36*
X158113591Y-94867085D02*
G01*
X158147569Y-94877393D01*
X158178890Y-94894134D01*
X158206339Y-94916661D01*
X158228866Y-94944110D01*
X158245607Y-94975431D01*
X158255915Y-95009409D01*
X158260000Y-95050890D01*
X158260000Y-95652110D01*
X158255915Y-95693591D01*
X158245607Y-95727569D01*
X158228866Y-95758890D01*
X158206339Y-95786339D01*
X158178890Y-95808866D01*
X158147569Y-95825607D01*
X158113591Y-95835915D01*
X158072110Y-95840000D01*
X157395890Y-95840000D01*
X157354409Y-95835915D01*
X157320431Y-95825607D01*
X157289110Y-95808866D01*
X157261661Y-95786339D01*
X157239134Y-95758890D01*
X157222393Y-95727569D01*
X157212085Y-95693591D01*
X157208000Y-95652110D01*
X157208000Y-95050890D01*
X157212085Y-95009409D01*
X157222393Y-94975431D01*
X157239134Y-94944110D01*
X157261661Y-94916661D01*
X157289110Y-94894134D01*
X157320431Y-94877393D01*
X157354409Y-94867085D01*
X157395890Y-94863000D01*
X158072110Y-94863000D01*
X158113591Y-94867085D01*
X158113591Y-94867085D01*
G37*
G36*
X152767591Y-94474085D02*
G01*
X152801569Y-94484393D01*
X152832890Y-94501134D01*
X152860339Y-94523661D01*
X152882866Y-94551110D01*
X152899607Y-94582431D01*
X152909915Y-94616409D01*
X152914000Y-94657890D01*
X152914000Y-95334110D01*
X152909915Y-95375591D01*
X152899607Y-95409569D01*
X152882866Y-95440890D01*
X152860339Y-95468339D01*
X152832890Y-95490866D01*
X152801569Y-95507607D01*
X152767591Y-95517915D01*
X152726110Y-95522000D01*
X152124890Y-95522000D01*
X152083409Y-95517915D01*
X152049431Y-95507607D01*
X152018110Y-95490866D01*
X151990661Y-95468339D01*
X151968134Y-95440890D01*
X151951393Y-95409569D01*
X151941085Y-95375591D01*
X151937000Y-95334110D01*
X151937000Y-94657890D01*
X151941085Y-94616409D01*
X151951393Y-94582431D01*
X151968134Y-94551110D01*
X151990661Y-94523661D01*
X152018110Y-94501134D01*
X152049431Y-94484393D01*
X152083409Y-94474085D01*
X152124890Y-94470000D01*
X152726110Y-94470000D01*
X152767591Y-94474085D01*
X152767591Y-94474085D01*
G37*
G36*
X151192591Y-94474085D02*
G01*
X151226569Y-94484393D01*
X151257890Y-94501134D01*
X151285339Y-94523661D01*
X151307866Y-94551110D01*
X151324607Y-94582431D01*
X151334915Y-94616409D01*
X151339000Y-94657890D01*
X151339000Y-95334110D01*
X151334915Y-95375591D01*
X151324607Y-95409569D01*
X151307866Y-95440890D01*
X151285339Y-95468339D01*
X151257890Y-95490866D01*
X151226569Y-95507607D01*
X151192591Y-95517915D01*
X151151110Y-95522000D01*
X150549890Y-95522000D01*
X150508409Y-95517915D01*
X150474431Y-95507607D01*
X150443110Y-95490866D01*
X150415661Y-95468339D01*
X150393134Y-95440890D01*
X150376393Y-95409569D01*
X150366085Y-95375591D01*
X150362000Y-95334110D01*
X150362000Y-94657890D01*
X150366085Y-94616409D01*
X150376393Y-94582431D01*
X150393134Y-94551110D01*
X150415661Y-94523661D01*
X150443110Y-94501134D01*
X150474431Y-94484393D01*
X150508409Y-94474085D01*
X150549890Y-94470000D01*
X151151110Y-94470000D01*
X151192591Y-94474085D01*
X151192591Y-94474085D01*
G37*
G36*
X154367591Y-94474085D02*
G01*
X154401569Y-94484393D01*
X154432890Y-94501134D01*
X154460339Y-94523661D01*
X154482866Y-94551110D01*
X154499607Y-94582431D01*
X154509915Y-94616409D01*
X154514000Y-94657890D01*
X154514000Y-95334110D01*
X154509915Y-95375591D01*
X154499607Y-95409569D01*
X154482866Y-95440890D01*
X154460339Y-95468339D01*
X154432890Y-95490866D01*
X154401569Y-95507607D01*
X154367591Y-95517915D01*
X154326110Y-95522000D01*
X153724890Y-95522000D01*
X153683409Y-95517915D01*
X153649431Y-95507607D01*
X153618110Y-95490866D01*
X153590661Y-95468339D01*
X153568134Y-95440890D01*
X153551393Y-95409569D01*
X153541085Y-95375591D01*
X153537000Y-95334110D01*
X153537000Y-94657890D01*
X153541085Y-94616409D01*
X153551393Y-94582431D01*
X153568134Y-94551110D01*
X153590661Y-94523661D01*
X153618110Y-94501134D01*
X153649431Y-94484393D01*
X153683409Y-94474085D01*
X153724890Y-94470000D01*
X154326110Y-94470000D01*
X154367591Y-94474085D01*
X154367591Y-94474085D01*
G37*
G36*
X155942591Y-94474085D02*
G01*
X155976569Y-94484393D01*
X156007890Y-94501134D01*
X156035339Y-94523661D01*
X156057866Y-94551110D01*
X156074607Y-94582431D01*
X156084915Y-94616409D01*
X156089000Y-94657890D01*
X156089000Y-95334110D01*
X156084915Y-95375591D01*
X156074607Y-95409569D01*
X156057866Y-95440890D01*
X156035339Y-95468339D01*
X156007890Y-95490866D01*
X155976569Y-95507607D01*
X155942591Y-95517915D01*
X155901110Y-95522000D01*
X155299890Y-95522000D01*
X155258409Y-95517915D01*
X155224431Y-95507607D01*
X155193110Y-95490866D01*
X155165661Y-95468339D01*
X155143134Y-95440890D01*
X155126393Y-95409569D01*
X155116085Y-95375591D01*
X155112000Y-95334110D01*
X155112000Y-94657890D01*
X155116085Y-94616409D01*
X155126393Y-94582431D01*
X155143134Y-94551110D01*
X155165661Y-94523661D01*
X155193110Y-94501134D01*
X155224431Y-94484393D01*
X155258409Y-94474085D01*
X155299890Y-94470000D01*
X155901110Y-94470000D01*
X155942591Y-94474085D01*
X155942591Y-94474085D01*
G37*
G36*
X142598000Y-95447000D02*
G01*
X141596000Y-95447000D01*
X141596000Y-94545000D01*
X142598000Y-94545000D01*
X142598000Y-95447000D01*
X142598000Y-95447000D01*
G37*
G36*
X123932412Y-93085220D02*
G01*
X124001627Y-93092037D01*
X124171466Y-93143557D01*
X124327991Y-93227222D01*
X124363729Y-93256552D01*
X124465186Y-93339814D01*
X124548448Y-93441271D01*
X124577778Y-93477009D01*
X124661443Y-93633534D01*
X124712963Y-93803373D01*
X124730359Y-93980000D01*
X124712963Y-94156627D01*
X124661443Y-94326466D01*
X124577778Y-94482991D01*
X124562888Y-94501134D01*
X124465186Y-94620186D01*
X124363729Y-94703448D01*
X124327991Y-94732778D01*
X124171466Y-94816443D01*
X124001627Y-94867963D01*
X123935443Y-94874481D01*
X123869260Y-94881000D01*
X123780740Y-94881000D01*
X123714557Y-94874481D01*
X123648373Y-94867963D01*
X123478534Y-94816443D01*
X123322009Y-94732778D01*
X123286271Y-94703448D01*
X123184814Y-94620186D01*
X123087112Y-94501134D01*
X123072222Y-94482991D01*
X122988557Y-94326466D01*
X122937037Y-94156627D01*
X122919641Y-93980000D01*
X122937037Y-93803373D01*
X122988557Y-93633534D01*
X123072222Y-93477009D01*
X123101552Y-93441271D01*
X123184814Y-93339814D01*
X123286271Y-93256552D01*
X123322009Y-93227222D01*
X123478534Y-93143557D01*
X123648373Y-93092037D01*
X123717588Y-93085220D01*
X123780740Y-93079000D01*
X123869260Y-93079000D01*
X123932412Y-93085220D01*
X123932412Y-93085220D01*
G37*
G36*
X138809591Y-93851085D02*
G01*
X138843569Y-93861393D01*
X138874890Y-93878134D01*
X138902339Y-93900661D01*
X138924866Y-93928110D01*
X138941607Y-93959431D01*
X138951915Y-93993409D01*
X138956000Y-94034890D01*
X138956000Y-94636110D01*
X138951915Y-94677591D01*
X138941607Y-94711569D01*
X138924866Y-94742890D01*
X138902339Y-94770339D01*
X138874890Y-94792866D01*
X138843569Y-94809607D01*
X138809591Y-94819915D01*
X138768110Y-94824000D01*
X138091890Y-94824000D01*
X138050409Y-94819915D01*
X138016431Y-94809607D01*
X137985110Y-94792866D01*
X137957661Y-94770339D01*
X137935134Y-94742890D01*
X137918393Y-94711569D01*
X137908085Y-94677591D01*
X137904000Y-94636110D01*
X137904000Y-94034890D01*
X137908085Y-93993409D01*
X137918393Y-93959431D01*
X137935134Y-93928110D01*
X137957661Y-93900661D01*
X137985110Y-93878134D01*
X138016431Y-93861393D01*
X138050409Y-93851085D01*
X138091890Y-93847000D01*
X138768110Y-93847000D01*
X138809591Y-93851085D01*
X138809591Y-93851085D01*
G37*
G36*
X127443591Y-93458085D02*
G01*
X127477569Y-93468393D01*
X127508890Y-93485134D01*
X127536339Y-93507661D01*
X127558866Y-93535110D01*
X127575607Y-93566431D01*
X127585915Y-93600409D01*
X127590000Y-93641890D01*
X127590000Y-94318110D01*
X127585915Y-94359591D01*
X127575607Y-94393569D01*
X127558866Y-94424890D01*
X127536339Y-94452339D01*
X127508890Y-94474866D01*
X127477569Y-94491607D01*
X127443591Y-94501915D01*
X127402110Y-94506000D01*
X126800890Y-94506000D01*
X126759409Y-94501915D01*
X126725431Y-94491607D01*
X126694110Y-94474866D01*
X126666661Y-94452339D01*
X126644134Y-94424890D01*
X126627393Y-94393569D01*
X126617085Y-94359591D01*
X126613000Y-94318110D01*
X126613000Y-93641890D01*
X126617085Y-93600409D01*
X126627393Y-93566431D01*
X126644134Y-93535110D01*
X126666661Y-93507661D01*
X126694110Y-93485134D01*
X126725431Y-93468393D01*
X126759409Y-93458085D01*
X126800890Y-93454000D01*
X127402110Y-93454000D01*
X127443591Y-93458085D01*
X127443591Y-93458085D01*
G37*
G36*
X129018591Y-93458085D02*
G01*
X129052569Y-93468393D01*
X129083890Y-93485134D01*
X129111339Y-93507661D01*
X129133866Y-93535110D01*
X129150607Y-93566431D01*
X129160915Y-93600409D01*
X129165000Y-93641890D01*
X129165000Y-94318110D01*
X129160915Y-94359591D01*
X129150607Y-94393569D01*
X129133866Y-94424890D01*
X129111339Y-94452339D01*
X129083890Y-94474866D01*
X129052569Y-94491607D01*
X129018591Y-94501915D01*
X128977110Y-94506000D01*
X128375890Y-94506000D01*
X128334409Y-94501915D01*
X128300431Y-94491607D01*
X128269110Y-94474866D01*
X128241661Y-94452339D01*
X128219134Y-94424890D01*
X128202393Y-94393569D01*
X128192085Y-94359591D01*
X128188000Y-94318110D01*
X128188000Y-93641890D01*
X128192085Y-93600409D01*
X128202393Y-93566431D01*
X128219134Y-93535110D01*
X128241661Y-93507661D01*
X128269110Y-93485134D01*
X128300431Y-93468393D01*
X128334409Y-93458085D01*
X128375890Y-93454000D01*
X128977110Y-93454000D01*
X129018591Y-93458085D01*
X129018591Y-93458085D01*
G37*
G36*
X140598000Y-94497000D02*
G01*
X139596000Y-94497000D01*
X139596000Y-93595000D01*
X140598000Y-93595000D01*
X140598000Y-94497000D01*
X140598000Y-94497000D01*
G37*
G36*
X145540589Y-92329876D02*
G01*
X145639893Y-92349629D01*
X145780206Y-92407748D01*
X145906484Y-92492125D01*
X146013875Y-92599516D01*
X146098252Y-92725794D01*
X146156371Y-92866107D01*
X146176124Y-92965411D01*
X146186000Y-93015062D01*
X146186000Y-93166938D01*
X146180451Y-93194836D01*
X146156371Y-93315893D01*
X146098252Y-93456206D01*
X146013875Y-93582484D01*
X145906484Y-93689875D01*
X145780206Y-93774252D01*
X145639893Y-93832371D01*
X145545811Y-93851085D01*
X145490938Y-93862000D01*
X145339062Y-93862000D01*
X145284189Y-93851085D01*
X145190107Y-93832371D01*
X145049794Y-93774252D01*
X144923516Y-93689875D01*
X144816125Y-93582484D01*
X144731748Y-93456206D01*
X144673629Y-93315893D01*
X144649549Y-93194836D01*
X144644000Y-93166938D01*
X144644000Y-93015062D01*
X144653876Y-92965411D01*
X144673629Y-92866107D01*
X144731748Y-92725794D01*
X144816125Y-92599516D01*
X144923516Y-92492125D01*
X145049794Y-92407748D01*
X145190107Y-92349629D01*
X145289411Y-92329876D01*
X145339062Y-92320000D01*
X145490938Y-92320000D01*
X145540589Y-92329876D01*
X145540589Y-92329876D01*
G37*
G36*
X161778412Y-91815220D02*
G01*
X161847627Y-91822037D01*
X162017466Y-91873557D01*
X162173991Y-91957222D01*
X162209729Y-91986552D01*
X162311186Y-92069814D01*
X162394448Y-92171271D01*
X162423778Y-92207009D01*
X162465610Y-92285271D01*
X162499979Y-92349569D01*
X162507443Y-92363534D01*
X162558963Y-92533373D01*
X162576359Y-92710000D01*
X162558963Y-92886627D01*
X162507443Y-93056466D01*
X162423778Y-93212991D01*
X162408746Y-93231307D01*
X162311186Y-93350186D01*
X162209729Y-93433448D01*
X162173991Y-93462778D01*
X162017466Y-93546443D01*
X161847627Y-93597963D01*
X161781442Y-93604482D01*
X161715260Y-93611000D01*
X161626740Y-93611000D01*
X161560557Y-93604481D01*
X161494373Y-93597963D01*
X161324534Y-93546443D01*
X161168009Y-93462778D01*
X161132271Y-93433448D01*
X161030814Y-93350186D01*
X160933254Y-93231307D01*
X160918222Y-93212991D01*
X160834557Y-93056466D01*
X160783037Y-92886627D01*
X160765641Y-92710000D01*
X160783037Y-92533373D01*
X160834557Y-92363534D01*
X160842022Y-92349569D01*
X160876389Y-92285272D01*
X160918222Y-92207009D01*
X160947552Y-92171271D01*
X161030814Y-92069814D01*
X161132271Y-91986552D01*
X161168009Y-91957222D01*
X161324534Y-91873557D01*
X161494373Y-91822037D01*
X161563588Y-91815220D01*
X161626740Y-91809000D01*
X161715260Y-91809000D01*
X161778412Y-91815220D01*
X161778412Y-91815220D01*
G37*
G36*
X177692000Y-93396000D02*
G01*
X173990000Y-93396000D01*
X173990000Y-92024000D01*
X177692000Y-92024000D01*
X177692000Y-93396000D01*
X177692000Y-93396000D01*
G37*
G36*
X157542591Y-92188085D02*
G01*
X157576569Y-92198393D01*
X157607890Y-92215134D01*
X157635339Y-92237661D01*
X157657866Y-92265110D01*
X157674607Y-92296431D01*
X157684915Y-92330409D01*
X157689000Y-92371890D01*
X157689000Y-93048110D01*
X157684915Y-93089591D01*
X157674607Y-93123569D01*
X157657866Y-93154890D01*
X157635339Y-93182339D01*
X157607890Y-93204866D01*
X157576569Y-93221607D01*
X157542591Y-93231915D01*
X157501110Y-93236000D01*
X156899890Y-93236000D01*
X156858409Y-93231915D01*
X156824431Y-93221607D01*
X156793110Y-93204866D01*
X156765661Y-93182339D01*
X156743134Y-93154890D01*
X156726393Y-93123569D01*
X156716085Y-93089591D01*
X156712000Y-93048110D01*
X156712000Y-92371890D01*
X156716085Y-92330409D01*
X156726393Y-92296431D01*
X156743134Y-92265110D01*
X156765661Y-92237661D01*
X156793110Y-92215134D01*
X156824431Y-92198393D01*
X156858409Y-92188085D01*
X156899890Y-92184000D01*
X157501110Y-92184000D01*
X157542591Y-92188085D01*
X157542591Y-92188085D01*
G37*
G36*
X168769591Y-92188085D02*
G01*
X168803569Y-92198393D01*
X168834890Y-92215134D01*
X168862339Y-92237661D01*
X168884866Y-92265110D01*
X168901607Y-92296431D01*
X168911915Y-92330409D01*
X168916000Y-92371890D01*
X168916000Y-93048110D01*
X168911915Y-93089591D01*
X168901607Y-93123569D01*
X168884866Y-93154890D01*
X168862339Y-93182339D01*
X168834890Y-93204866D01*
X168803569Y-93221607D01*
X168769591Y-93231915D01*
X168728110Y-93236000D01*
X168126890Y-93236000D01*
X168085409Y-93231915D01*
X168051431Y-93221607D01*
X168020110Y-93204866D01*
X167992661Y-93182339D01*
X167970134Y-93154890D01*
X167953393Y-93123569D01*
X167943085Y-93089591D01*
X167939000Y-93048110D01*
X167939000Y-92371890D01*
X167943085Y-92330409D01*
X167953393Y-92296431D01*
X167970134Y-92265110D01*
X167992661Y-92237661D01*
X168020110Y-92215134D01*
X168051431Y-92198393D01*
X168085409Y-92188085D01*
X168126890Y-92184000D01*
X168728110Y-92184000D01*
X168769591Y-92188085D01*
X168769591Y-92188085D01*
G37*
G36*
X167194591Y-92188085D02*
G01*
X167228569Y-92198393D01*
X167259890Y-92215134D01*
X167287339Y-92237661D01*
X167309866Y-92265110D01*
X167326607Y-92296431D01*
X167336915Y-92330409D01*
X167341000Y-92371890D01*
X167341000Y-93048110D01*
X167336915Y-93089591D01*
X167326607Y-93123569D01*
X167309866Y-93154890D01*
X167287339Y-93182339D01*
X167259890Y-93204866D01*
X167228569Y-93221607D01*
X167194591Y-93231915D01*
X167153110Y-93236000D01*
X166551890Y-93236000D01*
X166510409Y-93231915D01*
X166476431Y-93221607D01*
X166445110Y-93204866D01*
X166417661Y-93182339D01*
X166395134Y-93154890D01*
X166378393Y-93123569D01*
X166368085Y-93089591D01*
X166364000Y-93048110D01*
X166364000Y-92371890D01*
X166368085Y-92330409D01*
X166378393Y-92296431D01*
X166395134Y-92265110D01*
X166417661Y-92237661D01*
X166445110Y-92215134D01*
X166476431Y-92198393D01*
X166510409Y-92188085D01*
X166551890Y-92184000D01*
X167153110Y-92184000D01*
X167194591Y-92188085D01*
X167194591Y-92188085D01*
G37*
G36*
X159117591Y-92188085D02*
G01*
X159151569Y-92198393D01*
X159182890Y-92215134D01*
X159210339Y-92237661D01*
X159232866Y-92265110D01*
X159249607Y-92296431D01*
X159259915Y-92330409D01*
X159264000Y-92371890D01*
X159264000Y-93048110D01*
X159259915Y-93089591D01*
X159249607Y-93123569D01*
X159232866Y-93154890D01*
X159210339Y-93182339D01*
X159182890Y-93204866D01*
X159151569Y-93221607D01*
X159117591Y-93231915D01*
X159076110Y-93236000D01*
X158474890Y-93236000D01*
X158433409Y-93231915D01*
X158399431Y-93221607D01*
X158368110Y-93204866D01*
X158340661Y-93182339D01*
X158318134Y-93154890D01*
X158301393Y-93123569D01*
X158291085Y-93089591D01*
X158287000Y-93048110D01*
X158287000Y-92371890D01*
X158291085Y-92330409D01*
X158301393Y-92296431D01*
X158318134Y-92265110D01*
X158340661Y-92237661D01*
X158368110Y-92215134D01*
X158399431Y-92198393D01*
X158433409Y-92188085D01*
X158474890Y-92184000D01*
X159076110Y-92184000D01*
X159117591Y-92188085D01*
X159117591Y-92188085D01*
G37*
G36*
X140598000Y-92714000D02*
G01*
X139596000Y-92714000D01*
X139596000Y-91812000D01*
X140598000Y-91812000D01*
X140598000Y-92714000D01*
X140598000Y-92714000D01*
G37*
G36*
X138809591Y-91489085D02*
G01*
X138843569Y-91499393D01*
X138874890Y-91516134D01*
X138902339Y-91538661D01*
X138924866Y-91566110D01*
X138941607Y-91597431D01*
X138951915Y-91631409D01*
X138956000Y-91672890D01*
X138956000Y-92274110D01*
X138951915Y-92315591D01*
X138941607Y-92349569D01*
X138924866Y-92380890D01*
X138902339Y-92408339D01*
X138874890Y-92430866D01*
X138843569Y-92447607D01*
X138809591Y-92457915D01*
X138768110Y-92462000D01*
X138091890Y-92462000D01*
X138050409Y-92457915D01*
X138016431Y-92447607D01*
X137985110Y-92430866D01*
X137957661Y-92408339D01*
X137935134Y-92380890D01*
X137918393Y-92349569D01*
X137908085Y-92315591D01*
X137904000Y-92274110D01*
X137904000Y-91672890D01*
X137908085Y-91631409D01*
X137918393Y-91597431D01*
X137935134Y-91566110D01*
X137957661Y-91538661D01*
X137985110Y-91516134D01*
X138016431Y-91499393D01*
X138050409Y-91489085D01*
X138091890Y-91485000D01*
X138768110Y-91485000D01*
X138809591Y-91489085D01*
X138809591Y-91489085D01*
G37*
G36*
X124726000Y-92341000D02*
G01*
X122924000Y-92341000D01*
X122924000Y-90539000D01*
X124726000Y-90539000D01*
X124726000Y-92341000D01*
X124726000Y-92341000D01*
G37*
G36*
X129018591Y-90918085D02*
G01*
X129052569Y-90928393D01*
X129083890Y-90945134D01*
X129111339Y-90967661D01*
X129133866Y-90995110D01*
X129150607Y-91026431D01*
X129160915Y-91060409D01*
X129165000Y-91101890D01*
X129165000Y-91778110D01*
X129160915Y-91819591D01*
X129150607Y-91853569D01*
X129133866Y-91884890D01*
X129111339Y-91912339D01*
X129083890Y-91934866D01*
X129052569Y-91951607D01*
X129018591Y-91961915D01*
X128977110Y-91966000D01*
X128375890Y-91966000D01*
X128334409Y-91961915D01*
X128300431Y-91951607D01*
X128269110Y-91934866D01*
X128241661Y-91912339D01*
X128219134Y-91884890D01*
X128202393Y-91853569D01*
X128192085Y-91819591D01*
X128188000Y-91778110D01*
X128188000Y-91101890D01*
X128192085Y-91060409D01*
X128202393Y-91026431D01*
X128219134Y-90995110D01*
X128241661Y-90967661D01*
X128269110Y-90945134D01*
X128300431Y-90928393D01*
X128334409Y-90918085D01*
X128375890Y-90914000D01*
X128977110Y-90914000D01*
X129018591Y-90918085D01*
X129018591Y-90918085D01*
G37*
G36*
X127443591Y-90918085D02*
G01*
X127477569Y-90928393D01*
X127508890Y-90945134D01*
X127536339Y-90967661D01*
X127558866Y-90995110D01*
X127575607Y-91026431D01*
X127585915Y-91060409D01*
X127590000Y-91101890D01*
X127590000Y-91778110D01*
X127585915Y-91819591D01*
X127575607Y-91853569D01*
X127558866Y-91884890D01*
X127536339Y-91912339D01*
X127508890Y-91934866D01*
X127477569Y-91951607D01*
X127443591Y-91961915D01*
X127402110Y-91966000D01*
X126800890Y-91966000D01*
X126759409Y-91961915D01*
X126725431Y-91951607D01*
X126694110Y-91934866D01*
X126666661Y-91912339D01*
X126644134Y-91884890D01*
X126627393Y-91853569D01*
X126617085Y-91819591D01*
X126613000Y-91778110D01*
X126613000Y-91101890D01*
X126617085Y-91060409D01*
X126627393Y-91026431D01*
X126644134Y-90995110D01*
X126666661Y-90967661D01*
X126694110Y-90945134D01*
X126725431Y-90928393D01*
X126759409Y-90918085D01*
X126800890Y-90914000D01*
X127402110Y-90914000D01*
X127443591Y-90918085D01*
X127443591Y-90918085D01*
G37*
G36*
X154756000Y-91798000D02*
G01*
X153854000Y-91798000D01*
X153854000Y-90796000D01*
X154756000Y-90796000D01*
X154756000Y-91798000D01*
X154756000Y-91798000D01*
G37*
G36*
X142598000Y-91764000D02*
G01*
X141596000Y-91764000D01*
X141596000Y-90862000D01*
X142598000Y-90862000D01*
X142598000Y-91764000D01*
X142598000Y-91764000D01*
G37*
G36*
X157542591Y-90410085D02*
G01*
X157576569Y-90420393D01*
X157607890Y-90437134D01*
X157635339Y-90459661D01*
X157657866Y-90487110D01*
X157674607Y-90518431D01*
X157684915Y-90552409D01*
X157689000Y-90593890D01*
X157689000Y-91270110D01*
X157684915Y-91311591D01*
X157674607Y-91345569D01*
X157657866Y-91376890D01*
X157635339Y-91404339D01*
X157607890Y-91426866D01*
X157576569Y-91443607D01*
X157542591Y-91453915D01*
X157501110Y-91458000D01*
X156899890Y-91458000D01*
X156858409Y-91453915D01*
X156824431Y-91443607D01*
X156793110Y-91426866D01*
X156765661Y-91404339D01*
X156743134Y-91376890D01*
X156726393Y-91345569D01*
X156716085Y-91311591D01*
X156712000Y-91270110D01*
X156712000Y-90593890D01*
X156716085Y-90552409D01*
X156726393Y-90518431D01*
X156743134Y-90487110D01*
X156765661Y-90459661D01*
X156793110Y-90437134D01*
X156824431Y-90420393D01*
X156858409Y-90410085D01*
X156899890Y-90406000D01*
X157501110Y-90406000D01*
X157542591Y-90410085D01*
X157542591Y-90410085D01*
G37*
G36*
X159117591Y-90410085D02*
G01*
X159151569Y-90420393D01*
X159182890Y-90437134D01*
X159210339Y-90459661D01*
X159232866Y-90487110D01*
X159249607Y-90518431D01*
X159259915Y-90552409D01*
X159264000Y-90593890D01*
X159264000Y-91270110D01*
X159259915Y-91311591D01*
X159249607Y-91345569D01*
X159232866Y-91376890D01*
X159210339Y-91404339D01*
X159182890Y-91426866D01*
X159151569Y-91443607D01*
X159117591Y-91453915D01*
X159076110Y-91458000D01*
X158474890Y-91458000D01*
X158433409Y-91453915D01*
X158399431Y-91443607D01*
X158368110Y-91426866D01*
X158340661Y-91404339D01*
X158318134Y-91376890D01*
X158301393Y-91345569D01*
X158291085Y-91311591D01*
X158287000Y-91270110D01*
X158287000Y-90593890D01*
X158291085Y-90552409D01*
X158301393Y-90518431D01*
X158318134Y-90487110D01*
X158340661Y-90459661D01*
X158368110Y-90437134D01*
X158399431Y-90420393D01*
X158433409Y-90410085D01*
X158474890Y-90406000D01*
X159076110Y-90406000D01*
X159117591Y-90410085D01*
X159117591Y-90410085D01*
G37*
G36*
X145540589Y-89789876D02*
G01*
X145639893Y-89809629D01*
X145780206Y-89867748D01*
X145906484Y-89952125D01*
X146013875Y-90059516D01*
X146098252Y-90185794D01*
X146156371Y-90326107D01*
X146172263Y-90406000D01*
X146182937Y-90459661D01*
X146186000Y-90475063D01*
X146186000Y-90626937D01*
X146156371Y-90775893D01*
X146098252Y-90916206D01*
X146013875Y-91042484D01*
X145906484Y-91149875D01*
X145780206Y-91234252D01*
X145639893Y-91292371D01*
X145543267Y-91311591D01*
X145490938Y-91322000D01*
X145339062Y-91322000D01*
X145286733Y-91311591D01*
X145190107Y-91292371D01*
X145049794Y-91234252D01*
X144923516Y-91149875D01*
X144816125Y-91042484D01*
X144731748Y-90916206D01*
X144673629Y-90775893D01*
X144644000Y-90626937D01*
X144644000Y-90475063D01*
X144647064Y-90459661D01*
X144657737Y-90406000D01*
X144673629Y-90326107D01*
X144731748Y-90185794D01*
X144816125Y-90059516D01*
X144923516Y-89952125D01*
X145049794Y-89867748D01*
X145190107Y-89809629D01*
X145289411Y-89789876D01*
X145339062Y-89780000D01*
X145490938Y-89780000D01*
X145540589Y-89789876D01*
X145540589Y-89789876D01*
G37*
G36*
X162572000Y-91071000D02*
G01*
X160770000Y-91071000D01*
X160770000Y-89269000D01*
X162572000Y-89269000D01*
X162572000Y-91071000D01*
X162572000Y-91071000D01*
G37*
G36*
X166480443Y-89275519D02*
G01*
X166546627Y-89282037D01*
X166716466Y-89333557D01*
X166872991Y-89417222D01*
X166895567Y-89435750D01*
X167010186Y-89529814D01*
X167066874Y-89598890D01*
X167122778Y-89667009D01*
X167206443Y-89823534D01*
X167257963Y-89993373D01*
X167275359Y-90170000D01*
X167257963Y-90346627D01*
X167206443Y-90516466D01*
X167122778Y-90672991D01*
X167093448Y-90708729D01*
X167010186Y-90810186D01*
X166922305Y-90882307D01*
X166872991Y-90922778D01*
X166716466Y-91006443D01*
X166546627Y-91057963D01*
X166480442Y-91064482D01*
X166414260Y-91071000D01*
X166325740Y-91071000D01*
X166259558Y-91064482D01*
X166193373Y-91057963D01*
X166023534Y-91006443D01*
X165867009Y-90922778D01*
X165817695Y-90882307D01*
X165729814Y-90810186D01*
X165646552Y-90708729D01*
X165617222Y-90672991D01*
X165533557Y-90516466D01*
X165482037Y-90346627D01*
X165464641Y-90170000D01*
X165482037Y-89993373D01*
X165533557Y-89823534D01*
X165617222Y-89667009D01*
X165673126Y-89598890D01*
X165729814Y-89529814D01*
X165844433Y-89435750D01*
X165867009Y-89417222D01*
X166023534Y-89333557D01*
X166193373Y-89282037D01*
X166259557Y-89275519D01*
X166325740Y-89269000D01*
X166414260Y-89269000D01*
X166480443Y-89275519D01*
X166480443Y-89275519D01*
G37*
G36*
X169811000Y-91071000D02*
G01*
X168009000Y-91071000D01*
X168009000Y-89269000D01*
X169811000Y-89269000D01*
X169811000Y-91071000D01*
X169811000Y-91071000D01*
G37*
G36*
X138809591Y-89914085D02*
G01*
X138843569Y-89924393D01*
X138874890Y-89941134D01*
X138902339Y-89963661D01*
X138924866Y-89991110D01*
X138941607Y-90022431D01*
X138951915Y-90056409D01*
X138956000Y-90097890D01*
X138956000Y-90699110D01*
X138951915Y-90740591D01*
X138941607Y-90774569D01*
X138924866Y-90805890D01*
X138902339Y-90833339D01*
X138874890Y-90855866D01*
X138843569Y-90872607D01*
X138809591Y-90882915D01*
X138768110Y-90887000D01*
X138091890Y-90887000D01*
X138050409Y-90882915D01*
X138016431Y-90872607D01*
X137985110Y-90855866D01*
X137957661Y-90833339D01*
X137935134Y-90805890D01*
X137918393Y-90774569D01*
X137908085Y-90740591D01*
X137904000Y-90699110D01*
X137904000Y-90097890D01*
X137908085Y-90056409D01*
X137918393Y-90022431D01*
X137935134Y-89991110D01*
X137957661Y-89963661D01*
X137985110Y-89941134D01*
X138016431Y-89924393D01*
X138050409Y-89914085D01*
X138091890Y-89910000D01*
X138768110Y-89910000D01*
X138809591Y-89914085D01*
X138809591Y-89914085D01*
G37*
G36*
X140598000Y-90814000D02*
G01*
X139596000Y-90814000D01*
X139596000Y-89912000D01*
X140598000Y-89912000D01*
X140598000Y-90814000D01*
X140598000Y-90814000D01*
G37*
G36*
X177792000Y-90611000D02*
G01*
X173490000Y-90611000D01*
X173490000Y-89159000D01*
X177792000Y-89159000D01*
X177792000Y-90611000D01*
X177792000Y-90611000D01*
G37*
G36*
X153806000Y-89798000D02*
G01*
X152904000Y-89798000D01*
X152904000Y-88796000D01*
X153806000Y-88796000D01*
X153806000Y-89798000D01*
X153806000Y-89798000D01*
G37*
G36*
X155706000Y-89798000D02*
G01*
X154804000Y-89798000D01*
X154804000Y-88796000D01*
X155706000Y-88796000D01*
X155706000Y-89798000D01*
X155706000Y-89798000D01*
G37*
G36*
X157542591Y-88632085D02*
G01*
X157576569Y-88642393D01*
X157607890Y-88659134D01*
X157635339Y-88681661D01*
X157657866Y-88709110D01*
X157674607Y-88740431D01*
X157684915Y-88774409D01*
X157689000Y-88815890D01*
X157689000Y-89492110D01*
X157684915Y-89533591D01*
X157674607Y-89567569D01*
X157657866Y-89598890D01*
X157635339Y-89626339D01*
X157607890Y-89648866D01*
X157576569Y-89665607D01*
X157542591Y-89675915D01*
X157501110Y-89680000D01*
X156899890Y-89680000D01*
X156858409Y-89675915D01*
X156824431Y-89665607D01*
X156793110Y-89648866D01*
X156765661Y-89626339D01*
X156743134Y-89598890D01*
X156726393Y-89567569D01*
X156716085Y-89533591D01*
X156712000Y-89492110D01*
X156712000Y-88815890D01*
X156716085Y-88774409D01*
X156726393Y-88740431D01*
X156743134Y-88709110D01*
X156765661Y-88681661D01*
X156793110Y-88659134D01*
X156824431Y-88642393D01*
X156858409Y-88632085D01*
X156899890Y-88628000D01*
X157501110Y-88628000D01*
X157542591Y-88632085D01*
X157542591Y-88632085D01*
G37*
G36*
X159117591Y-88632085D02*
G01*
X159151569Y-88642393D01*
X159182890Y-88659134D01*
X159210339Y-88681661D01*
X159232866Y-88709110D01*
X159249607Y-88740431D01*
X159259915Y-88774409D01*
X159264000Y-88815890D01*
X159264000Y-89492110D01*
X159259915Y-89533591D01*
X159249607Y-89567569D01*
X159232866Y-89598890D01*
X159210339Y-89626339D01*
X159182890Y-89648866D01*
X159151569Y-89665607D01*
X159117591Y-89675915D01*
X159076110Y-89680000D01*
X158474890Y-89680000D01*
X158433409Y-89675915D01*
X158399431Y-89665607D01*
X158368110Y-89648866D01*
X158340661Y-89626339D01*
X158318134Y-89598890D01*
X158301393Y-89567569D01*
X158291085Y-89533591D01*
X158287000Y-89492110D01*
X158287000Y-88815890D01*
X158291085Y-88774409D01*
X158301393Y-88740431D01*
X158318134Y-88709110D01*
X158340661Y-88681661D01*
X158368110Y-88659134D01*
X158399431Y-88642393D01*
X158433409Y-88632085D01*
X158474890Y-88628000D01*
X159076110Y-88628000D01*
X159117591Y-88632085D01*
X159117591Y-88632085D01*
G37*
G36*
X124052290Y-87290619D02*
G01*
X124116689Y-87303429D01*
X124298678Y-87378811D01*
X124462463Y-87488249D01*
X124601751Y-87627537D01*
X124711189Y-87791322D01*
X124786571Y-87973311D01*
X124825000Y-88166509D01*
X124825000Y-88363491D01*
X124786571Y-88556689D01*
X124711189Y-88738678D01*
X124601751Y-88902463D01*
X124462463Y-89041751D01*
X124298678Y-89151189D01*
X124116689Y-89226571D01*
X124052290Y-89239381D01*
X123923493Y-89265000D01*
X123726507Y-89265000D01*
X123597710Y-89239381D01*
X123533311Y-89226571D01*
X123351322Y-89151189D01*
X123187537Y-89041751D01*
X123048249Y-88902463D01*
X122938811Y-88738678D01*
X122863429Y-88556689D01*
X122825000Y-88363491D01*
X122825000Y-88166509D01*
X122863429Y-87973311D01*
X122938811Y-87791322D01*
X123048249Y-87627537D01*
X123187537Y-87488249D01*
X123351322Y-87378811D01*
X123533311Y-87303429D01*
X123597710Y-87290619D01*
X123726507Y-87265000D01*
X123923493Y-87265000D01*
X124052290Y-87290619D01*
X124052290Y-87290619D01*
G37*
G36*
X172312290Y-86655619D02*
G01*
X172376689Y-86668429D01*
X172558678Y-86743811D01*
X172722463Y-86853249D01*
X172861751Y-86992537D01*
X172971189Y-87156322D01*
X173046571Y-87338311D01*
X173085000Y-87531509D01*
X173085000Y-87728491D01*
X173046571Y-87921689D01*
X172971189Y-88103678D01*
X172861751Y-88267463D01*
X172722463Y-88406751D01*
X172558678Y-88516189D01*
X172376689Y-88591571D01*
X172312290Y-88604381D01*
X172183493Y-88630000D01*
X171986507Y-88630000D01*
X171857710Y-88604381D01*
X171793311Y-88591571D01*
X171611322Y-88516189D01*
X171447537Y-88406751D01*
X171308249Y-88267463D01*
X171198811Y-88103678D01*
X171123429Y-87921689D01*
X171085000Y-87728491D01*
X171085000Y-87531509D01*
X171123429Y-87338311D01*
X171198811Y-87156322D01*
X171308249Y-86992537D01*
X171447537Y-86853249D01*
X171611322Y-86743811D01*
X171793311Y-86668429D01*
X171857710Y-86655619D01*
X171986507Y-86630000D01*
X172183493Y-86630000D01*
X172312290Y-86655619D01*
X172312290Y-86655619D01*
G37*
M02*
