G04 #@! TF.GenerationSoftware,KiCad,Pcbnew,5.1.4-e60b266~84~ubuntu18.04.1*
G04 #@! TF.CreationDate,2019-09-09T22:27:04+10:00*
G04 #@! TF.ProjectId,comparator,636f6d70-6172-4617-946f-722e6b696361,21/06/19*
G04 #@! TF.SameCoordinates,Original*
G04 #@! TF.FileFunction,Paste,Top*
G04 #@! TF.FilePolarity,Positive*
%FSLAX46Y46*%
G04 Gerber Fmt 4.6, Leading zero omitted, Abs format (unit mm)*
G04 Created by KiCad (PCBNEW 5.1.4-e60b266~84~ubuntu18.04.1) date 2019-09-09 22:27:04*
%MOMM*%
%LPD*%
G04 APERTURE LIST*
%ADD10C,0.100000*%
%ADD11C,0.875000*%
%ADD12R,0.900000X1.200000*%
%ADD13C,1.250000*%
%ADD14R,0.800000X0.900000*%
%ADD15R,1.450000X0.450000*%
%ADD16R,0.650000X1.060000*%
%ADD17R,0.900000X0.800000*%
%ADD18R,4.200000X1.350000*%
%ADD19R,3.600000X1.270000*%
G04 APERTURE END LIST*
D10*
G36*
X144156691Y-104936053D02*
G01*
X144177926Y-104939203D01*
X144198750Y-104944419D01*
X144218962Y-104951651D01*
X144238368Y-104960830D01*
X144256781Y-104971866D01*
X144274024Y-104984654D01*
X144289930Y-104999070D01*
X144304346Y-105014976D01*
X144317134Y-105032219D01*
X144328170Y-105050632D01*
X144337349Y-105070038D01*
X144344581Y-105090250D01*
X144349797Y-105111074D01*
X144352947Y-105132309D01*
X144354000Y-105153750D01*
X144354000Y-105666250D01*
X144352947Y-105687691D01*
X144349797Y-105708926D01*
X144344581Y-105729750D01*
X144337349Y-105749962D01*
X144328170Y-105769368D01*
X144317134Y-105787781D01*
X144304346Y-105805024D01*
X144289930Y-105820930D01*
X144274024Y-105835346D01*
X144256781Y-105848134D01*
X144238368Y-105859170D01*
X144218962Y-105868349D01*
X144198750Y-105875581D01*
X144177926Y-105880797D01*
X144156691Y-105883947D01*
X144135250Y-105885000D01*
X143697750Y-105885000D01*
X143676309Y-105883947D01*
X143655074Y-105880797D01*
X143634250Y-105875581D01*
X143614038Y-105868349D01*
X143594632Y-105859170D01*
X143576219Y-105848134D01*
X143558976Y-105835346D01*
X143543070Y-105820930D01*
X143528654Y-105805024D01*
X143515866Y-105787781D01*
X143504830Y-105769368D01*
X143495651Y-105749962D01*
X143488419Y-105729750D01*
X143483203Y-105708926D01*
X143480053Y-105687691D01*
X143479000Y-105666250D01*
X143479000Y-105153750D01*
X143480053Y-105132309D01*
X143483203Y-105111074D01*
X143488419Y-105090250D01*
X143495651Y-105070038D01*
X143504830Y-105050632D01*
X143515866Y-105032219D01*
X143528654Y-105014976D01*
X143543070Y-104999070D01*
X143558976Y-104984654D01*
X143576219Y-104971866D01*
X143594632Y-104960830D01*
X143614038Y-104951651D01*
X143634250Y-104944419D01*
X143655074Y-104939203D01*
X143676309Y-104936053D01*
X143697750Y-104935000D01*
X144135250Y-104935000D01*
X144156691Y-104936053D01*
X144156691Y-104936053D01*
G37*
D11*
X143916500Y-105410000D03*
D10*
G36*
X142581691Y-104936053D02*
G01*
X142602926Y-104939203D01*
X142623750Y-104944419D01*
X142643962Y-104951651D01*
X142663368Y-104960830D01*
X142681781Y-104971866D01*
X142699024Y-104984654D01*
X142714930Y-104999070D01*
X142729346Y-105014976D01*
X142742134Y-105032219D01*
X142753170Y-105050632D01*
X142762349Y-105070038D01*
X142769581Y-105090250D01*
X142774797Y-105111074D01*
X142777947Y-105132309D01*
X142779000Y-105153750D01*
X142779000Y-105666250D01*
X142777947Y-105687691D01*
X142774797Y-105708926D01*
X142769581Y-105729750D01*
X142762349Y-105749962D01*
X142753170Y-105769368D01*
X142742134Y-105787781D01*
X142729346Y-105805024D01*
X142714930Y-105820930D01*
X142699024Y-105835346D01*
X142681781Y-105848134D01*
X142663368Y-105859170D01*
X142643962Y-105868349D01*
X142623750Y-105875581D01*
X142602926Y-105880797D01*
X142581691Y-105883947D01*
X142560250Y-105885000D01*
X142122750Y-105885000D01*
X142101309Y-105883947D01*
X142080074Y-105880797D01*
X142059250Y-105875581D01*
X142039038Y-105868349D01*
X142019632Y-105859170D01*
X142001219Y-105848134D01*
X141983976Y-105835346D01*
X141968070Y-105820930D01*
X141953654Y-105805024D01*
X141940866Y-105787781D01*
X141929830Y-105769368D01*
X141920651Y-105749962D01*
X141913419Y-105729750D01*
X141908203Y-105708926D01*
X141905053Y-105687691D01*
X141904000Y-105666250D01*
X141904000Y-105153750D01*
X141905053Y-105132309D01*
X141908203Y-105111074D01*
X141913419Y-105090250D01*
X141920651Y-105070038D01*
X141929830Y-105050632D01*
X141940866Y-105032219D01*
X141953654Y-105014976D01*
X141968070Y-104999070D01*
X141983976Y-104984654D01*
X142001219Y-104971866D01*
X142019632Y-104960830D01*
X142039038Y-104951651D01*
X142059250Y-104944419D01*
X142080074Y-104939203D01*
X142101309Y-104936053D01*
X142122750Y-104935000D01*
X142560250Y-104935000D01*
X142581691Y-104936053D01*
X142581691Y-104936053D01*
G37*
D11*
X142341500Y-105410000D03*
D10*
G36*
X135520691Y-100999053D02*
G01*
X135541926Y-101002203D01*
X135562750Y-101007419D01*
X135582962Y-101014651D01*
X135602368Y-101023830D01*
X135620781Y-101034866D01*
X135638024Y-101047654D01*
X135653930Y-101062070D01*
X135668346Y-101077976D01*
X135681134Y-101095219D01*
X135692170Y-101113632D01*
X135701349Y-101133038D01*
X135708581Y-101153250D01*
X135713797Y-101174074D01*
X135716947Y-101195309D01*
X135718000Y-101216750D01*
X135718000Y-101729250D01*
X135716947Y-101750691D01*
X135713797Y-101771926D01*
X135708581Y-101792750D01*
X135701349Y-101812962D01*
X135692170Y-101832368D01*
X135681134Y-101850781D01*
X135668346Y-101868024D01*
X135653930Y-101883930D01*
X135638024Y-101898346D01*
X135620781Y-101911134D01*
X135602368Y-101922170D01*
X135582962Y-101931349D01*
X135562750Y-101938581D01*
X135541926Y-101943797D01*
X135520691Y-101946947D01*
X135499250Y-101948000D01*
X135061750Y-101948000D01*
X135040309Y-101946947D01*
X135019074Y-101943797D01*
X134998250Y-101938581D01*
X134978038Y-101931349D01*
X134958632Y-101922170D01*
X134940219Y-101911134D01*
X134922976Y-101898346D01*
X134907070Y-101883930D01*
X134892654Y-101868024D01*
X134879866Y-101850781D01*
X134868830Y-101832368D01*
X134859651Y-101812962D01*
X134852419Y-101792750D01*
X134847203Y-101771926D01*
X134844053Y-101750691D01*
X134843000Y-101729250D01*
X134843000Y-101216750D01*
X134844053Y-101195309D01*
X134847203Y-101174074D01*
X134852419Y-101153250D01*
X134859651Y-101133038D01*
X134868830Y-101113632D01*
X134879866Y-101095219D01*
X134892654Y-101077976D01*
X134907070Y-101062070D01*
X134922976Y-101047654D01*
X134940219Y-101034866D01*
X134958632Y-101023830D01*
X134978038Y-101014651D01*
X134998250Y-101007419D01*
X135019074Y-101002203D01*
X135040309Y-100999053D01*
X135061750Y-100998000D01*
X135499250Y-100998000D01*
X135520691Y-100999053D01*
X135520691Y-100999053D01*
G37*
D11*
X135280500Y-101473000D03*
D10*
G36*
X133945691Y-100999053D02*
G01*
X133966926Y-101002203D01*
X133987750Y-101007419D01*
X134007962Y-101014651D01*
X134027368Y-101023830D01*
X134045781Y-101034866D01*
X134063024Y-101047654D01*
X134078930Y-101062070D01*
X134093346Y-101077976D01*
X134106134Y-101095219D01*
X134117170Y-101113632D01*
X134126349Y-101133038D01*
X134133581Y-101153250D01*
X134138797Y-101174074D01*
X134141947Y-101195309D01*
X134143000Y-101216750D01*
X134143000Y-101729250D01*
X134141947Y-101750691D01*
X134138797Y-101771926D01*
X134133581Y-101792750D01*
X134126349Y-101812962D01*
X134117170Y-101832368D01*
X134106134Y-101850781D01*
X134093346Y-101868024D01*
X134078930Y-101883930D01*
X134063024Y-101898346D01*
X134045781Y-101911134D01*
X134027368Y-101922170D01*
X134007962Y-101931349D01*
X133987750Y-101938581D01*
X133966926Y-101943797D01*
X133945691Y-101946947D01*
X133924250Y-101948000D01*
X133486750Y-101948000D01*
X133465309Y-101946947D01*
X133444074Y-101943797D01*
X133423250Y-101938581D01*
X133403038Y-101931349D01*
X133383632Y-101922170D01*
X133365219Y-101911134D01*
X133347976Y-101898346D01*
X133332070Y-101883930D01*
X133317654Y-101868024D01*
X133304866Y-101850781D01*
X133293830Y-101832368D01*
X133284651Y-101812962D01*
X133277419Y-101792750D01*
X133272203Y-101771926D01*
X133269053Y-101750691D01*
X133268000Y-101729250D01*
X133268000Y-101216750D01*
X133269053Y-101195309D01*
X133272203Y-101174074D01*
X133277419Y-101153250D01*
X133284651Y-101133038D01*
X133293830Y-101113632D01*
X133304866Y-101095219D01*
X133317654Y-101077976D01*
X133332070Y-101062070D01*
X133347976Y-101047654D01*
X133365219Y-101034866D01*
X133383632Y-101023830D01*
X133403038Y-101014651D01*
X133423250Y-101007419D01*
X133444074Y-101002203D01*
X133465309Y-100999053D01*
X133486750Y-100998000D01*
X133924250Y-100998000D01*
X133945691Y-100999053D01*
X133945691Y-100999053D01*
G37*
D11*
X133705500Y-101473000D03*
D12*
X127255000Y-106045000D03*
X130555000Y-106045000D03*
D10*
G36*
X130704504Y-102631204D02*
G01*
X130728773Y-102634804D01*
X130752571Y-102640765D01*
X130775671Y-102649030D01*
X130797849Y-102659520D01*
X130818893Y-102672133D01*
X130838598Y-102686747D01*
X130856777Y-102703223D01*
X130873253Y-102721402D01*
X130887867Y-102741107D01*
X130900480Y-102762151D01*
X130910970Y-102784329D01*
X130919235Y-102807429D01*
X130925196Y-102831227D01*
X130928796Y-102855496D01*
X130930000Y-102880000D01*
X130930000Y-104130000D01*
X130928796Y-104154504D01*
X130925196Y-104178773D01*
X130919235Y-104202571D01*
X130910970Y-104225671D01*
X130900480Y-104247849D01*
X130887867Y-104268893D01*
X130873253Y-104288598D01*
X130856777Y-104306777D01*
X130838598Y-104323253D01*
X130818893Y-104337867D01*
X130797849Y-104350480D01*
X130775671Y-104360970D01*
X130752571Y-104369235D01*
X130728773Y-104375196D01*
X130704504Y-104378796D01*
X130680000Y-104380000D01*
X129930000Y-104380000D01*
X129905496Y-104378796D01*
X129881227Y-104375196D01*
X129857429Y-104369235D01*
X129834329Y-104360970D01*
X129812151Y-104350480D01*
X129791107Y-104337867D01*
X129771402Y-104323253D01*
X129753223Y-104306777D01*
X129736747Y-104288598D01*
X129722133Y-104268893D01*
X129709520Y-104247849D01*
X129699030Y-104225671D01*
X129690765Y-104202571D01*
X129684804Y-104178773D01*
X129681204Y-104154504D01*
X129680000Y-104130000D01*
X129680000Y-102880000D01*
X129681204Y-102855496D01*
X129684804Y-102831227D01*
X129690765Y-102807429D01*
X129699030Y-102784329D01*
X129709520Y-102762151D01*
X129722133Y-102741107D01*
X129736747Y-102721402D01*
X129753223Y-102703223D01*
X129771402Y-102686747D01*
X129791107Y-102672133D01*
X129812151Y-102659520D01*
X129834329Y-102649030D01*
X129857429Y-102640765D01*
X129881227Y-102634804D01*
X129905496Y-102631204D01*
X129930000Y-102630000D01*
X130680000Y-102630000D01*
X130704504Y-102631204D01*
X130704504Y-102631204D01*
G37*
D13*
X130305000Y-103505000D03*
D10*
G36*
X127904504Y-102631204D02*
G01*
X127928773Y-102634804D01*
X127952571Y-102640765D01*
X127975671Y-102649030D01*
X127997849Y-102659520D01*
X128018893Y-102672133D01*
X128038598Y-102686747D01*
X128056777Y-102703223D01*
X128073253Y-102721402D01*
X128087867Y-102741107D01*
X128100480Y-102762151D01*
X128110970Y-102784329D01*
X128119235Y-102807429D01*
X128125196Y-102831227D01*
X128128796Y-102855496D01*
X128130000Y-102880000D01*
X128130000Y-104130000D01*
X128128796Y-104154504D01*
X128125196Y-104178773D01*
X128119235Y-104202571D01*
X128110970Y-104225671D01*
X128100480Y-104247849D01*
X128087867Y-104268893D01*
X128073253Y-104288598D01*
X128056777Y-104306777D01*
X128038598Y-104323253D01*
X128018893Y-104337867D01*
X127997849Y-104350480D01*
X127975671Y-104360970D01*
X127952571Y-104369235D01*
X127928773Y-104375196D01*
X127904504Y-104378796D01*
X127880000Y-104380000D01*
X127130000Y-104380000D01*
X127105496Y-104378796D01*
X127081227Y-104375196D01*
X127057429Y-104369235D01*
X127034329Y-104360970D01*
X127012151Y-104350480D01*
X126991107Y-104337867D01*
X126971402Y-104323253D01*
X126953223Y-104306777D01*
X126936747Y-104288598D01*
X126922133Y-104268893D01*
X126909520Y-104247849D01*
X126899030Y-104225671D01*
X126890765Y-104202571D01*
X126884804Y-104178773D01*
X126881204Y-104154504D01*
X126880000Y-104130000D01*
X126880000Y-102880000D01*
X126881204Y-102855496D01*
X126884804Y-102831227D01*
X126890765Y-102807429D01*
X126899030Y-102784329D01*
X126909520Y-102762151D01*
X126922133Y-102741107D01*
X126936747Y-102721402D01*
X126953223Y-102703223D01*
X126971402Y-102686747D01*
X126991107Y-102672133D01*
X127012151Y-102659520D01*
X127034329Y-102649030D01*
X127057429Y-102640765D01*
X127081227Y-102634804D01*
X127105496Y-102631204D01*
X127130000Y-102630000D01*
X127880000Y-102630000D01*
X127904504Y-102631204D01*
X127904504Y-102631204D01*
G37*
D13*
X127505000Y-103505000D03*
D10*
G36*
X133945691Y-105571053D02*
G01*
X133966926Y-105574203D01*
X133987750Y-105579419D01*
X134007962Y-105586651D01*
X134027368Y-105595830D01*
X134045781Y-105606866D01*
X134063024Y-105619654D01*
X134078930Y-105634070D01*
X134093346Y-105649976D01*
X134106134Y-105667219D01*
X134117170Y-105685632D01*
X134126349Y-105705038D01*
X134133581Y-105725250D01*
X134138797Y-105746074D01*
X134141947Y-105767309D01*
X134143000Y-105788750D01*
X134143000Y-106301250D01*
X134141947Y-106322691D01*
X134138797Y-106343926D01*
X134133581Y-106364750D01*
X134126349Y-106384962D01*
X134117170Y-106404368D01*
X134106134Y-106422781D01*
X134093346Y-106440024D01*
X134078930Y-106455930D01*
X134063024Y-106470346D01*
X134045781Y-106483134D01*
X134027368Y-106494170D01*
X134007962Y-106503349D01*
X133987750Y-106510581D01*
X133966926Y-106515797D01*
X133945691Y-106518947D01*
X133924250Y-106520000D01*
X133486750Y-106520000D01*
X133465309Y-106518947D01*
X133444074Y-106515797D01*
X133423250Y-106510581D01*
X133403038Y-106503349D01*
X133383632Y-106494170D01*
X133365219Y-106483134D01*
X133347976Y-106470346D01*
X133332070Y-106455930D01*
X133317654Y-106440024D01*
X133304866Y-106422781D01*
X133293830Y-106404368D01*
X133284651Y-106384962D01*
X133277419Y-106364750D01*
X133272203Y-106343926D01*
X133269053Y-106322691D01*
X133268000Y-106301250D01*
X133268000Y-105788750D01*
X133269053Y-105767309D01*
X133272203Y-105746074D01*
X133277419Y-105725250D01*
X133284651Y-105705038D01*
X133293830Y-105685632D01*
X133304866Y-105667219D01*
X133317654Y-105649976D01*
X133332070Y-105634070D01*
X133347976Y-105619654D01*
X133365219Y-105606866D01*
X133383632Y-105595830D01*
X133403038Y-105586651D01*
X133423250Y-105579419D01*
X133444074Y-105574203D01*
X133465309Y-105571053D01*
X133486750Y-105570000D01*
X133924250Y-105570000D01*
X133945691Y-105571053D01*
X133945691Y-105571053D01*
G37*
D11*
X133705500Y-106045000D03*
D10*
G36*
X135520691Y-105571053D02*
G01*
X135541926Y-105574203D01*
X135562750Y-105579419D01*
X135582962Y-105586651D01*
X135602368Y-105595830D01*
X135620781Y-105606866D01*
X135638024Y-105619654D01*
X135653930Y-105634070D01*
X135668346Y-105649976D01*
X135681134Y-105667219D01*
X135692170Y-105685632D01*
X135701349Y-105705038D01*
X135708581Y-105725250D01*
X135713797Y-105746074D01*
X135716947Y-105767309D01*
X135718000Y-105788750D01*
X135718000Y-106301250D01*
X135716947Y-106322691D01*
X135713797Y-106343926D01*
X135708581Y-106364750D01*
X135701349Y-106384962D01*
X135692170Y-106404368D01*
X135681134Y-106422781D01*
X135668346Y-106440024D01*
X135653930Y-106455930D01*
X135638024Y-106470346D01*
X135620781Y-106483134D01*
X135602368Y-106494170D01*
X135582962Y-106503349D01*
X135562750Y-106510581D01*
X135541926Y-106515797D01*
X135520691Y-106518947D01*
X135499250Y-106520000D01*
X135061750Y-106520000D01*
X135040309Y-106518947D01*
X135019074Y-106515797D01*
X134998250Y-106510581D01*
X134978038Y-106503349D01*
X134958632Y-106494170D01*
X134940219Y-106483134D01*
X134922976Y-106470346D01*
X134907070Y-106455930D01*
X134892654Y-106440024D01*
X134879866Y-106422781D01*
X134868830Y-106404368D01*
X134859651Y-106384962D01*
X134852419Y-106364750D01*
X134847203Y-106343926D01*
X134844053Y-106322691D01*
X134843000Y-106301250D01*
X134843000Y-105788750D01*
X134844053Y-105767309D01*
X134847203Y-105746074D01*
X134852419Y-105725250D01*
X134859651Y-105705038D01*
X134868830Y-105685632D01*
X134879866Y-105667219D01*
X134892654Y-105649976D01*
X134907070Y-105634070D01*
X134922976Y-105619654D01*
X134940219Y-105606866D01*
X134958632Y-105595830D01*
X134978038Y-105586651D01*
X134998250Y-105579419D01*
X135019074Y-105574203D01*
X135040309Y-105571053D01*
X135061750Y-105570000D01*
X135499250Y-105570000D01*
X135520691Y-105571053D01*
X135520691Y-105571053D01*
G37*
D11*
X135280500Y-106045000D03*
D10*
G36*
X154265691Y-100110053D02*
G01*
X154286926Y-100113203D01*
X154307750Y-100118419D01*
X154327962Y-100125651D01*
X154347368Y-100134830D01*
X154365781Y-100145866D01*
X154383024Y-100158654D01*
X154398930Y-100173070D01*
X154413346Y-100188976D01*
X154426134Y-100206219D01*
X154437170Y-100224632D01*
X154446349Y-100244038D01*
X154453581Y-100264250D01*
X154458797Y-100285074D01*
X154461947Y-100306309D01*
X154463000Y-100327750D01*
X154463000Y-100840250D01*
X154461947Y-100861691D01*
X154458797Y-100882926D01*
X154453581Y-100903750D01*
X154446349Y-100923962D01*
X154437170Y-100943368D01*
X154426134Y-100961781D01*
X154413346Y-100979024D01*
X154398930Y-100994930D01*
X154383024Y-101009346D01*
X154365781Y-101022134D01*
X154347368Y-101033170D01*
X154327962Y-101042349D01*
X154307750Y-101049581D01*
X154286926Y-101054797D01*
X154265691Y-101057947D01*
X154244250Y-101059000D01*
X153806750Y-101059000D01*
X153785309Y-101057947D01*
X153764074Y-101054797D01*
X153743250Y-101049581D01*
X153723038Y-101042349D01*
X153703632Y-101033170D01*
X153685219Y-101022134D01*
X153667976Y-101009346D01*
X153652070Y-100994930D01*
X153637654Y-100979024D01*
X153624866Y-100961781D01*
X153613830Y-100943368D01*
X153604651Y-100923962D01*
X153597419Y-100903750D01*
X153592203Y-100882926D01*
X153589053Y-100861691D01*
X153588000Y-100840250D01*
X153588000Y-100327750D01*
X153589053Y-100306309D01*
X153592203Y-100285074D01*
X153597419Y-100264250D01*
X153604651Y-100244038D01*
X153613830Y-100224632D01*
X153624866Y-100206219D01*
X153637654Y-100188976D01*
X153652070Y-100173070D01*
X153667976Y-100158654D01*
X153685219Y-100145866D01*
X153703632Y-100134830D01*
X153723038Y-100125651D01*
X153743250Y-100118419D01*
X153764074Y-100113203D01*
X153785309Y-100110053D01*
X153806750Y-100109000D01*
X154244250Y-100109000D01*
X154265691Y-100110053D01*
X154265691Y-100110053D01*
G37*
D11*
X154025500Y-100584000D03*
D10*
G36*
X155840691Y-100110053D02*
G01*
X155861926Y-100113203D01*
X155882750Y-100118419D01*
X155902962Y-100125651D01*
X155922368Y-100134830D01*
X155940781Y-100145866D01*
X155958024Y-100158654D01*
X155973930Y-100173070D01*
X155988346Y-100188976D01*
X156001134Y-100206219D01*
X156012170Y-100224632D01*
X156021349Y-100244038D01*
X156028581Y-100264250D01*
X156033797Y-100285074D01*
X156036947Y-100306309D01*
X156038000Y-100327750D01*
X156038000Y-100840250D01*
X156036947Y-100861691D01*
X156033797Y-100882926D01*
X156028581Y-100903750D01*
X156021349Y-100923962D01*
X156012170Y-100943368D01*
X156001134Y-100961781D01*
X155988346Y-100979024D01*
X155973930Y-100994930D01*
X155958024Y-101009346D01*
X155940781Y-101022134D01*
X155922368Y-101033170D01*
X155902962Y-101042349D01*
X155882750Y-101049581D01*
X155861926Y-101054797D01*
X155840691Y-101057947D01*
X155819250Y-101059000D01*
X155381750Y-101059000D01*
X155360309Y-101057947D01*
X155339074Y-101054797D01*
X155318250Y-101049581D01*
X155298038Y-101042349D01*
X155278632Y-101033170D01*
X155260219Y-101022134D01*
X155242976Y-101009346D01*
X155227070Y-100994930D01*
X155212654Y-100979024D01*
X155199866Y-100961781D01*
X155188830Y-100943368D01*
X155179651Y-100923962D01*
X155172419Y-100903750D01*
X155167203Y-100882926D01*
X155164053Y-100861691D01*
X155163000Y-100840250D01*
X155163000Y-100327750D01*
X155164053Y-100306309D01*
X155167203Y-100285074D01*
X155172419Y-100264250D01*
X155179651Y-100244038D01*
X155188830Y-100224632D01*
X155199866Y-100206219D01*
X155212654Y-100188976D01*
X155227070Y-100173070D01*
X155242976Y-100158654D01*
X155260219Y-100145866D01*
X155278632Y-100134830D01*
X155298038Y-100125651D01*
X155318250Y-100118419D01*
X155339074Y-100113203D01*
X155360309Y-100110053D01*
X155381750Y-100109000D01*
X155819250Y-100109000D01*
X155840691Y-100110053D01*
X155840691Y-100110053D01*
G37*
D11*
X155600500Y-100584000D03*
D10*
G36*
X154265691Y-94522053D02*
G01*
X154286926Y-94525203D01*
X154307750Y-94530419D01*
X154327962Y-94537651D01*
X154347368Y-94546830D01*
X154365781Y-94557866D01*
X154383024Y-94570654D01*
X154398930Y-94585070D01*
X154413346Y-94600976D01*
X154426134Y-94618219D01*
X154437170Y-94636632D01*
X154446349Y-94656038D01*
X154453581Y-94676250D01*
X154458797Y-94697074D01*
X154461947Y-94718309D01*
X154463000Y-94739750D01*
X154463000Y-95252250D01*
X154461947Y-95273691D01*
X154458797Y-95294926D01*
X154453581Y-95315750D01*
X154446349Y-95335962D01*
X154437170Y-95355368D01*
X154426134Y-95373781D01*
X154413346Y-95391024D01*
X154398930Y-95406930D01*
X154383024Y-95421346D01*
X154365781Y-95434134D01*
X154347368Y-95445170D01*
X154327962Y-95454349D01*
X154307750Y-95461581D01*
X154286926Y-95466797D01*
X154265691Y-95469947D01*
X154244250Y-95471000D01*
X153806750Y-95471000D01*
X153785309Y-95469947D01*
X153764074Y-95466797D01*
X153743250Y-95461581D01*
X153723038Y-95454349D01*
X153703632Y-95445170D01*
X153685219Y-95434134D01*
X153667976Y-95421346D01*
X153652070Y-95406930D01*
X153637654Y-95391024D01*
X153624866Y-95373781D01*
X153613830Y-95355368D01*
X153604651Y-95335962D01*
X153597419Y-95315750D01*
X153592203Y-95294926D01*
X153589053Y-95273691D01*
X153588000Y-95252250D01*
X153588000Y-94739750D01*
X153589053Y-94718309D01*
X153592203Y-94697074D01*
X153597419Y-94676250D01*
X153604651Y-94656038D01*
X153613830Y-94636632D01*
X153624866Y-94618219D01*
X153637654Y-94600976D01*
X153652070Y-94585070D01*
X153667976Y-94570654D01*
X153685219Y-94557866D01*
X153703632Y-94546830D01*
X153723038Y-94537651D01*
X153743250Y-94530419D01*
X153764074Y-94525203D01*
X153785309Y-94522053D01*
X153806750Y-94521000D01*
X154244250Y-94521000D01*
X154265691Y-94522053D01*
X154265691Y-94522053D01*
G37*
D11*
X154025500Y-94996000D03*
D10*
G36*
X155840691Y-94522053D02*
G01*
X155861926Y-94525203D01*
X155882750Y-94530419D01*
X155902962Y-94537651D01*
X155922368Y-94546830D01*
X155940781Y-94557866D01*
X155958024Y-94570654D01*
X155973930Y-94585070D01*
X155988346Y-94600976D01*
X156001134Y-94618219D01*
X156012170Y-94636632D01*
X156021349Y-94656038D01*
X156028581Y-94676250D01*
X156033797Y-94697074D01*
X156036947Y-94718309D01*
X156038000Y-94739750D01*
X156038000Y-95252250D01*
X156036947Y-95273691D01*
X156033797Y-95294926D01*
X156028581Y-95315750D01*
X156021349Y-95335962D01*
X156012170Y-95355368D01*
X156001134Y-95373781D01*
X155988346Y-95391024D01*
X155973930Y-95406930D01*
X155958024Y-95421346D01*
X155940781Y-95434134D01*
X155922368Y-95445170D01*
X155902962Y-95454349D01*
X155882750Y-95461581D01*
X155861926Y-95466797D01*
X155840691Y-95469947D01*
X155819250Y-95471000D01*
X155381750Y-95471000D01*
X155360309Y-95469947D01*
X155339074Y-95466797D01*
X155318250Y-95461581D01*
X155298038Y-95454349D01*
X155278632Y-95445170D01*
X155260219Y-95434134D01*
X155242976Y-95421346D01*
X155227070Y-95406930D01*
X155212654Y-95391024D01*
X155199866Y-95373781D01*
X155188830Y-95355368D01*
X155179651Y-95335962D01*
X155172419Y-95315750D01*
X155167203Y-95294926D01*
X155164053Y-95273691D01*
X155163000Y-95252250D01*
X155163000Y-94739750D01*
X155164053Y-94718309D01*
X155167203Y-94697074D01*
X155172419Y-94676250D01*
X155179651Y-94656038D01*
X155188830Y-94636632D01*
X155199866Y-94618219D01*
X155212654Y-94600976D01*
X155227070Y-94585070D01*
X155242976Y-94570654D01*
X155260219Y-94557866D01*
X155278632Y-94546830D01*
X155298038Y-94537651D01*
X155318250Y-94530419D01*
X155339074Y-94525203D01*
X155360309Y-94522053D01*
X155381750Y-94521000D01*
X155819250Y-94521000D01*
X155840691Y-94522053D01*
X155840691Y-94522053D01*
G37*
D11*
X155600500Y-94996000D03*
D10*
G36*
X140358691Y-102535053D02*
G01*
X140379926Y-102538203D01*
X140400750Y-102543419D01*
X140420962Y-102550651D01*
X140440368Y-102559830D01*
X140458781Y-102570866D01*
X140476024Y-102583654D01*
X140491930Y-102598070D01*
X140506346Y-102613976D01*
X140519134Y-102631219D01*
X140530170Y-102649632D01*
X140539349Y-102669038D01*
X140546581Y-102689250D01*
X140551797Y-102710074D01*
X140554947Y-102731309D01*
X140556000Y-102752750D01*
X140556000Y-103190250D01*
X140554947Y-103211691D01*
X140551797Y-103232926D01*
X140546581Y-103253750D01*
X140539349Y-103273962D01*
X140530170Y-103293368D01*
X140519134Y-103311781D01*
X140506346Y-103329024D01*
X140491930Y-103344930D01*
X140476024Y-103359346D01*
X140458781Y-103372134D01*
X140440368Y-103383170D01*
X140420962Y-103392349D01*
X140400750Y-103399581D01*
X140379926Y-103404797D01*
X140358691Y-103407947D01*
X140337250Y-103409000D01*
X139824750Y-103409000D01*
X139803309Y-103407947D01*
X139782074Y-103404797D01*
X139761250Y-103399581D01*
X139741038Y-103392349D01*
X139721632Y-103383170D01*
X139703219Y-103372134D01*
X139685976Y-103359346D01*
X139670070Y-103344930D01*
X139655654Y-103329024D01*
X139642866Y-103311781D01*
X139631830Y-103293368D01*
X139622651Y-103273962D01*
X139615419Y-103253750D01*
X139610203Y-103232926D01*
X139607053Y-103211691D01*
X139606000Y-103190250D01*
X139606000Y-102752750D01*
X139607053Y-102731309D01*
X139610203Y-102710074D01*
X139615419Y-102689250D01*
X139622651Y-102669038D01*
X139631830Y-102649632D01*
X139642866Y-102631219D01*
X139655654Y-102613976D01*
X139670070Y-102598070D01*
X139685976Y-102583654D01*
X139703219Y-102570866D01*
X139721632Y-102559830D01*
X139741038Y-102550651D01*
X139761250Y-102543419D01*
X139782074Y-102538203D01*
X139803309Y-102535053D01*
X139824750Y-102534000D01*
X140337250Y-102534000D01*
X140358691Y-102535053D01*
X140358691Y-102535053D01*
G37*
D11*
X140081000Y-102971500D03*
D10*
G36*
X140358691Y-104110053D02*
G01*
X140379926Y-104113203D01*
X140400750Y-104118419D01*
X140420962Y-104125651D01*
X140440368Y-104134830D01*
X140458781Y-104145866D01*
X140476024Y-104158654D01*
X140491930Y-104173070D01*
X140506346Y-104188976D01*
X140519134Y-104206219D01*
X140530170Y-104224632D01*
X140539349Y-104244038D01*
X140546581Y-104264250D01*
X140551797Y-104285074D01*
X140554947Y-104306309D01*
X140556000Y-104327750D01*
X140556000Y-104765250D01*
X140554947Y-104786691D01*
X140551797Y-104807926D01*
X140546581Y-104828750D01*
X140539349Y-104848962D01*
X140530170Y-104868368D01*
X140519134Y-104886781D01*
X140506346Y-104904024D01*
X140491930Y-104919930D01*
X140476024Y-104934346D01*
X140458781Y-104947134D01*
X140440368Y-104958170D01*
X140420962Y-104967349D01*
X140400750Y-104974581D01*
X140379926Y-104979797D01*
X140358691Y-104982947D01*
X140337250Y-104984000D01*
X139824750Y-104984000D01*
X139803309Y-104982947D01*
X139782074Y-104979797D01*
X139761250Y-104974581D01*
X139741038Y-104967349D01*
X139721632Y-104958170D01*
X139703219Y-104947134D01*
X139685976Y-104934346D01*
X139670070Y-104919930D01*
X139655654Y-104904024D01*
X139642866Y-104886781D01*
X139631830Y-104868368D01*
X139622651Y-104848962D01*
X139615419Y-104828750D01*
X139610203Y-104807926D01*
X139607053Y-104786691D01*
X139606000Y-104765250D01*
X139606000Y-104327750D01*
X139607053Y-104306309D01*
X139610203Y-104285074D01*
X139615419Y-104264250D01*
X139622651Y-104244038D01*
X139631830Y-104224632D01*
X139642866Y-104206219D01*
X139655654Y-104188976D01*
X139670070Y-104173070D01*
X139685976Y-104158654D01*
X139703219Y-104145866D01*
X139721632Y-104134830D01*
X139741038Y-104125651D01*
X139761250Y-104118419D01*
X139782074Y-104113203D01*
X139803309Y-104110053D01*
X139824750Y-104109000D01*
X140337250Y-104109000D01*
X140358691Y-104110053D01*
X140358691Y-104110053D01*
G37*
D11*
X140081000Y-104546500D03*
D10*
G36*
X127595691Y-100999053D02*
G01*
X127616926Y-101002203D01*
X127637750Y-101007419D01*
X127657962Y-101014651D01*
X127677368Y-101023830D01*
X127695781Y-101034866D01*
X127713024Y-101047654D01*
X127728930Y-101062070D01*
X127743346Y-101077976D01*
X127756134Y-101095219D01*
X127767170Y-101113632D01*
X127776349Y-101133038D01*
X127783581Y-101153250D01*
X127788797Y-101174074D01*
X127791947Y-101195309D01*
X127793000Y-101216750D01*
X127793000Y-101729250D01*
X127791947Y-101750691D01*
X127788797Y-101771926D01*
X127783581Y-101792750D01*
X127776349Y-101812962D01*
X127767170Y-101832368D01*
X127756134Y-101850781D01*
X127743346Y-101868024D01*
X127728930Y-101883930D01*
X127713024Y-101898346D01*
X127695781Y-101911134D01*
X127677368Y-101922170D01*
X127657962Y-101931349D01*
X127637750Y-101938581D01*
X127616926Y-101943797D01*
X127595691Y-101946947D01*
X127574250Y-101948000D01*
X127136750Y-101948000D01*
X127115309Y-101946947D01*
X127094074Y-101943797D01*
X127073250Y-101938581D01*
X127053038Y-101931349D01*
X127033632Y-101922170D01*
X127015219Y-101911134D01*
X126997976Y-101898346D01*
X126982070Y-101883930D01*
X126967654Y-101868024D01*
X126954866Y-101850781D01*
X126943830Y-101832368D01*
X126934651Y-101812962D01*
X126927419Y-101792750D01*
X126922203Y-101771926D01*
X126919053Y-101750691D01*
X126918000Y-101729250D01*
X126918000Y-101216750D01*
X126919053Y-101195309D01*
X126922203Y-101174074D01*
X126927419Y-101153250D01*
X126934651Y-101133038D01*
X126943830Y-101113632D01*
X126954866Y-101095219D01*
X126967654Y-101077976D01*
X126982070Y-101062070D01*
X126997976Y-101047654D01*
X127015219Y-101034866D01*
X127033632Y-101023830D01*
X127053038Y-101014651D01*
X127073250Y-101007419D01*
X127094074Y-101002203D01*
X127115309Y-100999053D01*
X127136750Y-100998000D01*
X127574250Y-100998000D01*
X127595691Y-100999053D01*
X127595691Y-100999053D01*
G37*
D11*
X127355500Y-101473000D03*
D10*
G36*
X129170691Y-100999053D02*
G01*
X129191926Y-101002203D01*
X129212750Y-101007419D01*
X129232962Y-101014651D01*
X129252368Y-101023830D01*
X129270781Y-101034866D01*
X129288024Y-101047654D01*
X129303930Y-101062070D01*
X129318346Y-101077976D01*
X129331134Y-101095219D01*
X129342170Y-101113632D01*
X129351349Y-101133038D01*
X129358581Y-101153250D01*
X129363797Y-101174074D01*
X129366947Y-101195309D01*
X129368000Y-101216750D01*
X129368000Y-101729250D01*
X129366947Y-101750691D01*
X129363797Y-101771926D01*
X129358581Y-101792750D01*
X129351349Y-101812962D01*
X129342170Y-101832368D01*
X129331134Y-101850781D01*
X129318346Y-101868024D01*
X129303930Y-101883930D01*
X129288024Y-101898346D01*
X129270781Y-101911134D01*
X129252368Y-101922170D01*
X129232962Y-101931349D01*
X129212750Y-101938581D01*
X129191926Y-101943797D01*
X129170691Y-101946947D01*
X129149250Y-101948000D01*
X128711750Y-101948000D01*
X128690309Y-101946947D01*
X128669074Y-101943797D01*
X128648250Y-101938581D01*
X128628038Y-101931349D01*
X128608632Y-101922170D01*
X128590219Y-101911134D01*
X128572976Y-101898346D01*
X128557070Y-101883930D01*
X128542654Y-101868024D01*
X128529866Y-101850781D01*
X128518830Y-101832368D01*
X128509651Y-101812962D01*
X128502419Y-101792750D01*
X128497203Y-101771926D01*
X128494053Y-101750691D01*
X128493000Y-101729250D01*
X128493000Y-101216750D01*
X128494053Y-101195309D01*
X128497203Y-101174074D01*
X128502419Y-101153250D01*
X128509651Y-101133038D01*
X128518830Y-101113632D01*
X128529866Y-101095219D01*
X128542654Y-101077976D01*
X128557070Y-101062070D01*
X128572976Y-101047654D01*
X128590219Y-101034866D01*
X128608632Y-101023830D01*
X128628038Y-101014651D01*
X128648250Y-101007419D01*
X128669074Y-101002203D01*
X128690309Y-100999053D01*
X128711750Y-100998000D01*
X129149250Y-100998000D01*
X129170691Y-100999053D01*
X129170691Y-100999053D01*
G37*
D11*
X128930500Y-101473000D03*
D10*
G36*
X134008691Y-102535053D02*
G01*
X134029926Y-102538203D01*
X134050750Y-102543419D01*
X134070962Y-102550651D01*
X134090368Y-102559830D01*
X134108781Y-102570866D01*
X134126024Y-102583654D01*
X134141930Y-102598070D01*
X134156346Y-102613976D01*
X134169134Y-102631219D01*
X134180170Y-102649632D01*
X134189349Y-102669038D01*
X134196581Y-102689250D01*
X134201797Y-102710074D01*
X134204947Y-102731309D01*
X134206000Y-102752750D01*
X134206000Y-103190250D01*
X134204947Y-103211691D01*
X134201797Y-103232926D01*
X134196581Y-103253750D01*
X134189349Y-103273962D01*
X134180170Y-103293368D01*
X134169134Y-103311781D01*
X134156346Y-103329024D01*
X134141930Y-103344930D01*
X134126024Y-103359346D01*
X134108781Y-103372134D01*
X134090368Y-103383170D01*
X134070962Y-103392349D01*
X134050750Y-103399581D01*
X134029926Y-103404797D01*
X134008691Y-103407947D01*
X133987250Y-103409000D01*
X133474750Y-103409000D01*
X133453309Y-103407947D01*
X133432074Y-103404797D01*
X133411250Y-103399581D01*
X133391038Y-103392349D01*
X133371632Y-103383170D01*
X133353219Y-103372134D01*
X133335976Y-103359346D01*
X133320070Y-103344930D01*
X133305654Y-103329024D01*
X133292866Y-103311781D01*
X133281830Y-103293368D01*
X133272651Y-103273962D01*
X133265419Y-103253750D01*
X133260203Y-103232926D01*
X133257053Y-103211691D01*
X133256000Y-103190250D01*
X133256000Y-102752750D01*
X133257053Y-102731309D01*
X133260203Y-102710074D01*
X133265419Y-102689250D01*
X133272651Y-102669038D01*
X133281830Y-102649632D01*
X133292866Y-102631219D01*
X133305654Y-102613976D01*
X133320070Y-102598070D01*
X133335976Y-102583654D01*
X133353219Y-102570866D01*
X133371632Y-102559830D01*
X133391038Y-102550651D01*
X133411250Y-102543419D01*
X133432074Y-102538203D01*
X133453309Y-102535053D01*
X133474750Y-102534000D01*
X133987250Y-102534000D01*
X134008691Y-102535053D01*
X134008691Y-102535053D01*
G37*
D11*
X133731000Y-102971500D03*
D10*
G36*
X134008691Y-104110053D02*
G01*
X134029926Y-104113203D01*
X134050750Y-104118419D01*
X134070962Y-104125651D01*
X134090368Y-104134830D01*
X134108781Y-104145866D01*
X134126024Y-104158654D01*
X134141930Y-104173070D01*
X134156346Y-104188976D01*
X134169134Y-104206219D01*
X134180170Y-104224632D01*
X134189349Y-104244038D01*
X134196581Y-104264250D01*
X134201797Y-104285074D01*
X134204947Y-104306309D01*
X134206000Y-104327750D01*
X134206000Y-104765250D01*
X134204947Y-104786691D01*
X134201797Y-104807926D01*
X134196581Y-104828750D01*
X134189349Y-104848962D01*
X134180170Y-104868368D01*
X134169134Y-104886781D01*
X134156346Y-104904024D01*
X134141930Y-104919930D01*
X134126024Y-104934346D01*
X134108781Y-104947134D01*
X134090368Y-104958170D01*
X134070962Y-104967349D01*
X134050750Y-104974581D01*
X134029926Y-104979797D01*
X134008691Y-104982947D01*
X133987250Y-104984000D01*
X133474750Y-104984000D01*
X133453309Y-104982947D01*
X133432074Y-104979797D01*
X133411250Y-104974581D01*
X133391038Y-104967349D01*
X133371632Y-104958170D01*
X133353219Y-104947134D01*
X133335976Y-104934346D01*
X133320070Y-104919930D01*
X133305654Y-104904024D01*
X133292866Y-104886781D01*
X133281830Y-104868368D01*
X133272651Y-104848962D01*
X133265419Y-104828750D01*
X133260203Y-104807926D01*
X133257053Y-104786691D01*
X133256000Y-104765250D01*
X133256000Y-104327750D01*
X133257053Y-104306309D01*
X133260203Y-104285074D01*
X133265419Y-104264250D01*
X133272651Y-104244038D01*
X133281830Y-104224632D01*
X133292866Y-104206219D01*
X133305654Y-104188976D01*
X133320070Y-104173070D01*
X133335976Y-104158654D01*
X133353219Y-104145866D01*
X133371632Y-104134830D01*
X133391038Y-104125651D01*
X133411250Y-104118419D01*
X133432074Y-104113203D01*
X133453309Y-104110053D01*
X133474750Y-104109000D01*
X133987250Y-104109000D01*
X134008691Y-104110053D01*
X134008691Y-104110053D01*
G37*
D11*
X133731000Y-104546500D03*
D10*
G36*
X130770691Y-100999053D02*
G01*
X130791926Y-101002203D01*
X130812750Y-101007419D01*
X130832962Y-101014651D01*
X130852368Y-101023830D01*
X130870781Y-101034866D01*
X130888024Y-101047654D01*
X130903930Y-101062070D01*
X130918346Y-101077976D01*
X130931134Y-101095219D01*
X130942170Y-101113632D01*
X130951349Y-101133038D01*
X130958581Y-101153250D01*
X130963797Y-101174074D01*
X130966947Y-101195309D01*
X130968000Y-101216750D01*
X130968000Y-101729250D01*
X130966947Y-101750691D01*
X130963797Y-101771926D01*
X130958581Y-101792750D01*
X130951349Y-101812962D01*
X130942170Y-101832368D01*
X130931134Y-101850781D01*
X130918346Y-101868024D01*
X130903930Y-101883930D01*
X130888024Y-101898346D01*
X130870781Y-101911134D01*
X130852368Y-101922170D01*
X130832962Y-101931349D01*
X130812750Y-101938581D01*
X130791926Y-101943797D01*
X130770691Y-101946947D01*
X130749250Y-101948000D01*
X130311750Y-101948000D01*
X130290309Y-101946947D01*
X130269074Y-101943797D01*
X130248250Y-101938581D01*
X130228038Y-101931349D01*
X130208632Y-101922170D01*
X130190219Y-101911134D01*
X130172976Y-101898346D01*
X130157070Y-101883930D01*
X130142654Y-101868024D01*
X130129866Y-101850781D01*
X130118830Y-101832368D01*
X130109651Y-101812962D01*
X130102419Y-101792750D01*
X130097203Y-101771926D01*
X130094053Y-101750691D01*
X130093000Y-101729250D01*
X130093000Y-101216750D01*
X130094053Y-101195309D01*
X130097203Y-101174074D01*
X130102419Y-101153250D01*
X130109651Y-101133038D01*
X130118830Y-101113632D01*
X130129866Y-101095219D01*
X130142654Y-101077976D01*
X130157070Y-101062070D01*
X130172976Y-101047654D01*
X130190219Y-101034866D01*
X130208632Y-101023830D01*
X130228038Y-101014651D01*
X130248250Y-101007419D01*
X130269074Y-101002203D01*
X130290309Y-100999053D01*
X130311750Y-100998000D01*
X130749250Y-100998000D01*
X130770691Y-100999053D01*
X130770691Y-100999053D01*
G37*
D11*
X130530500Y-101473000D03*
D10*
G36*
X132345691Y-100999053D02*
G01*
X132366926Y-101002203D01*
X132387750Y-101007419D01*
X132407962Y-101014651D01*
X132427368Y-101023830D01*
X132445781Y-101034866D01*
X132463024Y-101047654D01*
X132478930Y-101062070D01*
X132493346Y-101077976D01*
X132506134Y-101095219D01*
X132517170Y-101113632D01*
X132526349Y-101133038D01*
X132533581Y-101153250D01*
X132538797Y-101174074D01*
X132541947Y-101195309D01*
X132543000Y-101216750D01*
X132543000Y-101729250D01*
X132541947Y-101750691D01*
X132538797Y-101771926D01*
X132533581Y-101792750D01*
X132526349Y-101812962D01*
X132517170Y-101832368D01*
X132506134Y-101850781D01*
X132493346Y-101868024D01*
X132478930Y-101883930D01*
X132463024Y-101898346D01*
X132445781Y-101911134D01*
X132427368Y-101922170D01*
X132407962Y-101931349D01*
X132387750Y-101938581D01*
X132366926Y-101943797D01*
X132345691Y-101946947D01*
X132324250Y-101948000D01*
X131886750Y-101948000D01*
X131865309Y-101946947D01*
X131844074Y-101943797D01*
X131823250Y-101938581D01*
X131803038Y-101931349D01*
X131783632Y-101922170D01*
X131765219Y-101911134D01*
X131747976Y-101898346D01*
X131732070Y-101883930D01*
X131717654Y-101868024D01*
X131704866Y-101850781D01*
X131693830Y-101832368D01*
X131684651Y-101812962D01*
X131677419Y-101792750D01*
X131672203Y-101771926D01*
X131669053Y-101750691D01*
X131668000Y-101729250D01*
X131668000Y-101216750D01*
X131669053Y-101195309D01*
X131672203Y-101174074D01*
X131677419Y-101153250D01*
X131684651Y-101133038D01*
X131693830Y-101113632D01*
X131704866Y-101095219D01*
X131717654Y-101077976D01*
X131732070Y-101062070D01*
X131747976Y-101047654D01*
X131765219Y-101034866D01*
X131783632Y-101023830D01*
X131803038Y-101014651D01*
X131823250Y-101007419D01*
X131844074Y-101002203D01*
X131865309Y-100999053D01*
X131886750Y-100998000D01*
X132324250Y-100998000D01*
X132345691Y-100999053D01*
X132345691Y-100999053D01*
G37*
D11*
X132105500Y-101473000D03*
D10*
G36*
X157440691Y-104174053D02*
G01*
X157461926Y-104177203D01*
X157482750Y-104182419D01*
X157502962Y-104189651D01*
X157522368Y-104198830D01*
X157540781Y-104209866D01*
X157558024Y-104222654D01*
X157573930Y-104237070D01*
X157588346Y-104252976D01*
X157601134Y-104270219D01*
X157612170Y-104288632D01*
X157621349Y-104308038D01*
X157628581Y-104328250D01*
X157633797Y-104349074D01*
X157636947Y-104370309D01*
X157638000Y-104391750D01*
X157638000Y-104904250D01*
X157636947Y-104925691D01*
X157633797Y-104946926D01*
X157628581Y-104967750D01*
X157621349Y-104987962D01*
X157612170Y-105007368D01*
X157601134Y-105025781D01*
X157588346Y-105043024D01*
X157573930Y-105058930D01*
X157558024Y-105073346D01*
X157540781Y-105086134D01*
X157522368Y-105097170D01*
X157502962Y-105106349D01*
X157482750Y-105113581D01*
X157461926Y-105118797D01*
X157440691Y-105121947D01*
X157419250Y-105123000D01*
X156981750Y-105123000D01*
X156960309Y-105121947D01*
X156939074Y-105118797D01*
X156918250Y-105113581D01*
X156898038Y-105106349D01*
X156878632Y-105097170D01*
X156860219Y-105086134D01*
X156842976Y-105073346D01*
X156827070Y-105058930D01*
X156812654Y-105043024D01*
X156799866Y-105025781D01*
X156788830Y-105007368D01*
X156779651Y-104987962D01*
X156772419Y-104967750D01*
X156767203Y-104946926D01*
X156764053Y-104925691D01*
X156763000Y-104904250D01*
X156763000Y-104391750D01*
X156764053Y-104370309D01*
X156767203Y-104349074D01*
X156772419Y-104328250D01*
X156779651Y-104308038D01*
X156788830Y-104288632D01*
X156799866Y-104270219D01*
X156812654Y-104252976D01*
X156827070Y-104237070D01*
X156842976Y-104222654D01*
X156860219Y-104209866D01*
X156878632Y-104198830D01*
X156898038Y-104189651D01*
X156918250Y-104182419D01*
X156939074Y-104177203D01*
X156960309Y-104174053D01*
X156981750Y-104173000D01*
X157419250Y-104173000D01*
X157440691Y-104174053D01*
X157440691Y-104174053D01*
G37*
D11*
X157200500Y-104648000D03*
D10*
G36*
X159015691Y-104174053D02*
G01*
X159036926Y-104177203D01*
X159057750Y-104182419D01*
X159077962Y-104189651D01*
X159097368Y-104198830D01*
X159115781Y-104209866D01*
X159133024Y-104222654D01*
X159148930Y-104237070D01*
X159163346Y-104252976D01*
X159176134Y-104270219D01*
X159187170Y-104288632D01*
X159196349Y-104308038D01*
X159203581Y-104328250D01*
X159208797Y-104349074D01*
X159211947Y-104370309D01*
X159213000Y-104391750D01*
X159213000Y-104904250D01*
X159211947Y-104925691D01*
X159208797Y-104946926D01*
X159203581Y-104967750D01*
X159196349Y-104987962D01*
X159187170Y-105007368D01*
X159176134Y-105025781D01*
X159163346Y-105043024D01*
X159148930Y-105058930D01*
X159133024Y-105073346D01*
X159115781Y-105086134D01*
X159097368Y-105097170D01*
X159077962Y-105106349D01*
X159057750Y-105113581D01*
X159036926Y-105118797D01*
X159015691Y-105121947D01*
X158994250Y-105123000D01*
X158556750Y-105123000D01*
X158535309Y-105121947D01*
X158514074Y-105118797D01*
X158493250Y-105113581D01*
X158473038Y-105106349D01*
X158453632Y-105097170D01*
X158435219Y-105086134D01*
X158417976Y-105073346D01*
X158402070Y-105058930D01*
X158387654Y-105043024D01*
X158374866Y-105025781D01*
X158363830Y-105007368D01*
X158354651Y-104987962D01*
X158347419Y-104967750D01*
X158342203Y-104946926D01*
X158339053Y-104925691D01*
X158338000Y-104904250D01*
X158338000Y-104391750D01*
X158339053Y-104370309D01*
X158342203Y-104349074D01*
X158347419Y-104328250D01*
X158354651Y-104308038D01*
X158363830Y-104288632D01*
X158374866Y-104270219D01*
X158387654Y-104252976D01*
X158402070Y-104237070D01*
X158417976Y-104222654D01*
X158435219Y-104209866D01*
X158453632Y-104198830D01*
X158473038Y-104189651D01*
X158493250Y-104182419D01*
X158514074Y-104177203D01*
X158535309Y-104174053D01*
X158556750Y-104173000D01*
X158994250Y-104173000D01*
X159015691Y-104174053D01*
X159015691Y-104174053D01*
G37*
D11*
X158775500Y-104648000D03*
D10*
G36*
X157440691Y-102396053D02*
G01*
X157461926Y-102399203D01*
X157482750Y-102404419D01*
X157502962Y-102411651D01*
X157522368Y-102420830D01*
X157540781Y-102431866D01*
X157558024Y-102444654D01*
X157573930Y-102459070D01*
X157588346Y-102474976D01*
X157601134Y-102492219D01*
X157612170Y-102510632D01*
X157621349Y-102530038D01*
X157628581Y-102550250D01*
X157633797Y-102571074D01*
X157636947Y-102592309D01*
X157638000Y-102613750D01*
X157638000Y-103126250D01*
X157636947Y-103147691D01*
X157633797Y-103168926D01*
X157628581Y-103189750D01*
X157621349Y-103209962D01*
X157612170Y-103229368D01*
X157601134Y-103247781D01*
X157588346Y-103265024D01*
X157573930Y-103280930D01*
X157558024Y-103295346D01*
X157540781Y-103308134D01*
X157522368Y-103319170D01*
X157502962Y-103328349D01*
X157482750Y-103335581D01*
X157461926Y-103340797D01*
X157440691Y-103343947D01*
X157419250Y-103345000D01*
X156981750Y-103345000D01*
X156960309Y-103343947D01*
X156939074Y-103340797D01*
X156918250Y-103335581D01*
X156898038Y-103328349D01*
X156878632Y-103319170D01*
X156860219Y-103308134D01*
X156842976Y-103295346D01*
X156827070Y-103280930D01*
X156812654Y-103265024D01*
X156799866Y-103247781D01*
X156788830Y-103229368D01*
X156779651Y-103209962D01*
X156772419Y-103189750D01*
X156767203Y-103168926D01*
X156764053Y-103147691D01*
X156763000Y-103126250D01*
X156763000Y-102613750D01*
X156764053Y-102592309D01*
X156767203Y-102571074D01*
X156772419Y-102550250D01*
X156779651Y-102530038D01*
X156788830Y-102510632D01*
X156799866Y-102492219D01*
X156812654Y-102474976D01*
X156827070Y-102459070D01*
X156842976Y-102444654D01*
X156860219Y-102431866D01*
X156878632Y-102420830D01*
X156898038Y-102411651D01*
X156918250Y-102404419D01*
X156939074Y-102399203D01*
X156960309Y-102396053D01*
X156981750Y-102395000D01*
X157419250Y-102395000D01*
X157440691Y-102396053D01*
X157440691Y-102396053D01*
G37*
D11*
X157200500Y-102870000D03*
D10*
G36*
X159015691Y-102396053D02*
G01*
X159036926Y-102399203D01*
X159057750Y-102404419D01*
X159077962Y-102411651D01*
X159097368Y-102420830D01*
X159115781Y-102431866D01*
X159133024Y-102444654D01*
X159148930Y-102459070D01*
X159163346Y-102474976D01*
X159176134Y-102492219D01*
X159187170Y-102510632D01*
X159196349Y-102530038D01*
X159203581Y-102550250D01*
X159208797Y-102571074D01*
X159211947Y-102592309D01*
X159213000Y-102613750D01*
X159213000Y-103126250D01*
X159211947Y-103147691D01*
X159208797Y-103168926D01*
X159203581Y-103189750D01*
X159196349Y-103209962D01*
X159187170Y-103229368D01*
X159176134Y-103247781D01*
X159163346Y-103265024D01*
X159148930Y-103280930D01*
X159133024Y-103295346D01*
X159115781Y-103308134D01*
X159097368Y-103319170D01*
X159077962Y-103328349D01*
X159057750Y-103335581D01*
X159036926Y-103340797D01*
X159015691Y-103343947D01*
X158994250Y-103345000D01*
X158556750Y-103345000D01*
X158535309Y-103343947D01*
X158514074Y-103340797D01*
X158493250Y-103335581D01*
X158473038Y-103328349D01*
X158453632Y-103319170D01*
X158435219Y-103308134D01*
X158417976Y-103295346D01*
X158402070Y-103280930D01*
X158387654Y-103265024D01*
X158374866Y-103247781D01*
X158363830Y-103229368D01*
X158354651Y-103209962D01*
X158347419Y-103189750D01*
X158342203Y-103168926D01*
X158339053Y-103147691D01*
X158338000Y-103126250D01*
X158338000Y-102613750D01*
X158339053Y-102592309D01*
X158342203Y-102571074D01*
X158347419Y-102550250D01*
X158354651Y-102530038D01*
X158363830Y-102510632D01*
X158374866Y-102492219D01*
X158387654Y-102474976D01*
X158402070Y-102459070D01*
X158417976Y-102444654D01*
X158435219Y-102431866D01*
X158453632Y-102420830D01*
X158473038Y-102411651D01*
X158493250Y-102404419D01*
X158514074Y-102399203D01*
X158535309Y-102396053D01*
X158556750Y-102395000D01*
X158994250Y-102395000D01*
X159015691Y-102396053D01*
X159015691Y-102396053D01*
G37*
D11*
X158775500Y-102870000D03*
D10*
G36*
X158011691Y-98217053D02*
G01*
X158032926Y-98220203D01*
X158053750Y-98225419D01*
X158073962Y-98232651D01*
X158093368Y-98241830D01*
X158111781Y-98252866D01*
X158129024Y-98265654D01*
X158144930Y-98280070D01*
X158159346Y-98295976D01*
X158172134Y-98313219D01*
X158183170Y-98331632D01*
X158192349Y-98351038D01*
X158199581Y-98371250D01*
X158204797Y-98392074D01*
X158207947Y-98413309D01*
X158209000Y-98434750D01*
X158209000Y-98872250D01*
X158207947Y-98893691D01*
X158204797Y-98914926D01*
X158199581Y-98935750D01*
X158192349Y-98955962D01*
X158183170Y-98975368D01*
X158172134Y-98993781D01*
X158159346Y-99011024D01*
X158144930Y-99026930D01*
X158129024Y-99041346D01*
X158111781Y-99054134D01*
X158093368Y-99065170D01*
X158073962Y-99074349D01*
X158053750Y-99081581D01*
X158032926Y-99086797D01*
X158011691Y-99089947D01*
X157990250Y-99091000D01*
X157477750Y-99091000D01*
X157456309Y-99089947D01*
X157435074Y-99086797D01*
X157414250Y-99081581D01*
X157394038Y-99074349D01*
X157374632Y-99065170D01*
X157356219Y-99054134D01*
X157338976Y-99041346D01*
X157323070Y-99026930D01*
X157308654Y-99011024D01*
X157295866Y-98993781D01*
X157284830Y-98975368D01*
X157275651Y-98955962D01*
X157268419Y-98935750D01*
X157263203Y-98914926D01*
X157260053Y-98893691D01*
X157259000Y-98872250D01*
X157259000Y-98434750D01*
X157260053Y-98413309D01*
X157263203Y-98392074D01*
X157268419Y-98371250D01*
X157275651Y-98351038D01*
X157284830Y-98331632D01*
X157295866Y-98313219D01*
X157308654Y-98295976D01*
X157323070Y-98280070D01*
X157338976Y-98265654D01*
X157356219Y-98252866D01*
X157374632Y-98241830D01*
X157394038Y-98232651D01*
X157414250Y-98225419D01*
X157435074Y-98220203D01*
X157456309Y-98217053D01*
X157477750Y-98216000D01*
X157990250Y-98216000D01*
X158011691Y-98217053D01*
X158011691Y-98217053D01*
G37*
D11*
X157734000Y-98653500D03*
D10*
G36*
X158011691Y-99792053D02*
G01*
X158032926Y-99795203D01*
X158053750Y-99800419D01*
X158073962Y-99807651D01*
X158093368Y-99816830D01*
X158111781Y-99827866D01*
X158129024Y-99840654D01*
X158144930Y-99855070D01*
X158159346Y-99870976D01*
X158172134Y-99888219D01*
X158183170Y-99906632D01*
X158192349Y-99926038D01*
X158199581Y-99946250D01*
X158204797Y-99967074D01*
X158207947Y-99988309D01*
X158209000Y-100009750D01*
X158209000Y-100447250D01*
X158207947Y-100468691D01*
X158204797Y-100489926D01*
X158199581Y-100510750D01*
X158192349Y-100530962D01*
X158183170Y-100550368D01*
X158172134Y-100568781D01*
X158159346Y-100586024D01*
X158144930Y-100601930D01*
X158129024Y-100616346D01*
X158111781Y-100629134D01*
X158093368Y-100640170D01*
X158073962Y-100649349D01*
X158053750Y-100656581D01*
X158032926Y-100661797D01*
X158011691Y-100664947D01*
X157990250Y-100666000D01*
X157477750Y-100666000D01*
X157456309Y-100664947D01*
X157435074Y-100661797D01*
X157414250Y-100656581D01*
X157394038Y-100649349D01*
X157374632Y-100640170D01*
X157356219Y-100629134D01*
X157338976Y-100616346D01*
X157323070Y-100601930D01*
X157308654Y-100586024D01*
X157295866Y-100568781D01*
X157284830Y-100550368D01*
X157275651Y-100530962D01*
X157268419Y-100510750D01*
X157263203Y-100489926D01*
X157260053Y-100468691D01*
X157259000Y-100447250D01*
X157259000Y-100009750D01*
X157260053Y-99988309D01*
X157263203Y-99967074D01*
X157268419Y-99946250D01*
X157275651Y-99926038D01*
X157284830Y-99906632D01*
X157295866Y-99888219D01*
X157308654Y-99870976D01*
X157323070Y-99855070D01*
X157338976Y-99840654D01*
X157356219Y-99827866D01*
X157374632Y-99816830D01*
X157394038Y-99807651D01*
X157414250Y-99800419D01*
X157435074Y-99795203D01*
X157456309Y-99792053D01*
X157477750Y-99791000D01*
X157990250Y-99791000D01*
X158011691Y-99792053D01*
X158011691Y-99792053D01*
G37*
D11*
X157734000Y-100228500D03*
D10*
G36*
X157440691Y-90458053D02*
G01*
X157461926Y-90461203D01*
X157482750Y-90466419D01*
X157502962Y-90473651D01*
X157522368Y-90482830D01*
X157540781Y-90493866D01*
X157558024Y-90506654D01*
X157573930Y-90521070D01*
X157588346Y-90536976D01*
X157601134Y-90554219D01*
X157612170Y-90572632D01*
X157621349Y-90592038D01*
X157628581Y-90612250D01*
X157633797Y-90633074D01*
X157636947Y-90654309D01*
X157638000Y-90675750D01*
X157638000Y-91188250D01*
X157636947Y-91209691D01*
X157633797Y-91230926D01*
X157628581Y-91251750D01*
X157621349Y-91271962D01*
X157612170Y-91291368D01*
X157601134Y-91309781D01*
X157588346Y-91327024D01*
X157573930Y-91342930D01*
X157558024Y-91357346D01*
X157540781Y-91370134D01*
X157522368Y-91381170D01*
X157502962Y-91390349D01*
X157482750Y-91397581D01*
X157461926Y-91402797D01*
X157440691Y-91405947D01*
X157419250Y-91407000D01*
X156981750Y-91407000D01*
X156960309Y-91405947D01*
X156939074Y-91402797D01*
X156918250Y-91397581D01*
X156898038Y-91390349D01*
X156878632Y-91381170D01*
X156860219Y-91370134D01*
X156842976Y-91357346D01*
X156827070Y-91342930D01*
X156812654Y-91327024D01*
X156799866Y-91309781D01*
X156788830Y-91291368D01*
X156779651Y-91271962D01*
X156772419Y-91251750D01*
X156767203Y-91230926D01*
X156764053Y-91209691D01*
X156763000Y-91188250D01*
X156763000Y-90675750D01*
X156764053Y-90654309D01*
X156767203Y-90633074D01*
X156772419Y-90612250D01*
X156779651Y-90592038D01*
X156788830Y-90572632D01*
X156799866Y-90554219D01*
X156812654Y-90536976D01*
X156827070Y-90521070D01*
X156842976Y-90506654D01*
X156860219Y-90493866D01*
X156878632Y-90482830D01*
X156898038Y-90473651D01*
X156918250Y-90466419D01*
X156939074Y-90461203D01*
X156960309Y-90458053D01*
X156981750Y-90457000D01*
X157419250Y-90457000D01*
X157440691Y-90458053D01*
X157440691Y-90458053D01*
G37*
D11*
X157200500Y-90932000D03*
D10*
G36*
X159015691Y-90458053D02*
G01*
X159036926Y-90461203D01*
X159057750Y-90466419D01*
X159077962Y-90473651D01*
X159097368Y-90482830D01*
X159115781Y-90493866D01*
X159133024Y-90506654D01*
X159148930Y-90521070D01*
X159163346Y-90536976D01*
X159176134Y-90554219D01*
X159187170Y-90572632D01*
X159196349Y-90592038D01*
X159203581Y-90612250D01*
X159208797Y-90633074D01*
X159211947Y-90654309D01*
X159213000Y-90675750D01*
X159213000Y-91188250D01*
X159211947Y-91209691D01*
X159208797Y-91230926D01*
X159203581Y-91251750D01*
X159196349Y-91271962D01*
X159187170Y-91291368D01*
X159176134Y-91309781D01*
X159163346Y-91327024D01*
X159148930Y-91342930D01*
X159133024Y-91357346D01*
X159115781Y-91370134D01*
X159097368Y-91381170D01*
X159077962Y-91390349D01*
X159057750Y-91397581D01*
X159036926Y-91402797D01*
X159015691Y-91405947D01*
X158994250Y-91407000D01*
X158556750Y-91407000D01*
X158535309Y-91405947D01*
X158514074Y-91402797D01*
X158493250Y-91397581D01*
X158473038Y-91390349D01*
X158453632Y-91381170D01*
X158435219Y-91370134D01*
X158417976Y-91357346D01*
X158402070Y-91342930D01*
X158387654Y-91327024D01*
X158374866Y-91309781D01*
X158363830Y-91291368D01*
X158354651Y-91271962D01*
X158347419Y-91251750D01*
X158342203Y-91230926D01*
X158339053Y-91209691D01*
X158338000Y-91188250D01*
X158338000Y-90675750D01*
X158339053Y-90654309D01*
X158342203Y-90633074D01*
X158347419Y-90612250D01*
X158354651Y-90592038D01*
X158363830Y-90572632D01*
X158374866Y-90554219D01*
X158387654Y-90536976D01*
X158402070Y-90521070D01*
X158417976Y-90506654D01*
X158435219Y-90493866D01*
X158453632Y-90482830D01*
X158473038Y-90473651D01*
X158493250Y-90466419D01*
X158514074Y-90461203D01*
X158535309Y-90458053D01*
X158556750Y-90457000D01*
X158994250Y-90457000D01*
X159015691Y-90458053D01*
X159015691Y-90458053D01*
G37*
D11*
X158775500Y-90932000D03*
D10*
G36*
X157440691Y-92236053D02*
G01*
X157461926Y-92239203D01*
X157482750Y-92244419D01*
X157502962Y-92251651D01*
X157522368Y-92260830D01*
X157540781Y-92271866D01*
X157558024Y-92284654D01*
X157573930Y-92299070D01*
X157588346Y-92314976D01*
X157601134Y-92332219D01*
X157612170Y-92350632D01*
X157621349Y-92370038D01*
X157628581Y-92390250D01*
X157633797Y-92411074D01*
X157636947Y-92432309D01*
X157638000Y-92453750D01*
X157638000Y-92966250D01*
X157636947Y-92987691D01*
X157633797Y-93008926D01*
X157628581Y-93029750D01*
X157621349Y-93049962D01*
X157612170Y-93069368D01*
X157601134Y-93087781D01*
X157588346Y-93105024D01*
X157573930Y-93120930D01*
X157558024Y-93135346D01*
X157540781Y-93148134D01*
X157522368Y-93159170D01*
X157502962Y-93168349D01*
X157482750Y-93175581D01*
X157461926Y-93180797D01*
X157440691Y-93183947D01*
X157419250Y-93185000D01*
X156981750Y-93185000D01*
X156960309Y-93183947D01*
X156939074Y-93180797D01*
X156918250Y-93175581D01*
X156898038Y-93168349D01*
X156878632Y-93159170D01*
X156860219Y-93148134D01*
X156842976Y-93135346D01*
X156827070Y-93120930D01*
X156812654Y-93105024D01*
X156799866Y-93087781D01*
X156788830Y-93069368D01*
X156779651Y-93049962D01*
X156772419Y-93029750D01*
X156767203Y-93008926D01*
X156764053Y-92987691D01*
X156763000Y-92966250D01*
X156763000Y-92453750D01*
X156764053Y-92432309D01*
X156767203Y-92411074D01*
X156772419Y-92390250D01*
X156779651Y-92370038D01*
X156788830Y-92350632D01*
X156799866Y-92332219D01*
X156812654Y-92314976D01*
X156827070Y-92299070D01*
X156842976Y-92284654D01*
X156860219Y-92271866D01*
X156878632Y-92260830D01*
X156898038Y-92251651D01*
X156918250Y-92244419D01*
X156939074Y-92239203D01*
X156960309Y-92236053D01*
X156981750Y-92235000D01*
X157419250Y-92235000D01*
X157440691Y-92236053D01*
X157440691Y-92236053D01*
G37*
D11*
X157200500Y-92710000D03*
D10*
G36*
X159015691Y-92236053D02*
G01*
X159036926Y-92239203D01*
X159057750Y-92244419D01*
X159077962Y-92251651D01*
X159097368Y-92260830D01*
X159115781Y-92271866D01*
X159133024Y-92284654D01*
X159148930Y-92299070D01*
X159163346Y-92314976D01*
X159176134Y-92332219D01*
X159187170Y-92350632D01*
X159196349Y-92370038D01*
X159203581Y-92390250D01*
X159208797Y-92411074D01*
X159211947Y-92432309D01*
X159213000Y-92453750D01*
X159213000Y-92966250D01*
X159211947Y-92987691D01*
X159208797Y-93008926D01*
X159203581Y-93029750D01*
X159196349Y-93049962D01*
X159187170Y-93069368D01*
X159176134Y-93087781D01*
X159163346Y-93105024D01*
X159148930Y-93120930D01*
X159133024Y-93135346D01*
X159115781Y-93148134D01*
X159097368Y-93159170D01*
X159077962Y-93168349D01*
X159057750Y-93175581D01*
X159036926Y-93180797D01*
X159015691Y-93183947D01*
X158994250Y-93185000D01*
X158556750Y-93185000D01*
X158535309Y-93183947D01*
X158514074Y-93180797D01*
X158493250Y-93175581D01*
X158473038Y-93168349D01*
X158453632Y-93159170D01*
X158435219Y-93148134D01*
X158417976Y-93135346D01*
X158402070Y-93120930D01*
X158387654Y-93105024D01*
X158374866Y-93087781D01*
X158363830Y-93069368D01*
X158354651Y-93049962D01*
X158347419Y-93029750D01*
X158342203Y-93008926D01*
X158339053Y-92987691D01*
X158338000Y-92966250D01*
X158338000Y-92453750D01*
X158339053Y-92432309D01*
X158342203Y-92411074D01*
X158347419Y-92390250D01*
X158354651Y-92370038D01*
X158363830Y-92350632D01*
X158374866Y-92332219D01*
X158387654Y-92314976D01*
X158402070Y-92299070D01*
X158417976Y-92284654D01*
X158435219Y-92271866D01*
X158453632Y-92260830D01*
X158473038Y-92251651D01*
X158493250Y-92244419D01*
X158514074Y-92239203D01*
X158535309Y-92236053D01*
X158556750Y-92235000D01*
X158994250Y-92235000D01*
X159015691Y-92236053D01*
X159015691Y-92236053D01*
G37*
D11*
X158775500Y-92710000D03*
D10*
G36*
X158011691Y-96490053D02*
G01*
X158032926Y-96493203D01*
X158053750Y-96498419D01*
X158073962Y-96505651D01*
X158093368Y-96514830D01*
X158111781Y-96525866D01*
X158129024Y-96538654D01*
X158144930Y-96553070D01*
X158159346Y-96568976D01*
X158172134Y-96586219D01*
X158183170Y-96604632D01*
X158192349Y-96624038D01*
X158199581Y-96644250D01*
X158204797Y-96665074D01*
X158207947Y-96686309D01*
X158209000Y-96707750D01*
X158209000Y-97145250D01*
X158207947Y-97166691D01*
X158204797Y-97187926D01*
X158199581Y-97208750D01*
X158192349Y-97228962D01*
X158183170Y-97248368D01*
X158172134Y-97266781D01*
X158159346Y-97284024D01*
X158144930Y-97299930D01*
X158129024Y-97314346D01*
X158111781Y-97327134D01*
X158093368Y-97338170D01*
X158073962Y-97347349D01*
X158053750Y-97354581D01*
X158032926Y-97359797D01*
X158011691Y-97362947D01*
X157990250Y-97364000D01*
X157477750Y-97364000D01*
X157456309Y-97362947D01*
X157435074Y-97359797D01*
X157414250Y-97354581D01*
X157394038Y-97347349D01*
X157374632Y-97338170D01*
X157356219Y-97327134D01*
X157338976Y-97314346D01*
X157323070Y-97299930D01*
X157308654Y-97284024D01*
X157295866Y-97266781D01*
X157284830Y-97248368D01*
X157275651Y-97228962D01*
X157268419Y-97208750D01*
X157263203Y-97187926D01*
X157260053Y-97166691D01*
X157259000Y-97145250D01*
X157259000Y-96707750D01*
X157260053Y-96686309D01*
X157263203Y-96665074D01*
X157268419Y-96644250D01*
X157275651Y-96624038D01*
X157284830Y-96604632D01*
X157295866Y-96586219D01*
X157308654Y-96568976D01*
X157323070Y-96553070D01*
X157338976Y-96538654D01*
X157356219Y-96525866D01*
X157374632Y-96514830D01*
X157394038Y-96505651D01*
X157414250Y-96498419D01*
X157435074Y-96493203D01*
X157456309Y-96490053D01*
X157477750Y-96489000D01*
X157990250Y-96489000D01*
X158011691Y-96490053D01*
X158011691Y-96490053D01*
G37*
D11*
X157734000Y-96926500D03*
D10*
G36*
X158011691Y-94915053D02*
G01*
X158032926Y-94918203D01*
X158053750Y-94923419D01*
X158073962Y-94930651D01*
X158093368Y-94939830D01*
X158111781Y-94950866D01*
X158129024Y-94963654D01*
X158144930Y-94978070D01*
X158159346Y-94993976D01*
X158172134Y-95011219D01*
X158183170Y-95029632D01*
X158192349Y-95049038D01*
X158199581Y-95069250D01*
X158204797Y-95090074D01*
X158207947Y-95111309D01*
X158209000Y-95132750D01*
X158209000Y-95570250D01*
X158207947Y-95591691D01*
X158204797Y-95612926D01*
X158199581Y-95633750D01*
X158192349Y-95653962D01*
X158183170Y-95673368D01*
X158172134Y-95691781D01*
X158159346Y-95709024D01*
X158144930Y-95724930D01*
X158129024Y-95739346D01*
X158111781Y-95752134D01*
X158093368Y-95763170D01*
X158073962Y-95772349D01*
X158053750Y-95779581D01*
X158032926Y-95784797D01*
X158011691Y-95787947D01*
X157990250Y-95789000D01*
X157477750Y-95789000D01*
X157456309Y-95787947D01*
X157435074Y-95784797D01*
X157414250Y-95779581D01*
X157394038Y-95772349D01*
X157374632Y-95763170D01*
X157356219Y-95752134D01*
X157338976Y-95739346D01*
X157323070Y-95724930D01*
X157308654Y-95709024D01*
X157295866Y-95691781D01*
X157284830Y-95673368D01*
X157275651Y-95653962D01*
X157268419Y-95633750D01*
X157263203Y-95612926D01*
X157260053Y-95591691D01*
X157259000Y-95570250D01*
X157259000Y-95132750D01*
X157260053Y-95111309D01*
X157263203Y-95090074D01*
X157268419Y-95069250D01*
X157275651Y-95049038D01*
X157284830Y-95029632D01*
X157295866Y-95011219D01*
X157308654Y-94993976D01*
X157323070Y-94978070D01*
X157338976Y-94963654D01*
X157356219Y-94950866D01*
X157374632Y-94939830D01*
X157394038Y-94930651D01*
X157414250Y-94923419D01*
X157435074Y-94918203D01*
X157456309Y-94915053D01*
X157477750Y-94914000D01*
X157990250Y-94914000D01*
X158011691Y-94915053D01*
X158011691Y-94915053D01*
G37*
D11*
X157734000Y-95351500D03*
D10*
G36*
X128916691Y-90966053D02*
G01*
X128937926Y-90969203D01*
X128958750Y-90974419D01*
X128978962Y-90981651D01*
X128998368Y-90990830D01*
X129016781Y-91001866D01*
X129034024Y-91014654D01*
X129049930Y-91029070D01*
X129064346Y-91044976D01*
X129077134Y-91062219D01*
X129088170Y-91080632D01*
X129097349Y-91100038D01*
X129104581Y-91120250D01*
X129109797Y-91141074D01*
X129112947Y-91162309D01*
X129114000Y-91183750D01*
X129114000Y-91696250D01*
X129112947Y-91717691D01*
X129109797Y-91738926D01*
X129104581Y-91759750D01*
X129097349Y-91779962D01*
X129088170Y-91799368D01*
X129077134Y-91817781D01*
X129064346Y-91835024D01*
X129049930Y-91850930D01*
X129034024Y-91865346D01*
X129016781Y-91878134D01*
X128998368Y-91889170D01*
X128978962Y-91898349D01*
X128958750Y-91905581D01*
X128937926Y-91910797D01*
X128916691Y-91913947D01*
X128895250Y-91915000D01*
X128457750Y-91915000D01*
X128436309Y-91913947D01*
X128415074Y-91910797D01*
X128394250Y-91905581D01*
X128374038Y-91898349D01*
X128354632Y-91889170D01*
X128336219Y-91878134D01*
X128318976Y-91865346D01*
X128303070Y-91850930D01*
X128288654Y-91835024D01*
X128275866Y-91817781D01*
X128264830Y-91799368D01*
X128255651Y-91779962D01*
X128248419Y-91759750D01*
X128243203Y-91738926D01*
X128240053Y-91717691D01*
X128239000Y-91696250D01*
X128239000Y-91183750D01*
X128240053Y-91162309D01*
X128243203Y-91141074D01*
X128248419Y-91120250D01*
X128255651Y-91100038D01*
X128264830Y-91080632D01*
X128275866Y-91062219D01*
X128288654Y-91044976D01*
X128303070Y-91029070D01*
X128318976Y-91014654D01*
X128336219Y-91001866D01*
X128354632Y-90990830D01*
X128374038Y-90981651D01*
X128394250Y-90974419D01*
X128415074Y-90969203D01*
X128436309Y-90966053D01*
X128457750Y-90965000D01*
X128895250Y-90965000D01*
X128916691Y-90966053D01*
X128916691Y-90966053D01*
G37*
D11*
X128676500Y-91440000D03*
D10*
G36*
X127341691Y-90966053D02*
G01*
X127362926Y-90969203D01*
X127383750Y-90974419D01*
X127403962Y-90981651D01*
X127423368Y-90990830D01*
X127441781Y-91001866D01*
X127459024Y-91014654D01*
X127474930Y-91029070D01*
X127489346Y-91044976D01*
X127502134Y-91062219D01*
X127513170Y-91080632D01*
X127522349Y-91100038D01*
X127529581Y-91120250D01*
X127534797Y-91141074D01*
X127537947Y-91162309D01*
X127539000Y-91183750D01*
X127539000Y-91696250D01*
X127537947Y-91717691D01*
X127534797Y-91738926D01*
X127529581Y-91759750D01*
X127522349Y-91779962D01*
X127513170Y-91799368D01*
X127502134Y-91817781D01*
X127489346Y-91835024D01*
X127474930Y-91850930D01*
X127459024Y-91865346D01*
X127441781Y-91878134D01*
X127423368Y-91889170D01*
X127403962Y-91898349D01*
X127383750Y-91905581D01*
X127362926Y-91910797D01*
X127341691Y-91913947D01*
X127320250Y-91915000D01*
X126882750Y-91915000D01*
X126861309Y-91913947D01*
X126840074Y-91910797D01*
X126819250Y-91905581D01*
X126799038Y-91898349D01*
X126779632Y-91889170D01*
X126761219Y-91878134D01*
X126743976Y-91865346D01*
X126728070Y-91850930D01*
X126713654Y-91835024D01*
X126700866Y-91817781D01*
X126689830Y-91799368D01*
X126680651Y-91779962D01*
X126673419Y-91759750D01*
X126668203Y-91738926D01*
X126665053Y-91717691D01*
X126664000Y-91696250D01*
X126664000Y-91183750D01*
X126665053Y-91162309D01*
X126668203Y-91141074D01*
X126673419Y-91120250D01*
X126680651Y-91100038D01*
X126689830Y-91080632D01*
X126700866Y-91062219D01*
X126713654Y-91044976D01*
X126728070Y-91029070D01*
X126743976Y-91014654D01*
X126761219Y-91001866D01*
X126779632Y-90990830D01*
X126799038Y-90981651D01*
X126819250Y-90974419D01*
X126840074Y-90969203D01*
X126861309Y-90966053D01*
X126882750Y-90965000D01*
X127320250Y-90965000D01*
X127341691Y-90966053D01*
X127341691Y-90966053D01*
G37*
D11*
X127101500Y-91440000D03*
D10*
G36*
X127341691Y-93506053D02*
G01*
X127362926Y-93509203D01*
X127383750Y-93514419D01*
X127403962Y-93521651D01*
X127423368Y-93530830D01*
X127441781Y-93541866D01*
X127459024Y-93554654D01*
X127474930Y-93569070D01*
X127489346Y-93584976D01*
X127502134Y-93602219D01*
X127513170Y-93620632D01*
X127522349Y-93640038D01*
X127529581Y-93660250D01*
X127534797Y-93681074D01*
X127537947Y-93702309D01*
X127539000Y-93723750D01*
X127539000Y-94236250D01*
X127537947Y-94257691D01*
X127534797Y-94278926D01*
X127529581Y-94299750D01*
X127522349Y-94319962D01*
X127513170Y-94339368D01*
X127502134Y-94357781D01*
X127489346Y-94375024D01*
X127474930Y-94390930D01*
X127459024Y-94405346D01*
X127441781Y-94418134D01*
X127423368Y-94429170D01*
X127403962Y-94438349D01*
X127383750Y-94445581D01*
X127362926Y-94450797D01*
X127341691Y-94453947D01*
X127320250Y-94455000D01*
X126882750Y-94455000D01*
X126861309Y-94453947D01*
X126840074Y-94450797D01*
X126819250Y-94445581D01*
X126799038Y-94438349D01*
X126779632Y-94429170D01*
X126761219Y-94418134D01*
X126743976Y-94405346D01*
X126728070Y-94390930D01*
X126713654Y-94375024D01*
X126700866Y-94357781D01*
X126689830Y-94339368D01*
X126680651Y-94319962D01*
X126673419Y-94299750D01*
X126668203Y-94278926D01*
X126665053Y-94257691D01*
X126664000Y-94236250D01*
X126664000Y-93723750D01*
X126665053Y-93702309D01*
X126668203Y-93681074D01*
X126673419Y-93660250D01*
X126680651Y-93640038D01*
X126689830Y-93620632D01*
X126700866Y-93602219D01*
X126713654Y-93584976D01*
X126728070Y-93569070D01*
X126743976Y-93554654D01*
X126761219Y-93541866D01*
X126779632Y-93530830D01*
X126799038Y-93521651D01*
X126819250Y-93514419D01*
X126840074Y-93509203D01*
X126861309Y-93506053D01*
X126882750Y-93505000D01*
X127320250Y-93505000D01*
X127341691Y-93506053D01*
X127341691Y-93506053D01*
G37*
D11*
X127101500Y-93980000D03*
D10*
G36*
X128916691Y-93506053D02*
G01*
X128937926Y-93509203D01*
X128958750Y-93514419D01*
X128978962Y-93521651D01*
X128998368Y-93530830D01*
X129016781Y-93541866D01*
X129034024Y-93554654D01*
X129049930Y-93569070D01*
X129064346Y-93584976D01*
X129077134Y-93602219D01*
X129088170Y-93620632D01*
X129097349Y-93640038D01*
X129104581Y-93660250D01*
X129109797Y-93681074D01*
X129112947Y-93702309D01*
X129114000Y-93723750D01*
X129114000Y-94236250D01*
X129112947Y-94257691D01*
X129109797Y-94278926D01*
X129104581Y-94299750D01*
X129097349Y-94319962D01*
X129088170Y-94339368D01*
X129077134Y-94357781D01*
X129064346Y-94375024D01*
X129049930Y-94390930D01*
X129034024Y-94405346D01*
X129016781Y-94418134D01*
X128998368Y-94429170D01*
X128978962Y-94438349D01*
X128958750Y-94445581D01*
X128937926Y-94450797D01*
X128916691Y-94453947D01*
X128895250Y-94455000D01*
X128457750Y-94455000D01*
X128436309Y-94453947D01*
X128415074Y-94450797D01*
X128394250Y-94445581D01*
X128374038Y-94438349D01*
X128354632Y-94429170D01*
X128336219Y-94418134D01*
X128318976Y-94405346D01*
X128303070Y-94390930D01*
X128288654Y-94375024D01*
X128275866Y-94357781D01*
X128264830Y-94339368D01*
X128255651Y-94319962D01*
X128248419Y-94299750D01*
X128243203Y-94278926D01*
X128240053Y-94257691D01*
X128239000Y-94236250D01*
X128239000Y-93723750D01*
X128240053Y-93702309D01*
X128243203Y-93681074D01*
X128248419Y-93660250D01*
X128255651Y-93640038D01*
X128264830Y-93620632D01*
X128275866Y-93602219D01*
X128288654Y-93584976D01*
X128303070Y-93569070D01*
X128318976Y-93554654D01*
X128336219Y-93541866D01*
X128354632Y-93530830D01*
X128374038Y-93521651D01*
X128394250Y-93514419D01*
X128415074Y-93509203D01*
X128436309Y-93506053D01*
X128457750Y-93505000D01*
X128895250Y-93505000D01*
X128916691Y-93506053D01*
X128916691Y-93506053D01*
G37*
D11*
X128676500Y-93980000D03*
D10*
G36*
X152665691Y-94522053D02*
G01*
X152686926Y-94525203D01*
X152707750Y-94530419D01*
X152727962Y-94537651D01*
X152747368Y-94546830D01*
X152765781Y-94557866D01*
X152783024Y-94570654D01*
X152798930Y-94585070D01*
X152813346Y-94600976D01*
X152826134Y-94618219D01*
X152837170Y-94636632D01*
X152846349Y-94656038D01*
X152853581Y-94676250D01*
X152858797Y-94697074D01*
X152861947Y-94718309D01*
X152863000Y-94739750D01*
X152863000Y-95252250D01*
X152861947Y-95273691D01*
X152858797Y-95294926D01*
X152853581Y-95315750D01*
X152846349Y-95335962D01*
X152837170Y-95355368D01*
X152826134Y-95373781D01*
X152813346Y-95391024D01*
X152798930Y-95406930D01*
X152783024Y-95421346D01*
X152765781Y-95434134D01*
X152747368Y-95445170D01*
X152727962Y-95454349D01*
X152707750Y-95461581D01*
X152686926Y-95466797D01*
X152665691Y-95469947D01*
X152644250Y-95471000D01*
X152206750Y-95471000D01*
X152185309Y-95469947D01*
X152164074Y-95466797D01*
X152143250Y-95461581D01*
X152123038Y-95454349D01*
X152103632Y-95445170D01*
X152085219Y-95434134D01*
X152067976Y-95421346D01*
X152052070Y-95406930D01*
X152037654Y-95391024D01*
X152024866Y-95373781D01*
X152013830Y-95355368D01*
X152004651Y-95335962D01*
X151997419Y-95315750D01*
X151992203Y-95294926D01*
X151989053Y-95273691D01*
X151988000Y-95252250D01*
X151988000Y-94739750D01*
X151989053Y-94718309D01*
X151992203Y-94697074D01*
X151997419Y-94676250D01*
X152004651Y-94656038D01*
X152013830Y-94636632D01*
X152024866Y-94618219D01*
X152037654Y-94600976D01*
X152052070Y-94585070D01*
X152067976Y-94570654D01*
X152085219Y-94557866D01*
X152103632Y-94546830D01*
X152123038Y-94537651D01*
X152143250Y-94530419D01*
X152164074Y-94525203D01*
X152185309Y-94522053D01*
X152206750Y-94521000D01*
X152644250Y-94521000D01*
X152665691Y-94522053D01*
X152665691Y-94522053D01*
G37*
D11*
X152425500Y-94996000D03*
D10*
G36*
X151090691Y-94522053D02*
G01*
X151111926Y-94525203D01*
X151132750Y-94530419D01*
X151152962Y-94537651D01*
X151172368Y-94546830D01*
X151190781Y-94557866D01*
X151208024Y-94570654D01*
X151223930Y-94585070D01*
X151238346Y-94600976D01*
X151251134Y-94618219D01*
X151262170Y-94636632D01*
X151271349Y-94656038D01*
X151278581Y-94676250D01*
X151283797Y-94697074D01*
X151286947Y-94718309D01*
X151288000Y-94739750D01*
X151288000Y-95252250D01*
X151286947Y-95273691D01*
X151283797Y-95294926D01*
X151278581Y-95315750D01*
X151271349Y-95335962D01*
X151262170Y-95355368D01*
X151251134Y-95373781D01*
X151238346Y-95391024D01*
X151223930Y-95406930D01*
X151208024Y-95421346D01*
X151190781Y-95434134D01*
X151172368Y-95445170D01*
X151152962Y-95454349D01*
X151132750Y-95461581D01*
X151111926Y-95466797D01*
X151090691Y-95469947D01*
X151069250Y-95471000D01*
X150631750Y-95471000D01*
X150610309Y-95469947D01*
X150589074Y-95466797D01*
X150568250Y-95461581D01*
X150548038Y-95454349D01*
X150528632Y-95445170D01*
X150510219Y-95434134D01*
X150492976Y-95421346D01*
X150477070Y-95406930D01*
X150462654Y-95391024D01*
X150449866Y-95373781D01*
X150438830Y-95355368D01*
X150429651Y-95335962D01*
X150422419Y-95315750D01*
X150417203Y-95294926D01*
X150414053Y-95273691D01*
X150413000Y-95252250D01*
X150413000Y-94739750D01*
X150414053Y-94718309D01*
X150417203Y-94697074D01*
X150422419Y-94676250D01*
X150429651Y-94656038D01*
X150438830Y-94636632D01*
X150449866Y-94618219D01*
X150462654Y-94600976D01*
X150477070Y-94585070D01*
X150492976Y-94570654D01*
X150510219Y-94557866D01*
X150528632Y-94546830D01*
X150548038Y-94537651D01*
X150568250Y-94530419D01*
X150589074Y-94525203D01*
X150610309Y-94522053D01*
X150631750Y-94521000D01*
X151069250Y-94521000D01*
X151090691Y-94522053D01*
X151090691Y-94522053D01*
G37*
D11*
X150850500Y-94996000D03*
D10*
G36*
X168667691Y-102396053D02*
G01*
X168688926Y-102399203D01*
X168709750Y-102404419D01*
X168729962Y-102411651D01*
X168749368Y-102420830D01*
X168767781Y-102431866D01*
X168785024Y-102444654D01*
X168800930Y-102459070D01*
X168815346Y-102474976D01*
X168828134Y-102492219D01*
X168839170Y-102510632D01*
X168848349Y-102530038D01*
X168855581Y-102550250D01*
X168860797Y-102571074D01*
X168863947Y-102592309D01*
X168865000Y-102613750D01*
X168865000Y-103126250D01*
X168863947Y-103147691D01*
X168860797Y-103168926D01*
X168855581Y-103189750D01*
X168848349Y-103209962D01*
X168839170Y-103229368D01*
X168828134Y-103247781D01*
X168815346Y-103265024D01*
X168800930Y-103280930D01*
X168785024Y-103295346D01*
X168767781Y-103308134D01*
X168749368Y-103319170D01*
X168729962Y-103328349D01*
X168709750Y-103335581D01*
X168688926Y-103340797D01*
X168667691Y-103343947D01*
X168646250Y-103345000D01*
X168208750Y-103345000D01*
X168187309Y-103343947D01*
X168166074Y-103340797D01*
X168145250Y-103335581D01*
X168125038Y-103328349D01*
X168105632Y-103319170D01*
X168087219Y-103308134D01*
X168069976Y-103295346D01*
X168054070Y-103280930D01*
X168039654Y-103265024D01*
X168026866Y-103247781D01*
X168015830Y-103229368D01*
X168006651Y-103209962D01*
X167999419Y-103189750D01*
X167994203Y-103168926D01*
X167991053Y-103147691D01*
X167990000Y-103126250D01*
X167990000Y-102613750D01*
X167991053Y-102592309D01*
X167994203Y-102571074D01*
X167999419Y-102550250D01*
X168006651Y-102530038D01*
X168015830Y-102510632D01*
X168026866Y-102492219D01*
X168039654Y-102474976D01*
X168054070Y-102459070D01*
X168069976Y-102444654D01*
X168087219Y-102431866D01*
X168105632Y-102420830D01*
X168125038Y-102411651D01*
X168145250Y-102404419D01*
X168166074Y-102399203D01*
X168187309Y-102396053D01*
X168208750Y-102395000D01*
X168646250Y-102395000D01*
X168667691Y-102396053D01*
X168667691Y-102396053D01*
G37*
D11*
X168427500Y-102870000D03*
D10*
G36*
X167092691Y-102396053D02*
G01*
X167113926Y-102399203D01*
X167134750Y-102404419D01*
X167154962Y-102411651D01*
X167174368Y-102420830D01*
X167192781Y-102431866D01*
X167210024Y-102444654D01*
X167225930Y-102459070D01*
X167240346Y-102474976D01*
X167253134Y-102492219D01*
X167264170Y-102510632D01*
X167273349Y-102530038D01*
X167280581Y-102550250D01*
X167285797Y-102571074D01*
X167288947Y-102592309D01*
X167290000Y-102613750D01*
X167290000Y-103126250D01*
X167288947Y-103147691D01*
X167285797Y-103168926D01*
X167280581Y-103189750D01*
X167273349Y-103209962D01*
X167264170Y-103229368D01*
X167253134Y-103247781D01*
X167240346Y-103265024D01*
X167225930Y-103280930D01*
X167210024Y-103295346D01*
X167192781Y-103308134D01*
X167174368Y-103319170D01*
X167154962Y-103328349D01*
X167134750Y-103335581D01*
X167113926Y-103340797D01*
X167092691Y-103343947D01*
X167071250Y-103345000D01*
X166633750Y-103345000D01*
X166612309Y-103343947D01*
X166591074Y-103340797D01*
X166570250Y-103335581D01*
X166550038Y-103328349D01*
X166530632Y-103319170D01*
X166512219Y-103308134D01*
X166494976Y-103295346D01*
X166479070Y-103280930D01*
X166464654Y-103265024D01*
X166451866Y-103247781D01*
X166440830Y-103229368D01*
X166431651Y-103209962D01*
X166424419Y-103189750D01*
X166419203Y-103168926D01*
X166416053Y-103147691D01*
X166415000Y-103126250D01*
X166415000Y-102613750D01*
X166416053Y-102592309D01*
X166419203Y-102571074D01*
X166424419Y-102550250D01*
X166431651Y-102530038D01*
X166440830Y-102510632D01*
X166451866Y-102492219D01*
X166464654Y-102474976D01*
X166479070Y-102459070D01*
X166494976Y-102444654D01*
X166512219Y-102431866D01*
X166530632Y-102420830D01*
X166550038Y-102411651D01*
X166570250Y-102404419D01*
X166591074Y-102399203D01*
X166612309Y-102396053D01*
X166633750Y-102395000D01*
X167071250Y-102395000D01*
X167092691Y-102396053D01*
X167092691Y-102396053D01*
G37*
D11*
X166852500Y-102870000D03*
D10*
G36*
X167092691Y-92236053D02*
G01*
X167113926Y-92239203D01*
X167134750Y-92244419D01*
X167154962Y-92251651D01*
X167174368Y-92260830D01*
X167192781Y-92271866D01*
X167210024Y-92284654D01*
X167225930Y-92299070D01*
X167240346Y-92314976D01*
X167253134Y-92332219D01*
X167264170Y-92350632D01*
X167273349Y-92370038D01*
X167280581Y-92390250D01*
X167285797Y-92411074D01*
X167288947Y-92432309D01*
X167290000Y-92453750D01*
X167290000Y-92966250D01*
X167288947Y-92987691D01*
X167285797Y-93008926D01*
X167280581Y-93029750D01*
X167273349Y-93049962D01*
X167264170Y-93069368D01*
X167253134Y-93087781D01*
X167240346Y-93105024D01*
X167225930Y-93120930D01*
X167210024Y-93135346D01*
X167192781Y-93148134D01*
X167174368Y-93159170D01*
X167154962Y-93168349D01*
X167134750Y-93175581D01*
X167113926Y-93180797D01*
X167092691Y-93183947D01*
X167071250Y-93185000D01*
X166633750Y-93185000D01*
X166612309Y-93183947D01*
X166591074Y-93180797D01*
X166570250Y-93175581D01*
X166550038Y-93168349D01*
X166530632Y-93159170D01*
X166512219Y-93148134D01*
X166494976Y-93135346D01*
X166479070Y-93120930D01*
X166464654Y-93105024D01*
X166451866Y-93087781D01*
X166440830Y-93069368D01*
X166431651Y-93049962D01*
X166424419Y-93029750D01*
X166419203Y-93008926D01*
X166416053Y-92987691D01*
X166415000Y-92966250D01*
X166415000Y-92453750D01*
X166416053Y-92432309D01*
X166419203Y-92411074D01*
X166424419Y-92390250D01*
X166431651Y-92370038D01*
X166440830Y-92350632D01*
X166451866Y-92332219D01*
X166464654Y-92314976D01*
X166479070Y-92299070D01*
X166494976Y-92284654D01*
X166512219Y-92271866D01*
X166530632Y-92260830D01*
X166550038Y-92251651D01*
X166570250Y-92244419D01*
X166591074Y-92239203D01*
X166612309Y-92236053D01*
X166633750Y-92235000D01*
X167071250Y-92235000D01*
X167092691Y-92236053D01*
X167092691Y-92236053D01*
G37*
D11*
X166852500Y-92710000D03*
D10*
G36*
X168667691Y-92236053D02*
G01*
X168688926Y-92239203D01*
X168709750Y-92244419D01*
X168729962Y-92251651D01*
X168749368Y-92260830D01*
X168767781Y-92271866D01*
X168785024Y-92284654D01*
X168800930Y-92299070D01*
X168815346Y-92314976D01*
X168828134Y-92332219D01*
X168839170Y-92350632D01*
X168848349Y-92370038D01*
X168855581Y-92390250D01*
X168860797Y-92411074D01*
X168863947Y-92432309D01*
X168865000Y-92453750D01*
X168865000Y-92966250D01*
X168863947Y-92987691D01*
X168860797Y-93008926D01*
X168855581Y-93029750D01*
X168848349Y-93049962D01*
X168839170Y-93069368D01*
X168828134Y-93087781D01*
X168815346Y-93105024D01*
X168800930Y-93120930D01*
X168785024Y-93135346D01*
X168767781Y-93148134D01*
X168749368Y-93159170D01*
X168729962Y-93168349D01*
X168709750Y-93175581D01*
X168688926Y-93180797D01*
X168667691Y-93183947D01*
X168646250Y-93185000D01*
X168208750Y-93185000D01*
X168187309Y-93183947D01*
X168166074Y-93180797D01*
X168145250Y-93175581D01*
X168125038Y-93168349D01*
X168105632Y-93159170D01*
X168087219Y-93148134D01*
X168069976Y-93135346D01*
X168054070Y-93120930D01*
X168039654Y-93105024D01*
X168026866Y-93087781D01*
X168015830Y-93069368D01*
X168006651Y-93049962D01*
X167999419Y-93029750D01*
X167994203Y-93008926D01*
X167991053Y-92987691D01*
X167990000Y-92966250D01*
X167990000Y-92453750D01*
X167991053Y-92432309D01*
X167994203Y-92411074D01*
X167999419Y-92390250D01*
X168006651Y-92370038D01*
X168015830Y-92350632D01*
X168026866Y-92332219D01*
X168039654Y-92314976D01*
X168054070Y-92299070D01*
X168069976Y-92284654D01*
X168087219Y-92271866D01*
X168105632Y-92260830D01*
X168125038Y-92251651D01*
X168145250Y-92244419D01*
X168166074Y-92239203D01*
X168187309Y-92236053D01*
X168208750Y-92235000D01*
X168646250Y-92235000D01*
X168667691Y-92236053D01*
X168667691Y-92236053D01*
G37*
D11*
X168427500Y-92710000D03*
D10*
G36*
X138707691Y-102535053D02*
G01*
X138728926Y-102538203D01*
X138749750Y-102543419D01*
X138769962Y-102550651D01*
X138789368Y-102559830D01*
X138807781Y-102570866D01*
X138825024Y-102583654D01*
X138840930Y-102598070D01*
X138855346Y-102613976D01*
X138868134Y-102631219D01*
X138879170Y-102649632D01*
X138888349Y-102669038D01*
X138895581Y-102689250D01*
X138900797Y-102710074D01*
X138903947Y-102731309D01*
X138905000Y-102752750D01*
X138905000Y-103190250D01*
X138903947Y-103211691D01*
X138900797Y-103232926D01*
X138895581Y-103253750D01*
X138888349Y-103273962D01*
X138879170Y-103293368D01*
X138868134Y-103311781D01*
X138855346Y-103329024D01*
X138840930Y-103344930D01*
X138825024Y-103359346D01*
X138807781Y-103372134D01*
X138789368Y-103383170D01*
X138769962Y-103392349D01*
X138749750Y-103399581D01*
X138728926Y-103404797D01*
X138707691Y-103407947D01*
X138686250Y-103409000D01*
X138173750Y-103409000D01*
X138152309Y-103407947D01*
X138131074Y-103404797D01*
X138110250Y-103399581D01*
X138090038Y-103392349D01*
X138070632Y-103383170D01*
X138052219Y-103372134D01*
X138034976Y-103359346D01*
X138019070Y-103344930D01*
X138004654Y-103329024D01*
X137991866Y-103311781D01*
X137980830Y-103293368D01*
X137971651Y-103273962D01*
X137964419Y-103253750D01*
X137959203Y-103232926D01*
X137956053Y-103211691D01*
X137955000Y-103190250D01*
X137955000Y-102752750D01*
X137956053Y-102731309D01*
X137959203Y-102710074D01*
X137964419Y-102689250D01*
X137971651Y-102669038D01*
X137980830Y-102649632D01*
X137991866Y-102631219D01*
X138004654Y-102613976D01*
X138019070Y-102598070D01*
X138034976Y-102583654D01*
X138052219Y-102570866D01*
X138070632Y-102559830D01*
X138090038Y-102550651D01*
X138110250Y-102543419D01*
X138131074Y-102538203D01*
X138152309Y-102535053D01*
X138173750Y-102534000D01*
X138686250Y-102534000D01*
X138707691Y-102535053D01*
X138707691Y-102535053D01*
G37*
D11*
X138430000Y-102971500D03*
D10*
G36*
X138707691Y-104110053D02*
G01*
X138728926Y-104113203D01*
X138749750Y-104118419D01*
X138769962Y-104125651D01*
X138789368Y-104134830D01*
X138807781Y-104145866D01*
X138825024Y-104158654D01*
X138840930Y-104173070D01*
X138855346Y-104188976D01*
X138868134Y-104206219D01*
X138879170Y-104224632D01*
X138888349Y-104244038D01*
X138895581Y-104264250D01*
X138900797Y-104285074D01*
X138903947Y-104306309D01*
X138905000Y-104327750D01*
X138905000Y-104765250D01*
X138903947Y-104786691D01*
X138900797Y-104807926D01*
X138895581Y-104828750D01*
X138888349Y-104848962D01*
X138879170Y-104868368D01*
X138868134Y-104886781D01*
X138855346Y-104904024D01*
X138840930Y-104919930D01*
X138825024Y-104934346D01*
X138807781Y-104947134D01*
X138789368Y-104958170D01*
X138769962Y-104967349D01*
X138749750Y-104974581D01*
X138728926Y-104979797D01*
X138707691Y-104982947D01*
X138686250Y-104984000D01*
X138173750Y-104984000D01*
X138152309Y-104982947D01*
X138131074Y-104979797D01*
X138110250Y-104974581D01*
X138090038Y-104967349D01*
X138070632Y-104958170D01*
X138052219Y-104947134D01*
X138034976Y-104934346D01*
X138019070Y-104919930D01*
X138004654Y-104904024D01*
X137991866Y-104886781D01*
X137980830Y-104868368D01*
X137971651Y-104848962D01*
X137964419Y-104828750D01*
X137959203Y-104807926D01*
X137956053Y-104786691D01*
X137955000Y-104765250D01*
X137955000Y-104327750D01*
X137956053Y-104306309D01*
X137959203Y-104285074D01*
X137964419Y-104264250D01*
X137971651Y-104244038D01*
X137980830Y-104224632D01*
X137991866Y-104206219D01*
X138004654Y-104188976D01*
X138019070Y-104173070D01*
X138034976Y-104158654D01*
X138052219Y-104145866D01*
X138070632Y-104134830D01*
X138090038Y-104125651D01*
X138110250Y-104118419D01*
X138131074Y-104113203D01*
X138152309Y-104110053D01*
X138173750Y-104109000D01*
X138686250Y-104109000D01*
X138707691Y-104110053D01*
X138707691Y-104110053D01*
G37*
D11*
X138430000Y-104546500D03*
D10*
G36*
X145692691Y-104237053D02*
G01*
X145713926Y-104240203D01*
X145734750Y-104245419D01*
X145754962Y-104252651D01*
X145774368Y-104261830D01*
X145792781Y-104272866D01*
X145810024Y-104285654D01*
X145825930Y-104300070D01*
X145840346Y-104315976D01*
X145853134Y-104333219D01*
X145864170Y-104351632D01*
X145873349Y-104371038D01*
X145880581Y-104391250D01*
X145885797Y-104412074D01*
X145888947Y-104433309D01*
X145890000Y-104454750D01*
X145890000Y-104892250D01*
X145888947Y-104913691D01*
X145885797Y-104934926D01*
X145880581Y-104955750D01*
X145873349Y-104975962D01*
X145864170Y-104995368D01*
X145853134Y-105013781D01*
X145840346Y-105031024D01*
X145825930Y-105046930D01*
X145810024Y-105061346D01*
X145792781Y-105074134D01*
X145774368Y-105085170D01*
X145754962Y-105094349D01*
X145734750Y-105101581D01*
X145713926Y-105106797D01*
X145692691Y-105109947D01*
X145671250Y-105111000D01*
X145158750Y-105111000D01*
X145137309Y-105109947D01*
X145116074Y-105106797D01*
X145095250Y-105101581D01*
X145075038Y-105094349D01*
X145055632Y-105085170D01*
X145037219Y-105074134D01*
X145019976Y-105061346D01*
X145004070Y-105046930D01*
X144989654Y-105031024D01*
X144976866Y-105013781D01*
X144965830Y-104995368D01*
X144956651Y-104975962D01*
X144949419Y-104955750D01*
X144944203Y-104934926D01*
X144941053Y-104913691D01*
X144940000Y-104892250D01*
X144940000Y-104454750D01*
X144941053Y-104433309D01*
X144944203Y-104412074D01*
X144949419Y-104391250D01*
X144956651Y-104371038D01*
X144965830Y-104351632D01*
X144976866Y-104333219D01*
X144989654Y-104315976D01*
X145004070Y-104300070D01*
X145019976Y-104285654D01*
X145037219Y-104272866D01*
X145055632Y-104261830D01*
X145075038Y-104252651D01*
X145095250Y-104245419D01*
X145116074Y-104240203D01*
X145137309Y-104237053D01*
X145158750Y-104236000D01*
X145671250Y-104236000D01*
X145692691Y-104237053D01*
X145692691Y-104237053D01*
G37*
D11*
X145415000Y-104673500D03*
D10*
G36*
X145692691Y-102662053D02*
G01*
X145713926Y-102665203D01*
X145734750Y-102670419D01*
X145754962Y-102677651D01*
X145774368Y-102686830D01*
X145792781Y-102697866D01*
X145810024Y-102710654D01*
X145825930Y-102725070D01*
X145840346Y-102740976D01*
X145853134Y-102758219D01*
X145864170Y-102776632D01*
X145873349Y-102796038D01*
X145880581Y-102816250D01*
X145885797Y-102837074D01*
X145888947Y-102858309D01*
X145890000Y-102879750D01*
X145890000Y-103317250D01*
X145888947Y-103338691D01*
X145885797Y-103359926D01*
X145880581Y-103380750D01*
X145873349Y-103400962D01*
X145864170Y-103420368D01*
X145853134Y-103438781D01*
X145840346Y-103456024D01*
X145825930Y-103471930D01*
X145810024Y-103486346D01*
X145792781Y-103499134D01*
X145774368Y-103510170D01*
X145754962Y-103519349D01*
X145734750Y-103526581D01*
X145713926Y-103531797D01*
X145692691Y-103534947D01*
X145671250Y-103536000D01*
X145158750Y-103536000D01*
X145137309Y-103534947D01*
X145116074Y-103531797D01*
X145095250Y-103526581D01*
X145075038Y-103519349D01*
X145055632Y-103510170D01*
X145037219Y-103499134D01*
X145019976Y-103486346D01*
X145004070Y-103471930D01*
X144989654Y-103456024D01*
X144976866Y-103438781D01*
X144965830Y-103420368D01*
X144956651Y-103400962D01*
X144949419Y-103380750D01*
X144944203Y-103359926D01*
X144941053Y-103338691D01*
X144940000Y-103317250D01*
X144940000Y-102879750D01*
X144941053Y-102858309D01*
X144944203Y-102837074D01*
X144949419Y-102816250D01*
X144956651Y-102796038D01*
X144965830Y-102776632D01*
X144976866Y-102758219D01*
X144989654Y-102740976D01*
X145004070Y-102725070D01*
X145019976Y-102710654D01*
X145037219Y-102697866D01*
X145055632Y-102686830D01*
X145075038Y-102677651D01*
X145095250Y-102670419D01*
X145116074Y-102665203D01*
X145137309Y-102662053D01*
X145158750Y-102661000D01*
X145671250Y-102661000D01*
X145692691Y-102662053D01*
X145692691Y-102662053D01*
G37*
D11*
X145415000Y-103098500D03*
D10*
G36*
X147216691Y-102662053D02*
G01*
X147237926Y-102665203D01*
X147258750Y-102670419D01*
X147278962Y-102677651D01*
X147298368Y-102686830D01*
X147316781Y-102697866D01*
X147334024Y-102710654D01*
X147349930Y-102725070D01*
X147364346Y-102740976D01*
X147377134Y-102758219D01*
X147388170Y-102776632D01*
X147397349Y-102796038D01*
X147404581Y-102816250D01*
X147409797Y-102837074D01*
X147412947Y-102858309D01*
X147414000Y-102879750D01*
X147414000Y-103317250D01*
X147412947Y-103338691D01*
X147409797Y-103359926D01*
X147404581Y-103380750D01*
X147397349Y-103400962D01*
X147388170Y-103420368D01*
X147377134Y-103438781D01*
X147364346Y-103456024D01*
X147349930Y-103471930D01*
X147334024Y-103486346D01*
X147316781Y-103499134D01*
X147298368Y-103510170D01*
X147278962Y-103519349D01*
X147258750Y-103526581D01*
X147237926Y-103531797D01*
X147216691Y-103534947D01*
X147195250Y-103536000D01*
X146682750Y-103536000D01*
X146661309Y-103534947D01*
X146640074Y-103531797D01*
X146619250Y-103526581D01*
X146599038Y-103519349D01*
X146579632Y-103510170D01*
X146561219Y-103499134D01*
X146543976Y-103486346D01*
X146528070Y-103471930D01*
X146513654Y-103456024D01*
X146500866Y-103438781D01*
X146489830Y-103420368D01*
X146480651Y-103400962D01*
X146473419Y-103380750D01*
X146468203Y-103359926D01*
X146465053Y-103338691D01*
X146464000Y-103317250D01*
X146464000Y-102879750D01*
X146465053Y-102858309D01*
X146468203Y-102837074D01*
X146473419Y-102816250D01*
X146480651Y-102796038D01*
X146489830Y-102776632D01*
X146500866Y-102758219D01*
X146513654Y-102740976D01*
X146528070Y-102725070D01*
X146543976Y-102710654D01*
X146561219Y-102697866D01*
X146579632Y-102686830D01*
X146599038Y-102677651D01*
X146619250Y-102670419D01*
X146640074Y-102665203D01*
X146661309Y-102662053D01*
X146682750Y-102661000D01*
X147195250Y-102661000D01*
X147216691Y-102662053D01*
X147216691Y-102662053D01*
G37*
D11*
X146939000Y-103098500D03*
D10*
G36*
X147216691Y-104237053D02*
G01*
X147237926Y-104240203D01*
X147258750Y-104245419D01*
X147278962Y-104252651D01*
X147298368Y-104261830D01*
X147316781Y-104272866D01*
X147334024Y-104285654D01*
X147349930Y-104300070D01*
X147364346Y-104315976D01*
X147377134Y-104333219D01*
X147388170Y-104351632D01*
X147397349Y-104371038D01*
X147404581Y-104391250D01*
X147409797Y-104412074D01*
X147412947Y-104433309D01*
X147414000Y-104454750D01*
X147414000Y-104892250D01*
X147412947Y-104913691D01*
X147409797Y-104934926D01*
X147404581Y-104955750D01*
X147397349Y-104975962D01*
X147388170Y-104995368D01*
X147377134Y-105013781D01*
X147364346Y-105031024D01*
X147349930Y-105046930D01*
X147334024Y-105061346D01*
X147316781Y-105074134D01*
X147298368Y-105085170D01*
X147278962Y-105094349D01*
X147258750Y-105101581D01*
X147237926Y-105106797D01*
X147216691Y-105109947D01*
X147195250Y-105111000D01*
X146682750Y-105111000D01*
X146661309Y-105109947D01*
X146640074Y-105106797D01*
X146619250Y-105101581D01*
X146599038Y-105094349D01*
X146579632Y-105085170D01*
X146561219Y-105074134D01*
X146543976Y-105061346D01*
X146528070Y-105046930D01*
X146513654Y-105031024D01*
X146500866Y-105013781D01*
X146489830Y-104995368D01*
X146480651Y-104975962D01*
X146473419Y-104955750D01*
X146468203Y-104934926D01*
X146465053Y-104913691D01*
X146464000Y-104892250D01*
X146464000Y-104454750D01*
X146465053Y-104433309D01*
X146468203Y-104412074D01*
X146473419Y-104391250D01*
X146480651Y-104371038D01*
X146489830Y-104351632D01*
X146500866Y-104333219D01*
X146513654Y-104315976D01*
X146528070Y-104300070D01*
X146543976Y-104285654D01*
X146561219Y-104272866D01*
X146579632Y-104261830D01*
X146599038Y-104252651D01*
X146619250Y-104245419D01*
X146640074Y-104240203D01*
X146661309Y-104237053D01*
X146682750Y-104236000D01*
X147195250Y-104236000D01*
X147216691Y-104237053D01*
X147216691Y-104237053D01*
G37*
D11*
X146939000Y-104673500D03*
D10*
G36*
X148867691Y-102662053D02*
G01*
X148888926Y-102665203D01*
X148909750Y-102670419D01*
X148929962Y-102677651D01*
X148949368Y-102686830D01*
X148967781Y-102697866D01*
X148985024Y-102710654D01*
X149000930Y-102725070D01*
X149015346Y-102740976D01*
X149028134Y-102758219D01*
X149039170Y-102776632D01*
X149048349Y-102796038D01*
X149055581Y-102816250D01*
X149060797Y-102837074D01*
X149063947Y-102858309D01*
X149065000Y-102879750D01*
X149065000Y-103317250D01*
X149063947Y-103338691D01*
X149060797Y-103359926D01*
X149055581Y-103380750D01*
X149048349Y-103400962D01*
X149039170Y-103420368D01*
X149028134Y-103438781D01*
X149015346Y-103456024D01*
X149000930Y-103471930D01*
X148985024Y-103486346D01*
X148967781Y-103499134D01*
X148949368Y-103510170D01*
X148929962Y-103519349D01*
X148909750Y-103526581D01*
X148888926Y-103531797D01*
X148867691Y-103534947D01*
X148846250Y-103536000D01*
X148333750Y-103536000D01*
X148312309Y-103534947D01*
X148291074Y-103531797D01*
X148270250Y-103526581D01*
X148250038Y-103519349D01*
X148230632Y-103510170D01*
X148212219Y-103499134D01*
X148194976Y-103486346D01*
X148179070Y-103471930D01*
X148164654Y-103456024D01*
X148151866Y-103438781D01*
X148140830Y-103420368D01*
X148131651Y-103400962D01*
X148124419Y-103380750D01*
X148119203Y-103359926D01*
X148116053Y-103338691D01*
X148115000Y-103317250D01*
X148115000Y-102879750D01*
X148116053Y-102858309D01*
X148119203Y-102837074D01*
X148124419Y-102816250D01*
X148131651Y-102796038D01*
X148140830Y-102776632D01*
X148151866Y-102758219D01*
X148164654Y-102740976D01*
X148179070Y-102725070D01*
X148194976Y-102710654D01*
X148212219Y-102697866D01*
X148230632Y-102686830D01*
X148250038Y-102677651D01*
X148270250Y-102670419D01*
X148291074Y-102665203D01*
X148312309Y-102662053D01*
X148333750Y-102661000D01*
X148846250Y-102661000D01*
X148867691Y-102662053D01*
X148867691Y-102662053D01*
G37*
D11*
X148590000Y-103098500D03*
D10*
G36*
X148867691Y-104237053D02*
G01*
X148888926Y-104240203D01*
X148909750Y-104245419D01*
X148929962Y-104252651D01*
X148949368Y-104261830D01*
X148967781Y-104272866D01*
X148985024Y-104285654D01*
X149000930Y-104300070D01*
X149015346Y-104315976D01*
X149028134Y-104333219D01*
X149039170Y-104351632D01*
X149048349Y-104371038D01*
X149055581Y-104391250D01*
X149060797Y-104412074D01*
X149063947Y-104433309D01*
X149065000Y-104454750D01*
X149065000Y-104892250D01*
X149063947Y-104913691D01*
X149060797Y-104934926D01*
X149055581Y-104955750D01*
X149048349Y-104975962D01*
X149039170Y-104995368D01*
X149028134Y-105013781D01*
X149015346Y-105031024D01*
X149000930Y-105046930D01*
X148985024Y-105061346D01*
X148967781Y-105074134D01*
X148949368Y-105085170D01*
X148929962Y-105094349D01*
X148909750Y-105101581D01*
X148888926Y-105106797D01*
X148867691Y-105109947D01*
X148846250Y-105111000D01*
X148333750Y-105111000D01*
X148312309Y-105109947D01*
X148291074Y-105106797D01*
X148270250Y-105101581D01*
X148250038Y-105094349D01*
X148230632Y-105085170D01*
X148212219Y-105074134D01*
X148194976Y-105061346D01*
X148179070Y-105046930D01*
X148164654Y-105031024D01*
X148151866Y-105013781D01*
X148140830Y-104995368D01*
X148131651Y-104975962D01*
X148124419Y-104955750D01*
X148119203Y-104934926D01*
X148116053Y-104913691D01*
X148115000Y-104892250D01*
X148115000Y-104454750D01*
X148116053Y-104433309D01*
X148119203Y-104412074D01*
X148124419Y-104391250D01*
X148131651Y-104371038D01*
X148140830Y-104351632D01*
X148151866Y-104333219D01*
X148164654Y-104315976D01*
X148179070Y-104300070D01*
X148194976Y-104285654D01*
X148212219Y-104272866D01*
X148230632Y-104261830D01*
X148250038Y-104252651D01*
X148270250Y-104245419D01*
X148291074Y-104240203D01*
X148312309Y-104237053D01*
X148333750Y-104236000D01*
X148846250Y-104236000D01*
X148867691Y-104237053D01*
X148867691Y-104237053D01*
G37*
D11*
X148590000Y-104673500D03*
D10*
G36*
X162952691Y-97316053D02*
G01*
X162973926Y-97319203D01*
X162994750Y-97324419D01*
X163014962Y-97331651D01*
X163034368Y-97340830D01*
X163052781Y-97351866D01*
X163070024Y-97364654D01*
X163085930Y-97379070D01*
X163100346Y-97394976D01*
X163113134Y-97412219D01*
X163124170Y-97430632D01*
X163133349Y-97450038D01*
X163140581Y-97470250D01*
X163145797Y-97491074D01*
X163148947Y-97512309D01*
X163150000Y-97533750D01*
X163150000Y-98046250D01*
X163148947Y-98067691D01*
X163145797Y-98088926D01*
X163140581Y-98109750D01*
X163133349Y-98129962D01*
X163124170Y-98149368D01*
X163113134Y-98167781D01*
X163100346Y-98185024D01*
X163085930Y-98200930D01*
X163070024Y-98215346D01*
X163052781Y-98228134D01*
X163034368Y-98239170D01*
X163014962Y-98248349D01*
X162994750Y-98255581D01*
X162973926Y-98260797D01*
X162952691Y-98263947D01*
X162931250Y-98265000D01*
X162493750Y-98265000D01*
X162472309Y-98263947D01*
X162451074Y-98260797D01*
X162430250Y-98255581D01*
X162410038Y-98248349D01*
X162390632Y-98239170D01*
X162372219Y-98228134D01*
X162354976Y-98215346D01*
X162339070Y-98200930D01*
X162324654Y-98185024D01*
X162311866Y-98167781D01*
X162300830Y-98149368D01*
X162291651Y-98129962D01*
X162284419Y-98109750D01*
X162279203Y-98088926D01*
X162276053Y-98067691D01*
X162275000Y-98046250D01*
X162275000Y-97533750D01*
X162276053Y-97512309D01*
X162279203Y-97491074D01*
X162284419Y-97470250D01*
X162291651Y-97450038D01*
X162300830Y-97430632D01*
X162311866Y-97412219D01*
X162324654Y-97394976D01*
X162339070Y-97379070D01*
X162354976Y-97364654D01*
X162372219Y-97351866D01*
X162390632Y-97340830D01*
X162410038Y-97331651D01*
X162430250Y-97324419D01*
X162451074Y-97319203D01*
X162472309Y-97316053D01*
X162493750Y-97315000D01*
X162931250Y-97315000D01*
X162952691Y-97316053D01*
X162952691Y-97316053D01*
G37*
D11*
X162712500Y-97790000D03*
D10*
G36*
X161377691Y-97316053D02*
G01*
X161398926Y-97319203D01*
X161419750Y-97324419D01*
X161439962Y-97331651D01*
X161459368Y-97340830D01*
X161477781Y-97351866D01*
X161495024Y-97364654D01*
X161510930Y-97379070D01*
X161525346Y-97394976D01*
X161538134Y-97412219D01*
X161549170Y-97430632D01*
X161558349Y-97450038D01*
X161565581Y-97470250D01*
X161570797Y-97491074D01*
X161573947Y-97512309D01*
X161575000Y-97533750D01*
X161575000Y-98046250D01*
X161573947Y-98067691D01*
X161570797Y-98088926D01*
X161565581Y-98109750D01*
X161558349Y-98129962D01*
X161549170Y-98149368D01*
X161538134Y-98167781D01*
X161525346Y-98185024D01*
X161510930Y-98200930D01*
X161495024Y-98215346D01*
X161477781Y-98228134D01*
X161459368Y-98239170D01*
X161439962Y-98248349D01*
X161419750Y-98255581D01*
X161398926Y-98260797D01*
X161377691Y-98263947D01*
X161356250Y-98265000D01*
X160918750Y-98265000D01*
X160897309Y-98263947D01*
X160876074Y-98260797D01*
X160855250Y-98255581D01*
X160835038Y-98248349D01*
X160815632Y-98239170D01*
X160797219Y-98228134D01*
X160779976Y-98215346D01*
X160764070Y-98200930D01*
X160749654Y-98185024D01*
X160736866Y-98167781D01*
X160725830Y-98149368D01*
X160716651Y-98129962D01*
X160709419Y-98109750D01*
X160704203Y-98088926D01*
X160701053Y-98067691D01*
X160700000Y-98046250D01*
X160700000Y-97533750D01*
X160701053Y-97512309D01*
X160704203Y-97491074D01*
X160709419Y-97470250D01*
X160716651Y-97450038D01*
X160725830Y-97430632D01*
X160736866Y-97412219D01*
X160749654Y-97394976D01*
X160764070Y-97379070D01*
X160779976Y-97364654D01*
X160797219Y-97351866D01*
X160815632Y-97340830D01*
X160835038Y-97331651D01*
X160855250Y-97324419D01*
X160876074Y-97319203D01*
X160897309Y-97316053D01*
X160918750Y-97315000D01*
X161356250Y-97315000D01*
X161377691Y-97316053D01*
X161377691Y-97316053D01*
G37*
D11*
X161137500Y-97790000D03*
D14*
X154305000Y-104283000D03*
X155255000Y-106283000D03*
X153355000Y-106283000D03*
X155255000Y-89297000D03*
X153355000Y-89297000D03*
X154305000Y-91297000D03*
D10*
G36*
X150518691Y-105634053D02*
G01*
X150539926Y-105637203D01*
X150560750Y-105642419D01*
X150580962Y-105649651D01*
X150600368Y-105658830D01*
X150618781Y-105669866D01*
X150636024Y-105682654D01*
X150651930Y-105697070D01*
X150666346Y-105712976D01*
X150679134Y-105730219D01*
X150690170Y-105748632D01*
X150699349Y-105768038D01*
X150706581Y-105788250D01*
X150711797Y-105809074D01*
X150714947Y-105830309D01*
X150716000Y-105851750D01*
X150716000Y-106289250D01*
X150714947Y-106310691D01*
X150711797Y-106331926D01*
X150706581Y-106352750D01*
X150699349Y-106372962D01*
X150690170Y-106392368D01*
X150679134Y-106410781D01*
X150666346Y-106428024D01*
X150651930Y-106443930D01*
X150636024Y-106458346D01*
X150618781Y-106471134D01*
X150600368Y-106482170D01*
X150580962Y-106491349D01*
X150560750Y-106498581D01*
X150539926Y-106503797D01*
X150518691Y-106506947D01*
X150497250Y-106508000D01*
X149984750Y-106508000D01*
X149963309Y-106506947D01*
X149942074Y-106503797D01*
X149921250Y-106498581D01*
X149901038Y-106491349D01*
X149881632Y-106482170D01*
X149863219Y-106471134D01*
X149845976Y-106458346D01*
X149830070Y-106443930D01*
X149815654Y-106428024D01*
X149802866Y-106410781D01*
X149791830Y-106392368D01*
X149782651Y-106372962D01*
X149775419Y-106352750D01*
X149770203Y-106331926D01*
X149767053Y-106310691D01*
X149766000Y-106289250D01*
X149766000Y-105851750D01*
X149767053Y-105830309D01*
X149770203Y-105809074D01*
X149775419Y-105788250D01*
X149782651Y-105768038D01*
X149791830Y-105748632D01*
X149802866Y-105730219D01*
X149815654Y-105712976D01*
X149830070Y-105697070D01*
X149845976Y-105682654D01*
X149863219Y-105669866D01*
X149881632Y-105658830D01*
X149901038Y-105649651D01*
X149921250Y-105642419D01*
X149942074Y-105637203D01*
X149963309Y-105634053D01*
X149984750Y-105633000D01*
X150497250Y-105633000D01*
X150518691Y-105634053D01*
X150518691Y-105634053D01*
G37*
D11*
X150241000Y-106070500D03*
D10*
G36*
X150518691Y-104059053D02*
G01*
X150539926Y-104062203D01*
X150560750Y-104067419D01*
X150580962Y-104074651D01*
X150600368Y-104083830D01*
X150618781Y-104094866D01*
X150636024Y-104107654D01*
X150651930Y-104122070D01*
X150666346Y-104137976D01*
X150679134Y-104155219D01*
X150690170Y-104173632D01*
X150699349Y-104193038D01*
X150706581Y-104213250D01*
X150711797Y-104234074D01*
X150714947Y-104255309D01*
X150716000Y-104276750D01*
X150716000Y-104714250D01*
X150714947Y-104735691D01*
X150711797Y-104756926D01*
X150706581Y-104777750D01*
X150699349Y-104797962D01*
X150690170Y-104817368D01*
X150679134Y-104835781D01*
X150666346Y-104853024D01*
X150651930Y-104868930D01*
X150636024Y-104883346D01*
X150618781Y-104896134D01*
X150600368Y-104907170D01*
X150580962Y-104916349D01*
X150560750Y-104923581D01*
X150539926Y-104928797D01*
X150518691Y-104931947D01*
X150497250Y-104933000D01*
X149984750Y-104933000D01*
X149963309Y-104931947D01*
X149942074Y-104928797D01*
X149921250Y-104923581D01*
X149901038Y-104916349D01*
X149881632Y-104907170D01*
X149863219Y-104896134D01*
X149845976Y-104883346D01*
X149830070Y-104868930D01*
X149815654Y-104853024D01*
X149802866Y-104835781D01*
X149791830Y-104817368D01*
X149782651Y-104797962D01*
X149775419Y-104777750D01*
X149770203Y-104756926D01*
X149767053Y-104735691D01*
X149766000Y-104714250D01*
X149766000Y-104276750D01*
X149767053Y-104255309D01*
X149770203Y-104234074D01*
X149775419Y-104213250D01*
X149782651Y-104193038D01*
X149791830Y-104173632D01*
X149802866Y-104155219D01*
X149815654Y-104137976D01*
X149830070Y-104122070D01*
X149845976Y-104107654D01*
X149863219Y-104094866D01*
X149881632Y-104083830D01*
X149901038Y-104074651D01*
X149921250Y-104067419D01*
X149942074Y-104062203D01*
X149963309Y-104059053D01*
X149984750Y-104058000D01*
X150497250Y-104058000D01*
X150518691Y-104059053D01*
X150518691Y-104059053D01*
G37*
D11*
X150241000Y-104495500D03*
D10*
G36*
X138695691Y-100999053D02*
G01*
X138716926Y-101002203D01*
X138737750Y-101007419D01*
X138757962Y-101014651D01*
X138777368Y-101023830D01*
X138795781Y-101034866D01*
X138813024Y-101047654D01*
X138828930Y-101062070D01*
X138843346Y-101077976D01*
X138856134Y-101095219D01*
X138867170Y-101113632D01*
X138876349Y-101133038D01*
X138883581Y-101153250D01*
X138888797Y-101174074D01*
X138891947Y-101195309D01*
X138893000Y-101216750D01*
X138893000Y-101729250D01*
X138891947Y-101750691D01*
X138888797Y-101771926D01*
X138883581Y-101792750D01*
X138876349Y-101812962D01*
X138867170Y-101832368D01*
X138856134Y-101850781D01*
X138843346Y-101868024D01*
X138828930Y-101883930D01*
X138813024Y-101898346D01*
X138795781Y-101911134D01*
X138777368Y-101922170D01*
X138757962Y-101931349D01*
X138737750Y-101938581D01*
X138716926Y-101943797D01*
X138695691Y-101946947D01*
X138674250Y-101948000D01*
X138236750Y-101948000D01*
X138215309Y-101946947D01*
X138194074Y-101943797D01*
X138173250Y-101938581D01*
X138153038Y-101931349D01*
X138133632Y-101922170D01*
X138115219Y-101911134D01*
X138097976Y-101898346D01*
X138082070Y-101883930D01*
X138067654Y-101868024D01*
X138054866Y-101850781D01*
X138043830Y-101832368D01*
X138034651Y-101812962D01*
X138027419Y-101792750D01*
X138022203Y-101771926D01*
X138019053Y-101750691D01*
X138018000Y-101729250D01*
X138018000Y-101216750D01*
X138019053Y-101195309D01*
X138022203Y-101174074D01*
X138027419Y-101153250D01*
X138034651Y-101133038D01*
X138043830Y-101113632D01*
X138054866Y-101095219D01*
X138067654Y-101077976D01*
X138082070Y-101062070D01*
X138097976Y-101047654D01*
X138115219Y-101034866D01*
X138133632Y-101023830D01*
X138153038Y-101014651D01*
X138173250Y-101007419D01*
X138194074Y-101002203D01*
X138215309Y-100999053D01*
X138236750Y-100998000D01*
X138674250Y-100998000D01*
X138695691Y-100999053D01*
X138695691Y-100999053D01*
G37*
D11*
X138455500Y-101473000D03*
D10*
G36*
X137120691Y-100999053D02*
G01*
X137141926Y-101002203D01*
X137162750Y-101007419D01*
X137182962Y-101014651D01*
X137202368Y-101023830D01*
X137220781Y-101034866D01*
X137238024Y-101047654D01*
X137253930Y-101062070D01*
X137268346Y-101077976D01*
X137281134Y-101095219D01*
X137292170Y-101113632D01*
X137301349Y-101133038D01*
X137308581Y-101153250D01*
X137313797Y-101174074D01*
X137316947Y-101195309D01*
X137318000Y-101216750D01*
X137318000Y-101729250D01*
X137316947Y-101750691D01*
X137313797Y-101771926D01*
X137308581Y-101792750D01*
X137301349Y-101812962D01*
X137292170Y-101832368D01*
X137281134Y-101850781D01*
X137268346Y-101868024D01*
X137253930Y-101883930D01*
X137238024Y-101898346D01*
X137220781Y-101911134D01*
X137202368Y-101922170D01*
X137182962Y-101931349D01*
X137162750Y-101938581D01*
X137141926Y-101943797D01*
X137120691Y-101946947D01*
X137099250Y-101948000D01*
X136661750Y-101948000D01*
X136640309Y-101946947D01*
X136619074Y-101943797D01*
X136598250Y-101938581D01*
X136578038Y-101931349D01*
X136558632Y-101922170D01*
X136540219Y-101911134D01*
X136522976Y-101898346D01*
X136507070Y-101883930D01*
X136492654Y-101868024D01*
X136479866Y-101850781D01*
X136468830Y-101832368D01*
X136459651Y-101812962D01*
X136452419Y-101792750D01*
X136447203Y-101771926D01*
X136444053Y-101750691D01*
X136443000Y-101729250D01*
X136443000Y-101216750D01*
X136444053Y-101195309D01*
X136447203Y-101174074D01*
X136452419Y-101153250D01*
X136459651Y-101133038D01*
X136468830Y-101113632D01*
X136479866Y-101095219D01*
X136492654Y-101077976D01*
X136507070Y-101062070D01*
X136522976Y-101047654D01*
X136540219Y-101034866D01*
X136558632Y-101023830D01*
X136578038Y-101014651D01*
X136598250Y-101007419D01*
X136619074Y-101002203D01*
X136640309Y-100999053D01*
X136661750Y-100998000D01*
X137099250Y-100998000D01*
X137120691Y-100999053D01*
X137120691Y-100999053D01*
G37*
D11*
X136880500Y-101473000D03*
D10*
G36*
X147280691Y-100999053D02*
G01*
X147301926Y-101002203D01*
X147322750Y-101007419D01*
X147342962Y-101014651D01*
X147362368Y-101023830D01*
X147380781Y-101034866D01*
X147398024Y-101047654D01*
X147413930Y-101062070D01*
X147428346Y-101077976D01*
X147441134Y-101095219D01*
X147452170Y-101113632D01*
X147461349Y-101133038D01*
X147468581Y-101153250D01*
X147473797Y-101174074D01*
X147476947Y-101195309D01*
X147478000Y-101216750D01*
X147478000Y-101729250D01*
X147476947Y-101750691D01*
X147473797Y-101771926D01*
X147468581Y-101792750D01*
X147461349Y-101812962D01*
X147452170Y-101832368D01*
X147441134Y-101850781D01*
X147428346Y-101868024D01*
X147413930Y-101883930D01*
X147398024Y-101898346D01*
X147380781Y-101911134D01*
X147362368Y-101922170D01*
X147342962Y-101931349D01*
X147322750Y-101938581D01*
X147301926Y-101943797D01*
X147280691Y-101946947D01*
X147259250Y-101948000D01*
X146821750Y-101948000D01*
X146800309Y-101946947D01*
X146779074Y-101943797D01*
X146758250Y-101938581D01*
X146738038Y-101931349D01*
X146718632Y-101922170D01*
X146700219Y-101911134D01*
X146682976Y-101898346D01*
X146667070Y-101883930D01*
X146652654Y-101868024D01*
X146639866Y-101850781D01*
X146628830Y-101832368D01*
X146619651Y-101812962D01*
X146612419Y-101792750D01*
X146607203Y-101771926D01*
X146604053Y-101750691D01*
X146603000Y-101729250D01*
X146603000Y-101216750D01*
X146604053Y-101195309D01*
X146607203Y-101174074D01*
X146612419Y-101153250D01*
X146619651Y-101133038D01*
X146628830Y-101113632D01*
X146639866Y-101095219D01*
X146652654Y-101077976D01*
X146667070Y-101062070D01*
X146682976Y-101047654D01*
X146700219Y-101034866D01*
X146718632Y-101023830D01*
X146738038Y-101014651D01*
X146758250Y-101007419D01*
X146779074Y-101002203D01*
X146800309Y-100999053D01*
X146821750Y-100998000D01*
X147259250Y-100998000D01*
X147280691Y-100999053D01*
X147280691Y-100999053D01*
G37*
D11*
X147040500Y-101473000D03*
D10*
G36*
X148855691Y-100999053D02*
G01*
X148876926Y-101002203D01*
X148897750Y-101007419D01*
X148917962Y-101014651D01*
X148937368Y-101023830D01*
X148955781Y-101034866D01*
X148973024Y-101047654D01*
X148988930Y-101062070D01*
X149003346Y-101077976D01*
X149016134Y-101095219D01*
X149027170Y-101113632D01*
X149036349Y-101133038D01*
X149043581Y-101153250D01*
X149048797Y-101174074D01*
X149051947Y-101195309D01*
X149053000Y-101216750D01*
X149053000Y-101729250D01*
X149051947Y-101750691D01*
X149048797Y-101771926D01*
X149043581Y-101792750D01*
X149036349Y-101812962D01*
X149027170Y-101832368D01*
X149016134Y-101850781D01*
X149003346Y-101868024D01*
X148988930Y-101883930D01*
X148973024Y-101898346D01*
X148955781Y-101911134D01*
X148937368Y-101922170D01*
X148917962Y-101931349D01*
X148897750Y-101938581D01*
X148876926Y-101943797D01*
X148855691Y-101946947D01*
X148834250Y-101948000D01*
X148396750Y-101948000D01*
X148375309Y-101946947D01*
X148354074Y-101943797D01*
X148333250Y-101938581D01*
X148313038Y-101931349D01*
X148293632Y-101922170D01*
X148275219Y-101911134D01*
X148257976Y-101898346D01*
X148242070Y-101883930D01*
X148227654Y-101868024D01*
X148214866Y-101850781D01*
X148203830Y-101832368D01*
X148194651Y-101812962D01*
X148187419Y-101792750D01*
X148182203Y-101771926D01*
X148179053Y-101750691D01*
X148178000Y-101729250D01*
X148178000Y-101216750D01*
X148179053Y-101195309D01*
X148182203Y-101174074D01*
X148187419Y-101153250D01*
X148194651Y-101133038D01*
X148203830Y-101113632D01*
X148214866Y-101095219D01*
X148227654Y-101077976D01*
X148242070Y-101062070D01*
X148257976Y-101047654D01*
X148275219Y-101034866D01*
X148293632Y-101023830D01*
X148313038Y-101014651D01*
X148333250Y-101007419D01*
X148354074Y-101002203D01*
X148375309Y-100999053D01*
X148396750Y-100998000D01*
X148834250Y-100998000D01*
X148855691Y-100999053D01*
X148855691Y-100999053D01*
G37*
D11*
X148615500Y-101473000D03*
D10*
G36*
X159015691Y-105952053D02*
G01*
X159036926Y-105955203D01*
X159057750Y-105960419D01*
X159077962Y-105967651D01*
X159097368Y-105976830D01*
X159115781Y-105987866D01*
X159133024Y-106000654D01*
X159148930Y-106015070D01*
X159163346Y-106030976D01*
X159176134Y-106048219D01*
X159187170Y-106066632D01*
X159196349Y-106086038D01*
X159203581Y-106106250D01*
X159208797Y-106127074D01*
X159211947Y-106148309D01*
X159213000Y-106169750D01*
X159213000Y-106682250D01*
X159211947Y-106703691D01*
X159208797Y-106724926D01*
X159203581Y-106745750D01*
X159196349Y-106765962D01*
X159187170Y-106785368D01*
X159176134Y-106803781D01*
X159163346Y-106821024D01*
X159148930Y-106836930D01*
X159133024Y-106851346D01*
X159115781Y-106864134D01*
X159097368Y-106875170D01*
X159077962Y-106884349D01*
X159057750Y-106891581D01*
X159036926Y-106896797D01*
X159015691Y-106899947D01*
X158994250Y-106901000D01*
X158556750Y-106901000D01*
X158535309Y-106899947D01*
X158514074Y-106896797D01*
X158493250Y-106891581D01*
X158473038Y-106884349D01*
X158453632Y-106875170D01*
X158435219Y-106864134D01*
X158417976Y-106851346D01*
X158402070Y-106836930D01*
X158387654Y-106821024D01*
X158374866Y-106803781D01*
X158363830Y-106785368D01*
X158354651Y-106765962D01*
X158347419Y-106745750D01*
X158342203Y-106724926D01*
X158339053Y-106703691D01*
X158338000Y-106682250D01*
X158338000Y-106169750D01*
X158339053Y-106148309D01*
X158342203Y-106127074D01*
X158347419Y-106106250D01*
X158354651Y-106086038D01*
X158363830Y-106066632D01*
X158374866Y-106048219D01*
X158387654Y-106030976D01*
X158402070Y-106015070D01*
X158417976Y-106000654D01*
X158435219Y-105987866D01*
X158453632Y-105976830D01*
X158473038Y-105967651D01*
X158493250Y-105960419D01*
X158514074Y-105955203D01*
X158535309Y-105952053D01*
X158556750Y-105951000D01*
X158994250Y-105951000D01*
X159015691Y-105952053D01*
X159015691Y-105952053D01*
G37*
D11*
X158775500Y-106426000D03*
D10*
G36*
X157440691Y-105952053D02*
G01*
X157461926Y-105955203D01*
X157482750Y-105960419D01*
X157502962Y-105967651D01*
X157522368Y-105976830D01*
X157540781Y-105987866D01*
X157558024Y-106000654D01*
X157573930Y-106015070D01*
X157588346Y-106030976D01*
X157601134Y-106048219D01*
X157612170Y-106066632D01*
X157621349Y-106086038D01*
X157628581Y-106106250D01*
X157633797Y-106127074D01*
X157636947Y-106148309D01*
X157638000Y-106169750D01*
X157638000Y-106682250D01*
X157636947Y-106703691D01*
X157633797Y-106724926D01*
X157628581Y-106745750D01*
X157621349Y-106765962D01*
X157612170Y-106785368D01*
X157601134Y-106803781D01*
X157588346Y-106821024D01*
X157573930Y-106836930D01*
X157558024Y-106851346D01*
X157540781Y-106864134D01*
X157522368Y-106875170D01*
X157502962Y-106884349D01*
X157482750Y-106891581D01*
X157461926Y-106896797D01*
X157440691Y-106899947D01*
X157419250Y-106901000D01*
X156981750Y-106901000D01*
X156960309Y-106899947D01*
X156939074Y-106896797D01*
X156918250Y-106891581D01*
X156898038Y-106884349D01*
X156878632Y-106875170D01*
X156860219Y-106864134D01*
X156842976Y-106851346D01*
X156827070Y-106836930D01*
X156812654Y-106821024D01*
X156799866Y-106803781D01*
X156788830Y-106785368D01*
X156779651Y-106765962D01*
X156772419Y-106745750D01*
X156767203Y-106724926D01*
X156764053Y-106703691D01*
X156763000Y-106682250D01*
X156763000Y-106169750D01*
X156764053Y-106148309D01*
X156767203Y-106127074D01*
X156772419Y-106106250D01*
X156779651Y-106086038D01*
X156788830Y-106066632D01*
X156799866Y-106048219D01*
X156812654Y-106030976D01*
X156827070Y-106015070D01*
X156842976Y-106000654D01*
X156860219Y-105987866D01*
X156878632Y-105976830D01*
X156898038Y-105967651D01*
X156918250Y-105960419D01*
X156939074Y-105955203D01*
X156960309Y-105952053D01*
X156981750Y-105951000D01*
X157419250Y-105951000D01*
X157440691Y-105952053D01*
X157440691Y-105952053D01*
G37*
D11*
X157200500Y-106426000D03*
D10*
G36*
X157440691Y-88680053D02*
G01*
X157461926Y-88683203D01*
X157482750Y-88688419D01*
X157502962Y-88695651D01*
X157522368Y-88704830D01*
X157540781Y-88715866D01*
X157558024Y-88728654D01*
X157573930Y-88743070D01*
X157588346Y-88758976D01*
X157601134Y-88776219D01*
X157612170Y-88794632D01*
X157621349Y-88814038D01*
X157628581Y-88834250D01*
X157633797Y-88855074D01*
X157636947Y-88876309D01*
X157638000Y-88897750D01*
X157638000Y-89410250D01*
X157636947Y-89431691D01*
X157633797Y-89452926D01*
X157628581Y-89473750D01*
X157621349Y-89493962D01*
X157612170Y-89513368D01*
X157601134Y-89531781D01*
X157588346Y-89549024D01*
X157573930Y-89564930D01*
X157558024Y-89579346D01*
X157540781Y-89592134D01*
X157522368Y-89603170D01*
X157502962Y-89612349D01*
X157482750Y-89619581D01*
X157461926Y-89624797D01*
X157440691Y-89627947D01*
X157419250Y-89629000D01*
X156981750Y-89629000D01*
X156960309Y-89627947D01*
X156939074Y-89624797D01*
X156918250Y-89619581D01*
X156898038Y-89612349D01*
X156878632Y-89603170D01*
X156860219Y-89592134D01*
X156842976Y-89579346D01*
X156827070Y-89564930D01*
X156812654Y-89549024D01*
X156799866Y-89531781D01*
X156788830Y-89513368D01*
X156779651Y-89493962D01*
X156772419Y-89473750D01*
X156767203Y-89452926D01*
X156764053Y-89431691D01*
X156763000Y-89410250D01*
X156763000Y-88897750D01*
X156764053Y-88876309D01*
X156767203Y-88855074D01*
X156772419Y-88834250D01*
X156779651Y-88814038D01*
X156788830Y-88794632D01*
X156799866Y-88776219D01*
X156812654Y-88758976D01*
X156827070Y-88743070D01*
X156842976Y-88728654D01*
X156860219Y-88715866D01*
X156878632Y-88704830D01*
X156898038Y-88695651D01*
X156918250Y-88688419D01*
X156939074Y-88683203D01*
X156960309Y-88680053D01*
X156981750Y-88679000D01*
X157419250Y-88679000D01*
X157440691Y-88680053D01*
X157440691Y-88680053D01*
G37*
D11*
X157200500Y-89154000D03*
D10*
G36*
X159015691Y-88680053D02*
G01*
X159036926Y-88683203D01*
X159057750Y-88688419D01*
X159077962Y-88695651D01*
X159097368Y-88704830D01*
X159115781Y-88715866D01*
X159133024Y-88728654D01*
X159148930Y-88743070D01*
X159163346Y-88758976D01*
X159176134Y-88776219D01*
X159187170Y-88794632D01*
X159196349Y-88814038D01*
X159203581Y-88834250D01*
X159208797Y-88855074D01*
X159211947Y-88876309D01*
X159213000Y-88897750D01*
X159213000Y-89410250D01*
X159211947Y-89431691D01*
X159208797Y-89452926D01*
X159203581Y-89473750D01*
X159196349Y-89493962D01*
X159187170Y-89513368D01*
X159176134Y-89531781D01*
X159163346Y-89549024D01*
X159148930Y-89564930D01*
X159133024Y-89579346D01*
X159115781Y-89592134D01*
X159097368Y-89603170D01*
X159077962Y-89612349D01*
X159057750Y-89619581D01*
X159036926Y-89624797D01*
X159015691Y-89627947D01*
X158994250Y-89629000D01*
X158556750Y-89629000D01*
X158535309Y-89627947D01*
X158514074Y-89624797D01*
X158493250Y-89619581D01*
X158473038Y-89612349D01*
X158453632Y-89603170D01*
X158435219Y-89592134D01*
X158417976Y-89579346D01*
X158402070Y-89564930D01*
X158387654Y-89549024D01*
X158374866Y-89531781D01*
X158363830Y-89513368D01*
X158354651Y-89493962D01*
X158347419Y-89473750D01*
X158342203Y-89452926D01*
X158339053Y-89431691D01*
X158338000Y-89410250D01*
X158338000Y-88897750D01*
X158339053Y-88876309D01*
X158342203Y-88855074D01*
X158347419Y-88834250D01*
X158354651Y-88814038D01*
X158363830Y-88794632D01*
X158374866Y-88776219D01*
X158387654Y-88758976D01*
X158402070Y-88743070D01*
X158417976Y-88728654D01*
X158435219Y-88715866D01*
X158453632Y-88704830D01*
X158473038Y-88695651D01*
X158493250Y-88688419D01*
X158514074Y-88683203D01*
X158535309Y-88680053D01*
X158556750Y-88679000D01*
X158994250Y-88679000D01*
X159015691Y-88680053D01*
X159015691Y-88680053D01*
G37*
D11*
X158775500Y-89154000D03*
D10*
G36*
X150518691Y-102586053D02*
G01*
X150539926Y-102589203D01*
X150560750Y-102594419D01*
X150580962Y-102601651D01*
X150600368Y-102610830D01*
X150618781Y-102621866D01*
X150636024Y-102634654D01*
X150651930Y-102649070D01*
X150666346Y-102664976D01*
X150679134Y-102682219D01*
X150690170Y-102700632D01*
X150699349Y-102720038D01*
X150706581Y-102740250D01*
X150711797Y-102761074D01*
X150714947Y-102782309D01*
X150716000Y-102803750D01*
X150716000Y-103241250D01*
X150714947Y-103262691D01*
X150711797Y-103283926D01*
X150706581Y-103304750D01*
X150699349Y-103324962D01*
X150690170Y-103344368D01*
X150679134Y-103362781D01*
X150666346Y-103380024D01*
X150651930Y-103395930D01*
X150636024Y-103410346D01*
X150618781Y-103423134D01*
X150600368Y-103434170D01*
X150580962Y-103443349D01*
X150560750Y-103450581D01*
X150539926Y-103455797D01*
X150518691Y-103458947D01*
X150497250Y-103460000D01*
X149984750Y-103460000D01*
X149963309Y-103458947D01*
X149942074Y-103455797D01*
X149921250Y-103450581D01*
X149901038Y-103443349D01*
X149881632Y-103434170D01*
X149863219Y-103423134D01*
X149845976Y-103410346D01*
X149830070Y-103395930D01*
X149815654Y-103380024D01*
X149802866Y-103362781D01*
X149791830Y-103344368D01*
X149782651Y-103324962D01*
X149775419Y-103304750D01*
X149770203Y-103283926D01*
X149767053Y-103262691D01*
X149766000Y-103241250D01*
X149766000Y-102803750D01*
X149767053Y-102782309D01*
X149770203Y-102761074D01*
X149775419Y-102740250D01*
X149782651Y-102720038D01*
X149791830Y-102700632D01*
X149802866Y-102682219D01*
X149815654Y-102664976D01*
X149830070Y-102649070D01*
X149845976Y-102634654D01*
X149863219Y-102621866D01*
X149881632Y-102610830D01*
X149901038Y-102601651D01*
X149921250Y-102594419D01*
X149942074Y-102589203D01*
X149963309Y-102586053D01*
X149984750Y-102585000D01*
X150497250Y-102585000D01*
X150518691Y-102586053D01*
X150518691Y-102586053D01*
G37*
D11*
X150241000Y-103022500D03*
D10*
G36*
X150518691Y-101011053D02*
G01*
X150539926Y-101014203D01*
X150560750Y-101019419D01*
X150580962Y-101026651D01*
X150600368Y-101035830D01*
X150618781Y-101046866D01*
X150636024Y-101059654D01*
X150651930Y-101074070D01*
X150666346Y-101089976D01*
X150679134Y-101107219D01*
X150690170Y-101125632D01*
X150699349Y-101145038D01*
X150706581Y-101165250D01*
X150711797Y-101186074D01*
X150714947Y-101207309D01*
X150716000Y-101228750D01*
X150716000Y-101666250D01*
X150714947Y-101687691D01*
X150711797Y-101708926D01*
X150706581Y-101729750D01*
X150699349Y-101749962D01*
X150690170Y-101769368D01*
X150679134Y-101787781D01*
X150666346Y-101805024D01*
X150651930Y-101820930D01*
X150636024Y-101835346D01*
X150618781Y-101848134D01*
X150600368Y-101859170D01*
X150580962Y-101868349D01*
X150560750Y-101875581D01*
X150539926Y-101880797D01*
X150518691Y-101883947D01*
X150497250Y-101885000D01*
X149984750Y-101885000D01*
X149963309Y-101883947D01*
X149942074Y-101880797D01*
X149921250Y-101875581D01*
X149901038Y-101868349D01*
X149881632Y-101859170D01*
X149863219Y-101848134D01*
X149845976Y-101835346D01*
X149830070Y-101820930D01*
X149815654Y-101805024D01*
X149802866Y-101787781D01*
X149791830Y-101769368D01*
X149782651Y-101749962D01*
X149775419Y-101729750D01*
X149770203Y-101708926D01*
X149767053Y-101687691D01*
X149766000Y-101666250D01*
X149766000Y-101228750D01*
X149767053Y-101207309D01*
X149770203Y-101186074D01*
X149775419Y-101165250D01*
X149782651Y-101145038D01*
X149791830Y-101125632D01*
X149802866Y-101107219D01*
X149815654Y-101089976D01*
X149830070Y-101074070D01*
X149845976Y-101059654D01*
X149863219Y-101046866D01*
X149881632Y-101035830D01*
X149901038Y-101026651D01*
X149921250Y-101019419D01*
X149942074Y-101014203D01*
X149963309Y-101011053D01*
X149984750Y-101010000D01*
X150497250Y-101010000D01*
X150518691Y-101011053D01*
X150518691Y-101011053D01*
G37*
D11*
X150241000Y-101447500D03*
D10*
G36*
X138707691Y-89962053D02*
G01*
X138728926Y-89965203D01*
X138749750Y-89970419D01*
X138769962Y-89977651D01*
X138789368Y-89986830D01*
X138807781Y-89997866D01*
X138825024Y-90010654D01*
X138840930Y-90025070D01*
X138855346Y-90040976D01*
X138868134Y-90058219D01*
X138879170Y-90076632D01*
X138888349Y-90096038D01*
X138895581Y-90116250D01*
X138900797Y-90137074D01*
X138903947Y-90158309D01*
X138905000Y-90179750D01*
X138905000Y-90617250D01*
X138903947Y-90638691D01*
X138900797Y-90659926D01*
X138895581Y-90680750D01*
X138888349Y-90700962D01*
X138879170Y-90720368D01*
X138868134Y-90738781D01*
X138855346Y-90756024D01*
X138840930Y-90771930D01*
X138825024Y-90786346D01*
X138807781Y-90799134D01*
X138789368Y-90810170D01*
X138769962Y-90819349D01*
X138749750Y-90826581D01*
X138728926Y-90831797D01*
X138707691Y-90834947D01*
X138686250Y-90836000D01*
X138173750Y-90836000D01*
X138152309Y-90834947D01*
X138131074Y-90831797D01*
X138110250Y-90826581D01*
X138090038Y-90819349D01*
X138070632Y-90810170D01*
X138052219Y-90799134D01*
X138034976Y-90786346D01*
X138019070Y-90771930D01*
X138004654Y-90756024D01*
X137991866Y-90738781D01*
X137980830Y-90720368D01*
X137971651Y-90700962D01*
X137964419Y-90680750D01*
X137959203Y-90659926D01*
X137956053Y-90638691D01*
X137955000Y-90617250D01*
X137955000Y-90179750D01*
X137956053Y-90158309D01*
X137959203Y-90137074D01*
X137964419Y-90116250D01*
X137971651Y-90096038D01*
X137980830Y-90076632D01*
X137991866Y-90058219D01*
X138004654Y-90040976D01*
X138019070Y-90025070D01*
X138034976Y-90010654D01*
X138052219Y-89997866D01*
X138070632Y-89986830D01*
X138090038Y-89977651D01*
X138110250Y-89970419D01*
X138131074Y-89965203D01*
X138152309Y-89962053D01*
X138173750Y-89961000D01*
X138686250Y-89961000D01*
X138707691Y-89962053D01*
X138707691Y-89962053D01*
G37*
D11*
X138430000Y-90398500D03*
D10*
G36*
X138707691Y-91537053D02*
G01*
X138728926Y-91540203D01*
X138749750Y-91545419D01*
X138769962Y-91552651D01*
X138789368Y-91561830D01*
X138807781Y-91572866D01*
X138825024Y-91585654D01*
X138840930Y-91600070D01*
X138855346Y-91615976D01*
X138868134Y-91633219D01*
X138879170Y-91651632D01*
X138888349Y-91671038D01*
X138895581Y-91691250D01*
X138900797Y-91712074D01*
X138903947Y-91733309D01*
X138905000Y-91754750D01*
X138905000Y-92192250D01*
X138903947Y-92213691D01*
X138900797Y-92234926D01*
X138895581Y-92255750D01*
X138888349Y-92275962D01*
X138879170Y-92295368D01*
X138868134Y-92313781D01*
X138855346Y-92331024D01*
X138840930Y-92346930D01*
X138825024Y-92361346D01*
X138807781Y-92374134D01*
X138789368Y-92385170D01*
X138769962Y-92394349D01*
X138749750Y-92401581D01*
X138728926Y-92406797D01*
X138707691Y-92409947D01*
X138686250Y-92411000D01*
X138173750Y-92411000D01*
X138152309Y-92409947D01*
X138131074Y-92406797D01*
X138110250Y-92401581D01*
X138090038Y-92394349D01*
X138070632Y-92385170D01*
X138052219Y-92374134D01*
X138034976Y-92361346D01*
X138019070Y-92346930D01*
X138004654Y-92331024D01*
X137991866Y-92313781D01*
X137980830Y-92295368D01*
X137971651Y-92275962D01*
X137964419Y-92255750D01*
X137959203Y-92234926D01*
X137956053Y-92213691D01*
X137955000Y-92192250D01*
X137955000Y-91754750D01*
X137956053Y-91733309D01*
X137959203Y-91712074D01*
X137964419Y-91691250D01*
X137971651Y-91671038D01*
X137980830Y-91651632D01*
X137991866Y-91633219D01*
X138004654Y-91615976D01*
X138019070Y-91600070D01*
X138034976Y-91585654D01*
X138052219Y-91572866D01*
X138070632Y-91561830D01*
X138090038Y-91552651D01*
X138110250Y-91545419D01*
X138131074Y-91540203D01*
X138152309Y-91537053D01*
X138173750Y-91536000D01*
X138686250Y-91536000D01*
X138707691Y-91537053D01*
X138707691Y-91537053D01*
G37*
D11*
X138430000Y-91973500D03*
D10*
G36*
X138707691Y-95474053D02*
G01*
X138728926Y-95477203D01*
X138749750Y-95482419D01*
X138769962Y-95489651D01*
X138789368Y-95498830D01*
X138807781Y-95509866D01*
X138825024Y-95522654D01*
X138840930Y-95537070D01*
X138855346Y-95552976D01*
X138868134Y-95570219D01*
X138879170Y-95588632D01*
X138888349Y-95608038D01*
X138895581Y-95628250D01*
X138900797Y-95649074D01*
X138903947Y-95670309D01*
X138905000Y-95691750D01*
X138905000Y-96129250D01*
X138903947Y-96150691D01*
X138900797Y-96171926D01*
X138895581Y-96192750D01*
X138888349Y-96212962D01*
X138879170Y-96232368D01*
X138868134Y-96250781D01*
X138855346Y-96268024D01*
X138840930Y-96283930D01*
X138825024Y-96298346D01*
X138807781Y-96311134D01*
X138789368Y-96322170D01*
X138769962Y-96331349D01*
X138749750Y-96338581D01*
X138728926Y-96343797D01*
X138707691Y-96346947D01*
X138686250Y-96348000D01*
X138173750Y-96348000D01*
X138152309Y-96346947D01*
X138131074Y-96343797D01*
X138110250Y-96338581D01*
X138090038Y-96331349D01*
X138070632Y-96322170D01*
X138052219Y-96311134D01*
X138034976Y-96298346D01*
X138019070Y-96283930D01*
X138004654Y-96268024D01*
X137991866Y-96250781D01*
X137980830Y-96232368D01*
X137971651Y-96212962D01*
X137964419Y-96192750D01*
X137959203Y-96171926D01*
X137956053Y-96150691D01*
X137955000Y-96129250D01*
X137955000Y-95691750D01*
X137956053Y-95670309D01*
X137959203Y-95649074D01*
X137964419Y-95628250D01*
X137971651Y-95608038D01*
X137980830Y-95588632D01*
X137991866Y-95570219D01*
X138004654Y-95552976D01*
X138019070Y-95537070D01*
X138034976Y-95522654D01*
X138052219Y-95509866D01*
X138070632Y-95498830D01*
X138090038Y-95489651D01*
X138110250Y-95482419D01*
X138131074Y-95477203D01*
X138152309Y-95474053D01*
X138173750Y-95473000D01*
X138686250Y-95473000D01*
X138707691Y-95474053D01*
X138707691Y-95474053D01*
G37*
D11*
X138430000Y-95910500D03*
D10*
G36*
X138707691Y-93899053D02*
G01*
X138728926Y-93902203D01*
X138749750Y-93907419D01*
X138769962Y-93914651D01*
X138789368Y-93923830D01*
X138807781Y-93934866D01*
X138825024Y-93947654D01*
X138840930Y-93962070D01*
X138855346Y-93977976D01*
X138868134Y-93995219D01*
X138879170Y-94013632D01*
X138888349Y-94033038D01*
X138895581Y-94053250D01*
X138900797Y-94074074D01*
X138903947Y-94095309D01*
X138905000Y-94116750D01*
X138905000Y-94554250D01*
X138903947Y-94575691D01*
X138900797Y-94596926D01*
X138895581Y-94617750D01*
X138888349Y-94637962D01*
X138879170Y-94657368D01*
X138868134Y-94675781D01*
X138855346Y-94693024D01*
X138840930Y-94708930D01*
X138825024Y-94723346D01*
X138807781Y-94736134D01*
X138789368Y-94747170D01*
X138769962Y-94756349D01*
X138749750Y-94763581D01*
X138728926Y-94768797D01*
X138707691Y-94771947D01*
X138686250Y-94773000D01*
X138173750Y-94773000D01*
X138152309Y-94771947D01*
X138131074Y-94768797D01*
X138110250Y-94763581D01*
X138090038Y-94756349D01*
X138070632Y-94747170D01*
X138052219Y-94736134D01*
X138034976Y-94723346D01*
X138019070Y-94708930D01*
X138004654Y-94693024D01*
X137991866Y-94675781D01*
X137980830Y-94657368D01*
X137971651Y-94637962D01*
X137964419Y-94617750D01*
X137959203Y-94596926D01*
X137956053Y-94575691D01*
X137955000Y-94554250D01*
X137955000Y-94116750D01*
X137956053Y-94095309D01*
X137959203Y-94074074D01*
X137964419Y-94053250D01*
X137971651Y-94033038D01*
X137980830Y-94013632D01*
X137991866Y-93995219D01*
X138004654Y-93977976D01*
X138019070Y-93962070D01*
X138034976Y-93947654D01*
X138052219Y-93934866D01*
X138070632Y-93923830D01*
X138090038Y-93914651D01*
X138110250Y-93907419D01*
X138131074Y-93902203D01*
X138152309Y-93899053D01*
X138173750Y-93898000D01*
X138686250Y-93898000D01*
X138707691Y-93899053D01*
X138707691Y-93899053D01*
G37*
D11*
X138430000Y-94335500D03*
D15*
X155616000Y-98765000D03*
X155616000Y-98115000D03*
X155616000Y-97465000D03*
X155616000Y-96815000D03*
X151216000Y-96815000D03*
X151216000Y-97465000D03*
X151216000Y-98115000D03*
X151216000Y-98765000D03*
D16*
X143698000Y-101516000D03*
X142748000Y-101516000D03*
X141798000Y-101516000D03*
X141798000Y-103716000D03*
X143698000Y-103716000D03*
X142748000Y-103716000D03*
D17*
X140097000Y-90363000D03*
X140097000Y-92263000D03*
X142097000Y-91313000D03*
X142097000Y-94996000D03*
X140097000Y-95946000D03*
X140097000Y-94046000D03*
D18*
X175641000Y-105695000D03*
X175641000Y-100045000D03*
D19*
X175841000Y-102870000D03*
X175841000Y-92710000D03*
D18*
X175641000Y-89885000D03*
X175641000Y-95535000D03*
M02*
