M48
; DRILL file {KiCad 5.1.4-e60b266~84~ubuntu18.04.1} date Mon 09 Sep 2019 22:27:15 AEST
; FORMAT={-:-/ absolute / inch / decimal}
; #@! TF.CreationDate,2019-09-09T22:27:15+10:00
; #@! TF.GenerationSoftware,Kicad,Pcbnew,5.1.4-e60b266~84~ubuntu18.04.1
; #@! TF.FileFunction,Plated,1,4,PTH
FMAT,2
INCH
T1C0.0157
T2C0.0197
T3C0.0315
T4C0.0394
T5C0.1378
%
G90
G05
T1
X4.945Y-3.965
X4.945Y-4.0
X4.945Y-4.035
X4.95Y-3.425
X4.955Y-3.54
X4.955Y-3.65
X4.955Y-3.75
X4.96Y-4.175
X5.0Y-3.425
X5.01Y-4.23
X5.05Y-3.425
X5.05Y-4.275
X5.06Y-4.175
X5.08Y-3.77
X5.1Y-3.425
X5.125Y-3.71
X5.15Y-3.425
X5.17Y-3.65
X5.175Y-4.275
X5.18Y-3.865
X5.2Y-3.425
X5.235Y-3.815
X5.25Y-3.425
X5.265Y-3.955
X5.3Y-3.425
X5.3Y-4.275
X5.31Y-3.795
X5.325Y-3.94
X5.325Y-4.05
X5.325Y-4.12
X5.325Y-4.23
X5.35Y-3.425
X5.39Y-3.95
X5.4Y-3.425
X5.4Y-4.115
X5.41Y-3.62
X5.41Y-3.715
X5.425Y-4.275
X5.45Y-3.425
X5.45Y-4.165
X5.5Y-3.425
X5.515Y-4.165
X5.55Y-3.425
X5.55Y-4.275
X5.575Y-3.64
X5.575Y-3.695
X5.5837Y-4.0412
X5.585Y-3.94
X5.6Y-3.425
X5.62Y-3.94
X5.65Y-3.425
X5.655Y-3.94
X5.675Y-4.275
X5.7Y-3.425
X5.725Y-4.17
X5.75Y-3.425
X5.765Y-3.885
X5.785Y-4.17
X5.795Y-3.795
X5.795Y-3.915
X5.8Y-3.425
X5.8Y-4.275
X5.825Y-3.825
X5.85Y-3.425
X5.85Y-4.17
X5.865Y-3.83
X5.895Y-3.83
X5.9Y-3.425
X5.925Y-4.275
X5.95Y-3.425
X5.955Y-3.995
X6.0Y-3.425
X6.0Y-3.685
X6.01Y-3.8
X6.01Y-3.88
X6.01Y-3.96
X6.02Y-3.84
X6.035Y-3.47
X6.035Y-4.23
X6.0635Y-3.6457
X6.065Y-3.685
X6.065Y-3.8
X6.065Y-3.905
X6.065Y-4.015
X6.115Y-3.47
X6.115Y-4.23
X6.125Y-3.695
X6.125Y-4.005
X6.135Y-3.58
X6.135Y-4.12
X6.19Y-3.455
X6.19Y-4.245
X6.225Y-3.71
X6.225Y-4.0
X6.255Y-3.85
X6.275Y-3.425
X6.275Y-3.715
X6.275Y-4.275
X6.4Y-3.425
X6.4Y-4.275
X6.405Y-3.795
X6.405Y-3.905
X6.46Y-3.85
X6.475Y-3.6
X6.475Y-3.7
X6.475Y-4.0
X6.475Y-4.1
X6.525Y-3.425
X6.525Y-4.275
X6.65Y-3.425
X6.65Y-4.275
X6.75Y-3.6
X6.75Y-3.7
X6.75Y-4.0
X6.75Y-4.1
X6.795Y-3.54
X6.795Y-3.76
X6.795Y-3.935
X6.795Y-4.16
X6.825Y-3.7
X6.825Y-3.825
X6.825Y-3.875
X6.825Y-4.0
X6.825Y-4.1
X6.825Y-4.225
X6.83Y-3.475
X6.83Y-3.6
X6.915Y-3.475
X6.915Y-3.6
X6.915Y-3.7
X6.915Y-3.825
X6.915Y-3.875
X6.915Y-4.0
X6.915Y-4.1
X6.915Y-4.225
T2
X6.5467Y-3.85
X6.5769Y-3.7769
X6.5769Y-3.9231
X6.65Y-3.7467
X6.65Y-3.9533
X6.7231Y-3.7769
X6.7231Y-3.9231
X6.7533Y-3.85
T3
X5.725Y-3.565
X5.725Y-3.665
X5.725Y-3.765
T4
X6.365Y-3.95
X6.365Y-4.05
X6.365Y-4.15
X6.55Y-4.15
X6.65Y-4.15
X6.365Y-3.55
X6.365Y-3.65
X6.365Y-3.75
X6.55Y-3.55
X6.65Y-3.55
X4.875Y-3.6
X4.875Y-3.7
X4.875Y-3.8
X4.875Y-3.9
X4.875Y-4.0
X4.875Y-4.1
T5
X6.65Y-3.85
T0
M30
