G04 #@! TF.GenerationSoftware,KiCad,Pcbnew,5.1.4-e60b266~84~ubuntu18.04.1*
G04 #@! TF.CreationDate,2019-09-09T22:27:04+10:00*
G04 #@! TF.ProjectId,comparator,636f6d70-6172-4617-946f-722e6b696361,21/06/19*
G04 #@! TF.SameCoordinates,Original*
G04 #@! TF.FileFunction,Soldermask,Bot*
G04 #@! TF.FilePolarity,Negative*
%FSLAX46Y46*%
G04 Gerber Fmt 4.6, Leading zero omitted, Abs format (unit mm)*
G04 Created by KiCad (PCBNEW 5.1.4-e60b266~84~ubuntu18.04.1) date 2019-09-09 22:27:04*
%MOMM*%
%LPD*%
G04 APERTURE LIST*
%ADD10C,0.100000*%
G04 APERTURE END LIST*
D10*
G36*
X153035000Y-87630000D02*
G01*
X125095000Y-87630000D01*
X125095000Y-86360000D01*
X153035000Y-86360000D01*
X153035000Y-87630000D01*
G37*
X153035000Y-87630000D02*
X125095000Y-87630000D01*
X125095000Y-86360000D01*
X153035000Y-86360000D01*
X153035000Y-87630000D01*
G36*
X177792000Y-106421000D02*
G01*
X173490000Y-106421000D01*
X173490000Y-104969000D01*
X177792000Y-104969000D01*
X177792000Y-106421000D01*
X177792000Y-106421000D01*
G37*
G36*
X169811000Y-106311000D02*
G01*
X168009000Y-106311000D01*
X168009000Y-104509000D01*
X169811000Y-104509000D01*
X169811000Y-106311000D01*
X169811000Y-106311000D01*
G37*
G36*
X166480443Y-104515519D02*
G01*
X166546627Y-104522037D01*
X166716466Y-104573557D01*
X166872991Y-104657222D01*
X166908729Y-104686552D01*
X167010186Y-104769814D01*
X167093448Y-104871271D01*
X167122778Y-104907009D01*
X167206443Y-105063534D01*
X167257963Y-105233373D01*
X167275359Y-105410000D01*
X167257963Y-105586627D01*
X167206443Y-105756466D01*
X167122778Y-105912991D01*
X167093448Y-105948729D01*
X167010186Y-106050186D01*
X166908729Y-106133448D01*
X166872991Y-106162778D01*
X166716466Y-106246443D01*
X166546627Y-106297963D01*
X166480442Y-106304482D01*
X166414260Y-106311000D01*
X166325740Y-106311000D01*
X166259558Y-106304482D01*
X166193373Y-106297963D01*
X166023534Y-106246443D01*
X165867009Y-106162778D01*
X165831271Y-106133448D01*
X165729814Y-106050186D01*
X165646552Y-105948729D01*
X165617222Y-105912991D01*
X165533557Y-105756466D01*
X165482037Y-105586627D01*
X165464641Y-105410000D01*
X165482037Y-105233373D01*
X165533557Y-105063534D01*
X165617222Y-104907009D01*
X165646552Y-104871271D01*
X165729814Y-104769814D01*
X165831271Y-104686552D01*
X165867009Y-104657222D01*
X166023534Y-104573557D01*
X166193373Y-104522037D01*
X166259557Y-104515519D01*
X166325740Y-104509000D01*
X166414260Y-104509000D01*
X166480443Y-104515519D01*
X166480443Y-104515519D01*
G37*
G36*
X162572000Y-106311000D02*
G01*
X160770000Y-106311000D01*
X160770000Y-104509000D01*
X162572000Y-104509000D01*
X162572000Y-106311000D01*
X162572000Y-106311000D01*
G37*
G36*
X123935443Y-103245519D02*
G01*
X124001627Y-103252037D01*
X124171466Y-103303557D01*
X124327991Y-103387222D01*
X124363729Y-103416552D01*
X124465186Y-103499814D01*
X124548448Y-103601271D01*
X124577778Y-103637009D01*
X124661443Y-103793534D01*
X124712963Y-103963373D01*
X124730359Y-104140000D01*
X124712963Y-104316627D01*
X124661443Y-104486466D01*
X124577778Y-104642991D01*
X124548448Y-104678729D01*
X124465186Y-104780186D01*
X124363729Y-104863448D01*
X124327991Y-104892778D01*
X124171466Y-104976443D01*
X124001627Y-105027963D01*
X123935442Y-105034482D01*
X123869260Y-105041000D01*
X123780740Y-105041000D01*
X123714557Y-105034481D01*
X123648373Y-105027963D01*
X123478534Y-104976443D01*
X123322009Y-104892778D01*
X123286271Y-104863448D01*
X123184814Y-104780186D01*
X123101552Y-104678729D01*
X123072222Y-104642991D01*
X122988557Y-104486466D01*
X122937037Y-104316627D01*
X122919641Y-104140000D01*
X122937037Y-103963373D01*
X122988557Y-103793534D01*
X123072222Y-103637009D01*
X123101552Y-103601271D01*
X123184814Y-103499814D01*
X123286271Y-103416552D01*
X123322009Y-103387222D01*
X123478534Y-103303557D01*
X123648373Y-103252037D01*
X123714558Y-103245518D01*
X123780740Y-103239000D01*
X123869260Y-103239000D01*
X123935443Y-103245519D01*
X123935443Y-103245519D01*
G37*
G36*
X161781442Y-101975518D02*
G01*
X161847627Y-101982037D01*
X162017466Y-102033557D01*
X162173991Y-102117222D01*
X162209729Y-102146552D01*
X162311186Y-102229814D01*
X162394448Y-102331271D01*
X162423778Y-102367009D01*
X162507443Y-102523534D01*
X162558963Y-102693373D01*
X162576359Y-102870000D01*
X162558963Y-103046627D01*
X162507443Y-103216466D01*
X162423778Y-103372991D01*
X162394448Y-103408729D01*
X162311186Y-103510186D01*
X162209729Y-103593448D01*
X162173991Y-103622778D01*
X162017466Y-103706443D01*
X161847627Y-103757963D01*
X161781443Y-103764481D01*
X161715260Y-103771000D01*
X161626740Y-103771000D01*
X161560557Y-103764481D01*
X161494373Y-103757963D01*
X161324534Y-103706443D01*
X161168009Y-103622778D01*
X161132271Y-103593448D01*
X161030814Y-103510186D01*
X160947552Y-103408729D01*
X160918222Y-103372991D01*
X160834557Y-103216466D01*
X160783037Y-103046627D01*
X160765641Y-102870000D01*
X160783037Y-102693373D01*
X160834557Y-102523534D01*
X160918222Y-102367009D01*
X160947552Y-102331271D01*
X161030814Y-102229814D01*
X161132271Y-102146552D01*
X161168009Y-102117222D01*
X161324534Y-102033557D01*
X161494373Y-101982037D01*
X161560558Y-101975518D01*
X161626740Y-101969000D01*
X161715260Y-101969000D01*
X161781442Y-101975518D01*
X161781442Y-101975518D01*
G37*
G36*
X123935443Y-100705519D02*
G01*
X124001627Y-100712037D01*
X124171466Y-100763557D01*
X124327991Y-100847222D01*
X124350872Y-100866000D01*
X124465186Y-100959814D01*
X124548448Y-101061271D01*
X124577778Y-101097009D01*
X124661443Y-101253534D01*
X124712963Y-101423373D01*
X124730359Y-101600000D01*
X124712963Y-101776627D01*
X124661443Y-101946466D01*
X124577778Y-102102991D01*
X124548448Y-102138729D01*
X124465186Y-102240186D01*
X124363729Y-102323448D01*
X124327991Y-102352778D01*
X124171466Y-102436443D01*
X124001627Y-102487963D01*
X123935442Y-102494482D01*
X123869260Y-102501000D01*
X123780740Y-102501000D01*
X123714558Y-102494482D01*
X123648373Y-102487963D01*
X123478534Y-102436443D01*
X123322009Y-102352778D01*
X123286271Y-102323448D01*
X123184814Y-102240186D01*
X123101552Y-102138729D01*
X123072222Y-102102991D01*
X122988557Y-101946466D01*
X122937037Y-101776627D01*
X122919641Y-101600000D01*
X122937037Y-101423373D01*
X122988557Y-101253534D01*
X123072222Y-101097009D01*
X123101552Y-101061271D01*
X123184814Y-100959814D01*
X123299128Y-100866000D01*
X123322009Y-100847222D01*
X123478534Y-100763557D01*
X123648373Y-100712037D01*
X123714557Y-100705519D01*
X123780740Y-100699000D01*
X123869260Y-100699000D01*
X123935443Y-100705519D01*
X123935443Y-100705519D01*
G37*
G36*
X169945787Y-94375462D02*
G01*
X169945790Y-94375463D01*
X169945789Y-94375463D01*
X170592029Y-94643144D01*
X171173631Y-95031758D01*
X171668242Y-95526369D01*
X172056856Y-96107971D01*
X172227524Y-96520000D01*
X172324538Y-96754213D01*
X172461000Y-97440256D01*
X172461000Y-98139744D01*
X172324538Y-98825787D01*
X172324537Y-98825789D01*
X172056856Y-99472029D01*
X171668242Y-100053631D01*
X171173631Y-100548242D01*
X170592029Y-100936856D01*
X170239739Y-101082779D01*
X169945787Y-101204538D01*
X169259744Y-101341000D01*
X168560256Y-101341000D01*
X167874213Y-101204538D01*
X167580261Y-101082779D01*
X167227971Y-100936856D01*
X166646369Y-100548242D01*
X166151758Y-100053631D01*
X165763144Y-99472029D01*
X165495463Y-98825789D01*
X165495462Y-98825787D01*
X165359000Y-98139744D01*
X165359000Y-97440256D01*
X165495462Y-96754213D01*
X165592476Y-96520000D01*
X165763144Y-96107971D01*
X166151758Y-95526369D01*
X166646369Y-95031758D01*
X167227971Y-94643144D01*
X167874211Y-94375463D01*
X167874210Y-94375463D01*
X167874213Y-94375462D01*
X168560256Y-94239000D01*
X169259744Y-94239000D01*
X169945787Y-94375462D01*
X169945787Y-94375462D01*
G37*
G36*
X161781443Y-99435519D02*
G01*
X161847627Y-99442037D01*
X162017466Y-99493557D01*
X162173991Y-99577222D01*
X162203860Y-99601735D01*
X162311186Y-99689814D01*
X162383317Y-99777707D01*
X162423778Y-99827009D01*
X162507443Y-99983534D01*
X162558963Y-100153373D01*
X162576359Y-100330000D01*
X162558963Y-100506627D01*
X162507443Y-100676466D01*
X162423778Y-100832991D01*
X162410912Y-100848668D01*
X162311186Y-100970186D01*
X162209729Y-101053448D01*
X162173991Y-101082778D01*
X162017466Y-101166443D01*
X161847627Y-101217963D01*
X161781443Y-101224481D01*
X161715260Y-101231000D01*
X161626740Y-101231000D01*
X161560558Y-101224482D01*
X161494373Y-101217963D01*
X161324534Y-101166443D01*
X161168009Y-101082778D01*
X161132271Y-101053448D01*
X161030814Y-100970186D01*
X160931088Y-100848668D01*
X160918222Y-100832991D01*
X160834557Y-100676466D01*
X160783037Y-100506627D01*
X160765641Y-100330000D01*
X160783037Y-100153373D01*
X160834557Y-99983534D01*
X160918222Y-99827009D01*
X160958683Y-99777707D01*
X161030814Y-99689814D01*
X161138140Y-99601735D01*
X161168009Y-99577222D01*
X161324534Y-99493557D01*
X161494373Y-99442037D01*
X161560558Y-99435518D01*
X161626740Y-99429000D01*
X161715260Y-99429000D01*
X161781443Y-99435519D01*
X161781443Y-99435519D01*
G37*
G36*
X177792000Y-100771000D02*
G01*
X173490000Y-100771000D01*
X173490000Y-99319000D01*
X177792000Y-99319000D01*
X177792000Y-100771000D01*
X177792000Y-100771000D01*
G37*
G36*
X123935443Y-98165519D02*
G01*
X124001627Y-98172037D01*
X124171466Y-98223557D01*
X124327991Y-98307222D01*
X124363729Y-98336552D01*
X124465186Y-98419814D01*
X124548448Y-98521271D01*
X124577778Y-98557009D01*
X124661443Y-98713534D01*
X124712963Y-98883373D01*
X124730359Y-99060000D01*
X124712963Y-99236627D01*
X124661443Y-99406466D01*
X124577778Y-99562991D01*
X124548448Y-99598729D01*
X124465186Y-99700186D01*
X124370725Y-99777707D01*
X124327991Y-99812778D01*
X124171466Y-99896443D01*
X124001627Y-99947963D01*
X123935443Y-99954481D01*
X123869260Y-99961000D01*
X123780740Y-99961000D01*
X123714557Y-99954481D01*
X123648373Y-99947963D01*
X123478534Y-99896443D01*
X123322009Y-99812778D01*
X123279275Y-99777707D01*
X123184814Y-99700186D01*
X123101552Y-99598729D01*
X123072222Y-99562991D01*
X122988557Y-99406466D01*
X122937037Y-99236627D01*
X122919641Y-99060000D01*
X122937037Y-98883373D01*
X122988557Y-98713534D01*
X123072222Y-98557009D01*
X123101552Y-98521271D01*
X123184814Y-98419814D01*
X123286271Y-98336552D01*
X123322009Y-98307222D01*
X123478534Y-98223557D01*
X123648373Y-98172037D01*
X123714557Y-98165519D01*
X123780740Y-98159000D01*
X123869260Y-98159000D01*
X123935443Y-98165519D01*
X123935443Y-98165519D01*
G37*
G36*
X123935442Y-95625518D02*
G01*
X124001627Y-95632037D01*
X124171466Y-95683557D01*
X124327991Y-95767222D01*
X124363729Y-95796552D01*
X124465186Y-95879814D01*
X124545981Y-95978265D01*
X124577778Y-96017009D01*
X124661443Y-96173534D01*
X124712963Y-96343373D01*
X124730359Y-96520000D01*
X124712963Y-96696627D01*
X124661443Y-96866466D01*
X124577778Y-97022991D01*
X124548448Y-97058729D01*
X124465186Y-97160186D01*
X124363729Y-97243448D01*
X124327991Y-97272778D01*
X124171466Y-97356443D01*
X124001627Y-97407963D01*
X123935442Y-97414482D01*
X123869260Y-97421000D01*
X123780740Y-97421000D01*
X123714558Y-97414482D01*
X123648373Y-97407963D01*
X123478534Y-97356443D01*
X123322009Y-97272778D01*
X123286271Y-97243448D01*
X123184814Y-97160186D01*
X123101552Y-97058729D01*
X123072222Y-97022991D01*
X122988557Y-96866466D01*
X122937037Y-96696627D01*
X122919641Y-96520000D01*
X122937037Y-96343373D01*
X122988557Y-96173534D01*
X123072222Y-96017009D01*
X123104019Y-95978265D01*
X123184814Y-95879814D01*
X123286271Y-95796552D01*
X123322009Y-95767222D01*
X123478534Y-95683557D01*
X123648373Y-95632037D01*
X123714558Y-95625518D01*
X123780740Y-95619000D01*
X123869260Y-95619000D01*
X123935442Y-95625518D01*
X123935442Y-95625518D01*
G37*
G36*
X145530970Y-94867963D02*
G01*
X145639893Y-94889629D01*
X145780206Y-94947748D01*
X145906484Y-95032125D01*
X146013875Y-95139516D01*
X146098252Y-95265794D01*
X146156371Y-95406107D01*
X146165598Y-95452496D01*
X146180293Y-95526369D01*
X146186000Y-95555063D01*
X146186000Y-95706937D01*
X146156371Y-95855893D01*
X146098252Y-95996206D01*
X146013875Y-96122484D01*
X145906484Y-96229875D01*
X145780206Y-96314252D01*
X145639893Y-96372371D01*
X145540589Y-96392124D01*
X145490938Y-96402000D01*
X145339062Y-96402000D01*
X145289411Y-96392124D01*
X145190107Y-96372371D01*
X145049794Y-96314252D01*
X144923516Y-96229875D01*
X144816125Y-96122484D01*
X144731748Y-95996206D01*
X144673629Y-95855893D01*
X144644000Y-95706937D01*
X144644000Y-95555063D01*
X144649708Y-95526369D01*
X144664402Y-95452496D01*
X144673629Y-95406107D01*
X144731748Y-95265794D01*
X144816125Y-95139516D01*
X144923516Y-95032125D01*
X145049794Y-94947748D01*
X145190107Y-94889629D01*
X145299030Y-94867963D01*
X145339062Y-94860000D01*
X145490938Y-94860000D01*
X145530970Y-94867963D01*
X145530970Y-94867963D01*
G37*
G36*
X177792000Y-96261000D02*
G01*
X173490000Y-96261000D01*
X173490000Y-94809000D01*
X177792000Y-94809000D01*
X177792000Y-96261000D01*
X177792000Y-96261000D01*
G37*
G36*
X161781442Y-94355518D02*
G01*
X161847627Y-94362037D01*
X162017466Y-94413557D01*
X162173991Y-94497222D01*
X162209729Y-94526552D01*
X162311186Y-94609814D01*
X162394448Y-94711271D01*
X162423778Y-94747009D01*
X162507443Y-94903534D01*
X162558963Y-95073373D01*
X162576359Y-95250000D01*
X162558963Y-95426627D01*
X162507443Y-95596466D01*
X162423778Y-95752991D01*
X162394448Y-95788729D01*
X162311186Y-95890186D01*
X162209729Y-95973448D01*
X162173991Y-96002778D01*
X162017466Y-96086443D01*
X161847627Y-96137963D01*
X161781443Y-96144481D01*
X161715260Y-96151000D01*
X161626740Y-96151000D01*
X161560558Y-96144482D01*
X161494373Y-96137963D01*
X161324534Y-96086443D01*
X161168009Y-96002778D01*
X161132271Y-95973448D01*
X161030814Y-95890186D01*
X160947552Y-95788729D01*
X160918222Y-95752991D01*
X160834557Y-95596466D01*
X160783037Y-95426627D01*
X160765641Y-95250000D01*
X160783037Y-95073373D01*
X160834557Y-94903534D01*
X160918222Y-94747009D01*
X160947552Y-94711271D01*
X161030814Y-94609814D01*
X161132271Y-94526552D01*
X161168009Y-94497222D01*
X161324534Y-94413557D01*
X161494373Y-94362037D01*
X161560557Y-94355519D01*
X161626740Y-94349000D01*
X161715260Y-94349000D01*
X161781442Y-94355518D01*
X161781442Y-94355518D01*
G37*
G36*
X123935443Y-93085519D02*
G01*
X124001627Y-93092037D01*
X124171466Y-93143557D01*
X124327991Y-93227222D01*
X124363729Y-93256552D01*
X124465186Y-93339814D01*
X124548448Y-93441271D01*
X124577778Y-93477009D01*
X124661443Y-93633534D01*
X124712963Y-93803373D01*
X124730359Y-93980000D01*
X124712963Y-94156627D01*
X124661443Y-94326466D01*
X124577778Y-94482991D01*
X124548448Y-94518729D01*
X124465186Y-94620186D01*
X124363729Y-94703448D01*
X124327991Y-94732778D01*
X124171466Y-94816443D01*
X124001627Y-94867963D01*
X123935443Y-94874481D01*
X123869260Y-94881000D01*
X123780740Y-94881000D01*
X123714557Y-94874481D01*
X123648373Y-94867963D01*
X123478534Y-94816443D01*
X123322009Y-94732778D01*
X123286271Y-94703448D01*
X123184814Y-94620186D01*
X123101552Y-94518729D01*
X123072222Y-94482991D01*
X122988557Y-94326466D01*
X122937037Y-94156627D01*
X122919641Y-93980000D01*
X122937037Y-93803373D01*
X122988557Y-93633534D01*
X123072222Y-93477009D01*
X123101552Y-93441271D01*
X123184814Y-93339814D01*
X123286271Y-93256552D01*
X123322009Y-93227222D01*
X123478534Y-93143557D01*
X123648373Y-93092037D01*
X123714557Y-93085519D01*
X123780740Y-93079000D01*
X123869260Y-93079000D01*
X123935443Y-93085519D01*
X123935443Y-93085519D01*
G37*
G36*
X145540589Y-92329876D02*
G01*
X145639893Y-92349629D01*
X145780206Y-92407748D01*
X145906484Y-92492125D01*
X146013875Y-92599516D01*
X146098252Y-92725794D01*
X146156371Y-92866107D01*
X146186000Y-93015063D01*
X146186000Y-93166937D01*
X146156371Y-93315893D01*
X146098252Y-93456206D01*
X146013875Y-93582484D01*
X145906484Y-93689875D01*
X145780206Y-93774252D01*
X145639893Y-93832371D01*
X145540589Y-93852124D01*
X145490938Y-93862000D01*
X145339062Y-93862000D01*
X145289411Y-93852124D01*
X145190107Y-93832371D01*
X145049794Y-93774252D01*
X144923516Y-93689875D01*
X144816125Y-93582484D01*
X144731748Y-93456206D01*
X144673629Y-93315893D01*
X144644000Y-93166937D01*
X144644000Y-93015063D01*
X144673629Y-92866107D01*
X144731748Y-92725794D01*
X144816125Y-92599516D01*
X144923516Y-92492125D01*
X145049794Y-92407748D01*
X145190107Y-92349629D01*
X145289411Y-92329876D01*
X145339062Y-92320000D01*
X145490938Y-92320000D01*
X145540589Y-92329876D01*
X145540589Y-92329876D01*
G37*
G36*
X161781442Y-91815518D02*
G01*
X161847627Y-91822037D01*
X162017466Y-91873557D01*
X162173991Y-91957222D01*
X162209729Y-91986552D01*
X162311186Y-92069814D01*
X162394448Y-92171271D01*
X162423778Y-92207009D01*
X162507443Y-92363534D01*
X162558963Y-92533373D01*
X162576359Y-92710000D01*
X162558963Y-92886627D01*
X162507443Y-93056466D01*
X162423778Y-93212991D01*
X162394448Y-93248729D01*
X162311186Y-93350186D01*
X162209729Y-93433448D01*
X162173991Y-93462778D01*
X162017466Y-93546443D01*
X161847627Y-93597963D01*
X161781442Y-93604482D01*
X161715260Y-93611000D01*
X161626740Y-93611000D01*
X161560557Y-93604481D01*
X161494373Y-93597963D01*
X161324534Y-93546443D01*
X161168009Y-93462778D01*
X161132271Y-93433448D01*
X161030814Y-93350186D01*
X160947552Y-93248729D01*
X160918222Y-93212991D01*
X160834557Y-93056466D01*
X160783037Y-92886627D01*
X160765641Y-92710000D01*
X160783037Y-92533373D01*
X160834557Y-92363534D01*
X160918222Y-92207009D01*
X160947552Y-92171271D01*
X161030814Y-92069814D01*
X161132271Y-91986552D01*
X161168009Y-91957222D01*
X161324534Y-91873557D01*
X161494373Y-91822037D01*
X161560558Y-91815518D01*
X161626740Y-91809000D01*
X161715260Y-91809000D01*
X161781442Y-91815518D01*
X161781442Y-91815518D01*
G37*
G36*
X124726000Y-92341000D02*
G01*
X122924000Y-92341000D01*
X122924000Y-90539000D01*
X124726000Y-90539000D01*
X124726000Y-92341000D01*
X124726000Y-92341000D01*
G37*
G36*
X145540589Y-89789876D02*
G01*
X145639893Y-89809629D01*
X145780206Y-89867748D01*
X145906484Y-89952125D01*
X146013875Y-90059516D01*
X146098252Y-90185794D01*
X146156371Y-90326107D01*
X146186000Y-90475063D01*
X146186000Y-90626937D01*
X146156371Y-90775893D01*
X146098252Y-90916206D01*
X146013875Y-91042484D01*
X145906484Y-91149875D01*
X145780206Y-91234252D01*
X145639893Y-91292371D01*
X145540589Y-91312124D01*
X145490938Y-91322000D01*
X145339062Y-91322000D01*
X145289411Y-91312124D01*
X145190107Y-91292371D01*
X145049794Y-91234252D01*
X144923516Y-91149875D01*
X144816125Y-91042484D01*
X144731748Y-90916206D01*
X144673629Y-90775893D01*
X144644000Y-90626937D01*
X144644000Y-90475063D01*
X144673629Y-90326107D01*
X144731748Y-90185794D01*
X144816125Y-90059516D01*
X144923516Y-89952125D01*
X145049794Y-89867748D01*
X145190107Y-89809629D01*
X145289411Y-89789876D01*
X145339062Y-89780000D01*
X145490938Y-89780000D01*
X145540589Y-89789876D01*
X145540589Y-89789876D01*
G37*
G36*
X169811000Y-91071000D02*
G01*
X168009000Y-91071000D01*
X168009000Y-89269000D01*
X169811000Y-89269000D01*
X169811000Y-91071000D01*
X169811000Y-91071000D01*
G37*
G36*
X166480443Y-89275519D02*
G01*
X166546627Y-89282037D01*
X166716466Y-89333557D01*
X166872991Y-89417222D01*
X166908729Y-89446552D01*
X167010186Y-89529814D01*
X167093448Y-89631271D01*
X167122778Y-89667009D01*
X167206443Y-89823534D01*
X167257963Y-89993373D01*
X167275359Y-90170000D01*
X167257963Y-90346627D01*
X167206443Y-90516466D01*
X167122778Y-90672991D01*
X167093448Y-90708729D01*
X167010186Y-90810186D01*
X166908729Y-90893448D01*
X166872991Y-90922778D01*
X166716466Y-91006443D01*
X166546627Y-91057963D01*
X166480442Y-91064482D01*
X166414260Y-91071000D01*
X166325740Y-91071000D01*
X166259558Y-91064482D01*
X166193373Y-91057963D01*
X166023534Y-91006443D01*
X165867009Y-90922778D01*
X165831271Y-90893448D01*
X165729814Y-90810186D01*
X165646552Y-90708729D01*
X165617222Y-90672991D01*
X165533557Y-90516466D01*
X165482037Y-90346627D01*
X165464641Y-90170000D01*
X165482037Y-89993373D01*
X165533557Y-89823534D01*
X165617222Y-89667009D01*
X165646552Y-89631271D01*
X165729814Y-89529814D01*
X165831271Y-89446552D01*
X165867009Y-89417222D01*
X166023534Y-89333557D01*
X166193373Y-89282037D01*
X166259557Y-89275519D01*
X166325740Y-89269000D01*
X166414260Y-89269000D01*
X166480443Y-89275519D01*
X166480443Y-89275519D01*
G37*
G36*
X162572000Y-91071000D02*
G01*
X160770000Y-91071000D01*
X160770000Y-89269000D01*
X162572000Y-89269000D01*
X162572000Y-91071000D01*
X162572000Y-91071000D01*
G37*
G36*
X177792000Y-90611000D02*
G01*
X173490000Y-90611000D01*
X173490000Y-89159000D01*
X177792000Y-89159000D01*
X177792000Y-90611000D01*
X177792000Y-90611000D01*
G37*
M02*
