G04 #@! TF.GenerationSoftware,KiCad,Pcbnew,5.1.4-e60b266~84~ubuntu18.04.1*
G04 #@! TF.CreationDate,2019-09-09T22:27:04+10:00*
G04 #@! TF.ProjectId,comparator,636f6d70-6172-4617-946f-722e6b696361,21/06/19*
G04 #@! TF.SameCoordinates,Original*
G04 #@! TF.FileFunction,Copper,L3,Inr*
G04 #@! TF.FilePolarity,Positive*
%FSLAX46Y46*%
G04 Gerber Fmt 4.6, Leading zero omitted, Abs format (unit mm)*
G04 Created by KiCad (PCBNEW 5.1.4-e60b266~84~ubuntu18.04.1) date 2019-09-09 22:27:04*
%MOMM*%
%LPD*%
G04 APERTURE LIST*
%ADD10C,7.000000*%
%ADD11C,0.800000*%
%ADD12R,1.700000X1.700000*%
%ADD13O,1.700000X1.700000*%
%ADD14C,1.440000*%
%ADD15C,0.250000*%
G04 APERTURE END LIST*
D10*
X168910000Y-97790000D03*
D11*
X171535000Y-97790000D03*
X170766155Y-99646155D03*
X168910000Y-100415000D03*
X167053845Y-99646155D03*
X166285000Y-97790000D03*
X167053845Y-95933845D03*
X168910000Y-95165000D03*
X170766155Y-95933845D03*
D12*
X123825000Y-91440000D03*
D13*
X123825000Y-93980000D03*
X123825000Y-96520000D03*
X123825000Y-99060000D03*
X123825000Y-101600000D03*
X123825000Y-104140000D03*
X166370000Y-105410000D03*
D12*
X168910000Y-105410000D03*
D13*
X161671000Y-100330000D03*
X161671000Y-102870000D03*
D12*
X161671000Y-105410000D03*
X168910000Y-90170000D03*
D13*
X166370000Y-90170000D03*
D12*
X161671000Y-90170000D03*
D13*
X161671000Y-92710000D03*
X161671000Y-95250000D03*
D14*
X145415000Y-90551000D03*
X145415000Y-93091000D03*
X145415000Y-95631000D03*
D11*
X133350000Y-86995000D03*
X134620000Y-86995000D03*
X135890000Y-86995000D03*
X137160000Y-86995000D03*
X138430000Y-86995000D03*
X139700000Y-86995000D03*
X140970000Y-86995000D03*
X142240000Y-86995000D03*
X143510000Y-86995000D03*
X144780000Y-86995000D03*
X146050000Y-86995000D03*
X147320000Y-86995000D03*
X148590000Y-86995000D03*
X149860000Y-86995000D03*
X151130000Y-86995000D03*
X152400000Y-86995000D03*
X125730000Y-86995000D03*
X128270000Y-86995000D03*
X129540000Y-86995000D03*
X130810000Y-86995000D03*
X132080000Y-86995000D03*
X127000000Y-86995000D03*
X142748000Y-100076000D03*
X138430000Y-105791000D03*
X140081000Y-105791000D03*
X137160000Y-104521000D03*
X145415000Y-105918000D03*
X146939000Y-105918000D03*
X148590000Y-105918000D03*
X141859000Y-100076000D03*
X143637000Y-100076000D03*
X125603000Y-101600000D03*
X125603000Y-100711000D03*
X125603000Y-102489000D03*
X125984000Y-106045000D03*
X127254000Y-107442000D03*
X128524000Y-106045000D03*
X135255000Y-107442000D03*
X135255000Y-104648000D03*
X135255000Y-102870000D03*
X135255000Y-100076000D03*
X141605000Y-92456000D03*
X141605000Y-93853000D03*
X152654000Y-96520000D03*
X154051000Y-96520000D03*
X152654000Y-98552000D03*
X154051000Y-99187000D03*
X152654000Y-100584000D03*
X154051000Y-101981000D03*
X152908000Y-97536000D03*
X152400000Y-93599000D03*
X154051000Y-93599000D03*
X157226000Y-87757000D03*
X155829000Y-90932000D03*
X157226000Y-107823000D03*
X155829000Y-104648000D03*
X175641000Y-107315000D03*
X175641000Y-104140000D03*
X172593000Y-105664000D03*
X175641000Y-98425000D03*
X172593000Y-99949000D03*
X175641000Y-101600000D03*
X175641000Y-97155000D03*
X172593000Y-95504000D03*
X175641000Y-93980000D03*
X175641000Y-91440000D03*
X175641000Y-88265000D03*
X172593000Y-89916000D03*
X173482000Y-88265000D03*
X173482000Y-91440000D03*
X173355000Y-93980000D03*
X173355000Y-97155000D03*
X173355000Y-98425000D03*
X173355000Y-101600000D03*
X173355000Y-104140000D03*
X173355000Y-107315000D03*
X162687000Y-99187000D03*
X164084000Y-97790000D03*
X162687000Y-96393000D03*
X149733000Y-97282000D03*
X132969000Y-96901000D03*
X125857000Y-92710000D03*
X134874000Y-96393000D03*
X131572000Y-98171000D03*
X125857000Y-95250000D03*
X125857000Y-89916000D03*
X128270000Y-108585000D03*
X131445000Y-108585000D03*
X134620000Y-108585000D03*
X137795000Y-108585000D03*
X140970000Y-108585000D03*
X144145000Y-108585000D03*
X147320000Y-108585000D03*
X150495000Y-108585000D03*
X159385000Y-108585000D03*
X162560000Y-108585000D03*
X165735000Y-108585000D03*
X168910000Y-108585000D03*
X159385000Y-86995000D03*
X162560000Y-86995000D03*
X165735000Y-86995000D03*
X168910000Y-86995000D03*
X164465000Y-91440000D03*
X164465000Y-93980000D03*
X171450000Y-93980000D03*
X171450000Y-91440000D03*
X164465000Y-101600000D03*
X164465000Y-104140000D03*
X171450000Y-101600000D03*
X171450000Y-104140000D03*
X158877000Y-97790000D03*
X158115000Y-94234000D03*
X158115000Y-101600000D03*
X147193000Y-99441000D03*
X147193000Y-96393000D03*
X131318000Y-92710000D03*
X129032000Y-95758000D03*
X130175000Y-94234000D03*
X148971000Y-97282000D03*
X155575000Y-101727000D03*
X136906000Y-100330000D03*
X137414000Y-91948000D03*
X133731000Y-100457000D03*
X141826591Y-102646002D03*
X153289000Y-88138000D03*
X155321000Y-107442000D03*
X155321000Y-88138000D03*
X155575000Y-93853000D03*
X137414000Y-94361000D03*
X151257000Y-101473000D03*
X153289000Y-107442000D03*
X154014000Y-92599683D03*
X159385000Y-94361000D03*
X147955000Y-97155000D03*
X146431000Y-98679000D03*
D15*
X136379001Y-100856999D02*
X136506001Y-100729999D01*
X134130999Y-100856999D02*
X136379001Y-100856999D01*
X136506001Y-100729999D02*
X136906000Y-100330000D01*
X133731000Y-100457000D02*
X134130999Y-100856999D01*
X139222002Y-102646002D02*
X141826591Y-102646002D01*
X136906000Y-100330000D02*
X139222002Y-102646002D01*
X137414000Y-91948000D02*
X137414000Y-88138000D01*
X153289000Y-88138000D02*
X137414000Y-88138000D01*
X155575000Y-101161315D02*
X155575000Y-101727000D01*
X155575000Y-96970998D02*
X155575000Y-101161315D01*
X153289000Y-94684998D02*
X155575000Y-96970998D01*
X153289000Y-88138000D02*
X153289000Y-94684998D01*
X135509000Y-88138000D02*
X137414000Y-88138000D01*
X133731000Y-100457000D02*
X133731000Y-89916000D01*
X133731000Y-89916000D02*
X135509000Y-88138000D01*
X155321000Y-106876315D02*
X155321000Y-107442000D01*
X155103999Y-106659314D02*
X155321000Y-106876315D01*
X155103999Y-102198001D02*
X155103999Y-106659314D01*
X155575000Y-101727000D02*
X155103999Y-102198001D01*
X155175001Y-93453001D02*
X155575000Y-93853000D01*
X155103999Y-93381999D02*
X155175001Y-93453001D01*
X155103999Y-90583999D02*
X155103999Y-93381999D01*
X155321000Y-90366998D02*
X155103999Y-90583999D01*
X155321000Y-88138000D02*
X155321000Y-90366998D01*
X151257000Y-101473000D02*
X151257000Y-107823000D01*
X151257000Y-107823000D02*
X152019000Y-108585000D01*
X140970000Y-101473000D02*
X151257000Y-101473000D01*
X137414000Y-94361000D02*
X137414000Y-97917000D01*
X137414000Y-97917000D02*
X140970000Y-101473000D01*
X153289000Y-108007685D02*
X153289000Y-108585000D01*
X153289000Y-107442000D02*
X153289000Y-108007685D01*
X152019000Y-108585000D02*
X153289000Y-108585000D01*
X153289000Y-108585000D02*
X153416000Y-108585000D01*
X155251002Y-108585000D02*
X155067000Y-108585000D01*
X156877999Y-95721684D02*
X156877999Y-106958003D01*
X155575000Y-93853000D02*
X155575000Y-94418685D01*
X156877999Y-106958003D02*
X155251002Y-108585000D01*
X155575000Y-94418685D02*
X156877999Y-95721684D01*
X153416000Y-108585000D02*
X155067000Y-108585000D01*
M02*
