G04 #@! TF.GenerationSoftware,KiCad,Pcbnew,5.1.4-e60b266~84~ubuntu18.04.1*
G04 #@! TF.CreationDate,2019-08-27T23:59:40+10:00*
G04 #@! TF.ProjectId,CMOS-50R,434d4f53-2d35-4305-922e-6b696361645f,rev?*
G04 #@! TF.SameCoordinates,Original*
G04 #@! TF.FileFunction,Legend,Top*
G04 #@! TF.FilePolarity,Positive*
%FSLAX46Y46*%
G04 Gerber Fmt 4.6, Leading zero omitted, Abs format (unit mm)*
G04 Created by KiCad (PCBNEW 5.1.4-e60b266~84~ubuntu18.04.1) date 2019-08-27 23:59:40*
%MOMM*%
%LPD*%
G04 APERTURE LIST*
%ADD10C,0.076200*%
%ADD11C,0.100000*%
%ADD12C,0.120000*%
G04 APERTURE END LIST*
D10*
X139923761Y-72266023D02*
X140014476Y-72296261D01*
X140165666Y-72296261D01*
X140226142Y-72266023D01*
X140256380Y-72235785D01*
X140286619Y-72175309D01*
X140286619Y-72114833D01*
X140256380Y-72054357D01*
X140226142Y-72024119D01*
X140165666Y-71993880D01*
X140044714Y-71963642D01*
X139984238Y-71933404D01*
X139954000Y-71903166D01*
X139923761Y-71842690D01*
X139923761Y-71782214D01*
X139954000Y-71721738D01*
X139984238Y-71691500D01*
X140044714Y-71661261D01*
X140195904Y-71661261D01*
X140286619Y-71691500D01*
X140558761Y-72296261D02*
X140558761Y-71661261D01*
X140921619Y-72296261D01*
X140921619Y-71661261D01*
X141224000Y-72235785D02*
X141254238Y-72266023D01*
X141224000Y-72296261D01*
X141193761Y-72266023D01*
X141224000Y-72235785D01*
X141224000Y-72296261D01*
X141224000Y-71903166D02*
X141254238Y-71933404D01*
X141224000Y-71963642D01*
X141193761Y-71933404D01*
X141224000Y-71903166D01*
X141224000Y-71963642D01*
D11*
G36*
X147320000Y-73660000D02*
G01*
X141478000Y-73660000D01*
X141478000Y-71628000D01*
X147320000Y-71628000D01*
X147320000Y-73660000D01*
G37*
X147320000Y-73660000D02*
X141478000Y-73660000D01*
X141478000Y-71628000D01*
X147320000Y-71628000D01*
X147320000Y-73660000D01*
D10*
X141435666Y-70578738D02*
X141465904Y-70548500D01*
X141526380Y-70518261D01*
X141677571Y-70518261D01*
X141738047Y-70548500D01*
X141768285Y-70578738D01*
X141798523Y-70639214D01*
X141798523Y-70699690D01*
X141768285Y-70790404D01*
X141405428Y-71153261D01*
X141798523Y-71153261D01*
X142010190Y-70518261D02*
X142433523Y-70518261D01*
X142161380Y-71153261D01*
X143129000Y-70488023D02*
X142584714Y-71304452D01*
X143461619Y-70518261D02*
X143522095Y-70518261D01*
X143582571Y-70548500D01*
X143612809Y-70578738D01*
X143643047Y-70639214D01*
X143673285Y-70760166D01*
X143673285Y-70911357D01*
X143643047Y-71032309D01*
X143612809Y-71092785D01*
X143582571Y-71123023D01*
X143522095Y-71153261D01*
X143461619Y-71153261D01*
X143401142Y-71123023D01*
X143370904Y-71092785D01*
X143340666Y-71032309D01*
X143310428Y-70911357D01*
X143310428Y-70760166D01*
X143340666Y-70639214D01*
X143370904Y-70578738D01*
X143401142Y-70548500D01*
X143461619Y-70518261D01*
X144036142Y-70790404D02*
X143975666Y-70760166D01*
X143945428Y-70729928D01*
X143915190Y-70669452D01*
X143915190Y-70639214D01*
X143945428Y-70578738D01*
X143975666Y-70548500D01*
X144036142Y-70518261D01*
X144157095Y-70518261D01*
X144217571Y-70548500D01*
X144247809Y-70578738D01*
X144278047Y-70639214D01*
X144278047Y-70669452D01*
X144247809Y-70729928D01*
X144217571Y-70760166D01*
X144157095Y-70790404D01*
X144036142Y-70790404D01*
X143975666Y-70820642D01*
X143945428Y-70850880D01*
X143915190Y-70911357D01*
X143915190Y-71032309D01*
X143945428Y-71092785D01*
X143975666Y-71123023D01*
X144036142Y-71153261D01*
X144157095Y-71153261D01*
X144217571Y-71123023D01*
X144247809Y-71092785D01*
X144278047Y-71032309D01*
X144278047Y-70911357D01*
X144247809Y-70850880D01*
X144217571Y-70820642D01*
X144157095Y-70790404D01*
X145003761Y-70488023D02*
X144459476Y-71304452D01*
X145185190Y-70578738D02*
X145215428Y-70548500D01*
X145275904Y-70518261D01*
X145427095Y-70518261D01*
X145487571Y-70548500D01*
X145517809Y-70578738D01*
X145548047Y-70639214D01*
X145548047Y-70699690D01*
X145517809Y-70790404D01*
X145154952Y-71153261D01*
X145548047Y-71153261D01*
X145941142Y-70518261D02*
X146001619Y-70518261D01*
X146062095Y-70548500D01*
X146092333Y-70578738D01*
X146122571Y-70639214D01*
X146152809Y-70760166D01*
X146152809Y-70911357D01*
X146122571Y-71032309D01*
X146092333Y-71092785D01*
X146062095Y-71123023D01*
X146001619Y-71153261D01*
X145941142Y-71153261D01*
X145880666Y-71123023D01*
X145850428Y-71092785D01*
X145820190Y-71032309D01*
X145789952Y-70911357D01*
X145789952Y-70760166D01*
X145820190Y-70639214D01*
X145850428Y-70578738D01*
X145880666Y-70548500D01*
X145941142Y-70518261D01*
X146757571Y-71153261D02*
X146394714Y-71153261D01*
X146576142Y-71153261D02*
X146576142Y-70518261D01*
X146515666Y-70608976D01*
X146455190Y-70669452D01*
X146394714Y-70699690D01*
X147059952Y-71153261D02*
X147180904Y-71153261D01*
X147241380Y-71123023D01*
X147271619Y-71092785D01*
X147332095Y-71002071D01*
X147362333Y-70881119D01*
X147362333Y-70639214D01*
X147332095Y-70578738D01*
X147301857Y-70548500D01*
X147241380Y-70518261D01*
X147120428Y-70518261D01*
X147059952Y-70548500D01*
X147029714Y-70578738D01*
X146999476Y-70639214D01*
X146999476Y-70790404D01*
X147029714Y-70850880D01*
X147059952Y-70881119D01*
X147120428Y-70911357D01*
X147241380Y-70911357D01*
X147301857Y-70881119D01*
X147332095Y-70850880D01*
X147362333Y-70790404D01*
X137655904Y-58912578D02*
X137655904Y-59426626D01*
X137625666Y-59487102D01*
X137595428Y-59517340D01*
X137534952Y-59547578D01*
X137444238Y-59547578D01*
X137383761Y-59517340D01*
X137655904Y-59305673D02*
X137595428Y-59335911D01*
X137474476Y-59335911D01*
X137414000Y-59305673D01*
X137383761Y-59275435D01*
X137353523Y-59214959D01*
X137353523Y-59033530D01*
X137383761Y-58973054D01*
X137414000Y-58942816D01*
X137474476Y-58912578D01*
X137595428Y-58912578D01*
X137655904Y-58942816D01*
X137958285Y-59335911D02*
X137958285Y-58912578D01*
X137958285Y-58700911D02*
X137928047Y-58731150D01*
X137958285Y-58761388D01*
X137988523Y-58731150D01*
X137958285Y-58700911D01*
X137958285Y-58761388D01*
X138169952Y-58912578D02*
X138411857Y-58912578D01*
X138260666Y-58700911D02*
X138260666Y-59245197D01*
X138290904Y-59305673D01*
X138351380Y-59335911D01*
X138411857Y-59335911D01*
X138623523Y-59335911D02*
X138623523Y-58700911D01*
X138895666Y-59335911D02*
X138895666Y-59003292D01*
X138865428Y-58942816D01*
X138804952Y-58912578D01*
X138714238Y-58912578D01*
X138653761Y-58942816D01*
X138623523Y-58973054D01*
X139470190Y-58912578D02*
X139470190Y-59335911D01*
X139198047Y-58912578D02*
X139198047Y-59245197D01*
X139228285Y-59305673D01*
X139288761Y-59335911D01*
X139379476Y-59335911D01*
X139439952Y-59305673D01*
X139470190Y-59275435D01*
X139772571Y-59335911D02*
X139772571Y-58700911D01*
X139772571Y-58942816D02*
X139833047Y-58912578D01*
X139954000Y-58912578D01*
X140014476Y-58942816D01*
X140044714Y-58973054D01*
X140074952Y-59033530D01*
X140074952Y-59214959D01*
X140044714Y-59275435D01*
X140014476Y-59305673D01*
X139954000Y-59335911D01*
X139833047Y-59335911D01*
X139772571Y-59305673D01*
X140347095Y-59275435D02*
X140377333Y-59305673D01*
X140347095Y-59335911D01*
X140316857Y-59305673D01*
X140347095Y-59275435D01*
X140347095Y-59335911D01*
X140921619Y-59305673D02*
X140861142Y-59335911D01*
X140740190Y-59335911D01*
X140679714Y-59305673D01*
X140649476Y-59275435D01*
X140619238Y-59214959D01*
X140619238Y-59033530D01*
X140649476Y-58973054D01*
X140679714Y-58942816D01*
X140740190Y-58912578D01*
X140861142Y-58912578D01*
X140921619Y-58942816D01*
X141284476Y-59335911D02*
X141224000Y-59305673D01*
X141193761Y-59275435D01*
X141163523Y-59214959D01*
X141163523Y-59033530D01*
X141193761Y-58973054D01*
X141224000Y-58942816D01*
X141284476Y-58912578D01*
X141375190Y-58912578D01*
X141435666Y-58942816D01*
X141465904Y-58973054D01*
X141496142Y-59033530D01*
X141496142Y-59214959D01*
X141465904Y-59275435D01*
X141435666Y-59305673D01*
X141375190Y-59335911D01*
X141284476Y-59335911D01*
X141768285Y-59335911D02*
X141768285Y-58912578D01*
X141768285Y-58973054D02*
X141798523Y-58942816D01*
X141859000Y-58912578D01*
X141949714Y-58912578D01*
X142010190Y-58942816D01*
X142040428Y-59003292D01*
X142040428Y-59335911D01*
X142040428Y-59003292D02*
X142070666Y-58942816D01*
X142131142Y-58912578D01*
X142221857Y-58912578D01*
X142282333Y-58942816D01*
X142312571Y-59003292D01*
X142312571Y-59335911D01*
X143068523Y-58670673D02*
X142524238Y-59487102D01*
X143552333Y-59305673D02*
X143491857Y-59335911D01*
X143370904Y-59335911D01*
X143310428Y-59305673D01*
X143280190Y-59275435D01*
X143249952Y-59214959D01*
X143249952Y-59033530D01*
X143280190Y-58973054D01*
X143310428Y-58942816D01*
X143370904Y-58912578D01*
X143491857Y-58912578D01*
X143552333Y-58942816D01*
X143824476Y-58912578D02*
X143824476Y-59547578D01*
X143824476Y-58942816D02*
X143884952Y-58912578D01*
X144005904Y-58912578D01*
X144066380Y-58942816D01*
X144096619Y-58973054D01*
X144126857Y-59033530D01*
X144126857Y-59214959D01*
X144096619Y-59275435D01*
X144066380Y-59305673D01*
X144005904Y-59335911D01*
X143884952Y-59335911D01*
X143824476Y-59305673D01*
X144671142Y-58912578D02*
X144671142Y-59426626D01*
X144640904Y-59487102D01*
X144610666Y-59517340D01*
X144550190Y-59547578D01*
X144459476Y-59547578D01*
X144399000Y-59517340D01*
X144671142Y-59305673D02*
X144610666Y-59335911D01*
X144489714Y-59335911D01*
X144429238Y-59305673D01*
X144399000Y-59275435D01*
X144368761Y-59214959D01*
X144368761Y-59033530D01*
X144399000Y-58973054D01*
X144429238Y-58942816D01*
X144489714Y-58912578D01*
X144610666Y-58912578D01*
X144671142Y-58942816D01*
X144973523Y-59335911D02*
X144973523Y-58912578D01*
X144973523Y-58973054D02*
X145003761Y-58942816D01*
X145064238Y-58912578D01*
X145154952Y-58912578D01*
X145215428Y-58942816D01*
X145245666Y-59003292D01*
X145245666Y-59335911D01*
X145245666Y-59003292D02*
X145275904Y-58942816D01*
X145336380Y-58912578D01*
X145427095Y-58912578D01*
X145487571Y-58942816D01*
X145517809Y-59003292D01*
X145517809Y-59335911D01*
X145910904Y-59335911D02*
X145850428Y-59305673D01*
X145820190Y-59275435D01*
X145789952Y-59214959D01*
X145789952Y-59033530D01*
X145820190Y-58973054D01*
X145850428Y-58942816D01*
X145910904Y-58912578D01*
X146001619Y-58912578D01*
X146062095Y-58942816D01*
X146092333Y-58973054D01*
X146122571Y-59033530D01*
X146122571Y-59214959D01*
X146092333Y-59275435D01*
X146062095Y-59305673D01*
X146001619Y-59335911D01*
X145910904Y-59335911D01*
X146485428Y-59335911D02*
X146424952Y-59305673D01*
X146394714Y-59275435D01*
X146364476Y-59214959D01*
X146364476Y-59033530D01*
X146394714Y-58973054D01*
X146424952Y-58942816D01*
X146485428Y-58912578D01*
X146576142Y-58912578D01*
X146636619Y-58942816D01*
X146666857Y-58973054D01*
X146697095Y-59033530D01*
X146697095Y-59214959D01*
X146666857Y-59275435D01*
X146636619Y-59305673D01*
X146576142Y-59335911D01*
X146485428Y-59335911D01*
X146969238Y-59335911D02*
X146969238Y-58912578D01*
X146969238Y-59033530D02*
X146999476Y-58973054D01*
X147029714Y-58942816D01*
X147090190Y-58912578D01*
X147150666Y-58912578D01*
X147604238Y-59305673D02*
X147543761Y-59335911D01*
X147422809Y-59335911D01*
X147362333Y-59305673D01*
X147332095Y-59245197D01*
X147332095Y-59003292D01*
X147362333Y-58942816D01*
X147422809Y-58912578D01*
X147543761Y-58912578D01*
X147604238Y-58942816D01*
X147634476Y-59003292D01*
X147634476Y-59063769D01*
X147332095Y-59124245D01*
X138275785Y-59699373D02*
X137731500Y-60515802D01*
X138729357Y-60334373D02*
X138668880Y-60364611D01*
X138547928Y-60364611D01*
X138487452Y-60334373D01*
X138457214Y-60273897D01*
X138457214Y-60031992D01*
X138487452Y-59971516D01*
X138547928Y-59941278D01*
X138668880Y-59941278D01*
X138729357Y-59971516D01*
X138759595Y-60031992D01*
X138759595Y-60092469D01*
X138457214Y-60152945D01*
X139031738Y-60364611D02*
X139031738Y-59941278D01*
X139031738Y-60001754D02*
X139061976Y-59971516D01*
X139122452Y-59941278D01*
X139213166Y-59941278D01*
X139273642Y-59971516D01*
X139303880Y-60031992D01*
X139303880Y-60364611D01*
X139303880Y-60031992D02*
X139334119Y-59971516D01*
X139394595Y-59941278D01*
X139485309Y-59941278D01*
X139545785Y-59971516D01*
X139576023Y-60031992D01*
X139576023Y-60364611D01*
X139969119Y-60364611D02*
X139908642Y-60334373D01*
X139878404Y-60304135D01*
X139848166Y-60243659D01*
X139848166Y-60062230D01*
X139878404Y-60001754D01*
X139908642Y-59971516D01*
X139969119Y-59941278D01*
X140059833Y-59941278D01*
X140120309Y-59971516D01*
X140150547Y-60001754D01*
X140180785Y-60062230D01*
X140180785Y-60243659D01*
X140150547Y-60304135D01*
X140120309Y-60334373D01*
X140059833Y-60364611D01*
X139969119Y-60364611D01*
X140725071Y-60364611D02*
X140725071Y-59729611D01*
X140725071Y-60334373D02*
X140664595Y-60364611D01*
X140543642Y-60364611D01*
X140483166Y-60334373D01*
X140452928Y-60304135D01*
X140422690Y-60243659D01*
X140422690Y-60062230D01*
X140452928Y-60001754D01*
X140483166Y-59971516D01*
X140543642Y-59941278D01*
X140664595Y-59941278D01*
X140725071Y-59971516D01*
X140997214Y-60334373D02*
X141057690Y-60364611D01*
X141178642Y-60364611D01*
X141239119Y-60334373D01*
X141269357Y-60273897D01*
X141269357Y-60243659D01*
X141239119Y-60183183D01*
X141178642Y-60152945D01*
X141087928Y-60152945D01*
X141027452Y-60122707D01*
X140997214Y-60062230D01*
X140997214Y-60031992D01*
X141027452Y-59971516D01*
X141087928Y-59941278D01*
X141178642Y-59941278D01*
X141239119Y-59971516D01*
X141995071Y-59699373D02*
X141450785Y-60515802D01*
X142569595Y-60304135D02*
X142539357Y-60334373D01*
X142448642Y-60364611D01*
X142388166Y-60364611D01*
X142297452Y-60334373D01*
X142236976Y-60273897D01*
X142206738Y-60213421D01*
X142176500Y-60092469D01*
X142176500Y-60001754D01*
X142206738Y-59880802D01*
X142236976Y-59820326D01*
X142297452Y-59759850D01*
X142388166Y-59729611D01*
X142448642Y-59729611D01*
X142539357Y-59759850D01*
X142569595Y-59790088D01*
X142841738Y-60364611D02*
X142841738Y-59729611D01*
X143053404Y-60183183D01*
X143265071Y-59729611D01*
X143265071Y-60364611D01*
X143688404Y-59729611D02*
X143809357Y-59729611D01*
X143869833Y-59759850D01*
X143930309Y-59820326D01*
X143960547Y-59941278D01*
X143960547Y-60152945D01*
X143930309Y-60273897D01*
X143869833Y-60334373D01*
X143809357Y-60364611D01*
X143688404Y-60364611D01*
X143627928Y-60334373D01*
X143567452Y-60273897D01*
X143537214Y-60152945D01*
X143537214Y-59941278D01*
X143567452Y-59820326D01*
X143627928Y-59759850D01*
X143688404Y-59729611D01*
X144202452Y-60334373D02*
X144293166Y-60364611D01*
X144444357Y-60364611D01*
X144504833Y-60334373D01*
X144535071Y-60304135D01*
X144565309Y-60243659D01*
X144565309Y-60183183D01*
X144535071Y-60122707D01*
X144504833Y-60092469D01*
X144444357Y-60062230D01*
X144323404Y-60031992D01*
X144262928Y-60001754D01*
X144232690Y-59971516D01*
X144202452Y-59911040D01*
X144202452Y-59850564D01*
X144232690Y-59790088D01*
X144262928Y-59759850D01*
X144323404Y-59729611D01*
X144474595Y-59729611D01*
X144565309Y-59759850D01*
X144837452Y-60122707D02*
X145321261Y-60122707D01*
X145926023Y-59729611D02*
X145623642Y-59729611D01*
X145593404Y-60031992D01*
X145623642Y-60001754D01*
X145684119Y-59971516D01*
X145835309Y-59971516D01*
X145895785Y-60001754D01*
X145926023Y-60031992D01*
X145956261Y-60092469D01*
X145956261Y-60243659D01*
X145926023Y-60304135D01*
X145895785Y-60334373D01*
X145835309Y-60364611D01*
X145684119Y-60364611D01*
X145623642Y-60334373D01*
X145593404Y-60304135D01*
X146349357Y-59729611D02*
X146409833Y-59729611D01*
X146470309Y-59759850D01*
X146500547Y-59790088D01*
X146530785Y-59850564D01*
X146561023Y-59971516D01*
X146561023Y-60122707D01*
X146530785Y-60243659D01*
X146500547Y-60304135D01*
X146470309Y-60334373D01*
X146409833Y-60364611D01*
X146349357Y-60364611D01*
X146288880Y-60334373D01*
X146258642Y-60304135D01*
X146228404Y-60243659D01*
X146198166Y-60122707D01*
X146198166Y-59971516D01*
X146228404Y-59850564D01*
X146258642Y-59790088D01*
X146288880Y-59759850D01*
X146349357Y-59729611D01*
X147196023Y-60364611D02*
X146984357Y-60062230D01*
X146833166Y-60364611D02*
X146833166Y-59729611D01*
X147075071Y-59729611D01*
X147135547Y-59759850D01*
X147165785Y-59790088D01*
X147196023Y-59850564D01*
X147196023Y-59941278D01*
X147165785Y-60001754D01*
X147135547Y-60031992D01*
X147075071Y-60062230D01*
X146833166Y-60062230D01*
X81243714Y-73478571D02*
X81243714Y-73006857D01*
X81534000Y-73260857D01*
X81534000Y-73152000D01*
X81570285Y-73079428D01*
X81606571Y-73043142D01*
X81679142Y-73006857D01*
X81860571Y-73006857D01*
X81933142Y-73043142D01*
X81969428Y-73079428D01*
X82005714Y-73152000D01*
X82005714Y-73369714D01*
X81969428Y-73442285D01*
X81933142Y-73478571D01*
X81933142Y-72680285D02*
X81969428Y-72644000D01*
X82005714Y-72680285D01*
X81969428Y-72716571D01*
X81933142Y-72680285D01*
X82005714Y-72680285D01*
X81243714Y-72390000D02*
X81243714Y-71918285D01*
X81534000Y-72172285D01*
X81534000Y-72063428D01*
X81570285Y-71990857D01*
X81606571Y-71954571D01*
X81679142Y-71918285D01*
X81860571Y-71918285D01*
X81933142Y-71954571D01*
X81969428Y-71990857D01*
X82005714Y-72063428D01*
X82005714Y-72281142D01*
X81969428Y-72353714D01*
X81933142Y-72390000D01*
X81497714Y-71664285D02*
X82005714Y-71482857D01*
X81497714Y-71301428D01*
X80354714Y-72498857D02*
X80354714Y-72861714D01*
X80717571Y-72898000D01*
X80681285Y-72861714D01*
X80645000Y-72789142D01*
X80645000Y-72607714D01*
X80681285Y-72535142D01*
X80717571Y-72498857D01*
X80790142Y-72462571D01*
X80971571Y-72462571D01*
X81044142Y-72498857D01*
X81080428Y-72535142D01*
X81116714Y-72607714D01*
X81116714Y-72789142D01*
X81080428Y-72861714D01*
X81044142Y-72898000D01*
X80608714Y-72208571D02*
X81116714Y-72027142D01*
X80608714Y-71845714D01*
X80354714Y-70085857D02*
X80354714Y-70013285D01*
X80391000Y-69940714D01*
X80427285Y-69904428D01*
X80499857Y-69868142D01*
X80645000Y-69831857D01*
X80826428Y-69831857D01*
X80971571Y-69868142D01*
X81044142Y-69904428D01*
X81080428Y-69940714D01*
X81116714Y-70013285D01*
X81116714Y-70085857D01*
X81080428Y-70158428D01*
X81044142Y-70194714D01*
X80971571Y-70231000D01*
X80826428Y-70267285D01*
X80645000Y-70267285D01*
X80499857Y-70231000D01*
X80427285Y-70194714D01*
X80391000Y-70158428D01*
X80354714Y-70085857D01*
X80354714Y-69614142D02*
X81116714Y-69360142D01*
X80354714Y-69106142D01*
X81116714Y-67545857D02*
X80354714Y-67545857D01*
X80608714Y-66856428D02*
X81116714Y-66856428D01*
X80318428Y-67037857D02*
X80862714Y-67219285D01*
X80862714Y-66747571D01*
X81116714Y-65005857D02*
X80354714Y-65005857D01*
X80354714Y-64715571D02*
X80354714Y-64243857D01*
X80645000Y-64497857D01*
X80645000Y-64389000D01*
X80681285Y-64316428D01*
X80717571Y-64280142D01*
X80790142Y-64243857D01*
X80971571Y-64243857D01*
X81044142Y-64280142D01*
X81080428Y-64316428D01*
X81116714Y-64389000D01*
X81116714Y-64606714D01*
X81080428Y-64679285D01*
X81044142Y-64715571D01*
X81116714Y-62465857D02*
X80354714Y-62465857D01*
X80427285Y-62139285D02*
X80391000Y-62103000D01*
X80354714Y-62030428D01*
X80354714Y-61849000D01*
X80391000Y-61776428D01*
X80427285Y-61740142D01*
X80499857Y-61703857D01*
X80572428Y-61703857D01*
X80681285Y-61740142D01*
X81116714Y-62175571D01*
X81116714Y-61703857D01*
X81116714Y-59925857D02*
X80354714Y-59925857D01*
X81116714Y-59163857D02*
X81116714Y-59599285D01*
X81116714Y-59381571D02*
X80354714Y-59381571D01*
X80463571Y-59454142D01*
X80536142Y-59526714D01*
X80572428Y-59599285D01*
D12*
X137023000Y-60452000D02*
X137023000Y-57002000D01*
X137023000Y-60452000D02*
X137023000Y-62402000D01*
X128153000Y-60452000D02*
X128153000Y-58502000D01*
X128153000Y-60452000D02*
X128153000Y-62402000D01*
X112131000Y-60452000D02*
X112131000Y-57002000D01*
X112131000Y-60452000D02*
X112131000Y-62402000D01*
X103261000Y-60452000D02*
X103261000Y-58502000D01*
X103261000Y-60452000D02*
X103261000Y-62402000D01*
X124577000Y-60452000D02*
X124577000Y-57002000D01*
X124577000Y-60452000D02*
X124577000Y-62402000D01*
X115707000Y-60452000D02*
X115707000Y-58502000D01*
X115707000Y-60452000D02*
X115707000Y-62402000D01*
X99685000Y-60452000D02*
X99685000Y-57002000D01*
X99685000Y-60452000D02*
X99685000Y-62402000D01*
X90815000Y-60452000D02*
X90815000Y-58502000D01*
X90815000Y-60452000D02*
X90815000Y-62402000D01*
X138813000Y-62773779D02*
X138813000Y-62448221D01*
X137793000Y-62773779D02*
X137793000Y-62448221D01*
X126367000Y-62773779D02*
X126367000Y-62448221D01*
X125347000Y-62773779D02*
X125347000Y-62448221D01*
X113921000Y-62773779D02*
X113921000Y-62448221D01*
X112901000Y-62773779D02*
X112901000Y-62448221D01*
X101475000Y-62773779D02*
X101475000Y-62448221D01*
X100455000Y-62773779D02*
X100455000Y-62448221D01*
X88173779Y-67308000D02*
X87848221Y-67308000D01*
X88173779Y-68328000D02*
X87848221Y-68328000D01*
X137378221Y-65534000D02*
X137703779Y-65534000D01*
X137378221Y-64514000D02*
X137703779Y-64514000D01*
X137378221Y-67185000D02*
X137703779Y-67185000D01*
X137378221Y-66165000D02*
X137703779Y-66165000D01*
X124932221Y-65534000D02*
X125257779Y-65534000D01*
X124932221Y-64514000D02*
X125257779Y-64514000D01*
X124932221Y-67185000D02*
X125257779Y-67185000D01*
X124932221Y-66165000D02*
X125257779Y-66165000D01*
X112486221Y-65534000D02*
X112811779Y-65534000D01*
X112486221Y-64514000D02*
X112811779Y-64514000D01*
X112486221Y-67185000D02*
X112811779Y-67185000D01*
X112486221Y-66165000D02*
X112811779Y-66165000D01*
X100040221Y-65534000D02*
X100365779Y-65534000D01*
X100040221Y-64514000D02*
X100365779Y-64514000D01*
X100040221Y-67185000D02*
X100365779Y-67185000D01*
X100040221Y-66165000D02*
X100365779Y-66165000D01*
X135831000Y-69238000D02*
X138541000Y-69238000D01*
X135831000Y-67668000D02*
X135831000Y-69238000D01*
X138541000Y-67668000D02*
X135831000Y-67668000D01*
X123385000Y-69238000D02*
X126095000Y-69238000D01*
X123385000Y-67668000D02*
X123385000Y-69238000D01*
X126095000Y-67668000D02*
X123385000Y-67668000D01*
X110939000Y-69238000D02*
X113649000Y-69238000D01*
X110939000Y-67668000D02*
X110939000Y-69238000D01*
X113649000Y-67668000D02*
X110939000Y-67668000D01*
X98493000Y-69238000D02*
X101203000Y-69238000D01*
X98493000Y-67668000D02*
X98493000Y-69238000D01*
X101203000Y-67668000D02*
X98493000Y-67668000D01*
X77410000Y-58360000D02*
X78740000Y-58360000D01*
X77410000Y-59690000D02*
X77410000Y-58360000D01*
X77410000Y-60960000D02*
X80070000Y-60960000D01*
X80070000Y-60960000D02*
X80070000Y-73720000D01*
X77410000Y-60960000D02*
X77410000Y-73720000D01*
X77410000Y-73720000D02*
X80070000Y-73720000D01*
X134568000Y-66298578D02*
X134568000Y-65781422D01*
X133148000Y-66298578D02*
X133148000Y-65781422D01*
X132028000Y-66298578D02*
X132028000Y-65781422D01*
X130608000Y-66298578D02*
X130608000Y-65781422D01*
X129488000Y-66298578D02*
X129488000Y-65781422D01*
X128068000Y-66298578D02*
X128068000Y-65781422D01*
X122122000Y-66298578D02*
X122122000Y-65781422D01*
X120702000Y-66298578D02*
X120702000Y-65781422D01*
X119582000Y-66298578D02*
X119582000Y-65781422D01*
X118162000Y-66298578D02*
X118162000Y-65781422D01*
X117042000Y-66298578D02*
X117042000Y-65781422D01*
X115622000Y-66298578D02*
X115622000Y-65781422D01*
X109676000Y-66298578D02*
X109676000Y-65781422D01*
X108256000Y-66298578D02*
X108256000Y-65781422D01*
X107136000Y-66298578D02*
X107136000Y-65781422D01*
X105716000Y-66298578D02*
X105716000Y-65781422D01*
X104596000Y-66298578D02*
X104596000Y-65781422D01*
X103176000Y-66298578D02*
X103176000Y-65781422D01*
X97230000Y-66298578D02*
X97230000Y-65781422D01*
X95810000Y-66298578D02*
X95810000Y-65781422D01*
X94690000Y-66298578D02*
X94690000Y-65781422D01*
X93270000Y-66298578D02*
X93270000Y-65781422D01*
X92150000Y-66298578D02*
X92150000Y-65781422D01*
X90730000Y-66298578D02*
X90730000Y-65781422D01*
X87498422Y-64718000D02*
X88015578Y-64718000D01*
X87498422Y-63298000D02*
X88015578Y-63298000D01*
X134673000Y-70559000D02*
X134673000Y-73459000D01*
X127963000Y-70559000D02*
X127963000Y-73459000D01*
X132768000Y-75364000D02*
X129868000Y-75364000D01*
X132768000Y-68654000D02*
X129868000Y-68654000D01*
X122227000Y-70559000D02*
X122227000Y-73459000D01*
X115517000Y-70559000D02*
X115517000Y-73459000D01*
X120322000Y-75364000D02*
X117422000Y-75364000D01*
X120322000Y-68654000D02*
X117422000Y-68654000D01*
X109781000Y-70559000D02*
X109781000Y-73459000D01*
X103071000Y-70559000D02*
X103071000Y-73459000D01*
X107876000Y-75364000D02*
X104976000Y-75364000D01*
X107876000Y-68654000D02*
X104976000Y-68654000D01*
X97335000Y-70559000D02*
X97335000Y-73459000D01*
X90625000Y-70559000D02*
X90625000Y-73459000D01*
X95430000Y-75364000D02*
X92530000Y-75364000D01*
X95430000Y-68654000D02*
X92530000Y-68654000D01*
X85438064Y-71480000D02*
X84233936Y-71480000D01*
X85438064Y-73300000D02*
X84233936Y-73300000D01*
X84399000Y-68487000D02*
X84399000Y-65802000D01*
X82479000Y-68487000D02*
X84399000Y-68487000D01*
X82479000Y-65802000D02*
X82479000Y-68487000D01*
X86757000Y-66825000D02*
X89467000Y-66825000D01*
X89467000Y-66825000D02*
X89467000Y-65255000D01*
X89467000Y-65255000D02*
X86757000Y-65255000D01*
X87086000Y-70850000D02*
X87086000Y-68850000D01*
X87086000Y-68850000D02*
X83186000Y-68850000D01*
X87086000Y-70850000D02*
X83186000Y-70850000D01*
D10*
X137377714Y-57730571D02*
X137994571Y-57730571D01*
X138067142Y-57694285D01*
X138103428Y-57658000D01*
X138139714Y-57585428D01*
X138139714Y-57440285D01*
X138103428Y-57367714D01*
X138067142Y-57331428D01*
X137994571Y-57295142D01*
X137377714Y-57295142D01*
X137631714Y-56605714D02*
X138139714Y-56605714D01*
X137341428Y-56787142D02*
X137885714Y-56968571D01*
X137885714Y-56496857D01*
X112485714Y-57730571D02*
X113102571Y-57730571D01*
X113175142Y-57694285D01*
X113211428Y-57658000D01*
X113247714Y-57585428D01*
X113247714Y-57440285D01*
X113211428Y-57367714D01*
X113175142Y-57331428D01*
X113102571Y-57295142D01*
X112485714Y-57295142D01*
X112558285Y-56968571D02*
X112522000Y-56932285D01*
X112485714Y-56859714D01*
X112485714Y-56678285D01*
X112522000Y-56605714D01*
X112558285Y-56569428D01*
X112630857Y-56533142D01*
X112703428Y-56533142D01*
X112812285Y-56569428D01*
X113247714Y-57004857D01*
X113247714Y-56533142D01*
X124931714Y-57730571D02*
X125548571Y-57730571D01*
X125621142Y-57694285D01*
X125657428Y-57658000D01*
X125693714Y-57585428D01*
X125693714Y-57440285D01*
X125657428Y-57367714D01*
X125621142Y-57331428D01*
X125548571Y-57295142D01*
X124931714Y-57295142D01*
X124931714Y-57004857D02*
X124931714Y-56533142D01*
X125222000Y-56787142D01*
X125222000Y-56678285D01*
X125258285Y-56605714D01*
X125294571Y-56569428D01*
X125367142Y-56533142D01*
X125548571Y-56533142D01*
X125621142Y-56569428D01*
X125657428Y-56605714D01*
X125693714Y-56678285D01*
X125693714Y-56896000D01*
X125657428Y-56968571D01*
X125621142Y-57004857D01*
X100112714Y-57730571D02*
X100729571Y-57730571D01*
X100802142Y-57694285D01*
X100838428Y-57658000D01*
X100874714Y-57585428D01*
X100874714Y-57440285D01*
X100838428Y-57367714D01*
X100802142Y-57331428D01*
X100729571Y-57295142D01*
X100112714Y-57295142D01*
X100874714Y-56533142D02*
X100874714Y-56968571D01*
X100874714Y-56750857D02*
X100112714Y-56750857D01*
X100221571Y-56823428D01*
X100294142Y-56896000D01*
X100330428Y-56968571D01*
X143183428Y-61884714D02*
X143183428Y-61122714D01*
X143183428Y-61485571D02*
X143618857Y-61485571D01*
X143618857Y-61884714D02*
X143618857Y-61122714D01*
X144380857Y-61884714D02*
X143945428Y-61884714D01*
X144163142Y-61884714D02*
X144163142Y-61122714D01*
X144090571Y-61231571D01*
X144018000Y-61304142D01*
X143945428Y-61340428D01*
X139518571Y-63608857D02*
X139518571Y-63862857D01*
X139917714Y-63862857D02*
X139155714Y-63862857D01*
X139155714Y-63500000D01*
X139518571Y-62955714D02*
X139554857Y-62846857D01*
X139591142Y-62810571D01*
X139663714Y-62774285D01*
X139772571Y-62774285D01*
X139845142Y-62810571D01*
X139881428Y-62846857D01*
X139917714Y-62919428D01*
X139917714Y-63209714D01*
X139155714Y-63209714D01*
X139155714Y-62955714D01*
X139192000Y-62883142D01*
X139228285Y-62846857D01*
X139300857Y-62810571D01*
X139373428Y-62810571D01*
X139446000Y-62846857D01*
X139482285Y-62883142D01*
X139518571Y-62955714D01*
X139518571Y-63209714D01*
X139409714Y-62121142D02*
X139917714Y-62121142D01*
X139119428Y-62302571D02*
X139663714Y-62484000D01*
X139663714Y-62012285D01*
X139917714Y-61322857D02*
X139917714Y-61758285D01*
X139917714Y-61540571D02*
X139155714Y-61540571D01*
X139264571Y-61613142D01*
X139337142Y-61685714D01*
X139373428Y-61758285D01*
X127072571Y-63608857D02*
X127072571Y-63862857D01*
X127471714Y-63862857D02*
X126709714Y-63862857D01*
X126709714Y-63500000D01*
X127072571Y-62955714D02*
X127108857Y-62846857D01*
X127145142Y-62810571D01*
X127217714Y-62774285D01*
X127326571Y-62774285D01*
X127399142Y-62810571D01*
X127435428Y-62846857D01*
X127471714Y-62919428D01*
X127471714Y-63209714D01*
X126709714Y-63209714D01*
X126709714Y-62955714D01*
X126746000Y-62883142D01*
X126782285Y-62846857D01*
X126854857Y-62810571D01*
X126927428Y-62810571D01*
X127000000Y-62846857D01*
X127036285Y-62883142D01*
X127072571Y-62955714D01*
X127072571Y-63209714D01*
X126709714Y-62520285D02*
X126709714Y-62048571D01*
X127000000Y-62302571D01*
X127000000Y-62193714D01*
X127036285Y-62121142D01*
X127072571Y-62084857D01*
X127145142Y-62048571D01*
X127326571Y-62048571D01*
X127399142Y-62084857D01*
X127435428Y-62121142D01*
X127471714Y-62193714D01*
X127471714Y-62411428D01*
X127435428Y-62484000D01*
X127399142Y-62520285D01*
X127471714Y-61322857D02*
X127471714Y-61758285D01*
X127471714Y-61540571D02*
X126709714Y-61540571D01*
X126818571Y-61613142D01*
X126891142Y-61685714D01*
X126927428Y-61758285D01*
X114626571Y-63608857D02*
X114626571Y-63862857D01*
X115025714Y-63862857D02*
X114263714Y-63862857D01*
X114263714Y-63500000D01*
X114626571Y-62955714D02*
X114662857Y-62846857D01*
X114699142Y-62810571D01*
X114771714Y-62774285D01*
X114880571Y-62774285D01*
X114953142Y-62810571D01*
X114989428Y-62846857D01*
X115025714Y-62919428D01*
X115025714Y-63209714D01*
X114263714Y-63209714D01*
X114263714Y-62955714D01*
X114300000Y-62883142D01*
X114336285Y-62846857D01*
X114408857Y-62810571D01*
X114481428Y-62810571D01*
X114554000Y-62846857D01*
X114590285Y-62883142D01*
X114626571Y-62955714D01*
X114626571Y-63209714D01*
X114336285Y-62484000D02*
X114300000Y-62447714D01*
X114263714Y-62375142D01*
X114263714Y-62193714D01*
X114300000Y-62121142D01*
X114336285Y-62084857D01*
X114408857Y-62048571D01*
X114481428Y-62048571D01*
X114590285Y-62084857D01*
X115025714Y-62520285D01*
X115025714Y-62048571D01*
X115025714Y-61322857D02*
X115025714Y-61758285D01*
X115025714Y-61540571D02*
X114263714Y-61540571D01*
X114372571Y-61613142D01*
X114445142Y-61685714D01*
X114481428Y-61758285D01*
X102180571Y-63608857D02*
X102180571Y-63862857D01*
X102579714Y-63862857D02*
X101817714Y-63862857D01*
X101817714Y-63500000D01*
X102180571Y-62955714D02*
X102216857Y-62846857D01*
X102253142Y-62810571D01*
X102325714Y-62774285D01*
X102434571Y-62774285D01*
X102507142Y-62810571D01*
X102543428Y-62846857D01*
X102579714Y-62919428D01*
X102579714Y-63209714D01*
X101817714Y-63209714D01*
X101817714Y-62955714D01*
X101854000Y-62883142D01*
X101890285Y-62846857D01*
X101962857Y-62810571D01*
X102035428Y-62810571D01*
X102108000Y-62846857D01*
X102144285Y-62883142D01*
X102180571Y-62955714D01*
X102180571Y-63209714D01*
X102579714Y-62048571D02*
X102579714Y-62484000D01*
X102579714Y-62266285D02*
X101817714Y-62266285D01*
X101926571Y-62338857D01*
X101999142Y-62411428D01*
X102035428Y-62484000D01*
X102579714Y-61322857D02*
X102579714Y-61758285D01*
X102579714Y-61540571D02*
X101817714Y-61540571D01*
X101926571Y-61613142D01*
X101999142Y-61685714D01*
X102035428Y-61758285D01*
X84836000Y-67763571D02*
X84582000Y-67763571D01*
X84582000Y-68162714D02*
X84582000Y-67400714D01*
X84944857Y-67400714D01*
X85489142Y-67763571D02*
X85598000Y-67799857D01*
X85634285Y-67836142D01*
X85670571Y-67908714D01*
X85670571Y-68017571D01*
X85634285Y-68090142D01*
X85598000Y-68126428D01*
X85525428Y-68162714D01*
X85235142Y-68162714D01*
X85235142Y-67400714D01*
X85489142Y-67400714D01*
X85561714Y-67437000D01*
X85598000Y-67473285D01*
X85634285Y-67545857D01*
X85634285Y-67618428D01*
X85598000Y-67691000D01*
X85561714Y-67727285D01*
X85489142Y-67763571D01*
X85235142Y-67763571D01*
X85960857Y-67473285D02*
X85997142Y-67437000D01*
X86069714Y-67400714D01*
X86251142Y-67400714D01*
X86323714Y-67437000D01*
X86360000Y-67473285D01*
X86396285Y-67545857D01*
X86396285Y-67618428D01*
X86360000Y-67727285D01*
X85924571Y-68162714D01*
X86396285Y-68162714D01*
X137305142Y-71011142D02*
X137268857Y-71047428D01*
X137160000Y-71083714D01*
X137087428Y-71083714D01*
X136978571Y-71047428D01*
X136906000Y-70974857D01*
X136869714Y-70902285D01*
X136833428Y-70757142D01*
X136833428Y-70648285D01*
X136869714Y-70503142D01*
X136906000Y-70430571D01*
X136978571Y-70358000D01*
X137087428Y-70321714D01*
X137160000Y-70321714D01*
X137268857Y-70358000D01*
X137305142Y-70394285D01*
X137958285Y-70575714D02*
X137958285Y-71083714D01*
X137776857Y-70285428D02*
X137595428Y-70829714D01*
X138067142Y-70829714D01*
X138684000Y-70575714D02*
X138684000Y-71083714D01*
X138502571Y-70285428D02*
X138321142Y-70829714D01*
X138792857Y-70829714D01*
X137305142Y-72027142D02*
X137268857Y-72063428D01*
X137160000Y-72099714D01*
X137087428Y-72099714D01*
X136978571Y-72063428D01*
X136906000Y-71990857D01*
X136869714Y-71918285D01*
X136833428Y-71773142D01*
X136833428Y-71664285D01*
X136869714Y-71519142D01*
X136906000Y-71446571D01*
X136978571Y-71374000D01*
X137087428Y-71337714D01*
X137160000Y-71337714D01*
X137268857Y-71374000D01*
X137305142Y-71410285D01*
X137958285Y-71591714D02*
X137958285Y-72099714D01*
X137776857Y-71301428D02*
X137595428Y-71845714D01*
X138067142Y-71845714D01*
X138284857Y-71337714D02*
X138756571Y-71337714D01*
X138502571Y-71628000D01*
X138611428Y-71628000D01*
X138684000Y-71664285D01*
X138720285Y-71700571D01*
X138756571Y-71773142D01*
X138756571Y-71954571D01*
X138720285Y-72027142D01*
X138684000Y-72063428D01*
X138611428Y-72099714D01*
X138393714Y-72099714D01*
X138321142Y-72063428D01*
X138284857Y-72027142D01*
X124605142Y-71011142D02*
X124568857Y-71047428D01*
X124460000Y-71083714D01*
X124387428Y-71083714D01*
X124278571Y-71047428D01*
X124206000Y-70974857D01*
X124169714Y-70902285D01*
X124133428Y-70757142D01*
X124133428Y-70648285D01*
X124169714Y-70503142D01*
X124206000Y-70430571D01*
X124278571Y-70358000D01*
X124387428Y-70321714D01*
X124460000Y-70321714D01*
X124568857Y-70358000D01*
X124605142Y-70394285D01*
X124859142Y-70321714D02*
X125330857Y-70321714D01*
X125076857Y-70612000D01*
X125185714Y-70612000D01*
X125258285Y-70648285D01*
X125294571Y-70684571D01*
X125330857Y-70757142D01*
X125330857Y-70938571D01*
X125294571Y-71011142D01*
X125258285Y-71047428D01*
X125185714Y-71083714D01*
X124968000Y-71083714D01*
X124895428Y-71047428D01*
X124859142Y-71011142D01*
X125984000Y-70575714D02*
X125984000Y-71083714D01*
X125802571Y-70285428D02*
X125621142Y-70829714D01*
X126092857Y-70829714D01*
X124605142Y-72027142D02*
X124568857Y-72063428D01*
X124460000Y-72099714D01*
X124387428Y-72099714D01*
X124278571Y-72063428D01*
X124206000Y-71990857D01*
X124169714Y-71918285D01*
X124133428Y-71773142D01*
X124133428Y-71664285D01*
X124169714Y-71519142D01*
X124206000Y-71446571D01*
X124278571Y-71374000D01*
X124387428Y-71337714D01*
X124460000Y-71337714D01*
X124568857Y-71374000D01*
X124605142Y-71410285D01*
X124859142Y-71337714D02*
X125330857Y-71337714D01*
X125076857Y-71628000D01*
X125185714Y-71628000D01*
X125258285Y-71664285D01*
X125294571Y-71700571D01*
X125330857Y-71773142D01*
X125330857Y-71954571D01*
X125294571Y-72027142D01*
X125258285Y-72063428D01*
X125185714Y-72099714D01*
X124968000Y-72099714D01*
X124895428Y-72063428D01*
X124859142Y-72027142D01*
X125584857Y-71337714D02*
X126056571Y-71337714D01*
X125802571Y-71628000D01*
X125911428Y-71628000D01*
X125984000Y-71664285D01*
X126020285Y-71700571D01*
X126056571Y-71773142D01*
X126056571Y-71954571D01*
X126020285Y-72027142D01*
X125984000Y-72063428D01*
X125911428Y-72099714D01*
X125693714Y-72099714D01*
X125621142Y-72063428D01*
X125584857Y-72027142D01*
X112159142Y-70884142D02*
X112122857Y-70920428D01*
X112014000Y-70956714D01*
X111941428Y-70956714D01*
X111832571Y-70920428D01*
X111760000Y-70847857D01*
X111723714Y-70775285D01*
X111687428Y-70630142D01*
X111687428Y-70521285D01*
X111723714Y-70376142D01*
X111760000Y-70303571D01*
X111832571Y-70231000D01*
X111941428Y-70194714D01*
X112014000Y-70194714D01*
X112122857Y-70231000D01*
X112159142Y-70267285D01*
X112449428Y-70267285D02*
X112485714Y-70231000D01*
X112558285Y-70194714D01*
X112739714Y-70194714D01*
X112812285Y-70231000D01*
X112848571Y-70267285D01*
X112884857Y-70339857D01*
X112884857Y-70412428D01*
X112848571Y-70521285D01*
X112413142Y-70956714D01*
X112884857Y-70956714D01*
X113538000Y-70448714D02*
X113538000Y-70956714D01*
X113356571Y-70158428D02*
X113175142Y-70702714D01*
X113646857Y-70702714D01*
X112159142Y-71900142D02*
X112122857Y-71936428D01*
X112014000Y-71972714D01*
X111941428Y-71972714D01*
X111832571Y-71936428D01*
X111760000Y-71863857D01*
X111723714Y-71791285D01*
X111687428Y-71646142D01*
X111687428Y-71537285D01*
X111723714Y-71392142D01*
X111760000Y-71319571D01*
X111832571Y-71247000D01*
X111941428Y-71210714D01*
X112014000Y-71210714D01*
X112122857Y-71247000D01*
X112159142Y-71283285D01*
X112449428Y-71283285D02*
X112485714Y-71247000D01*
X112558285Y-71210714D01*
X112739714Y-71210714D01*
X112812285Y-71247000D01*
X112848571Y-71283285D01*
X112884857Y-71355857D01*
X112884857Y-71428428D01*
X112848571Y-71537285D01*
X112413142Y-71972714D01*
X112884857Y-71972714D01*
X113138857Y-71210714D02*
X113610571Y-71210714D01*
X113356571Y-71501000D01*
X113465428Y-71501000D01*
X113538000Y-71537285D01*
X113574285Y-71573571D01*
X113610571Y-71646142D01*
X113610571Y-71827571D01*
X113574285Y-71900142D01*
X113538000Y-71936428D01*
X113465428Y-71972714D01*
X113247714Y-71972714D01*
X113175142Y-71936428D01*
X113138857Y-71900142D01*
X99713142Y-70757142D02*
X99676857Y-70793428D01*
X99568000Y-70829714D01*
X99495428Y-70829714D01*
X99386571Y-70793428D01*
X99314000Y-70720857D01*
X99277714Y-70648285D01*
X99241428Y-70503142D01*
X99241428Y-70394285D01*
X99277714Y-70249142D01*
X99314000Y-70176571D01*
X99386571Y-70104000D01*
X99495428Y-70067714D01*
X99568000Y-70067714D01*
X99676857Y-70104000D01*
X99713142Y-70140285D01*
X100438857Y-70829714D02*
X100003428Y-70829714D01*
X100221142Y-70829714D02*
X100221142Y-70067714D01*
X100148571Y-70176571D01*
X100076000Y-70249142D01*
X100003428Y-70285428D01*
X101092000Y-70321714D02*
X101092000Y-70829714D01*
X100910571Y-70031428D02*
X100729142Y-70575714D01*
X101200857Y-70575714D01*
X99713142Y-71773142D02*
X99676857Y-71809428D01*
X99568000Y-71845714D01*
X99495428Y-71845714D01*
X99386571Y-71809428D01*
X99314000Y-71736857D01*
X99277714Y-71664285D01*
X99241428Y-71519142D01*
X99241428Y-71410285D01*
X99277714Y-71265142D01*
X99314000Y-71192571D01*
X99386571Y-71120000D01*
X99495428Y-71083714D01*
X99568000Y-71083714D01*
X99676857Y-71120000D01*
X99713142Y-71156285D01*
X100438857Y-71845714D02*
X100003428Y-71845714D01*
X100221142Y-71845714D02*
X100221142Y-71083714D01*
X100148571Y-71192571D01*
X100076000Y-71265142D01*
X100003428Y-71301428D01*
X100692857Y-71083714D02*
X101164571Y-71083714D01*
X100910571Y-71374000D01*
X101019428Y-71374000D01*
X101092000Y-71410285D01*
X101128285Y-71446571D01*
X101164571Y-71519142D01*
X101164571Y-71700571D01*
X101128285Y-71773142D01*
X101092000Y-71809428D01*
X101019428Y-71845714D01*
X100801714Y-71845714D01*
X100729142Y-71809428D01*
X100692857Y-71773142D01*
X137305142Y-73043142D02*
X137268857Y-73079428D01*
X137160000Y-73115714D01*
X137087428Y-73115714D01*
X136978571Y-73079428D01*
X136906000Y-73006857D01*
X136869714Y-72934285D01*
X136833428Y-72789142D01*
X136833428Y-72680285D01*
X136869714Y-72535142D01*
X136906000Y-72462571D01*
X136978571Y-72390000D01*
X137087428Y-72353714D01*
X137160000Y-72353714D01*
X137268857Y-72390000D01*
X137305142Y-72426285D01*
X137958285Y-72607714D02*
X137958285Y-73115714D01*
X137776857Y-72317428D02*
X137595428Y-72861714D01*
X138067142Y-72861714D01*
X138321142Y-72426285D02*
X138357428Y-72390000D01*
X138430000Y-72353714D01*
X138611428Y-72353714D01*
X138684000Y-72390000D01*
X138720285Y-72426285D01*
X138756571Y-72498857D01*
X138756571Y-72571428D01*
X138720285Y-72680285D01*
X138284857Y-73115714D01*
X138756571Y-73115714D01*
X124605142Y-73043142D02*
X124568857Y-73079428D01*
X124460000Y-73115714D01*
X124387428Y-73115714D01*
X124278571Y-73079428D01*
X124206000Y-73006857D01*
X124169714Y-72934285D01*
X124133428Y-72789142D01*
X124133428Y-72680285D01*
X124169714Y-72535142D01*
X124206000Y-72462571D01*
X124278571Y-72390000D01*
X124387428Y-72353714D01*
X124460000Y-72353714D01*
X124568857Y-72390000D01*
X124605142Y-72426285D01*
X124859142Y-72353714D02*
X125330857Y-72353714D01*
X125076857Y-72644000D01*
X125185714Y-72644000D01*
X125258285Y-72680285D01*
X125294571Y-72716571D01*
X125330857Y-72789142D01*
X125330857Y-72970571D01*
X125294571Y-73043142D01*
X125258285Y-73079428D01*
X125185714Y-73115714D01*
X124968000Y-73115714D01*
X124895428Y-73079428D01*
X124859142Y-73043142D01*
X125621142Y-72426285D02*
X125657428Y-72390000D01*
X125730000Y-72353714D01*
X125911428Y-72353714D01*
X125984000Y-72390000D01*
X126020285Y-72426285D01*
X126056571Y-72498857D01*
X126056571Y-72571428D01*
X126020285Y-72680285D01*
X125584857Y-73115714D01*
X126056571Y-73115714D01*
X112159142Y-72916142D02*
X112122857Y-72952428D01*
X112014000Y-72988714D01*
X111941428Y-72988714D01*
X111832571Y-72952428D01*
X111760000Y-72879857D01*
X111723714Y-72807285D01*
X111687428Y-72662142D01*
X111687428Y-72553285D01*
X111723714Y-72408142D01*
X111760000Y-72335571D01*
X111832571Y-72263000D01*
X111941428Y-72226714D01*
X112014000Y-72226714D01*
X112122857Y-72263000D01*
X112159142Y-72299285D01*
X112449428Y-72299285D02*
X112485714Y-72263000D01*
X112558285Y-72226714D01*
X112739714Y-72226714D01*
X112812285Y-72263000D01*
X112848571Y-72299285D01*
X112884857Y-72371857D01*
X112884857Y-72444428D01*
X112848571Y-72553285D01*
X112413142Y-72988714D01*
X112884857Y-72988714D01*
X113175142Y-72299285D02*
X113211428Y-72263000D01*
X113284000Y-72226714D01*
X113465428Y-72226714D01*
X113538000Y-72263000D01*
X113574285Y-72299285D01*
X113610571Y-72371857D01*
X113610571Y-72444428D01*
X113574285Y-72553285D01*
X113138857Y-72988714D01*
X113610571Y-72988714D01*
X99713142Y-72916142D02*
X99676857Y-72952428D01*
X99568000Y-72988714D01*
X99495428Y-72988714D01*
X99386571Y-72952428D01*
X99314000Y-72879857D01*
X99277714Y-72807285D01*
X99241428Y-72662142D01*
X99241428Y-72553285D01*
X99277714Y-72408142D01*
X99314000Y-72335571D01*
X99386571Y-72263000D01*
X99495428Y-72226714D01*
X99568000Y-72226714D01*
X99676857Y-72263000D01*
X99713142Y-72299285D01*
X100438857Y-72988714D02*
X100003428Y-72988714D01*
X100221142Y-72988714D02*
X100221142Y-72226714D01*
X100148571Y-72335571D01*
X100076000Y-72408142D01*
X100003428Y-72444428D01*
X100729142Y-72299285D02*
X100765428Y-72263000D01*
X100838000Y-72226714D01*
X101019428Y-72226714D01*
X101092000Y-72263000D01*
X101128285Y-72299285D01*
X101164571Y-72371857D01*
X101164571Y-72444428D01*
X101128285Y-72553285D01*
X100692857Y-72988714D01*
X101164571Y-72988714D01*
X78486000Y-56942714D02*
X78486000Y-57487000D01*
X78449714Y-57595857D01*
X78377142Y-57668428D01*
X78268285Y-57704714D01*
X78195714Y-57704714D01*
X79248000Y-57704714D02*
X78812571Y-57704714D01*
X79030285Y-57704714D02*
X79030285Y-56942714D01*
X78957714Y-57051571D01*
X78885142Y-57124142D01*
X78812571Y-57160428D01*
X132932714Y-66529857D02*
X132569857Y-66783857D01*
X132932714Y-66965285D02*
X132170714Y-66965285D01*
X132170714Y-66675000D01*
X132207000Y-66602428D01*
X132243285Y-66566142D01*
X132315857Y-66529857D01*
X132424714Y-66529857D01*
X132497285Y-66566142D01*
X132533571Y-66602428D01*
X132569857Y-66675000D01*
X132569857Y-66965285D01*
X132424714Y-65876714D02*
X132932714Y-65876714D01*
X132134428Y-66058142D02*
X132678714Y-66239571D01*
X132678714Y-65767857D01*
X132170714Y-65550142D02*
X132170714Y-65078428D01*
X132461000Y-65332428D01*
X132461000Y-65223571D01*
X132497285Y-65151000D01*
X132533571Y-65114714D01*
X132606142Y-65078428D01*
X132787571Y-65078428D01*
X132860142Y-65114714D01*
X132896428Y-65151000D01*
X132932714Y-65223571D01*
X132932714Y-65441285D01*
X132896428Y-65513857D01*
X132860142Y-65550142D01*
X130392714Y-66529857D02*
X130029857Y-66783857D01*
X130392714Y-66965285D02*
X129630714Y-66965285D01*
X129630714Y-66675000D01*
X129667000Y-66602428D01*
X129703285Y-66566142D01*
X129775857Y-66529857D01*
X129884714Y-66529857D01*
X129957285Y-66566142D01*
X129993571Y-66602428D01*
X130029857Y-66675000D01*
X130029857Y-66965285D01*
X129884714Y-65876714D02*
X130392714Y-65876714D01*
X129594428Y-66058142D02*
X130138714Y-66239571D01*
X130138714Y-65767857D01*
X129703285Y-65513857D02*
X129667000Y-65477571D01*
X129630714Y-65405000D01*
X129630714Y-65223571D01*
X129667000Y-65151000D01*
X129703285Y-65114714D01*
X129775857Y-65078428D01*
X129848428Y-65078428D01*
X129957285Y-65114714D01*
X130392714Y-65550142D01*
X130392714Y-65078428D01*
X127852714Y-66529857D02*
X127489857Y-66783857D01*
X127852714Y-66965285D02*
X127090714Y-66965285D01*
X127090714Y-66675000D01*
X127127000Y-66602428D01*
X127163285Y-66566142D01*
X127235857Y-66529857D01*
X127344714Y-66529857D01*
X127417285Y-66566142D01*
X127453571Y-66602428D01*
X127489857Y-66675000D01*
X127489857Y-66965285D01*
X127344714Y-65876714D02*
X127852714Y-65876714D01*
X127054428Y-66058142D02*
X127598714Y-66239571D01*
X127598714Y-65767857D01*
X127852714Y-65078428D02*
X127852714Y-65513857D01*
X127852714Y-65296142D02*
X127090714Y-65296142D01*
X127199571Y-65368714D01*
X127272142Y-65441285D01*
X127308428Y-65513857D01*
X120486714Y-66529857D02*
X120123857Y-66783857D01*
X120486714Y-66965285D02*
X119724714Y-66965285D01*
X119724714Y-66675000D01*
X119761000Y-66602428D01*
X119797285Y-66566142D01*
X119869857Y-66529857D01*
X119978714Y-66529857D01*
X120051285Y-66566142D01*
X120087571Y-66602428D01*
X120123857Y-66675000D01*
X120123857Y-66965285D01*
X119724714Y-66275857D02*
X119724714Y-65804142D01*
X120015000Y-66058142D01*
X120015000Y-65949285D01*
X120051285Y-65876714D01*
X120087571Y-65840428D01*
X120160142Y-65804142D01*
X120341571Y-65804142D01*
X120414142Y-65840428D01*
X120450428Y-65876714D01*
X120486714Y-65949285D01*
X120486714Y-66167000D01*
X120450428Y-66239571D01*
X120414142Y-66275857D01*
X119724714Y-65550142D02*
X119724714Y-65078428D01*
X120015000Y-65332428D01*
X120015000Y-65223571D01*
X120051285Y-65151000D01*
X120087571Y-65114714D01*
X120160142Y-65078428D01*
X120341571Y-65078428D01*
X120414142Y-65114714D01*
X120450428Y-65151000D01*
X120486714Y-65223571D01*
X120486714Y-65441285D01*
X120450428Y-65513857D01*
X120414142Y-65550142D01*
X117946714Y-66529857D02*
X117583857Y-66783857D01*
X117946714Y-66965285D02*
X117184714Y-66965285D01*
X117184714Y-66675000D01*
X117221000Y-66602428D01*
X117257285Y-66566142D01*
X117329857Y-66529857D01*
X117438714Y-66529857D01*
X117511285Y-66566142D01*
X117547571Y-66602428D01*
X117583857Y-66675000D01*
X117583857Y-66965285D01*
X117184714Y-66275857D02*
X117184714Y-65804142D01*
X117475000Y-66058142D01*
X117475000Y-65949285D01*
X117511285Y-65876714D01*
X117547571Y-65840428D01*
X117620142Y-65804142D01*
X117801571Y-65804142D01*
X117874142Y-65840428D01*
X117910428Y-65876714D01*
X117946714Y-65949285D01*
X117946714Y-66167000D01*
X117910428Y-66239571D01*
X117874142Y-66275857D01*
X117257285Y-65513857D02*
X117221000Y-65477571D01*
X117184714Y-65405000D01*
X117184714Y-65223571D01*
X117221000Y-65151000D01*
X117257285Y-65114714D01*
X117329857Y-65078428D01*
X117402428Y-65078428D01*
X117511285Y-65114714D01*
X117946714Y-65550142D01*
X117946714Y-65078428D01*
X115406714Y-66529857D02*
X115043857Y-66783857D01*
X115406714Y-66965285D02*
X114644714Y-66965285D01*
X114644714Y-66675000D01*
X114681000Y-66602428D01*
X114717285Y-66566142D01*
X114789857Y-66529857D01*
X114898714Y-66529857D01*
X114971285Y-66566142D01*
X115007571Y-66602428D01*
X115043857Y-66675000D01*
X115043857Y-66965285D01*
X114644714Y-66275857D02*
X114644714Y-65804142D01*
X114935000Y-66058142D01*
X114935000Y-65949285D01*
X114971285Y-65876714D01*
X115007571Y-65840428D01*
X115080142Y-65804142D01*
X115261571Y-65804142D01*
X115334142Y-65840428D01*
X115370428Y-65876714D01*
X115406714Y-65949285D01*
X115406714Y-66167000D01*
X115370428Y-66239571D01*
X115334142Y-66275857D01*
X115406714Y-65078428D02*
X115406714Y-65513857D01*
X115406714Y-65296142D02*
X114644714Y-65296142D01*
X114753571Y-65368714D01*
X114826142Y-65441285D01*
X114862428Y-65513857D01*
X108040714Y-66529857D02*
X107677857Y-66783857D01*
X108040714Y-66965285D02*
X107278714Y-66965285D01*
X107278714Y-66675000D01*
X107315000Y-66602428D01*
X107351285Y-66566142D01*
X107423857Y-66529857D01*
X107532714Y-66529857D01*
X107605285Y-66566142D01*
X107641571Y-66602428D01*
X107677857Y-66675000D01*
X107677857Y-66965285D01*
X107351285Y-66239571D02*
X107315000Y-66203285D01*
X107278714Y-66130714D01*
X107278714Y-65949285D01*
X107315000Y-65876714D01*
X107351285Y-65840428D01*
X107423857Y-65804142D01*
X107496428Y-65804142D01*
X107605285Y-65840428D01*
X108040714Y-66275857D01*
X108040714Y-65804142D01*
X107278714Y-65550142D02*
X107278714Y-65078428D01*
X107569000Y-65332428D01*
X107569000Y-65223571D01*
X107605285Y-65151000D01*
X107641571Y-65114714D01*
X107714142Y-65078428D01*
X107895571Y-65078428D01*
X107968142Y-65114714D01*
X108004428Y-65151000D01*
X108040714Y-65223571D01*
X108040714Y-65441285D01*
X108004428Y-65513857D01*
X107968142Y-65550142D01*
X105500714Y-66529857D02*
X105137857Y-66783857D01*
X105500714Y-66965285D02*
X104738714Y-66965285D01*
X104738714Y-66675000D01*
X104775000Y-66602428D01*
X104811285Y-66566142D01*
X104883857Y-66529857D01*
X104992714Y-66529857D01*
X105065285Y-66566142D01*
X105101571Y-66602428D01*
X105137857Y-66675000D01*
X105137857Y-66965285D01*
X104811285Y-66239571D02*
X104775000Y-66203285D01*
X104738714Y-66130714D01*
X104738714Y-65949285D01*
X104775000Y-65876714D01*
X104811285Y-65840428D01*
X104883857Y-65804142D01*
X104956428Y-65804142D01*
X105065285Y-65840428D01*
X105500714Y-66275857D01*
X105500714Y-65804142D01*
X104811285Y-65513857D02*
X104775000Y-65477571D01*
X104738714Y-65405000D01*
X104738714Y-65223571D01*
X104775000Y-65151000D01*
X104811285Y-65114714D01*
X104883857Y-65078428D01*
X104956428Y-65078428D01*
X105065285Y-65114714D01*
X105500714Y-65550142D01*
X105500714Y-65078428D01*
X102960714Y-66529857D02*
X102597857Y-66783857D01*
X102960714Y-66965285D02*
X102198714Y-66965285D01*
X102198714Y-66675000D01*
X102235000Y-66602428D01*
X102271285Y-66566142D01*
X102343857Y-66529857D01*
X102452714Y-66529857D01*
X102525285Y-66566142D01*
X102561571Y-66602428D01*
X102597857Y-66675000D01*
X102597857Y-66965285D01*
X102271285Y-66239571D02*
X102235000Y-66203285D01*
X102198714Y-66130714D01*
X102198714Y-65949285D01*
X102235000Y-65876714D01*
X102271285Y-65840428D01*
X102343857Y-65804142D01*
X102416428Y-65804142D01*
X102525285Y-65840428D01*
X102960714Y-66275857D01*
X102960714Y-65804142D01*
X102960714Y-65078428D02*
X102960714Y-65513857D01*
X102960714Y-65296142D02*
X102198714Y-65296142D01*
X102307571Y-65368714D01*
X102380142Y-65441285D01*
X102416428Y-65513857D01*
X95594714Y-66529857D02*
X95231857Y-66783857D01*
X95594714Y-66965285D02*
X94832714Y-66965285D01*
X94832714Y-66675000D01*
X94869000Y-66602428D01*
X94905285Y-66566142D01*
X94977857Y-66529857D01*
X95086714Y-66529857D01*
X95159285Y-66566142D01*
X95195571Y-66602428D01*
X95231857Y-66675000D01*
X95231857Y-66965285D01*
X95594714Y-65804142D02*
X95594714Y-66239571D01*
X95594714Y-66021857D02*
X94832714Y-66021857D01*
X94941571Y-66094428D01*
X95014142Y-66167000D01*
X95050428Y-66239571D01*
X94832714Y-65550142D02*
X94832714Y-65078428D01*
X95123000Y-65332428D01*
X95123000Y-65223571D01*
X95159285Y-65151000D01*
X95195571Y-65114714D01*
X95268142Y-65078428D01*
X95449571Y-65078428D01*
X95522142Y-65114714D01*
X95558428Y-65151000D01*
X95594714Y-65223571D01*
X95594714Y-65441285D01*
X95558428Y-65513857D01*
X95522142Y-65550142D01*
X93054714Y-66529857D02*
X92691857Y-66783857D01*
X93054714Y-66965285D02*
X92292714Y-66965285D01*
X92292714Y-66675000D01*
X92329000Y-66602428D01*
X92365285Y-66566142D01*
X92437857Y-66529857D01*
X92546714Y-66529857D01*
X92619285Y-66566142D01*
X92655571Y-66602428D01*
X92691857Y-66675000D01*
X92691857Y-66965285D01*
X93054714Y-65804142D02*
X93054714Y-66239571D01*
X93054714Y-66021857D02*
X92292714Y-66021857D01*
X92401571Y-66094428D01*
X92474142Y-66167000D01*
X92510428Y-66239571D01*
X92365285Y-65513857D02*
X92329000Y-65477571D01*
X92292714Y-65405000D01*
X92292714Y-65223571D01*
X92329000Y-65151000D01*
X92365285Y-65114714D01*
X92437857Y-65078428D01*
X92510428Y-65078428D01*
X92619285Y-65114714D01*
X93054714Y-65550142D01*
X93054714Y-65078428D01*
X90514714Y-66529857D02*
X90151857Y-66783857D01*
X90514714Y-66965285D02*
X89752714Y-66965285D01*
X89752714Y-66675000D01*
X89789000Y-66602428D01*
X89825285Y-66566142D01*
X89897857Y-66529857D01*
X90006714Y-66529857D01*
X90079285Y-66566142D01*
X90115571Y-66602428D01*
X90151857Y-66675000D01*
X90151857Y-66965285D01*
X90514714Y-65804142D02*
X90514714Y-66239571D01*
X90514714Y-66021857D02*
X89752714Y-66021857D01*
X89861571Y-66094428D01*
X89934142Y-66167000D01*
X89970428Y-66239571D01*
X90514714Y-65078428D02*
X90514714Y-65513857D01*
X90514714Y-65296142D02*
X89752714Y-65296142D01*
X89861571Y-65368714D01*
X89934142Y-65441285D01*
X89970428Y-65513857D01*
X85217000Y-64352714D02*
X84963000Y-63989857D01*
X84781571Y-64352714D02*
X84781571Y-63590714D01*
X85071857Y-63590714D01*
X85144428Y-63627000D01*
X85180714Y-63663285D01*
X85217000Y-63735857D01*
X85217000Y-63844714D01*
X85180714Y-63917285D01*
X85144428Y-63953571D01*
X85071857Y-63989857D01*
X84781571Y-63989857D01*
X85870142Y-63844714D02*
X85870142Y-64352714D01*
X85688714Y-63554428D02*
X85507285Y-64098714D01*
X85979000Y-64098714D01*
X135527142Y-74512714D02*
X135527142Y-75057000D01*
X135490857Y-75165857D01*
X135418285Y-75238428D01*
X135309428Y-75274714D01*
X135236857Y-75274714D01*
X136216571Y-74766714D02*
X136216571Y-75274714D01*
X136035142Y-74476428D02*
X135853714Y-75020714D01*
X136325428Y-75020714D01*
X137014857Y-75274714D02*
X136579428Y-75274714D01*
X136797142Y-75274714D02*
X136797142Y-74512714D01*
X136724571Y-74621571D01*
X136652000Y-74694142D01*
X136579428Y-74730428D01*
X123081142Y-74512714D02*
X123081142Y-75057000D01*
X123044857Y-75165857D01*
X122972285Y-75238428D01*
X122863428Y-75274714D01*
X122790857Y-75274714D01*
X123371428Y-74512714D02*
X123843142Y-74512714D01*
X123589142Y-74803000D01*
X123698000Y-74803000D01*
X123770571Y-74839285D01*
X123806857Y-74875571D01*
X123843142Y-74948142D01*
X123843142Y-75129571D01*
X123806857Y-75202142D01*
X123770571Y-75238428D01*
X123698000Y-75274714D01*
X123480285Y-75274714D01*
X123407714Y-75238428D01*
X123371428Y-75202142D01*
X124568857Y-75274714D02*
X124133428Y-75274714D01*
X124351142Y-75274714D02*
X124351142Y-74512714D01*
X124278571Y-74621571D01*
X124206000Y-74694142D01*
X124133428Y-74730428D01*
X110635142Y-74512714D02*
X110635142Y-75057000D01*
X110598857Y-75165857D01*
X110526285Y-75238428D01*
X110417428Y-75274714D01*
X110344857Y-75274714D01*
X110961714Y-74585285D02*
X110998000Y-74549000D01*
X111070571Y-74512714D01*
X111252000Y-74512714D01*
X111324571Y-74549000D01*
X111360857Y-74585285D01*
X111397142Y-74657857D01*
X111397142Y-74730428D01*
X111360857Y-74839285D01*
X110925428Y-75274714D01*
X111397142Y-75274714D01*
X112122857Y-75274714D02*
X111687428Y-75274714D01*
X111905142Y-75274714D02*
X111905142Y-74512714D01*
X111832571Y-74621571D01*
X111760000Y-74694142D01*
X111687428Y-74730428D01*
X98189142Y-74512714D02*
X98189142Y-75057000D01*
X98152857Y-75165857D01*
X98080285Y-75238428D01*
X97971428Y-75274714D01*
X97898857Y-75274714D01*
X98951142Y-75274714D02*
X98515714Y-75274714D01*
X98733428Y-75274714D02*
X98733428Y-74512714D01*
X98660857Y-74621571D01*
X98588285Y-74694142D01*
X98515714Y-74730428D01*
X99676857Y-75274714D02*
X99241428Y-75274714D01*
X99459142Y-75274714D02*
X99459142Y-74512714D01*
X99386571Y-74621571D01*
X99314000Y-74694142D01*
X99241428Y-74730428D01*
X87630000Y-72335571D02*
X87376000Y-72335571D01*
X87376000Y-72734714D02*
X87376000Y-71972714D01*
X87738857Y-71972714D01*
X88428285Y-72734714D02*
X87992857Y-72734714D01*
X88210571Y-72734714D02*
X88210571Y-71972714D01*
X88138000Y-72081571D01*
X88065428Y-72154142D01*
X87992857Y-72190428D01*
X83783714Y-64951428D02*
X83021714Y-64951428D01*
X83021714Y-64770000D01*
X83058000Y-64661142D01*
X83130571Y-64588571D01*
X83203142Y-64552285D01*
X83348285Y-64516000D01*
X83457142Y-64516000D01*
X83602285Y-64552285D01*
X83674857Y-64588571D01*
X83747428Y-64661142D01*
X83783714Y-64770000D01*
X83783714Y-64951428D01*
X83783714Y-63790285D02*
X83783714Y-64225714D01*
X83783714Y-64008000D02*
X83021714Y-64008000D01*
X83130571Y-64080571D01*
X83203142Y-64153142D01*
X83239428Y-64225714D01*
X85090000Y-66312142D02*
X85053714Y-66348428D01*
X84944857Y-66384714D01*
X84872285Y-66384714D01*
X84763428Y-66348428D01*
X84690857Y-66275857D01*
X84654571Y-66203285D01*
X84618285Y-66058142D01*
X84618285Y-65949285D01*
X84654571Y-65804142D01*
X84690857Y-65731571D01*
X84763428Y-65659000D01*
X84872285Y-65622714D01*
X84944857Y-65622714D01*
X85053714Y-65659000D01*
X85090000Y-65695285D01*
X85815714Y-66384714D02*
X85380285Y-66384714D01*
X85598000Y-66384714D02*
X85598000Y-65622714D01*
X85525428Y-65731571D01*
X85452857Y-65804142D01*
X85380285Y-65840428D01*
X87448571Y-70194714D02*
X87448571Y-69432714D01*
X87630000Y-69432714D01*
X87738857Y-69469000D01*
X87811428Y-69541571D01*
X87847714Y-69614142D01*
X87884000Y-69759285D01*
X87884000Y-69868142D01*
X87847714Y-70013285D01*
X87811428Y-70085857D01*
X87738857Y-70158428D01*
X87630000Y-70194714D01*
X87448571Y-70194714D01*
X88174285Y-69505285D02*
X88210571Y-69469000D01*
X88283142Y-69432714D01*
X88464571Y-69432714D01*
X88537142Y-69469000D01*
X88573428Y-69505285D01*
X88609714Y-69577857D01*
X88609714Y-69650428D01*
X88573428Y-69759285D01*
X88138000Y-70194714D01*
X88609714Y-70194714D01*
M02*
