M48
; DRILL file {KiCad 5.1.4-e60b266~84~ubuntu18.04.1} date Wed 28 Aug 2019 00:00:00 AEST
; FORMAT={-:-/ absolute / inch / decimal}
; #@! TF.CreationDate,2019-08-28T00:00:00+10:00
; #@! TF.GenerationSoftware,Kicad,Pcbnew,5.1.4-e60b266~84~ubuntu18.04.1
; #@! TF.FileFunction,Plated,1,2,PTH
FMAT,2
INCH
T1C0.0157
T2C0.0197
T3C0.0394
T4C0.0591
T5C0.0669
T6C0.1378
%
G90
G05
T1
X3.215Y-2.735
X3.215Y-2.77
X3.325Y-2.225
X3.335Y-2.735
X3.335Y-2.77
X3.375Y-2.225
X3.425Y-2.225
X3.475Y-2.225
X3.55Y-2.49
X3.565Y-2.34
X3.6Y-2.34
X3.7Y-2.34
X3.7Y-2.675
X3.75Y-2.34
X3.75Y-2.415
X3.8Y-2.2256
X3.9Y-2.34
X3.935Y-2.34
X3.98Y-2.755
X4.03Y-2.49
X4.03Y-2.525
X4.03Y-2.56
X4.03Y-2.595
X4.03Y-2.63
X4.03Y-2.665
X4.055Y-2.34
X4.09Y-2.34
X4.19Y-2.34
X4.19Y-2.675
X4.24Y-2.34
X4.24Y-2.415
X4.29Y-2.2256
X4.39Y-2.34
X4.425Y-2.34
X4.47Y-2.75
X4.52Y-2.49
X4.52Y-2.525
X4.52Y-2.56
X4.52Y-2.595
X4.52Y-2.63
X4.52Y-2.665
X4.545Y-2.34
X4.58Y-2.34
X4.68Y-2.34
X4.68Y-2.675
X4.73Y-2.34
X4.73Y-2.415
X4.78Y-2.2256
X4.88Y-2.34
X4.915Y-2.34
X4.96Y-2.75
X5.01Y-2.485
X5.01Y-2.525
X5.01Y-2.56
X5.01Y-2.595
X5.01Y-2.63
X5.01Y-2.665
X5.035Y-2.34
X5.07Y-2.34
X5.17Y-2.34
X5.17Y-2.675
X5.22Y-2.34
X5.22Y-2.415
X5.27Y-2.2256
X5.37Y-2.34
X5.405Y-2.34
X5.45Y-2.75
X5.49Y-2.56
X5.49Y-2.625
X5.5Y-2.485
X5.5Y-2.525
X5.505Y-2.695
X5.6Y-2.225
X5.65Y-2.225
X5.7Y-2.225
X5.75Y-2.225
X5.8Y-2.225
T2
X5.5567Y-2.6
X5.5869Y-2.5269
X5.5869Y-2.6731
X5.66Y-2.4967
X5.66Y-2.7033
X5.7331Y-2.5269
X5.7331Y-2.6731
X5.7633Y-2.6
T3
X3.1Y-2.35
X3.1Y-2.45
X3.1Y-2.55
X3.1Y-2.65
X3.1Y-2.75
X3.1Y-2.85
T4
X3.7Y-2.835
X4.68Y-2.835
X5.17Y-2.835
X4.19Y-2.835
T5
X3.6Y-2.735
X3.6Y-2.935
X3.8Y-2.735
X3.8Y-2.935
X4.58Y-2.735
X4.58Y-2.935
X4.78Y-2.735
X4.78Y-2.935
X5.07Y-2.735
X5.07Y-2.935
X5.27Y-2.735
X5.27Y-2.935
X4.09Y-2.735
X4.09Y-2.935
X4.29Y-2.735
X4.29Y-2.935
T6
X5.66Y-2.6
T0
M30
