G04 #@! TF.GenerationSoftware,KiCad,Pcbnew,5.1.4-e60b266~84~ubuntu18.04.1*
G04 #@! TF.CreationDate,2019-08-27T23:59:40+10:00*
G04 #@! TF.ProjectId,CMOS-50R,434d4f53-2d35-4305-922e-6b696361645f,rev?*
G04 #@! TF.SameCoordinates,Original*
G04 #@! TF.FileFunction,Copper,L2,Bot*
G04 #@! TF.FilePolarity,Positive*
%FSLAX46Y46*%
G04 Gerber Fmt 4.6, Leading zero omitted, Abs format (unit mm)*
G04 Created by KiCad (PCBNEW 5.1.4-e60b266~84~ubuntu18.04.1) date 2019-08-27 23:59:40*
%MOMM*%
%LPD*%
G04 APERTURE LIST*
%ADD10C,0.800000*%
%ADD11C,7.000000*%
%ADD12O,1.700000X1.700000*%
%ADD13R,1.700000X1.700000*%
%ADD14C,2.250000*%
%ADD15C,2.050000*%
%ADD16C,0.250000*%
%ADD17C,0.254000*%
G04 APERTURE END LIST*
D10*
X145620155Y-64183845D03*
X143764000Y-63415000D03*
X141907845Y-64183845D03*
X141139000Y-66040000D03*
X141907845Y-67896155D03*
X143764000Y-68665000D03*
X145620155Y-67896155D03*
X146389000Y-66040000D03*
D11*
X143764000Y-66040000D03*
D12*
X78740000Y-72390000D03*
X78740000Y-69850000D03*
X78740000Y-67310000D03*
X78740000Y-64770000D03*
X78740000Y-62230000D03*
D13*
X78740000Y-59690000D03*
D14*
X128778000Y-69469000D03*
X133858000Y-69469000D03*
X133858000Y-74549000D03*
X128778000Y-74549000D03*
D15*
X131318000Y-72009000D03*
D14*
X116332000Y-69469000D03*
X121412000Y-69469000D03*
X121412000Y-74549000D03*
X116332000Y-74549000D03*
D15*
X118872000Y-72009000D03*
D14*
X103886000Y-69469000D03*
X108966000Y-69469000D03*
X108966000Y-74549000D03*
X103886000Y-74549000D03*
D15*
X106426000Y-72009000D03*
D14*
X91440000Y-69469000D03*
X96520000Y-69469000D03*
X96520000Y-74549000D03*
X91440000Y-74549000D03*
D15*
X93980000Y-72009000D03*
D10*
X144780000Y-56515000D03*
X146050000Y-56515000D03*
X147320000Y-56515000D03*
X143510000Y-56515000D03*
X142240000Y-56515000D03*
X88265000Y-56515000D03*
X86995000Y-56515000D03*
X85725000Y-56515000D03*
X84455000Y-56515000D03*
X81661000Y-70358000D03*
X84709000Y-70358000D03*
X101092000Y-69977000D03*
X93980000Y-59436000D03*
X91440000Y-59436000D03*
X99060000Y-59436000D03*
X103886000Y-59436000D03*
X106426000Y-59436000D03*
X111506000Y-59436000D03*
X116332000Y-59436000D03*
X118872000Y-59436000D03*
X123952000Y-59436000D03*
X128778000Y-59436000D03*
X131318000Y-59436000D03*
X136398000Y-59436000D03*
X127254000Y-65024000D03*
X114808000Y-65024000D03*
X102362000Y-65024000D03*
X139446000Y-65024000D03*
X90170000Y-63246000D03*
X102362000Y-63246000D03*
X114808000Y-63246000D03*
X127254000Y-63119000D03*
X125984000Y-69850000D03*
X138430000Y-69850000D03*
X113538000Y-69850000D03*
X102362000Y-64135000D03*
X102362000Y-65913000D03*
X102362000Y-66802000D03*
X114808000Y-64135000D03*
X114808000Y-65913000D03*
X114808000Y-66802000D03*
X114808000Y-67691000D03*
X102362000Y-67691000D03*
X127254000Y-64135000D03*
X127254000Y-65913000D03*
X127254000Y-66802000D03*
X127254000Y-67691000D03*
X139700000Y-64135000D03*
X139700000Y-63119000D03*
X139446000Y-66675000D03*
X139827000Y-68453000D03*
X99949000Y-59436000D03*
X102997000Y-59436000D03*
X90551000Y-59436000D03*
X112395000Y-59436000D03*
X115443000Y-59436000D03*
X124841000Y-59436000D03*
X127889000Y-59436000D03*
X137287000Y-59436000D03*
X81661000Y-69469000D03*
X84709000Y-69469000D03*
X95250000Y-61341000D03*
X95250000Y-59436000D03*
X133858000Y-56530000D03*
X121412000Y-56530000D03*
X108966000Y-56530000D03*
X93980000Y-67945000D03*
X106426000Y-67945000D03*
X118872000Y-67945000D03*
X131318000Y-67945000D03*
X96520000Y-56530000D03*
X107696000Y-59436000D03*
X107696000Y-61341000D03*
X120142000Y-61341000D03*
X120142000Y-59436000D03*
X132588000Y-61341000D03*
X132588000Y-59436000D03*
D16*
X95250000Y-59436000D02*
X95250000Y-61341000D01*
X79942081Y-67310000D02*
X78740000Y-67310000D01*
X90163210Y-58177020D02*
X81030230Y-67310000D01*
X131645295Y-58177020D02*
X90163210Y-58177020D01*
X133292315Y-56530000D02*
X131645295Y-58177020D01*
X81030230Y-67310000D02*
X79942081Y-67310000D01*
X133858000Y-56530000D02*
X133292315Y-56530000D01*
X79942081Y-64770000D02*
X78740000Y-64770000D01*
X82933820Y-64770000D02*
X79942081Y-64770000D01*
X89976810Y-57727010D02*
X82933820Y-64770000D01*
X120214990Y-57727010D02*
X89976810Y-57727010D01*
X121412000Y-56530000D02*
X120214990Y-57727010D01*
X84837410Y-62230000D02*
X79942081Y-62230000D01*
X79942081Y-62230000D02*
X78740000Y-62230000D01*
X108219000Y-57277000D02*
X89790410Y-57277000D01*
X89790410Y-57277000D02*
X84837410Y-62230000D01*
X108966000Y-56530000D02*
X108219000Y-57277000D01*
X93980000Y-68510685D02*
X93980000Y-72009000D01*
X93980000Y-67945000D02*
X93980000Y-68510685D01*
X106426000Y-68510685D02*
X106426000Y-72009000D01*
X106426000Y-67945000D02*
X106426000Y-68510685D01*
X118872000Y-68510685D02*
X118872000Y-72009000D01*
X118872000Y-67945000D02*
X118872000Y-68510685D01*
X131318000Y-67945000D02*
X131318000Y-72009000D01*
X78867000Y-59563000D02*
X78740000Y-59690000D01*
X86741000Y-59690000D02*
X89901000Y-56530000D01*
X89901000Y-56530000D02*
X90058000Y-56530000D01*
X78740000Y-59690000D02*
X86741000Y-59690000D01*
X96520000Y-56530000D02*
X90058000Y-56530000D01*
X107696000Y-61341000D02*
X107696000Y-59436000D01*
X120142000Y-59436000D02*
X120142000Y-61341000D01*
X132588000Y-59436000D02*
X132588000Y-61341000D01*
D17*
G36*
X86426199Y-58930000D02*
G01*
X80228072Y-58930000D01*
X80228072Y-58840000D01*
X80215812Y-58715518D01*
X80179502Y-58595820D01*
X80120537Y-58485506D01*
X80041185Y-58388815D01*
X79944494Y-58309463D01*
X79834180Y-58250498D01*
X79714482Y-58214188D01*
X79590000Y-58201928D01*
X77890000Y-58201928D01*
X77765518Y-58214188D01*
X77645820Y-58250498D01*
X77535506Y-58309463D01*
X77438815Y-58388815D01*
X77359463Y-58485506D01*
X77300498Y-58595820D01*
X77264188Y-58715518D01*
X77251928Y-58840000D01*
X77251928Y-60540000D01*
X77264188Y-60664482D01*
X77300498Y-60784180D01*
X77359463Y-60894494D01*
X77438815Y-60991185D01*
X77535506Y-61070537D01*
X77645820Y-61129502D01*
X77714687Y-61150393D01*
X77684866Y-61174866D01*
X77499294Y-61400986D01*
X77361401Y-61658966D01*
X77276487Y-61938889D01*
X77247815Y-62230000D01*
X77276487Y-62521111D01*
X77361401Y-62801034D01*
X77499294Y-63059014D01*
X77684866Y-63285134D01*
X77910986Y-63470706D01*
X77965791Y-63500000D01*
X77910986Y-63529294D01*
X77684866Y-63714866D01*
X77499294Y-63940986D01*
X77361401Y-64198966D01*
X77276487Y-64478889D01*
X77247815Y-64770000D01*
X77276487Y-65061111D01*
X77361401Y-65341034D01*
X77499294Y-65599014D01*
X77684866Y-65825134D01*
X77910986Y-66010706D01*
X77965791Y-66040000D01*
X77910986Y-66069294D01*
X77684866Y-66254866D01*
X77499294Y-66480986D01*
X77361401Y-66738966D01*
X77276487Y-67018889D01*
X77247815Y-67310000D01*
X77276487Y-67601111D01*
X77361401Y-67881034D01*
X77499294Y-68139014D01*
X77684866Y-68365134D01*
X77910986Y-68550706D01*
X77975523Y-68585201D01*
X77858645Y-68654822D01*
X77642412Y-68849731D01*
X77468359Y-69083080D01*
X77343175Y-69345901D01*
X77298524Y-69493110D01*
X77419845Y-69723000D01*
X78613000Y-69723000D01*
X78613000Y-69703000D01*
X78867000Y-69703000D01*
X78867000Y-69723000D01*
X80060155Y-69723000D01*
X80163775Y-69526650D01*
X89672424Y-69526650D01*
X89717634Y-69870380D01*
X89829034Y-70198685D01*
X89938286Y-70403079D01*
X90215469Y-70513926D01*
X91260395Y-69469000D01*
X91619605Y-69469000D01*
X92664531Y-70513926D01*
X92941714Y-70403079D01*
X93095089Y-70092160D01*
X93184860Y-69757295D01*
X93207576Y-69411350D01*
X93162366Y-69067620D01*
X93050966Y-68739315D01*
X92941714Y-68534921D01*
X92664531Y-68424074D01*
X91619605Y-69469000D01*
X91260395Y-69469000D01*
X90215469Y-68424074D01*
X89938286Y-68534921D01*
X89784911Y-68845840D01*
X89695140Y-69180705D01*
X89672424Y-69526650D01*
X80163775Y-69526650D01*
X80181476Y-69493110D01*
X80136825Y-69345901D01*
X80011641Y-69083080D01*
X79837588Y-68849731D01*
X79621355Y-68654822D01*
X79504477Y-68585201D01*
X79569014Y-68550706D01*
X79795134Y-68365134D01*
X79894161Y-68244469D01*
X90395074Y-68244469D01*
X91440000Y-69289395D01*
X92484926Y-68244469D01*
X92374079Y-67967286D01*
X92063160Y-67813911D01*
X91728295Y-67724140D01*
X91382350Y-67701424D01*
X91038620Y-67746634D01*
X90710315Y-67858034D01*
X90505921Y-67967286D01*
X90395074Y-68244469D01*
X79894161Y-68244469D01*
X79980706Y-68139014D01*
X80017595Y-68070000D01*
X80992908Y-68070000D01*
X81030230Y-68073676D01*
X81067552Y-68070000D01*
X81067563Y-68070000D01*
X81179216Y-68059003D01*
X81322477Y-68015546D01*
X81454506Y-67944974D01*
X81570231Y-67850001D01*
X81594034Y-67820997D01*
X83411178Y-66003853D01*
X139609149Y-66003853D01*
X139681931Y-66815118D01*
X139911585Y-67596597D01*
X140289285Y-68318256D01*
X140329450Y-68378366D01*
X140849845Y-68774550D01*
X143584395Y-66040000D01*
X140849845Y-63305450D01*
X140329450Y-63701634D01*
X139939252Y-64416612D01*
X139696036Y-65193976D01*
X139609149Y-66003853D01*
X83411178Y-66003853D01*
X86289186Y-63125845D01*
X141029450Y-63125845D01*
X143764000Y-65860395D01*
X146498550Y-63125845D01*
X146102366Y-62605450D01*
X145387388Y-62215252D01*
X144610024Y-61972036D01*
X143800147Y-61885149D01*
X142988882Y-61957931D01*
X142207403Y-62187585D01*
X141485744Y-62565285D01*
X141425634Y-62605450D01*
X141029450Y-63125845D01*
X86289186Y-63125845D01*
X90478012Y-58937020D01*
X94338624Y-58937020D01*
X94332795Y-58945744D01*
X94254774Y-59134102D01*
X94215000Y-59334061D01*
X94215000Y-59537939D01*
X94254774Y-59737898D01*
X94332795Y-59926256D01*
X94446063Y-60095774D01*
X94490000Y-60139711D01*
X94490001Y-60637288D01*
X94446063Y-60681226D01*
X94332795Y-60850744D01*
X94254774Y-61039102D01*
X94215000Y-61239061D01*
X94215000Y-61442939D01*
X94254774Y-61642898D01*
X94332795Y-61831256D01*
X94446063Y-62000774D01*
X94590226Y-62144937D01*
X94759744Y-62258205D01*
X94948102Y-62336226D01*
X95148061Y-62376000D01*
X95351939Y-62376000D01*
X95551898Y-62336226D01*
X95740256Y-62258205D01*
X95909774Y-62144937D01*
X96053937Y-62000774D01*
X96167205Y-61831256D01*
X96245226Y-61642898D01*
X96285000Y-61442939D01*
X96285000Y-61239061D01*
X96245226Y-61039102D01*
X96167205Y-60850744D01*
X96053937Y-60681226D01*
X96010000Y-60637289D01*
X96010000Y-60139711D01*
X96053937Y-60095774D01*
X96167205Y-59926256D01*
X96245226Y-59737898D01*
X96285000Y-59537939D01*
X96285000Y-59334061D01*
X96245226Y-59134102D01*
X96167205Y-58945744D01*
X96161376Y-58937020D01*
X106784624Y-58937020D01*
X106778795Y-58945744D01*
X106700774Y-59134102D01*
X106661000Y-59334061D01*
X106661000Y-59537939D01*
X106700774Y-59737898D01*
X106778795Y-59926256D01*
X106892063Y-60095774D01*
X106936001Y-60139712D01*
X106936000Y-60637289D01*
X106892063Y-60681226D01*
X106778795Y-60850744D01*
X106700774Y-61039102D01*
X106661000Y-61239061D01*
X106661000Y-61442939D01*
X106700774Y-61642898D01*
X106778795Y-61831256D01*
X106892063Y-62000774D01*
X107036226Y-62144937D01*
X107205744Y-62258205D01*
X107394102Y-62336226D01*
X107594061Y-62376000D01*
X107797939Y-62376000D01*
X107997898Y-62336226D01*
X108186256Y-62258205D01*
X108355774Y-62144937D01*
X108499937Y-62000774D01*
X108613205Y-61831256D01*
X108691226Y-61642898D01*
X108731000Y-61442939D01*
X108731000Y-61239061D01*
X108691226Y-61039102D01*
X108613205Y-60850744D01*
X108499937Y-60681226D01*
X108456000Y-60637289D01*
X108456000Y-60139711D01*
X108499937Y-60095774D01*
X108613205Y-59926256D01*
X108691226Y-59737898D01*
X108731000Y-59537939D01*
X108731000Y-59334061D01*
X108691226Y-59134102D01*
X108613205Y-58945744D01*
X108607376Y-58937020D01*
X119230624Y-58937020D01*
X119224795Y-58945744D01*
X119146774Y-59134102D01*
X119107000Y-59334061D01*
X119107000Y-59537939D01*
X119146774Y-59737898D01*
X119224795Y-59926256D01*
X119338063Y-60095774D01*
X119382000Y-60139711D01*
X119382001Y-60637288D01*
X119338063Y-60681226D01*
X119224795Y-60850744D01*
X119146774Y-61039102D01*
X119107000Y-61239061D01*
X119107000Y-61442939D01*
X119146774Y-61642898D01*
X119224795Y-61831256D01*
X119338063Y-62000774D01*
X119482226Y-62144937D01*
X119651744Y-62258205D01*
X119840102Y-62336226D01*
X120040061Y-62376000D01*
X120243939Y-62376000D01*
X120443898Y-62336226D01*
X120632256Y-62258205D01*
X120801774Y-62144937D01*
X120945937Y-62000774D01*
X121059205Y-61831256D01*
X121137226Y-61642898D01*
X121177000Y-61442939D01*
X121177000Y-61239061D01*
X121137226Y-61039102D01*
X121059205Y-60850744D01*
X120945937Y-60681226D01*
X120902000Y-60637289D01*
X120902000Y-60139711D01*
X120945937Y-60095774D01*
X121059205Y-59926256D01*
X121137226Y-59737898D01*
X121177000Y-59537939D01*
X121177000Y-59334061D01*
X121137226Y-59134102D01*
X121059205Y-58945744D01*
X121053376Y-58937020D01*
X131607973Y-58937020D01*
X131645295Y-58940696D01*
X131676202Y-58937652D01*
X131670795Y-58945744D01*
X131592774Y-59134102D01*
X131553000Y-59334061D01*
X131553000Y-59537939D01*
X131592774Y-59737898D01*
X131670795Y-59926256D01*
X131784063Y-60095774D01*
X131828000Y-60139711D01*
X131828001Y-60637288D01*
X131784063Y-60681226D01*
X131670795Y-60850744D01*
X131592774Y-61039102D01*
X131553000Y-61239061D01*
X131553000Y-61442939D01*
X131592774Y-61642898D01*
X131670795Y-61831256D01*
X131784063Y-62000774D01*
X131928226Y-62144937D01*
X132097744Y-62258205D01*
X132286102Y-62336226D01*
X132486061Y-62376000D01*
X132689939Y-62376000D01*
X132889898Y-62336226D01*
X133078256Y-62258205D01*
X133247774Y-62144937D01*
X133391937Y-62000774D01*
X133505205Y-61831256D01*
X133583226Y-61642898D01*
X133623000Y-61442939D01*
X133623000Y-61239061D01*
X133583226Y-61039102D01*
X133505205Y-60850744D01*
X133391937Y-60681226D01*
X133348000Y-60637289D01*
X133348000Y-60139711D01*
X133391937Y-60095774D01*
X133505205Y-59926256D01*
X133583226Y-59737898D01*
X133623000Y-59537939D01*
X133623000Y-59334061D01*
X133583226Y-59134102D01*
X133505205Y-58945744D01*
X133391937Y-58776226D01*
X133247774Y-58632063D01*
X133078256Y-58518795D01*
X132889898Y-58440774D01*
X132689939Y-58401000D01*
X132496116Y-58401000D01*
X133425845Y-57471271D01*
X133556102Y-57525226D01*
X133756061Y-57565000D01*
X133959939Y-57565000D01*
X134159898Y-57525226D01*
X134348256Y-57447205D01*
X134517774Y-57333937D01*
X134661937Y-57189774D01*
X134775205Y-57020256D01*
X134853226Y-56831898D01*
X134893000Y-56631939D01*
X134893000Y-56565000D01*
X147270000Y-56565000D01*
X147270000Y-63821520D01*
X147238715Y-63761744D01*
X147198550Y-63701634D01*
X146678155Y-63305450D01*
X143943605Y-66040000D01*
X146678155Y-68774550D01*
X147198550Y-68378366D01*
X147270001Y-68247444D01*
X147270001Y-75515000D01*
X135279893Y-75515000D01*
X135359714Y-75483079D01*
X135513089Y-75172160D01*
X135602860Y-74837295D01*
X135625576Y-74491350D01*
X135580366Y-74147620D01*
X135468966Y-73819315D01*
X135359714Y-73614921D01*
X135082531Y-73504074D01*
X134037605Y-74549000D01*
X134051748Y-74563143D01*
X133872143Y-74742748D01*
X133858000Y-74728605D01*
X133843858Y-74742748D01*
X133664253Y-74563143D01*
X133678395Y-74549000D01*
X132633469Y-73504074D01*
X132356286Y-73614921D01*
X132202911Y-73925840D01*
X132113140Y-74260705D01*
X132090424Y-74606650D01*
X132135634Y-74950380D01*
X132247034Y-75278685D01*
X132356286Y-75483079D01*
X132436107Y-75515000D01*
X130199893Y-75515000D01*
X130279714Y-75483079D01*
X130433089Y-75172160D01*
X130522860Y-74837295D01*
X130545576Y-74491350D01*
X130500366Y-74147620D01*
X130388966Y-73819315D01*
X130279714Y-73614921D01*
X130002531Y-73504074D01*
X128957605Y-74549000D01*
X128971748Y-74563143D01*
X128792143Y-74742748D01*
X128778000Y-74728605D01*
X128763858Y-74742748D01*
X128584253Y-74563143D01*
X128598395Y-74549000D01*
X127553469Y-73504074D01*
X127276286Y-73614921D01*
X127122911Y-73925840D01*
X127033140Y-74260705D01*
X127010424Y-74606650D01*
X127055634Y-74950380D01*
X127167034Y-75278685D01*
X127276286Y-75483079D01*
X127356107Y-75515000D01*
X122833893Y-75515000D01*
X122913714Y-75483079D01*
X123067089Y-75172160D01*
X123156860Y-74837295D01*
X123179576Y-74491350D01*
X123134366Y-74147620D01*
X123022966Y-73819315D01*
X122913714Y-73614921D01*
X122636531Y-73504074D01*
X121591605Y-74549000D01*
X121605748Y-74563143D01*
X121426143Y-74742748D01*
X121412000Y-74728605D01*
X121397858Y-74742748D01*
X121218253Y-74563143D01*
X121232395Y-74549000D01*
X120187469Y-73504074D01*
X119910286Y-73614921D01*
X119756911Y-73925840D01*
X119667140Y-74260705D01*
X119644424Y-74606650D01*
X119689634Y-74950380D01*
X119801034Y-75278685D01*
X119910286Y-75483079D01*
X119990107Y-75515000D01*
X117753893Y-75515000D01*
X117833714Y-75483079D01*
X117987089Y-75172160D01*
X118076860Y-74837295D01*
X118099576Y-74491350D01*
X118054366Y-74147620D01*
X117942966Y-73819315D01*
X117833714Y-73614921D01*
X117556531Y-73504074D01*
X116511605Y-74549000D01*
X116525748Y-74563143D01*
X116346143Y-74742748D01*
X116332000Y-74728605D01*
X116317858Y-74742748D01*
X116138253Y-74563143D01*
X116152395Y-74549000D01*
X115107469Y-73504074D01*
X114830286Y-73614921D01*
X114676911Y-73925840D01*
X114587140Y-74260705D01*
X114564424Y-74606650D01*
X114609634Y-74950380D01*
X114721034Y-75278685D01*
X114830286Y-75483079D01*
X114910107Y-75515000D01*
X110387893Y-75515000D01*
X110467714Y-75483079D01*
X110621089Y-75172160D01*
X110710860Y-74837295D01*
X110733576Y-74491350D01*
X110688366Y-74147620D01*
X110576966Y-73819315D01*
X110467714Y-73614921D01*
X110190531Y-73504074D01*
X109145605Y-74549000D01*
X109159748Y-74563143D01*
X108980143Y-74742748D01*
X108966000Y-74728605D01*
X108951858Y-74742748D01*
X108772253Y-74563143D01*
X108786395Y-74549000D01*
X107741469Y-73504074D01*
X107464286Y-73614921D01*
X107310911Y-73925840D01*
X107221140Y-74260705D01*
X107198424Y-74606650D01*
X107243634Y-74950380D01*
X107355034Y-75278685D01*
X107464286Y-75483079D01*
X107544107Y-75515000D01*
X105307893Y-75515000D01*
X105387714Y-75483079D01*
X105541089Y-75172160D01*
X105630860Y-74837295D01*
X105653576Y-74491350D01*
X105608366Y-74147620D01*
X105496966Y-73819315D01*
X105387714Y-73614921D01*
X105110531Y-73504074D01*
X104065605Y-74549000D01*
X104079748Y-74563143D01*
X103900143Y-74742748D01*
X103886000Y-74728605D01*
X103871858Y-74742748D01*
X103692253Y-74563143D01*
X103706395Y-74549000D01*
X102661469Y-73504074D01*
X102384286Y-73614921D01*
X102230911Y-73925840D01*
X102141140Y-74260705D01*
X102118424Y-74606650D01*
X102163634Y-74950380D01*
X102275034Y-75278685D01*
X102384286Y-75483079D01*
X102464107Y-75515000D01*
X97941893Y-75515000D01*
X98021714Y-75483079D01*
X98175089Y-75172160D01*
X98264860Y-74837295D01*
X98287576Y-74491350D01*
X98242366Y-74147620D01*
X98130966Y-73819315D01*
X98021714Y-73614921D01*
X97744531Y-73504074D01*
X96699605Y-74549000D01*
X96713748Y-74563143D01*
X96534143Y-74742748D01*
X96520000Y-74728605D01*
X96505858Y-74742748D01*
X96326253Y-74563143D01*
X96340395Y-74549000D01*
X95295469Y-73504074D01*
X95018286Y-73614921D01*
X94864911Y-73925840D01*
X94775140Y-74260705D01*
X94752424Y-74606650D01*
X94797634Y-74950380D01*
X94909034Y-75278685D01*
X95018286Y-75483079D01*
X95098107Y-75515000D01*
X92861893Y-75515000D01*
X92941714Y-75483079D01*
X93095089Y-75172160D01*
X93184860Y-74837295D01*
X93207576Y-74491350D01*
X93162366Y-74147620D01*
X93050966Y-73819315D01*
X92941714Y-73614921D01*
X92664531Y-73504074D01*
X91619605Y-74549000D01*
X91633748Y-74563143D01*
X91454143Y-74742748D01*
X91440000Y-74728605D01*
X91425858Y-74742748D01*
X91246253Y-74563143D01*
X91260395Y-74549000D01*
X90215469Y-73504074D01*
X89938286Y-73614921D01*
X89784911Y-73925840D01*
X89695140Y-74260705D01*
X89672424Y-74606650D01*
X89717634Y-74950380D01*
X89829034Y-75278685D01*
X89938286Y-75483079D01*
X90018107Y-75515000D01*
X76885000Y-75515000D01*
X76885000Y-72390000D01*
X77247815Y-72390000D01*
X77276487Y-72681111D01*
X77361401Y-72961034D01*
X77499294Y-73219014D01*
X77684866Y-73445134D01*
X77910986Y-73630706D01*
X78168966Y-73768599D01*
X78448889Y-73853513D01*
X78667050Y-73875000D01*
X78812950Y-73875000D01*
X79031111Y-73853513D01*
X79311034Y-73768599D01*
X79569014Y-73630706D01*
X79795134Y-73445134D01*
X79894161Y-73324469D01*
X90395074Y-73324469D01*
X91440000Y-74369395D01*
X92484926Y-73324469D01*
X92374079Y-73047286D01*
X92063160Y-72893911D01*
X91728295Y-72804140D01*
X91382350Y-72781424D01*
X91038620Y-72826634D01*
X90710315Y-72938034D01*
X90505921Y-73047286D01*
X90395074Y-73324469D01*
X79894161Y-73324469D01*
X79980706Y-73219014D01*
X80118599Y-72961034D01*
X80203513Y-72681111D01*
X80232185Y-72390000D01*
X80203513Y-72098889D01*
X80126650Y-71845504D01*
X92320000Y-71845504D01*
X92320000Y-72172496D01*
X92383793Y-72493204D01*
X92508927Y-72795305D01*
X92690594Y-73067188D01*
X92921812Y-73298406D01*
X93193695Y-73480073D01*
X93495796Y-73605207D01*
X93816504Y-73669000D01*
X94143496Y-73669000D01*
X94464204Y-73605207D01*
X94766305Y-73480073D01*
X94999182Y-73324469D01*
X95475074Y-73324469D01*
X96520000Y-74369395D01*
X97564926Y-73324469D01*
X102841074Y-73324469D01*
X103886000Y-74369395D01*
X104930926Y-73324469D01*
X104820079Y-73047286D01*
X104509160Y-72893911D01*
X104174295Y-72804140D01*
X103828350Y-72781424D01*
X103484620Y-72826634D01*
X103156315Y-72938034D01*
X102951921Y-73047286D01*
X102841074Y-73324469D01*
X97564926Y-73324469D01*
X97454079Y-73047286D01*
X97143160Y-72893911D01*
X96808295Y-72804140D01*
X96462350Y-72781424D01*
X96118620Y-72826634D01*
X95790315Y-72938034D01*
X95585921Y-73047286D01*
X95475074Y-73324469D01*
X94999182Y-73324469D01*
X95038188Y-73298406D01*
X95269406Y-73067188D01*
X95451073Y-72795305D01*
X95576207Y-72493204D01*
X95640000Y-72172496D01*
X95640000Y-71845504D01*
X104766000Y-71845504D01*
X104766000Y-72172496D01*
X104829793Y-72493204D01*
X104954927Y-72795305D01*
X105136594Y-73067188D01*
X105367812Y-73298406D01*
X105639695Y-73480073D01*
X105941796Y-73605207D01*
X106262504Y-73669000D01*
X106589496Y-73669000D01*
X106910204Y-73605207D01*
X107212305Y-73480073D01*
X107445182Y-73324469D01*
X107921074Y-73324469D01*
X108966000Y-74369395D01*
X110010926Y-73324469D01*
X115287074Y-73324469D01*
X116332000Y-74369395D01*
X117376926Y-73324469D01*
X117266079Y-73047286D01*
X116955160Y-72893911D01*
X116620295Y-72804140D01*
X116274350Y-72781424D01*
X115930620Y-72826634D01*
X115602315Y-72938034D01*
X115397921Y-73047286D01*
X115287074Y-73324469D01*
X110010926Y-73324469D01*
X109900079Y-73047286D01*
X109589160Y-72893911D01*
X109254295Y-72804140D01*
X108908350Y-72781424D01*
X108564620Y-72826634D01*
X108236315Y-72938034D01*
X108031921Y-73047286D01*
X107921074Y-73324469D01*
X107445182Y-73324469D01*
X107484188Y-73298406D01*
X107715406Y-73067188D01*
X107897073Y-72795305D01*
X108022207Y-72493204D01*
X108086000Y-72172496D01*
X108086000Y-71845504D01*
X117212000Y-71845504D01*
X117212000Y-72172496D01*
X117275793Y-72493204D01*
X117400927Y-72795305D01*
X117582594Y-73067188D01*
X117813812Y-73298406D01*
X118085695Y-73480073D01*
X118387796Y-73605207D01*
X118708504Y-73669000D01*
X119035496Y-73669000D01*
X119356204Y-73605207D01*
X119658305Y-73480073D01*
X119891182Y-73324469D01*
X120367074Y-73324469D01*
X121412000Y-74369395D01*
X122456926Y-73324469D01*
X127733074Y-73324469D01*
X128778000Y-74369395D01*
X129822926Y-73324469D01*
X129712079Y-73047286D01*
X129401160Y-72893911D01*
X129066295Y-72804140D01*
X128720350Y-72781424D01*
X128376620Y-72826634D01*
X128048315Y-72938034D01*
X127843921Y-73047286D01*
X127733074Y-73324469D01*
X122456926Y-73324469D01*
X122346079Y-73047286D01*
X122035160Y-72893911D01*
X121700295Y-72804140D01*
X121354350Y-72781424D01*
X121010620Y-72826634D01*
X120682315Y-72938034D01*
X120477921Y-73047286D01*
X120367074Y-73324469D01*
X119891182Y-73324469D01*
X119930188Y-73298406D01*
X120161406Y-73067188D01*
X120343073Y-72795305D01*
X120468207Y-72493204D01*
X120532000Y-72172496D01*
X120532000Y-71845504D01*
X129658000Y-71845504D01*
X129658000Y-72172496D01*
X129721793Y-72493204D01*
X129846927Y-72795305D01*
X130028594Y-73067188D01*
X130259812Y-73298406D01*
X130531695Y-73480073D01*
X130833796Y-73605207D01*
X131154504Y-73669000D01*
X131481496Y-73669000D01*
X131802204Y-73605207D01*
X132104305Y-73480073D01*
X132337182Y-73324469D01*
X132813074Y-73324469D01*
X133858000Y-74369395D01*
X134902926Y-73324469D01*
X134792079Y-73047286D01*
X134481160Y-72893911D01*
X134146295Y-72804140D01*
X133800350Y-72781424D01*
X133456620Y-72826634D01*
X133128315Y-72938034D01*
X132923921Y-73047286D01*
X132813074Y-73324469D01*
X132337182Y-73324469D01*
X132376188Y-73298406D01*
X132607406Y-73067188D01*
X132789073Y-72795305D01*
X132914207Y-72493204D01*
X132978000Y-72172496D01*
X132978000Y-71845504D01*
X132914207Y-71524796D01*
X132789073Y-71222695D01*
X132607406Y-70950812D01*
X132376188Y-70719594D01*
X132337183Y-70693531D01*
X132813074Y-70693531D01*
X132923921Y-70970714D01*
X133234840Y-71124089D01*
X133569705Y-71213860D01*
X133915650Y-71236576D01*
X134259380Y-71191366D01*
X134587685Y-71079966D01*
X134792079Y-70970714D01*
X134902926Y-70693531D01*
X133858000Y-69648605D01*
X132813074Y-70693531D01*
X132337183Y-70693531D01*
X132104305Y-70537927D01*
X132078000Y-70527031D01*
X132078000Y-69526650D01*
X132090424Y-69526650D01*
X132135634Y-69870380D01*
X132247034Y-70198685D01*
X132356286Y-70403079D01*
X132633469Y-70513926D01*
X133678395Y-69469000D01*
X134037605Y-69469000D01*
X135082531Y-70513926D01*
X135359714Y-70403079D01*
X135513089Y-70092160D01*
X135602860Y-69757295D01*
X135625576Y-69411350D01*
X135580366Y-69067620D01*
X135541866Y-68954155D01*
X141029450Y-68954155D01*
X141425634Y-69474550D01*
X142140612Y-69864748D01*
X142917976Y-70107964D01*
X143727853Y-70194851D01*
X144539118Y-70122069D01*
X145320597Y-69892415D01*
X146042256Y-69514715D01*
X146102366Y-69474550D01*
X146498550Y-68954155D01*
X143764000Y-66219605D01*
X141029450Y-68954155D01*
X135541866Y-68954155D01*
X135468966Y-68739315D01*
X135359714Y-68534921D01*
X135082531Y-68424074D01*
X134037605Y-69469000D01*
X133678395Y-69469000D01*
X132633469Y-68424074D01*
X132356286Y-68534921D01*
X132202911Y-68845840D01*
X132113140Y-69180705D01*
X132090424Y-69526650D01*
X132078000Y-69526650D01*
X132078000Y-68648711D01*
X132121937Y-68604774D01*
X132235205Y-68435256D01*
X132313226Y-68246898D01*
X132313709Y-68244469D01*
X132813074Y-68244469D01*
X133858000Y-69289395D01*
X134902926Y-68244469D01*
X134792079Y-67967286D01*
X134481160Y-67813911D01*
X134146295Y-67724140D01*
X133800350Y-67701424D01*
X133456620Y-67746634D01*
X133128315Y-67858034D01*
X132923921Y-67967286D01*
X132813074Y-68244469D01*
X132313709Y-68244469D01*
X132353000Y-68046939D01*
X132353000Y-67843061D01*
X132313226Y-67643102D01*
X132235205Y-67454744D01*
X132121937Y-67285226D01*
X131977774Y-67141063D01*
X131808256Y-67027795D01*
X131619898Y-66949774D01*
X131419939Y-66910000D01*
X131216061Y-66910000D01*
X131016102Y-66949774D01*
X130827744Y-67027795D01*
X130658226Y-67141063D01*
X130514063Y-67285226D01*
X130400795Y-67454744D01*
X130322774Y-67643102D01*
X130283000Y-67843061D01*
X130283000Y-68046939D01*
X130322774Y-68246898D01*
X130400795Y-68435256D01*
X130514063Y-68604774D01*
X130558000Y-68648711D01*
X130558001Y-70527031D01*
X130531695Y-70537927D01*
X130259812Y-70719594D01*
X130028594Y-70950812D01*
X129846927Y-71222695D01*
X129721793Y-71524796D01*
X129658000Y-71845504D01*
X120532000Y-71845504D01*
X120468207Y-71524796D01*
X120343073Y-71222695D01*
X120161406Y-70950812D01*
X119930188Y-70719594D01*
X119891183Y-70693531D01*
X120367074Y-70693531D01*
X120477921Y-70970714D01*
X120788840Y-71124089D01*
X121123705Y-71213860D01*
X121469650Y-71236576D01*
X121813380Y-71191366D01*
X122141685Y-71079966D01*
X122346079Y-70970714D01*
X122456926Y-70693531D01*
X127733074Y-70693531D01*
X127843921Y-70970714D01*
X128154840Y-71124089D01*
X128489705Y-71213860D01*
X128835650Y-71236576D01*
X129179380Y-71191366D01*
X129507685Y-71079966D01*
X129712079Y-70970714D01*
X129822926Y-70693531D01*
X128778000Y-69648605D01*
X127733074Y-70693531D01*
X122456926Y-70693531D01*
X121412000Y-69648605D01*
X120367074Y-70693531D01*
X119891183Y-70693531D01*
X119658305Y-70537927D01*
X119632000Y-70527031D01*
X119632000Y-69526650D01*
X119644424Y-69526650D01*
X119689634Y-69870380D01*
X119801034Y-70198685D01*
X119910286Y-70403079D01*
X120187469Y-70513926D01*
X121232395Y-69469000D01*
X121591605Y-69469000D01*
X122636531Y-70513926D01*
X122913714Y-70403079D01*
X123067089Y-70092160D01*
X123156860Y-69757295D01*
X123172004Y-69526650D01*
X127010424Y-69526650D01*
X127055634Y-69870380D01*
X127167034Y-70198685D01*
X127276286Y-70403079D01*
X127553469Y-70513926D01*
X128598395Y-69469000D01*
X128957605Y-69469000D01*
X130002531Y-70513926D01*
X130279714Y-70403079D01*
X130433089Y-70092160D01*
X130522860Y-69757295D01*
X130545576Y-69411350D01*
X130500366Y-69067620D01*
X130388966Y-68739315D01*
X130279714Y-68534921D01*
X130002531Y-68424074D01*
X128957605Y-69469000D01*
X128598395Y-69469000D01*
X127553469Y-68424074D01*
X127276286Y-68534921D01*
X127122911Y-68845840D01*
X127033140Y-69180705D01*
X127010424Y-69526650D01*
X123172004Y-69526650D01*
X123179576Y-69411350D01*
X123134366Y-69067620D01*
X123022966Y-68739315D01*
X122913714Y-68534921D01*
X122636531Y-68424074D01*
X121591605Y-69469000D01*
X121232395Y-69469000D01*
X120187469Y-68424074D01*
X119910286Y-68534921D01*
X119756911Y-68845840D01*
X119667140Y-69180705D01*
X119644424Y-69526650D01*
X119632000Y-69526650D01*
X119632000Y-68648711D01*
X119675937Y-68604774D01*
X119789205Y-68435256D01*
X119867226Y-68246898D01*
X119867709Y-68244469D01*
X120367074Y-68244469D01*
X121412000Y-69289395D01*
X122456926Y-68244469D01*
X127733074Y-68244469D01*
X128778000Y-69289395D01*
X129822926Y-68244469D01*
X129712079Y-67967286D01*
X129401160Y-67813911D01*
X129066295Y-67724140D01*
X128720350Y-67701424D01*
X128376620Y-67746634D01*
X128048315Y-67858034D01*
X127843921Y-67967286D01*
X127733074Y-68244469D01*
X122456926Y-68244469D01*
X122346079Y-67967286D01*
X122035160Y-67813911D01*
X121700295Y-67724140D01*
X121354350Y-67701424D01*
X121010620Y-67746634D01*
X120682315Y-67858034D01*
X120477921Y-67967286D01*
X120367074Y-68244469D01*
X119867709Y-68244469D01*
X119907000Y-68046939D01*
X119907000Y-67843061D01*
X119867226Y-67643102D01*
X119789205Y-67454744D01*
X119675937Y-67285226D01*
X119531774Y-67141063D01*
X119362256Y-67027795D01*
X119173898Y-66949774D01*
X118973939Y-66910000D01*
X118770061Y-66910000D01*
X118570102Y-66949774D01*
X118381744Y-67027795D01*
X118212226Y-67141063D01*
X118068063Y-67285226D01*
X117954795Y-67454744D01*
X117876774Y-67643102D01*
X117837000Y-67843061D01*
X117837000Y-68046939D01*
X117876774Y-68246898D01*
X117954795Y-68435256D01*
X118068063Y-68604774D01*
X118112000Y-68648711D01*
X118112001Y-70527031D01*
X118085695Y-70537927D01*
X117813812Y-70719594D01*
X117582594Y-70950812D01*
X117400927Y-71222695D01*
X117275793Y-71524796D01*
X117212000Y-71845504D01*
X108086000Y-71845504D01*
X108022207Y-71524796D01*
X107897073Y-71222695D01*
X107715406Y-70950812D01*
X107484188Y-70719594D01*
X107445183Y-70693531D01*
X107921074Y-70693531D01*
X108031921Y-70970714D01*
X108342840Y-71124089D01*
X108677705Y-71213860D01*
X109023650Y-71236576D01*
X109367380Y-71191366D01*
X109695685Y-71079966D01*
X109900079Y-70970714D01*
X110010926Y-70693531D01*
X115287074Y-70693531D01*
X115397921Y-70970714D01*
X115708840Y-71124089D01*
X116043705Y-71213860D01*
X116389650Y-71236576D01*
X116733380Y-71191366D01*
X117061685Y-71079966D01*
X117266079Y-70970714D01*
X117376926Y-70693531D01*
X116332000Y-69648605D01*
X115287074Y-70693531D01*
X110010926Y-70693531D01*
X108966000Y-69648605D01*
X107921074Y-70693531D01*
X107445183Y-70693531D01*
X107212305Y-70537927D01*
X107186000Y-70527031D01*
X107186000Y-69526650D01*
X107198424Y-69526650D01*
X107243634Y-69870380D01*
X107355034Y-70198685D01*
X107464286Y-70403079D01*
X107741469Y-70513926D01*
X108786395Y-69469000D01*
X109145605Y-69469000D01*
X110190531Y-70513926D01*
X110467714Y-70403079D01*
X110621089Y-70092160D01*
X110710860Y-69757295D01*
X110726004Y-69526650D01*
X114564424Y-69526650D01*
X114609634Y-69870380D01*
X114721034Y-70198685D01*
X114830286Y-70403079D01*
X115107469Y-70513926D01*
X116152395Y-69469000D01*
X116511605Y-69469000D01*
X117556531Y-70513926D01*
X117833714Y-70403079D01*
X117987089Y-70092160D01*
X118076860Y-69757295D01*
X118099576Y-69411350D01*
X118054366Y-69067620D01*
X117942966Y-68739315D01*
X117833714Y-68534921D01*
X117556531Y-68424074D01*
X116511605Y-69469000D01*
X116152395Y-69469000D01*
X115107469Y-68424074D01*
X114830286Y-68534921D01*
X114676911Y-68845840D01*
X114587140Y-69180705D01*
X114564424Y-69526650D01*
X110726004Y-69526650D01*
X110733576Y-69411350D01*
X110688366Y-69067620D01*
X110576966Y-68739315D01*
X110467714Y-68534921D01*
X110190531Y-68424074D01*
X109145605Y-69469000D01*
X108786395Y-69469000D01*
X107741469Y-68424074D01*
X107464286Y-68534921D01*
X107310911Y-68845840D01*
X107221140Y-69180705D01*
X107198424Y-69526650D01*
X107186000Y-69526650D01*
X107186000Y-68648711D01*
X107229937Y-68604774D01*
X107343205Y-68435256D01*
X107421226Y-68246898D01*
X107421709Y-68244469D01*
X107921074Y-68244469D01*
X108966000Y-69289395D01*
X110010926Y-68244469D01*
X115287074Y-68244469D01*
X116332000Y-69289395D01*
X117376926Y-68244469D01*
X117266079Y-67967286D01*
X116955160Y-67813911D01*
X116620295Y-67724140D01*
X116274350Y-67701424D01*
X115930620Y-67746634D01*
X115602315Y-67858034D01*
X115397921Y-67967286D01*
X115287074Y-68244469D01*
X110010926Y-68244469D01*
X109900079Y-67967286D01*
X109589160Y-67813911D01*
X109254295Y-67724140D01*
X108908350Y-67701424D01*
X108564620Y-67746634D01*
X108236315Y-67858034D01*
X108031921Y-67967286D01*
X107921074Y-68244469D01*
X107421709Y-68244469D01*
X107461000Y-68046939D01*
X107461000Y-67843061D01*
X107421226Y-67643102D01*
X107343205Y-67454744D01*
X107229937Y-67285226D01*
X107085774Y-67141063D01*
X106916256Y-67027795D01*
X106727898Y-66949774D01*
X106527939Y-66910000D01*
X106324061Y-66910000D01*
X106124102Y-66949774D01*
X105935744Y-67027795D01*
X105766226Y-67141063D01*
X105622063Y-67285226D01*
X105508795Y-67454744D01*
X105430774Y-67643102D01*
X105391000Y-67843061D01*
X105391000Y-68046939D01*
X105430774Y-68246898D01*
X105508795Y-68435256D01*
X105622063Y-68604774D01*
X105666000Y-68648711D01*
X105666001Y-70527031D01*
X105639695Y-70537927D01*
X105367812Y-70719594D01*
X105136594Y-70950812D01*
X104954927Y-71222695D01*
X104829793Y-71524796D01*
X104766000Y-71845504D01*
X95640000Y-71845504D01*
X95576207Y-71524796D01*
X95451073Y-71222695D01*
X95269406Y-70950812D01*
X95038188Y-70719594D01*
X94999183Y-70693531D01*
X95475074Y-70693531D01*
X95585921Y-70970714D01*
X95896840Y-71124089D01*
X96231705Y-71213860D01*
X96577650Y-71236576D01*
X96921380Y-71191366D01*
X97249685Y-71079966D01*
X97454079Y-70970714D01*
X97564926Y-70693531D01*
X102841074Y-70693531D01*
X102951921Y-70970714D01*
X103262840Y-71124089D01*
X103597705Y-71213860D01*
X103943650Y-71236576D01*
X104287380Y-71191366D01*
X104615685Y-71079966D01*
X104820079Y-70970714D01*
X104930926Y-70693531D01*
X103886000Y-69648605D01*
X102841074Y-70693531D01*
X97564926Y-70693531D01*
X96520000Y-69648605D01*
X95475074Y-70693531D01*
X94999183Y-70693531D01*
X94766305Y-70537927D01*
X94740000Y-70527031D01*
X94740000Y-69526650D01*
X94752424Y-69526650D01*
X94797634Y-69870380D01*
X94909034Y-70198685D01*
X95018286Y-70403079D01*
X95295469Y-70513926D01*
X96340395Y-69469000D01*
X96699605Y-69469000D01*
X97744531Y-70513926D01*
X98021714Y-70403079D01*
X98175089Y-70092160D01*
X98264860Y-69757295D01*
X98280004Y-69526650D01*
X102118424Y-69526650D01*
X102163634Y-69870380D01*
X102275034Y-70198685D01*
X102384286Y-70403079D01*
X102661469Y-70513926D01*
X103706395Y-69469000D01*
X104065605Y-69469000D01*
X105110531Y-70513926D01*
X105387714Y-70403079D01*
X105541089Y-70092160D01*
X105630860Y-69757295D01*
X105653576Y-69411350D01*
X105608366Y-69067620D01*
X105496966Y-68739315D01*
X105387714Y-68534921D01*
X105110531Y-68424074D01*
X104065605Y-69469000D01*
X103706395Y-69469000D01*
X102661469Y-68424074D01*
X102384286Y-68534921D01*
X102230911Y-68845840D01*
X102141140Y-69180705D01*
X102118424Y-69526650D01*
X98280004Y-69526650D01*
X98287576Y-69411350D01*
X98242366Y-69067620D01*
X98130966Y-68739315D01*
X98021714Y-68534921D01*
X97744531Y-68424074D01*
X96699605Y-69469000D01*
X96340395Y-69469000D01*
X95295469Y-68424074D01*
X95018286Y-68534921D01*
X94864911Y-68845840D01*
X94775140Y-69180705D01*
X94752424Y-69526650D01*
X94740000Y-69526650D01*
X94740000Y-68648711D01*
X94783937Y-68604774D01*
X94897205Y-68435256D01*
X94975226Y-68246898D01*
X94975709Y-68244469D01*
X95475074Y-68244469D01*
X96520000Y-69289395D01*
X97564926Y-68244469D01*
X102841074Y-68244469D01*
X103886000Y-69289395D01*
X104930926Y-68244469D01*
X104820079Y-67967286D01*
X104509160Y-67813911D01*
X104174295Y-67724140D01*
X103828350Y-67701424D01*
X103484620Y-67746634D01*
X103156315Y-67858034D01*
X102951921Y-67967286D01*
X102841074Y-68244469D01*
X97564926Y-68244469D01*
X97454079Y-67967286D01*
X97143160Y-67813911D01*
X96808295Y-67724140D01*
X96462350Y-67701424D01*
X96118620Y-67746634D01*
X95790315Y-67858034D01*
X95585921Y-67967286D01*
X95475074Y-68244469D01*
X94975709Y-68244469D01*
X95015000Y-68046939D01*
X95015000Y-67843061D01*
X94975226Y-67643102D01*
X94897205Y-67454744D01*
X94783937Y-67285226D01*
X94639774Y-67141063D01*
X94470256Y-67027795D01*
X94281898Y-66949774D01*
X94081939Y-66910000D01*
X93878061Y-66910000D01*
X93678102Y-66949774D01*
X93489744Y-67027795D01*
X93320226Y-67141063D01*
X93176063Y-67285226D01*
X93062795Y-67454744D01*
X92984774Y-67643102D01*
X92945000Y-67843061D01*
X92945000Y-68046939D01*
X92984774Y-68246898D01*
X93062795Y-68435256D01*
X93176063Y-68604774D01*
X93220000Y-68648711D01*
X93220001Y-70527031D01*
X93193695Y-70537927D01*
X92921812Y-70719594D01*
X92690594Y-70950812D01*
X92508927Y-71222695D01*
X92383793Y-71524796D01*
X92320000Y-71845504D01*
X80126650Y-71845504D01*
X80118599Y-71818966D01*
X79980706Y-71560986D01*
X79795134Y-71334866D01*
X79569014Y-71149294D01*
X79504477Y-71114799D01*
X79621355Y-71045178D01*
X79837588Y-70850269D01*
X79954497Y-70693531D01*
X90395074Y-70693531D01*
X90505921Y-70970714D01*
X90816840Y-71124089D01*
X91151705Y-71213860D01*
X91497650Y-71236576D01*
X91841380Y-71191366D01*
X92169685Y-71079966D01*
X92374079Y-70970714D01*
X92484926Y-70693531D01*
X91440000Y-69648605D01*
X90395074Y-70693531D01*
X79954497Y-70693531D01*
X80011641Y-70616920D01*
X80136825Y-70354099D01*
X80181476Y-70206890D01*
X80060155Y-69977000D01*
X78867000Y-69977000D01*
X78867000Y-69997000D01*
X78613000Y-69997000D01*
X78613000Y-69977000D01*
X77419845Y-69977000D01*
X77298524Y-70206890D01*
X77343175Y-70354099D01*
X77468359Y-70616920D01*
X77642412Y-70850269D01*
X77858645Y-71045178D01*
X77975523Y-71114799D01*
X77910986Y-71149294D01*
X77684866Y-71334866D01*
X77499294Y-71560986D01*
X77361401Y-71818966D01*
X77276487Y-72098889D01*
X77247815Y-72390000D01*
X76885000Y-72390000D01*
X76885000Y-56565000D01*
X88791198Y-56565000D01*
X86426199Y-58930000D01*
X86426199Y-58930000D01*
G37*
X86426199Y-58930000D02*
X80228072Y-58930000D01*
X80228072Y-58840000D01*
X80215812Y-58715518D01*
X80179502Y-58595820D01*
X80120537Y-58485506D01*
X80041185Y-58388815D01*
X79944494Y-58309463D01*
X79834180Y-58250498D01*
X79714482Y-58214188D01*
X79590000Y-58201928D01*
X77890000Y-58201928D01*
X77765518Y-58214188D01*
X77645820Y-58250498D01*
X77535506Y-58309463D01*
X77438815Y-58388815D01*
X77359463Y-58485506D01*
X77300498Y-58595820D01*
X77264188Y-58715518D01*
X77251928Y-58840000D01*
X77251928Y-60540000D01*
X77264188Y-60664482D01*
X77300498Y-60784180D01*
X77359463Y-60894494D01*
X77438815Y-60991185D01*
X77535506Y-61070537D01*
X77645820Y-61129502D01*
X77714687Y-61150393D01*
X77684866Y-61174866D01*
X77499294Y-61400986D01*
X77361401Y-61658966D01*
X77276487Y-61938889D01*
X77247815Y-62230000D01*
X77276487Y-62521111D01*
X77361401Y-62801034D01*
X77499294Y-63059014D01*
X77684866Y-63285134D01*
X77910986Y-63470706D01*
X77965791Y-63500000D01*
X77910986Y-63529294D01*
X77684866Y-63714866D01*
X77499294Y-63940986D01*
X77361401Y-64198966D01*
X77276487Y-64478889D01*
X77247815Y-64770000D01*
X77276487Y-65061111D01*
X77361401Y-65341034D01*
X77499294Y-65599014D01*
X77684866Y-65825134D01*
X77910986Y-66010706D01*
X77965791Y-66040000D01*
X77910986Y-66069294D01*
X77684866Y-66254866D01*
X77499294Y-66480986D01*
X77361401Y-66738966D01*
X77276487Y-67018889D01*
X77247815Y-67310000D01*
X77276487Y-67601111D01*
X77361401Y-67881034D01*
X77499294Y-68139014D01*
X77684866Y-68365134D01*
X77910986Y-68550706D01*
X77975523Y-68585201D01*
X77858645Y-68654822D01*
X77642412Y-68849731D01*
X77468359Y-69083080D01*
X77343175Y-69345901D01*
X77298524Y-69493110D01*
X77419845Y-69723000D01*
X78613000Y-69723000D01*
X78613000Y-69703000D01*
X78867000Y-69703000D01*
X78867000Y-69723000D01*
X80060155Y-69723000D01*
X80163775Y-69526650D01*
X89672424Y-69526650D01*
X89717634Y-69870380D01*
X89829034Y-70198685D01*
X89938286Y-70403079D01*
X90215469Y-70513926D01*
X91260395Y-69469000D01*
X91619605Y-69469000D01*
X92664531Y-70513926D01*
X92941714Y-70403079D01*
X93095089Y-70092160D01*
X93184860Y-69757295D01*
X93207576Y-69411350D01*
X93162366Y-69067620D01*
X93050966Y-68739315D01*
X92941714Y-68534921D01*
X92664531Y-68424074D01*
X91619605Y-69469000D01*
X91260395Y-69469000D01*
X90215469Y-68424074D01*
X89938286Y-68534921D01*
X89784911Y-68845840D01*
X89695140Y-69180705D01*
X89672424Y-69526650D01*
X80163775Y-69526650D01*
X80181476Y-69493110D01*
X80136825Y-69345901D01*
X80011641Y-69083080D01*
X79837588Y-68849731D01*
X79621355Y-68654822D01*
X79504477Y-68585201D01*
X79569014Y-68550706D01*
X79795134Y-68365134D01*
X79894161Y-68244469D01*
X90395074Y-68244469D01*
X91440000Y-69289395D01*
X92484926Y-68244469D01*
X92374079Y-67967286D01*
X92063160Y-67813911D01*
X91728295Y-67724140D01*
X91382350Y-67701424D01*
X91038620Y-67746634D01*
X90710315Y-67858034D01*
X90505921Y-67967286D01*
X90395074Y-68244469D01*
X79894161Y-68244469D01*
X79980706Y-68139014D01*
X80017595Y-68070000D01*
X80992908Y-68070000D01*
X81030230Y-68073676D01*
X81067552Y-68070000D01*
X81067563Y-68070000D01*
X81179216Y-68059003D01*
X81322477Y-68015546D01*
X81454506Y-67944974D01*
X81570231Y-67850001D01*
X81594034Y-67820997D01*
X83411178Y-66003853D01*
X139609149Y-66003853D01*
X139681931Y-66815118D01*
X139911585Y-67596597D01*
X140289285Y-68318256D01*
X140329450Y-68378366D01*
X140849845Y-68774550D01*
X143584395Y-66040000D01*
X140849845Y-63305450D01*
X140329450Y-63701634D01*
X139939252Y-64416612D01*
X139696036Y-65193976D01*
X139609149Y-66003853D01*
X83411178Y-66003853D01*
X86289186Y-63125845D01*
X141029450Y-63125845D01*
X143764000Y-65860395D01*
X146498550Y-63125845D01*
X146102366Y-62605450D01*
X145387388Y-62215252D01*
X144610024Y-61972036D01*
X143800147Y-61885149D01*
X142988882Y-61957931D01*
X142207403Y-62187585D01*
X141485744Y-62565285D01*
X141425634Y-62605450D01*
X141029450Y-63125845D01*
X86289186Y-63125845D01*
X90478012Y-58937020D01*
X94338624Y-58937020D01*
X94332795Y-58945744D01*
X94254774Y-59134102D01*
X94215000Y-59334061D01*
X94215000Y-59537939D01*
X94254774Y-59737898D01*
X94332795Y-59926256D01*
X94446063Y-60095774D01*
X94490000Y-60139711D01*
X94490001Y-60637288D01*
X94446063Y-60681226D01*
X94332795Y-60850744D01*
X94254774Y-61039102D01*
X94215000Y-61239061D01*
X94215000Y-61442939D01*
X94254774Y-61642898D01*
X94332795Y-61831256D01*
X94446063Y-62000774D01*
X94590226Y-62144937D01*
X94759744Y-62258205D01*
X94948102Y-62336226D01*
X95148061Y-62376000D01*
X95351939Y-62376000D01*
X95551898Y-62336226D01*
X95740256Y-62258205D01*
X95909774Y-62144937D01*
X96053937Y-62000774D01*
X96167205Y-61831256D01*
X96245226Y-61642898D01*
X96285000Y-61442939D01*
X96285000Y-61239061D01*
X96245226Y-61039102D01*
X96167205Y-60850744D01*
X96053937Y-60681226D01*
X96010000Y-60637289D01*
X96010000Y-60139711D01*
X96053937Y-60095774D01*
X96167205Y-59926256D01*
X96245226Y-59737898D01*
X96285000Y-59537939D01*
X96285000Y-59334061D01*
X96245226Y-59134102D01*
X96167205Y-58945744D01*
X96161376Y-58937020D01*
X106784624Y-58937020D01*
X106778795Y-58945744D01*
X106700774Y-59134102D01*
X106661000Y-59334061D01*
X106661000Y-59537939D01*
X106700774Y-59737898D01*
X106778795Y-59926256D01*
X106892063Y-60095774D01*
X106936001Y-60139712D01*
X106936000Y-60637289D01*
X106892063Y-60681226D01*
X106778795Y-60850744D01*
X106700774Y-61039102D01*
X106661000Y-61239061D01*
X106661000Y-61442939D01*
X106700774Y-61642898D01*
X106778795Y-61831256D01*
X106892063Y-62000774D01*
X107036226Y-62144937D01*
X107205744Y-62258205D01*
X107394102Y-62336226D01*
X107594061Y-62376000D01*
X107797939Y-62376000D01*
X107997898Y-62336226D01*
X108186256Y-62258205D01*
X108355774Y-62144937D01*
X108499937Y-62000774D01*
X108613205Y-61831256D01*
X108691226Y-61642898D01*
X108731000Y-61442939D01*
X108731000Y-61239061D01*
X108691226Y-61039102D01*
X108613205Y-60850744D01*
X108499937Y-60681226D01*
X108456000Y-60637289D01*
X108456000Y-60139711D01*
X108499937Y-60095774D01*
X108613205Y-59926256D01*
X108691226Y-59737898D01*
X108731000Y-59537939D01*
X108731000Y-59334061D01*
X108691226Y-59134102D01*
X108613205Y-58945744D01*
X108607376Y-58937020D01*
X119230624Y-58937020D01*
X119224795Y-58945744D01*
X119146774Y-59134102D01*
X119107000Y-59334061D01*
X119107000Y-59537939D01*
X119146774Y-59737898D01*
X119224795Y-59926256D01*
X119338063Y-60095774D01*
X119382000Y-60139711D01*
X119382001Y-60637288D01*
X119338063Y-60681226D01*
X119224795Y-60850744D01*
X119146774Y-61039102D01*
X119107000Y-61239061D01*
X119107000Y-61442939D01*
X119146774Y-61642898D01*
X119224795Y-61831256D01*
X119338063Y-62000774D01*
X119482226Y-62144937D01*
X119651744Y-62258205D01*
X119840102Y-62336226D01*
X120040061Y-62376000D01*
X120243939Y-62376000D01*
X120443898Y-62336226D01*
X120632256Y-62258205D01*
X120801774Y-62144937D01*
X120945937Y-62000774D01*
X121059205Y-61831256D01*
X121137226Y-61642898D01*
X121177000Y-61442939D01*
X121177000Y-61239061D01*
X121137226Y-61039102D01*
X121059205Y-60850744D01*
X120945937Y-60681226D01*
X120902000Y-60637289D01*
X120902000Y-60139711D01*
X120945937Y-60095774D01*
X121059205Y-59926256D01*
X121137226Y-59737898D01*
X121177000Y-59537939D01*
X121177000Y-59334061D01*
X121137226Y-59134102D01*
X121059205Y-58945744D01*
X121053376Y-58937020D01*
X131607973Y-58937020D01*
X131645295Y-58940696D01*
X131676202Y-58937652D01*
X131670795Y-58945744D01*
X131592774Y-59134102D01*
X131553000Y-59334061D01*
X131553000Y-59537939D01*
X131592774Y-59737898D01*
X131670795Y-59926256D01*
X131784063Y-60095774D01*
X131828000Y-60139711D01*
X131828001Y-60637288D01*
X131784063Y-60681226D01*
X131670795Y-60850744D01*
X131592774Y-61039102D01*
X131553000Y-61239061D01*
X131553000Y-61442939D01*
X131592774Y-61642898D01*
X131670795Y-61831256D01*
X131784063Y-62000774D01*
X131928226Y-62144937D01*
X132097744Y-62258205D01*
X132286102Y-62336226D01*
X132486061Y-62376000D01*
X132689939Y-62376000D01*
X132889898Y-62336226D01*
X133078256Y-62258205D01*
X133247774Y-62144937D01*
X133391937Y-62000774D01*
X133505205Y-61831256D01*
X133583226Y-61642898D01*
X133623000Y-61442939D01*
X133623000Y-61239061D01*
X133583226Y-61039102D01*
X133505205Y-60850744D01*
X133391937Y-60681226D01*
X133348000Y-60637289D01*
X133348000Y-60139711D01*
X133391937Y-60095774D01*
X133505205Y-59926256D01*
X133583226Y-59737898D01*
X133623000Y-59537939D01*
X133623000Y-59334061D01*
X133583226Y-59134102D01*
X133505205Y-58945744D01*
X133391937Y-58776226D01*
X133247774Y-58632063D01*
X133078256Y-58518795D01*
X132889898Y-58440774D01*
X132689939Y-58401000D01*
X132496116Y-58401000D01*
X133425845Y-57471271D01*
X133556102Y-57525226D01*
X133756061Y-57565000D01*
X133959939Y-57565000D01*
X134159898Y-57525226D01*
X134348256Y-57447205D01*
X134517774Y-57333937D01*
X134661937Y-57189774D01*
X134775205Y-57020256D01*
X134853226Y-56831898D01*
X134893000Y-56631939D01*
X134893000Y-56565000D01*
X147270000Y-56565000D01*
X147270000Y-63821520D01*
X147238715Y-63761744D01*
X147198550Y-63701634D01*
X146678155Y-63305450D01*
X143943605Y-66040000D01*
X146678155Y-68774550D01*
X147198550Y-68378366D01*
X147270001Y-68247444D01*
X147270001Y-75515000D01*
X135279893Y-75515000D01*
X135359714Y-75483079D01*
X135513089Y-75172160D01*
X135602860Y-74837295D01*
X135625576Y-74491350D01*
X135580366Y-74147620D01*
X135468966Y-73819315D01*
X135359714Y-73614921D01*
X135082531Y-73504074D01*
X134037605Y-74549000D01*
X134051748Y-74563143D01*
X133872143Y-74742748D01*
X133858000Y-74728605D01*
X133843858Y-74742748D01*
X133664253Y-74563143D01*
X133678395Y-74549000D01*
X132633469Y-73504074D01*
X132356286Y-73614921D01*
X132202911Y-73925840D01*
X132113140Y-74260705D01*
X132090424Y-74606650D01*
X132135634Y-74950380D01*
X132247034Y-75278685D01*
X132356286Y-75483079D01*
X132436107Y-75515000D01*
X130199893Y-75515000D01*
X130279714Y-75483079D01*
X130433089Y-75172160D01*
X130522860Y-74837295D01*
X130545576Y-74491350D01*
X130500366Y-74147620D01*
X130388966Y-73819315D01*
X130279714Y-73614921D01*
X130002531Y-73504074D01*
X128957605Y-74549000D01*
X128971748Y-74563143D01*
X128792143Y-74742748D01*
X128778000Y-74728605D01*
X128763858Y-74742748D01*
X128584253Y-74563143D01*
X128598395Y-74549000D01*
X127553469Y-73504074D01*
X127276286Y-73614921D01*
X127122911Y-73925840D01*
X127033140Y-74260705D01*
X127010424Y-74606650D01*
X127055634Y-74950380D01*
X127167034Y-75278685D01*
X127276286Y-75483079D01*
X127356107Y-75515000D01*
X122833893Y-75515000D01*
X122913714Y-75483079D01*
X123067089Y-75172160D01*
X123156860Y-74837295D01*
X123179576Y-74491350D01*
X123134366Y-74147620D01*
X123022966Y-73819315D01*
X122913714Y-73614921D01*
X122636531Y-73504074D01*
X121591605Y-74549000D01*
X121605748Y-74563143D01*
X121426143Y-74742748D01*
X121412000Y-74728605D01*
X121397858Y-74742748D01*
X121218253Y-74563143D01*
X121232395Y-74549000D01*
X120187469Y-73504074D01*
X119910286Y-73614921D01*
X119756911Y-73925840D01*
X119667140Y-74260705D01*
X119644424Y-74606650D01*
X119689634Y-74950380D01*
X119801034Y-75278685D01*
X119910286Y-75483079D01*
X119990107Y-75515000D01*
X117753893Y-75515000D01*
X117833714Y-75483079D01*
X117987089Y-75172160D01*
X118076860Y-74837295D01*
X118099576Y-74491350D01*
X118054366Y-74147620D01*
X117942966Y-73819315D01*
X117833714Y-73614921D01*
X117556531Y-73504074D01*
X116511605Y-74549000D01*
X116525748Y-74563143D01*
X116346143Y-74742748D01*
X116332000Y-74728605D01*
X116317858Y-74742748D01*
X116138253Y-74563143D01*
X116152395Y-74549000D01*
X115107469Y-73504074D01*
X114830286Y-73614921D01*
X114676911Y-73925840D01*
X114587140Y-74260705D01*
X114564424Y-74606650D01*
X114609634Y-74950380D01*
X114721034Y-75278685D01*
X114830286Y-75483079D01*
X114910107Y-75515000D01*
X110387893Y-75515000D01*
X110467714Y-75483079D01*
X110621089Y-75172160D01*
X110710860Y-74837295D01*
X110733576Y-74491350D01*
X110688366Y-74147620D01*
X110576966Y-73819315D01*
X110467714Y-73614921D01*
X110190531Y-73504074D01*
X109145605Y-74549000D01*
X109159748Y-74563143D01*
X108980143Y-74742748D01*
X108966000Y-74728605D01*
X108951858Y-74742748D01*
X108772253Y-74563143D01*
X108786395Y-74549000D01*
X107741469Y-73504074D01*
X107464286Y-73614921D01*
X107310911Y-73925840D01*
X107221140Y-74260705D01*
X107198424Y-74606650D01*
X107243634Y-74950380D01*
X107355034Y-75278685D01*
X107464286Y-75483079D01*
X107544107Y-75515000D01*
X105307893Y-75515000D01*
X105387714Y-75483079D01*
X105541089Y-75172160D01*
X105630860Y-74837295D01*
X105653576Y-74491350D01*
X105608366Y-74147620D01*
X105496966Y-73819315D01*
X105387714Y-73614921D01*
X105110531Y-73504074D01*
X104065605Y-74549000D01*
X104079748Y-74563143D01*
X103900143Y-74742748D01*
X103886000Y-74728605D01*
X103871858Y-74742748D01*
X103692253Y-74563143D01*
X103706395Y-74549000D01*
X102661469Y-73504074D01*
X102384286Y-73614921D01*
X102230911Y-73925840D01*
X102141140Y-74260705D01*
X102118424Y-74606650D01*
X102163634Y-74950380D01*
X102275034Y-75278685D01*
X102384286Y-75483079D01*
X102464107Y-75515000D01*
X97941893Y-75515000D01*
X98021714Y-75483079D01*
X98175089Y-75172160D01*
X98264860Y-74837295D01*
X98287576Y-74491350D01*
X98242366Y-74147620D01*
X98130966Y-73819315D01*
X98021714Y-73614921D01*
X97744531Y-73504074D01*
X96699605Y-74549000D01*
X96713748Y-74563143D01*
X96534143Y-74742748D01*
X96520000Y-74728605D01*
X96505858Y-74742748D01*
X96326253Y-74563143D01*
X96340395Y-74549000D01*
X95295469Y-73504074D01*
X95018286Y-73614921D01*
X94864911Y-73925840D01*
X94775140Y-74260705D01*
X94752424Y-74606650D01*
X94797634Y-74950380D01*
X94909034Y-75278685D01*
X95018286Y-75483079D01*
X95098107Y-75515000D01*
X92861893Y-75515000D01*
X92941714Y-75483079D01*
X93095089Y-75172160D01*
X93184860Y-74837295D01*
X93207576Y-74491350D01*
X93162366Y-74147620D01*
X93050966Y-73819315D01*
X92941714Y-73614921D01*
X92664531Y-73504074D01*
X91619605Y-74549000D01*
X91633748Y-74563143D01*
X91454143Y-74742748D01*
X91440000Y-74728605D01*
X91425858Y-74742748D01*
X91246253Y-74563143D01*
X91260395Y-74549000D01*
X90215469Y-73504074D01*
X89938286Y-73614921D01*
X89784911Y-73925840D01*
X89695140Y-74260705D01*
X89672424Y-74606650D01*
X89717634Y-74950380D01*
X89829034Y-75278685D01*
X89938286Y-75483079D01*
X90018107Y-75515000D01*
X76885000Y-75515000D01*
X76885000Y-72390000D01*
X77247815Y-72390000D01*
X77276487Y-72681111D01*
X77361401Y-72961034D01*
X77499294Y-73219014D01*
X77684866Y-73445134D01*
X77910986Y-73630706D01*
X78168966Y-73768599D01*
X78448889Y-73853513D01*
X78667050Y-73875000D01*
X78812950Y-73875000D01*
X79031111Y-73853513D01*
X79311034Y-73768599D01*
X79569014Y-73630706D01*
X79795134Y-73445134D01*
X79894161Y-73324469D01*
X90395074Y-73324469D01*
X91440000Y-74369395D01*
X92484926Y-73324469D01*
X92374079Y-73047286D01*
X92063160Y-72893911D01*
X91728295Y-72804140D01*
X91382350Y-72781424D01*
X91038620Y-72826634D01*
X90710315Y-72938034D01*
X90505921Y-73047286D01*
X90395074Y-73324469D01*
X79894161Y-73324469D01*
X79980706Y-73219014D01*
X80118599Y-72961034D01*
X80203513Y-72681111D01*
X80232185Y-72390000D01*
X80203513Y-72098889D01*
X80126650Y-71845504D01*
X92320000Y-71845504D01*
X92320000Y-72172496D01*
X92383793Y-72493204D01*
X92508927Y-72795305D01*
X92690594Y-73067188D01*
X92921812Y-73298406D01*
X93193695Y-73480073D01*
X93495796Y-73605207D01*
X93816504Y-73669000D01*
X94143496Y-73669000D01*
X94464204Y-73605207D01*
X94766305Y-73480073D01*
X94999182Y-73324469D01*
X95475074Y-73324469D01*
X96520000Y-74369395D01*
X97564926Y-73324469D01*
X102841074Y-73324469D01*
X103886000Y-74369395D01*
X104930926Y-73324469D01*
X104820079Y-73047286D01*
X104509160Y-72893911D01*
X104174295Y-72804140D01*
X103828350Y-72781424D01*
X103484620Y-72826634D01*
X103156315Y-72938034D01*
X102951921Y-73047286D01*
X102841074Y-73324469D01*
X97564926Y-73324469D01*
X97454079Y-73047286D01*
X97143160Y-72893911D01*
X96808295Y-72804140D01*
X96462350Y-72781424D01*
X96118620Y-72826634D01*
X95790315Y-72938034D01*
X95585921Y-73047286D01*
X95475074Y-73324469D01*
X94999182Y-73324469D01*
X95038188Y-73298406D01*
X95269406Y-73067188D01*
X95451073Y-72795305D01*
X95576207Y-72493204D01*
X95640000Y-72172496D01*
X95640000Y-71845504D01*
X104766000Y-71845504D01*
X104766000Y-72172496D01*
X104829793Y-72493204D01*
X104954927Y-72795305D01*
X105136594Y-73067188D01*
X105367812Y-73298406D01*
X105639695Y-73480073D01*
X105941796Y-73605207D01*
X106262504Y-73669000D01*
X106589496Y-73669000D01*
X106910204Y-73605207D01*
X107212305Y-73480073D01*
X107445182Y-73324469D01*
X107921074Y-73324469D01*
X108966000Y-74369395D01*
X110010926Y-73324469D01*
X115287074Y-73324469D01*
X116332000Y-74369395D01*
X117376926Y-73324469D01*
X117266079Y-73047286D01*
X116955160Y-72893911D01*
X116620295Y-72804140D01*
X116274350Y-72781424D01*
X115930620Y-72826634D01*
X115602315Y-72938034D01*
X115397921Y-73047286D01*
X115287074Y-73324469D01*
X110010926Y-73324469D01*
X109900079Y-73047286D01*
X109589160Y-72893911D01*
X109254295Y-72804140D01*
X108908350Y-72781424D01*
X108564620Y-72826634D01*
X108236315Y-72938034D01*
X108031921Y-73047286D01*
X107921074Y-73324469D01*
X107445182Y-73324469D01*
X107484188Y-73298406D01*
X107715406Y-73067188D01*
X107897073Y-72795305D01*
X108022207Y-72493204D01*
X108086000Y-72172496D01*
X108086000Y-71845504D01*
X117212000Y-71845504D01*
X117212000Y-72172496D01*
X117275793Y-72493204D01*
X117400927Y-72795305D01*
X117582594Y-73067188D01*
X117813812Y-73298406D01*
X118085695Y-73480073D01*
X118387796Y-73605207D01*
X118708504Y-73669000D01*
X119035496Y-73669000D01*
X119356204Y-73605207D01*
X119658305Y-73480073D01*
X119891182Y-73324469D01*
X120367074Y-73324469D01*
X121412000Y-74369395D01*
X122456926Y-73324469D01*
X127733074Y-73324469D01*
X128778000Y-74369395D01*
X129822926Y-73324469D01*
X129712079Y-73047286D01*
X129401160Y-72893911D01*
X129066295Y-72804140D01*
X128720350Y-72781424D01*
X128376620Y-72826634D01*
X128048315Y-72938034D01*
X127843921Y-73047286D01*
X127733074Y-73324469D01*
X122456926Y-73324469D01*
X122346079Y-73047286D01*
X122035160Y-72893911D01*
X121700295Y-72804140D01*
X121354350Y-72781424D01*
X121010620Y-72826634D01*
X120682315Y-72938034D01*
X120477921Y-73047286D01*
X120367074Y-73324469D01*
X119891182Y-73324469D01*
X119930188Y-73298406D01*
X120161406Y-73067188D01*
X120343073Y-72795305D01*
X120468207Y-72493204D01*
X120532000Y-72172496D01*
X120532000Y-71845504D01*
X129658000Y-71845504D01*
X129658000Y-72172496D01*
X129721793Y-72493204D01*
X129846927Y-72795305D01*
X130028594Y-73067188D01*
X130259812Y-73298406D01*
X130531695Y-73480073D01*
X130833796Y-73605207D01*
X131154504Y-73669000D01*
X131481496Y-73669000D01*
X131802204Y-73605207D01*
X132104305Y-73480073D01*
X132337182Y-73324469D01*
X132813074Y-73324469D01*
X133858000Y-74369395D01*
X134902926Y-73324469D01*
X134792079Y-73047286D01*
X134481160Y-72893911D01*
X134146295Y-72804140D01*
X133800350Y-72781424D01*
X133456620Y-72826634D01*
X133128315Y-72938034D01*
X132923921Y-73047286D01*
X132813074Y-73324469D01*
X132337182Y-73324469D01*
X132376188Y-73298406D01*
X132607406Y-73067188D01*
X132789073Y-72795305D01*
X132914207Y-72493204D01*
X132978000Y-72172496D01*
X132978000Y-71845504D01*
X132914207Y-71524796D01*
X132789073Y-71222695D01*
X132607406Y-70950812D01*
X132376188Y-70719594D01*
X132337183Y-70693531D01*
X132813074Y-70693531D01*
X132923921Y-70970714D01*
X133234840Y-71124089D01*
X133569705Y-71213860D01*
X133915650Y-71236576D01*
X134259380Y-71191366D01*
X134587685Y-71079966D01*
X134792079Y-70970714D01*
X134902926Y-70693531D01*
X133858000Y-69648605D01*
X132813074Y-70693531D01*
X132337183Y-70693531D01*
X132104305Y-70537927D01*
X132078000Y-70527031D01*
X132078000Y-69526650D01*
X132090424Y-69526650D01*
X132135634Y-69870380D01*
X132247034Y-70198685D01*
X132356286Y-70403079D01*
X132633469Y-70513926D01*
X133678395Y-69469000D01*
X134037605Y-69469000D01*
X135082531Y-70513926D01*
X135359714Y-70403079D01*
X135513089Y-70092160D01*
X135602860Y-69757295D01*
X135625576Y-69411350D01*
X135580366Y-69067620D01*
X135541866Y-68954155D01*
X141029450Y-68954155D01*
X141425634Y-69474550D01*
X142140612Y-69864748D01*
X142917976Y-70107964D01*
X143727853Y-70194851D01*
X144539118Y-70122069D01*
X145320597Y-69892415D01*
X146042256Y-69514715D01*
X146102366Y-69474550D01*
X146498550Y-68954155D01*
X143764000Y-66219605D01*
X141029450Y-68954155D01*
X135541866Y-68954155D01*
X135468966Y-68739315D01*
X135359714Y-68534921D01*
X135082531Y-68424074D01*
X134037605Y-69469000D01*
X133678395Y-69469000D01*
X132633469Y-68424074D01*
X132356286Y-68534921D01*
X132202911Y-68845840D01*
X132113140Y-69180705D01*
X132090424Y-69526650D01*
X132078000Y-69526650D01*
X132078000Y-68648711D01*
X132121937Y-68604774D01*
X132235205Y-68435256D01*
X132313226Y-68246898D01*
X132313709Y-68244469D01*
X132813074Y-68244469D01*
X133858000Y-69289395D01*
X134902926Y-68244469D01*
X134792079Y-67967286D01*
X134481160Y-67813911D01*
X134146295Y-67724140D01*
X133800350Y-67701424D01*
X133456620Y-67746634D01*
X133128315Y-67858034D01*
X132923921Y-67967286D01*
X132813074Y-68244469D01*
X132313709Y-68244469D01*
X132353000Y-68046939D01*
X132353000Y-67843061D01*
X132313226Y-67643102D01*
X132235205Y-67454744D01*
X132121937Y-67285226D01*
X131977774Y-67141063D01*
X131808256Y-67027795D01*
X131619898Y-66949774D01*
X131419939Y-66910000D01*
X131216061Y-66910000D01*
X131016102Y-66949774D01*
X130827744Y-67027795D01*
X130658226Y-67141063D01*
X130514063Y-67285226D01*
X130400795Y-67454744D01*
X130322774Y-67643102D01*
X130283000Y-67843061D01*
X130283000Y-68046939D01*
X130322774Y-68246898D01*
X130400795Y-68435256D01*
X130514063Y-68604774D01*
X130558000Y-68648711D01*
X130558001Y-70527031D01*
X130531695Y-70537927D01*
X130259812Y-70719594D01*
X130028594Y-70950812D01*
X129846927Y-71222695D01*
X129721793Y-71524796D01*
X129658000Y-71845504D01*
X120532000Y-71845504D01*
X120468207Y-71524796D01*
X120343073Y-71222695D01*
X120161406Y-70950812D01*
X119930188Y-70719594D01*
X119891183Y-70693531D01*
X120367074Y-70693531D01*
X120477921Y-70970714D01*
X120788840Y-71124089D01*
X121123705Y-71213860D01*
X121469650Y-71236576D01*
X121813380Y-71191366D01*
X122141685Y-71079966D01*
X122346079Y-70970714D01*
X122456926Y-70693531D01*
X127733074Y-70693531D01*
X127843921Y-70970714D01*
X128154840Y-71124089D01*
X128489705Y-71213860D01*
X128835650Y-71236576D01*
X129179380Y-71191366D01*
X129507685Y-71079966D01*
X129712079Y-70970714D01*
X129822926Y-70693531D01*
X128778000Y-69648605D01*
X127733074Y-70693531D01*
X122456926Y-70693531D01*
X121412000Y-69648605D01*
X120367074Y-70693531D01*
X119891183Y-70693531D01*
X119658305Y-70537927D01*
X119632000Y-70527031D01*
X119632000Y-69526650D01*
X119644424Y-69526650D01*
X119689634Y-69870380D01*
X119801034Y-70198685D01*
X119910286Y-70403079D01*
X120187469Y-70513926D01*
X121232395Y-69469000D01*
X121591605Y-69469000D01*
X122636531Y-70513926D01*
X122913714Y-70403079D01*
X123067089Y-70092160D01*
X123156860Y-69757295D01*
X123172004Y-69526650D01*
X127010424Y-69526650D01*
X127055634Y-69870380D01*
X127167034Y-70198685D01*
X127276286Y-70403079D01*
X127553469Y-70513926D01*
X128598395Y-69469000D01*
X128957605Y-69469000D01*
X130002531Y-70513926D01*
X130279714Y-70403079D01*
X130433089Y-70092160D01*
X130522860Y-69757295D01*
X130545576Y-69411350D01*
X130500366Y-69067620D01*
X130388966Y-68739315D01*
X130279714Y-68534921D01*
X130002531Y-68424074D01*
X128957605Y-69469000D01*
X128598395Y-69469000D01*
X127553469Y-68424074D01*
X127276286Y-68534921D01*
X127122911Y-68845840D01*
X127033140Y-69180705D01*
X127010424Y-69526650D01*
X123172004Y-69526650D01*
X123179576Y-69411350D01*
X123134366Y-69067620D01*
X123022966Y-68739315D01*
X122913714Y-68534921D01*
X122636531Y-68424074D01*
X121591605Y-69469000D01*
X121232395Y-69469000D01*
X120187469Y-68424074D01*
X119910286Y-68534921D01*
X119756911Y-68845840D01*
X119667140Y-69180705D01*
X119644424Y-69526650D01*
X119632000Y-69526650D01*
X119632000Y-68648711D01*
X119675937Y-68604774D01*
X119789205Y-68435256D01*
X119867226Y-68246898D01*
X119867709Y-68244469D01*
X120367074Y-68244469D01*
X121412000Y-69289395D01*
X122456926Y-68244469D01*
X127733074Y-68244469D01*
X128778000Y-69289395D01*
X129822926Y-68244469D01*
X129712079Y-67967286D01*
X129401160Y-67813911D01*
X129066295Y-67724140D01*
X128720350Y-67701424D01*
X128376620Y-67746634D01*
X128048315Y-67858034D01*
X127843921Y-67967286D01*
X127733074Y-68244469D01*
X122456926Y-68244469D01*
X122346079Y-67967286D01*
X122035160Y-67813911D01*
X121700295Y-67724140D01*
X121354350Y-67701424D01*
X121010620Y-67746634D01*
X120682315Y-67858034D01*
X120477921Y-67967286D01*
X120367074Y-68244469D01*
X119867709Y-68244469D01*
X119907000Y-68046939D01*
X119907000Y-67843061D01*
X119867226Y-67643102D01*
X119789205Y-67454744D01*
X119675937Y-67285226D01*
X119531774Y-67141063D01*
X119362256Y-67027795D01*
X119173898Y-66949774D01*
X118973939Y-66910000D01*
X118770061Y-66910000D01*
X118570102Y-66949774D01*
X118381744Y-67027795D01*
X118212226Y-67141063D01*
X118068063Y-67285226D01*
X117954795Y-67454744D01*
X117876774Y-67643102D01*
X117837000Y-67843061D01*
X117837000Y-68046939D01*
X117876774Y-68246898D01*
X117954795Y-68435256D01*
X118068063Y-68604774D01*
X118112000Y-68648711D01*
X118112001Y-70527031D01*
X118085695Y-70537927D01*
X117813812Y-70719594D01*
X117582594Y-70950812D01*
X117400927Y-71222695D01*
X117275793Y-71524796D01*
X117212000Y-71845504D01*
X108086000Y-71845504D01*
X108022207Y-71524796D01*
X107897073Y-71222695D01*
X107715406Y-70950812D01*
X107484188Y-70719594D01*
X107445183Y-70693531D01*
X107921074Y-70693531D01*
X108031921Y-70970714D01*
X108342840Y-71124089D01*
X108677705Y-71213860D01*
X109023650Y-71236576D01*
X109367380Y-71191366D01*
X109695685Y-71079966D01*
X109900079Y-70970714D01*
X110010926Y-70693531D01*
X115287074Y-70693531D01*
X115397921Y-70970714D01*
X115708840Y-71124089D01*
X116043705Y-71213860D01*
X116389650Y-71236576D01*
X116733380Y-71191366D01*
X117061685Y-71079966D01*
X117266079Y-70970714D01*
X117376926Y-70693531D01*
X116332000Y-69648605D01*
X115287074Y-70693531D01*
X110010926Y-70693531D01*
X108966000Y-69648605D01*
X107921074Y-70693531D01*
X107445183Y-70693531D01*
X107212305Y-70537927D01*
X107186000Y-70527031D01*
X107186000Y-69526650D01*
X107198424Y-69526650D01*
X107243634Y-69870380D01*
X107355034Y-70198685D01*
X107464286Y-70403079D01*
X107741469Y-70513926D01*
X108786395Y-69469000D01*
X109145605Y-69469000D01*
X110190531Y-70513926D01*
X110467714Y-70403079D01*
X110621089Y-70092160D01*
X110710860Y-69757295D01*
X110726004Y-69526650D01*
X114564424Y-69526650D01*
X114609634Y-69870380D01*
X114721034Y-70198685D01*
X114830286Y-70403079D01*
X115107469Y-70513926D01*
X116152395Y-69469000D01*
X116511605Y-69469000D01*
X117556531Y-70513926D01*
X117833714Y-70403079D01*
X117987089Y-70092160D01*
X118076860Y-69757295D01*
X118099576Y-69411350D01*
X118054366Y-69067620D01*
X117942966Y-68739315D01*
X117833714Y-68534921D01*
X117556531Y-68424074D01*
X116511605Y-69469000D01*
X116152395Y-69469000D01*
X115107469Y-68424074D01*
X114830286Y-68534921D01*
X114676911Y-68845840D01*
X114587140Y-69180705D01*
X114564424Y-69526650D01*
X110726004Y-69526650D01*
X110733576Y-69411350D01*
X110688366Y-69067620D01*
X110576966Y-68739315D01*
X110467714Y-68534921D01*
X110190531Y-68424074D01*
X109145605Y-69469000D01*
X108786395Y-69469000D01*
X107741469Y-68424074D01*
X107464286Y-68534921D01*
X107310911Y-68845840D01*
X107221140Y-69180705D01*
X107198424Y-69526650D01*
X107186000Y-69526650D01*
X107186000Y-68648711D01*
X107229937Y-68604774D01*
X107343205Y-68435256D01*
X107421226Y-68246898D01*
X107421709Y-68244469D01*
X107921074Y-68244469D01*
X108966000Y-69289395D01*
X110010926Y-68244469D01*
X115287074Y-68244469D01*
X116332000Y-69289395D01*
X117376926Y-68244469D01*
X117266079Y-67967286D01*
X116955160Y-67813911D01*
X116620295Y-67724140D01*
X116274350Y-67701424D01*
X115930620Y-67746634D01*
X115602315Y-67858034D01*
X115397921Y-67967286D01*
X115287074Y-68244469D01*
X110010926Y-68244469D01*
X109900079Y-67967286D01*
X109589160Y-67813911D01*
X109254295Y-67724140D01*
X108908350Y-67701424D01*
X108564620Y-67746634D01*
X108236315Y-67858034D01*
X108031921Y-67967286D01*
X107921074Y-68244469D01*
X107421709Y-68244469D01*
X107461000Y-68046939D01*
X107461000Y-67843061D01*
X107421226Y-67643102D01*
X107343205Y-67454744D01*
X107229937Y-67285226D01*
X107085774Y-67141063D01*
X106916256Y-67027795D01*
X106727898Y-66949774D01*
X106527939Y-66910000D01*
X106324061Y-66910000D01*
X106124102Y-66949774D01*
X105935744Y-67027795D01*
X105766226Y-67141063D01*
X105622063Y-67285226D01*
X105508795Y-67454744D01*
X105430774Y-67643102D01*
X105391000Y-67843061D01*
X105391000Y-68046939D01*
X105430774Y-68246898D01*
X105508795Y-68435256D01*
X105622063Y-68604774D01*
X105666000Y-68648711D01*
X105666001Y-70527031D01*
X105639695Y-70537927D01*
X105367812Y-70719594D01*
X105136594Y-70950812D01*
X104954927Y-71222695D01*
X104829793Y-71524796D01*
X104766000Y-71845504D01*
X95640000Y-71845504D01*
X95576207Y-71524796D01*
X95451073Y-71222695D01*
X95269406Y-70950812D01*
X95038188Y-70719594D01*
X94999183Y-70693531D01*
X95475074Y-70693531D01*
X95585921Y-70970714D01*
X95896840Y-71124089D01*
X96231705Y-71213860D01*
X96577650Y-71236576D01*
X96921380Y-71191366D01*
X97249685Y-71079966D01*
X97454079Y-70970714D01*
X97564926Y-70693531D01*
X102841074Y-70693531D01*
X102951921Y-70970714D01*
X103262840Y-71124089D01*
X103597705Y-71213860D01*
X103943650Y-71236576D01*
X104287380Y-71191366D01*
X104615685Y-71079966D01*
X104820079Y-70970714D01*
X104930926Y-70693531D01*
X103886000Y-69648605D01*
X102841074Y-70693531D01*
X97564926Y-70693531D01*
X96520000Y-69648605D01*
X95475074Y-70693531D01*
X94999183Y-70693531D01*
X94766305Y-70537927D01*
X94740000Y-70527031D01*
X94740000Y-69526650D01*
X94752424Y-69526650D01*
X94797634Y-69870380D01*
X94909034Y-70198685D01*
X95018286Y-70403079D01*
X95295469Y-70513926D01*
X96340395Y-69469000D01*
X96699605Y-69469000D01*
X97744531Y-70513926D01*
X98021714Y-70403079D01*
X98175089Y-70092160D01*
X98264860Y-69757295D01*
X98280004Y-69526650D01*
X102118424Y-69526650D01*
X102163634Y-69870380D01*
X102275034Y-70198685D01*
X102384286Y-70403079D01*
X102661469Y-70513926D01*
X103706395Y-69469000D01*
X104065605Y-69469000D01*
X105110531Y-70513926D01*
X105387714Y-70403079D01*
X105541089Y-70092160D01*
X105630860Y-69757295D01*
X105653576Y-69411350D01*
X105608366Y-69067620D01*
X105496966Y-68739315D01*
X105387714Y-68534921D01*
X105110531Y-68424074D01*
X104065605Y-69469000D01*
X103706395Y-69469000D01*
X102661469Y-68424074D01*
X102384286Y-68534921D01*
X102230911Y-68845840D01*
X102141140Y-69180705D01*
X102118424Y-69526650D01*
X98280004Y-69526650D01*
X98287576Y-69411350D01*
X98242366Y-69067620D01*
X98130966Y-68739315D01*
X98021714Y-68534921D01*
X97744531Y-68424074D01*
X96699605Y-69469000D01*
X96340395Y-69469000D01*
X95295469Y-68424074D01*
X95018286Y-68534921D01*
X94864911Y-68845840D01*
X94775140Y-69180705D01*
X94752424Y-69526650D01*
X94740000Y-69526650D01*
X94740000Y-68648711D01*
X94783937Y-68604774D01*
X94897205Y-68435256D01*
X94975226Y-68246898D01*
X94975709Y-68244469D01*
X95475074Y-68244469D01*
X96520000Y-69289395D01*
X97564926Y-68244469D01*
X102841074Y-68244469D01*
X103886000Y-69289395D01*
X104930926Y-68244469D01*
X104820079Y-67967286D01*
X104509160Y-67813911D01*
X104174295Y-67724140D01*
X103828350Y-67701424D01*
X103484620Y-67746634D01*
X103156315Y-67858034D01*
X102951921Y-67967286D01*
X102841074Y-68244469D01*
X97564926Y-68244469D01*
X97454079Y-67967286D01*
X97143160Y-67813911D01*
X96808295Y-67724140D01*
X96462350Y-67701424D01*
X96118620Y-67746634D01*
X95790315Y-67858034D01*
X95585921Y-67967286D01*
X95475074Y-68244469D01*
X94975709Y-68244469D01*
X95015000Y-68046939D01*
X95015000Y-67843061D01*
X94975226Y-67643102D01*
X94897205Y-67454744D01*
X94783937Y-67285226D01*
X94639774Y-67141063D01*
X94470256Y-67027795D01*
X94281898Y-66949774D01*
X94081939Y-66910000D01*
X93878061Y-66910000D01*
X93678102Y-66949774D01*
X93489744Y-67027795D01*
X93320226Y-67141063D01*
X93176063Y-67285226D01*
X93062795Y-67454744D01*
X92984774Y-67643102D01*
X92945000Y-67843061D01*
X92945000Y-68046939D01*
X92984774Y-68246898D01*
X93062795Y-68435256D01*
X93176063Y-68604774D01*
X93220000Y-68648711D01*
X93220001Y-70527031D01*
X93193695Y-70537927D01*
X92921812Y-70719594D01*
X92690594Y-70950812D01*
X92508927Y-71222695D01*
X92383793Y-71524796D01*
X92320000Y-71845504D01*
X80126650Y-71845504D01*
X80118599Y-71818966D01*
X79980706Y-71560986D01*
X79795134Y-71334866D01*
X79569014Y-71149294D01*
X79504477Y-71114799D01*
X79621355Y-71045178D01*
X79837588Y-70850269D01*
X79954497Y-70693531D01*
X90395074Y-70693531D01*
X90505921Y-70970714D01*
X90816840Y-71124089D01*
X91151705Y-71213860D01*
X91497650Y-71236576D01*
X91841380Y-71191366D01*
X92169685Y-71079966D01*
X92374079Y-70970714D01*
X92484926Y-70693531D01*
X91440000Y-69648605D01*
X90395074Y-70693531D01*
X79954497Y-70693531D01*
X80011641Y-70616920D01*
X80136825Y-70354099D01*
X80181476Y-70206890D01*
X80060155Y-69977000D01*
X78867000Y-69977000D01*
X78867000Y-69997000D01*
X78613000Y-69997000D01*
X78613000Y-69977000D01*
X77419845Y-69977000D01*
X77298524Y-70206890D01*
X77343175Y-70354099D01*
X77468359Y-70616920D01*
X77642412Y-70850269D01*
X77858645Y-71045178D01*
X77975523Y-71114799D01*
X77910986Y-71149294D01*
X77684866Y-71334866D01*
X77499294Y-71560986D01*
X77361401Y-71818966D01*
X77276487Y-72098889D01*
X77247815Y-72390000D01*
X76885000Y-72390000D01*
X76885000Y-56565000D01*
X88791198Y-56565000D01*
X86426199Y-58930000D01*
M02*
